<?xml version="1.0" encoding="UTF-8"?>
<!DOCTYPE svg PUBLIC "-//W3C//DTD SVG 1.1//EN" "http://www.w3.org/Graphics/SVG/1.1/DTD/svg11.dtd">
<!-- Creator: CorelDRAW 2018 (64-Bit) -->
<svg xmlns="http://www.w3.org/2000/svg" xml:space="preserve" width="3.38383in" height="5.95493in" version="1.1" style="shape-rendering:geometricPrecision; text-rendering:geometricPrecision; image-rendering:optimizeQuality; fill-rule:evenodd; clip-rule:evenodd"
viewBox="0 0 669.67 1178.51"
 xmlns:xlink="http://www.w3.org/1999/xlink">
 <defs>
  <style type="text/css">
   <![CDATA[
    .str0 {stroke:#BBD2ED;stroke-width:2.32;stroke-linecap:round;stroke-linejoin:round;stroke-miterlimit:2.6131}
    .fil11 {fill:none}
    .fil3 {fill:#FEFEFE}
    .fil9 {fill:#FBCDC1}
    .fil2 {fill:#F9B29F}
    .fil8 {fill:#F5B6A4}
    .fil4 {fill:#EF8D85}
    .fil5 {fill:#D44F87}
    .fil6 {fill:#9D388D}
    .fil7 {fill:#4674A0}
    .fil1 {fill:#312D45}
    .fil0 {fill:#423F6E}
    .fil12 {fill:#383459}
    .fil10 {fill:#2D2A44}
   ]]>
  </style>
 </defs>
 <g id="Layer_x0020_1">
  <metadata id="CorelCorpID_0Corel-Layer"/>
  <g id="_1607362394128">
   <path class="fil0" d="M191.63 299.24c0,0 -32.25,92.05 -27.64,118.13 4.6,26.08 60.03,110.28 101.55,109.72 41.53,-0.55 86.12,-94.93 86.12,-94.93l-160.03 -132.93z"/>
   <path class="fil1" d="M451.52 206.79l0.77 26.85 -23.51 41.75c0,0 -1.82,24.98 -26.39,67.17 -24.57,42.19 -36.09,60.6 -31.48,73.64 48.71,137.88 209.31,123.42 180.82,85.92 -5.24,-6.9 -67.4,-64.57 -57.45,-167.86l0 0c-3.52,0.52 -7.16,0.58 -10.86,0.13 -22.23,-2.7 -38.07,-22.92 -35.36,-45.13 1.65,-13.5 9.75,-24.62 20.84,-30.68l-17.37 -51.79z"/>
   <path class="fil2" d="M460.15 530.24c0,0 68.89,1.8 86.93,47.18 9.56,24.03 64.58,161.37 93.57,241.32 61.5,169.6 -54.4,257.56 -117.91,109.23l13.64 -64.93 -124.2 -291.26 47.97 -41.53z"/>
   <path class="fil3" d="M503.19 538.99c4.74,1.67 14.49,2.12 38.41,23.36 23.92,21.24 46.51,104.44 62.46,143.38 15.94,38.94 51.38,130.11 57.58,160.2 6.2,30.09 23.92,121.25 -27.46,134.53 -51.39,13.27 -72.65,-0.89 -93.02,-26.55 -20.38,-25.67 -139.07,-371.94 -139.07,-371.94l101.1 -62.98z"/>
   <path class="fil4" d="M310.75 297.2l-0.01 0c-41.5,-2.49 -77.48,29.4 -79.97,70.85l-6.38 106.25c-2.49,41.45 29.43,77.41 70.92,79.9l0 0c41.5,2.49 77.49,-29.4 79.98,-70.85l6.38 -106.25c2.49,-41.45 -29.42,-77.41 -70.92,-79.9z"/>
   <path class="fil5" d="M224.33 482.28l-169.72 45.2c0,0 45.38,107.09 0.93,262.31 0,0 68.91,226.91 71.04,249.85 2.13,22.93 -13.13,43.07 -13.85,55.3 -0.74,12.24 11.09,19.96 12.11,32.3 0.1,1.26 -0.51,4.83 -1.66,10.19 64.5,26.48 135.14,41.07 209.19,41.07 75.72,0 147.85,-15.29 213.51,-42.9 -3.69,-12.7 -5.92,-20.32 -5.92,-20.32 0,0 3.07,-14.5 3.25,-21.08 0.18,-6.57 -8.75,-18.73 -8.75,-18.73 0,0 49.35,-266.11 50.77,-289.7 1.41,-23.6 -48.21,-88.86 -71.8,-120.1 -23.58,-31.23 -40.62,-156.81 -40.62,-156.81l-97.52 -25.53c0,0 -56.19,55.79 -150.95,-1.07z"/>
   <path class="fil6" d="M166.94 497.56l-66.01 17.58c75.32,53.87 144.69,24.49 144.69,24.49l-49.03 -28.44c0,0 -12.32,-5.91 -29.65,-13.62zm45.03 254.66c0,0 0.96,114.19 118.02,106.35 38.1,-2.55 75.37,-5.4 108.34,-8.08 48.6,-3.81 34.05,-38.89 34.05,-38.89l-79.76 -209.42 12.93 -13.71 76.82 37.37 40.12 217.42c21.3,-1.93 33.96,-3.16 33.96,-3.16 0,0 11.81,-0.97 22.97,-15.3l0.01 -0c-4.97,29.87 -12.49,72.3 -19.96,113.78 -102.81,3.09 -268.81,2.85 -268.81,2.85 0,0 -36.54,-3.32 -76.39,39.81 -30.07,32.55 -77.16,80.68 -98.47,102.35 4.55,-11.8 12.35,-27.13 10.79,-43.95 -2.14,-22.94 -71.04,-249.85 -71.04,-249.85 11.73,-40.97 17.2,-78.59 18.9,-111.77l114.91 206.17 22.61 -131.97 0 0z"/>
   <path class="fil2" d="M54.61 527.47c0,0 -54.19,26.97 -52.31,97.05 1.89,70.07 71.1,196.53 113.46,315.94 3.08,6.61 -1.12,-22.92 65.76,-43.5 66.88,-20.58 58.94,-54.48 58.94,-54.48l-73.14 -231.76c0,0 -27.84,-105.85 -112.71,-83.25z"/>
   <path class="fil6" d="M396.42 489.83c1.03,-1.9 0.32,-4.27 -1.58,-5.3 -1.91,-1.02 -4.28,-0.31 -5.31,1.59 -0.07,0.12 -22.01,42.91 -84.72,40.66 -63.6,-2.28 -100.39,-41.05 -100.49,-41.15 -1.51,-1.55 -3.98,-1.58 -5.52,-0.08 -1.55,1.5 -1.59,3.98 -0.09,5.52 0.12,0.12 39.03,41.12 105.83,43.52 67.67,2.43 91.82,-44.63 91.89,-44.76z"/>
   <path class="fil7" d="M514.28 673.27c1.47,1.58 3.95,1.67 5.53,0.2 1.58,-1.47 1.67,-3.94 0.2,-5.52 -0.16,-0.17 -55.25,-59.31 -68.87,-88.52 -0.91,-1.96 -3.25,-2.81 -5.21,-1.9 -1.97,0.91 -2.82,3.25 -1.9,5.21 14.12,30.29 70.09,90.37 70.25,90.54z"/>
   <path class="fil6" d="M427.13 880.75c-0.79,2.01 0.21,4.29 2.22,5.07 2.01,0.78 4.29,-0.21 5.08,-2.22 0.05,-0.13 17.75,-45.81 13.05,-71.28 -4.57,-24.82 -35.57,-99.17 -35.66,-99.38 -0.83,-2 -3.13,-2.94 -5.12,-2.12 -1.99,0.83 -2.94,3.12 -2.11,5.12 0.09,0.21 30.79,73.83 35.2,97.79 4.29,23.3 -12.61,66.9 -12.66,67.02z"/>
   <path class="fil7" d="M543.66 1116.54c0.69,-2.04 -0.4,-4.27 -2.45,-4.96 -2.05,-0.69 -4.27,0.41 -4.97,2.45l-10.06 29.41c3.19,-1.2 6.37,-2.43 9.54,-3.68l7.95 -23.22z"/>
   <path class="fil4" d="M481.28 295.52c0.98,0.24 1.95,0.5 2.9,0.81l0.03 0.01 -0.01 -0c17.62,5.61 29.66,22.79 28.06,41.99 -1.87,22.3 -21.49,38.87 -43.81,37.01 -22.33,-1.87 -38.92,-21.46 -37.05,-43.76 1.08,-12.96 8.16,-24 18.28,-30.59 -2.25,11.8 -1.87,26.72 13.19,29.76l1.95 -23.29c0.79,-9.43 10.02,-12.86 16.45,-11.93z"/>
   <path class="fil4" d="M199.93 263.62c-1.01,0.03 -2.01,0.1 -3,0.2l-0.03 0.01 0 0c-18.39,1.92 -33.68,16.29 -36.02,35.41 -2.71,22.22 13.13,42.43 35.36,45.14 22.24,2.71 42.47,-13.11 45.19,-35.32 1.57,-12.91 -3.11,-25.15 -11.69,-33.66 -0.19,12.01 -3.6,26.55 -18.96,26.46l2.84 -23.2c1.15,-9.39 -7.19,-14.62 -13.69,-15.02z"/>
   <path class="fil8" d="M373.1 81.14l0 0c76,7.8 131.8,76.3 123.99,152.22l-12.91 125.56c-7.81,75.92 -76.37,131.66 -152.37,123.86l0 0c-75.98,-7.8 -131.77,-76.3 -123.97,-152.22l12.91 -125.55c7.8,-75.92 76.37,-131.66 152.35,-123.86z"/>
   <path class="fil9" d="M384.96 336.29c-3.53,9.42 -9.69,26.48 -9.2,29.37 0.7,4.03 21.17,8.09 26.6,2.89 3.61,-3.46 -0.71,-19.01 -4.52,-29.49 -5.2,-14.29 -8.14,-15.44 -12.88,-2.76z"/>
   <path class="fil4" d="M291.04 98.28c22.15,-12.47 47.85,-19.02 74.72,-17.69l111.59 165.25c0,0 -1.17,71.8 -39.25,57.35 -72.69,-27.59 -97.85,-119.43 -159.72,-116.96 -32.43,-42.18 -14.54,-70.22 12.65,-87.95z"/>
   <path class="fil3" d="M196.55 344.41c1.19,0.14 2.36,0.22 3.54,0.25 2.36,9.15 6.07,17.09 11.53,21.8 0.72,0.62 0.8,1.69 0.17,2.41 -0.6,0.71 -1.69,0.79 -2.4,0.17 -6.2,-5.33 -10.32,-14.38 -12.84,-24.63zm30.04 23.4c0.34,0.87 1.35,1.3 2.23,0.96 0.87,-0.35 1.29,-1.35 0.95,-2.22 -0.02,-0.03 -5.46,-12.9 -8.82,-42.97 -1.71,-15.32 -3.16,-24.6 -5.47,-30.52 -1.25,-3.18 -2.72,-5.43 -4.59,-7.09 0.24,1.9 0.36,3.79 0.4,5.59l0.02 0.58c0.34,0.66 0.67,1.37 0.98,2.16 2.18,5.6 3.59,14.65 5.27,29.65 3.41,30.58 9.01,43.84 9.04,43.87l0 0z"/>
   <path class="fil4" d="M297.92 349.73c16.8,1.41 29.28,16.15 27.88,32.93 -1.4,16.79 -16.16,29.26 -32.96,27.85 -16.79,-1.41 -29.28,-16.15 -27.88,-32.93 1.42,-16.78 16.17,-29.25 32.96,-27.86z"/>
   <path class="fil4" d="M445.16 361.85c16.79,1.41 29.27,16.15 27.87,32.93 -1.4,16.78 -16.16,29.25 -32.95,27.84 -16.8,-1.4 -29.28,-16.14 -27.88,-32.93 1.41,-16.77 16.17,-29.26 32.97,-27.85z"/>
   <path class="fil10" d="M465.86 297.63c2.36,1.5 5.5,0.8 7,-1.56 1.5,-2.36 0.8,-5.5 -1.55,-6.99 -12.36,-8.06 -29.73,-10.63 -43.31,-4.27 -2.52,1.18 -3.62,4.22 -2.45,6.74 1.18,2.53 4.22,3.64 6.75,2.45 10.92,-5.11 23.65,-2.41 33.55,3.63z"/>
   <path class="fil0" d="M292.92 281.24c9.92,-6.03 22.66,-8.71 33.59,-3.59 2.51,1.18 5.56,0.08 6.75,-2.44 1.18,-2.52 0.08,-5.56 -2.44,-6.74 -13.57,-6.38 -30.94,-3.84 -43.29,4.2 -2.38,1.49 -3.08,4.63 -1.58,7 1.5,2.36 4.64,3.07 6.99,1.58z"/>
   <path class="fil3" d="M478.51 386.34l-60.4 -30.4c0,0 -37.76,-16.94 -88.43,-1.19 -50.68,15.76 -96.67,8.86 -106.71,-0.13 0,0 -10.97,-9.26 -14.92,6.2 -3.96,15.45 8.38,62.25 48.56,100.01 40.17,37.77 76.41,33.43 110.87,33.19 34.45,-0.24 102.06,-58.71 113.1,-100.01 0,0 2.13,-6.04 -0.59,-12.69l-1.48 5.01z"/>
   <path class="fil1" d="M210.6 303.67c0,0 35.67,-14.17 31.19,-55.95 35.82,-2.48 80.8,-53.68 46.75,-95.8 51.33,-16.59 65.58,60.66 95.2,99.34 86.99,113.59 224.21,70.43 204.53,-63.88 -26.16,-178.51 -307.19,-252.74 -349.69,-118.74 -131.04,-9.44 -83.02,149.79 -96.97,216.73l23.47 0.22c0,0 11.97,-20.33 31.51,-18.38 19.55,1.95 14.01,36.46 14.01,36.46z"/>
   <path class="fil0" d="M297.74 323.42c-0.61,0.32 -1.66,1.07 -1.98,2.48 -0.18,0.79 -0.98,1.28 -1.77,1.1 -0.79,-0.18 -1.28,-0.97 -1.09,-1.76 0.35,-1.6 1.27,-2.74 2.17,-3.5l-0.09 -0.06c-1.12,0.59 -2.36,1.58 -3.13,3.23 -0.34,0.74 -1.2,1.06 -1.94,0.72 -0.73,-0.34 -1.05,-1.21 -0.73,-1.94 0.86,-1.86 2.15,-3.12 3.44,-3.98l-0.02 -0.02c-1.32,0.43 -2.7,1.18 -3.91,2.47 -0.55,0.6 -1.49,0.62 -2.08,0.07 -0.59,-0.55 -0.62,-1.48 -0.06,-2.07 1.23,-1.33 2.61,-2.22 3.97,-2.81l5.02 0.4 2.2 5.67z"/>
   <path class="fil0" d="M324.94 315.74c2.55,-1.22 5.61,-0.15 6.83,2.4 1.22,2.54 0.15,5.6 -2.4,6.83 -0.05,0.03 -19.3,9.47 -37.51,-4.81 -2.23,-1.74 -2.62,-4.96 -0.88,-7.19 1.75,-2.22 4.96,-2.61 7.19,-0.87 13.17,10.32 26.73,3.66 26.77,3.64z"/>
   <path class="fil0" d="M462.84 333.32c0.57,0.39 1.53,1.25 1.68,2.7 0.08,0.8 0.81,1.39 1.61,1.3 0.81,-0.08 1.39,-0.8 1.3,-1.61 -0.17,-1.64 -0.93,-2.87 -1.73,-3.73l0.1 -0.06c1.04,0.72 2.15,1.86 2.71,3.59 0.25,0.77 1.07,1.19 1.85,0.95 0.77,-0.25 1.2,-1.08 0.95,-1.84 -0.63,-1.95 -1.75,-3.36 -2.94,-4.37l0.02 -0.02c1.26,0.58 2.55,1.5 3.59,2.92 0.48,0.66 1.4,0.8 2.05,0.31 0.66,-0.48 0.8,-1.4 0.31,-2.05 -1.07,-1.47 -2.33,-2.51 -3.61,-3.27l-5.03 -0.2 -2.87 5.37z"/>
   <path class="fil0" d="M436.76 322.44c-2.38,-1.52 -5.55,-0.82 -7.07,1.56 -1.52,2.38 -0.82,5.55 1.56,7.07 0.05,0.03 18.03,11.7 37.82,-0.3 2.42,-1.46 3.19,-4.61 1.73,-7.02 -1.46,-2.41 -4.61,-3.19 -7.03,-1.73 -14.31,8.67 -26.97,0.44 -27.02,0.42z"/>
   <path class="fil8" d="M458.3 417.89c0,0 48.64,21.33 59.02,28.67 10.38,7.35 14.53,21.95 5.73,53 -8.79,31.04 -25.27,71.69 -25.04,82.93 1,47.33 90.4,186.24 137.74,258.9 76.14,116.86 -62.57,230.47 -111.79,78.83l-62.76 -193.39 0.02 -0.21c-16.44,-48.46 -41.69,-128.05 -42.93,-131.5 -1.44,-4.04 -15.89,-19.24 -19.96,-28.74 -4.07,-9.5 -1.42,-47.16 -1.74,-51.32 -0.31,-4.15 -14.29,-13.41 -16.13,-18.28 -1.83,-4.87 -0.47,-14.36 0.25,-17.24 0.72,-2.87 13.7,-9.29 13.7,-9.29 0,0 8.03,-16.48 12.71,-18.19 4.67,-1.72 11.31,-1.08 11.31,-1.08 0,0 6.95,-16.92 11.78,-19.27 4.83,-2.35 12.27,-1.51 12.27,-1.51 0,0 5.24,-14.13 15.82,-12.32z"/>
   <path class="fil4" d="M444.52 676.25c-12.99,-39.81 -25.37,-78.73 -26.23,-81.13 -1.44,-4.04 -15.89,-19.24 -19.96,-28.74 -1.31,-3.05 -1.92,-9 -2.17,-15.82l11.12 -31.75 70.59 -9.21 -33.36 166.64z"/>
   <path class="fil4" d="M443.47 428.09c-1.17,-0.55 -2.57,-0.04 -3.12,1.13 -0.55,1.17 -0.04,2.57 1.13,3.12l40.41 18.92c1.18,0.55 2.57,0.04 3.12,-1.13 0.55,-1.17 0.04,-2.57 -1.13,-3.12l-40.41 -18.92z"/>
   <path class="fil4" d="M419.56 448.93c-1.14,-0.62 -2.57,-0.2 -3.19,0.93 -0.62,1.13 -0.21,2.56 0.93,3.18l37.46 20.56c1.14,0.63 2.56,0.21 3.19,-0.93 0.62,-1.14 0.2,-2.56 -0.93,-3.19l-37.45 -20.56z"/>
   <path class="fil4" d="M395.61 468.23c-1.11,-0.66 -2.56,-0.28 -3.21,0.83 -0.65,1.12 -0.28,2.55 0.84,3.21l32.55 19.16c1.12,0.66 2.55,0.28 3.21,-0.84 0.66,-1.11 0.29,-2.55 -0.83,-3.21l-32.54 -19.16z"/>
   <path class="fil4" d="M396.58 510.32c-0.76,-1.05 -2.22,-1.29 -3.27,-0.53 -1.05,0.75 -1.29,2.22 -0.53,3.27 0.03,0.05 12.34,16.96 14.61,23.34 0.43,1.22 1.77,1.86 3,1.44 1.22,-0.44 1.87,-1.77 1.44,-3 -2.51,-7.03 -15.21,-24.46 -15.24,-24.51z"/>
   <path class="fil4" d="M417.84 589.88c-0.83,-0.99 -2.3,-1.13 -3.3,-0.3 -0.99,0.83 -1.13,2.3 -0.3,3.3 0.02,0.03 8.81,10.9 29.74,8.2 1.29,-0.16 2.19,-1.34 2.03,-2.62 -0.16,-1.28 -1.34,-2.19 -2.62,-2.03 -18.36,2.37 -25.53,-6.52 -25.55,-6.55z"/>
   <path class="fil4" d="M458.98 727.59c0.42,1.22 1.75,1.87 2.98,1.45 1.22,-0.42 1.87,-1.76 1.45,-2.98 -11.47,-33.02 -28.98,-88.07 -37.67,-115.38 -3,-9.41 -4.96,-15.6 -5.24,-16.36 -0.72,-2.02 -3.69,-5.78 -7.25,-10.29 -4.71,-5.98 -10.52,-13.34 -12.76,-18.58 -0.51,-1.19 -1.89,-1.75 -3.09,-1.24 -1.19,0.51 -1.75,1.89 -1.24,3.08 2.5,5.84 8.52,13.46 13.4,19.64 3.29,4.16 6.03,7.63 6.51,8.97 0.41,1.15 2.31,7.11 5.2,16.19 8.69,27.32 26.2,82.38 37.71,115.49z"/>
   <path class="fil8" d="M413.29 413c0,0 -54.31,12.38 -66.46,17.9 -12.14,5.52 -19.31,19.75 -16.37,53.46 2.94,33.71 11.89,78.83 9.42,90.37 -10.38,48.55 -129.89,174.02 -193,239.54 -101.51,105.37 18.93,249.74 99.58,103.23l102.85 -186.83 0.02 -0.22c26.49,-46.68 68.22,-123.68 70.18,-127 2.29,-3.87 20.17,-16.69 26.24,-25.67 6.07,-8.98 10.77,-48.3 11.92,-52.51 1.14,-4.21 17.37,-11 20.22,-15.65 2.85,-4.66 3.33,-14.7 3.15,-17.8 -0.18,-3.1 -12.28,-12.27 -12.28,-12.27 0,0 -5.02,-18.56 -9.5,-21.24 -4.47,-2.69 -11.43,-3.34 -11.43,-3.34 0,0 -3.83,-18.8 -8.34,-22.17 -4.51,-3.38 -12.34,-3.97 -12.34,-3.97 0,0 -2.6,-15.58 -13.86,-15.81z"/>
   <path class="fil4" d="M427.73 431.09c1.26,-0.32 2.02,-1.6 1.71,-2.86 -0.32,-1.25 -1.61,-2.02 -2.86,-1.7l-45.37 11.53c-1.26,0.32 -2.02,1.6 -1.7,2.85 0.32,1.26 1.6,2.02 2.86,1.7l45.36 -11.53z"/>
   <path class="fil4" d="M448.54 457.19c1.23,-0.4 1.91,-1.72 1.52,-2.95 -0.4,-1.23 -1.72,-1.91 -2.95,-1.52l-42.64 13.79c-1.23,0.4 -1.91,1.72 -1.52,2.95 0.39,1.23 1.72,1.91 2.95,1.51l42.65 -13.79z"/>
   <path class="fil4" d="M469.54 481.75c1.22,-0.43 1.86,-1.78 1.42,-3 -0.44,-1.22 -1.79,-1.86 -3.01,-1.42l-37.31 13.32c-1.22,0.44 -1.86,1.78 -1.42,3 0.43,1.22 1.79,1.86 3,1.42l37.31 -13.32z"/>
   <path class="fil4" d="M461.9 523.88c0.95,-0.88 0.99,-2.37 0.11,-3.31 -0.88,-0.95 -2.37,-1.01 -3.32,-0.12 -0.05,0.04 -16.55,15.5 -20.52,22.24 -0.65,1.11 -0.27,2.55 0.84,3.2 1.12,0.65 2.56,0.28 3.21,-0.84 3.61,-6.13 19.63,-21.13 19.68,-21.17z"/>
   <path class="fil4" d="M424.07 601.83c0.99,-0.83 1.12,-2.31 0.29,-3.3 -0.83,-0.99 -2.31,-1.12 -3.3,-0.29 -0.03,0.02 -9.19,7.78 -27.69,1.7 -1.23,-0.41 -2.56,0.26 -2.97,1.5 -0.41,1.23 0.27,2.56 1.5,2.96 20.98,6.9 32.14,-2.55 32.18,-2.58z"/>
   <path class="fil4" d="M347.27 729.49c-0.65,1.12 -0.26,2.55 0.86,3.2 1.13,0.64 2.56,0.26 3.2,-0.86 18.55,-32.12 47.35,-85.17 61.65,-111.51 4.91,-9.06 8.14,-15 8.54,-15.68 0.75,-1.27 4.28,-4.33 8.51,-7.98 6.25,-5.41 13.95,-12.08 17.65,-17.55 0.73,-1.08 0.44,-2.54 -0.63,-3.26 -1.07,-0.73 -2.53,-0.44 -3.26,0.63 -3.37,4.99 -10.79,11.42 -16.83,16.64 -4.54,3.92 -8.33,7.2 -9.47,9.16 -0.67,1.14 -3.83,6.95 -8.64,15.81 -14.39,26.52 -43.4,79.95 -61.57,111.42z"/>
   <path class="fil4" d="M518.45 444.97c-0.87,-0.62 -2.09,-0.41 -2.72,0.47 -0.62,0.88 -0.42,2.1 0.47,2.72 4.76,3.37 8.1,8.44 9.25,16.29 1.2,8.2 0.05,19.34 -4.28,34.58 -3.47,12.23 -8.16,26.03 -12.53,38.9 -6.73,19.8 -12.73,37.46 -12.58,44.6 0.51,24.05 23.22,70.91 51.74,120.88 28.43,49.77 62.63,102.7 86.31,139.05 0.59,0.9 1.8,1.16 2.7,0.57 0.91,-0.59 1.16,-1.8 0.57,-2.7 -23.65,-36.31 -57.82,-89.17 -86.18,-138.85 -28.25,-49.49 -50.75,-95.75 -51.24,-119.02 -0.13,-6.44 5.76,-23.8 12.38,-43.27 4.39,-12.9 9.08,-26.73 12.59,-39.1 4.48,-15.81 5.65,-27.49 4.38,-36.2 -1.33,-9.04 -5.25,-14.94 -10.88,-18.92z"/>
   <path class="fil4" d="M417.81 602.46c-0.54,0.93 -0.24,2.13 0.7,2.67 0.93,0.54 2.13,0.23 2.68,-0.69 0.78,-1.33 4.33,-4.4 8.58,-8.08 6.23,-5.39 13.92,-12.04 17.59,-17.49 4.82,-7.14 8.68,-31.56 10.79,-44.91 0.66,-4.19 1.15,-7.26 1.4,-8.19 0.4,-1.45 4.81,-4.17 9.26,-6.9 4.55,-2.79 9.14,-5.62 10.74,-8.24 1.28,-2.08 2.11,-5.02 2.64,-7.99 0.77,-4.37 0.9,-8.97 0.79,-10.93 -0.19,-3.56 -10.13,-11.47 -12.52,-13.31 -0.97,-3.4 -5.62,-19.01 -10.2,-21.76 -3.52,-2.12 -8.41,-3.07 -10.82,-3.43 -1.01,-4.51 -4.48,-18.77 -8.79,-21.98l-0.14 -0.1c-3.69,-2.68 -9.15,-3.72 -11.75,-4.09 -1.03,-4.15 -4.84,-15.77 -15.44,-15.98 -0.17,-0 -0.32,0.01 -0.48,0.05 -0.16,0.03 -54.5,12.42 -66.82,18.02 -6.55,2.97 -11.74,8.26 -14.88,17.3l-0.03 0.1c-3.01,8.71 -4.09,20.94 -2.6,38.01 1.16,13.32 3.28,28.54 5.25,42.75 2.97,21.36 5.62,40.4 4.21,47.04 -5.11,23.9 -37.42,67.13 -76.3,112.54 -39.04,45.6 -84.68,93.31 -116.2,126.05 -0.75,0.78 -0.73,2.01 0.05,2.76 0.77,0.75 2.01,0.73 2.77,-0.05 31.57,-32.78 77.27,-80.56 116.35,-126.21 39.25,-45.84 71.89,-89.63 77.16,-114.27 1.56,-7.3 -1.14,-26.66 -4.16,-48.39 -1.95,-14.08 -4.06,-29.16 -5.22,-42.55 -1.43,-16.52 -0.43,-28.22 2.39,-36.41l0.03 -0.08c2.74,-7.89 7.2,-12.47 12.81,-15.02 11.53,-5.24 61.97,-16.84 65.83,-17.72 9.17,0.4 11.6,13.39 11.73,14.14 0.14,0.89 0.87,1.6 1.8,1.66 0.02,0 7.13,0.54 11.19,3.5l0.11 0.09c3.74,2.79 7.25,19.34 7.57,20.88 0.12,0.89 0.86,1.61 1.79,1.68 0.02,0 6.48,0.6 10.56,3.06 3.82,2.28 8.61,20.01 8.63,20.06 0.1,0.4 0.34,0.77 0.69,1.04 0.04,0.03 11.4,8.68 11.52,10.84 0.1,1.78 -0.03,5.98 -0.75,10.04 -0.45,2.57 -1.13,5.03 -2.12,6.64 -1.1,1.8 -5.3,4.38 -9.46,6.94 -5.11,3.14 -10.18,6.26 -10.98,9.22 -0.3,1.14 -0.81,4.3 -1.48,8.61 -2.06,13.03 -5.82,36.88 -10.18,43.32 -3.4,5.04 -10.85,11.48 -16.9,16.72 -4.51,3.9 -8.28,7.16 -9.4,9.06z"/>
   <path class="fil1" d="M164.35 216.76l0.77 26.85 -23.51 41.75c0,0 -1.82,24.98 -26.39,67.17 -24.57,42.19 -36.09,60.6 -31.49,73.64 48.71,137.88 209.31,123.41 180.83,85.91 -5.24,-6.9 -67.39,-64.57 -57.45,-167.86l0 -0c-3.52,0.52 -7.17,0.58 -10.87,0.13 -22.23,-2.71 -38.07,-22.92 -35.36,-45.14 1.65,-13.49 9.75,-24.62 20.84,-30.67l-17.37 -51.79z"/>
   <path class="fil4" d="M190.86 685.32l18.85 59.72c-12.43,13.46 -24.65,26.44 -36.08,38.46l17.23 -98.18z"/>
   <path class="fil3" d="M400.23 652.87c0,0 6.2,34.96 -9.75,70.37 -15.94,35.4 -48.72,54.43 -74.41,99.57 -25.69,45.14 -53.16,123.91 -91.25,163.74 -38.1,39.83 -108.97,11.51 -137.32,-59.3 -28.34,-70.8 -15.07,-93.17 -42.72,-161 -27.64,-67.83 -51.18,-115.15 -43.2,-165.6 7.97,-50.45 34.81,-68.32 53.04,-73.17 103.04,-27.43 120.11,105.96 152.53,209.47 0,0 36.28,-34.96 46.03,-67.7 9.74,-32.75 31,-56.21 65.55,-59.3 34.56,-3.1 20.83,25.22 81.5,42.93z"/>
   <path class="fil3" d="M399.47 662.05c4.37,-1.83 6.06,-4.31 6.06,-4.31 0,0 11.52,-26.55 11.07,-28.76 -0.45,-2.21 -4.45,-7.15 -4.45,-7.15l-4.12 7.6c-45.1,8.46 -77.33,-36.4 -77.33,-36.4l3.39 -7.16c0,0 -4.53,0.18 -7.18,2.61 -2.66,2.44 -10.86,15.93 -12.19,18.59 -0.4,0.8 -0.59,2.87 0.61,6.19 8.23,22.83 59.06,59.3 84.13,48.79z"/>
   <path class="fil3" d="M501.75 626.51l15.52 -3.4c0,0 8.62,4.28 21.68,22.43 13.07,18.14 16.61,55.98 45.85,98.47 29.23,42.48 66.12,96.01 74.42,126.12 8.29,30.1 8.98,83.42 -15.06,108.42 -19.28,20.06 -72.39,22.01 -82.04,16.06 -70.43,-43.37 -58.05,-117.43 -76.66,-179.39 -18.61,-61.96 -73.42,-92.03 -55.26,-162.4 10.19,-25.22 18.16,-2.21 71.54,-26.32z"/>
   <path class="fil3" d="M431.49 660.11c-3.89,-2.26 -5.18,-4.79 -5.18,-4.79 0,0 -7.55,-26.38 -6.87,-28.41 0.69,-2.02 5.07,-6.17 5.07,-6.17l2.94 7.65c41.36,13.49 77.18,-24.72 77.18,-24.72l-2.31 -7.15c0,0 4.24,0.72 6.44,3.33 2.2,2.62 8.24,16.31 9.17,18.97 0.28,0.8 0.2,2.77 -1.34,5.75 -10.55,20.45 -62.82,48.49 -85.11,35.53z"/>
   <path class="fil11 str0" d="M334.09 585.87c0,0 -4.53,0.18 -7.18,2.61 -2.66,2.44 -10.86,15.93 -12.19,18.59 -0.4,0.8 -0.59,2.87 0.61,6.19 8.23,22.83 59.06,59.3 84.13,48.79 4.37,-1.83 6.06,-4.31 6.06,-4.31 0,0 11.52,-26.55 11.07,-28.76 -0.45,-2.21 -4.45,-7.15 -4.45,-7.15"/>
   <path class="fil11 str0" d="M502.33 596.53c0,0 4.24,0.72 6.44,3.33 2.2,2.62 8.24,16.31 9.17,18.97 0.28,0.8 0.2,2.77 -1.34,5.75 -10.55,20.45 -62.82,48.49 -85.11,35.53 -3.89,-2.26 -5.18,-4.79 -5.18,-4.79 0,0 -7.55,-26.38 -6.87,-28.41 0.69,-2.02 5.07,-6.17 5.07,-6.17"/>
   <path class="fil11 str0" d="M207.15 736.95c0,0 -51.68,38.26 -74.92,94.82"/>
   <line class="fil11 str0" x1="66.06" y1="846.76" x2="41.1" y2= "662.54" />
   <path class="fil11 str0" d="M517.28 623.11c0,0 8.62,4.28 21.68,22.43 13.07,18.14 16.61,55.98 45.85,98.47 29.23,42.48 66.12,96.01 74.42,126.12"/>
   <path class="fil12" d="M304.11 6.58c4.16,2.63 8.38,5.68 12.66,9.19 50.55,41.54 116.89,139.21 221.95,69.49 20.85,23.09 36.87,50.39 45.18,81.26 -31.33,25.65 -69.16,50.11 -104.01,55.23 -78.65,11.56 -114.73,-69.15 -138.71,-115.65 -14.27,-27.66 -36.3,-67.25 -68.82,-84.16 9.35,-6.68 20.06,-11.78 31.75,-15.37z"/>
  </g>
 </g>
</svg>
