<?xml version="1.0" encoding="UTF-8"?>
<!DOCTYPE svg PUBLIC "-//W3C//DTD SVG 1.1//EN" "http://www.w3.org/Graphics/SVG/1.1/DTD/svg11.dtd">
<!-- Creator: CorelDRAW 2018 (64-Bit) -->
<svg xmlns="http://www.w3.org/2000/svg" xml:space="preserve" width="2.03831in" height="1.97575in" version="1.1" style="shape-rendering:geometricPrecision; text-rendering:geometricPrecision; image-rendering:optimizeQuality; fill-rule:evenodd; clip-rule:evenodd"
viewBox="0 0 281.06 272.43"
 xmlns:xlink="http://www.w3.org/1999/xlink">
 <defs>
  <style type="text/css">
   <![CDATA[
    .fil0 {fill:#C2C2E1}
   ]]>
  </style>
 </defs>
 <g id="PowerClip_x0020_Contents">
  <metadata id="CorelCorpID_0Corel-Layer"/>
  <path class="fil0" d="M116.76 71.52c-2.5,-4.33 -4.57,-8.85 -5.86,-12.92 -1.23,-3.75 -3.1,-10.27 -2.38,-14.3 0.34,-1.95 1.55,-2.86 1.92,-4.59l0.06 -0.27 0 -0.31c0.14,-5.83 -8.79,-3.13 -11.93,-2.12l-0.11 0.03 -0.13 0.03c-3.08,1.24 -11.55,5.22 -7.64,9.49l0.19 0.22 0.23 0.17c1.42,1.05 2.92,0.96 4.47,2.19 3.18,2.55 6.07,8.71 7.62,12.34 1.7,3.93 3.11,8.61 4.07,13.47 -4.46,1.93 -8.67,4.27 -12.61,6.94 -7.48,-6.39 -14.26,-13.52 -19.24,-20.27 -4.65,-6.24 -11.79,-16.58 -13,-24.51 -0.58,-3.84 0.94,-6.22 0.63,-9.15l-0.03 -0.3 -0.08 -0.28c-2.3,-7.23 -14.81,2.19 -18.07,4.57l-0.11 0.09 -0.1 0.1c-3.04,2.7 -14.71,13.16 -8.08,16.81l0.25 0.14 0.27 0.1c2.81,0.91 5.44,-0.14 9.1,1.19 7.53,2.75 16.27,11.8 21.49,17.56 5.64,6.22 11.29,14.27 16.11,22.88 -0.54,0.52 -1.06,1.05 -1.58,1.59 -4.36,-2.5 -8.41,-5.4 -11.59,-8.27 -2.93,-2.66 -7.82,-7.37 -9.2,-11.22 -0.68,-1.85 -0.1,-3.23 -0.63,-4.94l-0.1 -0.27 -0.15 -0.25c-2.8,-5.12 -9.2,1.68 -11.41,4.12l-0.09 0.11 -0.08 0.13c-1.98,2.65 -7.44,10.21 -1.87,11.97l0.28 0.1 0.31 0.03c1.75,0.19 2.99,-0.64 4.95,-0.33 4.04,0.61 9.63,4.5 12.77,6.86 3.48,2.57 7.05,5.94 10.31,9.69 -12.09,16.33 -17.83,37.33 -14.27,58.9 0.49,3.1 1.18,6.12 2.04,9.07 -4.33,2.51 -8.87,4.56 -12.95,5.87 -3.75,1.21 -10.28,3.09 -14.32,2.37 -1.94,-0.35 -2.85,-1.55 -4.58,-1.93l-0.28 -0.05 -0.31 -0.01c-5.84,-0.12 -3.12,8.8 -2.12,11.94l0.02 0.1 0.06 0.1c0.25,0.63 0.61,1.47 1.08,2.41 -5.84,1.78 -12.14,3.14 -16.99,2.6 -3.87,-0.43 -5.76,-2.53 -8.71,-2.96l-0.27 -0.06 -0.32 0.02c-7.56,0.33 -1.7,14.83 -0.23,18.6l0.06 0.16 0.09 0.16c1.86,3.58 8.87,17.59 14.13,12.12l0.22 -0.21 0.15 -0.25c1.6,-2.48 1.27,-5.29 3.53,-8.48 4.59,-6.56 15.61,-12.66 22.54,-16.18 7.52,-3.87 16.72,-7.22 26.24,-9.61 6.62,11.66 16.11,21.32 27.35,28.18 -1.61,9.27 -4.72,18.74 -8.51,26.11 -2.51,4.85 -6.92,12.81 -11.55,16.05 -2.25,1.56 -4.27,1.3 -6.17,2.52l-0.24 0.16 -0.22 0.21c-4.75,4.54 5.79,9.96 8.99,11.63l0.17 0.08 0.12 0.05c3.37,1.31 14.4,5.69 14.69,-0.88l0 -0.28 -0.03 -0.29c-0.35,-2.23 -1.86,-3.56 -2.15,-6.28 -0.63,-5.63 2.46,-14.18 4.5,-19.26 2.93,-7.46 7.99,-15.98 13.83,-23.26 9.01,3.36 18.71,5.1 28.72,4.89 1.29,4.83 2.12,9.75 2.32,13.98 0.21,3.97 0.32,10.74 -1.4,14.46 -0.84,1.79 -2.24,2.36 -3.08,3.93l-0.1 0.25 -0.08 0.28c-1.63,5.55 7.74,5.39 11.07,5.14l0.19 -0.02c3.28,-0.49 12.51,-1.99 9.81,-7.17l-0.14 -0.26 -0.19 -0.23c-1.1,-1.38 -2.58,-1.68 -3.74,-3.26 -2.42,-3.3 -3.61,-9.99 -4.18,-13.9 -0.63,-4.24 -0.77,-9.14 -0.41,-14.08 0.33,-0.04 0.66,-0.1 1,-0.15 11.54,-1.89 22.07,-6.22 31.18,-12.41 7.48,6.39 14.24,13.52 19.26,20.27 4.6,6.24 11.76,16.58 12.96,24.51 0.6,3.85 -0.95,6.22 -0.63,9.17l0.05 0.29 0.08 0.27c2.31,7.24 14.78,-2.2 18.05,-4.57l0.14 -0.09 0.1 -0.1c3.02,-2.69 14.71,-13.15 8.08,-16.8l-0.25 -0.15 -0.27 -0.09c-2.82,-0.9 -5.47,0.14 -9.1,-1.2 -7.55,-2.74 -16.3,-11.8 -21.51,-17.55 -5.61,-6.23 -11.3,-14.28 -16.08,-22.88 8.72,-8.58 15.35,-19.11 19.3,-30.75 11.12,-1.25 23.18,-0.68 32.86,1.41 6.08,1.31 15.96,3.77 20.85,7.89 2.37,2 2.69,4.27 4.51,5.93l0.23 0.19 0.25 0.15c5.9,3.58 8.61,-9.17 9.43,-12.83l0.02 -0.15 0 -0.16c0.44,-3.72 1.98,-16.68 -4.76,-15.21l-0.27 0.07 -0.27 0.11c-2.26,0.99 -3.3,3.01 -6.19,4.14 -5.96,2.32 -16.12,1.46 -22.29,0.75 -9.41,-1.1 -20.78,-4.32 -30.73,-8.88 0.73,-6.81 0.56,-13.82 -0.58,-20.89 -0.74,-4.49 -1.84,-8.81 -3.29,-12.96 8.12,-5.57 16.77,-10.25 24.57,-13.33 7.24,-2.84 19.08,-7.08 27.06,-6.19 3.87,0.43 5.76,2.54 8.71,2.97l0.27 0.05 0.28 -0.01c7.6,-0.32 1.71,-14.83 0.27,-18.59l-0.06 -0.17 -0.09 -0.15c-1.85,-3.6 -8.89,-17.59 -14.15,-12.14l-0.19 0.22 -0.14 0.25c-1.61,2.49 -1.31,5.3 -3.54,8.48 -4.59,6.58 -15.61,12.65 -22.53,16.2 -7.56,3.85 -16.74,7.22 -26.24,9.6 -7.22,-12.66 -17.76,-22.96 -30.29,-29.88 1.27,-4.86 3.03,-9.53 4.98,-13.34 1.8,-3.51 5.1,-9.45 8.45,-11.8 1.63,-1.12 3.11,-0.92 4.6,-1.87l0.26 -0.16 0.22 -0.22c4.21,-4.01 -4.02,-8.45 -6.97,-9.95l-0.14 -0.08 -0.14 -0.05c-3.06,-1.19 -11.78,-4.52 -12.06,1.33l-0 0.29 0.03 0.29c0.27,1.76 1.43,2.74 1.64,4.7 0.43,4.07 -1.91,10.45 -3.37,14.12 -1.55,3.94 -3.89,8.28 -6.67,12.41 -10.6,-4.18 -22.23,-6.09 -34.16,-5.21 -3.28,-9.25 -5.57,-18.78 -6.51,-27.16 -0.89,-7.71 -1.9,-20.24 1.01,-27.71 1.42,-3.63 3.93,-4.91 5.13,-7.62l0.12 -0.27 0.05 -0.28c1.66,-7.41 -13.89,-5.5 -17.94,-5.04l-0.14 0.01 -0.17 0.03c-3.95,0.86 -19.29,4.01 -15.37,10.51l0.13 0.26 0.21 0.2c1.97,2.2 4.77,2.62 7.29,5.59 5.16,6.15 8.2,18.35 9.82,25.94 1.76,8.2 2.65,17.99 2.5,27.83 -0.73,0.18 -1.46,0.38 -2.19,0.58z"/>
 </g>
</svg>
