<?xml version="1.0" encoding="UTF-8"?>
<!DOCTYPE svg PUBLIC "-//W3C//DTD SVG 1.1//EN" "http://www.w3.org/Graphics/SVG/1.1/DTD/svg11.dtd">
<!-- Creator: CorelDRAW 2018 (64-Bit) -->
<svg xmlns="http://www.w3.org/2000/svg" xml:space="preserve" width="0.523358in" height="0.507717in" version="1.1" style="shape-rendering:geometricPrecision; text-rendering:geometricPrecision; image-rendering:optimizeQuality; fill-rule:evenodd; clip-rule:evenodd"
viewBox="0 0 16.7 16.2"
 xmlns:xlink="http://www.w3.org/1999/xlink">
 <defs>
  <style type="text/css">
   <![CDATA[
    .fil0 {fill:#423F6E}
   ]]>
  </style>
 </defs>
 <g id="Layer_x0020_1">
  <metadata id="CorelCorpID_0Corel-Layer"/>
  <path class="fil0" d="M6.91 4.25c-0.15,-0.26 -0.27,-0.53 -0.35,-0.77 -0.07,-0.22 -0.19,-0.61 -0.14,-0.85 0.02,-0.12 0.09,-0.17 0.11,-0.27l0 -0.02 0 -0.02c0.01,-0.35 -0.52,-0.18 -0.71,-0.12l-0.01 0 -0.01 0c-0.18,0.07 -0.69,0.31 -0.45,0.57l0.01 0.01 0.01 0.01c0.08,0.06 0.17,0.06 0.27,0.13 0.19,0.15 0.36,0.52 0.46,0.73 0.1,0.23 0.19,0.51 0.25,0.8 -0.26,0.12 -0.51,0.26 -0.75,0.42 -0.45,-0.38 -0.85,-0.8 -1.15,-1.2 -0.28,-0.37 -0.7,-0.98 -0.78,-1.45 -0.04,-0.23 0.05,-0.37 0.04,-0.54l-0 -0.02 -0 -0.02c-0.14,-0.43 -0.88,0.13 -1.07,0.28l-0.01 0.01 -0.01 0.01c-0.18,0.16 -0.87,0.79 -0.48,1l0.01 0.01 0.02 0.01c0.17,0.05 0.32,-0.01 0.54,0.07 0.45,0.16 0.97,0.7 1.28,1.04 0.34,0.37 0.67,0.85 0.96,1.36 -0.03,0.03 -0.06,0.06 -0.09,0.09 -0.26,-0.15 -0.5,-0.32 -0.69,-0.49 -0.17,-0.16 -0.47,-0.44 -0.55,-0.66 -0.04,-0.11 -0.01,-0.19 -0.04,-0.29l-0.01 -0.02 -0.01 -0.01c-0.17,-0.3 -0.55,0.1 -0.68,0.25l-0.01 0.01 -0 0.01c-0.12,0.16 -0.44,0.61 -0.11,0.71l0.02 0.01 0.02 0c0.1,0.01 0.18,-0.04 0.29,-0.02 0.24,0.04 0.57,0.27 0.76,0.4 0.21,0.15 0.42,0.35 0.62,0.57 -0.71,0.97 -1.05,2.22 -0.83,3.5 0.03,0.18 0.07,0.36 0.12,0.54 -0.26,0.15 -0.53,0.27 -0.77,0.35 -0.22,0.07 -0.61,0.19 -0.85,0.14 -0.12,-0.02 -0.17,-0.09 -0.27,-0.11l-0.02 -0 -0.02 -0c-0.35,-0.01 -0.18,0.52 -0.12,0.71l0 0.01 0 0.01c0.01,0.04 0.04,0.09 0.06,0.14 -0.35,0.11 -0.72,0.19 -1.01,0.16 -0.23,-0.02 -0.34,-0.15 -0.52,-0.17l-0.02 -0 -0.02 0c-0.45,0.02 -0.1,0.88 -0.01,1.11l0 0.01 0.01 0.01c0.11,0.21 0.53,1.04 0.84,0.72l0.01 -0.01 0.01 -0.01c0.09,-0.15 0.07,-0.31 0.21,-0.51 0.27,-0.39 0.92,-0.76 1.34,-0.97 0.45,-0.23 0.99,-0.43 1.56,-0.58 0.4,0.69 0.96,1.26 1.63,1.67 -0.09,0.55 -0.28,1.11 -0.5,1.55 -0.15,0.29 -0.41,0.76 -0.68,0.96 -0.13,0.09 -0.25,0.08 -0.37,0.15l-0.01 0.01 -0.01 0.01c-0.28,0.27 0.35,0.59 0.54,0.69l0.01 0 0.01 0c0.2,0.08 0.86,0.33 0.87,-0.06l0 -0.02 -0 -0.02c-0.02,-0.13 -0.11,-0.21 -0.13,-0.37 -0.04,-0.33 0.14,-0.84 0.26,-1.15 0.17,-0.44 0.47,-0.95 0.82,-1.39 0.54,0.2 1.11,0.3 1.71,0.28 0.08,0.29 0.13,0.58 0.14,0.83 0.01,0.24 0.02,0.64 -0.08,0.86 -0.05,0.11 -0.13,0.14 -0.18,0.23l-0.01 0.01 -0 0.02c-0.1,0.33 0.46,0.32 0.66,0.3l0.01 -0c0.19,-0.03 0.74,-0.12 0.58,-0.43l-0.01 -0.02 -0.01 -0.01c-0.07,-0.08 -0.15,-0.1 -0.22,-0.19 -0.14,-0.2 -0.22,-0.59 -0.25,-0.83 -0.04,-0.25 -0.05,-0.54 -0.03,-0.84 0.02,-0 0.04,-0.01 0.06,-0.01 0.69,-0.12 1.31,-0.38 1.85,-0.74 0.45,0.38 0.85,0.8 1.15,1.2 0.27,0.37 0.7,0.98 0.78,1.45 0.04,0.23 -0.05,0.37 -0.04,0.55l0 0.02 0 0.02c0.14,0.43 0.88,-0.13 1.07,-0.28l0.01 -0.01 0.01 -0.01c0.18,-0.16 0.87,-0.79 0.48,-1l-0.01 -0.01 -0.02 -0.01c-0.17,-0.05 -0.32,0.01 -0.54,-0.07 -0.45,-0.16 -0.97,-0.7 -1.28,-1.04 -0.34,-0.37 -0.68,-0.85 -0.96,-1.36 0.52,-0.51 0.91,-1.14 1.14,-1.83 0.66,-0.08 1.38,-0.05 1.95,0.08 0.36,0.08 0.95,0.22 1.24,0.46 0.14,0.12 0.16,0.25 0.27,0.35l0.01 0.01 0.01 0.01c0.35,0.21 0.51,-0.55 0.56,-0.76l0 -0.01 0 -0.01c0.03,-0.22 0.11,-0.99 -0.29,-0.9l-0.02 0 -0.02 0.01c-0.13,0.06 -0.2,0.18 -0.37,0.25 -0.35,0.14 -0.96,0.09 -1.32,0.05 -0.56,-0.06 -1.24,-0.25 -1.83,-0.52 0.04,-0.4 0.03,-0.82 -0.04,-1.24 -0.05,-0.27 -0.11,-0.52 -0.2,-0.77 0.48,-0.33 0.99,-0.61 1.46,-0.8 0.43,-0.17 1.13,-0.43 1.61,-0.37 0.23,0.02 0.34,0.15 0.52,0.17l0.02 0 0.02 -0c0.45,-0.02 0.1,-0.88 0.01,-1.11l-0 -0.01 -0.01 -0.01c-0.11,-0.21 -0.53,-1.04 -0.84,-0.72l-0.01 0.01 -0.01 0.01c-0.1,0.15 -0.08,0.32 -0.21,0.5 -0.27,0.39 -0.92,0.76 -1.34,0.97 -0.45,0.23 -0.99,0.43 -1.56,0.58 -0.43,-0.75 -1.06,-1.36 -1.81,-1.77 0.07,-0.29 0.18,-0.57 0.29,-0.79 0.11,-0.21 0.3,-0.56 0.5,-0.7 0.1,-0.07 0.18,-0.06 0.27,-0.11l0.02 -0.01 0.01 -0.01c0.25,-0.24 -0.24,-0.5 -0.42,-0.59l-0.01 -0 -0.01 -0c-0.18,-0.07 -0.7,-0.27 -0.72,0.08l0 0.02 0 0.02c0.02,0.1 0.09,0.16 0.1,0.28 0.03,0.24 -0.11,0.62 -0.2,0.84 -0.09,0.23 -0.23,0.49 -0.39,0.74 -0.63,-0.25 -1.32,-0.36 -2.03,-0.3 -0.2,-0.55 -0.34,-1.12 -0.39,-1.61 -0.05,-0.46 -0.12,-1.2 0.05,-1.65 0.08,-0.22 0.23,-0.29 0.3,-0.45l0.01 -0.02 0 -0.02c0.1,-0.44 -0.83,-0.32 -1.07,-0.3l-0.01 0 -0.01 0c-0.23,0.05 -1.15,0.24 -0.91,0.63l0.01 0.02 0.01 0.01c0.12,0.13 0.28,0.15 0.43,0.33 0.31,0.36 0.49,1.09 0.59,1.54 0.11,0.49 0.16,1.07 0.16,1.65 -0.04,0.01 -0.09,0.02 -0.13,0.04z"/>
 </g>
</svg>
