<svg xmlns="http://www.w3.org/2000/svg" xmlns:xlink="http://www.w3.org/1999/xlink" style="shape-rendering:geometricPrecision;text-rendering:geometricPrecision;image-rendering:optimizeQuality;fill-rule:evenodd;clip-rule:evenodd" width="150.797" height="156.372" version="1.1" viewBox="0 0 5219.81 5412.77" xml:space="preserve"><defs><style type="text/css">.str7{stroke:#e13782;stroke-width:46.14;stroke-miterlimit:2.61313}.str0{stroke-linecap:round;stroke-linejoin:round;stroke-miterlimit:10}.str1{stroke:#f58b7c;stroke-width:40.28}.str1,.str2,.str3,.str4,.str5,.str6{stroke-linecap:round;stroke-linejoin:round;stroke-miterlimit:10}.str5,.str6{stroke-width:80.56}.str6{stroke:#ef5a9e}.str5{stroke:#505ea4}.str2{stroke:#f58b7c;stroke-width:48.12}.str0{stroke:#e13782;stroke-width:220.2}.str3,.str4{stroke:#f58b7c;stroke-width:63.4}.str4{stroke:#6c74a6}.fil2{fill:none;fill-rule:nonzero}.fil11{fill:#e13782}.fil10{fill:#fcfeff}.fil5,.fil6,.fil8{fill-rule:nonzero}.fil8{fill:#f59dae}.fil5{fill:#f6998d}.fil6{fill:#f6988a}.fil1,.fil4,.fil7{fill-rule:nonzero}.fil7{fill:#f5b6a4}.fil4{fill:#e13782}.fil1{fill:#5c67ae}.fil0,.fil3,.fil9{fill-rule:nonzero}.fil9{fill:#5864ac}.fil3{fill:#3c4180}.fil0{fill:#c3e2f5}</style></defs><g id="Layer_x0020_1"><metadata id="CorelCorpID_0Corel-Layer"/><g id="_1607337253088"><path d="M5219.81 2644.19c0,1441.34 -1168.5,2609.9 -2609.9,2609.9 -1441.41,0 -2609.91,-1168.56 -2609.91,-2609.9 0,-1441.45 1168.5,-2609.9 2609.91,-2609.9 1441.4,0 2609.9,1168.45 2609.9,2609.9z" class="fil0"/><path d="M911.81 2876.07l0 1749.93c456.45,391.48 1049.63,628.09 1698.11,628.09 648.49,0 1241.65,-236.63 1698.11,-628.11l0 -1765.62c0,-69.88 -33.9,-135.45 -90.91,-175.86l-1470.17 -1042.1c-74.66,-52.91 -174.54,-52.95 -249.2,-0.1l-1494.88 1057.78c-57.09,40.41 -91.06,106.01 -91.06,175.98z" class="fil1"/><path d="M4632 2659.63l-1898.01 -1361.62c-73.56,-52.75 -172.3,-53.95 -247.09,-2.96l0 0 -1899.06 1364.58" class="fil2 str0"/><path d="M3636.29 3351.79c21.77,172.01 156.72,627.9 324.91,669.94 6.2,73.79 -65.4,135.52 -138.61,146.02 -73.21,10.54 -139.29,4.21 -208.47,-21.94 52.99,20.93 60.94,101.91 22.01,143.52 -38.92,41.68 -105.55,46.63 -159.1,27.11 -53.57,-19.47 -91.34,-64.68 -133.55,-103.01 38.32,75.04 -1.62,179.16 -80.32,209.3 -78.71,30.09 -181.73,-3.66 -203.29,-85.08 30.18,56.99 2.04,133.85 -53.19,167.05 -55.27,33.1 -128.93,25.88 -183.62,-8.31 -54.59,-34.16 -77.18,-91.23 -98.2,-152.17 -7.43,117.55 -127.14,215.33 -243.78,199.17 -116.69,-16.2 -226.58,-124.73 -201.8,-239.83 -8.9,88.91 -122.18,148.5 -200.48,105.51 -78.27,-43.04 -88.65,-170.7 -18.36,-225.86 -38.25,71.05 -107.1,124.95 -185.24,144.94 -45.55,11.68 -99.18,10.22 -133.04,-22.4 -32.3,-31.1 -37.1,-82.64 -23.59,-125.35 13.51,-42.74 42.14,-78.78 70.24,-113.7 -85.12,79.62 -218.93,102.06 -325.34,54.59 -41.3,-18.45 -82.25,-54.44 -79.16,-99.51 3.78,-54.07 64.22,-81.55 111.81,-107.51 129.86,-70.88 217.66,-414.61 222.71,-562.49 620.79,-123.95 1309.4,-176.09 1917.48,0z" class="fil3"/><path d="M1116.39 5010.87c5.91,-5.68 481.32,-457.11 1487.99,-457.11 1012.18,0 1582.35,398.33 1583.32,399.01 -396.59,252.39 -857.45,412.79 -1352.54,451.08l-5.4 0.43c-22.27,1.69 -44.65,3.06 -67.05,4.25l-11.97 0.61c-21.76,1.06 -43.59,1.88 -65.48,2.49l-12.27 0.27c-22.82,0.54 -45.67,0.86 -68.61,0.86 -22.52,0 -44.94,-0.34 -67.34,-0.85 -4.5,-0.1 -9.04,-0.16 -13.54,-0.29 -17.64,-0.47 -35.21,-1.22 -52.76,-2 -335.26,-15.48 -625.75,-86.92 -850.85,-165.17 -8.03,-2.84 -16.1,-5.57 -24.11,-8.49l-8.57 -3.07c-164.31,-60.27 -321.69,-134.86 -470.81,-222.03z" class="fil4"/><path d="M2604.38 4785.15l0 0c-144.83,0 -262.23,-117.46 -262.23,-262.28l0 -200.48 524.46 0 0 200.48c0,144.83 -117.42,262.28 -262.23,262.28z" class="fil5"/><path d="M1774.47 3185.65c-96.25,-25.98 -202.27,64.32 -218.63,186.02 -16.35,121.7 59.96,250.47 157.61,266.23 97.61,15.71 197.38,-84.44 206.6,-207.3 9.3,-122.85 -73.55,-244.6 -171.8,-252.69l26.22 7.73z" class="fil6"/><path d="M1687.71 3525.41c-42.21,-34.33 -60.18,-95.53 -43.3,-147.21 16.86,-51.69 67.52,-90.49 121.83,-93.35" class="fil2 str1"/><path d="M1653.19 3397.21c51.3,-11.68 108.88,14.44 133.81,60.77" class="fil2 str1"/><path d="M3610.28 3185.65c-96.24,-25.98 -202.26,64.32 -218.63,186.02 -16.35,121.7 59.97,250.47 157.61,266.23 97.61,15.71 197.39,-84.44 206.66,-207.3 9.22,-122.85 -73.6,-244.6 -171.82,-252.69l26.18 7.73z" class="fil6"/><path d="M3595.58 3525.41c42.14,-34.33 60.17,-95.53 43.3,-147.21 -16.88,-51.69 -67.53,-90.49 -121.84,-93.35" class="fil2 str1"/><path d="M3630.08 3397.21c-51.3,-11.68 -108.88,14.44 -133.85,60.77" class="fil2 str1"/><path d="M3545.1 2880.4c33.61,187.02 42.15,1514.57 -858.75,1514.57 -587.26,0 -828.21,-328.99 -901.12,-965.59 -51.89,-452.77 25.46,-932.82 396.51,-1125.62 443.36,-230.36 1183.31,-95.52 1343.22,487.41 8.07,29.45 14.74,59.24 20.13,89.22z" class="fil7"/><path d="M2672.53 3806.9c20.61,7.13 70.28,-8.11 75.68,-27.11 5.36,-19.01 -3.61,-39.1 -16.58,-54.99 -12.99,-15.86 -29.91,-28.9 -43.72,-44.21 -41,-45.58 -50.36,-111.79 -23.33,-164.93" class="fil2 str2"/><path d="M2437.02 3813.14c-41.97,107.06 -176.38,167.08 -284.15,126.97 -107.76,-40.02 -170.23,-173.36 -132.11,-281.78 96.67,-274.9 522.8,-116.54 416.26,154.81z" class="fil8"/><path d="M3315.51 3837.16c-42.04,106.99 -176.43,167.07 -284.21,126.99 -107.71,-40.1 -170.22,-173.4 -132.06,-281.84 96.67,-274.91 522.76,-116.53 416.27,154.85z" class="fil8"/><path d="M2524.95 4030.5c-94.8,2.46 -184.42,-77.2 -193.09,-171.63" class="fil2 str3"/><path d="M2283.68 3388.72c-0.94,49.79 39.94,96.92 89.39,103 49.47,6.03 100.58,-29.83 111.67,-78.41" class="fil2 str4"/><path d="M3053.58 3360.45c4.59,49.64 -32.76,99.66 -81.68,109.31 -48.86,9.68 -102.45,-22.36 -117.06,-70.01" class="fil2 str4"/><path d="M2161.63 3278.84c26.26,-63.45 94.46,-107 163.05,-104.03" class="fil2 str3"/><path d="M3020.56 3165.58c71.77,-5.35 142.69,51.51 153.02,122.73" class="fil2 str3"/><path d="M2527.11 4208.08c45.1,-29.12 105.72,-32.43 153.71,-8.26" class="fil2 str3"/><path d="M2003.85 2752.2c8.58,-25.92 18.24,-51.45 30.39,-75.81 -17.18,22.19 -26.69,48.5 -30.39,75.81z" class="fil9"/><path d="M2945.13 2740.73c-6.07,19.62 -6.29,40.75 -2.12,61.71 5.14,-20.11 6.28,-41.11 2.12,-61.71z" class="fil9"/><path d="M3627.7 2973.48c13.85,-287.95 16.2,-403.71 -174.83,-619.58 -191.04,-215.87 -437.88,-341.23 -685.07,-192.97 -258.03,-176.25 -607.37,-18.98 -836.96,192.97 -229.59,211.99 -207.41,430.37 -195.38,646.97 6.84,123.4 30.76,283.98 30.76,283.98 0,0 101.69,-34.45 119.83,-109.2 5.78,-23.97 18.36,-57.12 20.95,-81.68 11.87,-113.19 110.07,-395.4 127.24,-417.59 -12.15,24.36 329.7,-221.37 321.12,-195.42 -9.94,73.04 963.19,400.2 1004.93,451.36 41.77,51.18 64.25,374.81 176.91,425.7 33.23,15.06 83.66,-243.07 90.51,-384.54z" class="fil3"/><path d="M3517.05 3284.86c-58.47,57.88 -81.34,-201.71 -332.17,-240.1 -176.36,-26.96 -360.64,20.19 -530.4,-34.59 -169.8,-54.76 -326.01,-179.31 -376.24,-350.48 -68.84,230.4 -259.93,710.45 -493.01,769.69 -20.06,-240.13 -111.84,-450.89 5.1,-661.58 617,-708.75 1017.04,-275.01 1408.44,-103.85 68.5,30 138.29,64.37 185.54,122.34 47.24,58.01 185.91,445.97 132.74,498.57z" class="fil3"/><path d="M2382.68 2498.64c192.88,-104.37 426.38,-131 637.8,-72.83 211.44,58.22 398.46,200.56 510.77,388.9" class="fil2 str5"/><path d="M2202.52 4669.22c82.47,167.2 232.9,275.52 387.03,278.66 154.13,3.1 307.18,-99.04 393.7,-262.81" class="fil2 str6"/><g><circle cx="4155.42" cy="721.82" r="698.73" class="fil10 str7"/><path d="M4155.42 162.83l0.03 0c55.34,0 100.59,45.27 100.59,100.59l0 357.78 357.78 0c55.34,0 100.59,45.25 100.59,100.59l0 0.03c0,55.33 -45.25,100.59 -100.59,100.59l-357.78 0 0 357.8c0,55.34 -45.25,100.59 -100.59,100.59l-0.03 0c-55.33,0 -100.59,-45.25 -100.59,-100.59l0 -357.8 -357.8 0c-55.33,0 -100.59,-45.27 -100.59,-100.59l0 -0.03c0,-55.34 45.27,-100.59 100.59,-100.59l357.8 0 0 -357.78c0,-55.33 45.27,-100.59 100.59,-100.59z" class="fil11"/></g></g></g></svg>