<?xml version="1.0" encoding="UTF-8"?>
<!DOCTYPE svg PUBLIC "-//W3C//DTD SVG 1.1//EN" "http://www.w3.org/Graphics/SVG/1.1/DTD/svg11.dtd">
<!-- Creator: CorelDRAW 2018 (64-Bit) -->
<svg xmlns="http://www.w3.org/2000/svg" xml:space="preserve" width="1.5708in" height="1.5708in" version="1.1" style="shape-rendering:geometricPrecision; text-rendering:geometricPrecision; image-rendering:optimizeQuality; fill-rule:evenodd; clip-rule:evenodd"
viewBox="0 0 412.83 412.82"
 xmlns:xlink="http://www.w3.org/1999/xlink">
 <defs>
  <style type="text/css">
   <![CDATA[
    .fil7 {fill:#FEFEFE;fill-rule:nonzero}
    .fil30 {fill:#F9A248;fill-rule:nonzero}
    .fil31 {fill:#F3C164;fill-rule:nonzero}
    .fil29 {fill:#F2B649;fill-rule:nonzero}
    .fil6 {fill:#E1EBF7;fill-rule:nonzero}
    .fil12 {fill:#E2B37D;fill-rule:nonzero}
    .fil21 {fill:#DB6683;fill-rule:nonzero}
    .fil20 {fill:#D23E5F;fill-rule:nonzero}
    .fil5 {fill:#D4ECEA;fill-rule:nonzero}
    .fil8 {fill:#CEDFE8;fill-rule:nonzero}
    .fil4 {fill:#CDEAE6;fill-rule:nonzero}
    .fil26 {fill:#C75F7A;fill-rule:nonzero}
    .fil10 {fill:#C1E5E0;fill-rule:nonzero}
    .fil11 {fill:#C7834B;fill-rule:nonzero}
    .fil25 {fill:#BE405A;fill-rule:nonzero}
    .fil2 {fill:#B4E0DA;fill-rule:nonzero}
    .fil1 {fill:#A8DBD5;fill-rule:nonzero}
    .fil3 {fill:#91D3CD;fill-rule:nonzero}
    .fil9 {fill:#7CCCC4;fill-rule:nonzero}
    .fil22 {fill:#5DBB5E;fill-rule:nonzero}
    .fil27 {fill:#4DB559;fill-rule:nonzero}
    .fil23 {fill:#4DAF5B;fill-rule:nonzero}
    .fil28 {fill:#4E9F57;fill-rule:nonzero}
    .fil15 {fill:#4A414B;fill-rule:nonzero}
    .fil17 {fill:#463D46;fill-rule:nonzero}
    .fil16 {fill:#3D373E;fill-rule:nonzero}
    .fil13 {fill:#16A393;fill-rule:nonzero}
    .fil19 {fill:#3A353B;fill-rule:nonzero}
    .fil24 {fill:#383339;fill-rule:nonzero}
    .fil14 {fill:#332F34;fill-rule:nonzero}
    .fil18 {fill:#312E32;fill-rule:nonzero}
    .fil0 {fill:#C3E2F5;fill-rule:nonzero}
   ]]>
  </style>
 </defs>
 <g id="Layer_x0020_1">
  <metadata id="CorelCorpID_0Corel-Layer"/>
  <g id="_1607338827760">
   <path class="fil0" d="M412.83 206.41c0,114 -92.42,206.41 -206.41,206.41 -114,0 -206.41,-92.41 -206.41,-206.41 0,-114 92.41,-206.41 206.41,-206.41 114,0 206.41,92.41 206.41,206.41z"/>
   <g>
    <path class="fil1" d="M32.96 259.3l-12.65 -209.08c0.32,2.59 14.86,4.9 35.86,6.09 -5.81,10.39 -10.61,21.44 -14.27,32.98l-6.7 -0.04 1.31 21.65c-1.94,10.56 -2.95,21.43 -2.95,32.55 0,18.67 2.86,36.67 8.16,53.59l3.42 56.46 -0.71 1.39c-4.09,1.42 -7.92,2.89 -11.47,4.41z"/>
    <path class="fil2" d="M41.73 197.04c-5.3,-16.92 -8.16,-34.92 -8.16,-53.59 0,-11.12 1.01,-21.99 2.95,-32.55l0.8 13.34 4.41 72.8zm86.45 -107.23l-86.27 -0.52c3.66,-11.54 8.46,-22.58 14.27,-32.98 8.42,0.48 17.88,0.77 27.88,0.83l0 0c0.16,0 0.31,0 0.47,0 1.11,0.01 2.21,0.01 3.31,0.01l0 0c0.01,0 0.01,0 0.02,0 31.52,0 56.9,-2.42 59.76,-5.65l-19.43 38.3z"/>
    <path class="fil3" d="M147.61 51.51l0 0c0.15,-0.17 0.24,-0.34 0.26,-0.51 -0.03,0.17 -0.11,0.34 -0.26,0.51z"/>
    <path class="fil4" d="M44.44 254.89l0.71 -1.39 0.07 1.12c-0.26,0.09 -0.52,0.18 -0.78,0.27z"/>
    <path class="fil5" d="M121.69 238.51l7.1 -97.61 0 0 3.71 -51.06 -4.32 -0.03 19.43 -38.3c0.15,-0.17 0.24,-0.34 0.26,-0.51l0 0 -13.54 186.11c-4.28,0.43 -8.5,0.9 -12.64,1.4z"/>
    <polygon class="fil6" points="132.5,89.84 128.79,140.9 119.87,263.58 45.73,263.13 37.32,124.24 35.21,89.25 "/>
    <path class="fil7" d="M128.79 140.9l-5.94 81.62 -2.98 41.06 -74.15 -0.45 -3.73 -61.71 -4.67 -77.18 0.01 0c0,0 8.33,21.61 36.81,9.28 23.31,-10.1 37.08,2.23 54.66,7.38z"/>
    <path class="fil8" d="M132.5 89.84c-0.02,2.85 -21.81,5.03 -48.68,4.88 -26.87,-0.17 -48.63,-2.61 -48.62,-5.47 0.02,-2.86 21.81,-5.04 48.68,-4.87 26.87,0.16 48.63,2.61 48.62,5.47z"/>
    <path class="fil9" d="M56.18 56.31c-21,-1.19 -35.54,-3.5 -35.86,-6.09l0 0 -0 -0.09c0.02,-2.92 18.15,-5.28 43.33,-6.02 -2.65,3.96 -5.14,8.03 -7.47,12.2z"/>
    <path class="fil3" d="M87.84 57.16l0 0c-1.09,0 -2.2,-0 -3.31,-0.01 -0.16,-0 -0.32,-0 -0.47,-0l0 0c-10,-0.06 -19.46,-0.36 -27.88,-0.83 2.33,-4.17 4.82,-8.24 7.47,-12.2 5.29,-0.15 10.88,-0.23 16.68,-0.23 1.26,0 2.52,0 3.8,0.01 35.23,0.21 63.77,3.36 63.75,7.02l-0.01 0.09 0 0 -0.26 0.51c-2.85,3.23 -28.23,5.65 -59.76,5.65 -0.01,0 -0.01,0 -0.02,0z"/>
    <path class="fil5" d="M87.84 57.16l0 0c0.01,0 0.01,0 0.02,0 -0.01,0 -0.01,0 -0.02,0zm0 0c-1.1,0 -2.2,-0 -3.31,-0.01 1.11,0.01 2.22,0.01 3.31,0.01zm-3.78 -0.01l0 0c-10,-0.06 -19.46,-0.36 -27.88,-0.83l0 0c8.42,0.48 17.88,0.77 27.88,0.83l0 0z"/>
    <path class="fil10" d="M147.61 51.51l0.26 -0.51 0 0c-0.03,0.17 -0.11,0.34 -0.26,0.51z"/>
    <path class="fil11" d="M182.26 274.63l-23.82 -100.41c-3.63,-1.98 -7.8,-5.21 -10.5,-10.37 -2.46,-4.7 -4.47,-12.59 -0.03,-23.45 5.01,-12.26 25.61,-22.14 61.21,-29.37 16.57,-3.36 33.58,-5.43 47.88,-5.83 24.12,-0.68 32.01,3.7 35.85,7.05 8.37,7.31 9.71,14.88 9.37,19.95 -0.42,6.22 -3.53,11.16 -6.54,14.56l15.34 100.05 -128.75 27.83z"/>
    <path class="fil12" d="M167.91 166.41l19.65 98.27 115.73 -25.38 -19.46 -96.41c0,0 15.76,-10.38 1.88,-22.49 -14.56,-12.71 -119.52,3.87 -127.78,24.08 -7.39,18.08 9.98,21.93 9.98,21.93z"/>
    <path class="fil11" d="M205.35 244.4c0.58,2.83 -1.25,5.59 -4.08,6.16 -2.83,0.58 -5.59,-1.25 -6.16,-4.08 -0.58,-2.83 1.25,-5.59 4.08,-6.16 2.83,-0.58 5.59,1.25 6.16,4.08z"/>
    <path class="fil11" d="M269.66 144.49c0.58,2.83 -1.25,5.59 -4.08,6.16 -2.83,0.58 -5.59,-1.26 -6.16,-4.08 -0.57,-2.83 1.26,-5.59 4.08,-6.16 2.83,-0.58 5.59,1.25 6.16,4.08z"/>
    <path class="fil11" d="M208.32 232.75c0.28,1.41 -0.63,2.8 -2.04,3.08 -1.41,0.29 -2.79,-0.62 -3.08,-2.04 -0.29,-1.41 0.63,-2.8 2.04,-3.08 1.42,-0.28 2.8,0.63 3.08,2.04z"/>
    <path class="fil11" d="M275.63 158.9c0.29,1.42 -0.63,2.79 -2.04,3.08 -1.42,0.29 -2.79,-0.62 -3.08,-2.04 -0.28,-1.41 0.63,-2.79 2.04,-3.08 1.41,-0.29 2.8,0.63 3.08,2.04z"/>
    <path class="fil11" d="M242.85 261.72l8.46 -102.85c-2.83,-3 -5.8,-7.38 -6.77,-13.12 -0.88,-5.23 -0.35,-13.35 7.24,-22.3 8.56,-10.1 31.21,-13.12 67.3,-8.95 16.8,1.94 33.61,5.24 47.33,9.29 23.15,6.83 29.3,13.43 31.9,17.81 5.69,9.54 4.62,17.15 2.73,21.87 -2.33,5.78 -6.82,9.52 -10.74,11.81l-16.42 99.88 -131.03 -13.43z"/>
    <path class="fil12" d="M262.74 154.39l-11.77 99.52 117.9 11.73 11.37 -97.69c0,0 18.2,-4.99 8.76,-20.8 -9.9,-16.59 -114.84,-33.36 -128.96,-16.7 -12.62,14.91 2.69,23.94 2.69,23.94z"/>
    <path class="fil11" d="M274.18 240.14c-0.33,2.87 -2.93,4.93 -5.79,4.59 -2.87,-0.33 -4.92,-2.93 -4.59,-5.79 0.33,-2.87 2.92,-4.92 5.79,-4.59 2.87,0.33 4.93,2.93 4.6,5.79z"/>
    <path class="fil11" d="M366.28 165.07c-0.33,2.87 -2.92,4.92 -5.79,4.59 -2.87,-0.33 -4.92,-2.92 -4.59,-5.79 0.33,-2.87 2.92,-4.93 5.79,-4.6 2.87,0.33 4.93,2.92 4.6,5.79z"/>
    <path class="fil11" d="M280.61 229.98c-0.17,1.44 -1.46,2.46 -2.9,2.3 -1.43,-0.17 -2.46,-1.47 -2.3,-2.9 0.17,-1.44 1.46,-2.46 2.9,-2.3 1.43,0.17 2.46,1.47 2.3,2.9z"/>
    <path class="fil11" d="M367.49 180.62c-0.16,1.43 -1.46,2.46 -2.9,2.3 -1.43,-0.16 -2.46,-1.46 -2.29,-2.9 0.16,-1.43 1.46,-2.46 2.89,-2.3 1.44,0.16 2.46,1.46 2.3,2.9z"/>
    <path class="fil13" d="M392.37 332.16c0,20.32 -86.36,36.78 -192.89,36.78 -106.53,0 -192.89,-16.47 -192.89,-36.78 0,-20.32 86.36,-36.79 192.89,-36.79 106.53,0 192.89,16.47 192.89,36.79z"/>
    <path class="fil14" d="M384.33 306.04c0,26.2 -79.66,47.44 -177.92,47.44 -98.26,0 -177.92,-21.24 -177.92,-47.44 0,-26.2 79.66,-47.44 177.92,-47.44 98.26,0 177.92,21.24 177.92,47.44z"/>
    <path class="fil15" d="M410.69 288.09c0,30.08 -91.46,54.46 -204.28,54.46 -112.82,0 -204.28,-24.38 -204.28,-54.46 0,-30.08 91.46,-54.47 204.28,-54.47 44.45,0 85.57,3.79 119.1,10.21 16.01,3.07 30.29,6.74 42.37,10.9l0.01 0c16.72,5.74 29.22,12.4 36.27,19.65 1.26,1.3 2.35,2.62 3.26,3.96 2.15,3.16 3.27,6.42 3.27,9.75z"/>
    <path class="fil14" d="M370.8 282.4c0,1.46 -0.37,2.9 -1.08,4.32 -9.41,18.65 -78.93,33.13 -163.3,33.13 -84.37,0 -153.9,-14.48 -163.3,-33.13 -0.71,-1.42 -1.08,-2.86 -1.08,-4.32 0,-20.68 73.6,-37.45 164.38,-37.45 90.78,0 164.38,16.77 164.38,37.45z"/>
    <path class="fil16" d="M369.71 286.71c-9.41,18.65 -78.93,33.13 -163.3,33.13 -84.37,0 -153.9,-14.48 -163.3,-33.13 9.4,-18.64 78.93,-33.13 163.3,-33.13 84.37,0 153.9,14.48 163.3,33.13z"/>
    <path class="fil17" d="M337.25 259.72c-2.33,-0.7 -4.77,-1.37 -7.3,-2.03 6.64,-3.66 17.05,-5.59 26.35,-6.61 4.06,1.17 7.93,2.39 11.59,3.65 -8.76,0.5 -21.34,1.77 -30.64,4.99z"/>
    <path class="fil18" d="M327.01 265.59c-1.69,-0.42 -3.43,-0.82 -5.2,-1.22 1.44,-1.36 2.97,-2.8 4.7,-4.31 0.98,-0.86 2.14,-1.64 3.44,-2.36 2.54,0.66 4.97,1.33 7.3,2.03 -3.66,1.27 -6.81,2.84 -9.02,4.79 -0.42,0.36 -0.82,0.72 -1.21,1.08z"/>
    <path class="fil19" d="M254.02 288.01c0.04,-1.16 0.01,-2.23 -0.08,-3.22 -0.06,-0.57 -0.14,-1.12 -0.24,-1.65 4.44,-1.26 17.11,-4.4 35.21,-5.01 19.44,-0.65 24.52,-5.83 32.91,-13.77 1.77,0.4 3.51,0.81 5.2,1.22 -10.8,9.75 -14.43,16.27 -36.39,17 -20.7,0.7 -34.3,4.7 -36.6,5.42z"/>
    <path class="fil20" d="M376.54 249.95c0,0 -38.26,-0.24 -50.04,10.1 -11.77,10.34 -14.84,17.32 -37.61,18.08 -22.77,0.76 -36.94,5.53 -36.94,5.53l-4.23 -7.13 -4.28 -4.64 -3.96 -4.29c0,0 10.21,-7.19 30.22,-7.83 0.94,-0.03 1.9,-0.04 2.88,-0.04 21.91,0 34.18,-14.73 48.73,-19.63 13.67,-4.6 31.7,-0.68 36.16,0.41l0.01 0c0.66,0.17 1.02,0.27 1.02,0.27l11.73 5.96 1.21 0.62 5.1 2.59z"/>
    <path class="fil21" d="M249.91 275.67c-1.11,-1.67 -2.72,-3.13 -4.94,-4.62 0.85,-0.45 1.72,-0.88 2.59,-1.29 2.94,-1.39 6.02,-2.5 9.18,-3.39 3.15,-0.9 6.41,-1.48 9.7,-1.79 0.82,-0.08 1.65,-0.14 2.48,-0.18l2.39 -0.09c1.52,-0.04 3.03,-0.1 4.54,-0.16 3.02,-0.15 6.01,-0.34 8.96,-0.66 2.94,-0.31 5.85,-0.73 8.62,-1.36 2.79,-0.61 5.4,-1.48 7.82,-2.63 2.42,-1.15 4.64,-2.67 6.93,-4.48 1.14,-0.9 2.29,-1.87 3.47,-2.86l0.89 -0.75 0.23 -0.19 0.28 -0.23 0.57 -0.44c0.77,-0.57 1.54,-1.08 2.3,-1.53 3.08,-1.82 6.19,-3.03 9.32,-4.04 6.25,-1.99 12.54,-3.12 18.87,-3.81 3.16,-0.34 6.33,-0.54 9.49,-0.63 0.91,-0.02 1.83,-0.03 2.75,-0.03 0.37,0 0.74,0 1.11,0.01l0.01 0c0.66,0.17 1.02,0.27 1.02,0.27l11.73 5.96c-0.56,-0.01 -1.12,-0.01 -1.69,-0.01 -1.83,0 -3.66,0.04 -5.49,0.11 -3.01,0.11 -6.01,0.33 -9,0.64 -3,0.3 -5.97,0.7 -8.92,1.18 -5.9,0.97 -11.75,2.31 -17.22,4.22 -1.36,0.49 -2.69,1.01 -3.97,1.58 -1.28,0.57 -2.5,1.19 -3.6,1.87 -0.55,0.33 -1.06,0.69 -1.53,1.05l-0.34 0.27 -0.38 0.32 -0.88 0.75c-1.17,1 -2.37,2.03 -3.65,3.05 -2.53,2.05 -5.43,4.03 -8.6,5.52 -3.15,1.5 -6.47,2.5 -9.71,3.17 -6.52,1.33 -12.89,1.64 -19.2,1.69 -0.34,0 -0.67,0 -1.01,0 -1.23,0 -2.47,-0 -3.7,-0.04l-1.16 -0.02 -1.07 -0.01c-0.71,0 -1.43,0.01 -2.14,0.05 -2.86,0.12 -5.72,0.5 -8.56,1.08 -2.83,0.59 -5.63,1.42 -8.38,2.42 -0.04,0.01 -0.08,0.03 -0.12,0.04z"/>
    <path class="fil17" d="M315.71 310.37c4.84,-0.98 9.43,-2.03 13.73,-3.13 -3.68,1.45 -8.07,2.51 -13.73,3.13zm55.09 -27.96c0,-0.01 0,-0.01 0,-0.01 0,-1.78 -0.54,-3.53 -1.6,-5.24 11.53,-2.56 24.77,-3.47 33.06,-3.78l0.99 0.48c1.52,1.5 2.82,3.03 3.91,4.58 -7.92,0.21 -23.3,1.02 -36.35,3.98z"/>
    <path class="fil18" d="M367.27 283.28c-1.35,-1.46 -3.06,-2.88 -5.12,-4.26 2.23,-0.7 4.6,-1.32 7.05,-1.87 1.06,1.71 1.6,3.46 1.6,5.24 0,0.01 0,0.01 0,0.01 -1.2,0.27 -2.38,0.56 -3.53,0.87z"/>
    <path class="fil19" d="M262.84 317.34l-5.08 -8.24 -5.14 -5.36 -1.69 -1.76c0.37,-0.6 0.7,-1.25 1,-1.96l3.78 3.93 0 0 5.08 8.24c0,0 17.02,-5.51 44.36,-6.4 27.34,-0.88 31.02,-8.95 45.16,-20.91 2.86,-2.42 7.03,-4.34 11.85,-5.86 2.06,1.39 3.78,2.81 5.12,4.26 -6.11,1.64 -11.46,3.83 -14.91,6.75 -8.95,7.57 -13.71,13.58 -22.92,17.2 -4.3,1.11 -8.89,2.15 -13.73,3.13 -2.56,0.28 -5.38,0.48 -8.51,0.58 -27.34,0.88 -44.37,6.4 -44.37,6.4z"/>
    <path class="fil20" d="M410.38 273.2c0,0 -45.94,-0.28 -60.09,11.68 -14.14,11.96 -17.82,20.03 -45.16,20.91 -27.34,0.89 -44.36,6.4 -44.36,6.4l-5.08 -8.24 -5.14 -5.36 -4.76 -4.96c0,0 12.25,-8.31 36.29,-9.06 1.12,-0.04 2.28,-0.05 3.46,-0.05 26.31,0 41.05,-17.03 58.52,-22.69 16.41,-5.33 38.06,-0.79 43.42,0.48l0.01 0c0.8,0.19 1.24,0.31 1.24,0.31l14.08 6.89 1.46 0.71 6.12 3z"/>
    <path class="fil21" d="M255.7 303.95l0 0 -3.78 -3.93c0.34,-0.8 0.62,-1.66 0.86,-2.6 0.9,-0.45 1.8,-0.88 2.72,-1.29 3.54,-1.61 7.23,-2.9 11.02,-3.92 3.79,-1.04 7.7,-1.71 11.65,-2.07 0.99,-0.09 1.98,-0.16 2.98,-0.21l2.87 -0.1c1.82,-0.06 3.64,-0.11 5.45,-0.19 3.62,-0.17 7.22,-0.38 10.76,-0.76 3.53,-0.36 7.03,-0.84 10.35,-1.57 3.34,-0.71 6.48,-1.72 9.39,-3.04 2.91,-1.33 5.58,-3.09 8.32,-5.18 1.37,-1.04 2.75,-2.16 4.17,-3.31l1.07 -0.87 0.28 -0.22 0.34 -0.27 0.69 -0.5c0.92,-0.66 1.84,-1.25 2.77,-1.77 3.7,-2.1 7.43,-3.5 11.19,-4.67 7.5,-2.31 15.06,-3.61 22.66,-4.41 3.8,-0.39 7.6,-0.63 11.4,-0.73 1.08,-0.03 2.16,-0.04 3.23,-0.04 0.47,0 0.93,0 1.4,0.01l0.01 0c0.8,0.19 1.24,0.31 1.24,0.31l14.08 6.89c-0.68,-0.01 -1.36,-0.01 -2.04,-0.01 -2.19,0 -4.38,0.05 -6.57,0.13 -3.62,0.12 -7.22,0.38 -10.81,0.74 -3.6,0.35 -7.17,0.8 -10.71,1.36 -7.08,1.13 -14.1,2.68 -20.67,4.88 -1.63,0.56 -3.23,1.16 -4.77,1.83 -1.53,0.66 -3,1.38 -4.32,2.16 -0.66,0.39 -1.28,0.8 -1.84,1.22l-0.41 0.31 -0.45 0.37 -1.06 0.86c-1.41,1.16 -2.85,2.34 -4.38,3.52 -3.03,2.37 -6.53,4.67 -10.33,6.39 -3.78,1.73 -7.76,2.89 -11.66,3.67 -7.83,1.54 -15.48,1.89 -23.05,1.95 -0.37,0 -0.73,0 -1.1,0 -1.52,0 -3.04,-0 -4.56,-0.04l-1.4 -0.03 -1.28 -0.01c-0.86,0 -1.71,0.01 -2.57,0.05 -3.43,0.14 -6.87,0.58 -10.28,1.25 -3.41,0.67 -6.77,1.63 -10.06,2.8 -0.94,0.33 -1.85,0.68 -2.77,1.05z"/>
    <path class="fil17" d="M77.29 317.95c-8.63,0 -15.22,-1.86 -19.36,-6 -1.68,-1.67 -3.96,-2.72 -6.54,-3.44 -7.78,-2.18 -18.23,-1.38 -22.82,-5.75 -2.16,-2.06 -1.57,-4.09 -0.27,-6.15l0.02 -0.02c0.47,-0.74 1.02,-1.48 1.57,-2.22 0.1,0.84 0.52,1.68 1.41,2.53 4.59,4.37 15.04,3.58 22.82,5.75l0 0c2.58,0.72 4.87,1.77 6.55,3.45l0 0c4.14,4.13 10.73,5.99 19.36,5.99 4.97,0 10.61,-0.62 16.84,-1.77 5.28,1.08 10.87,2.08 16.73,2.99 -6.13,0.59 -12.05,1.41 -17.84,2.55 -6.88,1.36 -13.06,2.08 -18.45,2.08z"/>
    <path class="fil19" d="M113.59 313.31c-5.86,-0.92 -11.45,-1.92 -16.73,-2.99 0.53,-0.1 1.07,-0.2 1.61,-0.31 6.36,-1.25 12.89,-2.12 19.66,-2.72 3.12,1.93 6.08,3.63 8.94,5.09 -4.62,0.21 -9.11,0.51 -13.49,0.93z"/>
    <path class="fil17" d="M32.41 288.79c-0.09,-1.27 -0.82,-2.57 -2.62,-3.9 -7.03,-5.23 -8.7,-8.63 -2.6,-10.72 1.04,1.41 2.85,3.03 5.33,4.87l0 0c1.91,1.42 2.62,2.81 2.62,4.17 0,1.66 -1.05,3.28 -2.22,4.88l0 0 0 0c-0.17,0.24 -0.35,0.47 -0.52,0.71zm20.84 -25.7c0.3,-0.62 0.65,-1.17 1.06,-1.65 0.09,-0.1 0.18,-0.2 0.27,-0.3 -0.37,0.77 -0.81,1.42 -1.33,1.95z"/>
    <path class="fil22" d="M157.91 306.1c-5.05,-0.03 -9.94,-0.02 -14.69,0.04 -16.27,0.23 -30.91,1.14 -44.75,3.87 -17.88,3.53 -31.08,2.8 -37.81,-3.91 -1.68,-1.68 -3.97,-2.73 -6.55,-3.45 -7.78,-2.17 -18.22,-1.38 -22.82,-5.75 -2.16,-2.06 -1.56,-4.09 -0.27,-6.14l0.02 -0.03c0.56,-0.87 1.24,-1.76 1.88,-2.65 2.12,-2.9 3.86,-5.87 -0.41,-9.04 -8.63,-6.42 -9.18,-10.09 2.8,-11.95 2.94,-0.46 5.53,-0.72 7.79,-0.96l0 -0c6.9,-0.74 10.68,-1.32 12.13,-6.88 0.4,-1.51 0.99,-2.71 1.79,-3.67 3.13,-3.71 9.56,-3.74 20.75,-3.88 2.25,-0.03 4.23,-0.09 5.98,-0.2 0.4,-0.02 0.78,-0.05 1.15,-0.08 8.31,-0.64 10.97,-2.47 12.45,-6.52 1.84,-5.03 13.46,-7.39 33.96,6.8 20.5,14.19 39.45,15.84 39.45,15.84 8.01,1.51 9.49,38.68 -12.86,38.56z"/>
    <path class="fil23" d="M143.22 306.14c-16.27,0.23 -30.91,1.14 -44.75,3.87 -17.88,3.53 -31.08,2.8 -37.81,-3.91 -1.68,-1.68 -3.97,-2.73 -6.55,-3.45 -7.78,-2.17 -18.22,-1.38 -22.82,-5.75 -2.16,-2.06 -1.56,-4.09 -0.27,-6.14l0.02 -0.03c0.56,-0.87 1.24,-1.76 1.88,-2.65 0,0 -4.38,7.23 9.1,7.29 2.99,0.01 5.37,-0.12 7.43,-0.26 7.23,-0.49 10.54,-0.97 22.45,5.12 15.31,7.83 24.85,3.39 47.02,0.67 8.32,-1.02 17.78,1.42 24.3,5.24z"/>
    <path class="fil23" d="M85.51 280.78c-9.89,0 -42.4,-14.65 -42.4,-14.65l0 -0c6.9,-0.74 10.68,-1.32 12.13,-6.88 0.4,-1.51 0.99,-2.71 1.79,-3.67 4.6,13.67 28.47,25.2 28.47,25.2z"/>
    <path class="fil23" d="M122.29 269.85c-0.41,-0.08 -13.75,-2.84 -23.82,-11.24 -7.28,-6.07 -11.64,-7.1 -13.55,-7.2 8.31,-0.64 10.97,-2.47 12.45,-6.52 7.64,13.7 24.44,24.64 24.92,24.95z"/>
    <path class="fil23" d="M96.42 290.33c0,0 -19.35,6.3 -35.76,15.77 -1.68,-1.68 -3.97,-2.73 -6.55,-3.45l0 -0c0,0 17.41,-11.29 42.3,-12.32z"/>
    <path class="fil23" d="M89.91 283.5c-8.21,3.4 -18.72,0.69 -30.92,0 -12.2,-0.7 -26.05,4.58 -26.05,4.58 2.12,-2.9 3.86,-5.87 -0.41,-9.04 0,0 13.77,-3.71 28.9,-0.49 15.13,3.22 28.49,4.95 28.49,4.95z"/>
    <path class="fil17" d="M151.37 318.78c-5.34,0 -10.26,-0.86 -15.19,-2.52 7.29,0.79 14.87,1.45 22.69,1.99 -2.61,0.35 -5.1,0.53 -7.5,0.53z"/>
    <path class="fil19" d="M158.87 318.26c-7.83,-0.54 -15.41,-1.21 -22.69,-1.99 -2.99,-1 -6,-2.31 -9.09,-3.89 4.35,-0.2 8.82,-0.32 13.41,-0.38 0.32,-0 0.64,-0.01 0.95,-0.01 3.63,0.91 7.3,1.37 11.22,1.37 8.33,0 17.73,-2.12 29.98,-6.6 8.69,-3.18 17.39,-4.01 25.54,-4.01 4.48,0 8.78,0.25 12.83,0.5 4.05,0.25 7.84,0.5 11.28,0.5 6.83,0 12.28,-0.99 15.6,-4.94l3.02 3.16c-3.28,5.36 -9.34,6.64 -17.15,6.64 -3.56,0 -7.48,-0.26 -11.67,-0.53 -4.19,-0.26 -8.65,-0.53 -13.28,-0.53 -8.43,0 -17.44,0.88 -26.43,4.25 -9.14,3.42 -16.75,5.54 -23.52,6.45zm89.16 -19.59c0.39,-0.48 0.76,-1.01 1.09,-1.59l0.59 0.62c-0.86,0.46 -1.42,0.81 -1.68,0.97zm3.12 -7.8c0.35,-2.19 0.59,-4.12 0.69,-5.84l1.84 3.1c0,0 0.12,-0.04 0.35,-0.11 -0.02,0.56 -0.05,1.13 -0.1,1.73 -1.02,0.38 -1.94,0.76 -2.77,1.12z"/>
    <path class="fil24" d="M253.67 288.12l-1.84 -3.1c0.03,-0.51 0.05,-1 0.05,-1.48l0.07 0.12c0,0 0.59,-0.2 1.74,-0.53 0.11,0.52 0.19,1.08 0.24,1.65 0.09,0.99 0.12,2.06 0.08,3.22 -0.23,0.07 -0.35,0.11 -0.35,0.11z"/>
    <path class="fil25" d="M251.96 283.67l-0.07 -0.12c0.01,-0.82 -0.02,-1.59 -0.09,-2.31 -0.14,-1.44 -0.45,-2.7 -0.95,-3.85 1.49,1.68 2.4,3.51 2.85,5.75 -1.14,0.33 -1.74,0.53 -1.74,0.53z"/>
    <path class="fil24" d="M250.92 301.97l-3.02 -3.16c0.04,-0.05 0.08,-0.1 0.12,-0.15 0.26,-0.16 0.82,-0.51 1.68,-0.97l0.85 0.89 0 0 1.37 1.43c-0.29,0.71 -0.63,1.36 -1,1.96z"/>
    <path class="fil25" d="M250.55 298.58l0 0 -0.85 -0.89 -0.59 -0.62c0.93,-1.61 1.6,-3.59 2,-6.01 0.01,-0.07 0.02,-0.14 0.03,-0.21 0.83,-0.36 1.75,-0.74 2.77,-1.12 -0.13,1.63 -0.36,3.44 -0.68,5.45 -0.13,0.78 -0.28,1.52 -0.46,2.21 -0.75,0.38 -1.49,0.77 -2.23,1.18z"/>
    <path class="fil26" d="M251.92 300.01l-1.37 -1.43c0.74,-0.41 1.48,-0.8 2.23,-1.18 -0.24,0.94 -0.53,1.81 -0.86,2.6z"/>
    <path class="fil24" d="M127.08 312.37c-2.87,-1.46 -5.82,-3.16 -8.94,-5.09 3.18,-0.28 6.41,-0.5 9.71,-0.67 4.69,2.44 9.11,4.24 13.61,5.37 -0.32,0 -0.64,0.01 -0.95,0.01 -4.6,0.06 -9.06,0.18 -13.41,0.38z"/>
    <path class="fil27" d="M110.15 302.13c-0.01,-0 -0.01,-0.01 -0.02,-0.01 -7.45,-4.97 -15.34,-7.32 -22.78,-8.5 4.11,-1.59 7.18,-2.65 8.45,-3.08 5.66,1.31 11.47,3.46 17.02,7.08 1.83,1.19 3.59,2.32 5.3,3.39 -2.86,0.36 -5.5,0.75 -7.97,1.13zm-30.92 -9.43c-14.74,-1.08 -25.93,0.62 -25.07,-8.65 0.02,-0.18 0.04,-0.37 0.07,-0.55 0.82,-0.04 1.65,-0.07 2.47,-0.07 0.76,0 1.53,0.02 2.28,0.06 0,0 0,0 0.01,0 2.39,7.12 18.49,3.01 36.15,6.89 -5.77,0.32 -11.11,1.18 -15.91,2.31zm-19.86 -14.56c-0.65,-0.11 -1.29,-0.21 -1.93,-0.3 1.33,-1.32 3.01,-2.55 4.99,-3.69 0.01,0 0.01,0.01 0.02,0.01 -1.4,1.24 -2.45,2.57 -3.08,3.98z"/>
    <path class="fil28" d="M118.14 307.29c-2.54,-1.57 -5.18,-3.29 -7.98,-5.15 2.47,-0.38 5.11,-0.77 7.97,-1.13 3.43,2.13 6.63,4.01 9.72,5.61 -3.3,0.17 -6.53,0.39 -9.71,0.67z"/>
    <path class="fil28" d="M62.45 274.17c-0.01,-0 -0.01,-0.01 -0.02,-0.01 0.02,-0.01 0.05,-0.03 0.08,-0.04 -0.02,0.02 -0.04,0.03 -0.06,0.05z"/>
    <path class="fil28" d="M87.35 293.62c-2.79,-0.44 -5.51,-0.72 -8.12,-0.91 4.8,-1.13 10.14,-1.99 15.91,-2.31 0.22,0.05 0.43,0.09 0.65,0.14 -1.26,0.43 -4.33,1.49 -8.45,3.08z"/>
    <path class="fil28" d="M54.24 283.5c0.33,-2.03 1.45,-3.92 3.2,-5.66 0.64,0.09 1.28,0.19 1.93,0.3 -0.34,0.77 -0.56,1.57 -0.64,2.4 -0.11,1.15 -0.01,2.13 0.26,2.96 -0,0 -0,0 -0.01,0 -0.75,-0.04 -1.52,-0.06 -2.28,-0.06 -0.82,0 -1.65,0.02 -2.47,0.07z"/>
    <path class="fil7" d="M251.11 291.07c-2.3,14.14 -14.21,13.16 -30.09,12.18 -11.43,-0.71 -24.92,-1.42 -38.38,3.51 -32.17,11.77 -44.69,7.23 -69.83,-9.15 -25.14,-16.39 -55.45,-2.62 -54.08,-17.07 0.58,-6.16 8.93,-10.91 20.05,-14.21 2.3,-0.68 4.71,-1.3 7.2,-1.85l0.06 -0.02c2.68,-0.6 5.44,-1.13 8.23,-1.59 11.51,-1.86 23.54,-2.5 32.24,-1.89 22.31,1.58 29.54,1.39 57.5,-4.36 27.29,-5.61 36.76,-2.2 40.03,0.94 3.36,3.22 7.09,6.05 11.3,8.16 11.21,5.61 15.75,8.55 16.44,15.51 0.26,2.6 -0.01,5.76 -0.68,9.83z"/>
    <path class="fil29" d="M199.79 271.42c0,7 -17.34,12.68 -38.75,12.68 -21.4,0 -38.74,-5.68 -38.74,-12.68 0,-3.62 4.65,-6.89 12.1,-9.2l0.01 -0c6.94,-2.15 16.32,-3.47 26.63,-3.47 15.12,0 28.22,2.84 34.61,6.97 2.65,1.72 4.14,3.66 4.14,5.71z"/>
    <path class="fil30" d="M199.79 271.42c0,7 -17.34,12.68 -38.75,12.68 -21.4,0 -38.74,-5.68 -38.74,-12.68 0,-3.62 4.65,-6.89 12.1,-9.2 -0.4,0.22 -10.64,6.03 2.79,10.87 13.69,4.94 50.51,5.82 57.51,-1.67 1.88,-2.01 1.31,-4.31 0.95,-5.71 2.65,1.72 4.14,3.66 4.14,5.71z"/>
    <path class="fil31" d="M174.4 267.49c-2.09,0 -4.33,-0.07 -6.66,-0.22 -11.01,-0.7 -19.81,-2.87 -19.67,-4.86 0.11,-1.56 5.75,-2.54 13.52,-2.54 2.09,0 4.33,0.07 6.66,0.22 11,0.7 19.81,2.88 19.67,4.86 -0.11,1.56 -5.75,2.54 -13.52,2.54z"/>
    <path class="fil8" d="M251.11 291.07c-3.96,24.32 -36.29,3.92 -68.47,15.69 -32.17,11.77 -44.69,7.23 -69.83,-9.15 -25.14,-16.39 -55.46,-2.62 -54.09,-17.07 0.7,-7.44 12.72,-12.82 27.25,-16.06 -1.64,0.48 -21.84,6.55 -14.82,12.97 7.3,6.69 35.3,5.53 54.47,18.31 19.17,12.79 44.43,9.01 56.3,3.2 11.87,-5.82 42.79,2.66 55.99,-2.61 11.16,-4.46 13.44,-12.67 13.88,-15.11 0.26,2.6 -0.01,5.76 -0.68,9.83z"/>
   </g>
  </g>
 </g>
</svg>
