<?xml version="1.0" encoding="UTF-8"?>
<!DOCTYPE svg PUBLIC "-//W3C//DTD SVG 1.1//EN" "http://www.w3.org/Graphics/SVG/1.1/DTD/svg11.dtd">
<!-- Creator: CorelDRAW 2018 (64-Bit) -->
<svg xmlns="http://www.w3.org/2000/svg" xml:space="preserve" width="1.80478in" height="1.5708in" version="1.1" style="shape-rendering:geometricPrecision; text-rendering:geometricPrecision; image-rendering:optimizeQuality; fill-rule:evenodd; clip-rule:evenodd"
viewBox="0 0 524.44 456.45"
 xmlns:xlink="http://www.w3.org/1999/xlink">
 <defs>
  <style type="text/css">
   <![CDATA[
    .fil2 {fill:#FEFEFE}
    .fil3 {fill:#BBD2ED}
    .fil1 {fill:#34B2E0}
    .fil0 {fill:#C3E2F5;fill-rule:nonzero}
   ]]>
  </style>
 </defs>
 <g id="Layer_x0020_1">
  <metadata id="CorelCorpID_0Corel-Layer"/>
  <g id="_1607338818224">
   <path class="fil0" d="M490.44 228.22c0,126.04 -102.18,228.22 -228.22,228.22 -126.05,0 -228.23,-102.18 -228.23,-228.22 0,-126.04 102.18,-228.22 228.23,-228.22 126.04,0 228.22,102.18 228.22,228.22z"/>
   <path class="fil1" d="M407.13 202.26c-2.83,1.61 -6.43,0.62 -8.05,-2.22 -1.6,-2.84 -0.6,-6.44 2.22,-8.06l73.43 -41.57 0.72 -0.34c0.13,-0.04 47.01,-19.54 48.91,40.35 0.47,14.64 -1,30.68 -5.11,45.75 -4.43,16.18 -11.9,31.31 -23.32,42.63 -11.64,11.54 -27.22,19.07 -47.6,19.72 -9.96,0.32 -21.08,-1.03 -33.42,-4.39 -3.14,-0.86 -5,-4.1 -4.13,-7.24 0.84,-3.14 4.1,-4.99 7.23,-4.14 11.15,3.05 21.11,4.26 29.95,3.99 17.06,-0.54 30.03,-6.76 39.65,-16.3 9.85,-9.76 16.35,-23.04 20.26,-37.35 3.8,-13.88 5.13,-28.69 4.7,-42.3 -1.29,-40.28 -29.03,-31.13 -32.38,-29.88l-73.05 41.35z"/>
   <path class="fil1" d="M123.15 191.99c2.83,1.62 3.81,5.22 2.22,8.06 -1.62,2.83 -5.23,3.82 -8.06,2.22l-73.06 -41.35c-3.34,-1.25 -31.08,-10.4 -32.38,29.88 -0.42,13.6 0.92,28.42 4.7,42.3 3.92,14.31 10.42,27.59 20.26,37.35 9.62,9.53 22.58,15.76 39.66,16.3 8.83,0.27 18.79,-0.94 29.94,-3.99 3.14,-0.85 6.38,1 7.23,4.14 0.87,3.14 -0.99,6.38 -4.13,7.24 -12.34,3.36 -23.46,4.71 -33.43,4.39 -20.38,-0.64 -35.96,-8.18 -47.6,-19.72 -11.43,-11.31 -18.89,-26.44 -23.32,-42.63 -4.11,-15.07 -5.58,-31.1 -5.11,-45.75 1.9,-59.9 48.77,-40.39 48.91,-40.35l0.72 0.34 73.44 41.57z"/>
   <path class="fil2" d="M432.78 204.85c0,0 0,42.78 0,70.9 0,28.12 -10.62,40.35 -10.62,40.35 0,0 -46.52,53.8 -70.18,53.8 -23.66,0 -89.76,0 -89.76,0 0,0 -66.1,0 -89.76,0 -23.66,0 -70.19,-53.8 -70.19,-53.8 0,0 -10.6,-12.23 -10.6,-40.35 0,-28.12 0,-70.9 0,-70.9 -0.43,-32.61 33.84,-29.78 33.84,-29.78l273.42 0c0,0 34.28,-2.82 33.86,29.78z"/>
   <path class="fil3" d="M116.43 212.47l291.58 0c2.76,0 5.01,2.25 5.01,5.01l0 0c0,2.75 -2.25,5.01 -5.01,5.01l-291.58 0c-2.76,0 -5.01,-2.26 -5.01,-5.01l0 0c0,-2.76 2.25,-5.01 5.01,-5.01z"/>
   <path class="fil3" d="M116.43 271.35l291.58 0c2.76,0 5.01,2.25 5.01,5.01l0 0c0,2.75 -2.25,5 -5.01,5l-291.58 0c-2.76,0 -5.01,-2.25 -5.01,-5l0 0c0,-2.76 2.25,-5.01 5.01,-5.01z"/>
   <path class="fil3" d="M175.2 330.23l174.04 0c2.75,0 5.01,2.26 5.01,5.01l0 0.01c0,2.75 -2.26,5 -5.01,5l-174.04 0c-2.76,0 -5.02,-2.26 -5.02,-5l0 -0.01c0,-2.75 2.26,-5.01 5.02,-5.01z"/>
  </g>
 </g>
</svg>
