<?xml version="1.0" encoding="UTF-8"?>
<!DOCTYPE svg PUBLIC "-//W3C//DTD SVG 1.1//EN" "http://www.w3.org/Graphics/SVG/1.1/DTD/svg11.dtd">
<!-- Creator: CorelDRAW 2018 (64-Bit) -->
<svg xmlns="http://www.w3.org/2000/svg" xml:space="preserve" width="2.11218in" height="1.83791in" version="1.1" style="shape-rendering:geometricPrecision; text-rendering:geometricPrecision; image-rendering:optimizeQuality; fill-rule:evenodd; clip-rule:evenodd"
viewBox="0 0 329.38 286.61"
 xmlns:xlink="http://www.w3.org/1999/xlink">
 <defs>
  <style type="text/css">
   <![CDATA[
    .fil1 {fill:#FEFEFE;fill-rule:nonzero}
    .fil8 {fill:#FEE9DA;fill-rule:nonzero}
    .fil7 {fill:#FDC482;fill-rule:nonzero}
    .fil2 {fill:#F5B6A4;fill-rule:nonzero}
    .fil3 {fill:#F2A38F;fill-rule:nonzero}
    .fil9 {fill:#F0967D;fill-rule:nonzero}
    .fil5 {fill:#DDDDDC;fill-rule:nonzero}
    .fil4 {fill:#D6B9A4;fill-rule:nonzero}
    .fil6 {fill:#ACADAE;fill-rule:nonzero}
    .fil0 {fill:#C3E2F5;fill-rule:nonzero}
   ]]>
  </style>
 </defs>
 <g id="Layer_x0020_1">
  <metadata id="CorelCorpID_0Corel-Layer"/>
  <g id="_1607364332848">
   <path class="fil0" d="M329.38 153.14c0,73.71 -59.76,133.47 -133.47,133.47 -73.71,0 -133.47,-59.76 -133.47,-133.47 0,-73.71 59.76,-133.47 133.47,-133.47 73.71,0 133.47,59.76 133.47,133.47z"/>
   <g>
    <path class="fil1" d="M0.42 45.78c-1.54,4.26 1.28,9.09 5.67,9.89 2.39,0.43 4.79,0.45 7.18,0.57 1.32,0.07 2.27,0.52 3.07,1.55 3.86,5 8.16,9.59 12.6,14.08 0.75,0.75 1.41,1.6 2.48,1.92 -0.09,3.66 -0.39,7.35 1.51,10.73 0.38,0.68 0.63,1.44 1.08,2.06 5.1,7.08 8.04,15.41 12.99,22.56 2.89,4.18 5.79,8.37 9.37,12.02 2.8,2.5 2.28,5.16 0.88,8.28 -1.71,3.8 -2.59,7.93 -3.37,12.05 -0.59,3.13 -3.19,4.79 -5.33,6.68 -3.77,3.35 -7.52,6.7 -10.55,10.75 -2.08,2.78 -3.83,5.81 -5.49,8.82 -1.63,2.96 -1.27,6.55 -0.36,9.77 2.7,9.59 9.59,15.54 18.04,20.04 4.84,2.58 10,4.33 15.19,6.01 0.73,0.24 1.46,0.61 2.27,0.31 0.22,0.05 0.44,0.1 0.66,0.15 0.3,0.38 0.66,0.59 1.16,0.41 0.23,0.04 0.47,0.08 0.7,0.12 0.95,1.05 2.35,0.93 3.54,1.18 3.16,0.67 6.27,1.67 9.62,1.32 2.68,-0.28 5.15,0.97 7.53,2.03 4.85,2.15 9.71,4.36 14.84,5.66 5.27,1.33 10.69,2.1 16.05,3.04 6.7,1.16 13.4,2.3 20.11,3.36 7.61,1.2 15.24,2.26 22.99,2.03 13.8,-0.41 27.34,-2.91 40.89,-5.17 9.72,-1.62 19.02,-4.91 28.04,-8.83 4.33,-1.88 8.43,-4.32 12.61,-6.54 5.8,-3.09 12.1,-4.79 18.32,-6.68 9.86,-2.98 18.92,-7.34 25.86,-15.19 6.72,-7.6 12.44,-15.92 15.5,-25.68 1.47,-4.67 1.61,-9.71 2.53,-14.56 1.05,-5.55 -1.65,-10.6 -5.15,-15.04 -3.61,-4.57 -8.25,-7.93 -12.86,-11.35 -4.16,-3.09 -8.49,-5.9 -12.75,-8.83 -8.91,-6.13 -18.41,-11.11 -28.48,-15.07 -10.68,-4.2 -21.28,-8.65 -32.21,-12.19 -9.65,-3.13 -19.55,-5.25 -29.65,-6.4 -6.7,-0.76 -13.39,-1.17 -20.12,-0.77 -1.01,0.06 -1.73,-0.42 -2.42,-1.11 -3.07,-3.04 -6.08,-6.15 -9.28,-9.05 -4.68,-4.25 -10.34,-7.21 -15.2,-11.23 -4.06,-3.37 -8.49,-6.07 -13.45,-7.98 -1.86,-0.72 -3.76,-0.48 -5.6,-0.9 -2.05,-2.02 -4.12,-4.02 -6.13,-6.08 -4.64,-4.76 -9.49,-9.26 -14.92,-13.11 -0.98,-0.69 -0.51,-1.32 -0.15,-2.17 1.83,-4.3 3.44,-8.59 2.78,-13.48 -0.65,-4.85 -8.61,-7.44 -11.43,-4.5 -1.31,1.36 -1.87,2.99 -2.28,4.69 -1.16,4.78 -1.11,4.76 -6.12,4.62 -1.04,-0.03 -2.1,0.26 -3.15,0.4 -2.62,-0.05 -4.55,1.46 -6.36,3.02 -1.64,1.4 -1.96,4.03 -1.09,6.09 1.3,3.1 3.57,5.2 6.6,6.52 2.94,1.29 5.98,2.17 9.24,1.95 1,-0.07 1.57,0.49 2.07,1.22 4.12,6.06 9.56,10.93 14.65,16.11 -2.6,10.76 -1.68,21.51 0.03,32.27 0.33,2.1 0.49,4.22 1.13,6.25 0.09,1.16 -0.28,1.41 -1.46,1.03 -3.45,-1.08 -6.14,-3.42 -9.16,-5.22 -7.83,-4.67 -15.54,-9.63 -24.46,-12.04 -6.75,-1.82 -13.48,-3.8 -20.36,-5.09 -3.08,-0.58 -6.03,0.55 -9.05,0.77 -1.32,-2.27 -3.56,-3.63 -5.52,-5.15 -4.13,-3.2 -7.93,-6.89 -12.62,-9.32 -1.76,-0.92 -1.01,-2.08 -0.38,-3.16 1.61,-2.77 2.59,-5.61 1.86,-8.89 -1.22,-5.48 -4.97,-7.67 -10.27,-5.79 -2.87,1.01 -4.03,3.65 -4.59,6.21 -0.48,2.19 -1.64,2.87 -3.47,3.16 -1.54,0.25 -2.79,0.93 -3.65,2.26 -1.5,0.27 -2.3,1.27 -2.79,2.62z"/>
    <path class="fil2" d="M70.19 204.56c0.95,1.05 2.35,0.93 3.54,1.18 3.16,0.67 6.27,1.67 9.62,1.32 2.68,-0.28 5.15,0.97 7.53,2.03 4.85,2.15 9.71,4.36 14.84,5.66 5.27,1.33 10.69,2.1 16.05,3.04 6.7,1.16 13.4,2.3 20.11,3.36 7.61,1.2 15.24,2.26 22.99,2.03 13.8,-0.41 27.34,-2.91 40.89,-5.17 9.72,-1.62 19.02,-4.91 28.04,-8.83 4.33,-1.88 8.43,-4.32 12.61,-6.54 5.8,-3.09 12.1,-4.79 18.32,-6.68 9.86,-2.98 18.92,-7.34 25.86,-15.19 6.72,-7.6 12.44,-15.92 15.5,-25.68 1.47,-4.67 1.61,-9.71 2.53,-14.56 1.05,-5.55 -1.65,-10.6 -5.15,-15.04 -3.61,-4.57 -8.25,-7.93 -12.86,-11.35 -4.16,-3.09 -8.49,-5.9 -12.75,-8.83 -8.91,-6.13 -18.41,-11.11 -28.48,-15.07 -10.68,-4.2 -21.28,-8.65 -32.21,-12.19 -9.65,-3.13 -19.55,-5.25 -29.65,-6.4 -6.7,-0.76 -13.39,-1.17 -20.12,-0.77 -1.01,0.06 -1.73,-0.42 -2.42,-1.11 -3.07,-3.04 -6.08,-6.15 -9.28,-9.05 -4.68,-4.25 -10.34,-7.21 -15.2,-11.23 -4.06,-3.37 -8.49,-6.07 -13.45,-7.98 -1.86,-0.72 -3.76,-0.48 -5.6,-0.9 -2.08,-0.1 -3.47,-1.69 -5.24,-2.45 -1.54,-0.66 -3.07,-1.42 -4.72,-0.29 -0.15,1.13 -0.11,2.25 0.06,3.38 0.9,5.93 3.69,11.1 6.49,16.27 4.15,7.67 9.93,13.73 17.58,17.99 1.97,1.1 3.86,2.35 5.92,3.61 -1.46,0.73 -2.68,0.22 -3.87,0.41 -7.57,1.21 -15.18,2.25 -22.72,3.63 -2.87,0.53 -5.58,1.97 -8.63,1.24 0.09,1.16 -0.28,1.41 -1.46,1.03 -3.45,-1.08 -6.14,-3.42 -9.16,-5.22 -7.83,-4.67 -15.54,-9.63 -24.46,-12.04 -6.75,-1.82 -13.48,-3.8 -20.36,-5.09 -3.08,-0.58 -6.03,0.55 -9.05,0.77 -2.05,1.63 -4.09,3.25 -6.14,4.88 -0.5,0.5 -1,0.99 -1.49,1.49 0.49,1.32 0.97,2.65 1.48,3.96 1.61,4.12 4.43,7.58 6.38,11.5 4.05,8.12 9.08,15.46 15.73,21.73 3.45,3.25 6.52,6.89 10.86,9.05 1.34,0.66 2.59,1.45 3.71,2.46 2.91,2.62 6.11,4.81 9.6,6.6 4.13,2.12 8.62,3.21 13.01,4.59 7.51,2.36 14.54,6.09 22.21,7.96 4.58,1.12 9.13,2.7 13.99,1.58 6.72,-1.55 10.45,-5.06 9.48,-12.18 -0.14,-1 -0.06,-1.47 1.17,-1.16 5.15,1.34 10.37,2.3 15.62,3.11 0.59,0.09 1.06,0.36 1.55,0.66 3.79,2.34 7.43,4.98 11.53,6.75 12.6,5.47 25.18,11.01 37.91,16.16 7.42,3 15.14,5.13 23.2,5.88 8.28,0.78 16.58,-0.02 24.72,-0.78 9.63,-0.89 19.32,-1.79 28.89,-3.4 2.78,-0.47 5.54,-0.76 8.33,-1.03 4.25,-0.41 4.79,2.05 4.12,5.32 -1.67,8.06 -5.91,14.64 -11.99,20.07 -2.8,2.49 -5.73,4.84 -8.69,7.14 -1.78,1.38 -3.38,3.01 -5.55,3.88 -5.48,2.21 -11.14,3.7 -17,4.39 -1.64,0.19 -3.21,0.62 -4.66,1.37 -8.71,4.55 -17.8,8.3 -26.72,12.39 -12.65,5.8 -26.2,8.07 -39.95,9.07 -9.09,0.66 -18.22,0.14 -27.3,-0.38 -11.4,-0.65 -22.54,-3.1 -33.61,-5.93 -5.06,-1.29 -10.12,-2.85 -15.35,-3.28 -8.94,-0.74 -17.9,-1.17 -26.84,-1.85 -3.29,-0.25 -6.55,-0.84 -9.83,-1.27z"/>
    <path class="fil3" d="M70.19 204.56c3.28,0.43 6.54,1.02 9.83,1.27 8.94,0.68 17.9,1.12 26.84,1.85 5.23,0.43 10.29,1.98 15.35,3.28 11.07,2.83 22.21,5.28 33.61,5.93 9.08,0.52 18.21,1.04 27.3,0.38 13.75,-0.99 27.3,-3.26 39.95,-9.07 8.92,-4.1 18.01,-7.84 26.72,-12.39 1.45,-0.76 3.02,-1.18 4.66,-1.37 5.86,-0.69 11.52,-2.18 17,-4.39 2.17,-0.88 3.77,-2.5 5.55,-3.88 2.96,-2.29 5.89,-4.65 8.69,-7.14 6.08,-5.42 10.32,-12 11.99,-20.07 0.68,-3.27 0.13,-5.73 -4.12,-5.32 -2.79,0.27 -5.55,0.57 -8.33,1.03 -9.57,1.61 -19.26,2.5 -28.89,3.4 -8.14,0.76 -16.44,1.56 -24.72,0.78 -8.06,-0.75 -15.78,-2.88 -23.2,-5.88 -12.73,-5.15 -25.31,-10.69 -37.91,-16.16 -4.1,-1.78 -7.74,-4.41 -11.53,-6.75 -0.48,-0.3 -0.95,-0.57 -1.55,-0.66 -5.25,-0.81 -10.48,-1.77 -15.62,-3.11 -1.22,-0.32 -1.3,0.15 -1.17,1.16 0.97,7.12 -2.76,10.63 -9.48,12.18 -4.86,1.12 -9.42,-0.46 -13.99,-1.58 -7.67,-1.87 -14.7,-5.6 -22.21,-7.96 -4.39,-1.38 -8.88,-2.47 -13.01,-4.59 -3.49,-1.79 -6.69,-3.98 -9.6,-6.6 -1.12,-1.01 -2.37,-1.79 -3.71,-2.46 -4.34,-2.16 -7.41,-5.8 -10.86,-9.05 -6.65,-6.27 -11.67,-13.61 -15.73,-21.73 -1.96,-3.92 -4.77,-7.38 -6.38,-11.5 -0.51,-1.31 -0.99,-2.64 -1.48,-3.96 -1.8,0.51 -1.51,2.65 -2.78,3.58 -0.09,3.66 -0.39,7.35 1.51,10.73 0.38,0.68 0.63,1.44 1.08,2.06 5.1,7.08 8.04,15.41 12.99,22.56 2.89,4.18 5.79,8.37 9.37,12.02 1.15,-0.11 1.98,0.65 2.52,1.37 3.79,5.12 8.61,9.44 10.48,15.99 1.87,6.56 -0.4,12.37 -1.96,18.39 -0.07,0.26 -0.33,0.46 -0.48,0.7 -2.78,4.35 -7.47,6.65 -11.05,10.14 -2.39,2.33 -5.8,2.86 -8.84,3.95 -3.1,1.11 -5.59,2.68 -6.32,6.16 -0.81,3.85 -0.25,7.32 2.79,10.12 5.31,4.87 11.54,8.42 17.57,12.26 2.12,1.35 4.64,1.97 6.58,3.64 0.22,0.05 0.44,0.1 0.66,0.15 0.57,-0.36 0.95,-0.22 1.16,0.41 0.23,0.04 0.47,0.08 0.7,0.12z"/>
    <path class="fil2" d="M67.67 203.88c-1.94,-1.67 -4.46,-2.29 -6.58,-3.64 -6.03,-3.84 -12.26,-7.39 -17.57,-12.26 -3.04,-2.79 -3.59,-6.26 -2.79,-10.12 0.73,-3.48 3.22,-5.05 6.32,-6.16 3.04,-1.09 6.46,-1.63 8.84,-3.95 3.58,-3.5 8.26,-5.79 11.05,-10.14 0.15,-0.24 0.41,-0.44 0.48,-0.7 1.57,-6.02 3.84,-11.83 1.96,-18.39 -1.87,-6.55 -6.69,-10.87 -10.48,-15.99 -0.54,-0.73 -1.37,-1.48 -2.52,-1.37 2.8,2.5 2.28,5.16 0.88,8.28 -1.71,3.8 -2.59,7.93 -3.37,12.05 -0.59,3.13 -3.19,4.79 -5.33,6.68 -3.77,3.35 -7.52,6.7 -10.55,10.75 -2.08,2.78 -3.83,5.81 -5.49,8.82 -1.63,2.96 -1.27,6.55 -0.36,9.77 2.7,9.59 9.59,15.54 18.04,20.04 4.84,2.58 10,4.33 15.19,6.01 0.73,0.24 1.46,0.61 2.27,0.31z"/>
    <path class="fil4" d="M106.34 84.39c3.05,0.73 5.76,-0.72 8.63,-1.24 7.54,-1.39 15.14,-2.43 22.72,-3.63 1.19,-0.19 2.42,0.33 3.87,-0.41 -2.07,-1.27 -3.95,-2.52 -5.92,-3.61 -7.65,-4.26 -13.42,-10.32 -17.58,-17.99 -2.8,-5.17 -5.59,-10.34 -6.49,-16.27 -0.17,-1.13 -0.21,-2.25 -0.06,-3.38 -0.94,0.45 -1.87,0.91 -2.8,1.36 -1.33,2.14 -2.91,4.14 -3.53,6.65 -2.6,10.76 -1.68,21.51 0.03,32.27 0.33,2.1 0.49,4.22 1.13,6.25z"/>
    <path class="fil5" d="M108.7 39.21c0.93,-0.45 1.87,-0.91 2.8,-1.36 1.65,-1.14 3.18,-0.37 4.72,0.29 1.77,0.76 3.16,2.35 5.24,2.45 -2.05,-2.02 -4.12,-4.02 -6.13,-6.08 -4.64,-4.76 -9.49,-9.26 -14.92,-13.11 -0.98,-0.69 -0.51,-1.32 -0.15,-2.17 1.83,-4.3 3.44,-8.59 2.78,-13.48 -0.65,-4.85 -8.61,-7.44 -11.43,-4.5 -1.31,1.36 -1.87,2.99 -2.28,4.69 -1.16,4.78 -1.11,4.76 -6.12,4.62 -1.04,-0.03 -2.1,0.26 -3.15,0.4 0.28,1.98 0.57,4.01 2.2,5.37 2.01,1.68 4.09,3.3 6.7,3.99 1.34,0.36 2.39,1.13 3.36,2.12 3.29,3.4 6.64,6.73 9.95,10.11 2.16,2.2 4.28,4.44 6.42,6.66z"/>
    <path class="fil5" d="M35.7 68.72c2.05,-1.63 4.1,-3.25 6.14,-4.88 -1.32,-2.27 -3.56,-3.63 -5.52,-5.15 -4.13,-3.2 -7.93,-6.89 -12.62,-9.32 -1.76,-0.92 -1.01,-2.08 -0.38,-3.16 1.61,-2.77 2.59,-5.61 1.86,-8.89 -1.22,-5.48 -4.97,-7.67 -10.27,-5.79 -2.87,1.01 -4.03,3.65 -4.59,6.21 -0.48,2.19 -1.64,2.87 -3.47,3.16 -1.54,0.25 -2.79,0.93 -3.65,2.26 1.11,3.94 4.49,4.83 7.81,5.6 1.01,0.24 1.87,0.52 2.65,1.13 5.03,3.92 10.11,7.77 15.05,11.79 2.56,2.08 5.18,4.17 6.97,7.03z"/>
    <path class="fil6" d="M108.7 39.21c-2.14,-2.22 -4.27,-4.46 -6.42,-6.66 -3.31,-3.38 -6.66,-6.71 -9.95,-10.11 -0.96,-0.99 -2.01,-1.77 -3.36,-2.12 -2.61,-0.69 -4.69,-2.31 -6.7,-3.99 -1.63,-1.36 -1.91,-3.4 -2.2,-5.37 -2.62,-0.05 -4.55,1.46 -6.36,3.02 -1.64,1.4 -1.96,4.03 -1.09,6.09 1.3,3.1 3.57,5.2 6.6,6.52 2.94,1.29 5.98,2.17 9.24,1.95 1,-0.07 1.57,0.49 2.07,1.22 4.12,6.06 9.56,10.93 14.65,16.11 0.62,-2.51 2.2,-4.52 3.53,-6.65z"/>
    <path class="fil6" d="M35.7 68.72c-1.8,-2.87 -4.42,-4.95 -6.97,-7.03 -4.94,-4.03 -10.02,-7.87 -15.05,-11.79 -0.78,-0.61 -1.64,-0.9 -2.65,-1.13 -3.32,-0.77 -6.71,-1.66 -7.81,-5.6 -1.5,0.27 -2.3,1.27 -2.79,2.62 -1.54,4.26 1.28,9.09 5.67,9.89 2.39,0.43 4.79,0.45 7.18,0.57 1.32,0.07 2.27,0.52 3.07,1.55 3.86,5 8.16,9.59 12.6,14.08 0.75,0.75 1.41,1.6 2.48,1.92 1.26,-0.93 0.98,-3.06 2.78,-3.58 0.5,-0.5 1,-0.99 1.49,-1.49z"/>
    <path class="fil7" d="M69.49 204.44c-0.21,-0.63 -0.59,-0.77 -1.16,-0.41 0.3,0.38 0.66,0.59 1.16,0.41z"/>
    <path class="fil8" d="M211.17 89.62c-2.61,10.28 -28.14,2.23 -19.8,-6.64 3.84,-4.09 21.68,-0.76 19.8,6.64z"/>
    <path class="fil8" d="M178.5 78.88c2.64,-0.26 4.98,1.71 6.28,3.88 1.27,2.12 0.17,4.6 -1.88,5.65 -1.47,0.75 -3.52,0.58 -4.98,-0.06 -2.1,-0.93 -3.62,-4.53 -3.42,-6.84 0.12,-1.39 1.02,-4.18 2.37,-4.39 0.44,-0.07 0.82,-0.13 0.82,-0.13 10.68,-1.67 12.36,9.01 1.68,10.68 0,0 -0.38,0.06 -0.82,0.13 0.16,-5.5 1.66,-2.42 2.54,-3.34 -0.05,0.6 -0.14,-1.12 -0.05,-0.56 -0.05,-0.18 -0.13,-0.52 -0.19,-0.7 0.13,0.29 0.04,0.1 -0.26,-0.42 0.13,0.21 0.52,0.47 -0.24,-0.21 0.21,0.19 0.79,0.41 -0.14,-0.05 0.12,0.06 0.26,0.1 0.39,0.14 0.54,0.18 -0.8,-0.17 -0.25,-0.07 0.14,0.02 0.27,0.03 0.41,0.04 0.53,0.03 -0.93,0.09 -0.19,-0.02 0.28,-0.04 0.68,-0.25 -0.35,0.12 0.28,-0.1 0.5,-0.39 -0.33,0.23 -0.37,0.27 -0.5,0.5 -0.67,0.92 -0.16,0.4 -0.21,0.82 -0.15,1.25 0.21,0.62 0.26,0.78 0.13,0.47 -0.21,-0.51 0.48,0.67 0.09,0.17 -0.51,-0.66 0.28,0.2 -0.2,-0.21 -0.23,-0.2 -0.48,-0.38 -0.7,-0.58 -0.82,-0.72 0.53,0.15 1.08,0.1 -1.7,0.17 -3.31,-0.85 -3.59,-2.61 -0.25,-1.62 0.91,-3.41 2.61,-3.59l0 0z"/>
    <path class="fil8" d="M222.52 90.83c-0.03,1.1 -0.63,2.07 -1.25,2.95 -1,1.39 -3.01,1.69 -4.38,0.69 -1.39,-1.01 -1.69,-3 -0.69,-4.38 0.49,-0.68 0.09,-0.13 0.09,0.04 0.05,-1.71 1.88,-2.94 3.47,-2.76 1.81,0.21 2.81,1.77 2.76,3.47l0 0z"/>
    <path class="fil8" d="M54.3 80.15c0.19,0.27 0.38,0.54 0.58,0.81 0.99,1.39 0.94,3.28 -0.45,4.41 -1.26,1.03 -3.42,0.94 -4.41,-0.45 -0.19,-0.27 -0.38,-0.54 -0.58,-0.81 -0.99,-1.39 -0.94,-3.28 0.45,-4.41 1.26,-1.03 3.42,-0.94 4.41,0.45l0 0z"/>
    <path class="fil8" d="M54.34 89.76l2.07 -0.32c4.13,-0.65 5.1,5.55 0.97,6.2 0,0 0,0 -2.07,0.32 -2.07,0.32 -3.04,-5.87 -0.97,-6.2 0,0 -2.07,0.32 0,0z"/>
    <path class="fil8" d="M61.49 84.97l0 0c-0.65,-4.13 5.55,-5.1 6.2,-0.97l0 0c0.65,4.13 -5.55,5.1 -6.2,0.97 0,0 0.65,4.13 0,0z"/>
    <path class="fil8" d="M63.54 93.59c0,0 0.45,2.88 0.34,2.15 -0.26,-1.69 0.73,-3.29 2.42,-3.56 0.81,-0.13 1.64,-0.34 2.41,0.06 0.96,0.5 1.66,1.03 2.38,1.84 1.33,1.52 1.64,3.69 1.52,5.62 -0.17,2.82 -3.88,3.59 -5.56,1.63 -1.8,-2.1 -1.64,-4.38 -0.08,-6.53 1,-1.38 3,-1.69 4.38,-0.69 1.38,1.01 1.69,3 0.69,4.38 -0.07,0.1 -0.57,0.91 -0.19,0.19 0.14,-0.46 0.11,-0.93 -0.07,-1.4 -0.19,-0.29 -0.14,-0.27 0.13,0.09 -1.85,0.54 -3.7,1.09 -5.55,1.63 0.02,-0.4 0.02,-0.45 0.02,-0.16 -0,-0.07 -0.24,-1.03 -0.04,-0.43 -0.04,-0.11 -0.51,-0.83 -0.16,-0.35 -0.35,-0.47 -0.48,-2.7 -0.27,-2.59 0.54,0.06 0.7,-2.37 1.22,-2.45 -0.29,0.05 -0.58,0.09 -0.88,0.14 1.03,-0.16 4.25,2.6 4.09,1.57 0.11,0.73 -0.34,-2.15 -0.34,-2.15 1.01,6.46 -5.45,7.47 -6.46,1.01 0,0 1.01,6.46 0,0z"/>
    <path class="fil9" d="M306.78 132.12c-8.84,8.14 -14.95,18.03 -23.26,26.39 -18.87,19.01 -58.06,18.07 -82.59,21.64 -29.23,4.25 -58.35,7.69 -87.8,9.9 -14.56,1.09 -28.85,1.67 -42.96,-2.85 -10.94,-3.51 -20.3,-11.49 -31.15,-14.73 -18.15,-5.41 -5.33,12.56 -0.11,17.96 10.59,10.95 20.29,16.6 35.29,20.63 25.62,6.89 51.88,12.29 78.28,14.96 25.12,2.55 51.37,4.14 75.51,-4.63 19.78,-7.18 38.11,-19.65 55.44,-31.4 22.98,-15.58 31.29,-31.5 23.19,-58.78l0.14 0.89z"/>
   </g>
  </g>
 </g>
</svg>
