<?xml version="1.0" encoding="UTF-8"?>
<!DOCTYPE svg PUBLIC "-//W3C//DTD SVG 1.1//EN" "http://www.w3.org/Graphics/SVG/1.1/DTD/svg11.dtd">
<!-- Creator: CorelDRAW 2018 (64-Bit) -->
<svg xmlns="http://www.w3.org/2000/svg" xml:space="preserve" width="1.87617in" height="1.78976in" version="1.1" style="shape-rendering:geometricPrecision; text-rendering:geometricPrecision; image-rendering:optimizeQuality; fill-rule:evenodd; clip-rule:evenodd"
viewBox="0 0 441.68 421.34"
 xmlns:xlink="http://www.w3.org/1999/xlink">
 <defs>
  <style type="text/css">
   <![CDATA[
    .fil3 {fill:#F79233;fill-rule:nonzero}
    .fil9 {fill:#F5B6A4;fill-rule:nonzero}
    .fil2 {fill:#FACB68;fill-rule:nonzero}
    .fil15 {fill:#F2A38F;fill-rule:nonzero}
    .fil14 {fill:#E13782;fill-rule:nonzero}
    .fil20 {fill:#E6947B;fill-rule:nonzero}
    .fil12 {fill:#E9C19A;fill-rule:nonzero}
    .fil16 {fill:#DA6696;fill-rule:nonzero}
    .fil11 {fill:#DDB58F;fill-rule:nonzero}
    .fil10 {fill:#D5A47B;fill-rule:nonzero}
    .fil17 {fill:#CA7C47;fill-rule:nonzero}
    .fil5 {fill:#9D388D;fill-rule:nonzero}
    .fil4 {fill:#975EA5;fill-rule:nonzero}
    .fil7 {fill:#7591A9;fill-rule:nonzero}
    .fil6 {fill:#536A7D;fill-rule:nonzero}
    .fil19 {fill:#495C74;fill-rule:nonzero}
    .fil13 {fill:#394557;fill-rule:nonzero}
    .fil18 {fill:#3A3D55;fill-rule:nonzero}
    .fil21 {fill:#374B94;fill-rule:nonzero}
    .fil1 {fill:#3C4180;fill-rule:nonzero}
    .fil0 {fill:#C3E2F5;fill-rule:nonzero}
    .fil8 {fill:url(#id0);fill-rule:nonzero}
   ]]>
  </style>
  <linearGradient id="id0" gradientUnits="userSpaceOnUse" x1="182.53" y1="261.7" x2="16.1" y2="368.12">
   <stop offset="0" style="stop-opacity:1; stop-color:#F2A38F"/>
   <stop offset="1" style="stop-opacity:1; stop-color:#F5B6A4"/>
  </linearGradient>
 </defs>
 <g id="Layer_x0020_1">
  <metadata id="CorelCorpID_0Corel-Layer"/>
  <g id="_1607341382880">
   <path class="fil0" d="M441.68 219.85c0,111.28 -90.21,201.49 -201.49,201.49 -111.28,0 -201.49,-90.21 -201.49,-201.49 0,-111.28 90.21,-201.49 201.49,-201.49 111.28,0 201.49,90.21 201.49,201.49z"/>
   <g>
    <path class="fil1" d="M75.48 360.85c-2.05,0.73 -4.56,2.44 -3.72,4.46 0.37,0.89 1.3,1.39 2.17,1.79 8.37,3.82 17.81,4.36 27.01,4.67 15.23,0.51 30.46,0.56 45.7,0.6 13.44,0.04 27.63,-0.11 39.21,-6.95 1.17,-0.69 2.45,-1.81 2.13,-3.12 -0.15,-0.64 -0.67,-1.13 -1.18,-1.54 -12.13,-9.78 -41.54,-12.25 -56.96,-12.1 -17.95,0.18 -37.63,6.21 -54.35,12.18z"/>
    <path class="fil1" d="M126.71 53.47c-4.14,51.6 -1.43,103.15 -1.35,154.85 0.04,25.53 0.08,51.06 0.12,76.59 0.04,25.92 -1.8,52.55 1.62,78.26 0.47,3.52 5.02,3.53 5.49,0 3.35,-25.17 1.58,-51.21 1.62,-76.59 0.04,-26.08 0.08,-52.17 0.12,-78.26 0.08,-51.7 2.79,-103.25 -1.35,-154.85 -0.32,-4.03 -5.95,-4.04 -6.28,0l0 0z"/>
    <path class="fil2" d="M72.78 73.82c38.13,-0.8 76.22,0.16 114.15,-4.32 -13.91,-18.15 -24.46,-43.17 -30.78,-66.06 -0.86,-3.12 -50.88,-7.05 -57.73,2.99 0,0 -4.77,23.17 -8.8,31.85 -1.87,4.03 -13.93,35.46 -16.84,35.53z"/>
    <path class="fil3" d="M95.87 63.83c4.16,-7.58 6.55,-16.01 8.27,-24.44 1.66,-8.13 3.74,-17.62 3.07,-25.94 -0.03,-0.38 -0.62,-0.52 -0.71,-0.1 -0.68,3.46 -0.64,7.11 -1.02,10.62 -0.52,4.86 -1.22,9.71 -2.14,14.52 -1.64,8.59 -3.95,17.21 -8.13,24.95 -0.23,0.43 0.42,0.81 0.65,0.38l0 0z"/>
    <path class="fil3" d="M117.72 20.09c1.68,14.64 1.13,28.93 0.96,43.6 -0.01,0.47 0.77,0.6 0.84,0.11 2.07,-14.26 0.94,-29.49 -0.88,-43.71 -0.07,-0.57 -0.98,-0.59 -0.91,0l0 0z"/>
    <path class="fil3" d="M132.91 16.98c0.94,6.98 1.89,13.96 2.83,20.95 0.92,6.84 1.22,14.24 3.06,20.89 0.11,0.38 0.7,0.31 0.7,-0.09 -0.04,-6.69 -1.7,-13.64 -2.64,-20.27 -1.03,-7.24 -2.05,-14.48 -3.08,-21.72 -0.08,-0.57 -0.95,-0.33 -0.87,0.24l0 0z"/>
    <path class="fil3" d="M145.72 13.58c2.68,17.52 9.77,35.58 21.66,48.96 0.42,0.47 1.28,-0.16 0.89,-0.69 -10.8,-14.78 -18.65,-30.29 -21.6,-48.53 -0.1,-0.63 -1.05,-0.36 -0.96,0.26l0 0z"/>
    <path class="fil3" d="M112.44 8.84c-0.11,1.04 -0.23,3.01 0.97,3.44 0.22,0.08 0.49,-0.05 0.6,-0.24 0.28,-0.47 0.15,-0.82 0.02,-1.33 -0.16,-0.62 -0.23,-1.23 -0.22,-1.87 0.01,-0.9 -1.28,-0.86 -1.37,0l0 0z"/>
    <path class="fil3" d="M119.21 7.59c-0.04,1.44 -0.19,2.93 0.01,4.35 0.09,0.59 1.11,0.59 1.2,0 0.21,-1.42 0.05,-2.91 0.01,-4.35 -0.02,-0.78 -1.19,-0.78 -1.22,0l0 0z"/>
    <path class="fil3" d="M125.46 7.35c0.24,0.95 0.48,1.9 0.72,2.85 0.2,0.77 0.21,1.56 0.92,2.01 0.22,0.14 0.56,0.05 0.68,-0.18 0.39,-0.76 0,-1.44 -0.22,-2.21 -0.28,-0.94 -0.55,-1.88 -0.83,-2.82 -0.24,-0.81 -1.48,-0.47 -1.27,0.35l0 0z"/>
    <path class="fil3" d="M135.03 7.78c0.27,0.69 0.55,1.38 0.82,2.06 0.22,0.55 0.35,1.02 0.99,1.18 0.22,0.06 0.48,-0.04 0.59,-0.24 0.33,-0.58 0.09,-0.98 -0.16,-1.53 -0.31,-0.68 -0.62,-1.35 -0.93,-2.02 -0.34,-0.73 -1.62,-0.2 -1.31,0.56l0 0z"/>
    <path class="fil4" d="M366.92 180.48c-2.8,-7.84 -6.13,-15.67 -11.64,-22 -7.89,-9.05 -22.31,-15.61 -34.28,-17.87 -11.97,-2.26 -71.96,-6.78 -96.55,0.26 -24.58,7.04 -47.42,22 -60.11,43.67 -13.99,23.91 -15.51,54.91 -35.74,74.13 -11.79,11.2 -28.86,17.1 -37.73,30.61 -10.52,16.03 -5.98,36.98 -0.73,55.3 2.44,8.53 6.33,22.99 11.7,30.14 10.4,13.84 118.84,38.1 130.11,38.66 30.61,1.55 38.8,-5.38 55.01,-11.2 16.2,-5.82 26.98,-13.6 41.71,-22.38 8.07,-4.82 15.92,-12.1 22.26,-18.94 7.1,-7.66 11.49,-17.31 15.09,-27.02 18.17,-49.03 18.49,-104.14 0.9,-153.37z"/>
    <path class="fil5" d="M226.32 331.3c9.89,-11.32 22.25,-20.08 36.32,-25.44 13.82,-5.26 27.25,-5.67 41.78,-5.62 1.25,0 1.59,-1.98 0.3,-2.23 -29.06,-5.7 -61.31,10.18 -79.8,31.91 -0.81,0.95 0.55,2.34 1.39,1.39l0 0z"/>
    <path class="fil5" d="M255.95 308.2c18,-27.43 50.65,-36.33 81.35,-39.76 1.79,-0.2 1.88,-2.81 0,-2.87 -29.99,-0.96 -68.19,14.35 -83.49,41.38 -0.79,1.39 1.27,2.57 2.13,1.25l0 0z"/>
    <path class="fil5" d="M288.09 278.24c0.71,-7.26 6.91,-13.73 12.09,-18.45 4.25,-3.88 9.69,-6.14 13.84,-9.95 0.89,-0.82 -0.06,-2.11 -1.11,-1.9 -6.44,1.28 -13.09,7.63 -17.45,12.25 -4.61,4.89 -9.81,11 -9.57,18.06 0.05,1.44 2.06,1.39 2.2,0l0 0z"/>
    <path class="fil5" d="M312.27 246.2c1.22,-7.65 2.53,-15.11 5.33,-22.38 3.11,-8.08 8.1,-14.67 11.99,-22.28 0.55,-1.08 -0.75,-2.09 -1.66,-1.28 -11.69,10.43 -17.81,30.37 -18.2,45.6 -0.04,1.42 2.31,1.81 2.54,0.34l0 0z"/>
    <path class="fil5" d="M323.08 205.3c-0.93,-6.17 0.11,-11.93 0.15,-18.07 0.01,-1.38 -1.77,-1.41 -2.23,-0.3 -2.44,5.85 -1.69,13.03 -0.6,19.11 0.32,1.78 2.95,1 2.69,-0.74l0 0z"/>
    <path class="fil5" d="M170.39 336.53c24.8,-12.27 50.06,-9.82 74.75,0.85 1.36,0.59 2.51,-1.2 1.19,-2.03 -22.66,-14.29 -53.85,-12.42 -76.99,-0.61 -1.2,0.61 -0.14,2.38 1.05,1.79l0 0z"/>
    <path class="fil5" d="M177.14 319.31c3.42,-0.13 6.59,0.65 9.54,2.4 2.53,1.5 4.1,4.04 6.59,5.47 0.88,0.5 1.68,-0.33 1.56,-1.2 -0.46,-3.34 -4.18,-5.83 -7.02,-7.17 -3.35,-1.58 -7.01,-2.08 -10.67,-1.58 -1.28,0.17 -1.38,2.13 0,2.08l0 0z"/>
    <path class="fil5" d="M159.6 234.21c7.71,-3.25 14.35,5.63 21.63,5.5 0.62,-0.01 1.12,-0.74 0.74,-1.3 -2.38,-3.57 -8.25,-4.96 -12.16,-6.28 -3.83,-1.28 -7.46,-2.17 -11.21,-0.29 -1.29,0.64 -0.37,2.94 1,2.37l0 0z"/>
    <path class="fil5" d="M167.36 217.47c2.93,0.51 5.68,1.57 8.11,3.31 1.15,0.82 2.19,1.8 3.12,2.86 0.95,1.09 1.44,2.2 2.72,2.86 0.63,0.32 1.46,-0.06 1.45,-0.83 -0.06,-2.77 -3.22,-5.16 -5.3,-6.64 -2.82,-2.02 -6.07,-3.25 -9.5,-3.71 -1.39,-0.19 -2.03,1.91 -0.6,2.16l0 0z"/>
    <path class="fil5" d="M172.22 205.58c1.31,1.1 2.62,2.2 3.94,3.3 1.16,0.97 2.38,2.46 3.9,2.74 1.32,0.25 2.15,-0.95 1.64,-2.13 -0.6,-1.38 -2.38,-2.28 -3.56,-3.18 -1.36,-1.03 -2.72,-2.07 -4.09,-3.1 -1.36,-1.03 -3.14,1.27 -1.83,2.37l0 0z"/>
    <path class="fil5" d="M318.75 249.77c2.55,-3.33 10.31,-3.76 14.2,-4.75 4.11,-1.05 8.41,-1.77 12.25,-3.59 1.08,-0.51 0.57,-2.37 -0.62,-2.27 -5.85,0.48 -11.78,2.8 -17.41,4.43 -3.76,1.09 -8,1.66 -10.32,5.07 -0.81,1.19 1.06,2.2 1.9,1.11l0 0z"/>
    <path class="fil5" d="M326.8 233.01c3.41,-2.44 7.02,-4.43 11,-5.8 3.58,-1.23 7.39,-1.5 10.93,-2.82 0.81,-0.3 1.05,-1.71 0,-1.89 -7.95,-1.37 -17.08,3.75 -23.15,8.41 -1.21,0.93 -0.07,3.02 1.23,2.1l0 0z"/>
    <path class="fil5" d="M334.28 211.79c2.12,-0.34 4.23,-0.67 6.35,-1.01 1.91,-0.3 3.9,-0.38 5.58,-1.4 0.72,-0.44 0.66,-1.72 -0.25,-1.9 -1.92,-0.38 -3.72,0.16 -5.62,0.53 -2.25,0.44 -4.5,0.88 -6.74,1.32 -1.63,0.32 -0.91,2.71 0.68,2.46l0 0z"/>
    <path class="fil6" d="M341.21 196.76c1.44,0 1.44,-2.24 0,-2.24 -1.44,0 -1.44,2.24 0,2.24l0 0z"/>
    <path class="fil5" d="M329.69 184.84c1.38,-5.47 4.21,-9.5 7.11,-14.2 0.86,-1.4 -1.07,-2.79 -2.22,-1.71 -4.07,3.8 -6.3,9.88 -7.42,15.21 -0.35,1.64 2.12,2.35 2.53,0.7l0 0z"/>
    <path class="fil5" d="M319.78 170.5c1.76,-3.69 4.04,-7.45 4.92,-11.47 0.15,-0.67 -0.77,-1.4 -1.28,-0.75 -2.52,3.24 -3.96,7.32 -5.68,11.02 -0.63,1.36 1.38,2.56 2.03,1.19l0 0z"/>
    <path class="fil5" d="M256.63 348.86c9.6,8.37 11.53,18.84 10.46,30.94 -0.12,1.32 1.81,1.43 2.2,0.3 4,-11.69 -1.98,-25.32 -10.91,-32.99 -1.2,-1.03 -2.95,0.7 -1.75,1.75l0 0z"/>
    <path class="fil5" d="M308.3 309.88c6.88,4.58 11.57,9.07 13.36,17.49 1.37,6.42 0.92,12.82 1.79,19.24 0.12,0.91 1.6,0.85 1.78,0 1.58,-7.49 0.31,-17.66 -2.49,-24.77 -2.53,-6.43 -7.8,-10.07 -13.49,-13.58 -1.04,-0.64 -1.95,0.96 -0.95,1.63l0 0z"/>
    <path class="fil5" d="M349.42 280.09c1.67,2.89 3.33,5.78 5,8.67 1.5,2.6 2.78,5.52 4.91,7.67 0.94,0.95 2.65,-0.01 2.26,-1.32 -0.85,-2.9 -2.79,-5.44 -4.35,-8 -1.73,-2.85 -3.46,-5.7 -5.18,-8.56 -1.02,-1.68 -3.63,-0.17 -2.64,1.54l0 0z"/>
    <path class="fil5" d="M361.11 262.21c2.18,0.99 4.29,1.92 6.6,2.55 1.21,0.33 1.83,-1.31 0.83,-1.97 -1.89,-1.26 -3.86,-2.21 -5.93,-3.15 -1.74,-0.79 -3.25,1.78 -1.51,2.57l0 0z"/>
    <path class="fil5" d="M366.88 245.1c1.89,0 1.9,-2.94 0,-2.94 -1.89,0 -1.9,2.94 0,2.94l0 0z"/>
    <path class="fil5" d="M165.74 353.02c-6.35,-1.11 -8.4,5.2 -9.59,10.24 -0.95,4.02 -3.78,13.98 1.78,15.74 0.73,0.23 1.2,-0.48 1.11,-1.11 -0.54,-3.78 -0.89,-6.75 -0.32,-10.66 0.52,-3.55 1.3,-12.28 6.7,-11.83 1.35,0.11 1.68,-2.15 0.32,-2.39l0 0z"/>
    <path class="fil5" d="M176.77 365.28c0.67,2.24 1.65,5 3.63,6.39 1.47,1.03 3.28,-0.67 2.88,-2.22 -0.25,-0.99 -0.87,-1.85 -1.34,-2.75 -0.43,-0.83 -0.77,-1.67 -1.05,-2.56 -0.84,-2.61 -4.92,-1.51 -4.13,1.14l0 0z"/>
    <path class="fil5" d="M196.47 366.05c0.73,0.62 1.4,1.2 2.25,1.63 1.35,0.68 2.72,-0.69 2.04,-2.04 -0.43,-0.85 -1.01,-1.53 -1.63,-2.25 -1.58,-1.85 -4.51,1.08 -2.66,2.66l0 0z"/>
    <path class="fil7" d="M256.26 326.26c2.91,0.08 5.79,0.5 8.55,1.46 2.8,0.97 5.1,2.7 7.77,3.87 0.39,0.17 0.76,-0.26 0.46,-0.6 -3.87,-4.3 -11.27,-5.69 -16.78,-5.76 -0.66,-0.01 -0.66,1 0,1.02l0 0z"/>
    <path class="fil7" d="M267.98 320.72c2.6,-0.09 5.17,0.12 7.69,0.8 2.24,0.6 4.22,1.8 6.41,2.48 0.39,0.12 0.72,-0.42 0.41,-0.7 -3.66,-3.2 -9.86,-3.8 -14.5,-3.54 -0.61,0.04 -0.62,0.98 0,0.95l0 0z"/>
    <path class="fil7" d="M278.3 314.44c3.56,0.97 7.25,2.36 10.9,2.86 0.75,0.1 1.03,-0.85 0.31,-1.14 -3.42,-1.38 -7.31,-1.99 -10.89,-2.91 -0.77,-0.2 -1.09,0.98 -0.33,1.19l0 0z"/>
    <path class="fil7" d="M292.4 291.45c4.32,-1.21 8.78,-1.76 13.26,-1.39 4.61,0.38 8.55,1.96 12.93,3.19 0.51,0.14 0.79,-0.56 0.35,-0.84 -7.59,-4.84 -18.52,-4.41 -26.8,-1.91 -0.6,0.18 -0.35,1.12 0.26,0.95l0 0z"/>
    <path class="fil7" d="M308.85 284.25c4.93,0.9 10.18,2.45 15.2,2.56 0.56,0.01 0.63,-0.78 0.13,-0.95 -4.71,-1.6 -10.11,-1.93 -15.01,-2.76 -0.75,-0.13 -1.07,1.01 -0.32,1.15l0 0z"/>
    <path class="fil7" d="M317.12 259.76c2.83,-0.67 5.67,-1.28 8.54,-1.76 2.84,-0.48 5.81,-0.55 8.58,-1.37 0.58,-0.17 0.44,-0.98 -0.14,-1.03 -5.56,-0.43 -11.97,1.55 -17.32,2.91 -0.81,0.2 -0.47,1.44 0.34,1.25l0 0z"/>
    <path class="fil7" d="M330.06 237.88c4.03,-1.4 8.35,-2.54 12.21,-4.38 0.54,-0.26 0.15,-1.06 -0.39,-0.93 -4.1,0.99 -8.14,2.83 -12.1,4.27 -0.65,0.24 -0.38,1.28 0.29,1.05l0 0z"/>
    <path class="fil7" d="M336.31 217.69c2.39,-0.51 4.91,-0.84 7.17,-1.8 0.33,-0.14 0.15,-0.67 -0.18,-0.66 -2.46,0.07 -4.89,0.86 -7.28,1.4 -0.69,0.16 -0.4,1.21 0.29,1.06l0 0z"/>
    <path class="fil7" d="M337.61 202.38c2.36,-0.41 4.79,-0.68 7.04,-1.53 0.36,-0.14 0.33,-0.69 -0.09,-0.69 -2.45,-0.01 -4.87,0.61 -7.27,1.07 -0.76,0.14 -0.44,1.29 0.32,1.16l0 0z"/>
    <path class="fil7" d="M336.35 187.47c1.97,-2.96 4.32,-5.51 6.63,-8.19 0.61,-0.7 -0.32,-1.63 -1.02,-1.02 -2.7,2.39 -4.9,5.47 -6.83,8.5 -0.49,0.76 0.71,1.45 1.21,0.71l0 0z"/>
    <path class="fil7" d="M310.82 156.58c-0.05,-1.01 -0.01,-2 0.2,-2.99 0.17,-0.82 0.59,-1.61 0.58,-2.45 -0.01,-0.43 -0.57,-0.7 -0.88,-0.37 -1.24,1.33 -1.19,4.1 -1.04,5.81 0.06,0.73 1.19,0.75 1.15,0l0 0z"/>
    <path class="fil7" d="M318.36 156.5c0.59,-1.16 1.18,-2.3 1.53,-3.56 0.14,-0.5 -0.5,-0.69 -0.78,-0.33 -0.77,1 -1.31,2.11 -1.87,3.23 -0.37,0.74 0.74,1.4 1.12,0.65l0 0z"/>
    <path class="fil7" d="M328.48 150.72c7.61,1.17 14,4.67 19.55,9.93 0.79,0.75 1.95,-0.41 1.19,-1.19 -5.48,-5.7 -12.81,-8.91 -20.6,-9.85 -0.62,-0.07 -0.77,1.01 -0.15,1.1l0 0z"/>
    <path class="fil7" d="M352 166.5c0.66,1.21 1.33,2.43 2,3.64 0.53,0.96 0.95,2.35 1.98,2.84 0.4,0.19 0.82,-0.04 0.86,-0.49 0.08,-1.15 -0.92,-2.19 -1.51,-3.13 -0.73,-1.17 -1.47,-2.34 -2.21,-3.51 -0.44,-0.7 -1.52,-0.08 -1.12,0.65l0 0z"/>
    <path class="fil7" d="M359.72 179.8c0.23,0.59 0.46,1.18 0.69,1.77 0.22,0.55 0.34,1.07 0.79,1.46 0.48,0.42 1.21,0.13 1.24,-0.51 0.03,-0.6 -0.26,-1.06 -0.51,-1.59 -0.27,-0.58 -0.54,-1.15 -0.81,-1.73 -0.37,-0.78 -1.73,-0.22 -1.41,0.6l0 0z"/>
    <path class="fil7" d="M276.16 362.77c-0.25,1.52 0.18,3.08 0.43,4.59 0.27,1.68 0.32,3.6 1.14,5.11 0.34,0.62 1.14,0.26 1.21,-0.33 0.2,-1.6 -0.43,-3.29 -0.77,-4.85 -0.34,-1.54 -0.49,-3.25 -1.32,-4.61 -0.16,-0.26 -0.64,-0.25 -0.69,0.09l0 0z"/>
    <path class="fil7" d="M284.03 360.57c0.4,1.09 0.8,2.18 1.2,3.28 0.3,0.82 0.49,1.83 1.42,2.1 0.24,0.07 0.49,-0.05 0.62,-0.25 0.51,-0.83 -0.06,-1.69 -0.4,-2.5 -0.43,-1.02 -0.85,-2.04 -1.28,-3.06 -0.39,-0.94 -1.93,-0.57 -1.56,0.43l0 0z"/>
    <path class="fil7" d="M293.81 356.05c0.25,0.79 0.51,1.58 0.76,2.36 0.22,0.68 0.37,1.42 1.08,1.74 0.33,0.15 0.74,0.1 0.94,-0.25 0.39,-0.69 0.14,-1.32 -0.1,-2.03 -0.27,-0.78 -0.53,-1.57 -0.8,-2.35 -0.4,-1.18 -2.27,-0.68 -1.88,0.52l0 0z"/>
    <path class="fil8" d="M34.7 358.58c-4.46,4.36 -15.76,6.08 -22.36,6.42 -3.01,0.15 -5.18,-0.37 -8.28,0 0,0 -4.06,-0.28 -4.06,1.67 0,1.82 3.09,1.84 5.29,4.05 4.29,4.32 11.92,3.32 24.62,11.37 3.83,2.43 9.16,-0.43 11.14,-4.37 3.31,-6.58 7.05,-12.96 12.24,-18.31 10.4,-10.74 19.94,-11.74 32.31,-20.41 8.91,-6.24 14.99,-12.36 20.55,-21.43 1.97,-3.22 5.1,-8.16 7.97,-10.72 3.11,-2.76 7.32,-2.09 11.31,-3.51 18.34,-6.54 36.67,-13.08 55.01,-19.62 8.9,-3.17 18.3,-6.67 22.29,-15.85 1.95,-4.49 0.87,-9.79 -2.77,-13.21 -18.33,-17.25 -62.88,10.41 -78.74,19.56 -10.98,6.34 -9.82,1.73 -19.37,9.84 -14.55,12.35 -56.09,63.74 -67.15,74.54z"/>
    <path class="fil9" d="M124.51 291.54c-1.44,1.87 -47.31,98.51 -58.53,101.35 -13.19,3.35 -15.45,4.49 -23.02,6.06 -3.61,0.75 -4.88,0.22 -5.44,2.59 0,2.9 3.82,1.01 6.98,3.49 7.36,5.79 14.27,0.94 24.55,8.27 3.27,2.33 8.83,2.14 11.9,-0.42 3.51,-2.92 3.31,-8 4.03,-12.37 2.41,-14.63 16.86,-24.18 27.14,-35.35 9.21,-10 21.3,-15.46 27.16,-33.77 0.82,-2.55 2.42,-11.48 4.21,-13.55 2.02,-2.34 45.8,-2.23 66.07,-6.43 11.91,-2.47 29.32,-9.13 39.68,-15.21 10.36,-6.08 20.08,-38.83 -11.2,-37.66 -39.07,1.46 -107.61,25.3 -113.53,33z"/>
    <path class="fil10" d="M77.58 397.08c-0.14,1.15 -0.17,2.32 -0.22,3.48 -0.05,1.15 0.13,2.9 -0.4,3.93 -0.67,1.33 -2.16,1.62 -3.31,2.34 -0.3,0.19 -0.39,0.75 0,0.91 1.71,0.72 3.5,-0.65 4.43,-2.07 0.51,-0.77 0.61,-1.51 0.66,-2.42 0.1,-2.03 0.13,-4.16 -0.01,-6.19 -0.05,-0.76 -1.06,-0.72 -1.15,0l0 0z"/>
    <path class="fil10" d="M39.61 369.91c-0.59,1.16 -0.19,2.47 -1.39,3.38 -0.53,0.41 -1.25,0.6 -1.92,0.56 -0.65,-0.04 -1.13,-0.35 -1.78,-0.2 -0.45,0.11 -0.55,0.59 -0.39,0.96 0.38,0.88 1.62,1.02 2.48,0.98 0.99,-0.05 1.94,-0.42 2.68,-1.09 1.17,-1.05 2.21,-3.57 0.67,-4.68 -0.11,-0.08 -0.29,-0.02 -0.35,0.09l0 0z"/>
    <path class="fil10" d="M126.05 301.69c1.62,1.34 3.43,2.81 5.63,2.91 1.55,0.07 3.61,-0.53 3.88,-2.27 0.05,-0.32 -0.27,-0.68 -0.6,-0.47 -1.18,0.78 -2.13,1.53 -3.65,1.35 -1.7,-0.21 -3.12,-1.34 -4.43,-2.36 -0.58,-0.46 -1.42,0.34 -0.83,0.83l0 0z"/>
    <path class="fil10" d="M104.28 291.99c0.88,1.17 2.06,2.06 3.49,2.43 1.13,0.3 2.95,0.48 3.71,-0.57 0.21,-0.28 -0.03,-0.64 -0.3,-0.74 -0.91,-0.33 -2.03,0.11 -3.02,-0.11 -1.17,-0.26 -2.14,-0.87 -2.9,-1.77 -0.45,-0.53 -1.4,0.19 -0.98,0.75l0 0z"/>
    <path class="fil11" d="M149.53 311.54c0.7,-1.81 1.4,-3.63 2.1,-5.44 0.68,-1.78 1.62,-3.6 1.93,-5.49 0.07,-0.39 -0.43,-0.64 -0.66,-0.28 -0.97,1.55 -1.45,3.41 -2.08,5.11 -0.72,1.95 -1.45,3.9 -2.17,5.85 -0.21,0.56 0.67,0.79 0.88,0.24l0 0z"/>
    <path class="fil11" d="M156.93 308.49c0.94,-1.39 1.84,-2.79 2.7,-4.23 0.76,-1.28 1.72,-2.58 2.11,-4.03 0.15,-0.55 -0.59,-1.04 -1,-0.58 -0.98,1.13 -1.56,2.61 -2.29,3.92 -0.81,1.46 -1.65,2.91 -2.5,4.35 -0.38,0.64 0.58,1.18 0.98,0.57l0 0z"/>
    <path class="fil11" d="M166.71 306.84c0.8,-1.01 1.6,-2.01 2.39,-3.02 0.67,-0.85 1.56,-1.7 1.89,-2.74 0.16,-0.5 -0.46,-0.99 -0.9,-0.7 -0.9,0.61 -1.48,1.7 -2.11,2.57 -0.75,1.04 -1.49,2.09 -2.24,3.14 -0.4,0.56 0.53,1.29 0.96,0.75l0 0z"/>
    <path class="fil11" d="M176.82 306.48c0.6,-0.73 1.21,-1.46 1.82,-2.2 0.53,-0.64 1.21,-1.2 1.28,-2.06 0.03,-0.42 -0.45,-0.77 -0.84,-0.64 -0.81,0.27 -1.19,1.09 -1.67,1.75 -0.56,0.77 -1.12,1.54 -1.68,2.31 -0.46,0.63 0.59,1.44 1.09,0.84l0 0z"/>
    <path class="fil11" d="M184.52 306.59c0.2,-0.63 0.4,-1.26 0.6,-1.89 0.18,-0.56 0.38,-0.95 0.04,-1.48 -0.16,-0.25 -0.44,-0.3 -0.7,-0.18 -0.56,0.26 -0.59,0.71 -0.74,1.27 -0.16,0.64 -0.33,1.28 -0.49,1.92 -0.21,0.83 1.03,1.17 1.29,0.35l0 0z"/>
    <path class="fil11" d="M105.55 361.6c6.59,-7.68 13.29,-15.4 19.27,-23.58 0.32,-0.43 -0.4,-0.99 -0.75,-0.58 -6.48,7.76 -12.63,15.79 -19.15,23.53 -0.37,0.43 0.25,1.06 0.63,0.63l0 0z"/>
    <path class="fil11" d="M128.58 333.82c0.76,-0.99 1.52,-1.97 2.28,-2.96 0.6,-0.79 1.6,-1.64 1.62,-2.66 0.01,-0.29 -0.31,-0.56 -0.6,-0.45 -0.99,0.35 -1.43,1.48 -1.99,2.31 -0.73,1.08 -1.46,2.17 -2.19,3.25 -0.38,0.56 0.49,1.02 0.88,0.51l0 0z"/>
    <path class="fil12" d="M128.19 278.83c1.26,0.1 2.49,0.41 3.63,0.97 0.86,0.42 1.62,1.23 2.56,1.41 0.25,0.05 0.54,-0.16 0.44,-0.44 -0.41,-1.12 -1.76,-1.69 -2.8,-2.12 -1.23,-0.51 -2.51,-0.76 -3.84,-0.82 -0.65,-0.03 -0.64,0.96 0,1.01l0 0z"/>
    <path class="fil12" d="M135.86 276.76c0.73,-0.15 1.46,0.01 2.08,0.42 0.56,0.37 0.86,0.96 1.3,1.44 0.24,0.26 0.63,0.04 0.65,-0.27 0.14,-2.04 -2.7,-2.93 -4.28,-2.49 -0.58,0.16 -0.33,1.02 0.25,0.9l0 0z"/>
    <path class="fil12" d="M143.04 272c0.66,0.32 1.29,0.72 1.81,1.24 0.43,0.42 0.67,0.94 1.31,0.96 0.19,0.01 0.36,-0.14 0.41,-0.31 0.41,-1.4 -2.14,-2.5 -3.16,-2.76 -0.5,-0.13 -0.87,0.63 -0.37,0.87l0 0z"/>
    <path class="fil12" d="M150.61 268.15c0.89,0.31 1.87,0.84 2.82,0.62 0.37,-0.09 0.42,-0.53 0.21,-0.79 -0.62,-0.73 -1.79,-0.89 -2.66,-1.17 -0.85,-0.28 -1.2,1.05 -0.37,1.34l0 0z"/>
    <path class="fil12" d="M58.85 346.31c3.43,-3.62 6.56,-7.5 10.02,-11.1 3.46,-3.6 7.24,-6.87 10.7,-10.46 0.35,-0.36 -0.16,-0.83 -0.54,-0.54 -7.61,5.92 -15.09,13.85 -20.68,21.72 -0.21,0.29 0.25,0.64 0.49,0.38l0 0z"/>
    <path class="fil12" d="M86.55 319.32c0.96,-0.6 1.89,-1.24 2.78,-1.95 0.86,-0.68 1.85,-1.4 2.43,-2.34 0.21,-0.34 -0.21,-0.77 -0.55,-0.55 -0.84,0.53 -1.52,1.33 -2.28,1.98 -0.9,0.76 -1.85,1.45 -2.83,2.09 -0.48,0.31 -0.04,1.09 0.46,0.78l0 0z"/>
    <path class="fil13" d="M280.74 98.4c-0.5,9.48 0.24,17.72 2.43,26.95 2.23,9.4 10.13,16.63 12.59,25.97 3.55,13.49 -3.43,11.61 -5.89,25.34 -10.37,-8.86 -23.52,-2.89 -37.17,-2.94 -9.46,-0.03 -19.33,4.46 -28.05,0.78 0.81,-7.16 1.62,-14.33 2.42,-21.49 0.45,-4.04 0.9,-8.18 -0.13,-12.11 -0.99,-3.74 -3.24,-6.99 -5.12,-10.38 -9.45,-17.05 -16.91,-37.69 -6.78,-54.34 17.81,-29.3 67.62,-14.48 65.69,22.22z"/>
    <path class="fil9" d="M199.57 210.14c0.65,-3.17 1.3,-6.33 1.95,-9.5 1.24,-6.04 2.47,-12.36 0.77,-18.29 -1.7,-5.92 -6.7,-13.69 -12.79,-12.71 -1.73,12.58 -2.96,27.8 -2.33,40.48 0.41,8.14 2.17,17.58 9.43,21.28 0.84,0.42 1.78,0.76 2.7,0.57 1.04,-0.22 1.82,-1.07 2.51,-1.89 17.52,-20.6 28.58,-46.61 31.27,-73.52 2.03,-20.27 -13.82,-21.32 -18.21,-2.68 -4.46,18.93 -6.44,38.64 -15.29,56.25z"/>
    <path class="fil14" d="M294.85 173.58c-1.27,6.71 -4.82,12.72 -7.85,18.84 -6.17,12.45 -4.73,8.24 -8.37,21.65 -7.17,26.49 2.83,30.42 -0.47,51.32 -2.67,16.88 -16.57,44.93 -81.33,48.2 -5.92,0.3 -4.39,-27.62 -8.81,-31.57 -14.88,-13.3 -27.29,-29.59 -25.51,-30.48 14.51,-7.25 22.64,-4.95 33.9,-9.59 12.93,-5.33 20.28,-8.25 22.32,-13.67 10.16,-27 -0.45,-57.84 3.25,-86.46 0,0 4.93,-2.1 11.28,-2.75 13.81,-1.41 35.92,-1.25 40.43,-0.64 8.62,1.18 21.25,1.31 23.06,3.71 5.5,7.29 -0.21,22.45 -1.91,31.43z"/>
    <path class="fil15" d="M192.09 208.66c0.79,0.21 1.55,0.47 2.28,0.82 0.56,0.27 1.12,0.79 1.76,0.74 0.21,-0.02 0.44,-0.22 0.34,-0.45 -0.28,-0.7 -1.06,-0.94 -1.71,-1.23 -0.78,-0.35 -1.58,-0.62 -2.41,-0.83 -0.62,-0.16 -0.88,0.79 -0.26,0.96l0 0z"/>
    <path class="fil15" d="M194.02 213.24c0.8,0.24 1.6,0.47 2.4,0.71 0.62,0.18 1.28,0.56 1.87,0.16 0.19,-0.13 0.24,-0.34 0.14,-0.55 -0.29,-0.64 -1.06,-0.67 -1.68,-0.83 -0.8,-0.22 -1.61,-0.43 -2.41,-0.65 -0.75,-0.2 -1.06,0.94 -0.32,1.16l0 0z"/>
    <path class="fil15" d="M195.99 217.06c1.03,0.29 2.13,0.75 3.22,0.68 0.37,-0.03 0.5,-0.48 0.19,-0.7 -0.9,-0.61 -2.08,-0.76 -3.12,-1.03 -0.68,-0.18 -0.96,0.86 -0.29,1.05l0 0z"/>
    <path class="fil16" d="M186.41 266.03c13.15,-3.3 25.69,-0.9 38.9,0.14 0.52,0.04 0.64,-0.81 0.12,-0.91 -12.71,-2.45 -26.61,-3.28 -39.22,0.07 -0.46,0.12 -0.26,0.82 0.19,0.71l0 0z"/>
    <path class="fil16" d="M203.54 258.8c4.82,-1.47 9.73,-2.51 14.76,-2.93 4.57,-0.38 9.14,0.33 13.67,-0 0.38,-0.03 0.48,-0.57 0.09,-0.68 -8.78,-2.61 -20.29,-0.01 -28.74,2.79 -0.52,0.17 -0.3,0.98 0.23,0.82l0 0z"/>
    <path class="fil16" d="M213.29 248.31c6.89,-1.89 14.09,-2.66 20.92,-4.61 0.48,-0.14 0.4,-0.9 -0.12,-0.89 -6.99,0.15 -14.41,2.51 -21.09,4.43 -0.69,0.2 -0.4,1.26 0.29,1.07l0 0z"/>
    <path class="fil17" d="M232.96 229.91c2.22,-0.46 4.44,-0.91 6.66,-1.4 0.49,-0.11 0.27,-0.8 -0.2,-0.73 -2.25,0.35 -4.49,0.73 -6.74,1.11 -0.66,0.11 -0.39,1.16 0.28,1.02l0 0z"/>
    <path class="fil16" d="M257.83 190c7.17,1.94 15.66,0.9 21.32,-4.25 0.36,-0.33 -0.11,-0.94 -0.52,-0.68 -6.48,4.07 -12.92,6.09 -20.58,4.15 -0.5,-0.13 -0.71,0.63 -0.21,0.77l0 0z"/>
    <path class="fil16" d="M264.35 183.87c3.82,-0.52 9.53,-2.04 11.87,-5.4 0.19,-0.28 -0.13,-0.73 -0.46,-0.6 -1.77,0.73 -3.23,2.08 -4.98,2.91 -2.14,1.02 -4.38,1.65 -6.73,2 -0.72,0.11 -0.41,1.18 0.3,1.08l0 0z"/>
    <path class="fil16" d="M270.62 175.31c0.76,-1.27 1.57,-2.51 2.05,-3.92 0.14,-0.4 -0.43,-0.73 -0.71,-0.41 -0.99,1.11 -1.67,2.42 -2.41,3.7 -0.4,0.69 0.66,1.32 1.07,0.63l0 0z"/>
    <path class="fil16" d="M210.78 287.91c3.86,3.4 7.87,6.78 13.18,7.36 5.78,0.63 11.58,-1.82 16.62,-4.42 0.54,-0.28 0.16,-1.25 -0.42,-1 -4.47,1.88 -9.05,4.26 -14.02,4.35 -5.92,0.11 -10.4,-3.26 -14.75,-6.89 -0.42,-0.35 -1.03,0.24 -0.61,0.61l0 0z"/>
    <path class="fil16" d="M232.82 284.75c4.89,-0.32 10.16,-0.89 14.76,-2.64 0.56,-0.22 0.35,-1.03 -0.25,-0.91 -4.87,0.96 -9.52,2.13 -14.51,2.48 -0.68,0.05 -0.69,1.12 0,1.07l0 0z"/>
    <path class="fil16" d="M251.55 273.04c2.31,-1.06 5.12,-1.95 7.12,-3.55 0.35,-0.28 -0.04,-0.76 -0.4,-0.69 -2.51,0.51 -5.02,2.13 -7.31,3.22 -0.69,0.33 -0.09,1.33 0.6,1.02l0 0z"/>
    <path class="fil16" d="M260.27 259.08c0.54,-0.7 1.09,-1.41 1.63,-2.12 0.5,-0.64 -0.61,-1.5 -1.13,-0.87 -0.57,0.69 -1.14,1.37 -1.71,2.06 -0.7,0.84 0.52,1.81 1.2,0.92l0 0z"/>
    <path class="fil16" d="M228.16 142.95c-0.56,4.24 -1.46,10.19 1.35,13.86 0.23,0.3 0.74,0.14 0.63,-0.27 -0.6,-2.43 -1.38,-4.46 -1.47,-7.02 -0.07,-2.19 0.12,-4.39 0.29,-6.57 0.04,-0.53 -0.74,-0.5 -0.81,0l0 0z"/>
    <path class="fil16" d="M229.48 159.11c0.35,0.74 0.58,1.69 1.28,2.17 0.24,0.16 0.54,-0.06 0.55,-0.32 0.02,-0.82 -0.65,-1.61 -1.04,-2.31 -0.29,-0.52 -1.04,-0.06 -0.79,0.46l0 0z"/>
    <path class="fil16" d="M253.62 171.14c1.89,-1.01 3.67,-2.2 5.3,-3.61 1.39,-1.2 3.14,-2.66 3.83,-4.39 0.06,-0.15 -0.15,-0.32 -0.29,-0.22 -1.43,1.07 -2.49,2.69 -3.83,3.91 -1.63,1.47 -3.42,2.71 -5.34,3.77 -0.35,0.2 -0.04,0.73 0.32,0.54l0 0z"/>
    <path class="fil16" d="M264.75 161.09c0.84,-0.9 1.89,-1.78 2.45,-2.89 0.13,-0.26 -0.14,-0.59 -0.42,-0.42 -1.06,0.64 -1.85,1.75 -2.68,2.66 -0.4,0.44 0.25,1.1 0.66,0.66l0 0z"/>
    <path class="fil16" d="M270.92 153.06c0.42,-0.64 0.78,-1.28 1.13,-1.96 0.16,-0.32 -0.26,-0.71 -0.52,-0.4 -0.52,0.6 -1,1.21 -1.45,1.87 -0.36,0.52 0.5,1.03 0.85,0.49l0 0z"/>
    <path class="fil9" d="M224.23 120.6c3.15,5 10.15,10.38 12.64,11.08 4.71,1.33 7.36,0.38 11.35,-0.99 5.65,-1.94 8.69,-7.97 10.83,-13.55 2.43,-6.33 4.48,-12.94 4.56,-19.72 0.08,-6.78 -2.03,-13.83 -6.9,-18.55 -2.79,-2.7 -6.32,-4.51 -9.92,-5.95 -35.55,-14.29 -34.92,28.03 -22.56,47.68z"/>
    <path class="fil9" d="M273.69 138.44c-1.6,-0.12 -8.79,-2.58 -10.08,-3.76 -4.44,-4.04 -7.06,-13.05 -7.84,-18.33l-2.43 3.26c-2.17,-0.73 -4.42,-1.47 -6.7,-1.22 -2.28,0.25 -4.58,1.77 -4.97,4.02 -0.18,1.04 0.06,2.1 0.31,3.12 1.04,4.24 2.47,6.21 1.79,10.12 -0.28,1.62 -10.52,3.42 -10.52,3.42 -7.56,12.75 6.71,34.03 7.57,33.68 10.3,-4.19 19.75,-11.44 23.94,-17.3 1.25,-1.75 11.08,-16.86 8.93,-17.02z"/>
    <path class="fil13" d="M226.71 96.79c0.98,-3.97 1.97,-7.94 2.95,-11.9 -2.03,4.77 0.42,10.96 5.17,13.05 2.01,0.88 4.67,0.94 6.1,-0.72 0.6,-0.7 0.9,-1.6 1.14,-2.49 0.76,-2.82 1.08,-5.75 0.94,-8.66 -1.01,3.9 1.1,8.37 4.75,10.06 1.44,-2.32 2.89,-4.63 4.33,-6.95 0.35,8.1 5.34,13.47 8.77,20.82 0.98,2.1 10.78,-3.98 11.44,-5.58 5.15,-12.4 5.89,-16.68 -0.56,-28.46 -2.05,-3.74 -7.25,-7.14 -10.67,-9.68 -10.48,-7.78 -30.01,-7.55 -40.48,3.76 -3.58,3.87 -7.64,9.84 -8.68,14.84 -2.29,11.04 3.94,9.69 14.79,11.92z"/>
    <path class="fil9" d="M257.96 100.69c1.89,-1.81 5.37,-1.93 6.95,0.16 0.87,1.15 1.03,2.67 1.08,4.11 0.06,1.79 -0.01,3.64 -0.71,5.3 -3.74,8.88 -14.45,-2.72 -7.32,-9.56z"/>
    <path class="fil18" d="M220.09 103.78c-0.2,-2.58 4.83,-1.15 6.26,-1.49 0.28,-0.07 0.24,-0.44 0,-0.53 -0.8,-0.28 -1.64,-0.24 -2.49,-0.27 -0.84,-0.03 -1.74,-0.14 -2.58,0.04 -1.11,0.24 -1.99,1.05 -1.87,2.25 0.05,0.42 0.7,0.43 0.67,0l0 0z"/>
    <path class="fil18" d="M237.46 101.81c0.55,-1.02 2.68,-0.61 3.64,-0.59 1.03,0.03 2.1,0.18 3.11,-0.07 0.31,-0.08 0.28,-0.51 0,-0.6 -1.52,-0.5 -3.54,-0.3 -5.13,-0.22 -0.93,0.05 -1.84,0.2 -2.29,1.09 -0.22,0.44 0.43,0.83 0.67,0.39l0 0z"/>
    <path class="fil18" d="M223.03 107.62c-0.26,1.33 0.32,2.51 1.46,3.22 0.32,0.2 0.82,0.02 0.9,-0.37 0.23,-1.13 0.1,-2.62 -0.76,-3.5 -0.64,-0.65 -1.74,-0.4 -1.75,0.6 -0,0.32 0.27,0.58 0.59,0.59 0.03,0 0.05,0 0.08,0 0.22,0.01 0.4,-0.15 0.46,-0.35 0.04,-0.11 0.08,-0.48 -0.05,-0.05 -0.11,0.35 0.05,0.4 0.16,0.8 0.15,0.51 0.17,1.06 0.09,1.59 0.3,-0.12 0.6,-0.24 0.9,-0.37 -0.75,-0.42 -1.14,-1.18 -1.14,-2.03 -0,-0.52 -0.83,-0.67 -0.94,-0.13l0 0z"/>
    <path class="fil18" d="M240.01 106.22c-0.55,1.19 -0.21,2.56 0.9,3.28 0.33,0.21 0.78,-0 0.88,-0.36 0.48,-1.65 -0.24,-3.22 -1.69,-4.08 -0.23,-0.14 -0.62,-0.07 -0.74,0.19 -0.73,1.6 -0.2,3.5 1.41,4.32 0.76,0.38 1.43,-0.75 0.67,-1.14 -1.02,-0.52 -1.5,-1.69 -1.09,-2.76 -0.26,0.11 -0.53,0.22 -0.79,0.32 0.96,0.56 1.37,1.79 1.08,2.83 0.29,-0.12 0.59,-0.24 0.88,-0.36 -0.7,-0.43 -1.1,-1.17 -0.92,-2 0.07,-0.33 -0.43,-0.6 -0.59,-0.25l0 0z"/>
    <path class="fil18" d="M231.65 107.27c0.21,2.28 0.13,4.01 -0.8,6.15 -0.41,0.95 -0.92,1.97 -0.56,3.02 0.4,1.18 2.61,2.57 3.31,0.98 0.11,-0.25 -0.02,-0.51 -0.31,-0.53 -1.18,-0.08 -1.89,-0.45 -1.84,-1.97 0.02,-0.7 0.75,-1.79 0.93,-2.47 0.46,-1.7 0.29,-3.45 0.08,-5.18 -0.06,-0.51 -0.86,-0.53 -0.81,0l0 0z"/>
    <path class="fil18" d="M232.79 122.38c2.04,1.36 4.49,2.25 6.9,1.31 1.52,-0.59 3.44,-2.22 2.99,-4.02 -0.07,-0.28 -0.44,-0.29 -0.58,-0.08 -0.98,1.44 -1.39,2.77 -3.24,3.32 -1.95,0.58 -4.03,-0.18 -5.72,-1.12 -0.39,-0.22 -0.71,0.35 -0.34,0.59l0 0z"/>
    <path class="fil10" d="M246.75 132c2.55,-0.36 6.5,-1.53 7.88,-3.94 0.14,-0.25 -0.13,-0.48 -0.37,-0.37 -1.22,0.58 -2.2,1.63 -3.42,2.26 -1.35,0.69 -2.77,1.15 -4.26,1.42 -0.42,0.07 -0.23,0.69 0.17,0.63l0 0z"/>
    <path class="fil10" d="M236.72 143.12c1.32,0.25 2.65,0.49 3.97,0.72 0.5,0.09 1.07,0.14 1.54,0.34 0.54,0.24 0.79,0.65 1.22,1.01 0.27,0.23 0.68,0.15 0.79,-0.21 0.81,-2.67 -5.87,-2.78 -7.21,-2.96 -0.71,-0.1 -1.04,0.96 -0.3,1.1l0 0z"/>
    <path class="fil10" d="M250.43 146c2.94,-1.29 5.74,-1.44 8.86,-1.88 0.37,-0.05 0.37,-0.69 0,-0.74 -3.08,-0.45 -6.47,0.7 -9.21,2.01 -0.41,0.2 -0.05,0.79 0.35,0.61l0 0z"/>
    <path class="fil10" d="M260.09 106.6c-0.08,-0.7 0.68,-0.69 1.09,-0.37 0.35,0.27 0.61,0.75 0.76,1.16 0.11,0.31 0.18,0.69 0.09,1.01 -0.09,0.31 -0.32,0.46 -0.5,0.72 -0.18,0.27 0.02,0.61 0.28,0.7 0.85,0.28 1.46,-0.6 1.57,-1.34 0.14,-0.93 -0.17,-1.87 -0.72,-2.61 -0.56,-0.76 -1.47,-1.42 -2.47,-1.16 -0.91,0.24 -1.57,1.12 -1.25,2.05 0.2,0.57 1.23,0.54 1.14,-0.16l0 0z"/>
    <path class="fil10" d="M259.7 105.59c-0.27,-0.62 -0.58,-1.53 -0.21,-2.18 0.28,-0.48 0.95,-0.74 1.42,-0.37 0.57,0.45 1.24,-0.22 0.79,-0.8 -0.72,-0.92 -2.16,-0.63 -2.87,0.16 -0.92,1.03 -0.52,2.56 0.16,3.59 0.29,0.44 0.91,0.06 0.7,-0.41l0 0z"/>
    <path class="fil19" d="M219.48 89.2c0.07,-2.71 0.44,-5.38 1.25,-7.97 0.71,-2.3 1.94,-4.35 2.8,-6.58 0.12,-0.31 -0.36,-0.58 -0.57,-0.33 -3.28,3.91 -4.33,9.92 -4.44,14.88 -0.02,0.62 0.94,0.61 0.95,0l0 0z"/>
    <path class="fil19" d="M222.64 90.45c0.27,-5.67 2.59,-9.41 5.41,-14.09 0.21,-0.35 -0.26,-0.67 -0.54,-0.42 -3.91,3.42 -5.5,9.52 -5.65,14.51 -0.01,0.51 0.76,0.5 0.79,0l0 0z"/>
    <path class="fil19" d="M233.39 77.4c-0.89,3.71 -1.62,8.5 -0.08,12.11 0.19,0.45 0.87,0.19 0.88,-0.24 0.03,-1.82 -0.43,-3.62 -0.47,-5.46 -0.04,-2.08 0.17,-4.12 0.58,-6.17 0.12,-0.59 -0.77,-0.85 -0.91,-0.25l0 0z"/>
    <path class="fil19" d="M241.23 74.45c-1.18,3.69 -1.87,8.46 -0.23,12.11 0.2,0.45 0.96,0.23 0.93,-0.25 -0.13,-1.83 -0.6,-3.61 -0.61,-5.46 -0.01,-2.1 0.33,-4.12 0.93,-6.13 0.19,-0.65 -0.8,-0.92 -1.01,-0.28l0 0z"/>
    <path class="fil19" d="M245.64 75.53c0.42,2.99 0.51,6.3 1.5,9.15 0.13,0.39 0.7,0.33 0.72,-0.1 0.12,-3.07 -0.78,-6.31 -1.26,-9.32 -0.1,-0.63 -1.04,-0.36 -0.96,0.26l0 0z"/>
    <path class="fil19" d="M254.41 77.25c1.57,1.98 2.86,4.13 3.76,6.49 0.67,1.73 0.84,3.65 1.67,5.29 0.2,0.41 0.74,0.16 0.78,-0.21 0.44,-4.15 -3.07,-9.17 -5.63,-12.15 -0.35,-0.41 -0.9,0.18 -0.58,0.58l0 0z"/>
    <path class="fil19" d="M260.43 74.8c1.33,2.17 2.65,4.33 3.98,6.49 1.16,1.89 2.17,4.08 3.74,5.66 0.29,0.29 0.86,-0 0.72,-0.42 -0.72,-2.11 -2.23,-3.97 -3.42,-5.85 -1.36,-2.15 -2.72,-4.29 -4.08,-6.44 -0.38,-0.6 -1.32,-0.05 -0.95,0.55l0 0z"/>
    <path class="fil19" d="M265.57 74.45c1.62,2.02 3.12,4.13 4.43,6.36 1.19,2.01 2.03,4.24 3.29,6.19 0.32,0.5 1.15,0.19 0.98,-0.41 -1.28,-4.68 -4.92,-9.17 -8.03,-12.8 -0.4,-0.47 -1.05,0.2 -0.67,0.67l0 0z"/>
    <path class="fil19" d="M274.18 95.06c-0.13,5.87 0.13,11.72 0.91,17.55 0.75,5.6 1.55,11.9 3.99,17.05 0.16,0.34 0.8,0.19 0.74,-0.2 -0.7,-5.25 -2.45,-10.36 -3.29,-15.61 -0.99,-6.21 -1.43,-12.49 -1.46,-18.78 -0,-0.57 -0.88,-0.57 -0.89,0l0 0z"/>
    <path class="fil19" d="M270.62 103.44c-1.09,9.84 -0.76,21.85 3.81,30.88 0.27,0.53 1.05,0.15 0.92,-0.39 -1.25,-5.28 -3.08,-10.25 -3.74,-15.69 -0.61,-4.92 -0.61,-9.86 -0.15,-14.8 0.05,-0.54 -0.78,-0.53 -0.84,0l0 0z"/>
    <path class="fil19" d="M268.94 119.27c0.04,-0.05 0.08,-0.1 0.13,-0.15 0.11,-0.14 0.15,-0.36 0,-0.5 -0.06,-0.06 -0.13,-0.12 -0.2,-0.18 -0.15,-0.14 -0.4,-0.16 -0.55,0 -1.11,1.2 -0.01,4.12 0.25,5.62 0.56,3.3 1.02,7.23 2.71,10.15 0.19,0.33 0.78,0.21 0.75,-0.21 -0.14,-2.33 -1.05,-4.6 -1.59,-6.87 -0.27,-1.13 -0.51,-2.25 -0.74,-3.39 -0.15,-0.76 -0.3,-1.51 -0.45,-2.26 -0.08,-0.91 -0.36,-1.75 -0.85,-2.53 -0.12,0.29 0.34,0.55 0.53,0.31l0 0z"/>
    <path class="fil19" d="M263.68 120.17c-0.04,3.17 0.42,8.24 2.98,10.47 0.37,0.32 0.91,0.01 0.81,-0.47 -0.32,-1.59 -1.35,-3 -1.83,-4.57 -0.54,-1.77 -0.78,-3.58 -0.81,-5.43 -0.01,-0.73 -1.13,-0.73 -1.14,0l0 0z"/>
    <path class="fil19" d="M222.84 123.3c2.38,4.46 4.51,9.3 7.33,13.5 0.36,0.53 1.08,0.07 0.84,-0.49 -2.01,-4.65 -4.91,-9.06 -7.37,-13.48 -0.29,-0.52 -1.08,-0.06 -0.8,0.47l0 0z"/>
    <path class="fil19" d="M231.94 132.77c0.69,0.85 1.33,1.91 2.33,2.43 0.32,0.17 0.75,-0.11 0.63,-0.49 -0.34,-1.13 -1.3,-1.98 -2.05,-2.86 -0.55,-0.64 -1.43,0.28 -0.92,0.92l0 0z"/>
    <path class="fil20" d="M242.45 115.04c1.12,-0.05 2.43,0.06 3.5,-0.29 1.87,-0.6 1.57,-3.45 -0.47,-3.47 -1.14,-0.01 -2.34,0.47 -3.44,0.75 -1.64,0.43 -1.34,3.09 0.41,3.01l0 0z"/>
    <path class="fil20" d="M224.03 116.91c1.07,0.08 2.18,0.34 3.14,-0.27 0.81,-0.51 0.81,-1.66 0,-2.17 -0.96,-0.61 -2.08,-0.35 -3.14,-0.27 -1.74,0.13 -1.74,2.57 0,2.71l0 0z"/>
    <path class="fil21" d="M248.99 154.34c-13.8,6.53 -24.96,10.6 -38.9,17.02 -6.15,-9.21 -11.42,-18.41 -16.81,-25.53 -1.06,18 -1.45,35.02 -0.81,52.34 5,8.22 8.4,17.83 16.69,27.82 13.48,-4.15 22.37,-9.38 35.04,-14.17 0,0 5.27,-47.43 4.79,-57.48z"/>
    <path class="fil9" d="M286.25 185.91c3.56,14.17 4.95,14.29 2.34,31.3 -9.87,-12.08 -30.61,-21.57 -36.1,-26.87 -3.8,-3.67 3.41,-11.44 -3.46,-18.41 -2.21,-2.24 0,10.6 -7.41,9.77 -3.13,-0.35 -15.03,-0.21 -18.14,0.28 -10.6,1.67 -4.14,5.45 -2.88,9.72 0.92,3.13 17.91,7.55 20.33,9.73 13.86,12.49 27.73,24.98 41.59,37.47 3.33,3 8.44,4.74 12.93,4.74 17,0 15.36,-61.94 11.21,-85 -1.83,-10.14 -12.92,-25.24 -23.09,-16 -10.03,9.12 0.01,32.63 2.69,43.28z"/>
    <path class="fil9" d="M192.85 164.53c-0.06,-1.81 -1.16,-4.37 -2.72,-4.6 -0.67,2.7 1.1,6.5 -0.67,9.7 -4.44,8.03 -3.4,16.28 5.04,19.59 5.28,2.07 10,-11.16 2.75,-15.35 -2.94,-1.7 -3.5,-3.52 -3.7,-4.84 -0.49,-3.26 -0.59,-1.22 -0.7,-4.51z"/>
    <path class="fil15" d="M289.59 219.69c0.42,0.91 1.06,1.73 1.64,2.55 0.44,0.62 0.83,1.64 1.72,1.56 0.26,-0.02 0.42,-0.16 0.52,-0.39 0.34,-0.84 -0.61,-1.6 -1.08,-2.21 -0.58,-0.76 -1.15,-1.57 -1.86,-2.22 -0.51,-0.47 -1.2,0.11 -0.92,0.71l0 0z"/>
    <path class="fil15" d="M290.97 214.85c0.92,0.71 1.85,1.43 2.79,2.13 0.8,0.6 1.7,1.56 2.71,1.7 0.43,0.06 0.77,-0.32 0.56,-0.73 -0.44,-0.91 -1.62,-1.45 -2.43,-2.01 -1.01,-0.7 -2.04,-1.38 -3.06,-2.07 -0.62,-0.42 -1.14,0.55 -0.58,0.98l0 0z"/>
    <path class="fil15" d="M291.87 211.38c0.81,0.46 1.61,0.91 2.43,1.34 0.7,0.36 1.4,0.89 2.22,0.81 0.35,-0.04 0.64,-0.4 0.42,-0.74 -0.47,-0.74 -1.34,-0.98 -2.11,-1.33 -0.84,-0.38 -1.69,-0.73 -2.54,-1.08 -0.58,-0.24 -0.95,0.7 -0.42,1l0 0z"/>
    <path class="fil15" d="M292.95 205.19c0.71,0 1.25,0.41 1.92,0.1 0.19,-0.09 0.29,-0.37 0.23,-0.57 -0.31,-0.96 -1.48,-0.87 -2.32,-0.75 -0.71,0.09 -0.52,1.22 0.16,1.22l0 0z"/>
    <path class="fil15" d="M190.53 181.43c0.94,0.87 1.94,1.67 3.02,2.37 0.95,0.62 2.01,1.39 3.15,1.54 0.28,0.04 0.42,-0.37 0.23,-0.55 -0.77,-0.71 -1.87,-1.09 -2.76,-1.65 -1.08,-0.68 -2.08,-1.46 -3.02,-2.32 -0.41,-0.37 -1.02,0.23 -0.61,0.61l0 0z"/>
    <path class="fil15" d="M192.15 179.24c0.97,0.8 1.93,1.61 2.9,2.4 0.75,0.62 1.48,1.48 2.47,1.61 0.28,0.03 0.53,-0.32 0.44,-0.57 -0.35,-0.93 -1.38,-1.43 -2.16,-2.01 -1.01,-0.75 -2.02,-1.49 -3.03,-2.24 -0.47,-0.35 -1.08,0.44 -0.63,0.81l0 0z"/>
    <path class="fil15" d="M193.06 175.47c0.91,0.62 1.77,1.3 2.59,2.04 0.62,0.56 1.28,1.58 2.13,1.7 0.24,0.03 0.56,-0.1 0.53,-0.41 -0.09,-0.99 -1.2,-1.68 -1.92,-2.26 -0.89,-0.72 -1.82,-1.39 -2.8,-1.99 -0.58,-0.37 -1.09,0.53 -0.53,0.91l0 0z"/>
    <path class="fil15" d="M221.41 186.01c3.05,1.25 8.25,0.87 11.03,-0.94 0.51,-0.33 0.17,-1.03 -0.4,-0.94 -1.87,0.3 -3.58,1.02 -5.49,1.2 -1.69,0.16 -3.37,-0.06 -5.05,0.03 -0.39,0.02 -0.43,0.52 -0.09,0.66l0 0z"/>
    <path class="fil15" d="M223.35 188.27c2.82,0.99 6.7,2.5 9.72,1.96 0.49,-0.09 0.35,-0.71 0,-0.86 -1.46,-0.61 -3.19,-0.57 -4.75,-0.88 -1.59,-0.31 -3.16,-0.69 -4.72,-1.13 -0.59,-0.17 -0.82,0.71 -0.25,0.91l0 0z"/>
    <path class="fil15" d="M224.2 191.54c1.01,0.18 2.01,0.41 3,0.7 0.89,0.26 1.75,0.64 2.67,0.75 0.42,0.05 0.47,-0.53 0.19,-0.72 -1.51,-1.04 -3.87,-1.31 -5.64,-1.58 -0.55,-0.08 -0.8,0.76 -0.24,0.86l0 0z"/>
    <path class="fil1" d="M209.49 225.99c0.73,-18.15 1.18,-36.46 1.19,-54.63 0,-0.75 -1.13,-0.74 -1.16,0 -0.97,18.1 -1.03,36.51 -0.68,54.63 0.01,0.42 0.64,0.42 0.65,0l0 0z"/>
    <path class="fil1" d="M217.98 177.82c7.4,-2.28 15.69,-4.82 22.35,-8.81 0.34,-0.2 0.12,-0.76 -0.27,-0.64 -7.5,2.19 -14.99,5.82 -22.3,8.65 -0.49,0.19 -0.3,0.97 0.22,0.81l0 0z"/>
    <path class="fil1" d="M226.09 178.99c1.37,-0.4 2.71,-0.84 4.02,-1.38 1.05,-0.43 2.22,-0.81 3.06,-1.58 0.25,-0.23 -0.02,-0.59 -0.31,-0.53 -1.15,0.22 -2.21,0.9 -3.28,1.35 -1.21,0.52 -2.44,1 -3.68,1.45 -0.43,0.15 -0.26,0.83 0.19,0.7l0 0z"/>
    <path class="fil1" d="M231.67 179.01c0.61,-0.18 1.31,-0.27 1.79,-0.72 0.21,-0.2 0.03,-0.5 -0.22,-0.52 -0.6,-0.06 -1.22,0.29 -1.77,0.5 -0.46,0.17 -0.28,0.89 0.21,0.74l0 0z"/>
    <path class="fil1" d="M220.79 205.24c2.98,-0.82 5.98,-1.58 8.92,-2.52 0.47,-0.15 0.28,-0.86 -0.2,-0.74 -3,0.73 -5.96,1.65 -8.93,2.5 -0.49,0.14 -0.29,0.91 0.21,0.77l0 0z"/>
    <path class="fil1" d="M222.3 210.81c3.15,-1.53 6.63,-2.4 9.74,-3.96 0.44,-0.22 0.1,-0.8 -0.31,-0.74 -3.35,0.51 -6.86,2.44 -9.86,3.97 -0.49,0.25 -0.06,0.97 0.43,0.73l0 0z"/>
    <path class="fil1" d="M223.03 214.45c2.02,-0.32 4.18,-0.49 6.12,-1.15 0.38,-0.13 0.33,-0.72 -0.1,-0.72 -2.09,0.01 -4.23,0.56 -6.28,0.92 -0.62,0.11 -0.36,1.04 0.26,0.95l0 0z"/>
    <path class="fil1" d="M195.06 197.71c1.44,1.98 2.89,3.97 4.36,5.94 1.3,1.74 2.5,3.75 4.11,5.21 0.37,0.33 0.9,-0.08 0.68,-0.52 -0.99,-1.94 -2.63,-3.61 -3.97,-5.32 -1.52,-1.93 -3.06,-3.84 -4.6,-5.75 -0.26,-0.32 -0.82,0.11 -0.57,0.44l0 0z"/>
    <path class="fil1" d="M197.97 194.19c0.62,1.16 1.32,2.26 2.12,3.3 0.61,0.79 1.3,1.91 2.31,2.18 0.27,0.07 0.54,-0.18 0.46,-0.46 -0.29,-0.96 -1.27,-1.64 -1.9,-2.39 -0.81,-0.97 -1.52,-2.01 -2.16,-3.11 -0.31,-0.54 -1.13,-0.06 -0.84,0.49l0 0z"/>
    <path class="fil1" d="M200.96 193.88c0.49,0.49 0.97,1.06 1.6,1.38 0.48,0.24 0.97,-0.24 0.73,-0.72 -0.31,-0.63 -0.88,-1.12 -1.38,-1.6 -0.62,-0.61 -1.56,0.33 -0.95,0.95l0 0z"/>
    <path class="fil1" d="M197.2 162.27c0.34,1.77 1.65,3.42 2.55,4.96 0.94,1.61 1.8,3.32 3.01,4.76 0.32,0.38 1.04,-0.03 0.85,-0.5 -0.7,-1.74 -1.81,-3.3 -2.8,-4.89 -0.95,-1.52 -1.79,-3.45 -3.2,-4.58 -0.19,-0.15 -0.46,-0.01 -0.42,0.24l0 0z"/>
    <path class="fil1" d="M195.42 167.44c1.21,1.76 2.38,3.56 3.65,5.27 0.45,0.6 1.47,0.04 1.03,-0.6 -1.23,-1.75 -2.57,-3.44 -3.86,-5.15 -0.36,-0.48 -1.18,-0.03 -0.82,0.48l0 0z"/>
    <path class="fil10" d="M188.54 184.59c0.38,0.82 0.88,1.61 1.53,2.25 0.49,0.47 1.29,1.32 2.01,1.24 0.2,-0.02 0.33,-0.21 0.23,-0.4 -0.31,-0.6 -1.22,-0.9 -1.73,-1.35 -0.66,-0.57 -1.22,-1.2 -1.69,-1.95 -0.15,-0.23 -0.47,-0.03 -0.36,0.21l0 0z"/>
   </g>
  </g>
 </g>
</svg>
