<?xml version="1.0" encoding="UTF-8"?>
<!DOCTYPE svg PUBLIC "-//W3C//DTD SVG 1.1//EN" "http://www.w3.org/Graphics/SVG/1.1/DTD/svg11.dtd">
<!-- Creator: CorelDRAW 2018 (64-Bit) -->
<svg xmlns="http://www.w3.org/2000/svg" xml:space="preserve" width="1.95158in" height="1.5708in" version="1.1" style="shape-rendering:geometricPrecision; text-rendering:geometricPrecision; image-rendering:optimizeQuality; fill-rule:evenodd; clip-rule:evenodd"
viewBox="0 0 15381.49 12380.3"
 xmlns:xlink="http://www.w3.org/1999/xlink">
 <defs>
  <style type="text/css">
   <![CDATA[
    .fil1 {fill:#3C4180}
    .fil0 {fill:#C3E2F5;fill-rule:nonzero}
   ]]>
  </style>
 </defs>
 <g id="Layer_x0020_1">
  <metadata id="CorelCorpID_0Corel-Layer"/>
  <g id="_1607340889520">
   <path class="fil0" d="M13132.39 6190.15c0,3418.7 -2771.45,6190.15 -6190.15,6190.15 -3418.76,0 -6190.18,-2771.45 -6190.18,-6190.15 0,-3418.7 2771.42,-6190.15 6190.18,-6190.15 3418.7,0 6190.15,2771.45 6190.15,6190.15z"/>
   <g>
    <path class="fil1" d="M11078.76 1954.9l0 0c517.48,138.64 827.5,674.68 688.8,1192.16l-293.76 1095.81c-138.83,517.02 -675.36,826.79 -1193.09,688.15l0 0c-517.73,-138.7 -827.44,-674.96 -689.26,-1191.94l294.44 -1096.09c138.67,-517.2 675.39,-826.72 1192.88,-688.08z"/>
    <path class="fil1" d="M11149.97 2278.51c0,0 686,-555.56 1097.02,-518.2 410.55,37.36 -384.71,999.25 -602.07,1216.15 -218.11,217.15 -494.95,-697.95 -494.95,-697.95z"/>
    <path class="fil1" d="M10855.53 2199.79c0,0 -316.29,-824.18 -691.12,-996.92 -373.94,-172.71 -167.16,1057.28 -87.22,1354.11 80.34,296.58 778.35,-357.18 778.35,-357.18z"/>
    <path class="fil1" d="M11426.1 2526.41l359.32 543.11c0,0 -108.6,524.53 320.35,711.85 428.4,187.05 1321.37,-110.47 1806.21,-618.98 483.91,-508.08 194.12,-832.43 194.12,-832.43 0,0 504.36,121.02 857.54,751.82 353.46,630.99 776.21,1976.81 -105.04,3422.86 0,0 -108.14,-841.09 -853.1,-1040.43 -744.96,-199.49 -1479.34,212.93 -1479.34,212.93 0,0 -553.23,-1076.33 -1519.74,-1044.8 -966.33,31.22 419.68,-2105.92 419.68,-2105.92z"/>
    <path class="fil1" d="M10488.94 2275.19l-582.83 291.43c0,0 -168.27,508.3 -633.38,456.14 -464.83,-52.16 -1089.42,-755.76 -1254.62,-1437.98 -165.3,-682 248.33,-817.85 248.33,-817.85 0,0 -497.22,-147.33 -1119.09,222.58 -621.59,369.91 -1661.24,1324.25 -1622.02,3016.77 0,0 514.94,-674.49 1259.43,-474.97 744.96,199.3 1174.78,923.35 1174.78,923.35 0,0 1017.81,-655.44 1838.91,-145.68 821.11,509.66 690.47,-2033.78 690.47,-2033.78z"/>
    <path class="fil1" d="M10586.65 3789.84l0 0c120.8,32.43 193.19,157.41 160.76,278.43l-326.15 1217.14c-32.46,120.98 -157.94,193.13 -278.74,160.73l0 0c-120.83,-32.43 -193.16,-157.48 -160.73,-278.49l326.15 -1217.08c32.18,-121.05 157.94,-193.19 278.71,-160.73z"/>
   </g>
   <g>
    <path class="fil1" d="M2554.74 6908.11l0 0c313.03,-102.18 652.55,69.91 754.7,382.97l216.28 662.98c101.93,312.87 -70.5,652.4 -383.68,754.67l0 0c-313.18,102.24 -652.59,-70.07 -754.86,-382.72l-216.03 -663.32c-102.09,-312.93 70.56,-652.4 383.59,-754.58z"/>
    <path class="fil1" d="M2699.99 7050.91c0,0 166.97,-516.27 391.19,-634.9 224,-118.5 137.06,643.71 97.87,828.34 -39.5,185.03 -489.06,-193.44 -489.06,-193.44z"/>
    <path class="fil1" d="M2521.91 7109.12c0,0 -439.38,-318.4 -690.41,-281.63 -250.53,36.46 268.59,600.64 409.34,726.72 140.87,125.79 281.07,-445.09 281.07,-445.09z"/>
    <path class="fil1" d="M2925.36 7085.98l367.27 159.18c0,0 120.02,306.6 403.79,259.19 283.43,-47.35 643.56,-500.14 722.68,-924.72 78.82,-424.02 -179.26,-493.9 -179.26,-493.9 0,0 300.4,-106.84 693.92,99.57 393.74,206.44 1062.92,757.84 1094.11,1798.26 0,0 -337.85,-396.96 -788.4,-249.73 -450.64,147.14 -690.54,605.92 -690.54,605.92 0,0 -646.04,-368.79 -1133.3,-28.33 -487.23,340.27 -490.27,-1225.46 -490.27,-1225.46z"/>
    <path class="fil1" d="M2358.38 7270.94l-202.41 345.64c0,0 83.81,318.24 -173.24,447.39 -256.93,129.08 -814.65,-23.8 -1128.61,-319.76 -313.9,-295.84 -146.43,-504.54 -146.43,-504.54 0,0 -305.55,90.89 -501.75,490.02 -196.08,399.04 -411.42,1239.39 176.56,2097.98 0,0 38.94,-520.15 489.34,-667.14 450.58,-147.24 914.85,81.52 914.85,81.52 0,0 304.37,-679.05 898.31,-691.93 593.91,-12.94 -326.62,-1279.17 -326.62,-1279.17z"/>
    <path class="fil1" d="M2916.82 8018.33l0 0c73.07,-23.83 152.29,16.26 176.19,89.49l240.33 736.3c23.86,73.2 -16.57,152.48 -89.64,176.31l0 0c-73.11,23.83 -152.32,-16.32 -176.22,-89.55l-240.29 -736.27c-24.02,-73.14 16.54,-152.48 89.64,-176.28z"/>
   </g>
   <g>
    <path class="fil1" d="M6863.59 9365.6l0 0c166.07,-20.98 319.08,97.53 340.05,263.63l44.37 351.75c20.88,165.98 -97.77,318.95 -263.94,339.96l0 0c-166.2,21.01 -319.11,-97.59 -340.18,-263.47l-44.22 -351.94c-20.95,-166.01 97.81,-318.92 263.91,-339.93z"/>
    <path class="fil1" d="M6922.39 9450.84c0,0 132.9,-241.75 256.24,-279.48 123.19,-37.64 6.67,334.56 -30.63,423 -37.45,88.59 -225.62,-143.51 -225.62,-143.51z"/>
    <path class="fil1" d="M6827.9 9462.82c0,0 -188.82,-201.13 -317.68,-206.84 -128.59,-5.83 76.46,325.66 134.64,402.11 58.27,76.3 183.04,-195.27 183.04,-195.27z"/>
    <path class="fil1" d="M7031.55 9489.97l168.09 114.72c0,0 30.53,164.58 176.75,168.15 146.06,3.54 369.32,-187.98 449.53,-392.37 80.03,-204.14 -42.11,-263.78 -42.11,-263.78 0,0 160.21,-24.51 336.89,116.27 176.78,140.84 458,480.34 373.75,1002.79 0,0 -130.6,-230.58 -369.69,-200.3 -239.08,30.22 -402.89,236.26 -402.89,236.26 0,0 -287.15,-246.1 -563.1,-122.85 -275.92,123.13 -127.22,-658.88 -127.22,-658.88z"/>
    <path class="fil1" d="M6730.75 9527.92l-134.23 153.16c0,0 11.33,166.91 -129.42,206.75 -140.66,39.78 -404.44,-90.05 -532.78,-267.94 -128.37,-177.8 -24.73,-265.96 -24.73,-265.96 0,0 -161.26,16.07 -297.51,196.54 -136.16,180.41 -324.32,579.29 -113.13,1064.38 0,0 69.38,-255.96 308.34,-286.12 239.08,-30.28 448.94,128.46 448.94,128.46 0,0 217.11,-309.83 514.88,-259.28 297.76,50.52 -40.34,-669.99 -40.34,-669.99z"/>
    <path class="fil1" d="M6937.84 9954.64l0 0c38.79,-4.87 74.5,22.74 79.41,61.59l49.34 390.66c4.9,38.85 -22.9,74.53 -61.69,79.44l0 0c-38.79,4.87 -74.47,-22.78 -79.37,-61.63l-49.34 -390.66c-5,-38.82 22.9,-74.53 61.66,-79.41z"/>
   </g>
  </g>
 </g>
</svg>
