<?xml version="1.0" encoding="UTF-8"?>
<!DOCTYPE svg PUBLIC "-//W3C//DTD SVG 1.1//EN" "http://www.w3.org/Graphics/SVG/1.1/DTD/svg11.dtd">
<!-- Creator: CorelDRAW 2018 (64-Bit) -->
<svg xmlns="http://www.w3.org/2000/svg" xml:space="preserve" width="0.634079in" height="0.514335in" version="1.1" style="shape-rendering:geometricPrecision; text-rendering:geometricPrecision; image-rendering:optimizeQuality; fill-rule:evenodd; clip-rule:evenodd"
viewBox="0 0 8.37 6.79"
 xmlns:xlink="http://www.w3.org/1999/xlink">
 <defs>
  <style type="text/css">
   <![CDATA[
    .fil0 {fill:#5C67AE}
   ]]>
  </style>
 </defs>
 <g id="Layer_x0020_1">
  <metadata id="CorelCorpID_0Corel-Layer"/>
  <polygon id="YO" class="fil0" points="8.37,6.79 8.28,6.08 8.25,6.08 8.15,6.08 8.06,6.11 7.97,6.14 7.87,6.04 7.84,5.92 7.81,4.09 7.78,3.81 7.75,3.32 7.75,3.19 7.72,3.1 7.63,2.98 7.41,2.85 6.91,2.82 6.7,2.73 6.32,2.76 6.11,2.73 5.52,2.73 5.11,2.63 4.77,2.36 4.62,2.08 4.46,1.7 4.09,0.09 4.06,0 3.78,0.28 2.63,1.15 2.51,1.27 2.29,1.52 2.2,1.61 2.17,1.61 2.14,1.49 2.11,1.24 2.08,1.15 2.05,1.15 1.95,1.18 1.92,1.18 1.83,1.18 1.18,1.09 0.93,1.21 0.9,1.3 0.87,1.43 0.87,1.71 0.84,1.92 0.74,2.08 0.22,2.91 0.06,3.07 0.03,3.19 -0,3.41 2.6,4.74 2.94,4.77 3.04,4.8 3.25,4.96 3.29,4.99 3.56,5.24 3.6,5.33 3.69,5.33 3.81,5.33 3.91,5.33 4.62,5.73 4.84,5.77 5.11,5.8 5.39,5.89 5.92,6.14 5.92,6.04 6.32,6.26 6.54,6.29 6.76,6.32 6.88,6.35 7.04,6.51 7.13,6.51 "/>
 </g>
</svg>
