<?xml version="1.0" encoding="UTF-8"?>
<!DOCTYPE svg PUBLIC "-//W3C//DTD SVG 1.1//EN" "http://www.w3.org/Graphics/SVG/1.1/DTD/svg11.dtd">
<!-- Creator: CorelDRAW 2018 (64-Bit) -->
<svg xmlns="http://www.w3.org/2000/svg" xml:space="preserve" width="4.05351in" height="3.44054in" version="1.1" style="shape-rendering:geometricPrecision; text-rendering:geometricPrecision; image-rendering:optimizeQuality; fill-rule:evenodd; clip-rule:evenodd"
viewBox="0 0 334.08 283.56"
 xmlns:xlink="http://www.w3.org/1999/xlink">
 <defs>
  <style type="text/css">
   <![CDATA[
    .fil0 {fill:#5C67AE}
   ]]>
  </style>
 </defs>
 <g id="Layer_x0020_1">
  <metadata id="CorelCorpID_0Corel-Layer"/>
  <polygon id="KT" class="fil0" points="12.78,238.27 14.9,237.69 15.49,237.11 16.07,236.91 16.65,236.33 17.42,234.79 18.78,231.88 19.36,230.91 20.33,230.14 24,228.59 24.97,228.01 25.74,227.43 26.33,226.66 26.52,225.88 26.52,224.91 26.52,223.95 25.74,222.4 25.16,221.62 24.97,220.85 24.39,219.88 24.39,218.14 24.2,211.94 24.39,210.59 25.16,208.07 24.97,206.72 16.65,188.33 15.87,186.2 15.68,184.46 15.49,180.01 15.49,178.65 17.62,170.91 17.81,168.59 17.62,167.23 17.81,166.27 18.39,163.75 18.2,162.98 18,162.2 17.42,161.62 16.84,161.04 16.84,160.46 17.42,158.91 17.42,158.14 17.23,157.17 17.03,156.97 16.45,156.78 16.26,156.78 15.68,156.98 14.71,157.56 13.74,157.75 12.19,157.75 11.42,156.98 10.84,156.2 10.26,155.43 10.06,154.65 10.07,154.07 10.65,153.49 11.23,152.91 12.78,151.17 14.13,149.81 16.45,148.27 18,147.68 18.97,147.69 19.74,147.88 20.52,148.07 21.29,148.07 21.87,148.27 22.65,148.85 23.42,148.85 24.39,148.27 26.71,145.94 28.07,145.17 30.2,142.26 31.74,140.91 33.49,139.94 35.03,139.17 37.16,137.81 38.71,134.91 39.49,133.94 40.07,133.75 41.42,132.2 43.16,131.23 46.84,129.49 48.2,128.14 51.87,126.78 54,125.81 54.78,125.04 55.55,123.68 55.36,122.72 54.78,120.97 54.78,120.2 54.97,119.23 55.16,118.46 57.29,115.94 58.84,114.59 65.23,110.13 68.91,108.39 69.87,108.2 72.78,106.65 79.75,102.01 85.75,100.26 87.49,98.72 87.68,97.36 88.26,96.59 88.84,96.39 89.62,96.2 97.55,96.39 100.84,96.97 102.39,96.97 103.36,97.17 105.1,97.36 105.88,97.55 106.65,97.36 112.85,95.04 114.39,94.07 115.17,93.88 115.94,93.88 118.07,94.46 118.84,94.46 119.81,94.26 131.43,89.81 132.2,89.23 132.39,88.65 133.75,87.88 140.52,85.55 142.65,84.78 144.39,83.42 147.69,81.88 148.46,81.88 149.23,81.88 150.78,82.07 151.56,82.07 153.1,81.88 153.69,81.29 153.88,81.1 154.46,80.13 154.65,79.94 154.85,79.94 155.62,79.75 156.2,79.55 156.98,78.97 157.56,78.97 158.33,78.97 158.52,79.17 159.11,79.75 160.65,82.07 161.23,82.84 162.01,83.42 162.59,84.01 163.36,84.59 164.72,84.39 165.3,83.81 166.27,80.13 167.62,77.62 167.82,76.84 167.62,76.07 167.04,74.52 166.46,73.75 165.88,73.55 165.11,72.97 164.52,72.78 164.33,72.59 164.14,72 164.14,71.04 164.33,70.46 165.69,68.71 169.36,64.84 169.56,64.65 169.75,64.46 170.33,64.26 171.11,64.07 171.69,64.07 172.27,64.07 172.85,63.87 173.04,63.68 173.82,62.33 174.4,62.13 174.98,61.94 175.56,61.94 176.14,61.75 176.33,61.16 176.53,59.62 177.49,57.1 179.24,54 179.43,53.42 179.43,52.84 179.43,51.87 178.07,47.23 177.88,46.65 178.07,46.07 177.88,45.1 177.69,44.32 176.33,41.23 175.36,39.87 173.04,38.13 172.27,37.36 170.91,35.03 169.17,32.52 171.49,31.55 174.01,30.97 175.36,30.39 175.94,30.39 176.53,30.39 177.3,30.39 179.62,31.16 180.4,31.36 181.75,31.16 183.11,31.36 183.88,31.16 184.85,30.58 186.98,28.84 187.75,28.65 188.53,28.45 189.11,28.26 189.88,27.68 190.08,25.94 190.08,23.81 190.08,22.84 190.85,21.87 191.82,20.9 192.59,19.94 193.37,18.58 194.33,16.26 194.92,15.48 195.88,14.9 196.46,14.32 197.82,12.97 199.37,12 201.11,11.23 204.4,11.03 205.17,10.84 208.08,9.48 209.04,9.48 211.95,8.9 212.91,8.71 213.5,8.52 214.46,7.55 215.04,6.97 216.4,6.19 217.37,6.19 220.27,6.19 223.17,6 226.27,6.19 227.04,6.39 228.01,6.58 229.56,7.94 230.53,8.52 231.5,8.71 236.34,9.48 237.3,10.07 238.66,10.06 257.43,7.94 258.79,7.16 260.34,5.81 262.08,4.45 265.37,3.1 268.47,2.52 270.01,1.94 270.79,1.74 271.37,0.77 271.56,0.19 271.76,0.19 272.34,0 276.21,0 277.18,0 277.95,0.19 278.53,0.77 279.11,1.74 279.31,1.94 279.89,2.13 280.08,2.32 280.85,2.52 281.44,3.1 282.02,3.87 282.21,4.45 282.4,5.23 283.18,6 283.37,6.58 283.56,9.49 283.76,10.26 284.34,11.23 284.53,11.81 284.53,12.58 284.34,13.36 284.15,14.33 283.37,15.1 281.82,16.45 281.05,17.04 277.37,24.78 276.6,27.1 276.4,28.07 276.4,29.81 276.6,30.58 276.79,31.55 277.37,32.91 277.56,33.68 277.56,34.46 277.56,36.2 277.56,36.97 277.76,37.55 279.31,39.88 280.08,41.42 280.27,42.2 280.47,43.17 280.47,43.94 280.47,44.72 278.15,49.56 277.18,52.85 277.18,54.2 277.18,54.78 277.18,55.56 277.76,55.75 277.76,56.33 277.95,56.91 277.76,57.88 277.76,58.65 277.76,59.43 278.53,60.2 279.11,60.2 279.69,60.2 282.01,57.87 282.6,57.68 284.72,56.71 285.31,56.52 285.89,55.94 286.08,55.36 286.85,54.39 292.08,48.2 293.63,46.84 294.6,46.84 296.15,46.84 297.11,46.65 297.69,46.65 299.44,47.23 301.76,47.42 302.34,47.62 302.53,47.81 302.53,48 302.53,48.2 301.95,48.97 301.76,50.32 300.98,54.97 300.79,55.74 300.6,56.33 298.85,59.42 298.66,60.78 298.08,63.1 297.89,67.94 297.89,68.91 298.66,71.42 298.85,72.39 299.05,75.68 299.63,77.04 300.4,79.36 301.37,81.87 304.66,86.52 305.24,87.49 305.44,88.84 305.44,91.36 306.98,99.1 307.57,99.87 309.69,102.78 309.89,103.75 309.89,104.71 309.89,105.49 309.89,106.46 310.47,107.23 313.76,109.75 314.53,110.33 315.31,110.52 317.63,111.1 319.76,112.07 319.95,112.07 320.53,112.26 321.31,112.26 322.08,112.84 322.86,113.43 324.21,114.78 324.79,115.55 325.37,116.91 325.57,117.49 327.11,118.85 327.69,119.81 328.28,120.59 328.86,120.78 329.44,120.97 329.63,120.97 330.21,120.97 330.99,120.39 331.76,119.81 333.31,119.62 334.08,127.55 333.5,128.52 333.31,131.62 333.11,133.17 329.82,139.36 328.47,140.91 327.69,141.88 325.76,142.46 324.79,142.27 323.82,142.27 323.82,142.27 324.4,139.17 324.4,138.39 324.21,137.81 323.24,137.81 321.69,138.01 315.69,140.52 312.79,141.1 311.05,141.3 310.27,141.3 307.18,142.65 306.4,143.23 306.21,144.01 305.63,145.36 301.18,164.52 301.18,166.85 301.37,168.59 302.14,170.33 302.73,172.07 302.73,173.62 301.37,175.94 300.02,177.3 299.24,178.65 299.24,179.43 300.6,182.53 291.31,191.24 289.18,192.78 287.43,193.56 284.53,194.33 280.66,195.3 272.72,197.04 271.76,197.62 270.98,197.82 270.98,198.01 270.98,198.59 270.98,199.17 270.98,201.49 271.17,202.08 271.76,203.04 271.95,203.82 272.14,204.01 272.72,204.59 272.72,205.17 272.92,207.5 272.72,208.27 272.53,209.04 271.56,210.79 270.59,213.3 270.59,213.88 267.5,216.98 266.72,217.95 265.95,219.3 265.75,220.85 265.56,222.4 265.37,223.75 265.17,225.3 264.59,226.27 263.24,227.63 262.66,228.21 262.08,228.4 257.63,229.95 257.04,230.53 256.46,230.72 256.66,231.5 256.46,232.08 256.27,232.66 255.5,233.63 254.91,233.82 254.72,234.01 253.37,234.59 248.72,235.37 248.14,235.56 247.95,235.76 246.4,237.88 245.82,238.66 245.62,239.63 244.08,246.01 233.43,274.08 231.88,273.69 230.91,272.92 230.33,271.95 230.33,270.6 231.11,269.63 232.46,269.05 233.04,268.47 234.4,264.02 236.14,261.89 236.91,260.92 237.11,259.56 234.2,261.89 232.08,265.76 229.17,269.43 225.11,270.79 222.98,270.6 221.24,269.82 219.88,268.47 219.69,266.34 221.04,259.95 220.85,258.21 220.27,258.79 220.27,259.56 219.49,262.47 219.49,264.02 219.3,264.21 218.33,264.98 215.82,269.05 211.95,271.18 209.62,271.76 205.56,274.08 200.91,275.82 194.14,276.79 188.91,275.82 188.33,270.98 189.11,268.47 189.69,265.56 189.49,262.66 188.14,258.02 187.56,257.24 186.2,257.05 180.59,257.05 179.24,257.24 177.69,258.01 176.91,258.79 176.33,260.34 176.14,261.3 174.78,262.08 171.11,262.27 170.14,262.08 169.95,261.3 169.75,259.76 169.56,258.98 168.78,257.63 168.01,256.66 167.24,256.47 170.14,261.89 170.33,263.63 167.04,259.76 166.07,259.17 163.94,257.82 163.17,257.24 162.4,256.46 161.82,255.5 161.23,254.53 161.04,252.4 160.46,251.63 159.3,250.85 157.75,250.08 155.62,249.5 153.88,248.53 149.43,240.79 149.62,245.43 149.04,246.4 148.85,246.98 148.27,248.34 147.69,248.92 147.49,249.11 146.72,248.92 146.52,248.92 146.33,249.11 145.75,249.69 144.98,250.46 144.01,251.43 143.43,252.98 144.2,254.34 144.98,255.11 145.17,255.3 145.94,255.88 146.72,255.88 148.07,256.08 148.85,256.08 148.85,256.66 125.62,271.56 123.49,273.3 122.14,273.89 119.81,273.3 119.23,273.5 119.04,274.08 118.85,274.66 118.07,275.24 117.3,275.24 115.94,274.66 107.23,268.27 104.33,267.3 101.23,266.72 94.84,267.69 89.23,270.98 79.75,280.47 76.84,282.59 75.3,283.56 73.94,283.37 72.97,282.79 69.88,281.82 68.91,281.05 68.91,279.5 70.46,276.59 70.65,275.24 71.23,271.17 71.23,269.63 69.49,258.21 69.49,255.11 70.46,249.69 69.87,246.79 65.81,239.62 65.23,237.11 65.23,234.2 65.04,234.01 64.84,233.82 64.26,233.62 64.07,232.85 64.26,231.5 65.23,229.75 65.23,228.79 64.45,229.37 63.49,230.14 62.52,231.11 62.33,232.08 62.91,234.98 62.91,235.95 62.71,236.72 61.94,237.3 61.36,237.5 61.16,238.08 60.97,238.27 60.78,238.46 60.2,239.05 60.2,239.63 60.39,240.21 60.97,240.4 61.16,240.4 61.75,241.17 62.33,241.17 62.52,241.37 62.52,241.95 62.33,242.14 61.75,242.14 61.55,242.34 58.65,243.3 54.58,246.4 53.62,246.98 52.65,246.98 51.29,246.79 50.71,245.82 50.52,244.46 49.94,243.5 48.2,242.14 45.68,241.37 40.07,240.79 37.74,240.98 35.61,241.56 20.13,249.88 15.29,251.63 12.39,251.82 10.06,251.24 4.65,248.14 3.29,247.95 0.97,247.95 -0,247.37 -0,246.59 0.77,245.24 1.36,244.66 3.48,242.91 5.61,241.95 7.94,241.37 13.55,239.04 14.13,239.04 "/>
 </g>
</svg>
