<?xml version="1.0" encoding="UTF-8"?>
<!DOCTYPE svg PUBLIC "-//W3C//DTD SVG 1.1//EN" "http://www.w3.org/Graphics/SVG/1.1/DTD/svg11.dtd">
<!-- Creator: CorelDRAW 2018 (64-Bit) -->
<svg xmlns="http://www.w3.org/2000/svg" xml:space="preserve" width="2.76184in" height="2.71602in" version="1.1" style="shape-rendering:geometricPrecision; text-rendering:geometricPrecision; image-rendering:optimizeQuality; fill-rule:evenodd; clip-rule:evenodd"
viewBox="0 0 138.12 135.82"
 xmlns:xlink="http://www.w3.org/1999/xlink">
 <defs>
  <style type="text/css">
   <![CDATA[
    .fil0 {fill:#5C67AE}
   ]]>
  </style>
 </defs>
 <g id="Layer_x0020_1">
  <metadata id="CorelCorpID_0Corel-Layer"/>
  <g id="KU">
   <path class="fil0" d="M138.12 78.81l-0.47 -0.94 -0.35 -0.35 -3.88 -3.41 -0.59 -0.82 -1.53 -1.41 -0.47 -0.59 -0.35 -0.59 -0.35 -0.82 -0.12 -2.7 -0.12 -0.82 -0.35 -0.59 -1.29 -0.94 -1.53 -0.47 -1.53 -0.12 -1.76 -0.47 -0.47 -0.59 0.35 -0.47 1.41 -1.06 0.82 -0.35 0.82 -0.12 0.94 -0.35 0.47 -0.59 -3.88 -0.35 -2.82 -0.59 -0.94 0 0 -0.12 2.7 -0.35 0.82 -0.35 1.41 -0.59 0.82 -0.12 0 -0.35 -0.47 -0.59 -0.82 -0.47 -0.82 0.12 -0.47 0.35 -0.94 0.35 -0.82 0 -0.59 -0.12 0.47 -0.47 0.94 -1.29 0.35 -0.35 0.47 0 0.35 -0.35 0.35 -0.47 -0.12 -0.35 -0.35 -0.47 -0.12 -0.35 -0.12 -0.12 -0.47 -0.35 -1.53 -0.35 -1.88 0 -1.88 0 -1.06 -1.06 0 -0.59 0.12 -0.59 -0.12 -0.47 -0.94 -0.12 -1.76 0 -0.82 -0.12 -0.59 -0.12 -2.82 -1.53 -0.47 -0.47 -0.12 -0.47 -0.12 -0.35 0 -0.35 0.47 -0.12 0.35 0 1.06 0.47 0.94 0.82 0.47 0.12 0.47 -0.59 0.12 -0.35 0.12 -1.76 0.12 -0.35 0.35 -0.35 0.35 -0.35 0.35 -0.35 0.47 -0.82 0.47 -0.35 0.35 -0.35 0.47 0 0.35 -0.47 0.12 -0.47 0 -0.47 0 -1.06 0 -0.35 -0.12 -0.12 -0.35 0.12 -0.35 -0.12 -0.94 -0.35 -1.29 -0.12 -1.06 0.12 -0.82 0.35 -0.59 -0.94 -0.35 -0.35 -0.47 -0.35 -1.53 -0.35 -0.35 -0.35 -0.59 -0.47 -0.82 -0.94 -0.35 -1.06 0.12 -0.94 0.47 -0.94 -0.59 -0.59 -1.29 -0.12 -2.23 0 -1.29 0.12 -1.29 0.35 -0.94 0.59 1.06 -1.53 1.41 -0.47 5.17 -0.12 3.29 0.59 5.17 -0 0.82 0.12 1.76 0.82 0.59 0.12 0.59 -0.82 -0.12 -0.94 -0.35 -1.06 -0.59 -0.59 -0.35 -0.59 -0.35 -2.35 -0.12 -0.12 -0.47 -0.94 0.94 0.47 0.35 0.35 0.12 0.12 0.12 0.94 0.12 0.47 0.59 1.06 0.35 0.94 0.47 0.82 0.94 0.35 0.82 0.12 1.53 0.82 0.94 0.12 3.88 -0.35 0.47 -0.35 0.59 -0.94 0.47 -0.47 1.06 -0.59 0.47 -0.35 0 -0.82 -0.47 -0.35 -1.53 -0.35 -1.76 -0.47 -0.82 -0.47 -0.47 -0.59 2.35 0.12 0.59 0 0.35 -0.12 -0.12 -0.35 -0.12 -0.47 -2 -2.23 -0.35 -0.35 -1.06 -0.82 -0.35 -0.12 -0.59 0.12 -0.59 0.12 -0.59 0.12 -0.47 -0.35 -0.82 -0.59 -0.94 -0.82 -1.06 -0.47 -1.29 -0.12 0 -0.12 1.88 0 0.82 0.35 1.53 1.06 0.94 0.12 0.82 -0.12 0.59 -0.35 0.12 -0.59 -0.47 -0.35 -0.59 -0.35 -1.41 -0.35 -0.59 -0.47 -3.64 -3.64 -0.47 -0.12 -0.47 0.12 -0.35 0.12 -0.47 0.12 -0.47 -0.12 0 -0.35 0.35 -0.59 -0.35 -0.47 -0.59 -0.35 -0.82 -0.12 -0.94 -0.12 -0.47 -0.12 0 -0.47 0.35 -0.35 0.12 -0.35 -0.12 -0.35 -0.35 -0.12 -0.47 -0.12 -0.12 -0.35 -0.12 -0.12 -0.12 -0.47 0 -0.12 5.28 1.88 0.47 0 0.47 -0.12 1.06 -0.94 0.47 -0.23 -0.47 -0.47 -0.35 0.23 -1.06 0 -0.59 0 -1.41 -0.12 -1.06 -0.35 -0.94 -0.59 -2.23 -2.35 -3.29 -1.76 -1.41 -0.94 -0.35 -0.47 -0.35 -0.35 -0.35 -0.35 -0.59 -0.12 -0.47 0.12 -0.59 0.59 -0.35 0.12 -7.4 0.12 -2.35 -0.59 -1.53 0 -3.17 0.59 -1.53 -0.35 -1.41 -1.06 -0.82 0 -1.29 1.06 -0.82 0.12 -0.82 0 -0.94 -0.47 -1.06 0.59 -0.47 0 -1.76 -2.7 -0.47 0 -0.35 0.47 -0.82 0.94 -0.35 0.47 0 0.47 0.12 0.35 0.12 0.12 -0.47 0.35 -0.59 0.35 -0.47 -0.35 -0.47 -0 -0.94 1.06 -0.47 0.12 -0.35 -0.12 -0.47 -0.12 -0.94 -1.76 -0.12 -0.47 -0.12 -0.12 -0.35 -0.12 -0.35 0 -0.12 0 -1.06 -1.06 -1.06 0.35 -1.06 0.47 -1.06 0.35 -0.59 -0 -1.76 -0.47 -0.94 0 -0.47 -0.12 -0.47 -0.12 -0.35 0.82 -0.35 0.47 -0.35 0.35 -0.82 0.47 -1.88 1.88 -0.47 0.35 -0.82 -0.12 -0.35 -0.47 -0.35 -0.82 -0.12 -0.59 -0.12 -0.35 -0.59 -0.12 -0.94 -0.47 -1.53 -0 -0.94 -0.35 -0.35 -0.47 -0.12 -0.59 -0.35 -0.35 -0.47 0 -0.59 0.47 -0.35 1.29 0 1.41 -0.12 1.06 -1.53 1.41 -0.12 0.47 -0.12 0.47 -0.59 0.12 -0.35 -0.35 -0.35 -0.35 -0.35 -0.12 -1.76 1.53 -0.35 0.47 -0.12 0.12 -0.82 0.35 -0.47 0.35 -0.47 1.53 -0.47 3.64 -0.47 1.76 -0.82 1.53 -0.47 0.47 -1.41 0.82 -0.12 0.35 -0.12 0.82 0.82 0.59 0.82 0.47 0.47 0.59 0.12 1.29 -1.53 4.7 -0.35 1.53 0 1.53 0.12 0.94 0.94 2.35 0.12 0.47 -0.12 0.82 0 0.47 0.12 0.47 0.59 1.29 0.35 0.82 0.12 0.47 -0.35 0.35 -0.47 0.12 -0.35 0 -0.35 -0.35 -0.47 0 -0.82 0.94 -0.82 1.76 -1.41 6.11 0 0.59 0.82 0.82 0.47 0.35 0.12 0.12 -1.41 1.88 -0.12 0.82 -0.12 1.76 -0.35 0.82 -0.82 0.12 -1.53 0.35 -2.7 1.06 -1.29 0.12 -1.06 -0.47 -1.06 -1.53 -0.47 -0.12 -0.82 1.06 -0.59 1.41 -0.47 0.47 -2.23 1.53 -0.82 0.59 -0.47 0.82 -0.12 0.47 -0.12 0.47 -0.12 0.35 -0.35 0.47 -0.47 0.47 -0.35 0.12 -0.12 0.12 0.12 0.59 1.06 1.41 0.35 0.82 -0.47 0.94 -0.47 0.35 -0.47 -0 -0.35 0.12 -0.12 0.47 0 0.47 0.47 0.82 0 0.35 -0.12 0.94 -0.35 0.82 -0.12 0.94 0.59 0.47 0.47 0 0.94 -0.35 0.35 -0.12 0.47 0 0.59 0.12 0.47 0.12 0.35 0.35 0.59 0.59 0.59 0.94 0.47 0.94 0.12 0.82 -0.59 0.82 -0.82 0.35 -1.88 0.12 -0.82 0.47 -1.53 1.76 -0.59 0.35 -0.59 0.35 -1.76 1.41 -0.82 0.59 -1.53 -0.12 -0.47 0.35 -0.35 0.82 0.12 0.82 0.12 0.59 -0.35 0.47 -1.06 0.47 -3.17 0.35 -1.06 0.82 -0.59 1.53 -0.47 2.23 0 0.82 0.12 0.35 0.47 0.59 0 0.35 0 1.41 0 0.35 0.47 0.94 0.47 0 0.59 -0.35 0.94 0 0.35 0.12 0.35 0.59 -0.12 0.47 0 0.59 -0.35 0.82 -0.35 0.59 0 0.82 0.35 0.82 -0.12 0.82 -0.47 0.47 -2.23 0.82 -2.23 0.35 -0.47 0.12 -0.35 0.35 -0.47 0.47 -0.12 0.35 -0.12 0.47 0 0.12 0.12 0.35 0.12 0.47 0 1.29 -0.35 2.82 -0.82 2 -1.06 1.76 -0.59 0.82 -1.41 1.06 -0.35 0.59 0 0.94 0.12 0.94 0 0.7 1.29 4.93 2.58 0.23 1.76 1.76 0 2.11 4.93 3.76 1.76 -1.53 3.52 0.35 1.53 2.94 6.11 0.59 0.94 2.11c0,0 3.76,1.17 5.52,0.35 1.76,-0.82 3.52,-1.53 3.76,-2.7 0.23,-1.17 0,-3.88 1.76,-4.7 1.76,-0.82 7.63,-2 7.63,-2l2 0.82 3.17 -3.52 3.17 -2c0,0 0,-2.35 1.76,-2.7 1.76,-0.35 5.64,-3.29 5.64,-3.29l0 -1.76 1.17 -2 2.58 -0.82 1.76 -6.69c0,0 0,-3.52 0.23,-4.35 0.23,-0.82 2.11,-2.35 2,-3.76 -0.12,-1.41 -0.23,-2.94 -0.23,-2.94 0,0 3.29,-0.35 3.88,-0.94 0.59,-0.59 1.17,-1.76 1.17,-1.76 0,0 -3.29,-1.76 -2,-2.94 1.29,-1.17 2.7,-2 3.76,-2l3.17 -0 1.17 -2.94 0 -3.29 2.35 -0.23 1.76 1.53c0,0 2,-2.11 2.7,-2.58 0.82,-0.35 2.35,-1.76 2.35,-1.76l2 4.93c0,0 2.11,0.94 2.35,0 0.24,-0.94 1.41,-2.35 2.58,-3.17 1.17,-0.82 4.93,-2.11 4.93,-2.11l2 -2.58 3.29 -0.35 2.58 1.17 2.58 -0.59 4.46 -0.23c0,0 2.58,2 3.76,2.58 1.17,0.59 3.17,0.94 3.17,0.94l1.41 -0.23c0,0 2.94,2 3.52,3.29 0.59,1.41 0.94,3.17 0.94,3.17l3.76 0.94 1.17 -2.11 2 -0.82 1.17 0.23 2.58 -1.76 1.06 -0.7z"/>
   <polygon id="path502" class="fil0" points="118.27,42.87 117.68,42.51 116.86,42.4 116.27,42.51 115.45,42.87 114.98,43.34 114.63,44.16 114.74,44.75 115.33,45.1 115.68,45.1 116.15,44.75 116.62,44.63 116.98,44.63 118.27,44.63 118.74,44.63 119.09,44.75 119.21,44.63 119.32,44.16 119.21,43.69 119.09,43.34 "/>
   <polygon id="path506" class="fil0" points="132.01,24.31 132.13,23.72 131.77,23.14 131.19,22.67 130.36,22.08 129.54,21.61 128.6,21.26 128.49,21.26 128.37,21.37 127.55,21.49 127.19,21.49 127.78,21.96 128.72,22.9 129.31,23.37 130.36,23.96 131.19,24.31 "/>
   <polygon id="path510" class="fil0" points="123.08,38.76 120.73,38.76 119.79,39.11 119.32,40.17 119.44,41.11 119.79,42.05 120.38,42.98 120.97,43.81 122.97,44.86 123.32,45.45 123.67,46.27 124.02,46.39 124.49,45.92 124.85,45.33 124.85,43.1 125.32,42.05 125.43,41.11 125.43,40.28 125.43,39.7 124.96,39.23 124.38,38.87 123.79,38.76 "/>
   <polygon id="path514" class="fil0" points="118.85,37.23 118.85,36.76 118.74,36.41 118.38,36.06 117.45,35.94 116.62,35.59 116.15,35.47 115.57,35.35 114.51,34.06 113.92,33.59 110.52,33.24 110.16,33.24 109.34,32.65 108.87,32.53 108.4,32.53 107.93,32.88 107.46,33.24 107.11,33.59 106.76,34.06 106.76,34.53 106.87,35 107.23,35.35 107.7,35.82 108.28,36.17 108.87,36.53 109.46,36.64 112.86,36.64 116.15,37.93 117.91,38.29 "/>
   <polygon id="path518" class="fil0" points="133.89,36.41 133.53,35.47 133.07,34.65 132.6,33.82 132.01,33.24 131.19,32.65 130.25,32.65 129.42,33 129.19,33.94 129.54,34.76 130.95,35.82 131.3,36.41 133.3,37.82 133.77,37.93 133.89,37.46 133.89,36.64 "/>
   <polygon id="path522" class="fil0" points="126.02,11.86 125.08,10.57 124.49,10.22 124.02,10.57 122.61,11.98 121.79,13.74 122.85,15.62 124.73,17.03 126.25,16.68 127.66,15.27 128.13,14.21 128.02,13.15 127.66,12.8 "/>
   <polygon id="path1070" class="fil0" points="126.49,9.51 128.6,12.33 130.95,13.62 131.77,14.68 133.07,15.03 133.65,15.03 134.24,14.92 135.53,13.98 134.94,12.45 134.83,10.57 134.36,9.63 128.02,9.63 126.49,9.51 "/>
  </g>
 </g>
</svg>
