<?xml version="1.0" encoding="UTF-8"?>
<!DOCTYPE svg PUBLIC "-//W3C//DTD SVG 1.1//EN" "http://www.w3.org/Graphics/SVG/1.1/DTD/svg11.dtd">
<!-- Creator: CorelDRAW 2018 (64-Bit) -->
<svg xmlns="http://www.w3.org/2000/svg" xml:space="preserve" width="1.81304in" height="2.76888in" version="1.1" style="shape-rendering:geometricPrecision; text-rendering:geometricPrecision; image-rendering:optimizeQuality; fill-rule:evenodd; clip-rule:evenodd"
viewBox="0 0 59.93 91.52"
 xmlns:xlink="http://www.w3.org/1999/xlink">
 <defs>
  <style type="text/css">
   <![CDATA[
    .fil0 {fill:#5C67AE}
   ]]>
  </style>
 </defs>
 <g id="Layer_x0020_1">
  <metadata id="CorelCorpID_0Corel-Layer"/>
  <g id="KS">
   <polygon class="fil0" points="58.92,30.35 58.37,31.52 57.44,31.59 57.13,31.28 57.06,30.74 56.82,30.2 56.43,29.89 55.74,29.89 55.43,29.89 55.35,29.96 54.96,30.27 54.88,30.35 54.65,30.35 54.57,30.27 54.49,30.27 54.42,30.2 53.41,30.35 53.1,30.35 52.86,30.43 52.63,30.66 52.63,30.97 52.71,31.05 53.1,31.28 53.02,31.83 52.4,32.99 52.79,33.07 53.64,31.83 54.26,31.52 54.65,31.59 54.96,31.98 54.96,32.45 54.42,33.61 54.34,34.16 54.42,38.74 54.34,39.67 53.95,40.6 53.56,41.45 52.32,43 51.7,43.55 51.16,43.63 50.77,43.39 50.46,43 50.38,41.76 50.38,41.53 50.3,41.3 49.99,41.06 49.6,40.83 49.37,40.75 49.14,40.37 48.9,39.82 48.83,39.2 48.83,38.66 48.75,38.42 48.52,38.42 48.44,38.5 48.21,38.81 48.28,39.05 48.36,39.43 48.36,39.74 48.13,40.29 47.74,40.83 47.66,41.45 47.97,42.07 48.05,42.38 47.82,42.69 47.51,42.93 47.43,43.24 47.66,43.47 47.9,43.47 48.21,43.24 49.06,43.32 49.14,43.63 49.14,44.01 49.45,44.56 49.76,44.95 51.39,46.11 51.78,46.5 51.7,46.81 50.46,47.12 49.45,47.51 49.14,47.27 49.06,47.82 49.6,48.75 49.68,49.37 49.6,49.99 49.22,50.22 48.83,50.46 48.21,50.69 48.21,50.3 48.44,49.99 48.67,49.99 48.98,50.22 49.06,49.99 49.29,49.76 49.37,49.21 48.75,49.21 47.9,49.53 47.58,49.76 47.27,50.3 46.89,51.47 45.26,54.26 44.95,55.27 44.63,57.52 44.4,58.69 43.78,59.38 43.24,59.46 41.45,59.54 40.83,59.62 40.29,59.93 39.12,60.86 38.19,61.56 33.53,63.81 26.39,66.53 19.64,69.24 14.75,71.49 10.48,74.05 9.16,74.44 8.15,74.05 7.76,73.12 7.84,71.96 8.38,69.86 7.84,67.61 7.61,65.75 7.84,61.17 7.45,59.93 5.9,57.99 5.51,56.82 5.59,55.66 6.21,52.24 5.67,52.55 5.28,52.94 4.97,53.33 4.66,56.12 4.35,56.43 3.73,56.43 2.72,56.05 1.55,55.43 -0,54.65 4.27,43.39 4.89,40.83 4.97,40.44 5.2,40.13 5.82,39.28 5.9,39.2 6.13,39.12 8,38.81 8.54,38.58 8.62,38.5 8.85,38.42 9.16,38.04 9.24,37.8 9.31,37.57 9.24,37.26 9.47,37.18 9.7,36.95 11.49,36.33 11.72,36.25 11.95,36.02 12.5,35.47 12.73,35.09 12.81,34.47 12.89,33.92 12.96,33.3 13.04,32.68 13.35,32.14 13.66,31.75 14.9,30.51 14.9,30.27 15.29,29.27 15.68,28.57 15.76,28.26 15.84,27.95 15.76,27.01 15.76,26.78 15.53,26.55 15.45,26.47 15.37,26.16 15.14,25.77 15.06,25.54 15.06,24.61 15.06,24.37 15.06,24.14 15.06,24.06 15.37,23.99 15.76,23.75 18.94,23.05 20.49,22.67 21.66,22.36 22.36,22.05 23.21,21.42 26.94,17.93 26.39,16.69 26.39,16.38 26.7,15.84 27.25,15.29 27.79,14.36 27.79,13.74 27.56,13.04 27.25,12.34 27.17,11.64 27.17,10.71 28.95,3.03 29.19,2.48 29.27,2.17 29.58,1.94 30.82,1.4 31.05,1.4 31.75,1.32 32.91,1.09 35.32,0.08 35.94,0 36.33,0 36.33,0.16 36.33,0.47 36.1,1.71 36.1,1.71 35.48,1.71 35.16,1.94 34.85,2.17 34.23,2.79 33.3,4.11 34.47,4.19 34.85,4.27 35.16,4.5 35.4,4.81 35.48,5.67 35.55,6.06 35.79,6.44 36.17,6.83 36.41,7.14 36.48,7.76 36.56,8.38 37.73,11.1 37.8,14.28 37.73,14.83 37.65,15.14 37.65,15.53 37.73,16.07 37.96,16.77 38.35,17.31 38.74,17.54 39.59,17.62 39.9,17.7 40.13,18.01 39.82,19.17 39.59,21.11 39.67,21.66 40.29,23.52 40.6,25.07 40.6,25.31 40.68,25.54 40.91,25.93 40.99,26.01 41.22,26.08 41.84,25.85 42.15,25.77 42.23,25.46 42.31,25.15 42.54,25 43.16,24.76 43.47,24.53 44.01,24.14 44.25,24.06 44.56,23.99 45.26,24.37 45.8,24.45 48.05,24.53 48.9,24.76 55.04,25.07 57.13,25.46 59.69,26.39 59.93,26.39 "/>
   <polygon id="path486" class="fil0" points="40.6,89.89 40.6,89.66 40.83,89.35 40.83,89.27 39.28,90.51 38.74,91.21 39.05,91.52 39.59,91.44 40.91,90.28 40.83,90.28 40.75,90.2 40.6,89.89 "/>
   <polygon id="path490" class="fil0" points="52.71,62.26 52.71,61.25 52.71,61.01 52.48,60.32 52.55,59.15 52.48,58.76 52.24,58.22 52.01,57.91 51.78,57.37 51.85,56.82 53.02,56.43 53.02,55.89 52.63,55.35 52.24,54.96 51.62,53.95 51.39,52.94 51.78,50.38 51.85,50.07 51.85,49.76 51.85,49.45 51.62,49.06 51.39,49.14 51.16,49.45 50.92,49.53 50.53,49.76 48.98,51.08 48.67,51.31 47.82,51.7 47.58,51.78 47.51,52.09 46.96,53.87 45.8,55.97 45.57,56.51 45.49,58.3 44.87,59.93 44.79,60.55 44.87,62.49 45.1,62.88 45.64,63.5 46.19,64.04 46.42,64.43 46.5,65.05 46.27,66.68 46.34,67.07 46.42,67.3 46.73,67.69 46.81,67.92 46.73,68.16 46.42,68.39 46.19,68.39 46.11,68.47 46.03,69.09 45.8,69.63 45.72,70.25 45.95,70.79 46.27,70.56 46.65,70.64 46.73,71.03 46.81,71.42 47.04,71.18 47.43,70.56 47.66,70.48 48.21,70.25 48.52,70.17 48.9,69.79 49.14,69.55 49.22,69.32 49.6,69.09 49.84,69.01 49.84,68.78 49.84,68.47 49.91,68.23 49.99,68 50.22,67.92 50.46,67.92 50.85,67.92 51.16,67.85 51.23,67.61 51.47,67.38 51.7,67.15 51.93,67.07 52.24,67.07 52.55,66.99 52.63,66.76 52.55,66.37 52.24,65.75 52.01,65.36 52.01,64.74 52.32,64.35 52.63,63.96 52.86,63.27 53.17,63.03 53.17,62.72 52.94,62.49 52.55,62.41 "/>
   <polygon id="path494" class="fil0" points="55.19,53.64 55.11,53.95 54.42,54.57 54.18,54.88 54.11,55.42 53.48,56.74 53.25,57.37 53.25,57.68 53.48,58.06 54.49,59.62 54.88,60.16 55.11,59.93 55.11,59.38 55.43,58.45 55.5,56.98 56.12,55.04 56.12,54.03 55.74,53.33 55.42,53.1 "/>
  </g>
 </g>
</svg>
