<?xml version="1.0" encoding="UTF-8"?>
<!DOCTYPE svg PUBLIC "-//W3C//DTD SVG 1.1//EN" "http://www.w3.org/Graphics/SVG/1.1/DTD/svg11.dtd">
<!-- Creator: CorelDRAW 2018 (64-Bit) -->
<svg xmlns="http://www.w3.org/2000/svg" xml:space="preserve" width="1.6195in" height="1.90008in" version="1.1" style="shape-rendering:geometricPrecision; text-rendering:geometricPrecision; image-rendering:optimizeQuality; fill-rule:evenodd; clip-rule:evenodd"
viewBox="0 0 2330.51 2734.27"
 xmlns:xlink="http://www.w3.org/1999/xlink">
 <defs>
  <style type="text/css">
   <![CDATA[
    .fil6 {fill:#F5B6A4;fill-rule:nonzero}
    .fil11 {fill:#FACB68;fill-rule:nonzero}
    .fil7 {fill:#F2A38F;fill-rule:nonzero}
    .fil4 {fill:#F0967D;fill-rule:nonzero}
    .fil3 {fill:#EF8C74;fill-rule:nonzero}
    .fil10 {fill:#BF4B4B;fill-rule:nonzero}
    .fil5 {fill:#A26162;fill-rule:nonzero}
    .fil9 {fill:#724D9D;fill-rule:nonzero}
    .fil2 {fill:#5C3D8D;fill-rule:nonzero}
    .fil1 {fill:#5C3D8D;fill-rule:nonzero}
    .fil8 {fill:#383147;fill-rule:nonzero}
    .fil0 {fill:#C3E2F5;fill-rule:nonzero}
   ]]>
  </style>
 </defs>
 <g id="Layer_x0020_1">
  <metadata id="CorelCorpID_0Corel-Layer"/>
  <g id="_1607344245728">
   <path class="fil0" d="M1165.24 149.53c643.55,0 1165.26,521.69 1165.26,1165.25 0,643.55 -521.72,1165.24 -1165.26,1165.24 -643.55,0 -1165.25,-521.69 -1165.25,-1165.24 0,-643.55 521.69,-1165.25 1165.25,-1165.25z"/>
   <path class="fil1" d="M1781.38 1895.89c28.77,47.96 34.71,105.26 62.14,153.25 48.62,131.02 111.09,283.36 149.93,424.07 -203.8,163.32 -462.42,261.07 -743.9,261.07 -293.25,0 -561.71,-106.07 -769.19,-281.87 17.34,-111.97 52.65,-221.62 104.15,-324.59 35.24,-70.48 288.63,-233.64 156.12,-173.99 424.62,-462.69 886.66,-289.18 1040.75,-57.94z"/>
   <path class="fil2" d="M1106.67 1576.07c-195.35,181.13 -819.96,123.09 -819.96,474.39 -8.24,26.27 -22.34,75.66 -37.93,138.35 129.03,199.75 316.24,358.39 537.64,451.97 50.87,-130.73 84.35,-269.22 112.32,-353.13 76.56,-17.49 93.99,-106.66 70.31,-169.83 35.22,-34.41 49.05,-73.99 43.91,-120.07 142.88,-116.27 218.36,-309.53 93.71,-421.68z"/>
   <path class="fil3" d="M1353.26 1407.61c-104.01,100.27 -72.81,292.13 -107.79,414.55 -82.02,44.33 -199.33,43.32 -227.16,-68 28.19,-116.78 -11.43,-234.21 -28.19,-351.53 55.19,-83.75 207.33,-77.93 290.18,-44.79 29.08,11.64 51.5,46.68 72.97,49.76z"/>
   <path class="fil4" d="M1486.58 714.22c126.94,-158.4 210.51,12.12 176.81,161.92 60.75,151.89 -3.77,223.51 -111.77,188.96 -109.61,-149.12 -119.21,-276.14 -65.04,-350.87z"/>
   <path class="fil5" d="M1007.32 1499.89c85.68,43.54 174.13,120.6 261.85,146.02 8.62,-89.28 23.12,-179.53 84.09,-238.3l0 0c-21.48,-3.08 -43.88,-38.12 -72.97,-49.76 -82.85,-33.15 -234.99,-38.97 -290.18,44.79 4.63,32.42 11,64.84 17.21,97.26z"/>
   <path class="fil6" d="M1610.37 876.14c100.06,200.12 92.21,257.66 -46.85,439.28 -19.51,175.61 -240.86,231.5 -398.27,175.71 -425.48,-47.29 -309.33,-133.11 -439.27,-456.84 -517.2,-766.69 704.25,-1037.07 819.96,-556.41 59.32,147.8 -42.63,309.47 64.43,398.25z"/>
   <path class="fil7" d="M1220.87 407.61c-97.4,8.4 -206.94,41.35 -286.97,99.54 -109.15,79.4 -164.41,260.69 0,330.93 479.16,204.72 801.43,-430.47 286.97,-430.47z"/>
   <path class="fil8" d="M725.97 1034.3c121.08,-8.66 94.54,-199.75 46.97,-271.09 88.6,-17.53 136.65,-84.13 136.65,-165.67 82.84,38.02 148.84,-36.19 155.31,-113.89 69.28,35.44 213.29,12.82 213.29,-84.89 24.47,79.9 114.36,133.78 188.43,74.54 26.23,98.68 149.1,67.2 149.1,-33.13 77.93,-41.74 67.17,-211.48 -35.2,-182.22 24.42,-80.47 -75.18,-203.94 -147.03,-120.11 -12.2,-114.17 -128.18,-160.43 -217.44,-89.04 -84.26,-70.3 -214.36,-73.05 -250.54,47.62 -113.2,-76.85 -254.7,5.97 -254.7,134.59 -98.89,-25.9 -228.13,113.98 -163.6,194.65 -107.04,20.47 -129.47,275.39 -12.42,275.39 -58.33,54.03 -52.71,177.65 37.29,190.54 -28.3,73.4 42.73,119.25 109.75,111.79 24.15,1.01 31.67,13.82 44.15,30.91z"/>
   <path class="fil4" d="M688.27 941.75c-194.54,-58.09 -166.25,129.72 -53.34,233.75 36.45,159.48 130.22,181.68 199.41,91.84 5.3,-185.02 -59.02,-294.94 -146.07,-325.58z"/>
   <path class="fil8" d="M1151.28 1243.06c2.33,-11.84 3.54,-25.93 6.51,-38.51 2.92,-12.68 7.65,-22.96 14.59,-28.03 8.08,-5.97 14.34,-7.68 20.59,-7.74 9.82,-0.14 21.1,5.46 34.21,12.4 13.08,6.72 28.1,14.55 46.56,14.63 3.35,0 6.78,-0.28 10.29,-0.87 12.89,-2.11 23.49,-8.11 31.85,-15.74 12.6,-11.5 20.92,-26.28 29.18,-39.85 8.19,-13.65 16.27,-25.94 26.11,-33.23 7.2,-5.34 11.95,-6.52 16.14,-6.58 5.5,-0.08 11.73,2.8 19.87,6.98 8.04,4.01 18.07,9.04 30.94,9.05 3.92,0 8.06,-0.48 12.35,-1.54 17.94,-4.77 30.58,-18.55 42.95,-29.74 6.11,-5.66 12.01,-10.8 17.59,-14.3 5.6,-3.51 10.59,-5.26 15.48,-5.26 5.13,0.04 11.03,1.8 18.95,8.09 4.26,3.39 10.48,2.7 13.86,-1.54 3.41,-4.25 2.72,-10.48 -1.54,-13.86 -10.29,-8.31 -20.96,-12.42 -31.27,-12.4 -9.78,0.02 -18.46,3.57 -25.95,8.28 -11.26,7.1 -20.67,16.88 -29.78,25.13 -9.06,8.32 -17.67,14.73 -25.09,16.46 -2.76,0.69 -5.22,0.97 -7.55,0.97 -7.48,0.02 -14.16,-2.96 -22.11,-6.96 -7.83,-3.84 -16.84,-8.97 -28.71,-9.07 -8.91,-0.04 -18.46,3.33 -27.96,10.53 -18.4,14.01 -28.3,35.06 -39.38,52.26 -5.44,8.64 -11.06,16.33 -17.31,21.99 -6.31,5.66 -13.01,9.39 -21.85,10.91 -2.41,0.39 -4.76,0.59 -7.06,0.59 -12.48,0.05 -24.51,-5.63 -37.47,-12.43 -12.88,-6.56 -26.53,-14.47 -43.31,-14.61 -10.53,-0.06 -21.71,3.59 -32.42,11.69 -13.01,9.94 -18.53,24.95 -21.97,39.28 -3.35,14.44 -4.59,29.07 -6.65,39.19 -1.05,5.34 2.42,10.53 7.75,11.6 5.34,1.04 10.53,-2.42 11.59,-7.75z"/>
   <path class="fil9" d="M923.73 1820.66c-13.39,-2.86 -26.54,-4.26 -39.26,-4.24 -38.69,-0.02 -73.66,12.93 -100.3,36.62 -26.68,23.64 -44.92,57.9 -50.86,99.75l7.31 1.04 1.24 -7.29c-6.17,-1.07 -11.99,-1.59 -17.47,-1.59 -13.49,-0.02 -25,3.22 -34.29,9.1 -14.01,8.83 -22.45,23.09 -27.35,39.01 -4.93,15.95 -6.51,33.9 -6.53,51.65 0,19.06 1.89,37.9 3.84,53.54l7.34 -0.93 -7.08 -2.11c-27.91,93.8 -115.09,174.68 -196.35,256.23 -15.13,15.22 -30.03,30.48 -44.29,45.88 3.54,3.44 7.08,6.87 10.66,10.26 33,-35.68 69.92,-70.97 105.24,-107.06 60.5,-61.97 116.49,-126.41 138.91,-201.07l0.25 -3.04c-1.91,-15.32 -3.73,-33.61 -3.73,-51.7 -0.04,-22.45 2.9,-44.57 11.03,-60.05 4.04,-7.76 9.23,-13.85 15.95,-18.11 6.74,-4.24 15.18,-6.78 26.4,-6.8 4.54,0 9.52,0.44 14.97,1.37 1.99,0.35 3.99,-0.12 5.62,-1.3 1.62,-1.18 2.69,-2.96 2.96,-4.93 5.56,-38.83 22.18,-69.59 46.04,-90.78 23.86,-21.17 55.06,-32.89 90.48,-32.91 11.64,0.02 23.74,1.28 36.19,3.94 3.98,0.85 7.9,-1.69 8.78,-5.69 0.84,-3.99 -1.7,-7.93 -5.7,-8.78z"/>
   <path class="fil9" d="M1085.28 1989.07c14.61,32.44 20.8,57.01 20.78,76.65 -0.08,23.15 -8.14,39.98 -23.09,57.43 -14.95,17.35 -36.92,34.61 -63.02,56.34 -2.11,1.76 -3.06,4.5 -2.51,7.18 2.17,10.49 3.18,20.19 3.18,29.25 -0.04,27.78 -9.27,49.52 -24.21,69.15 -22.41,29.42 -58.24,53.24 -92.93,80.17 -34.59,26.94 -68.29,57.33 -84.85,101.4l6.92 2.59 -6.74 -3.03c-21.81,48.64 -39.36,106.02 -57.34,163.72 4.52,2.03 9.06,4.03 13.61,6.01 18.2,-58.3 35.75,-115.84 57.23,-163.68l0.18 -0.44c19.72,-53.02 68.73,-86.27 114.49,-121.04 22.8,-17.42 44.71,-35.22 61.18,-56.73 16.44,-21.46 27.29,-46.92 27.25,-78.13 0,-10.14 -1.13,-20.87 -3.49,-32.25l-7.24 1.5 4.74 5.68c25.89,-21.6 48.32,-39.03 64.76,-58.04 16.44,-18.93 26.76,-40.17 26.68,-67.1 -0.02,-22.75 -7.02,-49.19 -22.08,-82.7 -1.68,-3.73 -6.06,-5.39 -9.78,-3.71 -3.73,1.68 -5.38,6.06 -3.71,9.76z"/>
   <path class="fil6" d="M858.42 1916.64c1.38,-96.53 103.43,-171.11 86.12,-274.97 -4.89,-29.38 -56.95,-115.29 -36.11,-136.11 12.11,-12.11 35.69,-2.78 49.99,-2.78 111.84,0 84.86,191.58 77.76,255.55 170.01,36.09 240.68,-145.99 369.43,-188.88 94.36,-31.47 -13.41,92.92 -36.13,111.08 79.33,33.94 7.71,120.08 -22.2,150.01 43.74,43.76 1.81,120.88 -38.33,117.73 -27.99,106.91 -162.6,86.32 -253.33,104.46 -152.29,30.47 -197.2,41.79 -197.2,-136.09z"/>
   <path class="fil8" d="M942.74 926.8c-11.76,-1.24 -39.05,-61.84 15.4,-134.89 4.24,-5.64 9.03,-11.08 14.34,-16.15 17.08,-16.45 37.31,-27.35 57.94,-32.84 69.1,-16.21 98.8,22.01 96.63,30.63 -3.67,14.48 -43.36,14.04 -75.37,31.81 -10.07,4.99 -20.05,12.27 -29.79,21.68 -3.06,2.94 -5.95,5.97 -8.71,9.07 -17.69,19.66 -30.83,43.99 -41.38,61.41 -10.78,17.85 -19.87,30.23 -29.04,29.28z"/>
   <path class="fil8" d="M1033.84 980.62c-2.92,-0.43 -5.65,-10.15 -0.59,-25.64 5.05,-15.4 17.73,-34.29 40.05,-46.78l1.01 -0.55c47.15,-26.03 84.43,-8.08 83.79,-3.65 -0.95,6.58 -37.17,5.37 -72.14,24.73l-0.8 0.45c-17.32,9.88 -29.03,22.38 -36.82,33.17 -7.53,10.47 -11.08,18.79 -14.5,18.26z"/>
   <path class="fil8" d="M1396.22 812.9c-2.42,-1.87 -0.25,-11.08 10.18,-22.11 10.49,-11.06 28.14,-22.16 51.39,-25.97l0.85 -0.14c23.27,-4 43.54,1.25 56.75,8.97 13.12,7.69 17.31,16.17 15.43,18.54 -2.13,2.66 -9.98,-0.58 -21.68,-2.92 -12.38,-2.48 -27.82,-3.65 -46.62,-0.8l-0.69 0.11c-18.89,3.35 -33.51,9.51 -44.98,15.6 -10.93,5.78 -17.9,10.83 -20.63,8.72z"/>
   <path class="fil10" d="M1373.45 667.96c3.33,3.08 -35.4,45.96 -35.83,120.03 0,32.99 10.63,75.62 41.51,98.44l4.24 2.92c23.44,9.37 45.83,25.78 54.46,51.57 6,22.95 -2.17,44.29 -12.52,58.89 -48.39,70.81 -107.67,70.06 -105.7,74.01 -1.99,-3.98 52.2,-24.34 88.09,-85.25 6.98,-12.58 13.12,-28.59 8.15,-40.78 -4.46,-16.31 -23.09,-27.12 -44.04,-37.39 -1.85,-1.28 -3.69,-2.61 -5.46,-3.99 -39.83,-31 -52,-80.85 -49.82,-119.07 4.74,-89.92 56.9,-119.41 56.92,-119.38z"/>
   <path class="fil7" d="M989.53 1025.52c53.39,0 96.63,29.48 96.63,65.87 0,36.41 -43.24,65.88 -96.63,65.88 -53.36,0 -96.63,-29.48 -96.63,-65.88 0,-36.38 43.27,-65.87 96.63,-65.87z"/>
   <path class="fil7" d="M1523.1 862.14c28.95,-31.57 70.54,-41.75 92.87,-22.68 22.3,19.05 16.92,60.11 -12.06,91.67 -28.97,31.61 -70.52,41.77 -92.84,22.72 -22.32,-19.06 -16.92,-60.12 12.03,-91.71z"/>
   <path class="fil3" d="M592.78 1038.62c-16.29,53.2 34,62.94 54.13,98.17 16.37,43.07 29.56,103.77 83.44,112.76 62.16,10.33 28.59,-85.61 36.36,-78.41 -61.94,-1.58 -102.03,-66.77 -50.41,-97.65 -29.76,-38.99 -86.55,-71.72 -123.52,-34.87z"/>
   <path class="fil10" d="M592.78 1038.62c2.5,1.48 -5.15,-19.64 25.56,-26.97 11.77,-2.29 24.93,-0.2 37.85,5.95 21.57,11.6 42.12,30.57 60.12,55.89l-0.85 1.61c-6.46,12.6 -10.87,24.79 -10.78,36.31 -0.41,8.2 2.86,16.58 7.43,23.01 20.29,29.56 55.1,32.28 54.6,36.71 0.45,-3.9 -33.11,17.79 -70.84,-23.55 -8.03,-9.03 -13.98,-21.61 -14.4,-36.18 0.08,-13.43 5.64,-25.84 14.38,-35.95l1.16 -1.32c-16.37,-17.63 -32.7,-30 -50.15,-38.26 -10.48,-5.74 -18.56,-9.01 -26.53,-8.71 -15.69,-0.83 -25,12.97 -27.57,11.46z"/>
   <path class="fil8" d="M1537.92 747.11c-8.54,0.89 -18.11,-9.09 -29.29,-17.51 -12.74,-9.66 -27.8,-18.4 -48.25,-28.75l-4.34 -1.8c-19.05,-7.28 -39.46,-8.78 -55.65,-8.8 -15.74,-0.02 -30.31,1.6 -36.41,-5.26 -5.84,-6.57 -3.02,-23.47 18.44,-39.09 20.81,-15.18 57.57,-25.56 97.52,-10.83 2.98,1.09 5.94,2.33 8.78,3.65 35.34,15.13 55.23,44.86 60.8,69.14 5.68,24.83 -3.1,38.35 -11.59,39.22l0 0.02z"/>
   <path class="fil9" d="M1658.12 2662.31c-26.85,-175.52 -65.12,-379.64 -119.9,-523.7l-6.91 2.64 6.25 3.93c29.56,-47.29 56.74,-97.34 56.78,-156.21 0,-4.08 -3.31,-7.39 -7.39,-7.39 -4.08,0 -7.4,3.31 -7.4,7.39 0.04,54.08 -25.18,101.52 -54.51,148.36 -1.24,1.97 -1.47,4.37 -0.65,6.54 54.38,142.79 92.7,347.64 119.54,523.43 4.73,-1.66 9.48,-3.27 14.19,-4.99z"/>
   <polygon class="fil11" points="1530.85,1500.68 1842.49,1279.83 1800.78,1417.25 2205.66,1287.19 1705.06,1527.66 1734.53,1400.07 "/>
   <polygon class="fil11" points="1500.49,1622.67 1875.48,1549.98 1780.81,1657.97 2203.31,1706.44 1648.07,1719.1 1727.55,1615 "/>
   <polygon class="fil11" points="783.58,1632.77 416.66,1738.96 501.2,1622.89 76.08,1612.7 627.88,1550.02 558.15,1660.87 "/>
   <polygon class="fil11" points="852.32,1527.52 474.26,1472.97 599.15,1402.08 216.05,1217.5 744.61,1387.94 635.36,1460.18 "/>
  </g>
 </g>
</svg>
