<?xml version="1.0" encoding="UTF-8"?>
<!DOCTYPE svg PUBLIC "-//W3C//DTD SVG 1.1//EN" "http://www.w3.org/Graphics/SVG/1.1/DTD/svg11.dtd">
<!-- Creator: CorelDRAW 2018 (64-Bit) -->
<svg xmlns="http://www.w3.org/2000/svg" xml:space="preserve" width="1.6195in" height="1.86356in" version="1.1" style="shape-rendering:geometricPrecision; text-rendering:geometricPrecision; image-rendering:optimizeQuality; fill-rule:evenodd; clip-rule:evenodd"
viewBox="0 0 521.22 599.77"
 xmlns:xlink="http://www.w3.org/1999/xlink">
 <defs>
  <style type="text/css">
   <![CDATA[
    .fil2 {fill:#F5B6A4;fill-rule:nonzero}
    .fil7 {fill:#F2A38F;fill-rule:nonzero}
    .fil3 {fill:#F0967D;fill-rule:nonzero}
    .fil8 {fill:#EF8C74;fill-rule:nonzero}
    .fil10 {fill:#E3E1ED;fill-rule:nonzero}
    .fil4 {fill:#BF4B4B;fill-rule:nonzero}
    .fil9 {fill:#724D9D;fill-rule:nonzero}
    .fil1 {fill:#5C3D8D;fill-rule:nonzero}
    .fil6 {fill:#383147;fill-rule:nonzero}
    .fil0 {fill:#C3E2F5;fill-rule:nonzero}
    .fil5 {fill:url(#id1)}
   ]]>
  </style>
    <clipPath id="id0">
     <path d="M198.85 222.76c-0.01,0 -0.03,0 -0.05,0 -0.76,0 -1.52,-0.17 -2.33,-0.47 -3.01,-1.12 -5.14,-3.15 -6.4,-5.62 -1.25,-2.47 -1.7,-5.3 -1.7,-8.24 0.01,-8.8 4.01,-19.01 5.52,-24.12 0.21,-0.72 0.87,-1.18 1.58,-1.18 0.15,0 0.32,0.03 0.48,0.07 0.87,0.27 1.36,1.19 1.1,2.07 -1.61,5.28 -5.4,15.29 -5.39,23.17 0,2.62 0.42,4.93 1.35,6.73 0.94,1.81 2.32,3.15 4.6,4.04 0.52,0.19 0.91,0.25 1.16,0.25 0.01,0 0.01,0 0.01,0l0.62 -0.2c0.16,-0.13 0.39,-0.45 0.57,-0.98 0.4,-1.06 0.59,-2.9 0.58,-5.01 0,-3.74 -0.5,-8.36 -0.51,-12.15 0,-1.42 0.07,-2.72 0.29,-3.89 0.24,-1.17 0.6,-2.26 1.51,-3.12 0.58,-0.57 1.46,-0.92 2.31,-0.92 0.02,0 0.03,0 0.05,0 0.51,0 1.01,0.09 1.51,0.25 1.35,0.44 2.31,1.49 2.81,2.58 0.51,1.1 0.7,2.28 0.83,3.49 0.22,2.38 0.12,4.95 0.46,6.72 0.23,1.21 0.62,1.86 1.02,2.11l0.08 0.04 0.07 -0.08c0.21,-0.36 0.45,-1.1 0.63,-2.02 0.36,-1.84 0.46,-4.36 0.46,-6.45 0,-2.15 -0.11,-3.93 -0.13,-4.14 -0.08,-0.92 0.6,-1.71 1.51,-1.79 0.05,0 0.1,0 0.14,0 0.85,0 1.57,0.65 1.64,1.51 0.03,0.37 0.14,2.14 0.14,4.42 -0.02,2.92 -0.14,6.51 -1.05,9.05 -0.32,0.85 -0.71,1.66 -1.53,2.3 -0.46,0.35 -1.09,0.58 -1.74,0.58 -0.01,0 -0.02,0 -0.03,0 -0.75,0 -1.44,-0.28 -2.03,-0.68 -1,-0.66 -1.62,-1.65 -2,-2.63 -0.38,-0.99 -0.54,-2.06 -0.65,-3.11 -0.2,-2.11 -0.14,-4.34 -0.36,-6.03 -0.14,-1.12 -0.42,-1.95 -0.73,-2.32l-0.6 -0.41 -0.46 -0.09 -0.11 0.03 -0.32 0.62c-0.28,0.78 -0.42,2.24 -0.41,3.97 -0.01,3.5 0.5,8.14 0.5,12.15 0,1.71 -0.09,3.32 -0.39,4.75 -0.3,1.42 -0.79,2.74 -1.89,3.73 -0.72,0.64 -1.73,1.01 -2.74,1.01l0 0z"/>
    </clipPath>
  <linearGradient id="id1" gradientUnits="userSpaceOnUse" x1="256.6" y1="214.93" x2="226.65" y2="110.91">
   <stop offset="0" style="stop-opacity:1; stop-color:#F5B6A4"/>
   <stop offset="1" style="stop-opacity:1; stop-color:#DD4140"/>
  </linearGradient>
 </defs>
 <g id="Layer_x0020_1">
  <metadata id="CorelCorpID_0Corel-Layer"/>
  <g id="_1607363759664">
   <path class="fil0" d="M260.61 55.14c143.93,0 260.61,116.68 260.61,260.61 0,143.93 -116.68,260.61 -260.61,260.61 -143.93,0 -260.61,-116.68 -260.61,-260.61 0,-143.93 116.68,-260.61 260.61,-260.61z"/>
   <path class="fil1" d="M372.43 412.89c18.27,67.17 38.54,98.33 54.3,121.12 -46.82,40.94 -108.11,65.76 -175.19,65.76 -66.63,0 -127.55,-24.47 -174.25,-64.92 0.7,-63.33 19.56,-122.82 67.56,-132.02 96.46,-38.16 184.2,-19.4 227.58,10.05z"/>
   <path class="fil2" d="M302.66 314.81c-23.27,22.43 -16.28,65.34 -24.11,92.72 -18.34,9.91 -44.58,9.69 -50.81,-15.21 6.3,-26.11 -2.55,-52.38 -6.3,-78.62 12.35,-18.73 46.37,-17.43 64.9,-10.01 6.5,2.6 11.52,10.44 16.32,11.12z"/>
   <path class="fil3" d="M340.84 150.73c28.39,-35.43 47.08,2.71 39.54,36.21 13.58,33.97 -0.84,49.99 -25,42.26 -24.51,-33.36 -26.66,-61.76 -14.54,-78.48z"/>
   <path class="fil4" d="M225.29 335.45c19.16,9.74 38.95,26.98 58.56,32.66 1.93,-19.97 5.17,-40.15 18.81,-53.3l0 0c-4.8,-0.68 -9.82,-8.52 -16.32,-11.12 -18.53,-7.41 -52.56,-8.72 -64.9,10.01 1.04,7.25 2.46,14.5 3.85,21.75z"/>
   <path class="fil5" d="M285.27 337.11l0 -0.04 -1.6 0c-2.27,-0.07 -4.53,-0.21 -6.78,-0.42l0 -0.02 -0.23 0c-1.25,-0.12 -2.5,-0.26 -3.74,-0.43l0 -0.01 -0.11 0c-1.74,-0.23 -3.47,-0.51 -5.19,-0.83l0 -0.05 -0.3 0c-0.64,-0.12 -1.28,-0.25 -1.91,-0.38l0 -0.06 -0.28 0c-0.64,-0.14 -1.29,-0.28 -1.92,-0.43l0 -0.01 -0.05 0c-0.57,-0.14 -1.15,-0.27 -1.71,-0.42l0 -0.02 -0.09 0c-1.01,-0.26 -2.01,-0.53 -3,-0.82l0 -0.06 -0.21 0c-0.69,-0.2 -1.37,-0.41 -2.05,-0.63 -4.98,-0.5 -9.66,-1.02 -14.06,-1.57l0 -0.01 -0.06 0c-5.56,-0.69 -10.67,-1.42 -15.38,-2.19l0 -0.01 -0.08 0c-0.87,-0.14 -1.72,-0.29 -2.57,-0.44l0 -0 -0.02 0c-3.96,-0.69 -7.63,-1.42 -11.01,-2.19l0 -0.02 -0.08 0c-6.3,-1.44 -11.65,-3.03 -16.24,-4.82l0 -0.03 -0.07 0c-0.73,-0.29 -1.44,-0.58 -2.13,-0.87l0 -0.01 -0.02 0c-3.15,-1.35 -5.91,-2.8 -8.36,-4.38l0 -0.03 -0.05 0c-2.12,-1.37 -4,-2.84 -5.68,-4.41l0 -0 -0 0c-0.14,-0.14 -0.3,-0.27 -0.44,-0.41l0 -0.04 -0.04 0 -0.41 -0.41 0 -0.03 -0.03 0c-0.29,-0.29 -0.57,-0.58 -0.85,-0.87l0 -0.01 -0.01 0c-1.29,-1.38 -2.46,-2.84 -3.52,-4.38l0 -0.03 -0.02 0c-0.29,-0.43 -0.58,-0.86 -0.86,-1.3l0 -0.02 -0.02 0c-3.57,-5.62 -5.96,-12.3 -8.36,-20.29l0 -0 -0 0c-4.07,-13.56 -8.18,-30.91 -18.14,-53.41 -0.73,-0.98 -1.44,-1.96 -2.14,-2.93l0 -0.11 -0.08 0 -0.8 -1.11 0 -0.21 -0.15 0 -0.29 -0.42 0 -0.02 -0.02 0 -0.42 -0.61 0 -0.27 -0.19 0 -0.25 -0.35 0 -0.09 -0.06 0c-0.27,-0.39 -0.55,-0.78 -0.82,-1.17l0 -0.15 -0.11 0c-0.27,-0.39 -0.52,-0.77 -0.78,-1.16l0 -0.16 -0.11 0 -0.77 -1.15 0 -0.17 -0.12 0c-0.25,-0.38 -0.52,-0.77 -0.77,-1.15l0 -0.17 -0.11 0c-0.26,-0.4 -0.51,-0.8 -0.77,-1.2l0 -0.12 -0.08 0c-1.04,-1.62 -2.05,-3.23 -3.01,-4.83l0 -0.03 -0.02 0 -0.42 -0.69 0 -0.19 -0.11 0c-0.42,-0.7 -0.81,-1.4 -1.22,-2.09l0 -0.12 -0.07 0 -0.38 -0.64 0 -0.24 -0.14 0 -0.3 -0.53 0 -0.35 -0.19 0 -0.69 -1.25 0 -0.07 -0.04 0 -0.4 -0.73 0 -0.15 -0.08 0 -0.36 -0.64 0 -0.24 -0.13 0c-1.21,-2.27 -2.35,-4.51 -3.4,-6.74l0 -0.32 -0.15 0 -0.29 -0.63 0 -0.25 -0.11 0 -0.33 -0.71 0 -0.17 -0.08 0 -0.36 -0.79 0 -0.09 -0.04 0 -0.4 -0.9 0 -0.43 -0.18 0 -0.26 -0.6 0 -0.28 -0.12 0 -0.32 -0.75 0 -0.13 -0.06 0c-0.28,-0.67 -0.55,-1.35 -0.82,-2.01l0 -0.19 -0.08 0c-0.76,-1.91 -1.48,-3.81 -2.13,-5.69l0 -0.49 -0.16 0 -0.28 -0.83 0 -0.49 -0.16 0c-0.09,-0.27 -0.19,-0.55 -0.28,-0.82l0 -0.5 -0.16 0 -0.28 -0.93 0 -0.39 -0.12 0 -0.32 -1.06 0 -0.26 -0.08 0c-0.13,-0.44 -0.24,-0.87 -0.36,-1.3l0 -0.02 -0.01 0c-0.31,-1.13 -0.61,-2.26 -0.88,-3.37l0 -0.15 -0.04 0c-0.14,-0.56 -0.28,-1.13 -0.4,-1.69l0 -0.52 -0.11 0c-0.12,-0.54 -0.23,-1.07 -0.33,-1.6l0 -0.6 -0.12 0c-0.11,-0.58 -0.22,-1.15 -0.32,-1.73l0 -0.92 -0.16 0c-0.1,-0.59 -0.19,-1.18 -0.28,-1.76l0 -0.44 -0.06 0c-0.14,-0.99 -0.27,-1.97 -0.38,-2.95l0 -1.02 -0.11 0c-0.15,-1.45 -0.26,-2.88 -0.33,-4.3l0 -2.75 -0.1 0c-0.03,-1.49 -0.02,-2.95 0.03,-4.41l0.07 0 0 -1.65c0.07,-1.23 0.16,-2.44 0.28,-3.64l0.17 0 0 -1.57c0.2,-1.7 0.45,-3.39 0.76,-5.05l0.12 0 0 -0.59c0.11,-0.54 0.21,-1.08 0.33,-1.62l0.11 0 0 -0.53c0.09,-0.41 0.2,-0.82 0.3,-1.23l0.15 0 0 -0.6c0.13,-0.54 0.28,-1.07 0.42,-1.6l0.02 0 0 -0.07c0.4,-1.46 0.84,-2.91 1.32,-4.34l0 0 0 -0.01c0.1,-0.29 0.21,-0.58 0.31,-0.88l0.13 0 0 -0.37c0.11,-0.32 0.22,-0.64 0.34,-0.95l0.1 0 0 -0.27c0.13,-0.35 0.28,-0.7 0.41,-1.05l0.03 0 0 -0.07c0.11,-0.27 0.21,-0.55 0.32,-0.81l0.12 0 0 -0.31c0.14,-0.34 0.29,-0.68 0.44,-1.02l0 0 0 -0c0.64,-1.49 1.33,-2.96 2.06,-4.41l0.15 0 0 -0.29 0.31 -0.6 0.13 0 0 -0.26 0.32 -0.62 0.12 0 0 -0.21 0.37 -0.67 0.07 0 0 -0.12 0.42 -0.76 0.02 0 0 -0.04c0.93,-1.64 1.92,-3.24 2.96,-4.82l0.13 0 0 -0.18c0.25,-0.38 0.52,-0.76 0.78,-1.14l0.1 0 0 -0.15c0.27,-0.39 0.55,-0.79 0.83,-1.18l0.05 0 0 -0.07 0.27 -0.37 0.17 0 0 -0.23c0.27,-0.36 0.53,-0.73 0.8,-1.09l0.08 0 0 -0.1c1.11,-1.47 2.28,-2.9 3.48,-4.31l0.04 0 0 -0.05 0.34 -0.39 0.1 0 0 -0.12 0.29 -0.33 0.15 0 0 -0.18c2.68,-3.03 5.57,-5.91 8.66,-8.64l0.16 0 0 -0.14 0.34 -0.3 0.1 0 0 -0.09 0.4 -0.35 0.04 0 0 -0.04c1.56,-1.35 3.16,-2.66 4.8,-3.93l0.05 0 0 -0.04c0.56,-0.43 1.13,-0.86 1.7,-1.29l0.06 0 0 -0.05c0.38,-0.28 0.76,-0.56 1.14,-0.83l0.18 0 0 -0.13 0.43 -0.31 0.01 0 0 -0.01 1.23 -0.87 0.09 0 0 -0.06c1.26,-0.88 2.54,-1.74 3.85,-2.58l0.12 0 0 -0.08c0.42,-0.27 0.85,-0.53 1.28,-0.8l0.05 0 0 -0.03c0.7,-0.44 1.4,-0.87 2.11,-1.29l0.1 0 0 -0.06c0.71,-0.43 1.43,-0.85 2.15,-1.26l0.06 0 0 -0.03c1.29,-0.74 2.59,-1.47 3.91,-2.17l0.06 0 0 -0.03 0.78 -0.41 0.1 0 0 -0.05 0.75 -0.39 0.14 0 0 -0.07 0.71 -0.37 0.17 0 0 -0.09 0.71 -0.35 0.17 0 0 -0.09 0.72 -0.35 0.17 0 0 -0.08 0.73 -0.36 0.16 0 0 -0.08 0.77 -0.36 0.11 0 0 -0.05 0.82 -0.39 0.06 0 0 -0.03c0.29,-0.14 0.58,-0.28 0.87,-0.41 0.65,-0.3 1.31,-0.6 1.96,-0.89l0.26 0 0 -0.12 0.74 -0.32 0.14 0 0 -0.06 0.88 -0.38 0.45 0 0 -0.19 0.59 -0.25 0.29 0 0 -0.12 0.78 -0.32 0.55 0 0 -0.23 0.54 -0.22 0.35 0 0 -0.14 0.76 -0.3 0.57 0 0 -0.22 0.56 -0.22 0.76 0 0 -0.29 0.39 -0.15 0.49 0 0 -0.18 0.69 -0.26 0.63 0 0 -0.23 0.58 -0.21 0.31 0 0 -0.11 0.92 -0.33 0.4 0 0 -0.14 0.87 -0.3 0.02 0 0 -0.01 1.28 -0.44 0.04 0 0 -0.01c1.35,-0.45 2.71,-0.89 4.07,-1.31l0.34 0 0 -0.1 1.11 -0.34 0.65 0 0 -0.19 0.85 -0.25 0.48 0 0 -0.14 1.07 -0.3 0.69 0 0 -0.19 0.91 -0.25 0.86 0 0 -0.23 0.8 -0.21 0.97 0 0 -0.25 0.77 -0.19 0.56 0 0 -0.14 1.24 -0.3 0.53 0 0 -0.13 1.35 -0.32 0.41 0 0 -0.09 1.56 -0.35 0.2 0 0 -0.04 1.88 -0.4 0.33 0 0 -0.07c0.63,-0.13 1.26,-0.25 1.89,-0.37l0.76 0 0 -0.14 1.6 -0.3 1.05 0 0 -0.19 1.49 -0.25 1.16 0 0 -0.19 1.61 -0.25 1.48 0 0 -0.22 1.6 -0.22 1.05 0 0 -0.14c0.82,-0.11 1.64,-0.21 2.47,-0.3l0.18 0 0 -0.02c1.34,-0.15 2.67,-0.29 4.01,-0.42l1.73 0 0 -0.15c1.29,-0.11 2.59,-0.21 3.88,-0.29l4.5 0 0 -0.23c2.4,-0.1 4.78,-0.14 7.16,-0.14 3.82,0 7.62,0.12 11.37,0.37l0 0.01 0.09 0c1.6,0.11 3.18,0.23 4.76,0.39l0 0.06 0.59 0c2.33,0.23 4.63,0.51 6.91,0.84l0 0.04 0.28 0c0.79,0.12 1.58,0.24 2.37,0.37l0 0.08 0.46 0c2.23,0.37 4.43,0.79 6.6,1.26l0 0.06 0.3 0c0.64,0.14 1.27,0.28 1.91,0.43l0 0.01 0.05 0c0.57,0.13 1.15,0.27 1.72,0.41l0 0.03 0.12 0c0.55,0.14 1.1,0.28 1.65,0.42l0 0.02 0.08 0 1.15 0.31c0.62,0.17 1.24,0.35 1.86,0.53l0 0.05 0.16 0 1.16 0.34 0 0.1 0.32 0c2.6,0.8 5.14,1.67 7.62,2.62l0 0.03 0.07 0c0.72,0.28 1.43,0.56 2.13,0.85l0 0.03 0.07 0 0.81 0.34 0 0.11 0.25 0c0.66,0.28 1.31,0.57 1.96,0.86l0 0.02 0.06 0 0.83 0.38 0 0.07 0.14 0c1.45,0.67 2.88,1.38 4.27,2.11l0 0.09 0.18 0 0.71 0.38 0 0.06 0.12 0 0.76 0.42 0 0.02 0.04 0c0.73,0.41 1.45,0.82 2.17,1.25l0 0.07 0.13 0c1.16,0.69 2.29,1.41 3.4,2.15l0 0.06 0.08 0c0.42,0.28 0.83,0.56 1.24,0.85l0 0.04 0.05 0 0.39 0.27 0 0.17 0.24 0c0.37,0.26 0.73,0.52 1.09,0.79l0 0.09 0.12 0c0.55,0.41 1.1,0.83 1.64,1.25l0 0.07 0.09 0c0.72,0.57 1.43,1.15 2.12,1.74l0 0.03 0.03 0 0.41 0.35 0 0.09 0.1 0 0.34 0.3 0 0.14 0.16 0c2.15,1.91 4.16,3.94 6.01,6.09l0 0.09 0.08 0 0.36 0.43 0 0.01 0.01 0c0.29,0.35 0.58,0.7 0.87,1.05l0 0.27 0.22 0 0.23 0.29 0 0.15 0.12 0 0.32 0.41 0 0.03 0.02 0c0.29,0.38 0.58,0.76 0.86,1.15l0 0.18 0.13 0 0.31 0.43 0 0.01 0.01 0c0.3,0.42 0.59,0.84 0.88,1.27l0 0.06 0.04 0c0.29,0.43 0.57,0.86 0.85,1.29l0 0.03 0.02 0 0.42 0.68 0 0.2 0.13 0c0.26,0.42 0.51,0.85 0.76,1.28l0 0.05 0.03 0 0.42 0.74 0 0.15 0.08 0 0.36 0.67 0 0.21 0.11 0 0.33 0.64 0 0.25 0.13 0 0.31 0.63 0 0.25 0.12 0c0.59,1.21 1.14,2.45 1.64,3.72l0 0.25 0.1 0 0.34 0.88 0 0.44 0.16 0 0.28 0.77 0 0.55 0.19 0 0.25 0.76 0 0.12 0.04 0c0.14,0.43 0.27,0.87 0.4,1.3l0 0.02 0.01 0c0.16,0.55 0.32,1.1 0.47,1.66 0.14,0.32 0.27,0.64 0.41,0.96l0 0.03 0.01 0c0.31,0.73 0.6,1.46 0.87,2.2l0 0.01 0 0c0.15,0.42 0.3,0.83 0.44,1.25l0 0.07 0.03 0c0.14,0.43 0.28,0.86 0.41,1.29l0 0.03 0.01 0c0.52,1.69 0.96,3.38 1.31,5.08l0 0.22 0.04 0c0.15,0.71 0.28,1.42 0.4,2.12l0 0.08 0.01 0c0.17,0.98 0.31,1.96 0.43,2.94l0 0.14 0.02 0c0.19,1.62 0.33,3.24 0.42,4.86l0 0.88 0.05 0c1.18,26.08 -9.55,51.45 11.05,66.92l1.25 2.28 0 0.05 0.02 0c1.24,2.28 2.41,4.48 3.5,6.6l0 0.02 0.01 0 0.43 0.84 0 0.05 0.02 0 0.42 0.82 0 0.06 0.03 0 0.41 0.81 0 0.07 0.03 0 0.41 0.82 0 0.07 0.03 0 0.41 0.82 0 0.06 0.03 0 0.41 0.85 0 0.03 0.02 0 0.42 0.88 0 0 0 0c0.79,1.65 1.52,3.25 2.2,4.8l0 0.05 0.02 0c0.46,1.04 0.89,2.07 1.3,3.08l0 0.01 0 0c0.47,1.16 0.91,2.29 1.32,3.41l0 0.12 0.04 0c0.66,1.8 1.23,3.54 1.72,5.24l0 0.06 0.02 0c0.53,1.85 0.97,3.65 1.31,5.41l0 0.32 0.06 0c0.88,4.76 1.02,9.24 0.41,13.67l-0.03 0 0 0.21c-0.12,0.81 -0.26,1.63 -0.43,2.44l-0.02 0 0 0.07c-0.24,1.15 -0.53,2.3 -0.87,3.45l-0.01 0 0 0.04c-0.13,0.43 -0.26,0.85 -0.4,1.28l-0.04 0 0 0.12c-0.13,0.4 -0.27,0.8 -0.41,1.2l-0.03 0 0 0.07c-0.73,2 -1.61,4.03 -2.64,6.1l-0.01 0 0 0.01c-1.35,2.7 -2.96,5.47 -4.84,8.37l-0.01 0 0 0.02 -0.86 1.3 -0.03 0 0 0.04 -0.87 1.28 -0.01 0 0 0.02c-0.69,1.01 -1.41,2.03 -2.16,3.07l-0.04 0 0 0.06c-2.11,2.91 -4.46,5.97 -7.05,9.2l-0 0 0 0c-1.26,1.57 -2.58,3.19 -3.96,4.85l-0.01 0 0 0.01c-0.72,0.86 -1.46,1.74 -2.21,2.64l-0.92 1.09c-0.1,0.82 -0.23,1.64 -0.37,2.44l-0.03 0 0 0.2c-0.12,0.68 -0.27,1.34 -0.43,2l-0.01 0 0 0.06c-0.14,0.58 -0.28,1.14 -0.44,1.71l0 0c-0.13,0.44 -0.26,0.89 -0.4,1.32l-0.04 0 0 0.14c-0.13,0.4 -0.26,0.79 -0.4,1.18l-0.04 0 0 0.11c-1.13,3.12 -2.61,6.02 -4.4,8.71l-0.01 0 0 0.02c-0.8,1.21 -1.67,2.38 -2.6,3.51l-0.05 0 0 0.06c-2.4,2.91 -5.2,5.54 -8.31,7.88l-0.07 0 0 0.05c-0.99,0.75 -2.02,1.46 -3.08,2.15l-0.01 0 0 0.01c-1.69,1.1 -3.46,2.13 -5.29,3.08l-0.01 0 0 0 -0.85 0.44 -0.03 0 0 0.01 -0.87 0.43 -0.02 0 0 0.01c-1.28,0.62 -2.59,1.21 -3.93,1.76l-0.04 0 0 0.02c-0.73,0.3 -1.46,0.59 -2.2,0.86l-0 0 0 0c-0.4,0.15 -0.8,0.3 -1.2,0.44l-0.12 0 0 0.04c-1.28,0.46 -2.59,0.88 -3.91,1.28l-0.06 0 0 0.02c-1.02,0.31 -2.05,0.59 -3.09,0.86l-0 0c-0.58,0.15 -1.17,0.3 -1.76,0.44l-0.01 0 0 0c-2.16,0.52 -4.36,0.95 -6.58,1.32l-0.04 0 0 0.01c-0.97,0.16 -1.94,0.3 -2.91,0.43l-0.18 0 0 0.02c-1.21,0.16 -2.42,0.3 -3.64,0.42l-0.33 0 0 0.03c-2.21,0.21 -4.43,0.34 -6.66,0.41l-1.28 0 0 0.03c-0.64,0.01 -1.27,0.02 -1.91,0.02 -0.54,0 -1.08,-0 -1.62,-0.01zm-89.79 -153.97c-0.71,0 -1.37,0.46 -1.58,1.18 -1.52,5.11 -5.51,15.32 -5.53,24.13 0,2.95 0.45,5.78 1.71,8.25 1.25,2.46 3.39,4.49 6.4,5.61 0.8,0.3 1.57,0.47 2.33,0.47 0.01,0 0.03,0 0.05,0 1.01,0 2.01,-0.37 2.73,-1.01 1.11,-0.99 1.59,-2.31 1.9,-3.73 0.3,-1.43 0.39,-3.03 0.39,-4.75 -0,-4.01 -0.51,-8.65 -0.51,-12.15 -0.01,-1.73 0.14,-3.18 0.41,-3.97l0.32 -0.63 0.1 -0.03 0.46 0.09 0.6 0.42c0.3,0.37 0.59,1.2 0.73,2.32 0.23,1.69 0.16,3.91 0.36,6.02 0.11,1.06 0.27,2.11 0.65,3.11 0.38,0.99 1,1.97 2,2.63 0.59,0.4 1.27,0.68 2.03,0.68 0.01,0 0.02,0 0.03,0 0.64,0 1.28,-0.24 1.74,-0.6 0.82,-0.63 1.22,-1.45 1.54,-2.3 0.9,-2.55 1.03,-6.13 1.05,-9.05 0,-2.28 -0.11,-4.05 -0.14,-4.43 -0.07,-0.86 -0.79,-1.51 -1.64,-1.51 -0.05,0 -0.09,0 -0.14,0.01 -0.91,0.07 -1.58,0.88 -1.51,1.79 0.01,0.18 0.09,1.34 0.12,2.9l0 0c0.01,0.39 0.01,0.81 0.01,1.25l-0 0.51 -0.01 0 0 0.81c-0.04,1.77 -0.17,3.66 -0.45,5.13 -0.12,0.62 -0.27,1.17 -0.42,1.56l-0.01 0 0 0.03c-0.07,0.17 -0.13,0.31 -0.2,0.42l-0.06 0.09 -0.08 -0.04c-0.41,-0.26 -0.79,-0.9 -1.02,-2.11 -0.35,-1.77 -0.24,-4.34 -0.47,-6.73 -0.12,-1.2 -0.32,-2.38 -0.83,-3.48 -0.5,-1.09 -1.45,-2.14 -2.8,-2.57 -0.49,-0.17 -1,-0.26 -1.51,-0.26 -0.02,0 -0.03,0 -0.05,0 -0.85,0 -1.72,0.35 -2.31,0.92 -0.91,0.87 -1.26,1.96 -1.5,3.12 -0.22,1.17 -0.29,2.47 -0.29,3.89 0,3.78 0.51,8.41 0.51,12.15 0.01,1.69 -0.11,3.2 -0.36,4.27l-0.05 0 0 0.22c-0.05,0.19 -0.1,0.36 -0.16,0.51 -0.09,0.24 -0.18,0.44 -0.27,0.59l-0.01 0 0 0.02c-0.1,0.17 -0.21,0.29 -0.29,0.36l-0.61 0.2c-0.01,0 -0.01,0 -0.01,0 -0.26,0 -0.64,-0.06 -1.16,-0.26 -1.36,-0.52 -2.4,-1.21 -3.22,-2.06l0 -0.03 -0.03 0c-0.54,-0.57 -0.99,-1.22 -1.36,-1.94 -0.68,-1.33 -1.09,-2.93 -1.26,-4.72l0 -0.84 -0.06 0c-0.02,-0.38 -0.03,-0.78 -0.03,-1.17 -0,-0.34 0.01,-0.68 0.02,-1.03l0.07 0 0 -1.2c0.08,-1.05 0.22,-2.13 0.39,-3.21l0.05 0 0 -0.3c0.23,-1.37 0.52,-2.74 0.85,-4.11l0.03 0 0 -0.13c0.13,-0.55 0.27,-1.1 0.42,-1.64l0.02 0 0 -0.09c0.27,-1.02 0.56,-2.02 0.85,-3l0.03 0 0 -0.11c0.97,-3.26 1.99,-6.2 2.65,-8.35 0.26,-0.87 -0.23,-1.8 -1.11,-2.06 -0.16,-0.05 -0.32,-0.07 -0.48,-0.07l0 0z"/>
   <g style="clip-path:url(#id0)">
    <image x="184.22" y="179.58" width="34.05" height="46.84" xlink:href="demam_Images\demam_ImgID1.png"/>
   </g>
   <path class="fil6" d="M162.37 231.32c27.08,-1.93 21.14,-44.67 10.5,-60.63 19.81,-3.92 30.56,-18.81 30.56,-37.05 18.53,8.5 33.29,-8.09 34.74,-25.47 15.49,7.92 47.7,2.87 47.7,-18.99 5.47,17.87 25.58,29.92 42.15,16.67 5.87,22.07 33.34,15.03 33.34,-7.41 17.43,-9.34 15.03,-47.3 -7.87,-40.76 5.46,-18 -16.81,-45.61 -32.88,-26.86 -2.73,-25.54 -28.67,-35.88 -48.63,-19.92 -18.85,-15.72 -47.94,-16.34 -56.04,10.65 -25.32,-17.19 -56.96,1.34 -56.96,30.11 -22.12,-5.8 -51.02,25.49 -36.59,43.53 -23.94,4.58 -28.95,61.6 -2.78,61.6 -13.05,12.08 -11.79,39.73 8.34,42.61 -6.33,16.42 9.56,26.67 24.54,25.01 5.4,0.22 7.08,3.09 9.87,6.91z"/>
   <path class="fil3" d="M153.93 210.63c-43.5,-12.99 -37.18,29.01 -11.92,52.28 8.14,35.66 29.12,40.63 44.6,20.54 1.19,-41.37 -13.2,-65.96 -32.67,-72.81z"/>
   <path class="fil6" d="M231.6 217.09c-0.66,-0.1 -1.26,-2.28 -0.13,-5.73 1.13,-3.45 3.96,-7.67 8.96,-10.46l0.22 -0.13c10.55,-5.82 18.88,-1.8 18.74,-0.81 -0.21,1.47 -8.31,1.2 -16.13,5.53l-0.18 0.1c-3.87,2.21 -6.49,5 -8.23,7.42 -1.68,2.34 -2.48,4.2 -3.24,4.08z"/>
   <path class="fil6" d="M312.27 181.81c-0.54,-0.42 -0.06,-2.48 2.28,-4.94 2.35,-2.48 6.29,-4.96 11.49,-5.81l0.19 -0.03c5.2,-0.9 9.74,0.28 12.69,2.01 2.94,1.72 3.88,3.62 3.45,4.15 -0.48,0.59 -2.23,-0.13 -4.85,-0.65 -2.77,-0.56 -6.22,-0.82 -10.42,-0.18l-0.15 0.03c-4.22,0.75 -7.5,2.13 -10.06,3.48 -2.44,1.29 -4.01,2.42 -4.61,1.95z"/>
   <path class="fil4" d="M307.18 149.39c0.75,0.69 -7.92,10.28 -8.01,26.85 0,7.38 2.38,16.91 9.28,22.02l0.95 0.65c5.24,2.1 10.25,5.77 12.18,11.53 1.34,5.13 -0.49,9.91 -2.81,13.17 -10.82,15.83 -24.08,15.67 -23.64,16.55 -0.45,-0.89 11.68,-5.44 19.71,-19.06 1.56,-2.82 2.93,-6.4 1.82,-9.13 -1,-3.65 -5.16,-6.06 -9.85,-8.36 -0.41,-0.29 -0.82,-0.58 -1.22,-0.89 -8.91,-6.93 -11.63,-18.08 -11.14,-26.63 1.06,-20.11 12.72,-26.71 12.73,-26.71z"/>
   <path class="fil7" d="M221.32 229.36c11.93,0 21.61,6.59 21.61,14.74 0,8.14 -9.68,14.74 -21.61,14.74 -11.94,0 -21.62,-6.6 -21.62,-14.74 0,-8.14 9.68,-14.74 21.62,-14.74z"/>
   <path class="fil7" d="M340.65 192.82c6.47,-7.07 15.77,-9.34 20.76,-5.08 4.99,4.26 3.79,13.45 -2.69,20.51 -6.47,7.07 -15.77,9.34 -20.77,5.08 -4.99,-4.26 -3.79,-13.44 2.69,-20.51z"/>
   <path class="fil8" d="M132.58 232.29c-3.64,11.9 7.61,14.08 12.11,21.96 3.67,9.63 6.62,23.21 18.67,25.22 13.9,2.31 6.39,-19.14 8.13,-17.53 -13.85,-0.35 -22.82,-14.94 -11.27,-21.84 -6.66,-8.72 -19.37,-16.04 -27.64,-7.8z"/>
   <path class="fil4" d="M132.58 232.29c0.57,0.33 -1.15,-4.39 5.72,-6.03 2.63,-0.51 5.58,-0.05 8.46,1.33 4.83,2.59 9.42,6.84 13.46,12.5l-0.19 0.36c-1.45,2.81 -2.44,5.54 -2.42,8.12 -0.09,1.84 0.64,3.71 1.66,5.15 4.54,6.61 12.33,7.21 12.22,8.21 0.1,-0.88 -7.4,3.97 -15.85,-5.27 -1.79,-2.02 -3.12,-4.83 -3.22,-8.09 0.02,-3 1.27,-5.78 3.22,-8.05l0.26 -0.29c-3.66,-3.95 -7.31,-6.71 -11.21,-8.56 -2.35,-1.28 -4.15,-2.02 -5.93,-1.95 -3.51,-0.19 -5.59,2.9 -6.17,2.56z"/>
   <path class="fil6" d="M343.96 167.1c-1.91,0.2 -4.05,-2.03 -6.55,-3.92 -2.85,-2.16 -6.22,-4.11 -10.79,-6.43l-0.97 -0.4c-4.26,-1.63 -8.82,-1.97 -12.45,-1.97 -3.51,0 -6.77,0.36 -8.14,-1.18 -1.31,-1.47 -0.68,-5.25 4.12,-8.74 4.66,-3.39 12.87,-5.72 21.81,-2.42 0.67,0.25 1.32,0.52 1.96,0.82 7.9,3.38 12.35,10.03 13.6,15.46 1.27,5.56 -0.69,8.58 -2.59,8.78z"/>
   <path class="fil9" d="M367.29 573.36c-5.7,-33.44 -13.25,-68.73 -23.26,-95.05l-1.55 0.59 1.4 0.88c6.61,-10.57 12.69,-21.77 12.7,-34.94 0,-0.91 -0.74,-1.65 -1.65,-1.65 -0.91,0 -1.65,0.74 -1.65,1.65 0.01,12.09 -5.63,22.71 -12.2,33.18 -0.27,0.44 -0.33,0.98 -0.14,1.47 9.98,26.19 17.53,61.72 23.24,95.34 1.04,-0.49 2.08,-0.96 3.11,-1.46z"/>
   <path class="fil6" d="M276.57 285.99c7.21,-26.05 55.13,-38.66 56.17,-27.82 -11.79,12.84 -42.66,6.46 -56.17,27.82z"/>
   <path class="fil9" d="M181.44 590.43c-3.68,-26.08 -8.26,-52.17 -15.75,-77.15l-0.21 -0.44c-8.72,-13.06 -14.51,-27.7 -19.86,-42.7 -0.31,-0.86 -1.26,-1.31 -2.12,-1 -0.86,0.31 -1.31,1.26 -1,2.12 5.38,15.06 11.25,29.97 20.23,43.42l1.38 -0.92 -1.58 0.48c7.29,24.28 11.8,49.71 15.44,75.24 1.16,0.33 2.32,0.64 3.48,0.96z"/>
   <path class="fil6" d="M213.59 199c-2.63,-0.27 -8.73,-13.83 3.45,-30.16 0.95,-1.27 2.02,-2.47 3.2,-3.62 3.82,-3.67 8.35,-6.11 12.96,-7.33 15.46,-3.63 22.1,4.91 21.61,6.85 -0.82,3.24 -9.69,3.14 -16.85,7.12 -2.26,1.12 -4.49,2.74 -6.67,4.84 -0.68,0.66 -1.33,1.34 -1.95,2.03 -3.95,4.4 -6.89,9.84 -9.25,13.73 -2.42,3.99 -4.45,6.76 -6.5,6.54z"/>
   <path class="fil10" d="M311.7 117.47c-1.11,1.8 1.85,4.91 3.96,4.94 1.53,0.02 3.47,-2.05 2.97,-3.5 -0.77,-2.23 -5.69,-3.45 -6.92,-1.45z"/>
   <path class="fil10" d="M314.83 126.47c-0.71,1.15 1.18,3.13 2.52,3.15 0.97,0.02 2.21,-1.31 1.89,-2.23 -0.49,-1.42 -3.63,-2.2 -4.41,-0.92z"/>
   <path class="fil10" d="M303.61 124.59c-1.03,1.67 1.71,4.56 3.67,4.59 1.42,0.02 3.21,-1.91 2.75,-3.25 -0.71,-2.07 -5.28,-3.21 -6.42,-1.34z"/>
  </g>
 </g>
</svg>
