<?xml version="1.0" encoding="UTF-8"?>
<!DOCTYPE svg PUBLIC "-//W3C//DTD SVG 1.1//EN" "http://www.w3.org/Graphics/SVG/1.1/DTD/svg11.dtd">
<!-- Creator: CorelDRAW 2018 (64-Bit) -->
<svg xmlns="http://www.w3.org/2000/svg" xml:space="preserve" width="1.61949in" height="1.83818in" version="1.1" style="shape-rendering:geometricPrecision; text-rendering:geometricPrecision; image-rendering:optimizeQuality; fill-rule:evenodd; clip-rule:evenodd"
viewBox="0 0 232.44 263.82"
 xmlns:xlink="http://www.w3.org/1999/xlink">
 <defs>
  <style type="text/css">
   <![CDATA[
    .fil11 {fill:#F7CF50}
    .fil2 {fill:#F5B6A4;fill-rule:nonzero}
    .fil7 {fill:#F2A38F;fill-rule:nonzero}
    .fil3 {fill:#F0967D;fill-rule:nonzero}
    .fil8 {fill:#EF8C74;fill-rule:nonzero}
    .fil9 {fill:#E3726F;fill-rule:nonzero}
    .fil4 {fill:#BF4B4B;fill-rule:nonzero}
    .fil10 {fill:#724D9D;fill-rule:nonzero}
    .fil1 {fill:#5C3D8D;fill-rule:nonzero}
    .fil6 {fill:#383147;fill-rule:nonzero}
    .fil0 {fill:#C3E2F5;fill-rule:nonzero}
    .fil5 {fill:url(#id0)}
   ]]>
  </style>
  <linearGradient id="id0" gradientUnits="userSpaceOnUse" x1="108.2" y1="95.77" x2="116.67" y2="34.21">
   <stop offset="0" style="stop-opacity:1; stop-color:#F5B6A4"/>
   <stop offset="1" style="stop-opacity:1; stop-color:#67519F"/>
  </linearGradient>
 </defs>
 <g id="Layer_x0020_1">
  <metadata id="CorelCorpID_0Corel-Layer"/>
  <g id="_1607344230912">
   <path class="fil0" d="M96.46 21.2c-63.24,10.91 -105.66,71.02 -94.75,134.26 10.91,63.24 71.02,105.66 134.26,94.75 63.24,-10.91 105.66,-71.02 94.75,-134.26 -10.91,-63.24 -71.02,-105.66 -134.26,-94.75z"/>
   <path class="fil1" d="M73.11 191.38c-3.07,32.25 -10.06,47.43 -15.35,58.78 16.52,8.72 35.34,13.66 55.32,13.66 40.06,0 75.49,-19.84 96.99,-50.24 -6.06,-23.9 -18.34,-43.52 -37.74,-43.88 -45.27,-9.45 -82.4,5.44 -99.23,21.67z"/>
   <path class="fil2" d="M96.33 143c11.92,8.09 12.11,27.47 17.62,38.91 8.81,2.97 20.32,0.88 21.17,-10.53 -4.75,-11 -2.85,-23.21 -3.19,-35.02 -6.85,-7.29 -21.69,-4.14 -29.28,0.52 -2.66,1.64 -4.27,5.46 -6.33,6.13z"/>
   <path class="fil3" d="M67.11 73.8c-15.16,-13.42 -20.48,4.76 -14.63,18.91 -3.39,15.96 4.16,21.9 14.19,16.67 8.24,-16.51 7.03,-29.16 0.44,-35.58z"/>
   <path class="fil4" d="M131.89 146.2c-7.68,5.73 -15.07,14.8 -23.25,18.79 -2.36,-8.63 -5.32,-17.25 -12.3,-21.99l0 0c2.06,-0.66 3.67,-4.49 6.33,-6.13 7.58,-4.66 22.43,-7.81 29.27,-0.52 0.09,3.26 0.02,6.56 -0.04,9.85z"/>
   <path class="fil5" d="M93.31 152.12l0 -0.03 -0.29 0c-0.5,-0.05 -0.99,-0.11 -1.48,-0.17l0 -0.02 -0.15 0c-0.41,-0.06 -0.82,-0.12 -1.23,-0.19l0 -0 -0.01 0c-0.32,-0.06 -0.65,-0.12 -0.97,-0.19l0 -0.01 -0.05 0c-0.78,-0.16 -1.56,-0.35 -2.31,-0.57l0 -0.02 -0.07 0c-0.18,-0.05 -0.35,-0.1 -0.52,-0.16l0 -0.04 -0.13 0c-0.9,-0.28 -1.77,-0.61 -2.62,-0.97l0 -0.02 -0.04 0c-0.12,-0.05 -0.24,-0.1 -0.35,-0.15l0 -0.04 -0.1 0c-0.78,-0.35 -1.54,-0.74 -2.26,-1.17l0 -0.01 -0.02 0c-0.19,-0.11 -0.38,-0.23 -0.57,-0.34l0 -0.05 -0.08 0c-0.66,-0.42 -1.29,-0.86 -1.89,-1.34l0 -0.03 -0.04 0c-0.46,-0.37 -0.91,-0.76 -1.33,-1.17l0 -0.01 -0.01 0c-0.13,-0.12 -0.26,-0.25 -0.38,-0.38l0 -0.01 -0.01 0 -0.18 -0.19 0 -0.01 -0.01 0c-0.34,-0.36 -0.66,-0.73 -0.97,-1.11l0 -0.07 -0.06 0c-0.05,-0.06 -0.09,-0.12 -0.14,-0.18l0 -0.02 -0.01 0c-0.42,-0.54 -0.81,-1.1 -1.17,-1.69l0 -0.08 -0.05 0c-0.19,-0.31 -0.37,-0.64 -0.54,-0.97l0 -0.01 -0.01 0c-0.13,-0.26 -0.26,-0.52 -0.39,-0.79l0 -0 -0 0c-0.07,-0.14 -0.13,-0.29 -0.2,-0.44l0 -0.15 -0.06 0c-0.04,-0.11 -0.09,-0.21 -0.13,-0.32l0 -0.08 -0.03 0c-0.06,-0.15 -0.11,-0.3 -0.17,-0.45l0 -0.14 -0.05 0c-0.11,-0.3 -0.21,-0.6 -0.3,-0.9l-1.02 -0.86 0 -0 -0 0c-0.47,-0.4 -0.93,-0.79 -1.38,-1.18l0 -0 -0 0c-0.54,-0.47 -1.06,-0.92 -1.57,-1.37l0 -0.01 -0.01 0c-2.21,-1.96 -4.1,-3.76 -5.7,-5.48l0 -0.03 -0.02 0 -0.17 -0.19 0 -0.01 -0.01 0c-0.48,-0.53 -0.94,-1.05 -1.37,-1.56l0 -0.01 -0.01 0c-0.27,-0.32 -0.53,-0.64 -0.78,-0.96l0 -0.02 -0.01 0c-0.2,-0.26 -0.39,-0.51 -0.57,-0.77l0 -0.02 -0.01 0c-0.86,-1.19 -1.58,-2.36 -2.15,-3.54l0 -0 -0 0c-0.22,-0.44 -0.41,-0.89 -0.59,-1.34l0 -0.04 -0.01 0c-0.22,-0.57 -0.41,-1.14 -0.58,-1.71l0 -0.06 -0.02 0c-0.06,-0.23 -0.13,-0.47 -0.18,-0.7l0 -0.08 -0.02 0c-0.17,-0.76 -0.3,-1.53 -0.37,-2.32l0 -0.24 -0.02 0c-0.11,-1.25 -0.1,-2.55 0.02,-3.93l0 0 0 -0.01c0.08,-0.94 0.21,-1.92 0.39,-2.94l0.01 0 0 -0.04c0.05,-0.31 0.11,-0.62 0.18,-0.94l0.02 0 0 -0.1c0.45,-2.23 1.11,-4.66 1.96,-7.38l0.01 0 0 -0.02c0.44,-1.4 0.93,-2.87 1.47,-4.43 7.4,-7.85 2,-17.44 0.1,-28.14l0 -0.05 -0.01 0c-0.07,-0.38 -0.13,-0.77 -0.19,-1.15l0 -0.03 -0 0c-0.07,-0.49 -0.14,-0.99 -0.19,-1.49l0 -0.09 -0.01 0c-0.27,-2.5 -0.27,-5.06 0.18,-7.67l0.03 0 0 -0.18c0.09,-0.51 0.2,-1.03 0.33,-1.55 0.01,-0.15 0.04,-0.29 0.06,-0.43l0 0 0 -0.02c0.04,-0.39 0.1,-0.77 0.15,-1.16l0.04 0 0 -0.32c0.04,-0.22 0.08,-0.44 0.12,-0.66l0.08 0 0 -0.36c0.06,-0.27 0.12,-0.55 0.18,-0.82l0.01 0 0 -0.06c0.16,-0.65 0.34,-1.28 0.54,-1.9l0.05 0 0 -0.15c0.05,-0.15 0.09,-0.3 0.14,-0.44l0.06 0 0 -0.18c0.05,-0.14 0.11,-0.27 0.16,-0.41l0.04 0 0 -0.09c0.12,-0.3 0.24,-0.6 0.37,-0.9l0.02 0 0 -0.05c0.34,-0.79 0.71,-1.56 1.12,-2.31l0.06 0 0 -0.12c0.05,-0.09 0.1,-0.19 0.15,-0.28l0.05 0 0 -0.08c0.18,-0.31 0.37,-0.61 0.56,-0.91l0.03 0 0 -0.04c0.37,-0.59 0.76,-1.16 1.18,-1.73l0 0 0 -0 0.14 -0.2 0.05 0 0 -0.07c0.13,-0.17 0.25,-0.35 0.38,-0.52l0.01 0 0 -0.02 0.15 -0.18 0.05 0 0 -0.06 0.12 -0.14 0.08 0 0 -0.09c0.93,-1.14 1.96,-2.22 3.07,-3.25l0.08 0 0 -0.07 0.14 -0.13 0.05 0 0 -0.05 0.17 -0.15 0.03 0 0 -0.03 0.19 -0.17 0.01 0 0 -0.01c0.69,-0.61 1.4,-1.2 2.14,-1.76l0.02 0 0 -0.02c0.16,-0.12 0.32,-0.25 0.48,-0.37l0.11 0 0 -0.07c0.06,-0.04 0.12,-0.08 0.18,-0.12l0.02 0 0 -0.01c0.18,-0.13 0.36,-0.25 0.54,-0.38l0.05 0 0 -0.03c0.76,-0.53 1.54,-1.05 2.35,-1.54l0.01 0 0 -0.01c0.1,-0.06 0.2,-0.13 0.31,-0.19l0.09 0 0 -0.05c0.19,-0.11 0.38,-0.23 0.57,-0.34l0.02 0 0 -0.01c0.11,-0.06 0.23,-0.12 0.34,-0.19l0.05 0 0 -0.03c0.7,-0.4 1.42,-0.78 2.15,-1.15l0.02 0 0 -0.01 0.38 -0.19 0.01 0 0 -0.01 0.39 -0.19 0.01 0 0 -0c0.55,-0.27 1.12,-0.53 1.69,-0.78l0.08 0 0 -0.04 0.37 -0.16 0.03 0 0 -0.01c0.45,-0.2 0.9,-0.39 1.36,-0.58l0.02 0 0 -0.01c0.5,-0.2 1,-0.39 1.51,-0.58l0.06 0 0 -0.02c0.15,-0.06 0.29,-0.12 0.44,-0.17l0.15 0 0 -0.05c0.71,-0.26 1.43,-0.5 2.15,-0.73l0.01 0 0 -0c0.64,-0.21 1.28,-0.4 1.93,-0.59l0.03 0 0 -0.01c0.21,-0.06 0.42,-0.13 0.63,-0.19l0.16 0 0 -0.05c0.19,-0.05 0.38,-0.1 0.57,-0.15l0.02 0 0 -0.01c0.25,-0.07 0.5,-0.13 0.75,-0.19l0.04 0 0 -0.01c1.09,-0.28 2.2,-0.54 3.32,-0.78l0.02 0 0 -0c0.31,-0.06 0.61,-0.13 0.92,-0.19l0.06 0 0 -0.01c1.56,-0.31 3.14,-0.56 4.74,-0.77l0.18 0 0 -0.03c0.48,-0.06 0.96,-0.12 1.45,-0.17l0.12 0 0 -0.01c1.42,-0.16 2.84,-0.29 4.28,-0.38l0.64 0 0 -0.03c3.07,-0.16 6.16,-0.16 9.24,0.02l0 0.01 0.21 0c0.78,0.05 1.56,0.1 2.34,0.17l0 0.03 0.29 0c1.15,0.1 2.3,0.23 3.44,0.38l0 0.01 0.07 0c0.37,0.05 0.74,0.1 1.11,0.15l0 0.04 0.27 0c0.37,0.06 0.74,0.12 1.11,0.18l0 0.02 0.09 0c0.69,0.12 1.38,0.24 2.07,0.38l0 0.01 0.07 0c0.31,0.06 0.61,0.12 0.91,0.18l0 0.01 0.06 0c0.24,0.05 0.48,0.1 0.73,0.15l0 0.05 0.19 0c0.27,0.06 0.53,0.13 0.79,0.19l0 0.01 0.02 0 0.76 0.18 0 0.01 0.05 0c0.71,0.18 1.41,0.37 2.11,0.57l0 0.02 0.08 0c0.43,0.12 0.87,0.24 1.3,0.37l0 0.02 0.07 0c0.17,0.05 0.34,0.12 0.52,0.17l0 0.03 0.08 0c0.17,0.05 0.34,0.11 0.51,0.17l0 0.03 0.09 0c1.1,0.36 2.19,0.75 3.26,1.17l0 0.02 0.04 0c0.32,0.12 0.63,0.25 0.94,0.38l0 0.02 0.04 0c0.45,0.19 0.9,0.38 1.34,0.57l0 0.02 0.04 0c1.61,0.71 3.18,1.5 4.68,2.35l0 0.01 0.03 0c0.66,0.37 1.3,0.76 1.94,1.16l0 0.02 0.03 0c0.18,0.12 0.37,0.23 0.56,0.34l0 0.05 0.08 0c0.17,0.11 0.34,0.23 0.51,0.34l0 0.05 0.07 0c0.17,0.12 0.34,0.24 0.52,0.36l0 0.03 0.05 0c0.18,0.13 0.36,0.25 0.54,0.38l0 0.02 0.02 0c0.53,0.38 1.04,0.77 1.55,1.17l0 0.01 0.01 0 0.18 0.14 0 0.05 0.07 0c0.24,0.19 0.48,0.37 0.72,0.57l0 0.02 0.03 0c0.06,0.05 0.11,0.1 0.17,0.15l0 0.05 0.06 0 0.14 0.12 0 0.07 0.08 0c0.37,0.32 0.74,0.65 1.1,0.98l0 0 0 0c0.33,0.31 0.66,0.63 0.98,0.95l0 0.04 0.04 0 0.16 0.16 0 0.04 0.04 0 0.16 0.16 0 0.03 0.03 0 0.16 0.17 0 0.03 0.03 0 0.17 0.17 0 0.03 0.03 0 0.17 0.17 0 0.03 0.03 0 0.17 0.18 0 0.02 0.02 0c0.4,0.44 0.78,0.89 1.16,1.34l0 0.03 0.03 0c0.06,0.07 0.11,0.13 0.17,0.2l0 0 0 0c0.41,0.5 0.8,1.01 1.18,1.53l0 0.04 0.03 0c0.12,0.16 0.25,0.32 0.36,0.48l0 0.11 0.08 0 0.12 0.16 0 0.03 0.02 0c0.06,0.09 0.11,0.18 0.17,0.27l0 0.12 0.08 0 0.12 0.18 0 0.01 0.01 0c0.71,1.07 1.37,2.17 1.96,3.33l0 0.02 0.01 0c0.06,0.12 0.13,0.24 0.19,0.36l0 0.04 0.02 0c0.59,1.19 1.1,2.44 1.56,3.73l0 0.01 0 0c0.06,0.18 0.13,0.35 0.19,0.53l0 0.26 0.09 0 0.1 0.33 0 0.26 0.07 0c0.04,0.14 0.08,0.29 0.12,0.43l0 0.16 0.05 0c0.05,0.18 0.1,0.36 0.15,0.54l0 0.05 0.02 0c0.13,0.5 0.26,1 0.38,1.51l0 0.07 0.01 0c0.07,0.3 0.12,0.6 0.18,0.9l0 0.28 0.06 0c0.04,0.23 0.1,0.45 0.14,0.68l0 0.5 0.07 0c0.05,0.32 0.08,0.64 0.12,0.96l0 0.22 0.03 0c0.06,0.47 0.13,0.94 0.17,1.42l0 0.15 0.01 0c0.18,2.13 0.18,4.36 0.02,6.69l-0.03 0 0 0.33c-0.04,0.48 -0.06,0.95 -0.11,1.44l-0.08 0 0 0.68c-0.04,0.36 -0.1,0.73 -0.15,1.09l-0.04 0 0 0.3c-0.11,0.74 -0.23,1.5 -0.38,2.26l-0.02 0 0 0.08c-0.06,0.3 -0.12,0.6 -0.18,0.9l-0.01 0 0 0.07c-0.05,0.24 -0.09,0.48 -0.15,0.72l-0.05 0 0 0.25c-0.04,0.18 -0.07,0.36 -0.12,0.54l-0.08 0 0 0.3c-0.04,0.16 -0.09,0.32 -0.13,0.48l-0.07 0 0 0.27c-0.06,0.24 -0.12,0.48 -0.19,0.72l-0.01 0 0 0.03c-0.24,0.89 -0.5,1.8 -0.78,2.72l-0 0 0 0.01c-0.06,0.19 -0.12,0.38 -0.18,0.58l-0.01 0 0 0.04 -0.18 0.55 -0.02 0 0 0.07c-0.06,0.18 -0.11,0.35 -0.17,0.52l-0.03 0 0 0.09c-0.06,0.17 -0.1,0.33 -0.16,0.5l-0.04 0 0 0.1c-0.03,0.1 -0.08,0.2 -0.11,0.29l-0.09 0 0 0.23c-0.04,0.12 -0.09,0.24 -0.13,0.36l-0.06 0 0 0.17c-0.05,0.14 -0.11,0.28 -0.16,0.42l-0.04 0 0 0.1 -0.18 0.49 -0.01 0 0 0.03c-0.36,0.96 -0.76,1.93 -1.17,2.92l-0.01 0 0 0.02 -0.16 0.37 -0.04 0 0 0.09 -0.38 0.9 -0.01 0 0 0.02 -0.16 0.37 -0.04 0 0 0.09 -0.13 0.31 -0.06 0 0 0.15 -0.11 0.24 -0.08 0 0 0.18c-0.12,0.27 -0.26,0.54 -0.39,0.81l-0 0 0 0.01c-0.06,0.13 -0.13,0.26 -0.19,0.39l-0.01 0 0 0.02 -0.18 0.37 -0.02 0 0 0.04 -0.17 0.35 -0.03 0 0 0.05c-0.24,0.51 -0.48,1.03 -0.75,1.55 -2.5,9.93 -3.09,17.5 -3.78,23.57l-0 0 0 0c-0.41,3.63 -0.86,6.71 -1.77,9.44l-0 0 0 0.01c-0.57,1.7 -1.32,3.25 -2.35,4.71l-0.01 0 0 0.01c-1.51,2.13 -3.63,4.04 -6.67,5.89l-0.01 0 0 0.01c-1.42,0.86 -3.05,1.7 -4.91,2.55l-0.01 0 0 0c-0.86,0.39 -1.78,0.78 -2.75,1.18l-0.01 0 0 0c-1.45,0.59 -3.01,1.17 -4.71,1.77l-0.01 0 0 0c-1.11,0.39 -2.28,0.78 -3.51,1.18l-0.03 0 0 0.01c-2.81,0.91 -5.93,1.83 -9.41,2.8 -0.76,0.4 -1.54,0.77 -2.34,1.12l-0.06 0 0 0.02c-0.44,0.2 -0.89,0.38 -1.35,0.57l-0.03 0 0 0.01c-0.32,0.13 -0.65,0.26 -0.98,0.38l-0 0 0 0c-0.18,0.07 -0.36,0.13 -0.54,0.19l-0.05 0 0 0.02c-0.56,0.2 -1.13,0.39 -1.7,0.57l-0.06 0 0 0.02c-0.19,0.06 -0.39,0.12 -0.58,0.18l-0.01 0 0 0c-1.28,0.38 -2.57,0.71 -3.89,0.98l-0.05 0 0 0.01c-0.32,0.07 -0.64,0.13 -0.96,0.19l-0.02 0 0 0c-0.37,0.07 -0.75,0.13 -1.13,0.19l-0.05 0 0 0.01c-0.43,0.07 -0.85,0.13 -1.28,0.19l-0.1 0 0 0.01c-1.93,0.25 -3.86,0.38 -5.78,0.38l-0.4 0c-1.16,-0.01 -2.32,-0.06 -3.46,-0.17z"/>
   <path class="fil6" d="M151.64 95.68c-12.05,1.2 -12.67,-18.03 -9.21,-25.84 -9,-0.22 -14.86,-5.95 -16.24,-13.96 -7.5,5.14 -15.24,-1.03 -17.19,-8.56 -6.21,4.65 -20.74,4.88 -22.4,-4.73 -1.05,8.27 -8.97,15.09 -17.25,10.52 -0.9,10.14 -13.51,9.13 -15.21,-0.73 -8.37,-2.78 -10.19,-19.64 0.37,-18.5 -3.76,-7.49 3.93,-21.31 12.41,-14.29 -0.74,-11.43 9.88,-17.94 19.86,-12.44 7.09,-8.34 19.82,-10.81 25.43,0.43 9.82,-9.47 25.13,-3.73 27.31,8.91 9.28,-4.22 24.35,7.33 19.38,16.35 10.87,0.2 17.39,24.87 5.89,26.85 6.65,4.32 8.19,16.56 -0.44,19.35 4.03,6.73 -2.18,12.44 -8.89,12.85 -2.36,0.51 -2.88,1.89 -3.81,3.78z"/>
   <path class="fil7" d="M153.78 85.95c18.13,-9.01 18.54,9.93 9.2,22.06 -0.88,16.29 -9.71,20.06 -18.04,12.4 -3.66,-18.09 0.8,-29.98 8.84,-34.47z"/>
   <path class="fil6" d="M119.48 90.04c-0.34,0.03 -0.71,-1.03 -1.34,-2.73 -0.59,-1.58 -1.51,-4.08 -3.08,-5.28 -0.45,-0.35 -0.95,-0.59 -1.49,-0.72 -1.47,-0.59 -3.15,0.23 -4.06,0.88 -0.98,0.69 -1.45,1.38 -1.71,1.28 -0.21,-0.08 -0.34,-1.04 0.64,-2.34 0.89,-1.19 3,-2.72 5.8,-2.06 0.81,0.26 1.55,0.66 2.22,1.17 2.42,1.87 3.23,4.79 3.44,6.68 0.21,1.97 -0.12,3.1 -0.4,3.13z"/>
   <path class="fil6" d="M80.53 82.31c-0.44,0.17 -1.36,-2.1 -3.42,-2.8 -0.71,-0.31 -1.68,-0.25 -2.62,0.13l-0.26 0.11c-1.85,0.83 -3.17,2.52 -4.04,3.74 -0.9,1.26 -1.4,2.15 -1.74,2.05 -0.28,-0.08 -0.41,-1.17 0.2,-2.84 0.6,-1.63 1.98,-3.86 4.56,-5.11l0.36 -0.16c1.55,-0.66 3.22,-0.53 4.51,0.18 3.4,2.1 2.33,4.76 2.46,4.71z"/>
   <path class="fil4" d="M81.8 70.66c0,-0 5.63,2.01 7.62,10.77 0.86,3.72 0.51,8.82 -2.88,12.54l-0.47 0.48c-1.88,1.37 -3.53,2.74 -3.7,4.42 -0.28,1.28 0.59,2.75 1.49,3.87 4.56,5.38 10.23,6.46 10.1,6.88 0.13,-0.42 -5.69,0.66 -11.64,-5.48 -1.27,-1.26 -2.43,-3.22 -2.23,-5.57 0.42,-2.68 2.33,-4.67 4.48,-5.99l0.37 -0.36c2.65,-2.76 2.97,-7.13 2.41,-10.37 -1.3,-7.27 -5.83,-10.83 -5.56,-11.19z"/>
   <path class="fil8" d="M122.28 94.32c-5.24,0.9 -9,4.54 -8.38,8.11 0.62,3.58 5.37,5.74 10.61,4.84 5.24,-0.9 9,-4.54 8.38,-8.11 -0.62,-3.58 -5.37,-5.74 -10.61,-4.84z"/>
   <path class="fil8" d="M70.39 92.28c-3.38,-2.62 -7.64,-2.91 -9.51,-0.66 -1.87,2.25 -0.64,6.19 2.74,8.81 3.38,2.61 7.64,2.91 9.51,0.65 1.87,-2.25 0.64,-6.19 -2.74,-8.81z"/>
   <path class="fil9" d="M164.8 93.85c2.5,4.95 -2.27,6.76 -3.65,10.56 -0.88,4.51 -1.15,10.7 -6.29,12.5 -5.93,2.07 -4.26,-7.92 -4.9,-7.09 6.06,-1.2 8.89,-8.29 3.3,-10.45 2.27,-4.34 7.29,-8.52 11.55,-5.52z"/>
   <path class="fil4" d="M164.8 93.85c-0.23,0.19 -1.38,-1.01 -2.9,-0.66 -0.79,0.11 -1.52,0.57 -2.46,1.31 -1.57,1.11 -2.97,2.6 -4.28,4.61l0.13 0.11c1.03,0.85 1.79,1.97 2.03,3.29 0.2,1.44 -0.17,2.78 -0.8,3.8 -3.01,4.7 -6.67,3.14 -6.56,3.51 -0.12,-0.43 3.25,-1.29 4.75,-4.53 0.34,-0.71 0.52,-1.59 0.34,-2.39 -0.18,-1.13 -0.83,-2.25 -1.68,-3.38l-0.11 -0.15c1.34,-2.79 3.04,-5.01 4.96,-6.51 1.16,-0.82 2.42,-1.25 3.62,-1.23 3.14,0.2 2.75,2.41 2.97,2.22z"/>
   <path class="fil6" d="M66.98 81.23c-0.85,0.06 -1.94,-1.12 -1.8,-3.66 0.13,-2.48 1.58,-5.74 4.8,-7.82 0.26,-0.18 0.53,-0.35 0.8,-0.51 3.68,-2.12 7.46,-1.73 9.77,-0.59 2.37,1.17 2.94,2.78 2.47,3.53 -0.48,0.78 -1.94,0.87 -3.49,1.14 -1.59,0.28 -3.57,0.77 -5.32,1.81l-0.4 0.25c-1.83,1.36 -3.17,2.48 -4.26,3.64 -0.95,1.02 -1.72,2.16 -2.58,2.22z"/>
   <path class="fil10" d="M89.01 261.38l-0 -0.87c-0,-14.79 0.66,-30.37 2.99,-42.25 0.05,-0.23 -0.02,-0.46 -0.17,-0.63 -3.68,-4.11 -6.96,-8.34 -7.87,-13.66 -0.07,-0.4 -0.45,-0.67 -0.85,-0.6 -0.4,0.07 -0.67,0.45 -0.6,0.85 1,5.79 4.52,10.24 8.23,14.39l0.55 -0.49 -0.72 -0.14c-2.35,12.06 -3.01,27.7 -3.01,42.53l0 0.55c0.49,0.11 0.98,0.22 1.48,0.32z"/>
   <path class="fil10" d="M171.8 248.3c-0.02,-1.63 -0.04,-3.26 -0.04,-4.89 0,-7.88 0.32,-15.72 1.25,-23.42l-0.73 -0.09 0.67 0.3c2.93,-6.59 4.37,-13.59 5.59,-20.61 0.07,-0.4 -0.2,-0.78 -0.6,-0.85 -0.4,-0.07 -0.78,0.2 -0.85,0.6 -1.21,6.99 -2.65,13.87 -5.49,20.27l-0.06 0.21c-0.94,7.78 -1.26,15.68 -1.26,23.6 0,1.9 0.02,3.8 0.05,5.71 0.49,-0.27 0.98,-0.54 1.46,-0.82z"/>
   <path class="fil6" d="M126.68 85.36c-0.88,0.25 -1.99,-0.81 -3.35,-2.38 -1.33,-1.53 -3.03,-3.7 -5.11,-5.33 -0.32,-0.26 -0.66,-0.51 -1.01,-0.74 -1.12,-0.76 -2.22,-1.3 -3.3,-1.62 -3.45,-1.2 -7.34,-0.49 -7.94,-1.85 -0.36,-0.81 1.91,-5.07 8.97,-4.65 2.12,0.19 4.29,0.92 6.25,2.24 0.61,0.41 1.17,0.86 1.68,1.34 6.59,6.26 4.94,12.67 3.8,12.99z"/>
   <path class="fil6" d="M74.67 80.91c2.07,-0.39 3.93,3.48 3.2,5.46 -0.52,1.44 -3.15,2.5 -4.33,1.52 -1.81,-1.51 -1.19,-6.54 1.13,-6.98z"/>
   <path class="fil6" d="M112 83.21c2.07,-0.39 3.93,3.48 3.2,5.46 -0.52,1.43 -3.15,2.5 -4.33,1.52 -1.81,-1.51 -1.19,-6.54 1.13,-6.98z"/>
   <path class="fil6" d="M78.53 130.31c4.09,4.38 2.91,-2.64 11.12,-3.39 6.96,-0.64 23.3,10.46 21.24,1.87 -5.8,-15.31 -30.02,-17.47 -32.36,1.52z"/>
   <path class="fil11" d="M67.51 149.64l0 0c0.53,1.02 -0.13,1.96 -0.89,2.83 -9.96,11.3 -22.62,17.9 -37.86,19.68 -1.15,0.13 -2.3,0.13 -2.83,-0.89l0 0c-0.53,-1.02 -0.26,-2.75 0.89,-2.83 15.87,-1.16 28.37,-7.95 37.86,-19.68 0.73,-0.9 2.3,-0.13 2.83,0.89z"/>
   <path class="fil11" d="M73.22 153.29l0 0c0.71,0.91 0.23,1.95 -0.36,2.95 -7.7,12.94 -18.93,21.76 -33.58,26.32 -1.1,0.34 -2.23,0.55 -2.95,-0.36l0 0c-0.71,-0.91 -0.76,-2.65 0.36,-2.95 15.39,-4.07 26.42,-13.04 33.58,-26.32 0.55,-1.02 2.23,-0.55 2.95,0.36z"/>
   <path class="fil11" d="M79.69 157.15l0 0c0.84,0.79 0.53,1.89 0.1,2.97 -5.63,13.97 -15.38,24.4 -29.16,31.15 -1.04,0.51 -2.12,0.89 -2.97,0.1l0 0c-0.84,-0.79 -1.16,-2.5 -0.1,-2.97 14.58,-6.37 24.11,-16.93 29.16,-31.15 0.39,-1.09 2.12,-0.89 2.97,-0.1z"/>
  </g>
 </g>
</svg>
