<?xml version="1.0" encoding="UTF-8"?>
<!DOCTYPE svg PUBLIC "-//W3C//DTD SVG 1.1//EN" "http://www.w3.org/Graphics/SVG/1.1/DTD/svg11.dtd">
<!-- Creator: CorelDRAW 2018 (64-Bit) -->
<svg xmlns="http://www.w3.org/2000/svg" xml:space="preserve" width="1.31988in" height="0.880677in" version="1.1" style="shape-rendering:geometricPrecision; text-rendering:geometricPrecision; image-rendering:optimizeQuality; fill-rule:evenodd; clip-rule:evenodd"
viewBox="0 0 43.39 28.95"
 xmlns:xlink="http://www.w3.org/1999/xlink">
 <defs>
  <style type="text/css">
   <![CDATA[
    .fil0 {fill:#5C67AE}
   ]]>
  </style>
 </defs>
 <g id="Layer_x0020_1">
  <metadata id="CorelCorpID_0Corel-Layer"/>
  <g id="BT">
   <polygon id="path318" class="fil0" points="3.94,16.68 3.71,16.68 3.4,16.68 3.09,16.76 3.09,16.99 2.86,16.91 2.63,16.99 2.32,17.22 2.08,17.45 1.85,17.22 0.54,18.22 -0,18.92 0.08,19.46 0.39,19.38 1.54,18.15 1.78,18.84 1.85,19.07 2.16,19.3 1.93,19.61 1.7,20.15 1.7,20.54 1.93,20.77 2.24,20.54 2.78,19.92 3.17,19.84 3.55,19.46 3.78,18.53 3.86,17.53 "/>
   <polygon id="path1174_2_" class="fil0" points="33.82,28.49 33.82,28.18 33.82,27.87 33.9,27.26 34.21,26.56 35.13,24.79 36.6,23.47 36.68,23.09 36.14,22.55 35.83,22.47 34.98,22.16 34.67,21.77 34.44,21.16 33.9,16.6 33.97,15.75 34.28,15.06 34.59,14.44 34.51,13.74 34.44,13.05 34.36,12.66 34.59,12.12 34.98,11.89 35.21,11.81 35.44,11.81 35.67,12.05 35.75,12.35 35.98,12.74 36.21,12.82 36.52,12.59 36.91,12.35 37.29,12.12 37.99,12.12 38.53,12.35 39.15,12.74 39.84,12.97 42.7,12.97 43.39,12.59 43.32,12.2 43.32,10.73 42.78,10.35 42.47,9.34 41.62,8.42 41.23,5.64 41.54,5.25 42.39,4.56 42.39,4.25 42.16,3.71 41.77,3.47 41.23,3.24 40.61,3.17 37.6,3.09 37.06,3.32 36.68,3.63 36.29,3.86 35.6,3.86 34.05,3.17 33.36,3.09 32.74,2.86 31.12,1.54 30.11,1.54 29.42,2.16 28.88,3.01 27.95,3.4 27.57,3.32 26.72,2.78 26.41,2.7 26.33,2.39 26.25,0.77 25.64,0.08 24.79,0 23.86,0.31 23.24,0.93 22.7,2.7 22.47,3.01 22.16,3.09 20.39,5.02 19.77,6.02 19.07,8.18 18.84,9.11 18.61,13.67 18.38,14.67 17.99,15.52 17.3,16.14 16.06,16.52 15.67,16.83 15.37,16.52 15.29,16.45 15.21,16.21 14.67,15.21 14.36,15.21 13.98,15.21 13.74,15.44 13.51,15.98 13.51,19.38 13.44,19.77 13.05,20.31 10.96,22.16 10.66,22.7 10.27,23.94 9.96,24.48 9.42,24.71 9.03,24.48 8.65,24.09 8.57,23.7 7.95,22.7 7.95,22.47 7.95,21.7 7.88,21.39 7.64,21.08 7.34,20.69 7.03,20.46 6.72,20.23 6.18,20.46 5.95,20.77 5.71,21.31 5.4,21.7 4.71,22.55 4.32,22.85 3.94,22.93 3.09,22.85 2.86,22.93 2.78,23.16 3.01,23.24 3.32,23.55 3.63,24.48 3.86,25.02 4.4,25.09 4.63,25.09 4.87,24.86 5.1,24.63 5.17,24.09 5.41,24.09 7.64,24.48 7.88,24.55 7.95,24.63 8.03,24.86 8.11,25.09 8.18,25.17 8.49,25.09 8.73,25.02 8.8,24.94 9.19,24.94 9.5,25.17 9.81,25.48 10.19,25.71 11.97,25.71 12.28,25.63 12.66,25.4 15.52,24.79 16.14,24.86 17.06,25.17 17.6,25.25 17.99,25.25 18.69,24.94 19.54,24.71 19.77,24.79 19.84,24.86 20.08,25.09 20.31,24.86 20.85,24.48 21.23,24.4 21.85,24.32 22.39,24.32 22.78,24.55 23.63,24.32 24.63,24.71 29.65,27.49 29.88,27.57 29.96,27.8 29.96,27.87 30.04,28.11 30.42,28.11 30.5,28.18 30.81,28.57 30.89,28.57 31.19,28.65 31.5,28.72 31.74,28.8 32.04,28.88 32.66,28.95 33.28,28.88 33.9,28.65 "/>
  </g>
 </g>
</svg>
