<?xml version="1.0" encoding="UTF-8"?>
<!DOCTYPE svg PUBLIC "-//W3C//DTD SVG 1.1//EN" "http://www.w3.org/Graphics/SVG/1.1/DTD/svg11.dtd">
<!-- Creator: CorelDRAW 2018 (64-Bit) -->
<svg xmlns="http://www.w3.org/2000/svg" xml:space="preserve" width="3.24328in" height="4.23434in" version="1.1" style="shape-rendering:geometricPrecision; text-rendering:geometricPrecision; image-rendering:optimizeQuality; fill-rule:evenodd; clip-rule:evenodd"
viewBox="0 0 152.69 199.35"
 xmlns:xlink="http://www.w3.org/1999/xlink">
 <defs>
  <style type="text/css">
   <![CDATA[
    .fil0 {fill:#5C67AE}
   ]]>
  </style>
 </defs>
 <g id="Layer_x0020_1">
  <metadata id="CorelCorpID_0Corel-Layer"/>
  <g id="SA">
   <polygon id="path638" class="fil0" points="83.03,150.81 81.26,154.79 79.61,155.56 78.72,155.89 78.39,156.01 78.28,156.45 78.83,157 79.83,156.89 81.15,156.45 81.71,156.12 82.04,154.9 82.15,154.57 82.7,154.01 82.81,153.9 82.81,152.69 82.92,151.69 83.03,150.81 "/>
   <polygon id="path642" class="fil0" points="88.23,119.41 87.46,119.3 86.9,119.3 86.13,119.41 85.8,119.85 85.8,120.85 86.57,121.73 87.79,122.06 89,121.51 89.11,120.18 88.78,119.74 "/>
   <polygon id="path646" class="fil0" points="88.67,104.15 88.12,103.82 87.68,103.49 87.12,103.49 86.57,103.82 86.24,104.26 85.47,105.7 85.36,106.14 85.47,106.69 86.02,107.91 86.13,108.46 86.13,109.02 86.24,109.79 86.57,110.23 87.35,110.34 87.79,110.01 87.79,109.57 87.79,109.13 87.68,108.68 87.23,108.13 87.12,107.58 87.23,107.02 87.35,106.69 87.46,106.36 88.45,105.59 88.78,105.14 88.78,104.59 "/>
   <polygon id="path650" class="fil0" points="96.41,78.72 96.08,77.84 96.08,76.95 95.75,76.95 95.31,76.84 94.97,76.73 94.86,76.62 94.42,75.63 94.31,75.29 93.54,74.85 93.43,74.52 93.32,74.19 93.43,73.86 93.43,73.52 93.43,73.41 93.32,72.64 91.99,70.54 91.1,69.65 89.78,68.77 88.45,68.66 87.57,69.54 87.57,70.43 87.68,71.2 88.01,71.76 88.45,72.31 90.33,73.97 91.22,74.41 91.33,74.52 91.33,75.85 91.22,75.96 91.11,76.4 90.77,78.17 90.88,78.72 91.44,79.27 93.21,79.72 94.09,80.16 94.2,80.6 94.2,80.93 94.31,81.26 94.86,81.37 95.2,81.26 96.52,80.27 96.63,80.16 96.63,79.83 96.63,79.49 96.3,78.94 "/>
   <polygon id="path654" class="fil0" points="139.2,63.68 138.65,64.68 139.2,66.45 140.53,67.89 141.96,67.78 142.41,67.22 142.07,66.67 141.63,66.12 141.52,65.34 141.19,65.01 139.53,63.79 "/>
   <polygon id="path658" class="fil0" points="135.77,59.7 134,57.16 133.23,57.16 133.34,57.71 133.89,59.04 134,59.81 134.45,60.37 135.33,61.25 135.22,62.14 135.33,63.35 135.77,64.57 136.66,65.12 136.32,63.68 136.43,62.91 137.21,62.36 137.1,61.58 135.88,60.37 "/>
   <polygon id="path662" class="fil0" points="143.29,45.88 142.07,44.23 141.96,43.89 142.07,43.12 142.52,42.24 142.63,41.46 142.52,40.58 142.52,40.91 142.52,40.58 142.41,40.02 142.07,39.91 141.63,39.91 141.19,39.58 140.86,39.14 140.75,38.81 140.64,38.36 140.19,38.03 139.42,37.92 138.43,37.92 137.54,38.03 137.1,38.37 137.1,38.92 137.43,39.69 137.43,40.13 137.43,40.58 137.32,40.91 136.44,43.67 135.99,44.45 135.88,44.78 135.88,45.33 135.99,45.77 136.1,46.11 136.66,46.44 136.77,46.55 136.88,46.88 136.77,47.32 136.77,47.43 137.32,47.99 138.09,48.43 138.87,48.54 139.75,48.65 140.19,48.98 139.86,49.87 137.76,53.73 135.99,55.61 135.55,56.39 135.44,57.16 135.77,57.94 136.32,58.27 139.42,58.27 139.86,57.93 140.42,57.16 140.86,55.72 141.19,52.3 141.96,50.86 144.18,48.09 144.29,47.65 143.95,46.88 "/>
   <polygon id="path958" class="fil0" points="131.68,0.22 132.01,0.55 132.12,0.44 132.12,0 132.01,0 "/>
   <polygon id="path962" class="fil0" points="86.68,129.58 86.35,129.58 86.02,129.47 85.69,129.36 85.58,129.36 85.47,129.36 85.36,129.25 85.24,129.25 85.13,129.58 85.24,129.69 85.24,129.8 85.24,129.91 85.13,129.91 84.8,130.24 84.69,130.24 84.58,130.58 84.58,131.02 84.69,131.35 85.02,131.46 85.36,131.13 85.69,130.8 86.02,130.69 86.13,130.58 86.68,130.24 86.79,130.13 86.9,130.13 87.01,130.24 87.12,130.13 87.23,129.58 87.12,129.25 "/>
   <polygon id="path1010" class="fil0" points="78.28,141.52 78.17,141.41 77.73,141.08 77.28,140.64 76.95,140.3 76.62,140.42 76.51,140.86 76.4,141.19 76.51,141.96 76.62,142.52 76.73,143.07 76.84,143.4 77.17,143.73 77.28,143.73 77.39,143.4 77.5,143.07 78.28,142.18 78.28,141.74 "/>
   <polygon id="path1042" class="fil0" points="152.02,29.63 151.91,29.63 151.8,29.74 151.8,30.29 152.36,30.74 152.69,30.29 152.36,29.85 "/>
   <polygon id="path1178_1_" class="fil0" points="0.77,174.25 1.66,173.92 3.1,174.47 3.65,174.36 3.54,173.92 3.43,173.03 3.54,172.59 4.42,173.14 4.97,173.47 6.19,173.03 6.74,173.47 7.08,173.92 7.08,174.25 7.19,174.58 7.63,174.91 7.96,175.02 8.96,175.02 9.4,174.91 9.73,174.8 10.06,174.69 10.5,174.58 10.95,174.58 11.28,174.69 11.61,174.8 11.94,174.91 12.38,174.58 13.38,175.35 16.14,175.91 17.36,176.46 17.8,176.57 19.13,176.02 19.68,175.91 20.46,176.02 21.89,176.9 22.67,177.23 27.97,178.01 30.52,177.67 30.96,177.79 31.73,177.9 32.06,177.9 32.51,177.56 32.62,177.45 32.51,177.12 32.06,176.79 32.62,176.46 34.05,176.02 34.61,175.24 38.92,173.81 40.13,173.47 40.58,173.03 41.57,172.15 42.79,171.59 45.33,170.82 46.22,170.05 46.77,168.72 47.32,166.18 48.09,165.18 48.43,164.74 48.98,164.41 49.75,164.08 50.53,163.96 53.07,164.08 53.84,163.96 54.29,163.85 54.4,163.52 54.73,163.19 55.17,163.19 55.5,163.3 55.61,163.74 55.95,164.08 56.39,164.19 56.94,163.86 57.38,163.08 57.72,162.31 57.72,161.53 57.38,160.76 56.83,160.65 55.39,160.65 54.62,160.32 54.62,159.32 54.95,158.33 55.28,157.55 57.38,156.12 57.71,155.67 58.05,155.56 60.81,156.12 61.7,156 62.25,155.56 63.13,154.57 63.91,154.12 65.34,154.01 66.12,153.57 66.67,152.8 66.34,152.02 65.9,151.47 65.56,150.59 65.67,149.7 66.12,149.15 69.77,146.16 70.1,145.72 70.21,145.61 70.98,145.94 71.09,145.83 71.09,144.51 71.09,144.17 71.53,143.73 72.31,143.4 73.19,143.29 73.52,143.73 73.52,145.39 73.86,145.72 74.63,146.05 75.4,146.05 77.95,145.72 78.94,145.83 79.05,146.28 78.5,147.71 78.61,149.37 79.38,150.26 80.38,150.81 81.26,151.69 81.71,153.02 80.49,154.01 78.83,154.79 77.62,155.56 76.62,156.89 75.85,158.22 73.52,164.74 71.76,167.95 70.54,169.38 69.21,170.6 69.1,170.93 68.66,171.81 68.66,172.15 68.33,172.48 67,173.25 65.78,173.58 65.45,173.69 65.12,174.14 64.57,175.02 64.24,175.35 63.35,175.46 62.47,176.02 61.25,177.34 59.92,178.23 59.37,178.78 59.04,179.78 58.49,180.55 58.38,180.99 58.38,181.54 58.38,181.66 57.93,182.43 56.61,183.65 56.28,184.42 55.94,184.75 55.83,185.08 55.94,185.53 56.28,185.86 56.39,186.19 56.39,186.96 56.05,187.07 55.28,186.96 54.95,186.96 54.84,187.29 53.18,189.17 53.18,189.73 53.62,190.06 53.62,190.39 52.85,190.72 52.41,191.16 51.85,192.49 50.86,192.16 49.97,192.49 49.09,193.04 48.32,193.15 47.43,193.49 46.44,194.37 41.9,195.26 40.02,195.37 38.59,194.81 38.14,195.14 36.93,196.14 35.93,195.81 35.82,195.81 35.38,195.92 34.61,196.36 34.27,196.47 31.73,196.58 30.96,196.69 29.52,197.13 29.08,197.25 27.75,197.13 27.2,197.47 26.42,197.91 26.09,197.91 25.65,197.8 25.21,197.69 24.77,197.58 23.99,197.69 22.67,198.13 21.34,198.46 21.01,198.79 20.45,199.35 20.12,199.35 19.79,199.01 18.57,198.13 18.02,197.8 14.15,197.47 13.71,197.47 14.15,196.58 15.04,194.26 15.37,193.04 15.48,191.94 15.15,190.72 14.59,188.18 13.82,187.18 13.05,186.3 8.73,184.2 7.85,183.2 6.63,182.43 6.08,181.99 5.75,181.55 4.87,179.78 4.87,178.78 4.87,178.45 4.53,178.01 4.09,177.68 2.32,176.68 1.88,176.57 1,176.02 0.11,174.58 -0,174.25 "/>
  </g>
 </g>
</svg>
