<?xml version="1.0" encoding="UTF-8"?>
<!DOCTYPE svg PUBLIC "-//W3C//DTD SVG 1.1//EN" "http://www.w3.org/Graphics/SVG/1.1/DTD/svg11.dtd">
<!-- Creator: CorelDRAW 2018 (64-Bit) -->
<svg xmlns="http://www.w3.org/2000/svg" xml:space="preserve" width="2.71253in" height="3.90086in" version="1.1" style="shape-rendering:geometricPrecision; text-rendering:geometricPrecision; image-rendering:optimizeQuality; fill-rule:evenodd; clip-rule:evenodd"
viewBox="0 0 269.76 387.94"
 xmlns:xlink="http://www.w3.org/1999/xlink">
 <defs>
  <style type="text/css">
   <![CDATA[
    .fil0 {fill:#5C67AE}
   ]]>
  </style>
 </defs>
 <g id="Layer_x0020_1">
  <metadata id="CorelCorpID_0Corel-Layer"/>
  <g id="SU_1_">
   <path id="SU" class="fil0" d="M95.76 6.77l-0.23 0.7 -1.87 1.17 -3.5 1.17 -0.93 0.23 -0.23 0.93 -0.23 1.17 0 2.8 1.87 -1.87 1.17 -0.93 1.63 -0.7 0.23 -0.23 1.17 -1.63 0.23 -0 0.23 -0.23 2.8 7.24 0.7 0.7 4.44 -0.7 1.87 0 1.64 0.7 2.8 1.87 1.87 0.23 0.93 0.23 1.87 2.8 0.7 0.7 1.64 0 1.63 0 0.93 0.23 0.93 2.8 0.93 0.93 0.93 0.93 1.17 0.7 5.37 0.93 0.93 0.93 0.93 6.31 0.93 2.1 1.87 1.87 5.84 4.44 11.91 4.44 2.57 0.7 1.17 0.7 0.93 0.7 0.93 0.7 3.04 0.23 1.17 0.7 0.7 0.93 0.7 0.7 8.64 4.67 12.85 11.21 1.17 0.93 2.8 0.7 1.17 0.7 1.63 1.63 1.87 1.17 0.93 0.93 0.7 2.1 0.7 0.93 1.87 1.87 2.1 2.1 2.57 1.17 7.71 1.87 2.8 1.17 1.17 -0 1.17 0.93 2.57 4.67 3.97 3.74 1.63 2.1 0.23 2.8 2.57 -0.7 1.87 1.63 1.63 1.87 1.87 0.93 1.87 1.17 0.93 2.57 0.7 9.34 -0.23 0.93 -0.7 1.17 -0.7 0.93 -0.7 1.17 -0.23 1.17 -0.23 0.7 -0.7 1.17 -0.23 0.7 0.7 0.7 0.7 0.23 0.7 0.23 0.7 0.23 0.7 0.7 0 0.23 -0.23 0.23 0 0.7 1.87 2.8 -0.23 0.7 0 0.7 0.7 -0 0.7 -0.23 0.23 -0.93 0 -0.7 -0.7 -0.23 -0.23 -0.7 0 -2.8 -0.23 -0.23 -2.57 -1.63 -0.23 -0.7 0.93 -0.93 2.57 -1.17 2.8 0.23 1.87 3.04 0 0.93 0 2.1 0 1.17 0.93 2.57 0 0.93 0.7 1.63 0.93 2.1 1.17 1.17 1.17 -0.7 -0.23 -1.17 -1.17 -2.8 -0.23 -1.17 0 -3.5 0.23 -1.17 0.93 -1.63 0.93 -1.17 1.17 -0.7 1.63 -0.23 1.87 0 0.7 0.23 0.23 0.7 0 0.7 0.23 0.93 0.7 0.23 1.17 0.7 0.7 0.23 0 0.7 0.23 2.1 0.23 0.7 0.7 1.17 0.23 0.7 0.23 0.23 2.1 1.63 0.7 0.23 0.23 0.23 0 0.7 -1.64 4.67 -1.17 11.21 0.23 3.04 0.23 2.57 0.93 3.5 1.17 5.37 0.7 8.17 0 2.1 -1.17 3.74 0 0.23 -0.7 2.8 -0.23 3.04 0.23 1.87 0.7 1.17 0.93 0.93 3.04 2.1 0.93 0.93 0.7 1.17 1.87 5.37 2.8 6.54 0.7 2.57 0.23 1.63 -0.23 1.17 -0.7 1.17 -0.7 0.93 -0.93 0.93 -4.9 2.8 -2.57 1.17 -1.17 0.7 -15.88 6.77 -1.63 0.93 -0.7 0.7 -0.23 0.7 -0.7 0.7 0 0.7 0 0.7 0.23 0.7 3.74 2.8 0.7 0.93 0.7 0.93 0 0.93 0 2.8 0.23 0.93 0.23 0.7 0.7 0.7 3.5 1.87 0.93 0.7 0.7 0.7 0.7 0.93 0.23 0.93 0.23 1.17 -0.23 1.87 -0.93 3.5 0 0.93 0 1.17 0.23 1.63 0.23 1.17 0 1.63 -0.23 5.37 0 3.5 0 0.93 -0.23 0.7 -0.7 0.7 -0.7 0.7 -0.23 0.23 -0.7 0.93 -0.7 1.63 -0.23 0.93 0 1.63 0.23 2.1 -0.93 0.7 -1.17 0.23 -0.93 -0 -0.93 0 -1.17 -0.7 -1.63 -0.93 -1.63 -1.63 -0.93 -0.7 -0.93 -0.23 -3.5 -0.93 -2.57 -0.93 -1.17 -0.7 -1.17 -0.7 -3.04 -0.7 -3.74 -1.63 -2.1 -0.23 -0.93 0.23 -0.7 0.23 -1.17 0.23 -1.17 -0.23 -0.93 0 -0.93 -0.7 -2.57 -1.63 -0.7 0 -0.7 0 -0.23 0.7 0 0.7 0.7 1.87 0.93 0.93 0.7 0.7 0.7 0.23 0.23 0.23 0.7 1.17 0.7 0.7 0.7 0.23 1.17 0.7 0.7 -0 0.7 0.23 0.23 0.93 0.23 0.93 0.7 2.8 0.7 1.17 3.5 3.5 0.7 0.93 0.23 1.17 1.17 1.63 1.87 3.74 0.23 0.93 0.23 0.7 -0.23 0.93 0 1.17 -0.7 1.63 -0.7 0.7 -0.93 0.7 -3.5 1.17 -1.63 0.23 -0.93 -0 -2.1 -0.7 -0.7 -0.93 -0.23 -0.23 -0.7 0 -4.9 0 -0.93 -0.23 -0.7 -0.23 -0.7 -0.7 -0.93 -1.63 -0.23 -0.7 -0.7 -0.23 -0.7 0 -0.93 0 -0.7 -0.23 -2.1 -1.17 -1.17 -0.23 -1.63 0 -1.87 0.7 -5.84 3.04 -1.87 0.93 -1.63 0.23 -2.1 0.23 -2.57 0.7 -0.93 0.23 -0.93 0.93 -5.61 7.47 -9.34 10.04 -0.93 -0.23 -0.23 -0.7 0.23 -0.7 0.93 -1.17 0.23 -0.7 0 -1.87 -0.7 -0.93 -1.63 -0.7 -1.63 -0.7 1.63 -3.5 0.23 -1.87 -0.7 -5.61 -0.23 -1.87 -0.93 -1.17 -0.93 0.7 0 -1.17 0.23 -3.74 0 -1.87 -0.93 -1.63 -1.17 -0.7 -2.1 0.7 -0.7 -2.1 0.7 -7.24 -0.23 -3.04 -2.8 -3.04 -0.93 -0.7 -1.17 -0.7 -0.23 -1.17 0.23 -3.04 -0.23 -2.8 -4.67 -15.65 -5.37 -12.85 -0.93 -1.87 -0.23 -0.7 0.23 -0.93 0.23 -0.93 0 -0.93 -0.23 -0.93 -3.04 -3.5 -0.93 -0.93 -0.93 -3.04 -0.7 -1.87 0 -1.63 -0.23 -0.23 -0.7 -0.7 -0.93 -0.23 -0.7 0 -0.7 -0.23 -0.23 -0.7 -0.7 -1.87 -0.7 -1.63 0 -0.23 1.17 -0.23 0.7 0.23 0.7 0.23 0.23 0.7 0 0.7 0.7 0.93 0.93 -0.93 1.87 -2.8 0.7 -1.17 1.87 -1.63 0.23 -0.93 0 -2.8 -0.23 -1.17 -1.17 -0.7 -1.87 -0 -0.23 -0.7 0 -1.17 0 -1.17 -0.93 -1.63 -0.93 -1.17 -2.8 -2.1 -0.93 0.7 -0.23 0.23 0.23 1.17 0.93 0.7 0 0.7 -0.23 0.93 -0.23 0.23 -0.7 0.7 -1.63 -0.93 -2.57 -2.1 -6.54 -9.58 -3.5 -3.97 -7.24 -4.44 -1.63 -0.23 -1.17 -0.7 -1.64 -0 -1.87 0 -0.93 0 -0.23 -0.23 0 -1.17 -0.23 -0.23 -0.23 -0.7 -0.93 -0.23 -1.64 0 -1.87 0 -1.63 0 -0.7 -0.7 -0.23 -2.1 -0.93 -0.93 -2.8 -1.87 -4.44 -3.74 -3.97 -2.57 1.87 -9.58 0 -2.34 -0.7 -3.04 -1.17 -2.8 -0.7 -1.87 -0.7 -0.7 -0.7 -0.23 -0.7 0 -0.7 -0.7 -0.7 -0.93 -1.87 -5.6 -0.7 -3.74 0 -0.93 0.23 -0.93 0.7 -1.63 0 -0.7 0 -1.63 0.23 -0.7 1.63 -0.93 0.7 -0.93 0.23 -0.7 -0.23 -0.7 -0.93 -1.63 -0.7 -2.57 -0.23 -1.17 0.23 -1.63 0.23 -0.7 0.7 -0.93 -0.23 -0.93 -0.7 -1.17 -0.93 -0.23 -1.17 -0.7 -1.17 -0.7 -0.93 -0.7 -2.1 -3.04 -0.7 -0.7 -1.87 -0.23 -0.93 -0.23 -0.7 -0.7 -0.23 -0.7 -0.23 -0.93 0.7 -3.5 -1.17 -6.31 -0.7 -1.17 0 -0.7 0.23 0 0.7 -0.23 1.17 0.23 0.7 0 0.93 -0.23 0.23 -2.57 -0.23 -0.93 -0.23 -0.93 -1.87 -2.8 -0.23 -0.93 -0.23 -1.17 -0.23 -0.93 -0.23 -0.7 -0.7 -0.7 -1.17 -1.17 -0.7 -0.93 0.7 -0.7 1.17 -0.23 4.9 -1.17 1.87 -1.17 1.17 -2.57 -0.93 -2.57 -0.7 -0.23 -3.04 -2.1 -0.93 -0.93 -0.23 -0.93 -0.7 -1.17 -0.23 -0.93 0 -0.93 0.7 -1.17 0.23 -0.93 -0.23 -0.7 -1.17 -1.17 -0.7 -0.93 -0.7 -1.64 -0.23 -0.93 -0.7 -0.93 -0.23 -0.23 -0.7 -0.23 -0.93 -0.7 -0.7 -1.17 -1.17 -4.44 -0.93 -1.87 -2.1 -3.04 -0.23 -1.17 0 -0.7 0.23 -0.93 0.7 -0.23 0.7 -0.7 6.31 -4.9 1.17 -2.1 0 -0.23 -0.23 -0.7 -0.23 -1.63 0.7 -2.57 1.63 1.17 0.93 0 0.7 -0.23 0.23 -0.7 0.23 -0.7 0.7 -0.93 0.93 -0.93 2.1 -1.87 1.17 -1.17 0.7 -1.17 0.23 -1.17 0.23 -1.63 0.23 -1.64 0.23 -0.93 0.7 -3.04 0.93 -2.57 0.93 -3.74 0.7 -0.93 0.7 -0.7 0.23 -0.93 -0.23 -0.93 -0.7 -1.17 0 -0.93 0.93 -0.23 2.1 0 0.93 -0.23 0.93 -0.7 0.93 -1.17 0.7 -0.23 2.57 -0.7 0.93 0 5.84 0.7 0.23 -0 0 6.07zm68.2 142l1.63 0.23 0.7 1.17 -0.7 1.63 -0.23 0.23 -0.23 0.7 -0.7 0 -0.93 -0.93 -0.7 0.93 -1.17 0.93 -1.17 0.93 -1.63 0.7 -2.57 -0.93 -0.7 -0 -0.23 0.23 -1.63 0.7 -0.7 0.23 -0.93 0 -0.7 0 -2.8 -0.93 -0.7 0 -0.93 0 -0.47 0 -1.63 0.23 -0.93 0.23 -0.23 -0.23 -0.23 -0.23 -0.7 0 -0.23 0 -0.7 0.93 -0.23 0 -0.93 0.23 -0.23 0 -0.23 -0.23 0 -0.93 0 -0.7 0.23 -0.93 0.23 -0.93 -0.23 -0.23 -1.17 -0.7 -0.93 -1.17 -0.23 -1.87 -0.7 -1.17 -4.67 -4.67 -0.23 -0.23 -0.93 -1.17 -0.23 -0.23 0 -0.23 -0.93 -0.7 -1.17 -0.7 -0.23 0 -0.7 -1.17 0 -1.17 0.23 -1.17 1.17 -0.7 0.93 0.7 1.87 3.74 1.17 1.63 4.9 3.04 4.44 3.97 1.63 0.93 1.64 0 1.17 -0.23 2.57 -1.17 1.63 -0.23 0.93 -0.7 0 -1.63 -0.23 -1.17 -0.7 -0.93 -4.9 -5.84 -2.8 -4.9 -1.87 -2.57 -3.74 -4.44 -2.57 -1.17 -2.57 -0.7 -2.57 0.93 -1.87 2.8 -0.23 5.6 0 0.93 -0.93 -0.23 -1.63 -0.93 -1.17 -0.93 -0.93 -0.7 -0.7 -2.8 -0.93 -1.87 0 -0.7 -0.23 -0.7 -1.87 -0.7 -0.7 -0.93 0 -0.7 -0.7 -0.7 -0.93 -0.7 -1.17 -1.63 -0.7 -2.1 -0.23 -4.9 0.7 0.23 0.7 0 0.23 0 0.7 -0.23 3.5 0 0.93 0.7 0.93 0 3.5 0 3.04 0.7 2.8 1.63 4.67 3.5 2.8 3.5 1.87 1.17 4.44 2.8 0.93 1.17 0.7 1.63 0.7 1.63 0 1.17 -0.7 1.17 0 0.7 0.23 0.93 2.57 3.04 5.61 4.9 0.93 1.63 0.23 1.87 0.23 3.74 0.23 1.87 1.63 -0.23 2.8 -1.87 1.4 -0.7z"/>
   <polygon id="path274" class="fil0" points="118.41,207.87 117.48,208.57 116.54,209.5 115.84,210.2 114.21,209.27 113.04,207.4 112.11,206.47 111.17,205.76 109.54,206 108.84,207.17 108.14,208.33 108.37,209.27 109.07,210.2 110,210.44 110.94,210.67 113.74,211.84 116.31,212.07 118.88,212.07 120.51,211.84 120.28,211.84 120.51,211.84 122.15,211.6 121.22,209.97 119.58,208.1 "/>
   <polygon id="path278" class="fil0" points="112.57,354.31 111.87,350.34 109.77,345.9 106.74,342.16 103.7,340.99 100.66,341.69 98.8,341.93 98.09,342.16 98.8,343.1 99.73,344.03 100.9,344.73 101.83,345.43 103.47,348 105.57,352.91 106.74,355.48 115.15,367.39 117.71,372.29 118.41,372.29 118.18,371.36 117.95,370.19 117.95,369.25 117.95,368.55 118.65,367.62 118.88,366.68 118.88,367.38 119.58,364.35 117.01,361.31 114.44,358.28 "/>
   <g>
    <path id="path282" class="fil0" d="M114.44 378.13l0 0.23 -0.23 0 0.23 0 0 -0.23 0 -0.23 -0.23 0 0.23 0 0 0.23 0.7 -1.17 0 -1.63 0 -1.63 -0.93 -1.63 0.7 -1.63 -0.93 -2.8 -3.5 -5.6 -0.93 -0.93 -0.93 -0.23 -0.93 0.93 0.7 2.57 0 0.93 -0.23 0.23 -0.7 0.23 -0.7 -0 -0.7 0.23 -0.7 0.93 -1.63 2.1 -0.23 0.93 -0.23 1.63 0.23 3.04 0 1.63 -1.87 5.37 -0.7 0.93 -0.23 0 -1.63 -0.7 -0.7 0 -0.7 0.23 -0.93 0.7 -0.7 0.23 3.5 0.7 5.61 3.5 2.57 0.7 0 -0.7 0 -1.17 0.23 -1.63 0.7 -0.93 1.17 -0.23 1.17 0.23 0.23 0.7 -0.7 0.93 0.7 0.7 0.7 -0 0.23 -0.23 0.7 -0.7 0 0.23 0.23 0.23 0 0.23 0.23 0.7 0.23 0 0.23 -1.17 0 -1.17 -0.7 -0.93 -0.7 -0.93 0.7 -0.93 0.7 -0.93 0 -1.17 0 -0.93 0.7 0zm0 0l0 0 0 0z"/>
   </g>
   <polygon id="path310" class="fil0" points="68.67,262.28 68.43,261.58 66.8,258.55 65.86,257.38 64.23,257.15 62.59,257.15 61.43,256.44 60.72,255.51 60.49,254.58 59.79,253.41 58.62,251.54 57.92,250.61 56.75,249.9 55.12,248.97 51.38,248.27 49.75,247.33 43.91,239.86 42.97,236.36 42.04,234.72 37.6,230.99 37.37,230.05 36.67,228.18 36.43,227.95 35.73,227.72 33.87,225.85 33.87,225.61 33.63,224.45 33.4,224.45 33.17,224.21 32.23,224.45 31.53,224.21 30.6,224.45 29.89,224.21 29.66,223.98 29.66,223.05 28.73,221.41 28.03,221.18 27.09,221.41 25.92,221.65 24.76,220.94 22.89,218.84 21.72,219.54 21.49,220.24 21.72,222.81 21.49,223.75 20.55,224.68 17.05,227.72 15.41,228.65 13.78,229.35 11.21,229.59 9.34,229.35 8.41,229.35 7.71,229.59 7.47,228.88 6.77,228.65 5.84,227.95 5.14,227.72 3.27,227.72 1.17,228.42 -0,229.35 0.23,231.22 1.17,230.29 1.17,230.05 3.27,230.99 4.9,232.16 7.94,235.19 8.64,236.13 9.58,237.99 9.81,238.7 10.74,239.63 11.68,239.86 12.38,239.86 13.31,240.1 14.01,240.8 14.25,241.03 14.95,241.73 14.95,242.67 15.18,243.6 16.35,244.77 16.58,246.4 17.52,247.34 18.45,247.57 19.15,248.51 19.39,249.21 20.09,251.07 24.06,257.61 25.23,260.65 25.46,264.15 25.46,266.02 25.69,266.72 28.73,266.49 30.6,266.72 32.46,266.96 33.4,267.66 32.7,269.29 39.94,273.73 42.97,276.53 44.14,280.04 44.38,280.97 45.54,283.77 45.78,284.47 46.48,285.41 46.24,287.51 46.24,288.44 47.18,289.61 48.35,290.78 49.05,292.41 48.11,294.52 48.35,294.52 49.05,295.22 49.28,295.45 49.98,296.38 50.92,296.38 51.62,295.68 51.85,295.45 53.72,296.62 54.65,296.85 55.59,295.22 57.69,296.85 58.39,297.55 59.09,297.55 59.79,297.32 63.76,292.65 64.46,290.78 64.46,284.94 65.16,280.27 66.1,278.4 66.1,277.47 65.86,272.56 65.86,269.99 67.5,267.89 67.5,268.59 68.67,265.79 68.9,263.92 "/>
  </g>
 </g>
</svg>
