<?xml version="1.0" encoding="UTF-8"?>
<!DOCTYPE svg PUBLIC "-//W3C//DTD SVG 1.1//EN" "http://www.w3.org/Graphics/SVG/1.1/DTD/svg11.dtd">
<!-- Creator: CorelDRAW 2018 (64-Bit) -->
<svg xmlns="http://www.w3.org/2000/svg" xml:space="preserve" width="1.90115in" height="1.95073in" version="1.1" style="shape-rendering:geometricPrecision; text-rendering:geometricPrecision; image-rendering:optimizeQuality; fill-rule:evenodd; clip-rule:evenodd"
viewBox="0 0 209.08 214.53"
 xmlns:xlink="http://www.w3.org/1999/xlink">
 <defs>
  <style type="text/css">
   <![CDATA[
    .fil4 {fill:#F5B6A4;fill-rule:nonzero}
    .fil1 {fill:#F2A38F;fill-rule:nonzero}
    .fil5 {fill:#F0967D;fill-rule:nonzero}
    .fil3 {fill:#EF8C74;fill-rule:nonzero}
    .fil10 {fill:#F7CF50;fill-rule:nonzero}
    .fil7 {fill:#BF4B4B;fill-rule:nonzero}
    .fil9 {fill:#724D9D;fill-rule:nonzero}
    .fil8 {fill:#5C3D8D;fill-rule:nonzero}
    .fil2 {fill:#5C3D8D;fill-rule:nonzero}
    .fil6 {fill:#383147;fill-rule:nonzero}
    .fil0 {fill:#C3E2F5;fill-rule:nonzero}
   ]]>
  </style>
 </defs>
 <g id="Layer_x0020_1">
  <metadata id="CorelCorpID_0Corel-Layer"/>
  <g id="_1607360753376">
   <path class="fil0" d="M122.09 29.62c-48.04,0 -86.99,38.95 -86.99,86.99 0,48.04 38.95,86.99 86.99,86.99 48.04,0 86.99,-38.95 86.99,-86.99 0,-48.04 -38.95,-86.99 -86.99,-86.99z"/>
   <path class="fil1" d="M105.58 105.57c7.77,7.49 5.44,21.81 8.05,30.95 6.12,3.31 14.88,3.23 16.96,-5.08 -2.1,-8.72 0.85,-17.48 2.1,-26.24 -4.12,-6.25 -15.48,-5.82 -21.66,-3.34 -2.17,0.87 -3.85,3.49 -5.45,3.71z"/>
   <path class="fil2" d="M168.45 174.9c-5.96,12.94 -11.74,20.82 -15.6,33.43 -10.12,4 -21.14,6.2 -32.68,6.2 -15.38,0 -29.85,-3.91 -42.46,-10.78 2.18,-18.38 3.13,-36.94 4.55,-55.37 22.64,-17.99 60.65,-12.94 80.28,6.69 2.72,6.64 4.55,13.24 5.91,19.83z"/>
   <path class="fil3" d="M131.41 112.46c-6.4,3.25 -13,9 -19.55,10.9 -0.64,-6.67 -1.73,-13.4 -6.28,-17.79l0 0c1.6,-0.23 3.28,-2.85 5.45,-3.71 6.19,-2.47 17.54,-2.91 21.66,3.34 -0.35,2.42 -0.82,4.84 -1.28,7.26z"/>
   <path class="fil1" d="M89.19 58.08c-11.51,-9.86 -15.27,3.8 -10.73,14.33 -2.35,11.98 3.37,16.34 10.82,12.31 5.97,-12.46 4.92,-21.91 -0.09,-26.64l-0 0z"/>
   <path class="fil4" d="M82.35 71.67c-4.57,16.06 -3.2,20.18 9.52,31.57 3.86,12.61 20.87,13.65 31.65,7.37 30.56,-9.36 20.85,-14.05 25.9,-39.6 27.32,-63.4 -66.02,-66.32 -67.85,-29.46 -2.31,11.67 7.41,22.11 0.79,30.11z"/>
   <path class="fil5" d="M104.44 31.9c7.26,-0.73 15.75,0.17 22.43,3.33 9.11,4.31 15.67,16.85 4.58,24.27 -32.32,21.66 -64.75,-20.48 -27.01,-27.6z"/>
   <path class="fil6" d="M149.42 71.02c-9,1.04 -9.7,-13.34 -7.2,-19.24 -6.74,-0.06 -11.19,-4.28 -12.32,-10.26 -5.55,3.94 -11.42,-0.59 -12.97,-6.2 -4.59,3.56 -15.47,3.89 -16.82,-3.27 -0.69,6.2 -6.54,11.4 -12.79,8.08 -0.56,7.6 -10.01,6.99 -11.4,-0.36 -6.3,-1.98 -7.86,-14.58 0.06,-13.85 -2.91,-5.57 2.69,-16 9.12,-10.85 -0.69,-8.54 7.18,-13.54 14.72,-9.54 5.21,-6.32 14.71,-8.33 19.04,0.02 7.24,-7.2 18.77,-3.09 20.55,6.35 6.89,-3.27 18.31,5.2 14.69,12.01 8.14,0.02 13.31,18.41 4.73,20.03 5.03,3.15 6.33,12.3 -0.1,14.49 3.09,4.99 -1.48,9.34 -6.5,9.72 -1.76,0.41 -2.13,1.45 -2.81,2.88z"/>
   <path class="fil1" d="M150.9 63.71c13.46,-6.95 13.99,7.21 7.15,16.41 -0.47,12.2 -7.04,15.13 -13.36,9.5 -2.95,-13.5 0.25,-22.45 6.21,-25.91z"/>
   <path class="fil6" d="M132.03 66.14c-0.66,0.2 -1.5,-0.59 -2.54,-1.74 -1.01,-1.13 -2.32,-2.73 -3.89,-3.93 -0.24,-0.19 -0.5,-0.37 -0.76,-0.54 -0.85,-0.56 -1.68,-0.95 -2.49,-1.18 -2.59,-0.86 -5.5,-0.28 -5.97,-1.29 -0.28,-0.6 1.37,-3.82 6.66,-3.58 1.59,0.11 3.22,0.64 4.7,1.6 0.46,0.3 0.89,0.63 1.28,0.99 5,4.6 3.84,9.43 3,9.68z"/>
   <path class="fil6" d="M126.09 71.35c-0.24,0.08 -0.62,-0.48 -1.32,-1.14 -0.72,-0.68 -1.75,-1.44 -3.16,-1.92l-0.06 -0.02c-2.83,-0.94 -5.47,-0.35 -5.63,-0.82 -0.11,-0.32 2.37,-2.15 6.2,-0.89l0.08 0.03c1.81,0.61 3,1.82 3.59,2.88 0.58,1.06 0.52,1.82 0.31,1.89z"/>
   <path class="fil6" d="M97.19 64.06c-0.17,0.19 -0.75,-0.08 -1.63,-0.35 -0.93,-0.29 -2.08,-0.54 -3.52,-0.52l-0.05 0c-1.42,0.05 -2.53,0.35 -3.41,0.7 -0.83,0.33 -1.36,0.68 -1.55,0.52 -0.17,-0.15 0.02,-0.83 0.88,-1.57 0.86,-0.75 2.28,-1.42 4.04,-1.44l0.06 -0c1.76,-0.04 3.21,0.53 4.13,1.2 0.92,0.66 1.21,1.31 1.05,1.48l0 0z"/>
   <path class="fil7" d="M96.85 53.11c0,-0 4.24,1.44 5.83,7.97 0.69,2.77 0.49,6.6 -2.01,9.42l-0.34 0.37c-1.39,1.04 -2.61,2.09 -2.71,3.35 -0.2,0.96 0.47,2.05 1.16,2.88 3.48,3.97 7.73,4.71 7.64,5.03 0.09,-0.32 -4.25,0.56 -8.78,-3.96 -0.96,-0.93 -1.86,-2.38 -1.74,-4.15 0.28,-2.01 1.69,-3.53 3.28,-4.54l0.27 -0.27c1.95,-2.1 2.14,-5.37 1.68,-7.79 -1.06,-5.43 -4.49,-8.04 -4.29,-8.31z"/>
   <path class="fil5" d="M129.96 74.03c-3.91,0.74 -6.68,3.5 -6.18,6.17 0.5,2.67 4.09,4.23 8,3.49 3.92,-0.74 6.68,-3.5 6.18,-6.17 -0.5,-2.67 -4.09,-4.23 -8,-3.49z"/>
   <path class="fil5" d="M88.56 69.43c-2.56,-1.92 -5.75,-2.09 -7.13,-0.38 -1.38,1.71 -0.41,4.64 2.15,6.56 2.56,1.92 5.75,2.09 7.13,0.38 1.37,-1.71 0.41,-4.64 -2.15,-6.56z"/>
   <path class="fil3" d="M159.25 69.49c1.93,3.68 -1.62,5.09 -2.61,7.95 -0.61,3.39 -0.73,8.02 -4.56,9.43 -4.41,1.62 -3.28,-5.88 -3.75,-5.25 4.52,-0.97 6.56,-6.31 2.35,-7.86 1.64,-3.27 5.36,-6.46 8.58,-4.27z"/>
   <path class="fil7" d="M159.25 69.49c-0.17,0.15 -1.04,-0.74 -2.18,-0.46 -0.59,0.09 -1.13,0.44 -1.82,1.01 -1.16,0.85 -2.19,1.98 -3.15,3.5l0.1 0.08c0.78,0.62 1.36,1.45 1.55,2.44 0.17,1.07 -0.09,2.08 -0.56,2.85 -2.19,3.55 -4.96,2.43 -4.87,2.71 -0.1,-0.32 2.42,-1 3.5,-3.45 0.24,-0.54 0.37,-1.2 0.23,-1.79 -0.15,-0.85 -0.65,-1.68 -1.3,-2.51l-0.09 -0.11c0.97,-2.11 2.22,-3.78 3.64,-4.93 0.86,-0.63 1.8,-0.96 2.69,-0.96 2.35,0.11 2.08,1.77 2.25,1.62z"/>
   <path class="fil6" d="M85.88 61.2c-0.63,0.05 -1.47,-0.82 -1.39,-2.72 0.07,-1.86 1.12,-4.32 3.5,-5.91 0.19,-0.14 0.39,-0.27 0.59,-0.39 2.73,-1.63 5.57,-1.38 7.3,-0.56 1.79,0.85 2.23,2.05 1.89,2.61 -0.35,0.59 -1.44,0.67 -2.6,0.89 -1.19,0.23 -2.67,0.62 -3.96,1.42l-0.29 0.19c-1.36,1.04 -2.34,1.89 -3.14,2.78 -0.7,0.77 -1.26,1.64 -1.91,1.69z"/>
   <path class="fil6" d="M98.12 97.85c-5.87,-12.02 9.32,-11.44 9.94,-0.28 -2.84,2.14 -6.13,2.04 -9.94,0.28z"/>
   <path class="fil7" d="M99.06 98.26c1.47,-2.63 4.24,-5.03 7,-6.3 1.09,1.39 1.86,3.27 1.99,5.62 -2.6,1.97 -5.58,2.05 -9,0.68z"/>
   <path class="fil4" d="M32.15 88.56c12.23,-2.22 4.4,-15.22 2.5,-22.25 1.13,-6 -2.59,-13.14 -8.11,-6.69 -4.1,-9.79 -11.07,-6.97 -10.76,3.22 -5.56,-3.56 -7.31,1.3 -6.56,6.1 -5.72,-2.27 -6.5,2.7 -4.98,6.3 -4.54,0.16 -4.8,2.21 -3.69,6.1 3.26,9.6 5.4,27.99 19.75,19.01 3.32,-5 9.09,-8.76 11.85,-11.78z"/>
   <path class="fil8" d="M82.47 134.37c27.12,2.76 46.22,-20.73 71.48,-13.19 17.47,5.21 18.24,25.47 16.14,30.01 3.79,11.19 2.37,15.06 -1.64,23.71 -15.24,3.56 -30.51,-2.98 -46.2,-0.53 -17.46,-0.28 -46.42,6.47 -61.96,-11.61 -9.02,-16.95 -42.29,-22.81 -37.47,-48.81 -20.53,-4.91 -2.05,-36.46 12.91,-29.54 3.36,1.55 4.62,8.25 5.39,9.21 10.46,-2.3 12.34,8.69 17.17,15.8l24.19 24.95z"/>
   <path class="fil9" d="M77.72 173.84c2.83,0.63 5.67,0.9 8.5,0.9 8.64,-0 17.16,-2.52 25.26,-5.02 8.1,-2.5 15.79,-4.97 22.69,-4.97 0.59,0 1.17,0.02 1.75,0.06l0.03 -0.55 -0.5 -0.23c-0.78,1.69 -1.14,3.16 -1.14,4.46 -0,1.21 0.33,2.26 0.91,3.14 0.88,1.32 2.29,2.23 3.97,2.9 1.68,0.67 3.64,1.11 5.68,1.46l0.09 -0.55 -0.55 0.08c0.51,3.39 1.08,6.67 1.08,10.04 0,0.4 -0.01,0.81 -0.03,1.22 -0.01,0.3 0.22,0.56 0.53,0.58 0.31,0.01 0.56,-0.22 0.58,-0.53 0.02,-0.42 0.03,-0.85 0.03,-1.27 -0,-3.49 -0.59,-6.83 -1.09,-10.2 -0.04,-0.24 -0.22,-0.42 -0.45,-0.46 -2.67,-0.45 -5.15,-1.07 -6.89,-2.09 -0.87,-0.5 -1.56,-1.1 -2.03,-1.8 -0.47,-0.7 -0.73,-1.51 -0.73,-2.53 0,-1.09 0.31,-2.41 1.04,-4 0.07,-0.16 0.06,-0.36 -0.03,-0.51 -0.09,-0.15 -0.26,-0.26 -0.44,-0.27 -0.6,-0.04 -1.21,-0.06 -1.82,-0.06 -7.16,0 -14.92,2.53 -23.01,5.02 -8.09,2.5 -16.51,4.97 -24.93,4.97 -2.75,0 -5.51,-0.26 -8.26,-0.88 -0.3,-0.07 -0.59,0.12 -0.66,0.42 -0.07,0.3 0.12,0.59 0.42,0.66z"/>
   <path class="fil10" d="M68.05 104.31l12.79 -4.91c0.76,-0.29 1.14,-1.14 0.85,-1.9 -0.29,-0.76 -1.14,-1.14 -1.9,-0.85l-12.79 4.91c-0.76,0.29 -1.14,1.14 -0.85,1.9 0.29,0.76 1.14,1.14 1.9,0.85z"/>
   <path class="fil10" d="M73.74 111.19l10.51 -6.66c0.69,-0.44 0.89,-1.35 0.46,-2.03 -0.44,-0.69 -1.35,-0.89 -2.03,-0.46l-10.51 6.66c-0.69,0.43 -0.89,1.34 -0.46,2.03 0.44,0.69 1.35,0.89 2.03,0.46z"/>
   <path class="fil10" d="M80.38 118.44l7.88 -9.11c0.53,-0.62 0.47,-1.54 -0.15,-2.08 -0.62,-0.53 -1.54,-0.47 -2.08,0.15l-7.88 9.11c-0.53,0.61 -0.47,1.54 0.15,2.08 0.62,0.53 1.54,0.47 2.08,-0.15z"/>
  </g>
 </g>
</svg>
