<?xml version="1.0" encoding="UTF-8"?>
<!DOCTYPE svg PUBLIC "-//W3C//DTD SVG 1.1//EN" "http://www.w3.org/Graphics/SVG/1.1/DTD/svg11.dtd">
<!-- Creator: CorelDRAW 2018 (64-Bit) -->
<svg xmlns="http://www.w3.org/2000/svg" xml:space="preserve" width="1.01688in" height="0.636437in" version="1.1" style="shape-rendering:geometricPrecision; text-rendering:geometricPrecision; image-rendering:optimizeQuality; fill-rule:evenodd; clip-rule:evenodd"
viewBox="0 0 18.77 11.75"
 xmlns:xlink="http://www.w3.org/1999/xlink">
 <defs>
  <style type="text/css">
   <![CDATA[
    .fil0 {fill:#5C67AE}
   ]]>
  </style>
 </defs>
 <g id="Layer_x0020_1">
  <metadata id="CorelCorpID_0Corel-Layer"/>
  <g id="BA">
   <polygon id="path538" class="fil0" points="16.26,9.02 15.96,9.02 15.74,9.06 15.57,9.19 15.05,9.89 15.05,10.02 15.09,10.06 15.31,10.1 15.52,10.41 16.35,10.97 16.74,11.1 17.04,10.8 17.17,10.28 17.21,9.89 17.08,9.58 16.87,9.28 16.52,9.11 "/>
   <polygon id="path542" class="fil0" points="17.21,3.47 16.39,2.47 16,2.08 15.48,1.73 13.05,0.74 12.05,0.52 11.75,0.35 11.53,0.17 11.23,0.04 10.88,0 10.58,0 10.06,0.3 8.98,1.34 8.41,1.73 7.85,1.86 6.5,1.86 5.98,2.04 3.51,1.21 3.3,1.17 2.73,1.13 2.39,1 2.17,0.82 1.78,1.13 1.6,1.17 1.39,1.13 1.17,0.91 1.04,0.74 0.87,0.56 0.52,0.56 0.04,0.61 -0,1 0.3,2.43 1.52,4.12 1.86,4.6 2.34,4.94 2.86,5.12 4.6,5.12 5.16,5.25 7.07,6.11 7.46,6.42 8.5,7.33 9.02,7.67 9.32,7.89 9.45,8.07 9.5,8.28 9.67,8.5 10.15,8.85 10.28,8.85 10.41,8.89 10.54,8.93 10.75,9.45 10.8,9.58 10.97,9.89 10.84,10.23 10.71,10.54 10.54,10.75 9.84,11.06 9.54,11.27 9.54,11.49 9.84,11.66 10.15,11.71 10.49,11.75 10.84,11.71 11.06,11.66 11.27,11.62 11.58,11.45 11.62,11.27 11.66,10.58 11.53,10.36 11.32,10.49 11.45,10.71 11.49,10.75 11.36,10.88 11.14,10.58 11.14,10.23 11.27,9.93 11.58,9.8 11.92,9.76 12.14,9.54 12.44,8.89 12.92,8.37 13.57,8.02 15.52,7.28 15.83,7.11 15.96,6.76 16.09,6.63 17.13,6.59 17.3,6.46 17.65,6.07 17.95,5.9 18.43,5.55 18.6,5.38 18.77,4.73 18.43,4.25 17.91,3.86 "/>
  </g>
 </g>
</svg>
