<?xml version="1.0" encoding="UTF-8"?>
<!DOCTYPE svg PUBLIC "-//W3C//DTD SVG 1.1//EN" "http://www.w3.org/Graphics/SVG/1.1/DTD/svg11.dtd">
<!-- Creator: CorelDRAW 2018 (64-Bit) -->
<svg xmlns="http://www.w3.org/2000/svg" xml:space="preserve" width="2.20057in" height="2.61859in" version="1.1" style="shape-rendering:geometricPrecision; text-rendering:geometricPrecision; image-rendering:optimizeQuality; fill-rule:evenodd; clip-rule:evenodd"
viewBox="0 0 144.09 171.46"
 xmlns:xlink="http://www.w3.org/1999/xlink">
 <defs>
  <style type="text/css">
   <![CDATA[
    .fil0 {fill:#5C67AE}
   ]]>
  </style>
 </defs>
 <g id="Layer_x0020_1">
  <metadata id="CorelCorpID_0Corel-Layer"/>
  <g id="BE">
   <polygon id="Bengkulu" class="fil0" points="-0,12.92 2.92,10.46 7.69,6.92 8.77,6.46 11.23,5.84 12.46,5.23 14.76,3.54 16.45,3.08 16.45,3.08 20.76,0 21.84,0 22.3,0.15 22.76,0.62 23.22,1.08 24.45,2.31 25.22,2.77 25.84,3.23 26.3,3.69 26.3,3.85 26.45,4.61 27.22,6 28.6,11.07 29.07,11.84 29.68,12.3 31.37,12.92 32.14,13.69 32.6,14.3 33.06,15.53 34.91,17.22 35.99,19.07 37.83,20.92 39.68,22.3 42.6,23.68 43.37,23.84 44.6,24.3 45.21,24.91 46.29,26.14 46.9,26.3 47.52,26.3 48.59,25.84 49.06,25.84 49.67,25.84 51.52,26.45 52.75,27.22 53.36,27.68 54.74,27.83 55.21,28.3 56.28,29.68 57.67,30.76 58.28,31.37 58.74,31.99 59.51,33.83 60.13,34.45 62.43,36.75 63.51,37.37 63.97,37.83 64.13,38.6 64.28,39.83 64.28,39.98 63.82,39.98 63.05,40.14 62.59,40.14 62.74,40.75 64.13,42.75 64.74,42.9 65.2,43.06 65.82,43.06 66.43,43.06 67.51,43.67 68.28,43.83 68.74,43.83 69.2,43.67 69.66,43.21 70.12,42.75 70.58,42.75 71.2,42.9 74.43,43.98 75.66,45.21 76.43,45.83 77.04,46.29 77.2,46.9 77.35,47.36 77.2,47.83 76.73,48.9 76.58,50.75 76.43,51.21 76.27,51.36 76.12,51.82 75.97,51.98 75.97,52.44 76.12,52.59 76.58,53.05 77.04,53.21 77.81,53.67 78.27,54.29 78.89,55.05 79.35,55.52 80.12,56.28 80.89,57.05 81.5,57.52 81.97,57.98 82.43,57.98 84.12,58.74 85.19,59.21 85.81,59.05 86.27,58.59 87.96,56.9 90.27,55.21 91.5,54.44 92.27,54.28 92.88,54.44 93.04,54.9 93.65,56.59 94.11,57.21 97.19,59.05 97.8,59.51 100.88,59.98 101.96,60.44 103.34,60.59 103.96,60.74 104.57,61.21 104.72,61.67 105.19,62.13 105.19,62.59 105.34,63.97 105.49,65.2 104.88,69.51 104.11,70.59 102.88,70.43 102.26,70.43 101.65,70.58 101.03,70.59 100.26,70.59 99.03,69.97 98.42,69.97 98.42,70.12 98.42,70.74 99.03,71.51 99.19,72.12 99.19,72.89 98.57,73.35 97.5,74.12 95.19,74.89 94.11,75.66 87.81,81.66 87.04,82.12 85.35,82.58 84.12,82.73 84.27,83.5 85.65,84.27 86.27,85.04 86.73,85.81 87.5,86.42 89.35,87.65 89.96,88.27 91.19,90.27 91.81,90.88 92.88,91.35 95.34,92.42 95.96,92.58 96.73,92.42 98.57,91.96 99.65,92.11 100.11,92.27 102.42,94.11 103.49,93.5 104.72,93.5 105.34,93.5 106.41,93.5 107.8,93.5 108.41,93.34 108.88,93.34 109.34,93.34 109.95,93.96 110.41,93.96 110.87,94.42 111.03,94.88 111.49,96.57 112.87,99.8 113.03,100.88 113.49,105.19 114.1,106.42 114.87,106.26 115.33,106.42 116.41,106.57 117.8,107.34 120.1,107.8 122.56,109.18 124.25,109.8 127.33,109.95 129.64,111.64 131.02,112.11 131.79,112.1 134.09,112.26 134.71,112.41 135.33,112.87 135.79,113.34 135.94,114.41 136.4,118.87 136.86,120.26 137.33,121.02 139.02,122.87 139.63,124.71 140.09,125.18 140.25,125.79 141.63,130.56 141.63,131.33 141.79,131.94 141.94,132.4 143.02,133.02 143.63,133.48 144.09,134.56 144.09,134.56 142.4,136.4 140.71,137.63 139.32,138.4 137.33,139.79 136.56,139.94 135.94,140.4 134.87,139.94 134.4,139.94 133.33,139.94 132.86,139.94 132.71,139.79 132.56,139.63 132.4,139.48 131.79,139.02 131.17,138.25 130.56,138.09 130.1,137.63 129.48,137.48 128.71,137.32 128.1,137.32 127.48,137.48 126.87,137.94 126.25,138.09 125.64,138.09 125.48,137.48 124.71,135.17 124.25,134.56 123.79,134.4 122.71,133.79 121.95,134.4 121.18,134.25 120.56,133.17 119.95,130.87 118.87,129.79 112.87,124.87 106.57,120.72 99.8,118.26 99.03,117.49 98.26,115.49 97.65,114.41 88.42,106.57 79.35,100.26 70.74,93.96 69.51,93.19 68.12,92.11 66.89,90.73 66.43,88.88 66.59,88.12 67.66,86.42 67.82,85.35 67.66,84.27 65.97,82.43 65.35,81.66 65.36,81.04 65.36,80.58 65.36,80.12 65.36,79.66 65.2,79.04 64.74,78.58 64.28,77.96 64.28,77.35 64.13,75.5 63.97,74.43 63.36,73.66 55.21,68.74 45.21,61.97 32.75,53.21 31.52,51.82 30.14,49.36 29.06,48.59 21.53,36.29 20.91,33.99 16.61,26.45 15.22,24.76 13.38,23.53 8.92,21.22 6.92,19.99 5.08,18.3 "/>
   <polygon id="path306" class="fil0" points="72.43,165.93 71.81,164.54 70.12,163.77 67.05,163.01 65.97,161.93 65.36,161.31 64.59,161.16 63.82,161.01 63.05,160.85 61.66,160.08 60.28,159.93 58.9,160.39 56.44,162.85 58.13,163.47 64.28,168.39 64.89,169.16 65.51,170.85 66.12,171.46 66.74,170.23 66.89,170.08 67.36,170.08 67.82,170.08 68.28,170.08 68.43,169.93 68.89,170.08 71.35,170.54 71.97,170.39 71.51,169.77 70.74,169.16 70.58,168.54 71.81,167.93 72.43,167.31 "/>
  </g>
 </g>
</svg>
