<?xml version="1.0" encoding="UTF-8"?>
<!DOCTYPE svg PUBLIC "-//W3C//DTD SVG 1.1//EN" "http://www.w3.org/Graphics/SVG/1.1/DTD/svg11.dtd">
<!-- Creator: CorelDRAW 2018 (64-Bit) -->
<svg xmlns="http://www.w3.org/2000/svg" xml:space="preserve" width="0.996866in" height="1.03485in" version="1.1" style="shape-rendering:geometricPrecision; text-rendering:geometricPrecision; image-rendering:optimizeQuality; fill-rule:evenodd; clip-rule:evenodd"
viewBox="0 0 23.3 24.19"
 xmlns:xlink="http://www.w3.org/1999/xlink">
 <defs>
  <style type="text/css">
   <![CDATA[
    .fil0 {fill:#5C67AE}
   ]]>
  </style>
 </defs>
 <g id="Layer_x0020_1">
  <metadata id="CorelCorpID_0Corel-Layer"/>
  <polygon id="JK" class="fil0" points="6.21,17.97 7.1,18.86 7.32,19.08 7.54,19.97 8.21,20.19 9.1,20.86 9.99,21.75 10.87,21.75 11.54,21.52 13.09,20.64 15.53,21.75 18.42,24.19 19.53,23.52 20.41,21.52 21.97,16.2 22.63,15.09 22.85,14.2 23.08,13.31 23.08,10.65 23.08,6.44 23.3,1.78 11.76,3.33 8.43,3.33 5.1,2.66 4.22,1.77 3.55,0.22 3.33,0 0.89,2 -0,3.11 1.11,11.09 3.55,13.76 4.44,16.64 5.33,17.75 "/>
 </g>
</svg>
