<svg xmlns="http://www.w3.org/2000/svg" xmlns:xlink="http://www.w3.org/1999/xlink" width="95.699" height="99.346" version="1.1" viewBox="0 0 23.3 24.19" xml:space="preserve" style="shape-rendering:geometricPrecision;text-rendering:geometricPrecision;image-rendering:optimizeQuality;fill-rule:evenodd;clip-rule:evenodd"><defs><style type="text/css">.fil0{fill:#5c67ae}</style></defs><g id="Layer_x0020_1"><metadata id="CorelCorpID_0Corel-Layer"/><polygon id="JK" points="6.21 17.97 7.1 18.86 7.32 19.08 7.54 19.97 8.21 20.19 9.1 20.86 9.99 21.75 10.87 21.75 11.54 21.52 13.09 20.64 15.53 21.75 18.42 24.19 19.53 23.52 20.41 21.52 21.97 16.2 22.63 15.09 22.85 14.2 23.08 13.31 23.08 10.65 23.08 6.44 23.3 1.78 11.76 3.33 8.43 3.33 5.1 2.66 4.22 1.77 3.55 .22 3.33 0 .89 2 0 3.11 1.11 11.09 3.55 13.76 4.44 16.64 5.33 17.75" class="fil0"/></g></svg>