<?xml version="1.0" encoding="UTF-8"?>
<!DOCTYPE svg PUBLIC "-//W3C//DTD SVG 1.1//EN" "http://www.w3.org/Graphics/SVG/1.1/DTD/svg11.dtd">
<!-- Creator: CorelDRAW 2018 (64-Bit) -->
<svg xmlns="http://www.w3.org/2000/svg" xml:space="preserve" width="1.87412in" height="0.580083in" version="1.1" style="shape-rendering:geometricPrecision; text-rendering:geometricPrecision; image-rendering:optimizeQuality; fill-rule:evenodd; clip-rule:evenodd"
viewBox="0 0 53.38 16.52"
 xmlns:xlink="http://www.w3.org/1999/xlink">
 <defs>
  <style type="text/css">
   <![CDATA[
    .fil0 {fill:#5C67AE}
   ]]>
  </style>
 </defs>
 <g id="Layer_x0020_1">
  <metadata id="CorelCorpID_0Corel-Layer"/>
  <polygon id="GO" class="fil0" points="23.68,0.13 23.61,0.2 22.34,1.07 20.2,2.07 19.06,2.27 16.66,1.47 16.32,1.4 16.12,1.4 15.85,1.4 15.59,1.47 12.84,2.61 11.44,3.08 10.84,3.41 10.37,3.48 9.03,3.81 8.03,4.15 7.69,4.21 7.49,4.21 7.22,4.15 7.02,4.08 6.02,3.88 5.42,3.88 5.08,3.88 4.55,3.95 4.28,4.15 3.28,4.68 3.01,4.88 2.74,5.22 2.41,5.75 2.14,6.09 1.94,6.69 1.74,6.96 1.47,7.16 1.27,7.36 -0,7.83 1.27,9.16 1.54,9.63 1.87,9.97 2.21,10.17 2.68,10.23 3.01,10.3 3.21,10.37 3.41,10.37 3.61,10.37 3.68,10.3 3.75,10.3 3.81,10.3 3.88,10.37 3.95,10.57 4.01,10.84 4.08,12.17 4.01,12.44 3.88,12.91 4.01,12.91 4.48,12.71 5.28,12.51 5.75,12.44 6.02,12.44 6.36,12.78 6.62,12.58 6.89,12.51 7.16,12.51 7.49,12.44 7.83,12.37 7.89,12.17 7.89,11.84 7.96,11.57 8.23,11.24 8.43,11.24 8.63,11.3 8.9,11.37 9.37,11.37 9.63,11.37 9.83,11.17 10.03,10.9 10.24,11.1 10.44,11.37 10.5,11.57 10.77,11.77 11.04,11.77 11.77,11.57 12.04,11.57 12.64,11.77 12.98,12.11 14.05,13.65 14.25,13.71 14.52,13.78 15.52,13.58 16.66,13.51 18.73,13.24 19.2,13.04 19.53,12.58 20,12.37 21.54,12.44 22.41,12.64 22.94,12.71 23.01,12.64 23.35,12.44 23.61,12.37 23.81,12.37 25.62,12.37 25.82,12.37 26.29,12.11 26.56,12.11 32.11,12.11 32.44,12.11 32.78,12.31 33.04,12.51 33.31,12.58 33.78,12.58 34.05,12.51 34.11,12.24 33.91,11.51 34.25,11.71 34.58,12.31 34.85,12.37 35.92,12.44 37.99,12.17 41.41,12.37 42.68,12.17 43.14,11.97 43.48,11.64 43.68,11.64 43.95,12.11 44.95,13.18 45.69,14.25 45.69,14.31 45.75,14.38 46.22,14.38 46.29,14.45 46.89,15.25 46.96,15.45 47.16,15.52 47.36,15.85 47.43,15.92 47.49,15.92 47.83,15.99 48.56,16.25 50.77,16.52 51.24,16.46 52.04,16.19 52.31,16.19 52.58,15.65 53.11,14.25 53.31,13.51 53.38,12.78 53.18,12.04 52.84,10.5 52.38,9.9 51.91,9.36 49.3,8.09 48.76,7.49 48.03,7.02 47.69,6.76 47.49,6.49 46.96,5.42 46.96,4.82 46.96,4.62 46.76,4.35 46.49,4.15 45.42,3.54 45.15,3.48 44.62,3.14 44.08,2.27 44.01,2.07 43.48,2.01 41.94,1.47 41.61,1.4 41.07,1.4 41,1.47 40.94,1.74 40.94,2.21 40.87,2.27 40.6,2.54 40.54,2.61 40.07,3.68 39.8,3.88 39.33,3.95 38.46,4.68 37.99,4.48 37.46,3.95 36.92,3.75 36.86,3.41 36.66,3.41 36.39,3.34 36.19,3.28 36.12,3.08 35.92,2.88 35.05,2.61 34.58,2.34 34.31,2.07 34.25,1.74 33.78,1.47 33.31,1.27 31.97,1.2 30.97,0.94 30.1,0.6 29.37,0.07 29.1,0.07 28.03,0.27 27.56,0.33 26.49,0 26.15,0 26.09,0.07 25.89,0.27 25.82,0.33 25.62,0.27 25.42,0.2 25.35,0.2 25.08,0.2 24.62,0.27 24.35,0.33 24.08,0.27 "/>
 </g>
</svg>
