<?xml version="1.0" encoding="UTF-8"?>
<!DOCTYPE svg PUBLIC "-//W3C//DTD SVG 1.1//EN" "http://www.w3.org/Graphics/SVG/1.1/DTD/svg11.dtd">
<!-- Creator: CorelDRAW 2018 (64-Bit) -->
<svg xmlns="http://www.w3.org/2000/svg" xml:space="preserve" width="3.94547in" height="2.4307in" version="1.1" style="shape-rendering:geometricPrecision; text-rendering:geometricPrecision; image-rendering:optimizeQuality; fill-rule:evenodd; clip-rule:evenodd"
viewBox="0 0 314.5 193.75"
 xmlns:xlink="http://www.w3.org/1999/xlink">
 <defs>
  <style type="text/css">
   <![CDATA[
    .fil0 {fill:#5C67AE}
   ]]>
  </style>
 </defs>
 <g id="Layer_x0020_1">
  <metadata id="CorelCorpID_0Corel-Layer"/>
  <g id="JI">
   <polygon id="path1154_1_" class="fil0" points="44.93,64.4 42.5,68.33 41.93,69.83 41.93,71.14 41,76.94 40.81,78.63 40.81,84.05 40.62,86.3 40.81,87.05 41.37,89.48 41.56,90.23 41.37,90.79 40.44,91.54 37.63,93.79 36.88,94.72 35.94,95.66 34.26,96.97 32.76,97.72 32.2,98.28 32.01,98.47 31.82,98.66 31.26,99.41 31.08,99.97 31.08,100.72 28.64,100.15 24.71,98.84 23.78,98.28 23.03,97.72 22.46,97.53 21.9,97.72 21.34,97.72 20.59,97.91 19.66,97.72 18.72,96.97 17.04,96.78 16.1,97.72 15.54,100.53 15.54,103.52 15.72,105.21 15.72,106.52 14.79,114.57 15.54,118.12 16.1,119.06 16.85,119.81 16.66,120.56 14.98,121.87 14.79,122.43 14.79,122.99 14.98,123.18 15.16,123.93 15.16,124.86 15.16,125.8 16.47,126.55 18.72,126.55 19.47,126.74 20.03,127.48 21.72,129.17 22.47,129.92 22.65,130.67 22.84,131.6 22.65,134.04 22.47,135.53 21.16,138.34 20.97,140.59 20.78,140.78 20.03,141.34 19.28,141.34 18.72,140.78 18.16,140.59 17.6,140.4 16.85,140.59 15.35,141.52 14.41,142.27 12.73,143.02 9.55,144.71 5.62,148.26 3.37,149.76 2.06,150.7 1.12,151.63 0.94,152.2 0.75,152.76 0.94,154.25 0.94,154.82 0.94,155.38 -0,158.37 3.18,160.43 4.49,160.62 7.3,160.62 7.86,160.62 8.05,160.06 8.8,159.31 8.99,158.75 9.17,158 9.36,157.44 9.92,157.44 10.48,158 10.48,158.93 10.67,159.68 11.42,159.87 12.17,160.06 12.92,160.25 13.1,160.81 13.29,161.56 13.48,162.12 14.04,162.12 19.28,160.62 19.47,160.43 20.22,160.25 20.78,160.25 21.34,160.25 22.09,160.99 22.65,160.99 23.21,160.99 26.4,160.99 27.15,161.18 27.89,161.74 28.08,161.74 28.83,161.74 29.77,161.56 30.33,161.56 31.64,162.12 31.64,162.68 31.64,163.43 31.82,164.36 36.32,165.3 37.25,165.3 38.19,164.55 38.94,164.55 41.18,165.49 42.12,165.67 42.87,164.92 43.43,164.92 43.99,166.23 44.93,167.17 46.24,167.73 47.55,167.92 48.3,167.73 48.49,167.17 48.49,166.98 47.55,166.42 47.74,165.67 47.92,165.11 48.11,164.92 48.67,163.43 48.86,162.86 49.42,162.68 50.17,162.86 50.36,163.61 50.54,164.36 50.73,164.92 52.04,164.36 52.23,163.43 52.23,162.12 52.79,160.81 53.54,160.62 54.1,160.62 54.85,161.18 55.6,161.37 56.35,161.37 57.85,161.37 58.78,161.56 60.28,163.05 61.59,163.24 62.34,163.24 62.53,163.24 62.71,162.68 64.21,161.74 64.96,161.74 67.02,163.05 68.33,163.61 80.12,164.92 81.43,165.11 81.99,165.3 82.18,165.86 82.37,165.86 83.31,166.05 84.99,165.3 85.55,165.11 87.05,165.11 88.55,165.3 90.23,165.86 91.17,166.8 90.98,166.98 90.79,167.73 92.29,167.73 93.23,168.29 93.98,168.86 94.91,169.04 99.97,169.04 103.15,170.35 105.58,170.54 108.58,172.04 109.51,172.6 110.45,171.66 111.2,171.1 112.13,170.91 113.07,170.92 114.01,170.73 114.57,170.17 115.32,169.42 116.25,168.86 116.81,168.86 117.38,169.42 117.94,169.6 118.69,169.42 119.25,169.23 119.44,168.48 119.62,168.29 121.12,169.23 121.87,169.23 124.11,169.98 126.17,168.48 129.36,164.93 131.79,163.43 134.6,162.87 142.83,161.93 145.64,162.12 148.08,162.87 150.88,163.8 152.38,164.74 155.38,168.3 156.69,169.04 157.62,168.48 158.56,167.92 160.06,168.11 160.24,168.29 160.81,169.04 160.99,169.61 161.55,169.79 163.8,171.29 164.74,171.29 166.8,171.1 166.98,171.29 167.73,172.04 168.29,172.23 170.35,172.79 171.1,172.98 172.41,174.66 173.16,175.22 174.1,175.41 174.85,175.22 175.41,175.22 176.16,175.78 176.34,176.34 176.16,177.28 176.34,177.47 177.65,177.47 178.22,177.47 178.4,177.28 178.59,176.72 179.53,176.16 180.46,175.97 181.4,175.78 181.96,176.34 182.15,178.4 182.71,179.34 182.71,179.15 182.9,178.97 183.08,178.97 183.27,178.78 184.21,179.53 185.89,180.28 187.58,180.84 188.51,180.84 189.26,180.84 190.57,180.09 191.32,180.09 191.88,180.28 191.88,181.02 191.7,181.96 191.7,182.52 192.44,183.46 193.19,183.46 194.5,182.9 195.81,182.33 196.37,182.52 197.12,183.83 197.69,184.02 199.93,184.58 200.49,184.58 203.49,183.65 204.99,183.46 205.74,184.39 206.48,185.14 207.98,184.58 210.79,182.9 213.22,182.9 216.22,184.39 218.46,186.45 219.03,188.7 217.53,190.38 217.34,191.13 218.84,191.7 222.4,191.51 223.89,191.7 229.7,193.75 232.13,193.57 233.82,191.32 233.82,189.82 233.25,188.89 232.5,188.14 231.94,187.39 231.38,186.64 228.2,185.33 226.51,184.39 225.76,184.21 224.46,184.21 222.96,184.21 222.02,183.27 221.27,181.96 221.09,180.65 221.09,176.34 220.9,174.29 219.59,172.98 219.59,175.97 219.4,177.47 218.65,178.22 217.9,177.65 217.72,176.16 217.72,173.35 216.97,171.85 216.78,171.1 216.78,170.54 217.34,169.04 217.34,166.98 219.78,154.44 222.58,145.27 222.58,142.27 222.4,141.71 222.4,141.15 222.21,140.59 222.21,139.84 222.4,139.09 223.33,137.78 223.33,137.22 223.89,134.78 223.89,133.29 223.33,131.98 222.58,131.04 220.15,129.54 218.84,128.61 218.28,128.42 217.53,128.42 216.03,128.42 215.28,128.42 214.72,128.23 213.78,127.67 211.54,125.43 210.6,125.24 209.1,125.24 206.67,125.99 205.17,125.99 203.11,125.24 201.62,123.93 198.81,120.75 196.75,119.44 195.06,120 190.57,123.74 189.64,123.93 188.33,124.12 186.83,123.93 185.52,123.74 184.77,123.74 183.46,124.3 182.15,125.8 181.4,126.55 180.09,126.74 178.59,126.55 176.16,125.8 174.66,125.61 174.1,125.8 172.79,126.36 172.04,126.55 163.62,125.24 162.12,125.24 160.06,126.55 159.12,126.74 157.81,126.92 156.31,127.48 154.07,128.42 151.82,129.92 150.51,130.48 149.01,130.67 148.08,130.11 146.58,128.05 145.27,127.48 144.52,127.48 143.21,127.67 142.46,127.86 141.71,127.67 140.59,128.05 138.34,127.48 137.03,126.55 134.79,124.3 133.48,123.37 132.17,122.8 130.86,122.62 129.36,122.62 128.05,122.43 120,118.87 114.57,114.94 114.57,109.7 115.32,108.76 117.56,107.27 118.13,105.96 118.13,103.15 118.31,102.21 118.87,99.97 118.87,99.03 118.69,98.09 117.94,96.41 117.19,95.47 116.25,94.54 115.32,94.35 113.82,94.54 112.88,95.47 112.14,96.78 111.2,97.72 107.64,96.22 105.96,95.29 105.02,93.79 108.95,94.35 109.7,93.79 110.26,92.48 109.51,91.17 108.58,90.23 107.64,89.67 107.08,89.11 106.33,88.17 105.77,87.24 105.58,86.49 106.14,85.93 107.08,85.36 109.14,84.8 108.58,83.49 107.64,83.68 106.89,83.87 106.14,83.68 105.02,83.12 103.52,81.06 103.34,80.31 103.52,78.81 104.46,76.38 104.46,74.88 104.46,74.32 103.9,73.76 103.71,73.01 103.15,72.82 102.21,72.26 102.03,72.45 102.03,73.01 102.03,73.76 101.46,75.07 100.71,75.82 99.4,75.82 97.91,75.26 96.97,74.51 96.03,73.76 95.1,73.01 93.79,72.82 93.6,72.82 93.04,73.38 92.48,73.57 91.54,73.01 89.3,72.82 87.8,72.82 84.99,73.76 83.68,73.94 81.25,73.94 80.68,73.94 78.44,74.69 76,75.26 73.01,75.26 71.7,75.07 70.39,74.32 66.83,69.64 64.59,67.39 63.28,66.83 61.97,67.39 59.91,68.33 58.41,68.89 57.47,68.89 56.54,68.7 53.73,68.52 49.42,67.21 47.92,66.46 46.43,65.52 "/>
   <polygon id="path38" class="fil0" points="155,173.16 151.45,172.97 148.26,172.41 148.45,172.6 148.64,173.16 147.7,173.91 147.52,174.85 147.7,175.78 148.45,175.97 153.51,175.97 155.19,175.78 155.94,175.6 156.13,175.41 156.13,174.47 155.56,173.72 "/>
   <polygon id="path530" class="fil0" points="110.82,0 109.89,0 108.95,0.19 108.2,0.37 107.45,0.19 105.96,1.87 105.77,2.06 104.08,3.56 103.52,4.12 104.27,5.62 104.27,6.93 104.83,7.67 106.52,7.68 107.45,6.93 108.02,6.93 108.2,7.49 108.76,7.68 110.45,7.68 111.01,7.68 112.32,7.11 113.07,6.36 113.63,5.05 113.63,3.56 113.45,2.06 112.88,1.12 112.13,0.37 "/>
   <polygon id="path534" class="fil0" points="293.72,74.88 292.41,74.13 287.92,71.7 286.61,71.14 281.37,70.57 275.94,70.58 276.12,70.58 275.94,70.58 275.75,70.58 275.94,70.58 274.63,70.58 273.5,70.58 272.75,71.32 273.5,72.26 272.75,73.2 271.82,73.95 271.26,74.69 271.07,76.19 271.63,76.94 272.57,77.13 274.81,76.94 274.25,79.37 274.25,79.94 275.56,81.25 275.75,81.25 275.94,81.43 276.12,81.43 276.68,81.25 276.87,81.06 277.06,80.87 276.5,80.12 276.31,79.94 276.31,79.75 276.31,79.37 276.31,78.81 277.25,78.06 279.68,79.75 281.18,80.31 282.49,79.37 282.3,78.81 282.11,78.62 281.36,78.06 280.61,77.5 279.87,77.5 279.3,77.31 279.12,76.38 279.68,76.38 281.74,75.44 282.49,75.63 282.67,75.82 282.86,76 283.42,76.19 283.99,76.19 284.55,75.63 285.11,75.63 285.3,75.07 285.48,75.07 286.05,75.26 286.23,75.44 286.98,75.63 287.92,75.82 289.41,76.57 289.98,76.57 292.78,76.57 293.72,76 "/>
   <polygon id="path906" class="fil0" points="196.37,75.63 195.44,74.69 194.13,73.94 192.82,73.38 191.51,72.82 188.51,72.26 180.46,73.57 134.04,73.38 128.61,74.13 125.8,74.13 126.36,74.13 124.3,74.13 121.49,74.69 119.44,75.44 119.62,76.38 116.07,80.12 114.38,81.81 112.7,82.74 111.2,82.93 110.45,82.93 109.89,83.49 109.89,84.8 110.07,85.74 110.26,86.68 110.82,87.24 111.57,86.3 112.13,86.86 111.57,87.61 111.39,88.55 111.57,90.61 112.13,91.17 113.07,91.36 115.32,91.17 117.75,91.36 137.41,95.85 138.34,95.66 138.53,94.91 137.78,94.16 136.47,93.41 135.72,92.48 135.91,92.29 135.91,90.61 136.47,90.04 137.03,89.86 138.53,90.61 139.28,90.61 139.28,91.17 138.53,91.73 138.53,92.29 139.09,92.48 139.28,93.04 139.84,95.29 141.15,95.47 144.15,94.54 145.46,94.54 146.39,95.1 156.13,95.85 160.43,95.1 161.74,95.29 162.3,95.85 163.24,96.78 164.18,96.97 164.74,95.47 164.74,93.23 164.74,92.48 165.49,91.73 165.67,91.92 165.86,92.1 166.05,92.29 166.05,92.48 166.24,92.66 166.42,92.66 166.61,92.48 166.61,91.92 166.61,91.35 166.8,91.35 166.98,91.17 167.17,89.86 167.73,89.67 171.29,87.99 171.29,87.42 172.6,87.24 178.78,87.99 182.52,88.92 184.58,89.11 186.08,88.55 186.27,87.24 185.52,86.49 184.21,85.93 183.64,85.36 183.46,84.8 183.64,84.24 184.21,84.05 184.77,84.05 185.33,83.87 185.33,83.68 185.52,83.49 185.52,83.31 189.45,83.3 190.01,83.12 191.51,82.18 197.31,80.68 200.31,79.75 201.06,78.06 200.31,76.75 198.62,76.19 196.94,76 "/>
   <polygon id="path910" class="fil0" points="217.34,85.36 216.41,84.8 215.47,84.62 214.53,84.8 213.6,85.36 213.04,86.3 212.85,87.61 213.04,88.92 213.97,89.48 214.16,90.04 214.35,90.79 214.53,91.36 216.22,92.1 217.53,92.67 218.46,92.66 219.96,91.73 219.78,89.48 218.46,87.24 "/>
   <polygon id="path914" class="fil0" points="231.38,89.3 230.63,89.3 229.14,88.55 228.57,88.55 228.01,88.55 225.77,89.48 225.2,89.67 225.02,90.23 225.02,90.79 225.2,90.98 225.95,90.98 227.45,90.98 232.88,91.73 233.07,91.17 233.07,90.61 232.88,89.86 232.69,89.67 231.94,89.48 "/>
   <polygon id="path1034" class="fil0" points="314.31,87.8 314.12,88.36 314.12,89.11 313.94,89.3 313.94,88.73 313.38,88.73 312.81,89.3 312.63,89.86 312.81,90.42 313,90.98 313.56,90.98 313.75,90.98 313.56,91.17 312.81,91.35 311.13,91.17 309.82,90.61 308.88,90.61 308.7,90.42 308.13,89.86 307.95,89.11 307.76,88.36 307.2,88.36 306.64,90.04 306.45,90.23 306.26,89.67 305.51,89.86 304.95,90.42 305.7,91.73 308.13,93.04 310.94,93.6 313.38,92.85 314.31,91.54 314.5,89.11 314.31,88.17 "/>
  </g>
 </g>
</svg>
