<?xml version="1.0" encoding="UTF-8"?>
<!DOCTYPE svg PUBLIC "-//W3C//DTD SVG 1.1//EN" "http://www.w3.org/Graphics/SVG/1.1/DTD/svg11.dtd">
<!-- Creator: CorelDRAW 2018 (64-Bit) -->
<svg xmlns="http://www.w3.org/2000/svg" xml:space="preserve" width="2.01737in" height="1.50539in" version="1.1" style="shape-rendering:geometricPrecision; text-rendering:geometricPrecision; image-rendering:optimizeQuality; fill-rule:evenodd; clip-rule:evenodd"
viewBox="0 0 95.9 71.56"
 xmlns:xlink="http://www.w3.org/1999/xlink">
 <defs>
  <style type="text/css">
   <![CDATA[
    .fil0 {fill:#5C67AE}
   ]]>
  </style>
 </defs>
 <g id="Layer_x0020_1">
  <metadata id="CorelCorpID_0Corel-Layer"/>
  <polygon id="JB" class="fil0" points="0.89,40.75 2.23,39.97 3.01,39.63 3.91,39.63 4.8,39.97 5.81,40.75 6.25,41.64 6.14,43.99 5.69,44.54 3.57,45.88 3.01,46.44 3.57,47.22 3.24,47.67 2.68,47.78 2.12,47.67 1.34,48.12 0.78,48.9 0.34,49.79 -0,50.35 0.11,51.13 0.67,52.92 1.12,54.82 1.12,55.15 1.45,55.26 2.01,54.7 2.34,54.59 4.02,54.7 7.03,56.49 8.71,56.94 22.22,57.38 28.02,57.94 28.8,58.05 30.48,58.5 31.37,58.61 31.48,58.61 32.26,59.06 32.6,59.06 34.39,59.06 37.51,59.62 39.19,59.62 39.52,59.62 39.86,60.06 39.97,60.06 40.3,60.06 40.75,59.95 40.86,59.95 41.75,60.29 42.76,61.07 44.54,61.4 45.1,61.74 46,62.3 48.12,63.19 48.68,63.97 50.35,65.31 50.46,65.42 50.46,65.76 50.57,65.87 51.02,65.98 53.59,66.31 54.37,66.43 54.93,66.76 56.71,68.55 57.61,68.88 59.06,68.1 59.84,68.1 66.87,70.45 68.32,70.78 78.93,71.56 80.6,70.78 80.94,69.55 81.05,68.32 82.39,67.32 83.17,66.98 85.52,66.98 86.08,66.98 86.41,67.32 86.86,67.88 87.42,68.32 87.53,68.21 87.53,67.88 87.86,67.1 87.97,66.76 87.97,66.31 88.53,66.2 88.87,66.2 89.2,66.31 89.54,66.43 89.87,66.54 91.21,66.54 91.77,66.43 92.22,66.09 89.98,64.19 89.87,64.08 89.76,63.75 89.76,63.3 89.87,62.85 89.98,62.29 89.98,61.85 89.98,61.29 89.2,58.5 89.09,56.82 88.98,56.38 88.87,55.93 88.75,55.82 88.31,55.48 87.86,55.49 87.53,55.37 87.41,54.48 87.3,54.03 87.19,53.92 86.75,53.92 85.85,54.26 85.41,54.15 85.29,53.81 84.96,53.25 84.07,53.14 83.06,52.81 82.73,51.58 83.73,48.56 83.73,47.67 83.84,47.11 84.18,46.67 84.62,46.33 85.41,46.22 85.96,46.11 87.41,46.44 88.31,46.44 88.75,46.11 89.2,46 90.21,45.21 90.65,44.77 91.1,44.21 91.55,43.76 91.88,43.32 91.99,42.87 91.99,42.09 91.88,41.08 92.22,39.19 92.33,38.63 93.22,37.18 95.9,34.16 95.9,34.05 95.79,33.94 95.23,33.83 94.67,33.72 94.11,33.6 93.78,33.27 92.1,34.16 90.43,34.16 88.75,33.6 87.08,32.38 84.85,32.26 83.84,28.69 82.5,21.88 80.38,20.65 79.93,20.54 79.15,20.1 75.25,14.85 74.02,13.51 72.68,12.95 70.11,13.29 70,13.4 69.66,13.51 69.55,13.84 69.55,14.18 69.44,14.29 69.33,14.4 69.22,14.4 69.11,14.51 68.99,14.51 68.99,14.85 69.11,14.96 69.11,15.3 69.11,15.63 69.11,15.74 69.11,15.85 68.32,16.19 67.88,16.3 67.1,16.3 66.2,16.3 65.42,16.19 64.64,15.85 63.75,15.41 61.4,13.73 59.73,13.28 57.38,11.83 55.93,10.61 55.15,10.27 54.7,10.83 54.59,11.16 54.26,11.16 53.92,11.16 53.48,11.05 53.14,11.16 53.03,11.28 52.92,11.61 52.58,11.72 52.14,12.17 51.58,12.5 50.68,12.84 49.9,12.84 48.68,12.5 47.89,12.06 46.44,10.61 44.77,9.71 43.32,9.15 41.87,8.37 40.64,7.03 39.41,4.8 38.07,2.9 37.07,2.01 35.73,1.45 34.27,1.45 31.48,2.34 30.7,2.34 30.14,2.34 29.36,2.23 28.8,1.79 28.47,1.23 28.02,0.89 26.68,0.11 25.34,0 24.45,0.34 24.56,1.67 23.78,2.68 23.44,3.24 23.78,3.68 24.11,4.24 24.11,4.69 24,5.14 23.89,5.92 23.45,6.25 23.33,6.36 23.22,8.71 23.22,10.83 23.22,12.17 23.11,12.62 23,13.06 22.66,13.62 21.88,16.3 21.44,17.31 20.88,17.64 19.43,16.41 18.2,15.85 17.42,16.3 17.08,16.41 16.63,16.41 16.19,15.96 15.74,15.63 15.41,15.52 15.29,15.07 15.18,14.96 14.74,14.51 14.74,16.63 14.85,17.19 13.84,17.75 9.71,17.75 8.71,17.42 7.81,16.86 7.03,16.52 6.03,16.52 5.47,16.86 4.91,17.19 4.47,17.53 4.13,17.42 3.8,16.86 3.68,16.41 3.35,16.08 3.01,16.08 2.68,16.19 2.12,16.52 1.79,17.3 1.9,17.86 2.01,18.87 2.12,19.87 1.67,20.77 1.23,21.77 1.12,23 1.9,29.58 2.23,30.48 2.68,31.04 3.91,31.48 4.35,31.59 5.13,32.38 5.02,32.93 2.9,34.83 1.56,37.4 1.12,38.4 1,39.3 1,39.74 1,40.19 "/>
 </g>
</svg>
