<?xml version="1.0" encoding="UTF-8"?>
<!DOCTYPE svg PUBLIC "-//W3C//DTD SVG 1.1//EN" "http://www.w3.org/Graphics/SVG/1.1/DTD/svg11.dtd">
<!-- Creator: CorelDRAW 2018 (64-Bit) -->
<svg xmlns="http://www.w3.org/2000/svg" xml:space="preserve" width="4.41987in" height="4.12162in" version="1.1" style="shape-rendering:geometricPrecision; text-rendering:geometricPrecision; image-rendering:optimizeQuality; fill-rule:evenodd; clip-rule:evenodd"
viewBox="0 0 426.09 397.34"
 xmlns:xlink="http://www.w3.org/1999/xlink">
 <defs>
  <style type="text/css">
   <![CDATA[
    .fil0 {fill:#5C67AE}
   ]]>
  </style>
 </defs>
 <g id="Layer_x0020_1">
  <metadata id="CorelCorpID_0Corel-Layer"/>
  <g id="KB">
   <polygon id="path74" class="fil0" points="44.37,250.18 44.15,250.18 43.47,250.4 41.88,251.99 41.66,252.21 41.66,253.12 41.66,254.03 41.88,254.7 42.79,254.48 43.7,254.25 44.38,253.57 44.6,252.89 45.28,251.76 45.28,250.86 "/>
   <polygon id="path78" class="fil0" points="38.04,257.2 37.13,256.97 36,258.55 35.09,258.78 34.19,258.78 33.51,258.78 33.28,259.46 32.6,260.14 32.6,260.82 33.28,261.04 33.96,260.82 33.74,260.59 34.41,260.59 35.09,260.59 35.32,260.59 35.55,261.5 35.77,261.72 36,261.5 38.49,259.01 39.17,258.1 "/>
   <polygon id="path82" class="fil0" points="-0,292.06 3.62,292.74 6.34,292.51 7.47,291.38 5.89,290.7 3.17,290.7 0.68,290.93 "/>
   <polygon id="path478" class="fil0" points="83.32,244.97 83.32,239.54 82.64,238.4 81.73,237.27 80.6,236.37 79.02,236.14 78.34,236.37 77.43,237.05 76.52,237.5 75.39,237.5 73.81,236.82 71.54,235.01 69.96,234.78 69.05,235.01 67.47,236.14 66.56,236.37 64.98,236.14 62.49,235.46 61.36,235.23 59.77,235.91 59.77,237.5 59.09,250.18 57.28,254.93 57.05,256.74 57.73,257.65 59.32,258.78 60.9,259.69 61.81,259.91 63.62,259.23 66.34,256.74 69.05,255.84 71.54,254.7 76.98,252.21 78.11,251.99 78.79,251.76 82.64,249.04 84.22,248.14 84.9,247.91 85.13,247.01 85.13,246.55 84.45,245.87 83.77,245.65 "/>
   <polygon id="path482" class="fil0" points="21.96,281.19 21.28,280.51 19.24,278.93 18.34,278.25 17.21,278.25 16.53,278.25 15.85,278.93 14.94,279.16 11.55,280.06 9.74,280.74 8.6,281.87 9.51,282.1 10.64,282.1 11.32,282.33 11.55,283.01 11.55,283.68 11.55,284.59 10.87,285.27 10.87,285.95 11.09,287.08 11.09,287.99 11.32,288.21 13.36,288.21 14.26,288.21 19.02,286.4 20.15,285.72 20.83,284.82 21.51,283.68 21.74,282.55 "/>
   <polygon class="fil0" points="426.09,49.13 425.87,50.26 424.96,56.37 424.96,57.51 424.96,58.64 425.87,60.22 426.09,61.36 426.09,62.49 425.87,64.3 425.64,65.43 424.96,66.34 424.28,66.56 423.37,67.24 421.34,69.05 419.53,69.96 418.62,70.19 411.37,76.52 410.7,77.2 409.11,77.88 408.21,78.11 406.17,80.15 402.32,81.73 401.41,82.41 400.28,84 399.6,84.68 399.6,85.58 399.6,86.49 399.6,87.39 399.37,89.2 399.37,89.88 399.6,90.56 399.83,90.79 400.51,91.02 401.19,91.01 402.77,90.33 403.68,90.11 404.36,90.11 405.26,90.79 405.94,91.47 406.17,92.37 406.17,93.51 405.94,95.32 405.26,96.9 404.58,98.49 404.36,100.07 404.36,101.66 404.13,103.69 403.23,104.83 400.74,107.77 398.92,110.48 398.02,111.16 396.21,111.84 395.3,112.52 394.4,113.66 394.17,114.56 393.26,117.28 393.26,117.28 391.45,118.41 389.87,119.99 389.19,120.67 388.06,121.35 387.38,122.26 386.25,124.98 385.34,126.56 384.43,127.69 383.3,128.83 382.4,129.96 382.4,131.09 382.4,133.58 382.17,135.62 381.26,136.3 380.58,136.52 379.68,136.75 378.77,136.98 376.28,139.01 375.15,139.69 374.24,139.92 372.66,139.69 371.08,139.92 370.17,139.69 367.45,138.79 366.55,138.79 365.87,138.79 365.19,138.79 363.61,139.47 360.66,140.15 357.95,141.28 359.98,144.22 361.57,146.94 362.47,147.84 365.19,149.88 366.32,151.47 367.91,155.09 368.13,155.99 368.36,157.12 368.13,157.8 368.36,158.48 369.94,163.92 369.94,165.05 369.94,165.73 369.72,166.41 367.68,170.03 366.55,172.97 366.32,174.78 366.09,175.46 365.42,175.69 364.74,175.69 364.06,175.92 363.38,176.14 362.47,177.73 362.25,177.95 361.57,178.18 360.89,178.18 360.21,178.18 359.3,178.41 358.62,178.63 358.4,178.86 358.17,179.09 353.87,183.61 352.29,185.65 352.06,186.33 352.06,187.46 352.29,188.14 352.51,188.37 353.19,188.6 354.1,189.27 354.78,189.5 355.46,190.41 356.14,192.22 356.36,193.12 356.14,194.03 354.55,196.97 353.42,201.27 352.74,201.95 351.15,202.18 350.25,201.5 349.57,200.82 348.66,200.14 347.98,199.23 346.17,196.52 345.49,195.84 345.27,195.61 344.36,195.61 343.68,195.61 342.78,196.29 342.1,196.52 341.19,196.75 340.96,196.75 340.74,196.97 340.06,198.1 339.83,198.33 339.15,199.01 337.34,199.24 336.44,199.24 334.63,199.01 334.17,199.01 333.27,199.01 329.42,200.82 327.38,202.4 324.89,203.31 316.97,206.03 315.38,206.93 315.16,207.61 314.25,208.29 300.67,213.5 299.53,213.73 298.63,213.73 296.14,213.05 295.23,213.05 294.33,213.27 292.51,214.4 285.27,217.12 284.36,218.48 283.46,218.25 281.42,218.03 280.29,217.8 278.48,217.8 274.63,217.12 265.35,216.9 263.99,216.9 263.31,217.12 262.63,218.03 262.4,219.61 260.36,221.42 253.35,223.46 245.19,228.89 241.8,230.71 240.67,230.93 236.37,232.97 228.89,238.18 227.08,239.76 224.59,242.71 224.37,243.61 224.14,244.74 224.14,245.65 224.82,247.69 225.05,248.82 224.14,250.4 223.23,251.76 220.97,252.89 216.67,254.48 215.08,256.06 210.78,258.1 208.75,259.23 207.16,261.04 206.48,261.27 205.58,262.4 203.76,265.8 201.27,267.38 199.46,268.29 197.43,269.42 195.61,271 193.12,274.4 191.54,275.31 188.82,278.02 187.69,278.7 187.01,278.7 186.1,278.02 185.42,277.8 184.75,277.8 183.84,277.57 182.93,277.35 181.8,277.34 179.99,278.02 177.27,279.84 175.69,281.42 173.88,283.46 173.2,284.14 172.52,284.82 172.52,285.5 172.75,286.4 173.43,287.31 174.1,288.21 175.01,289.12 175.92,289.12 177.05,288.89 178.18,288.21 178.86,287.99 179.09,287.99 179.77,288.21 179.99,288.44 180.22,289.57 180.22,290.48 179.54,292.29 179.54,292.97 180.22,293.65 180.9,294.33 181.12,295.23 181.35,296.14 180.67,299.08 180.44,300.21 180.67,301.8 180.44,304.51 177.95,313.57 177.95,314.48 178.18,319.68 178.41,321.72 179.31,324.21 189.05,345.72 189.27,347.3 188.37,350.25 188.14,351.83 188.37,359.08 188.37,361.11 189.05,362.25 189.27,363.15 189.95,364.06 190.86,365.87 190.86,367 190.86,368.13 190.63,369.04 189.95,369.94 189.05,370.62 187.92,371.3 183.61,373.11 182.48,374.02 181.8,375.15 180.22,378.55 179.31,380.36 178.63,381.04 177.95,381.26 177.27,381.94 175.69,382.4 173.88,382.4 170.94,384.43 169.8,385.11 165.95,386.25 164.37,386.25 162.79,386.93 161.65,388.06 155.54,396.21 152.82,397.34 150.11,395.3 150.11,394.4 150.33,394.4 151.01,394.17 151.24,393.49 151.24,392.58 150.56,390.77 150.56,389.19 149.88,387.38 148.97,384.43 146.94,381.72 143.99,381.04 140.6,381.72 132.67,385.11 124.52,391.23 121.81,391.45 119.99,389.42 118.86,386.02 117.28,383.3 118.41,381.72 119.54,379.23 120.45,376.74 120.22,374.7 119.09,371.3 118.41,367.91 117.73,365.42 117.5,364.28 116.82,363.38 114.11,362.7 113.43,361.79 113.43,361.11 115.01,359.3 115.69,358.4 116.6,356.36 119.31,356.59 121.81,356.59 122.94,353.87 120.22,355.45 118.41,354.77 116.82,352.96 113.43,347.53 113.43,345.95 113.2,342.55 112.07,335.98 111.39,334.4 110.48,333.49 109.35,333.27 108.67,331.68 108.67,330.1 108.67,328.97 109.35,325.57 110.48,322.17 111.16,318.78 110.94,315.38 108.9,310.17 108.67,309.27 107.54,307.23 106.64,307 104.15,306.32 100.52,304.51 98.94,304.29 98.03,303.61 94.18,299.99 94.41,299.76 95.32,299.08 95.54,298.85 94.86,298.63 94.64,297.95 94.41,297.27 94.64,296.36 95.32,295.46 98.94,293.65 100.07,292.97 100.98,292.29 101.88,291.15 103.92,285.95 104.15,284.36 104.37,279.16 106.41,269.19 106.64,265.8 105.73,262.4 104.6,259.46 103.47,257.87 101.88,257.19 100.07,256.97 98.26,256.29 97.13,255.16 97.35,253.57 96.45,254.48 95.77,252.67 95.77,250.4 96.67,246.78 96.67,245.87 95.77,244.97 94.18,244.97 93.5,244.74 91.69,243.84 90.79,243.84 88.98,243.84 88.07,242.93 87.17,240.44 85.35,239.54 84.45,238.63 83.32,236.59 81.73,234.78 81.51,233.65 81.28,232.06 81.51,230.93 82.19,230.03 82.87,229.35 83.54,228.44 83.77,227.53 83.77,227.31 81.73,227.99 80.6,228.44 80.37,229.57 80.15,231.39 79.69,232.97 79.01,234.1 76.98,235.91 74.94,234.78 73.35,233.65 72.68,233.65 72,233.65 71.54,233.88 70.86,233.2 69.73,228.89 67.92,227.76 65.2,226.63 62.49,225.72 58.64,225.04 57.73,225.27 57.51,225.5 56.83,226.18 56.83,226.86 57.51,227.54 57.51,228.22 57.28,229.8 56.37,230.48 55.24,230.48 54.11,230.48 51.17,228.89 50.49,228.22 49.81,228.22 46.64,226.63 45.73,225.72 43.7,213.73 43.92,212.59 44.83,211.69 45.96,211.69 47.54,213.27 48.68,213.95 54.11,213.95 55.24,214.63 57.73,216.44 59.54,216.67 60.22,216.9 60.9,217.12 61.58,217.12 63.39,216.44 64.07,216.22 63.85,215.31 63.17,215.31 61.36,215.54 60.22,215.08 58.64,213.05 57.96,212.37 56.37,211.23 54.56,210.56 53.66,210.33 52.53,210.33 51.85,210.1 51.85,209.42 52.07,209.42 52.75,208.74 52.53,208.52 52.3,208.29 52.07,208.07 52.07,207.39 53.21,207.39 55.92,208.07 57.05,208.07 57.05,207.39 55.24,206.25 53.43,205.57 50.94,205.35 45.73,205.35 44.6,206.03 44.37,205.8 43.7,205.12 42.56,204.9 42.34,204.22 42.11,203.54 42.11,203.31 41.21,203.08 40.98,203.08 40.75,203.08 40.07,202.86 39.17,203.08 38.49,203.31 37.81,203.31 36.9,202.63 35.32,201.05 34.41,199.91 34.19,198.78 32.38,191.76 32.38,188.82 32.38,188.14 33.28,187.92 35.09,188.14 32.38,184.52 31.47,182.48 32.38,180.67 32.38,179.99 31.47,179.76 30.79,179.76 29.88,179.99 29.88,181.12 28.75,180.22 28.53,179.09 28.75,177.95 29.66,177.05 30.34,176.82 31.47,176.59 33.96,175.92 36.45,176.14 38.49,176.82 40.53,177.5 41.66,178.63 42.34,178.63 41.66,177.5 40.07,175.92 39.39,175.01 39.17,174.1 39.39,171.16 39.17,166.86 38.49,164.82 36.9,162.33 36.68,161.2 36.68,158.71 36.9,157.8 37.81,157.8 39.85,158.71 47.77,159.62 46.19,158.48 42.79,155.99 38.04,152.14 37.58,151.46 32.38,141.28 28.07,137.88 27.17,137.65 25.58,137.43 20.83,137.2 19.02,136.07 18.34,134.26 19.25,131.32 19.92,128.83 20.15,127.92 20.15,126.11 19.47,124.52 17.66,121.58 17.43,119.54 17.66,118.64 18.79,117.05 19.02,116.15 19.02,112.75 18.79,110.94 17.89,109.35 14.49,105.05 14.72,104.37 15.4,103.47 15.62,101.88 14.94,100.07 12.91,97.36 12.91,95.77 13.58,95.09 14.72,93.96 15.85,93.05 16.75,92.83 18.34,92.6 19.47,91.92 20.38,91.02 21.28,89.43 22.42,86.04 22.42,83.09 18.11,72 18.11,70.19 18.79,69.28 20.38,68.6 23.32,68.38 26.26,67.47 33.06,65.43 35.77,63.62 36.91,62.72 41.21,57.28 42.11,55.47 43.24,53.66 45.06,52.75 45.06,52.08 43.24,51.85 42.11,52.98 41.43,54.57 40.3,55.25 39.17,56.15 37.36,59.77 36.45,60.68 36.23,60.91 36,61.81 35.32,62.72 34.41,63.4 33.51,63.39 32.83,64.07 31.7,64.98 29.89,65.66 25.58,65.88 23.77,66.56 24,64.07 25.13,62.04 27.62,58.64 28.75,55.92 29.43,53.43 29.43,44.6 30.34,41.89 32.15,39.85 44.15,31.7 45.73,29.66 48.23,25.13 49.36,23.32 50.94,21.74 50.94,21.51 51.17,21.28 51.17,21.06 51.39,21.06 51.39,20.15 51.39,19.92 50.71,19.92 50.49,19.92 50.49,20.15 46.64,23.09 46.87,21.51 47.77,20.6 48.68,19.92 49.81,18.79 50.49,17.21 50.49,16.07 50.49,13.36 50.71,10.64 52.3,9.74 57.05,9.06 67.69,6.34 69.28,6.11 70.19,5.21 71.09,4.3 73.58,0 72.9,3.4 70.86,7.02 69.96,8.83 69.05,9.74 66.11,12.23 65.43,13.13 65.43,14.26 66.11,16.98 66.11,17.66 66.11,18.34 66.34,19.25 67.02,20.15 67.7,21.06 68.6,21.96 69.51,22.19 72.9,22.19 74.49,22.87 74.71,24.45 74.49,30.56 74.49,34.19 74.71,35.77 75.62,37.36 77.2,39.17 84.22,44.83 84.9,45.73 84.9,47.77 85.58,48 87.17,47.09 87.39,47.77 88.98,51.17 89.66,51.85 91.24,52.07 93.05,51.85 94.18,51.85 95.77,52.53 96.67,54.11 98.26,58.64 99.17,60.22 100.07,61.13 103.01,62.26 104.15,63.85 105.96,66.56 107.54,68.15 109.13,68.37 113.65,69.05 115.24,69.96 116.37,71.54 117.96,74.94 121.8,80.37 122.03,82.18 122.26,84 122.94,84.22 124.07,83.54 124.98,83.54 128.82,84.45 129.73,84.68 131.31,85.81 134.26,90.11 137.2,92.6 140.82,94.41 144.45,94.64 147.84,93.05 148.52,92.15 148.75,91.47 148.97,91.24 149.88,91.47 150.56,91.69 151.24,92.37 151.92,92.6 152.82,92.82 153.96,92.6 155.09,91.01 155.99,90.33 156.67,90.33 157.35,90.56 158.03,90.56 159.61,89.88 160.52,89.2 160.75,89.43 161.43,90.11 162.11,90.11 162.79,89.88 162.79,89.2 162.78,88.07 163.69,86.94 167.99,83.32 170.03,82.41 172.52,81.73 177.27,81.73 194.48,77.2 196.07,77.43 206.71,81.96 208.29,82.18 210.1,82.41 211.69,82.18 214.63,81.05 215.76,81.28 216.67,81.96 216.89,83.09 217.12,84.22 218.03,86.03 218.93,85.35 220.74,82.86 227.31,80.37 228.21,80.15 229.8,80.15 231.84,80.83 235.69,82.64 238.18,83.32 242.71,82.19 249.27,74.03 254.03,72.45 260.36,72.45 262.18,72.22 263.31,72 263.99,71.09 267.84,59.32 270.33,54.56 270.55,53.66 270.55,52.75 270.33,52.07 268.52,52.07 267.84,51.39 268.52,49.36 270.1,48.45 278.93,44.15 280.97,43.47 285.5,42.79 286.63,42.79 287.76,41.66 288.89,40.75 290.02,39.85 291.83,39.17 314.7,40.3 316.74,40.98 317.42,40.98 318.32,40.75 319,40.07 319.23,39.17 320.14,38.49 321.27,37.81 322.85,38.03 323.98,38.26 325.57,38.94 329.19,38.71 330.78,38.94 332.59,39.62 333.72,40.53 334.4,41.43 334.63,43.24 333.95,45.05 333.04,46.19 331.91,47.77 329.42,49.35 329.19,50.26 329.42,50.94 330.55,50.94 333.27,50.03 336.21,49.36 339.15,49.58 342.1,51.17 344.59,52.98 345.72,53.2 349.11,53.43 353.64,54.34 357.27,55.92 362.93,60.22 366.32,60.45 369.72,58.86 371.3,58.64 372.89,58.64 374.7,59.54 378.55,64.3 380.58,65.21 382.4,64.98 394.85,56.83 399.38,50.72 401.19,49.13 402.77,48.45 413.64,46.87 417.04,46.64 419.75,47.55 420.66,48.45 421.34,49.13 422.24,50.04 423.15,50.26 424.06,50.04 425.64,48.91 "/>
  </g>
 </g>
</svg>
