<?xml version="1.0" encoding="UTF-8"?>
<!DOCTYPE svg PUBLIC "-//W3C//DTD SVG 1.1//EN" "http://www.w3.org/Graphics/SVG/1.1/DTD/svg11.dtd">
<!-- Creator: CorelDRAW 2018 (64-Bit) -->
<svg xmlns="http://www.w3.org/2000/svg" xml:space="preserve" width="2.53874in" height="1.41849in" version="1.1" style="shape-rendering:geometricPrecision; text-rendering:geometricPrecision; image-rendering:optimizeQuality; fill-rule:evenodd; clip-rule:evenodd"
viewBox="0 0 160.47 89.66"
 xmlns:xlink="http://www.w3.org/1999/xlink">
 <defs>
  <style type="text/css">
   <![CDATA[
    .fil0 {fill:#5C67AE}
   ]]>
  </style>
 </defs>
 <g id="Layer_x0020_1">
  <metadata id="CorelCorpID_0Corel-Layer"/>
  <g id="BB">
   <polygon id="path322" class="fil0" points="90.11,73.48 89.07,72.89 86.84,72.44 85.8,72 85.21,71.4 84.02,71.55 82.98,72.14 81.94,72.89 81.8,73.04 81.35,73.78 81.2,73.93 80.61,74.37 80.61,74.97 82.39,75.56 84.32,77.19 85.06,77.64 87.44,78.23 87.58,78.08 89.22,77.64 89.07,76.45 90.26,74.22 "/>
   <polygon id="path326" class="fil0" points="99.76,68.88 99.31,68.73 98.57,67.99 98.42,67.99 97.98,67.99 97.83,68.14 97.83,68.58 97.08,69.03 96.94,69.77 97.08,70.51 97.08,71.11 97.53,71.55 97.98,72 98.42,72.44 99.16,72.59 99.91,72.15 100.05,71.4 100.65,69.62 100.05,69.18 "/>
   <polygon id="path330" class="fil0" points="83.13,54.63 81.94,54.48 78.83,53.29 72.15,52.25 66.65,50.32 66.06,50.32 65.47,50.92 64.28,50.77 63.09,50.32 62.35,49.73 60.57,48.1 58.93,46.32 57.75,44.09 54.33,35.33 52.55,26.57 52.55,24.35 53.15,20.93 53.29,20.49 53.15,19.89 50.32,16.92 50.32,16.48 50.47,15.88 50.62,15.44 50.03,15.29 49.43,15.14 48.99,14.7 48.84,14.25 48.84,13.66 48.69,13.06 48.54,12.91 48.1,12.77 47.95,12.32 47.8,12.17 47.36,11.13 47.21,10.69 47.06,10.24 46.46,10.09 46.02,9.65 45.87,9.05 45.87,6.83 46.02,6.23 46.61,5.79 46.61,5.34 46.46,4.75 46.02,4.3 43.64,2.52 43.2,2.37 42.16,2.52 41.57,2.52 41.12,2.38 40.53,1.34 40.08,0.74 39.64,0.15 38.6,0 38.45,0 38.6,0 37.56,0 35.63,1.34 34.29,1.78 30.14,1.78 28.8,2.23 29.39,2.67 29.99,3.27 30.43,3.86 30.58,4.6 30.73,5.05 30.73,5.79 30.88,6.38 31.92,7.72 31.92,7.87 31.77,9.65 31.77,10.69 32.21,11.73 33.85,13.36 34.44,14.4 34.89,15.44 33.55,15.59 33.4,15.44 32.96,15.29 32.51,14.25 32.36,14.1 31.32,14.25 30.73,14.4 29.99,14.4 28.95,13.95 28.35,13.51 27.32,12.77 26.72,11.73 26.72,10.99 28.65,9.2 29.24,8.46 27.91,8.02 26.57,7.42 25.53,6.38 25.09,5.2 25.09,3.86 24.64,2.67 23.9,1.93 22.27,2.38 21.67,2.82 21.23,3.56 20.78,4.01 19.74,4.16 17.37,4.01 16.78,4.45 14.85,6.38 14.4,6.53 13.81,6.53 13.66,6.53 13.21,6.98 13.06,7.72 12.92,7.87 12.32,8.02 11.88,8.16 11.28,8.61 11.13,9.06 11.58,10.09 11.43,10.54 10.99,10.69 10.54,11.13 11.73,11.88 13.66,13.06 14.1,15.44 12.77,17.37 8.76,19.89 2.97,22.12 1.34,23.16 0.59,24.49 -0,26.42 0.15,28.65 0.89,30.43 1.63,29.99 2.67,29.84 4.3,29.69 5.34,29.84 7.12,30.88 7.27,31.03 8.46,32.66 8.61,33.1 9.05,33.25 11.58,32.51 14.99,32.51 15.74,32.66 16.33,32.66 17.37,31.92 18.41,31.32 20.93,30.58 22.12,29.84 22.71,30.43 23.46,31.77 24.2,32.36 24.64,32.36 26.28,32.51 26.42,32.51 27.02,32.36 27.46,32.36 27.61,32.36 28.06,32.81 28.5,32.96 31.47,33.4 32.21,33.55 32.96,34.14 33.55,34.59 33.7,35.18 33.85,36.82 33.85,38.45 33.85,39.04 34.44,40.08 34.59,40.82 35.04,41.57 35.18,42.16 35.18,42.75 34.74,44.09 35.18,46.47 36.82,47.65 38.75,48.69 40.38,49.73 41.12,51.96 40.53,54.18 39.49,56.41 38.89,58.64 39.34,60.86 39.93,63.09 43.35,68.44 44.09,68.88 47.65,69.33 48.69,69.47 59.23,73.04 61.75,75.56 62.5,75.71 65.02,75.71 65.76,75.86 66.36,76.45 66.95,77.64 67.4,78.08 68.58,78.83 69.18,79.27 69.33,79.86 69.47,81.05 69.92,82.24 70.66,82.69 71.7,82.24 71.85,82.24 72.44,82.39 72.89,81.2 74.22,81.05 77.05,81.5 77.19,81.65 77.34,82.09 77.49,82.24 78.53,81.79 78.68,81.79 79.12,81.94 79.57,82.09 80.16,81.94 80.61,81.35 81.05,81.2 81.5,81.35 81.94,80.9 81.8,80.75 81.35,80.01 81.5,79.27 81.65,78.53 81.2,77.79 80.16,77.34 79.42,77.19 78.98,77.04 78.83,76.45 78.38,76 77.79,75.86 77.64,75.86 77.04,75.71 75.26,74.67 74.67,73.04 75.12,70.81 78.23,62.35 80.76,58.79 81.5,58.04 82.24,57.89 82.83,57.75 84.47,56.71 85.06,56.71 85.51,56.71 85.95,56.71 86.4,56.26 86.4,55.67 85.36,55.22 "/>
   <polygon id="path334" class="fil0" points="114.6,70.22 114.16,70.22 113.41,70.22 112.97,70.22 113.12,70.96 113.71,71.55 115.64,73.18 115.79,73.33 116.23,73.18 118.02,72.59 118.76,71.85 119.5,70.66 119.95,69.47 119.8,69.03 119.35,68.58 119.2,68.14 119.05,67.69 117.72,67.84 116.09,68.29 114.9,69.03 "/>
   <polygon id="path338" class="fil0" points="160.17,69.32 160.03,68.29 159.28,66.5 158.84,64.72 155.28,60.57 154.53,60.42 153.49,61.01 153.35,59.97 152.9,59.23 152.16,58.64 151.42,58.49 151.27,58.34 150.67,57.6 150.53,57.45 148.89,56.71 148.15,57.15 148,57.75 147.56,59.08 147.11,59.08 146.07,56.56 145.63,55.96 144.88,55.82 142.36,55.22 141.32,55.37 139.54,55.22 137.76,54.63 137.17,53.29 136.13,53.74 134.79,54.92 134.05,55.07 133.31,55.07 131.67,54.63 130.93,54.63 129,55.22 128.26,56.41 127.52,61.31 127.67,64.43 127.22,65.02 126.63,65.61 125.59,66.21 124.99,66.36 125.59,67.54 125.73,69.32 125.59,70.66 124.55,71.25 123.81,71.25 123.21,71.7 122.77,72.29 122.62,72.89 123.06,73.48 123.51,73.48 124.7,72.89 125.73,72.89 125.88,73.04 125.88,74.82 125.73,75.26 124.7,76.45 124.55,77.04 124.55,77.64 124.7,78.23 124.84,78.68 124.99,79.27 124.99,79.72 124.99,80.46 124.99,81.05 125.14,81.5 126.48,82.54 126.92,83.13 127.07,83.28 127.22,83.43 127.37,83.58 127.22,83.72 125.88,85.95 125.73,86.4 126.18,88.33 128.11,88.33 136.27,85.51 137.46,84.47 137.46,82.54 136.72,81.2 136.72,80.46 137.76,80.31 138.5,80.16 138.65,80.01 139.1,80.01 139.69,80.46 140.14,80.9 140.14,81.5 140.14,81.94 139.99,81.94 142.81,84.32 143.99,85.06 144.14,86.25 144.14,88.47 144.74,89.66 145.33,89.66 146.37,89.51 147.56,89.37 148.89,89.37 149.49,88.92 149.49,87.14 149.64,86.1 150.23,85.65 151.27,85.51 152.46,85.36 153.49,85.21 155.28,84.47 156.46,84.47 156.02,84.02 155.28,83.28 155.13,82.83 155.13,82.39 155.57,81.94 155.72,81.5 155.72,80.76 155.87,80.31 156.32,79.27 156.46,78.82 156.32,78.23 156.17,77.49 156.17,77.04 156.76,75.71 158.69,73.18 159.28,71.85 159.43,71.4 159.88,70.81 160.47,70.07 "/>
  </g>
 </g>
</svg>
