<?xml version="1.0" encoding="UTF-8"?>
<!DOCTYPE svg PUBLIC "-//W3C//DTD SVG 1.1//EN" "http://www.w3.org/Graphics/SVG/1.1/DTD/svg11.dtd">
<!-- Creator: CorelDRAW 2018 (64-Bit) -->
<svg xmlns="http://www.w3.org/2000/svg" xml:space="preserve" width="4.6336in" height="4.34942in" version="1.1" style="shape-rendering:geometricPrecision; text-rendering:geometricPrecision; image-rendering:optimizeQuality; fill-rule:evenodd; clip-rule:evenodd"
viewBox="0 0 576.14 540.8"
 xmlns:xlink="http://www.w3.org/1999/xlink">
 <defs>
  <style type="text/css">
   <![CDATA[
    .fil0 {fill:#5C67AE}
   ]]>
  </style>
 </defs>
 <g id="Layer_x0020_1">
  <metadata id="CorelCorpID_0Corel-Layer"/>
  <g id="KR">
   <polygon id="path438" class="fil0" points="247.63,176.67 246.75,176.96 246.46,177.83 246.46,178.13 245.58,178.42 245.29,178.42 243.25,178.13 242.37,178.13 240.91,177.83 240.91,176.67 241.2,175.21 240.91,173.16 240.62,173.16 238.57,171.99 238.28,171.7 237.41,170.24 236.24,170.53 236.53,171.7 236.53,173.16 236.24,174.33 235.36,175.5 236.24,176.37 238.57,177.54 239.74,178.71 239.45,179.59 238.57,182.22 237.7,184.55 236.82,186.89 236.53,188.06 236.82,189.22 236.82,190.39 237.7,191.56 238.57,192.44 239.74,192.73 240.91,192.44 242.08,192.15 243.25,192.14 243.54,191.85 243.54,190.68 243.25,189.81 242.37,189.51 241.49,189.51 241.2,189.51 240.33,189.22 240.03,188.35 244.71,186.89 245,186.01 245.87,185.72 247.33,186.89 248.21,186.01 250.55,178.71 250.84,178.71 250.84,179.59 251.71,179.59 252.59,178.42 251.42,178.13 248.79,177.25 "/>
   <polygon id="path442" class="fil0" points="291.13,200.32 290.84,196.81 290.55,195.65 289.67,194.48 288.51,194.19 287.34,194.48 287.05,195.35 287.34,196.81 288.21,197.98 289.09,200.32 290.55,202.36 290.84,203.24 291.13,202.95 291.13,202.07 "/>
   <polygon id="path446" class="fil0" points="295.51,158.85 294.64,157.39 292.59,155.35 290.55,154.18 289.09,154.18 287.63,154.18 287.63,156.23 288.8,161.19 288.51,162.07 288.51,162.94 288.51,163.23 288.22,164.11 289.68,164.4 290.55,165.28 291.43,166.16 292.89,165.86 294.93,168.2 295.81,168.2 "/>
   <polygon id="path450" class="fil0" points="294.05,140.46 292.59,141.92 292.01,143.96 291.72,146 290.84,148.34 290.84,149.8 290.55,150.68 290.26,150.97 294.93,153.6 295.22,152.43 295.22,151.55 294.35,151.26 293.47,148.63 293.47,147.76 293.47,147.46 294.35,147.47 294.64,147.47 294.64,147.76 294.93,148.93 294.93,149.8 295.22,150.09 296.1,149.22 296.1,148.34 296.1,144.84 296.39,140.46 296.1,139.58 "/>
   <polygon id="path454" class="fil0" points="466.34,0.29 465.46,0.58 465.17,0.88 464.3,1.75 464.3,2.63 463.42,3.8 462.25,4.97 461.08,5.84 459.91,6.72 459.62,7.6 459.33,7.89 459.33,8.18 459.62,8.47 460.5,8.76 461.67,9.05 464,9.05 465.17,8.18 466.05,6.13 466.34,2.63 466.63,1.75 466.92,0.88 466.92,0 "/>
   <polygon id="path458" class="fil0" points="505.47,89.36 504.01,87.9 503.13,87.6 501.96,88.48 502.26,86.44 503.42,85.56 504.88,84.68 506.05,83.51 505.18,82.05 505.18,79.43 505.18,78.26 504.88,77.38 502.26,75.34 496.42,68.33 492.91,65.7 491.74,64.24 490.87,61.61 490.87,56.06 489.99,54.02 487.95,52.85 486.78,53.73 485.32,55.19 483.86,56.65 482.69,58.99 475.39,66.29 474.22,67.16 473.93,67.16 472.76,69.21 471.89,69.5 471.01,69.79 469.84,69.79 468.97,69.79 468.09,70.67 465.46,73.88 464.59,75.05 464.29,75.92 464.59,76.8 465.46,77.09 465.76,77.38 466.05,78.26 466.05,80.6 466.05,81.47 466.34,82.35 467.22,82.64 468.09,82.93 468.09,83.81 468.38,85.27 468.38,86.44 469.84,89.65 470.72,90.82 471.89,91.69 472.77,91.98 475.98,92.86 483.86,95.49 486.49,95.78 489.12,95.78 489.99,95.78 490.29,96.07 491.45,97.53 491.75,97.53 493.21,102.2 493.21,103.66 492.04,102.79 489.41,99.28 487.95,98.11 486.78,97.82 485.9,97.53 484.74,97.53 483.57,98.41 483.28,99.87 482.4,101.04 480.36,101.91 480.06,101.91 479.19,101.91 478.31,102.2 478.02,103.37 477.73,104.25 475.39,107.46 476.56,107.75 480.07,109.21 483.28,111.55 484.45,111.84 485.61,111.55 488.24,109.5 489.7,109.21 491.16,109.21 494.37,109.21 495.54,109.21 497.58,108.34 498.46,107.46 498.75,104.25 499.05,102.79 499.92,101.33 503.72,95.78 504.59,94.61 506.64,89.06 506.64,88.19 "/>
   <polygon id="path462" class="fil0" points="447.07,175.21 445.9,174.04 443.56,174.04 441.23,175.5 440.94,178.13 442.1,178.42 443.27,178.42 447.65,177.54 447.65,176.67 "/>
   <polygon id="path466" class="fil0" points="549.85,179 549.56,180.46 549.27,181.63 548.98,182.8 547.52,184.26 545.48,185.43 543.43,186.6 543.43,187.47 544.31,188.35 545.77,189.23 547.81,190.69 548.98,191.85 550.15,191.85 550.44,191.56 550.73,189.52 551.02,189.22 551.9,188.93 553.94,188.05 554.82,187.76 555.11,186.3 554.23,182.8 554.23,181.63 555.4,178.42 553.94,176.37 551.31,176.37 "/>
   <polygon id="path470" class="fil0" points="576.14,223.09 574.97,222.8 570.59,222.8 569.42,222.51 567.08,221.05 565.91,220.76 564.75,220.76 563.58,220.76 562.41,221.05 562.12,222.22 562.12,223.1 563,223.39 563.29,223.68 563.58,223.68 564.46,223.68 565.33,222.8 566.21,222.8 567.67,223.68 567.67,224.56 566.79,225.43 566.5,226.89 567.96,228.06 570.3,227.77 572.92,226.89 574.38,226.02 575.84,224.85 576.14,223.97 "/>
   <polygon id="path474" class="fil0" points="422.54,371.73 421.37,371.73 420.2,371.73 419.33,372.6 419.33,373.77 419.62,374.65 420.79,374.94 421.66,374.65 421.96,374.94 421.96,376.11 421.66,376.4 420.79,377.28 420.79,377.57 421.96,378.45 423.42,377.28 426.04,374.65 425.75,373.77 424.58,372.9 "/>
   <polygon id="path42" class="fil0" points="115.93,501.67 110.09,502.55 108.63,502.84 108.34,504.01 108.63,505.47 109.8,506.35 112.43,506.34 113.59,506.34 114.76,505.47 115.93,505.47 116.81,505.47 117.1,505.18 117.39,504.3 117.39,503.42 117.39,502.25 116.51,501.96 "/>
   <polygon id="path46" class="fil0" points="124.69,395.38 122.35,395.38 120.31,396.26 119.14,397.72 119.14,400.05 122.35,398.59 123.52,398.3 125.57,398.3 128.19,398.59 129.36,398.59 130.24,397.42 130.24,396.55 128.78,395.67 "/>
   <polygon id="path50" class="fil0" points="35.33,391.29 35.04,392.75 37.38,395.96 38.26,398.01 38.55,398.88 39.72,399.18 40.88,398.88 41.18,397.42 40.3,395.96 38.84,394.5 "/>
   <polygon id="path54" class="fil0" points="18.98,404.73 18.69,405.6 17.23,408.23 16.94,409.11 16.06,409.98 15.77,411.44 16.06,412.9 17.52,412.9 18.4,412.02 19.28,410.86 20.44,408.23 20.74,407.06 20.74,405.89 20.44,405.02 "/>
   <polygon id="path58" class="fil0" points="14.9,383.41 14.02,383.41 9.35,384.28 9.64,385.16 10.81,386.04 11.68,386.33 11.97,387.5 13.14,388.37 14.31,388.67 15.48,388.66 16.65,387.5 16.65,386.04 15.77,384.87 "/>
   <polygon id="path346" class="fil0" points="122.94,514.23 122.06,513.35 120.89,511.89 120.6,511.01 119.73,510.72 117.39,509.85 116.51,509.55 114.47,507.51 109.51,512.47 106,514.52 103.67,513.06 103.37,513.06 102.5,515.4 102.5,517.44 101.62,517.44 101.33,515.1 102.5,510.72 101.62,509.26 100.75,509.26 99.87,511.31 98.7,512.48 96.07,514.81 95.2,515.98 94.03,519.48 92.86,520.65 93.15,522.11 98.7,527.66 100.16,527.66 101.04,528.83 102.21,532.33 103.37,540.8 105.42,540.51 105.71,539.63 106.88,535.84 109.51,532.04 112.13,533.5 114.76,535.84 118.27,535.84 119.43,534.38 119.73,529.41 120.6,527.95 124.4,524.74 126.44,523.28 127.32,521.24 126.44,519.78 "/>
   <polygon id="path350" class="fil0" points="160.9,498.17 155.93,491.16 152.72,488.53 150.39,489.41 150.09,491.74 150.09,493.2 149.22,494.08 146.88,494.37 144.55,493.49 143.38,491.45 141.92,487.07 138.71,483.86 137.25,482.98 136.37,482.98 135.49,483.86 134.33,484.15 134.03,483.86 133.16,482.98 132.87,482.11 132.87,481.23 136.08,480.35 135.79,479.19 130.24,474.51 127.03,473.05 124.98,472.18 124.69,471.01 124.69,471.88 123.81,473.05 123.81,473.93 121.77,471.89 120.6,475.1 119.73,482.98 118.85,485.61 117.39,487.65 113.59,491.16 112.13,491.45 111.84,492.33 111.84,493.49 111.84,494.66 112.13,495.54 113.01,496.42 114.18,496.71 116.51,496.71 117.97,497 118.85,497.88 120.02,499.04 120.31,500.21 120.31,500.5 121.19,500.8 122.36,501.09 123.23,500.8 124.4,499.34 125.28,499.04 126.45,498.17 126.74,497.88 128.2,498.75 128.49,498.75 129.65,498.46 131.99,497 133.45,496.12 134.91,495.83 139.29,495.54 141.33,495.83 142.79,497.29 143.96,498.75 145.42,499.92 150.97,502.55 153.01,504.01 154.18,504.89 156.23,504.88 161.19,507.22 160.9,505.76 159.73,504.3 159.73,503.13 161.19,502.25 163.53,502.26 165.86,503.42 168.2,503.72 169.07,502.26 "/>
   <polygon id="path354" class="fil0" points="136.66,467.51 122.65,452.32 122.35,452.32 122.06,452.03 121.77,452.32 121.48,452.61 121.48,452.91 119.43,451.45 118.56,451.15 117.39,450.86 117.68,452.03 117.97,452.91 120.6,455.53 120.6,455.83 120.89,457 121.19,457.87 122.06,458.16 122.35,458.45 123.23,458.45 124.11,458.45 124.4,458.75 124.4,460.21 124.69,461.08 125.57,462.25 127.03,464.59 128.19,465.46 129.65,464.29 129.95,464.29 130.82,466.92 131.7,467.8 133.74,469.26 136.08,470.72 138.12,471.01 138.41,469.84 "/>
   <polygon id="path358" class="fil0" points="117.68,467.51 117.39,466.34 112.43,460.21 111.26,458.75 110.38,457.58 109.51,457.58 109.21,457.87 108.92,458.75 109.21,459.92 110.67,463.71 110.97,464 109.8,463.71 109.51,463.42 109.21,463.13 108.34,463.13 109.51,465.75 114.18,470.43 115.64,472.76 116.51,472.76 116.51,471.01 116.22,470.13 115.05,468.09 116.22,468.09 117.1,468.09 "/>
   <polygon id="path362" class="fil0" points="108.63,440.93 106,439.47 103.96,438.01 103.08,438.01 102.79,438.01 102.5,438.31 102.21,438.31 103.08,439.18 105.71,442.69 106.59,442.98 106.88,442.98 107.75,443.27 108.05,444.73 108.34,445.02 108.63,445.31 109.51,445.02 110.38,443.85 110.38,442.69 110.09,441.81 "/>
   <polygon id="path366" class="fil0" points="96.66,404.43 98.12,404.43 96.95,402.1 96.07,400.64 95.78,398.59 95.78,396.26 95.49,395.38 94.61,395.38 93.44,395.38 93.15,395.67 92.86,396.55 91.69,396.55 90.23,396.26 88.19,397.13 87.31,398.59 87.31,400.64 88.77,402.68 89.65,402.97 91.99,403.26 94.03,404.72 94.91,404.73 96.07,404.73 "/>
   <polygon id="path370" class="fil0" points="89.94,404.43 90.23,405.6 92.86,408.23 94.03,410.56 94.91,411.73 95.78,412.61 96.95,409.98 95.49,407.65 92.28,405.6 "/>
   <polygon id="path374" class="fil0" points="90.82,387.2 87.02,387.2 85.56,386.91 85.27,386.04 84.98,384.87 84.69,383.99 81.47,380.78 80.01,379.61 78.84,379.9 78.55,381.36 78.84,385.16 77.97,386.62 79.43,387.5 82.06,387.79 83.23,388.66 84.1,389.83 84.98,393.04 85.27,394.21 86.44,395.09 87.31,395.09 92.86,392.75 93.74,391.88 94.61,390.71 95.78,389.25 94.61,388.08 93.15,387.2 "/>
   <polygon id="path378" class="fil0" points="147.47,372.02 147.17,372.9 149.8,375.52 150.09,375.82 150.39,377.28 150.39,378.44 150.68,379.61 151.56,379.32 151.85,379.03 152.14,378.15 152.43,377.86 152.43,376.69 152.43,376.4 151.55,375.52 151.26,374.65 151.55,373.48 150.09,372.6 148.64,372.6 "/>
   <g>
    <path id="path382" class="fil0" d="M133.45 365.89l-0.88 -1.17 -4.67 -2.04 -1.17 -2.04 -0.29 -1.46 0.88 -3.5 -0.88 -2.34 -0.88 -0.29 -0.88 0.29 0.29 1.17 -3.5 2.04 -3.21 0.88 -3.21 0.29 -3.8 -1.17 -2.34 -1.17 -1.17 -0 -0.88 0.88 -0.29 1.46 -1.17 0 -2.04 -0.29 -1.46 0 -0.29 0.88 0 0.88 -0.88 1.17 -0.88 1.46 -0.88 0.29 -1.17 0.88 -4.67 1.46 -2.34 1.46 0 2.04 0.88 2.04 0 2.04 0.29 2.04 2.63 1.17 0.88 0.29 3.5 -0.29 1.17 -0 1.17 -1.46 1.17 -0.29 2.04 0 1.46 -0.29 4.38 -2.34 1.17 -0.29 1.17 -0.29 0.29 0.29 1.17 1.46 0.29 0.29 1.17 0.29 -0.29 0.88 -1.17 0.88 -0.29 -0 -0.88 1.46 0 0.88 0.88 1.17 -3.5 0.88 -0.88 0.29 0 1.17 0.88 0.88 2.04 0.88 2.63 0.29 1.17 -0 0.29 1.17 -0.88 0.29 -1.17 0.29 -2.34 -0.29 0 0.88 2.04 0.88 1.46 1.17 0.29 2.04 -0.29 1.46 8.18 3.21 3.5 -0.88 1.17 -4.67 0 -1.17 0.29 -1.17 0.88 -0.29 1.17 -0.29 1.17 -0.29 1.17 -0.88 0 -1.17 -0.29 -0.29 0 -0.29 -0.29 -3.21 -0.29 -2.04 0.29 -1.17 1.46 -2.34 -1.17 -4.67 0 -2.63 0.58 0zm0 0l0 0 0 0z"/>
   </g>
   <polygon id="path386" class="fil0" points="82.93,359.17 82.64,358.88 82.35,358 81.18,357.13 80.01,356.25 78.84,356.25 77.68,356.25 76.51,357.13 77.38,358.3 77.68,359.46 77.68,360.63 76.8,361.8 75.63,360.63 72.42,357.13 71.25,356.25 70.08,357.42 69.21,360.63 68.04,361.8 66.87,361.8 64.83,360.92 63.66,360.92 62.49,361.8 62.49,362.09 62.78,362.38 63.08,364.72 63.37,365.6 63.37,366.76 62.49,367.06 61.62,367.06 60.16,365.6 59.28,365.3 58.11,366.18 58.4,368.22 59.57,370.27 62.78,374.06 63.08,374.36 64.24,374.36 66.29,374.36 67.46,374.36 70.96,376.4 72.42,376.69 74.76,376.4 75.05,376.4 76.22,376.4 76.51,376.4 76.51,376.11 76.51,374.94 76.51,374.65 76.8,373.48 77.09,372.6 77.38,372.31 78.26,372.02 77.97,371.14 77.68,370.27 77.68,369.98 77.97,369.1 79.43,370.56 80.31,370.56 82.35,363.55 82.35,361.51 "/>
   <polygon id="path390" class="fil0" points="62.78,375.52 59.28,374.65 57.82,373.77 56.65,371.73 55.78,373.77 55.78,374.65 54.32,373.77 53.15,373.77 52.27,374.65 52.56,376.11 52.86,377.28 54.02,378.15 59.57,381.37 60.74,381.66 61.62,381.66 63.08,381.66 64.24,381.36 65.12,380.49 65.12,379.03 64.83,377.86 63.66,376.4 "/>
   <polygon id="path394" class="fil0" points="50.23,386.62 50.23,387.5 52.56,390.12 52.86,391 53.73,391.88 57.24,393.92 58.11,394.8 59.57,397.43 60.45,398.3 61.62,398.6 62.79,398.3 62.79,396.84 60.74,393.63 58.41,390.42 54.9,388.08 "/>
   <polygon id="path398" class="fil0" points="48.77,390.12 46.43,387.5 45.26,387.2 43.8,386.91 42.93,386.04 41.47,388.37 41.76,390.71 43.22,393.34 44.68,394.8 48.47,396.84 50.52,398.3 50.81,398.59 51.69,398.59 51.98,398.3 52.27,396.26 51.1,393.63 49.94,391.29 "/>
   <polygon id="path402" class="fil0" points="20.73,393.63 19.86,392.46 18.98,392.17 18.11,391.29 17.23,391 11.39,388.66 10.51,388.37 10.8,389.83 12.26,391 15.77,392.17 16.94,393.34 20.44,397.72 20.44,395.67 20.44,394.51 "/>
   <polygon id="path406" class="fil0" points="17.52,397.42 15.48,394.21 14.6,393.04 11.1,391.88 10.22,390.42 9.35,388.96 8.47,387.5 7.01,386.62 5.84,386.62 4.38,388.08 4.09,391.29 2.92,393.63 2.92,394.8 2.92,396.84 3.21,399.18 7.01,404.72 8.18,405.6 9.05,407.64 10.22,409.98 12.27,410.86 14.9,409.98 16.94,407.35 19.57,401.51 19.57,400.34 18.69,399.47 "/>
   <polygon id="path410" class="fil0" points="12.85,374.06 12.85,373.77 11.97,372.9 11.68,372.6 11.68,372.31 11.68,371.73 11.68,370.85 11.68,370.56 10.81,370.56 9.64,370.27 8.76,369.98 8.47,369.1 8.18,367.93 7.3,365.6 7.3,364.43 7.59,363.26 7.59,362.38 6.13,362.09 5.26,362.38 3.21,363.26 2.92,363.55 1.75,364.43 0.88,366.47 -0,368.51 -0,369.68 2.34,373.48 4.38,374.94 6.42,374.65 9.05,376.11 10.51,376.4 11.97,376.11 12.26,375.82 12.56,375.52 12.56,375.23 "/>
   <polygon id="path1014" class="fil0" points="140.46,400.05 140.17,401.22 141.04,402.68 141.92,403.56 143.09,402.68 143.38,401.22 142.21,400.05 "/>
   <polygon id="path1038" class="fil0" points="134.03,390.71 132.87,389.54 131.99,390.42 131.7,392.46 130.82,393.63 130.53,394.51 130.82,394.8 132.28,394.8 133.16,394.5 133.45,394.21 133.74,393.34 134.03,392.46 134.03,392.17 "/>
  </g>
 </g>
</svg>
