<?xml version="1.0" encoding="UTF-8"?>
<!DOCTYPE svg PUBLIC "-//W3C//DTD SVG 1.1//EN" "http://www.w3.org/Graphics/SVG/1.1/DTD/svg11.dtd">
<!-- Creator: CorelDRAW 2018 (64-Bit) -->
<svg xmlns="http://www.w3.org/2000/svg" xml:space="preserve" width="4.21322in" height="4.0817in" version="1.1" style="shape-rendering:geometricPrecision; text-rendering:geometricPrecision; image-rendering:optimizeQuality; fill-rule:evenodd; clip-rule:evenodd"
viewBox="0 0 250.61 242.79"
 xmlns:xlink="http://www.w3.org/1999/xlink">
 <defs>
  <style type="text/css">
   <![CDATA[
    .fil0 {fill:#5C67AE}
   ]]>
  </style>
 </defs>
 <g id="Layer_x0020_1">
  <metadata id="CorelCorpID_0Corel-Layer"/>
  <g id="MU">
   <polygon id="path1046" class="fil0" points="193.2,172.38 192.78,171.97 191.8,171.41 191.66,170.99 191.52,170.43 191.1,170.01 190.54,169.87 190.12,170.01 189.99,170.43 189.99,170.85 190.12,170.99 191.24,171.69 191.24,172.38 191.24,173.08 191.38,173.64 191.94,174.2 192.92,174.2 193.06,174.34 192.92,174.34 193.34,174.48 194.32,174.34 195.01,173.92 195.15,172.94 194.74,172.38 "/>
   <polygon id="path802" class="fil0" points="142.21,160.65 142.21,160.23 142.35,159.25 142.21,158.69 142.07,158.27 141.51,157.3 141.37,157.16 140.95,156.6 140.39,156.18 139.97,155.48 140.67,154.78 140.25,154.64 140.11,154.64 139.69,154.5 138.44,154.64 137.74,155.06 137.6,155.62 137.18,157.44 136.76,158.41 136.2,159.11 135.64,160.09 135.64,162.19 136.76,162.75 138.44,162.61 139.97,162.75 140.11,162.89 140.81,163.44 140.95,163.58 141.37,163.58 143.47,163.02 143.33,162.47 "/>
   <polygon id="path794" class="fil0" points="161.07,183 160.23,182.72 158,182.72 157.3,182.02 154.36,181.05 153.66,181.05 152.97,181.46 152.27,181.88 151.01,183.14 150.17,184.12 150.17,184.54 150.87,184.96 151.85,185.38 152.55,185.52 152.97,184.82 153.53,184.4 154.5,184.26 156.32,184.68 158.97,185.94 159.95,185.93 160.65,185.52 161.21,184.96 161.35,183.98 "/>
   <polygon id="path790" class="fil0" points="182.58,201.16 182.16,200.04 181.74,199.76 181.18,199.49 180.77,199.49 180.35,199.76 179.93,199.9 179.51,199.76 178.95,199.35 177.83,198.79 177.27,198.37 176.99,198.09 176.16,196.97 172.38,194.32 171.96,194.18 170.85,193.2 170.29,193.06 169.73,193.06 169.03,193.62 168.61,193.62 167.77,193.34 166.66,192.78 165.54,192.08 165.12,191.1 164.56,190.4 163.44,189.71 162.19,189.29 158.41,188.59 157.86,188.59 152.97,191.94 152.69,192.5 152.41,192.78 151.71,193.9 151.29,194.32 151.15,194.18 150.03,193.2 148.92,192.5 148.5,192.64 148.5,193.76 148.22,194.46 147.66,195.43 147.52,196.13 147.94,197.11 147.24,198.09 147.1,198.65 147.24,199.21 147.24,200.18 146.54,202 146.4,202.98 148.78,205.63 151.71,207.17 153.53,207.87 155.2,207.87 158.97,207.45 159.53,207.03 160.09,206.47 160.79,205.91 161.49,205.77 168.75,206.19 169.87,206.05 171.55,205.49 172.52,205.49 178.11,207.03 179.93,206.89 181.6,206.19 182.86,205.07 183.28,203.54 "/>
   <polygon id="path706" class="fil0" points="83.96,238.6 83.82,237.62 79.77,228.82 79.63,226.73 79.77,225.47 80.74,222.81 80.88,221.56 80.74,221 80.6,220.44 80.18,220.02 78.65,218.9 78.09,218.48 77.67,218.48 77.11,218.62 76.69,219.04 76.13,219.6 75.02,221.14 74.46,221.84 74.32,222.81 74.18,224.35 74.74,225.89 75.44,227.15 75.85,228.26 75.99,230.64 76.13,231.2 76.55,231.62 77.81,232.73 78.23,233.29 78.65,234.55 78.79,237.76 79.21,239.44 80.19,240.7 81.44,242.23 82.98,242.79 84.52,242.23 85.08,241.25 84.94,240.28 84.52,239.58 "/>
   <polygon id="path702" class="fil0" points="96.39,211.78 94.29,211.36 86.05,211.22 80.32,210.24 78.09,210.24 72.5,210.94 70.41,210.8 69.43,210.66 68.87,210.66 67.89,211.22 67.33,211.64 66.77,211.78 66.36,211.78 62.58,211.36 61.88,211.36 60.91,210.8 59.37,210.8 56.44,211.22 56.3,211.08 56.16,210.94 56.16,210.52 56.16,210.1 56.02,209.68 55.46,209.82 54.9,210.38 53.92,210.8 53.36,210.8 53.22,210.66 52.67,209.96 52.25,209.82 51.69,209.82 51.27,209.96 51.13,210.52 51.13,210.94 50.43,211.08 49.73,211.5 49.31,212.2 49.17,213.32 49.17,213.73 49.59,214.29 49.73,214.71 50.15,214.85 50.71,214.71 50.85,213.73 51.27,213.6 53.36,214.57 53.92,214.99 54.06,215.55 54.2,216.53 54.06,217.51 53.92,218.21 55.6,217.65 56.3,217.65 58.53,217.65 59.51,217.51 61.75,216.81 62.86,216.81 70.69,216.81 74.04,216.25 74.74,216.11 75.44,216.53 76.41,217.23 77.39,217.65 78.37,217.23 80.04,216.11 80.46,216.11 82.14,216.11 83.26,215.55 83.82,215.55 87.87,215.13 88.85,215.27 89.41,215.27 89.82,214.85 89.96,214.71 90.52,214.57 91.64,214.43 93.18,214.57 93.88,214.43 96.81,213.18 97.23,212.76 97.37,212.2 97.23,212.2 "/>
   <polygon id="path698" class="fil0" points="48.19,209.96 47.64,209.96 46.66,210.38 46.52,210.24 46.66,209.68 47.08,209.12 47.5,208.7 47.36,208.15 46.8,207.73 46.1,207.59 45.4,207.73 44.7,208.29 44.28,208.98 44.14,209.54 44.14,210.1 43.72,210.24 43.17,210.38 42.61,210.24 42.47,210.1 42.61,208.29 42.61,207.17 42.05,206.47 40.37,206.05 39.95,205.91 39.53,205.77 39.39,205.63 38.83,205.49 38.7,206.05 38.14,208.15 37.72,208.84 37.86,208.84 38.28,209.26 37.72,209.4 37.02,209.4 36.46,209.26 35.76,208.84 35.76,208.98 35.62,209.12 35.48,209.26 34.92,208.7 34.36,207.45 33.81,207.03 33.25,207.03 31.99,206.61 31.85,206.47 31.43,206.05 31.29,206.05 30.87,206.05 30.45,206.19 30.03,206.33 26.82,205.77 24.17,204.65 21.37,204.51 20.81,204.09 20.12,203.68 18.02,203.12 15.51,202.84 13.69,202.98 12.01,203.4 10.76,203.96 10.76,203.12 10.62,202.7 10.2,202.7 9.5,203.26 8.8,203.68 6.57,204.1 5.73,204.09 3.91,204.65 3.35,206.47 3.21,208.7 2.51,210.38 1.82,211.36 1.68,212.34 1.54,214.43 1.96,215.41 4.61,219.46 4.75,220.16 5.31,220.72 6.43,221.14 7.54,221.14 10.34,220.72 11.87,220.86 12.29,220.72 12.85,220.72 13.55,220.3 17.88,219.18 19.98,218.2 23.47,216.11 25.29,215.41 26.54,215.55 28.22,216.53 29.34,216.67 31.01,216.67 31.57,216.67 32.83,217.79 34.09,217.79 34.51,217.23 34.51,216.53 34.92,215.55 35.9,215.13 36.88,215.13 38,215.27 38.7,215.27 39.25,215.13 39.95,214.57 40.51,214.43 41.07,214.43 42.05,214.85 42.47,214.85 45.4,214.43 46.52,214.43 48.19,214.99 48.75,214.85 48.75,214.15 48.75,210.66 "/>
   <polygon id="path226" class="fil0" points="145.98,190.4 145.42,189.99 145,190.13 144.58,190.13 144.31,189.71 143.89,189.71 143.89,190.13 143.75,190.27 143.75,190.4 143.61,190.54 142.91,190.68 141.93,191.8 141.79,193.06 143.47,193.48 143.89,193.34 145,192.36 145.56,192.22 146.54,192.08 146.54,191.66 "/>
   <polygon id="path158" class="fil0" points="2.1,218.48 1.4,218.48 0.7,218.62 0.14,219.04 -0,219.74 0.14,220.16 0.56,220.3 1.12,220.3 1.54,220.44 2.65,221.98 3.21,222.12 3.35,219.88 2.93,219.04 "/>
   <polygon id="path966" class="fil0" points="99.32,61.75 98.9,61.61 98.48,61.47 98.07,61.33 97.65,61.47 97.23,61.89 96.81,62.58 96.95,62.72 97.37,62.86 98.48,64.4 98.62,64.26 98.76,63.56 98.76,63.14 99.32,62.03 "/>
   <polygon id="path834" class="fil0" points="248.94,131.73 247.68,130.76 245.3,129.08 238.04,122.93 237.62,122.93 237.2,122.93 237.2,123.35 237.2,123.49 237.62,123.63 238.18,124.05 239.16,124.75 239.58,124.89 240.7,126.7 241.11,126.84 241.25,127.4 241.11,128.38 241.25,128.94 245.31,130.62 247.4,134.11 247.96,135.09 248.52,135.23 249.08,135.37 249.64,135.23 250.2,135.09 250.61,134.67 250.61,134.25 250.47,133.27 250.06,132.57 "/>
   <polygon id="path830" class="fil0" points="159.95,135.23 159.95,134.11 160.65,132.29 160.79,131.18 160.79,125.73 160.79,125.17 160.93,124.61 161.35,123.49 161.49,122.93 161.35,121.82 160.79,120.56 160.37,119.58 160.51,117.48 162.05,112.04 162.19,111.06 162.19,110.36 161.77,109.66 161.21,108.96 160.65,108.82 159.53,109.24 159.11,109.1 157.02,107.43 156.88,107.29 156.88,106.87 156.74,106.73 155.76,106.17 155.34,105.61 155.2,105.47 155.06,104.91 155.06,103.38 154.64,101.28 154.5,100.58 154.08,100.16 153.66,100.02 153.24,99.6 153.1,99.18 152.96,98.63 153.1,96.53 153.66,93.6 154.08,91.36 154.5,90.24 156.04,89.13 156.74,88.01 157.44,86.75 157.58,85.77 157.02,84.66 155.34,84.1 153.52,83.68 152.27,83.12 151.57,82.42 151.71,81.44 152.27,80.47 152.41,79.77 152.41,79.21 151.85,78.51 151.85,78.09 151.71,77.95 151.29,77.95 151.15,77.81 151.29,77.11 151.15,76.69 151.29,76.13 151.43,75.71 151.29,75.16 150.87,74.74 150.31,74.74 149.89,74.88 149.47,75.02 149.33,75.16 148.36,75.3 147.66,75.71 147.1,75.58 146.96,74.6 146.96,73.9 147.1,73.48 147.52,73.06 147.94,72.5 148.08,71.94 148.22,71.38 148.22,70.41 147.8,69.71 147.38,69.15 146.82,68.59 146.82,67.61 147.24,66.63 148.5,64.26 149.75,62.58 150.87,59.37 152.69,56.58 153.39,54.9 152.97,53.36 152.27,52.11 152.69,50.99 154.22,48.89 153.66,48.19 153.66,47.78 153.52,47.36 153.66,46.8 154.22,46.66 154.64,46.52 154.78,46.38 154.92,45.96 155.06,45.4 154.92,44.84 154.36,44.7 154.22,44.56 154.36,44.14 154.78,43.58 155.34,41.77 157.72,37.86 158.83,36.32 159.95,34.5 160.51,33.53 163.3,31.29 164.28,29.61 168.75,25.01 170.29,23.89 170.71,23.47 170.85,22.77 171.41,21.79 172.38,21.09 173.08,20.67 174.06,20.81 174.76,21.23 175.46,21.37 177.55,20.26 178.11,20.81 178.11,21.93 177.69,22.91 176.71,24.73 176.02,25.42 175.46,25.84 175.32,25.98 175.18,26.54 174.76,26.96 173.64,27.38 173.5,27.94 173.08,29.2 172.66,30.87 172.24,31.57 171.68,31.99 170.71,32.13 170.01,32.27 169.31,32.83 168.89,33.25 168.47,33.95 168.05,35.48 167.91,37.02 168.05,38.28 169.17,38.98 172.38,39.4 172.94,39.95 173.5,40.65 175.6,42.19 176.01,43.31 175.6,46.66 175.46,47.22 175.04,47.64 175.46,48.34 175.6,48.48 176.01,48.89 176.43,49.31 176.57,49.87 176.99,51.97 176.85,52.95 176.16,55.6 176.16,56.86 176.16,58.39 176.16,58.95 176.02,59.09 175.6,59.23 175.46,59.37 175.32,59.93 175.46,60.63 176.16,62.3 176.16,62.86 175.74,63.28 174.62,63.28 174.2,63.28 173.78,63.7 173.36,64.96 172.94,65.38 171.96,66.5 171.41,67.19 170.43,69.29 170.01,69.85 170.01,69.99 169.87,70.13 169.31,70.55 168.75,70.55 167.63,70.55 167.21,70.69 163.44,73.62 159.39,75.85 157.86,77.39 157.16,79.63 158,80.74 158.41,81.72 158.97,82.42 159.39,82.98 160.09,83.54 161.77,84.24 162.47,84.8 162.61,85.21 163.16,86.19 163.3,86.61 163.72,86.75 164.28,86.61 164.7,86.61 165.96,87.59 166.94,87.59 167.91,87.17 168.61,86.75 169.73,86.19 171.27,84.93 172.24,83.96 172.38,83.4 172.52,79.07 172.52,78.37 172.66,77.39 175.46,73.9 176.43,73.2 177.41,72.64 178.39,72.22 179.51,71.8 182.72,71.8 183.42,71.66 184.4,70.55 184.96,69.43 185.1,68.45 184.96,67.75 184.26,66.78 183.28,66.36 181.18,66.78 180.49,66.64 180.35,65.66 181.05,64.68 182.58,63.42 183.14,62.58 184.12,60.77 184.68,60.07 185.38,59.37 187.47,58.11 188.45,57.41 189.15,56.86 191.24,56.3 192.22,55.6 192.64,55.18 192.92,54.2 193.06,53.78 193.48,53.64 194.6,53.22 195.71,52.53 196.69,52.11 197.81,51.69 198.79,51.69 199.21,51.83 199.35,51.97 199.48,52.11 200.04,52.25 200.6,52.11 201.02,51.55 201.58,50.85 202.28,50.43 204.65,50.01 206.47,49.87 209.96,50.43 210.1,50.57 210.24,50.99 210.24,51.41 210.1,51.83 208.98,52.8 208.43,53.78 208.29,54.76 208.29,56.58 208.43,57 208.85,57.41 209.82,57.97 210.38,58.39 210.94,58.53 211.08,58.95 211.08,59.37 211.22,60.35 211.22,61.47 211.22,62.58 210.8,63.14 209.82,63.56 209.68,64.26 209.68,66.36 209.12,68.73 208.98,69.85 209.4,73.06 209.4,73.76 209.26,74.32 209.12,74.46 208.43,74.88 208.01,74.88 207.31,74.88 206.75,74.88 206.61,75.3 202.7,77.53 202,78.09 201.86,78.65 201.3,79.07 198.51,79.77 197.53,80.74 196.83,81.3 196.13,81.44 195.15,81.44 191.1,82.56 190.41,82.98 189.99,83.68 189.85,84.8 190.27,85.77 190.27,86.33 190.13,86.75 189.57,86.61 188.45,86.05 188.03,86.05 187.05,86.47 186.63,87.03 186.21,88.01 186.21,88.99 186.35,89.68 187.05,90.38 188.73,91.64 189.99,93.18 190.68,93.88 192.22,94.43 193.2,94.99 193.76,95.13 195.43,95.13 196.69,95.13 196.83,95.27 197.25,95.69 197.95,96.39 198.51,96.95 198.93,97.09 200.6,97.23 201.58,97.37 203.12,98.35 203.82,98.35 204.37,98.35 205.35,98.35 205.91,98.49 206.47,98.63 207.03,98.76 207.59,98.35 208.29,98.9 208.43,99.46 208.29,101 208.15,101.42 208.01,101.56 208.01,101.98 208.43,102.54 208.57,102.96 208.57,103.52 208.57,107.29 208.7,108.96 209.4,109.66 212.2,110.22 212.62,110.36 215.27,110.5 216.39,111.62 217.92,113.15 218.9,114.83 218.9,115.81 219.32,115.81 217.09,113.71 216.53,113.57 215.83,113.43 209.54,111.62 208.56,112.04 207.45,111.48 206.19,110.92 204.65,110.5 202.7,110.08 201.16,109.66 200.04,108.68 198.23,106.87 197.67,106.45 197.11,106.31 195.57,106.45 194.87,106.45 193.62,106.31 192.92,106.17 189.71,106.73 188.17,106.73 186.91,105.61 185.79,106.03 184.68,105.33 183.7,104.35 183,103.65 179.09,103.24 178.39,103.37 177.27,102.82 174.76,102.82 173.78,102.26 172.8,103.23 172.1,103.79 171.41,104.49 170.85,108.4 170.15,109.38 170.01,109.94 170.15,111.06 171.27,112.17 171.69,113.29 172.1,118.32 172.1,119.02 171.69,119.58 170.99,120.28 170.57,120.98 170.43,121.95 170.43,124.19 170.85,126 171.41,127.54 172.66,130.34 173.78,132.99 174.48,134.67 174.62,136.9 174.76,137.88 175.32,138.58 176.58,140.11 176.71,141.09 176.71,142.07 177.27,144.3 177.69,145.28 179.79,148.22 180.35,150.03 181.6,151.15 182.3,151.85 186.35,159.11 189.01,161.77 191.66,164 192.22,164.56 193.2,165.82 194.18,166.52 195.85,167.21 196.41,167.77 196.83,168.47 196.41,168.47 195.15,167.5 193.48,167.08 189.43,166.94 188.45,166.8 187.75,166.38 187.19,165.82 186.77,165.12 186.91,164.56 187.61,164.42 188.17,164.84 188.59,164.84 187.61,163.16 185.38,161.91 178.11,159.25 177.13,158.55 176.57,157.86 174.2,151.85 171.55,147.94 170.29,144.59 169.59,143.89 168.61,142.77 168.19,142.63 167.63,142.49 164.98,140.95 163.3,139.84 162.61,139.7 161.91,139.14 160.93,137.88 160.23,136.34 "/>
   <polygon id="path826" class="fil0" points="208.29,7.12 206.19,4.75 205.63,4.33 205.21,3.63 203.95,1.4 203.4,0.42 202.7,0 201.72,0.56 201.02,1.54 200.6,2.51 200.18,3.07 198.92,2.65 198.23,2.1 197.81,1.96 197.39,2.1 196.41,2.79 195.99,3.21 195.43,4.89 194.73,5.59 192.64,6.57 190.82,8.38 188.73,12.71 187.47,14.81 185.37,16.62 184.95,17.6 185.93,18.02 186.49,18.58 187.05,19.7 187.47,21.93 187.33,25.28 187.75,25.98 189.29,27.52 189.42,28.5 188.87,29.61 188.45,30.59 189.42,30.45 190.68,29.47 191.38,28.78 191.94,28.64 198.78,27.94 199.76,27.52 202.56,25.28 202.7,24.72 203.39,23.05 206.05,18.02 206.19,15.09 206.89,13.27 207.86,11.59 208.56,9.78 "/>
   <polygon id="path822" class="fil0" points="147.24,107.29 146.26,107.29 145.14,107.71 144.58,108.12 144.17,108.82 144.17,109.38 144.3,110.36 144.72,111.34 145.14,111.9 146.96,112.04 147.94,110.5 148.08,108.4 "/>
   <polygon id="path818" class="fil0" points="150.03,125.59 149.05,119.58 149.05,119.16 149.05,119.58 149.47,118.88 149.61,118.74 149.05,118.74 147.52,118.32 147.1,120.14 146.68,122.79 146.68,124.05 147.1,125.17 147.24,125.03 147.38,124.89 147.52,124.47 147.52,124.33 148.5,124.89 148.5,125.03 148.5,126 148.5,126.42 148.64,126.84 149.33,127.4 149.75,127.26 149.89,126.7 "/>
   <polygon id="path814" class="fil0" points="146.26,95.55 146.68,95.97 147.8,95.27 148.91,94.3 149.47,93.6 149.61,92.9 149.47,91.78 149.33,90.8 149.19,90.1 149.05,89.96 148.92,89.83 148.78,89.69 148.36,89.55 147.94,89.97 147.52,89.96 147.1,89.82 146.54,89.68 146.12,92.48 145.14,94.16 145.56,94.85 145.98,95.55 "/>
   <polygon id="path810" class="fil0" points="145.98,88.01 146.12,86.89 145.98,86.19 145.56,85.49 143.75,84.38 142.77,84.8 142.07,85.77 141.65,86.89 141.79,87.45 142.21,88.43 142.63,89.13 143.19,89.55 143.89,89.55 144.58,89.55 145.28,89.13 "/>
   <polygon id="path806" class="fil0" points="139.42,148.64 139.56,148.64 139.97,148.78 140.11,148.92 140.25,147.94 140.81,147.24 140.95,146.82 140.53,145.56 140.53,145 141.23,144.45 141.37,143.89 141.23,143.19 140.81,142.63 140.39,142.21 139.97,141.51 139.83,140.81 140.25,140.11 140.67,140.11 141.37,140.11 141.79,140.11 141.79,139.7 141.93,139.28 142.07,138.86 141.93,138.72 140.39,138.72 139.97,138.58 139.56,138.02 139.14,137.6 139,137.46 138.58,137.46 138.16,137.6 137.74,137.18 137.32,137.6 136.06,137.6 135.36,137.74 134.95,137.88 133.83,138.44 133.41,138.58 132.85,139 132.99,140.11 133.41,141.37 133.55,142.49 133.41,142.49 133.27,142.63 133.13,142.77 132.99,143.19 132.99,144.45 132.57,145.56 132.57,145.98 133.13,146.12 133.27,146.54 133.69,146.96 133.83,147.66 133.83,148.22 134.25,148.22 133.69,148.64 133.55,149.2 134.25,149.61 134.11,149.75 134.11,149.89 133.97,150.31 136.9,150.31 137.88,149.89 138.44,149.75 "/>
   <polygon id="path798" class="fil0" points="170.57,161.77 170.15,161.77 170.01,161.63 170.01,161.21 169.87,160.79 169.31,159.81 169.17,159.39 168.75,159.25 166.52,158.28 165.82,158.14 162.88,158.28 162.19,158.41 161.77,158.83 161.21,159.25 160.65,159.39 160.09,159.25 159.39,158.97 159.25,158.41 159.25,158 159.25,156.32 159.11,155.9 158.55,155.76 158,155.76 157.44,155.62 157.3,155.2 157.16,154.64 157.3,153.53 157.86,152.55 160.65,149.2 161.21,148.08 160.79,147.1 160.09,145.98 159.67,145.56 159.25,145 159.11,144.87 158.55,145 158.41,145 158.27,144.58 158.14,144.17 158,143.61 158,143.05 157.58,142.49 156.46,141.79 156.32,141.37 156.18,140.67 155.48,140.11 153.94,139.56 153.8,139.56 153.8,139.42 153.66,139.42 153.25,139.56 153.11,139.97 152.97,140.39 152.97,140.95 152.83,141.09 152.27,141.23 151.85,141.37 151.71,141.51 151.29,142.21 151.15,143.33 150.73,144.31 150.03,144.86 149.47,144.72 149.05,144.17 148.63,143.61 148.5,142.49 148.36,142.35 147.94,142.21 147.8,142.07 147.1,141.09 146.54,140.95 145.42,140.81 144.86,140.95 143.89,141.37 143.33,141.37 143.89,142.63 143.89,143.05 143.89,144.17 143.47,145.14 142.91,145.84 142.35,146.4 141.93,147.1 141.93,147.8 142.07,148.78 142.49,149.47 143.05,150.03 144.58,151.15 144.72,151.57 144.86,151.99 145.84,153.53 146.54,153.67 146.68,153.81 146.82,153.94 146.82,154.5 146.96,154.64 147.38,154.78 148.36,154.78 148.78,155.2 150.31,155.62 150.45,155.62 150.45,156.18 148.92,159.11 148.92,159.81 149.05,161.91 149.47,162.89 149.47,163.3 149.89,164 150.45,164.14 153.67,163.17 156.04,161.63 157.02,161.49 157.44,161.35 157.58,160.93 158,160.93 158.55,161.07 158.69,161.21 159.11,161.63 159.25,162.19 159.39,162.75 159.25,163.86 159.25,164.42 159.67,164.56 160.23,164.7 160.37,165.12 160.51,165.54 161.07,165.68 162.19,166.1 162.75,166.24 163.72,167.22 164.14,167.22 164.56,167.08 165.68,166.52 166.24,166.38 166.8,166.38 167.35,166.24 167.77,166.1 170.01,164 170.57,163.3 170.71,162.61 170.85,162.05 170.85,161.91 "/>
   <polygon id="path234" class="fil0" points="185.1,12.71 183.98,11.18 183.42,11.04 183.28,11.18 182.86,11.6 182.44,12.15 182.3,12.71 181.88,13.13 181.74,13.69 181.74,14.25 182.16,15.23 182.58,16.2 183.28,16.76 183.98,16.2 184.96,13.41 "/>
   <polygon id="path230" class="fil0" points="165.68,17.6 164.42,17.46 164,17.6 163.86,18.58 164.28,19.7 165.4,20.4 166.52,20.26 167.08,19.14 167.08,18.16 166.94,17.74 166.38,17.6 "/>
  </g>
 </g>
</svg>
