<?xml version="1.0" encoding="UTF-8"?>
<!DOCTYPE svg PUBLIC "-//W3C//DTD SVG 1.1//EN" "http://www.w3.org/Graphics/SVG/1.1/DTD/svg11.dtd">
<!-- Creator: CorelDRAW 2018 (64-Bit) -->
<svg xmlns="http://www.w3.org/2000/svg" xml:space="preserve" width="4.99291in" height="2.28039in" version="1.1" style="shape-rendering:geometricPrecision; text-rendering:geometricPrecision; image-rendering:optimizeQuality; fill-rule:evenodd; clip-rule:evenodd"
viewBox="0 0 400.47 182.91"
 xmlns:xlink="http://www.w3.org/1999/xlink">
 <defs>
  <style type="text/css">
   <![CDATA[
    .fil0 {fill:#5C67AE}
   ]]>
  </style>
 </defs>
 <g id="Layer_x0020_1">
  <metadata id="CorelCorpID_0Corel-Layer"/>
  <g id="NT">
   <polygon id="path90" class="fil0" points="269.93,22.79 269.37,22.79 268.42,23.55 267.86,23.55 267.11,23.73 266.16,23.55 265.41,23.55 263.15,24.3 262.4,24.49 261.64,24.3 261.08,24.3 260.51,24.3 254.67,28.63 252.98,32.96 254.3,34.28 255.05,34.47 255.99,34.28 257.5,33.34 260.7,28.26 262.77,27.31 268.24,26.75 270.68,25.99 271.63,25.24 271.81,24.3 271.06,23.36 "/>
   <polygon id="path558" class="fil0" points="119.05,121.31 117.35,119.8 113.02,117.54 111.33,116.22 109.82,114.15 107.37,108.88 105.67,106.62 100.97,104.17 100.4,103.42 99.83,101.72 99.08,100.78 97.76,100.21 96.26,100.21 93.24,100.4 91.74,100.97 90.98,101.72 90.42,102.66 89.47,102.47 85.71,100.78 84.95,100.21 84.39,98.89 84.39,96.45 83.82,94.94 83.82,92.11 82.88,91.17 81.37,90.23 79.87,89.66 78.93,89.85 77.98,90.42 76.67,90.42 75.35,89.85 74.41,89.1 72.9,87.78 69.13,82.51 66.31,80.25 65.74,79.49 65.55,78.17 64.8,77.99 56.7,83.82 55.19,84.01 47.66,83.26 46.9,82.69 46.34,81.75 45.58,81.56 44.27,81.56 40.5,82.32 38.99,82.88 37.67,83.64 36.92,83.64 34.47,82.88 33.15,82.69 29.95,83.26 29.2,83.82 28.44,84.01 23.36,83.07 21.1,83.07 20.53,83.26 19.59,83.82 19.4,84.01 17.14,84.01 14.69,84.58 13.75,85.14 12.06,86.09 11.11,86.27 9.04,86.46 7.35,87.03 5.84,87.78 2.82,90.23 1.51,91.74 0.19,93.43 -0,95.13 0.19,96.07 1.13,97.01 2.83,98.33 3.77,99.08 4.33,99.84 5.65,101.91 6.4,102.85 9.23,105.11 10.17,105.68 12.62,105.86 15.45,107.18 17.9,107.37 20.72,107.37 22.23,107.18 23.92,108.12 24.49,108.31 25.05,108.31 25.81,107.75 26.37,107.75 28.82,109.44 30.14,110.01 30.7,109.07 31.27,108.31 32.59,107.75 33.91,107.56 34.85,107.56 36.35,107.56 38.8,108.5 42.01,108.69 43.51,108.88 43.7,108.88 43.89,108.69 44.45,108.69 44.64,108.69 44.64,108.88 44.64,109.63 44.64,109.82 47.09,110.57 47.85,111.33 48.03,113.02 48.6,113.78 52.55,115.85 54.82,117.54 55.76,118.11 58.58,118.11 59.15,118.3 60.47,119.05 61.03,119.62 61.22,120.18 61.41,120.37 62.16,119.8 62.35,120.75 62.92,121.31 63.67,121.5 64.61,121.5 65.36,121.69 65.93,122.25 66.68,122.82 68.94,126.02 69.89,127.53 70.07,130.35 70.64,130.54 71.2,130.54 71.96,130.73 73.65,133.55 73.84,134.12 76.67,135.06 76.85,135.63 77.61,137.13 77.8,137.32 82.13,138.64 82.69,138.83 83.45,138.64 93.24,140.15 94.19,140.71 95.69,142.41 97.01,143.16 98.33,143.16 99.08,142.6 99.65,141.65 99.65,140.33 100.21,139.58 103.23,138.07 104.55,137.89 108.88,138.45 109.44,138.26 110.2,137.7 113.96,136.76 114.91,136 115.85,134.31 118.67,131.48 120.75,129.97 121.5,129.22 122.25,126.77 121.69,124.32 120.37,122.63 "/>
   <polygon id="path562" class="fil0" points="39.93,28.63 39.93,28.63 40.69,28.44 40.88,28.26 40.69,27.5 39.93,26.94 39.75,26.75 39.18,26.56 37.86,26.56 34.85,26.75 34.09,26.18 33.91,25.24 33.72,23.92 33.53,22.98 31.27,23.92 30.7,23.92 31.46,26 31.46,26.94 30.89,27.13 31.08,29.39 31.08,29.95 30.52,30.89 30.52,31.08 30.33,31.08 29.38,31.08 28.82,31.08 28.25,31.84 28.25,32.4 28.44,33.91 28.44,35.6 28.44,35.79 29.01,35.98 29.57,35.98 29.76,36.54 29.76,38.24 29.57,38.43 28.63,40.69 28.44,41.63 28.63,42.38 28.07,42.38 28.63,42.57 29.57,41.82 32.59,43.14 34.09,42.57 33.34,41.82 32.78,40.5 32.59,39.18 32.4,38.62 32.96,36.92 33.53,36.35 34.1,36.54 34.66,36.35 35.23,35.6 35.98,34.09 35.41,33.53 34.85,34.28 34.09,34.28 33.53,34.1 33.34,33.15 34.28,33.15 34.85,32.96 35.6,31.65 36.54,31.46 37.11,31.65 37.67,32.96 38.62,33.15 40.69,32.96 40.69,32.78 40.69,32.02 40.88,31.46 41.63,31.27 41.06,30.33 40.31,29.76 40.12,29.2 "/>
   <polygon id="path566" class="fil0" points="50.48,35.41 50.29,36.73 49.73,38.05 48.79,38.24 47.47,37.67 46.9,37.11 46.72,35.6 46.53,35.04 46.34,34.47 44.83,33.53 44.27,35.04 45.58,37.48 45.4,38.99 46.72,39.18 46.53,39.93 45.58,40.5 44.64,41.06 44.83,41.25 45.02,42.01 44.27,42.19 43.7,42.76 43.13,44.45 43.7,45.21 44.45,45.21 45.02,45.21 45.77,44.64 46.53,44.46 47.09,44.64 47.28,45.4 48.03,46.15 48.6,46.34 49.35,46.53 49.54,45.77 50.48,44.46 50.67,43.89 50.67,42.57 49.35,41.25 49.35,40.31 49.54,39.37 50.3,39.18 51.24,39.18 52.18,38.99 51.99,38.24 52.74,37.49 54.82,36.17 54.82,35.23 53.31,34.66 51.61,34.66 "/>
   <polygon id="path570" class="fil0" points="262.21,14.13 262.02,13.37 261.08,12.43 259.38,8.1 259.57,5.84 259.38,5.09 258.44,4.14 256.75,2.83 255.8,2.07 254.49,1.88 254.3,1.7 253.54,0.38 252.6,0 251.66,0 251.09,0.19 249.78,1.13 247.33,2.45 246.57,3.39 246.39,4.9 246.2,5.84 244.5,8.66 243.94,9.61 244.12,10.17 244.31,10.36 246.76,10.17 246.95,10.17 248.27,9.23 249.59,8.48 251.09,7.72 252.6,7.53 255.05,7.54 256.56,7.72 257.31,8.48 256.75,9.23 252.79,13.75 249.02,15.07 247.33,16.39 245.82,18.08 245.07,18.65 243.56,18.84 242.62,19.03 241.68,19.78 240.73,19.97 239.42,19.78 238.47,19.97 236.03,20.16 235.08,20.72 232.82,23.74 231.88,24.49 228.3,25.81 227.74,26.56 227.74,27.13 227.55,27.69 227.55,27.88 227.74,28.63 228.3,28.63 229.24,29.2 229.43,29.39 229.62,30.89 228.68,32.4 227.17,33.72 225.48,34.28 215.12,36.35 213.04,36.17 211.35,35.41 205.51,30.33 204.57,30.14 203.81,29.95 202.5,29.2 201.74,29.01 200.99,28.82 199.67,29.01 198.92,29.01 198.16,28.07 197.98,26.75 198.16,25.43 199.11,24.68 198.92,24.11 198.35,23.36 197.6,23.17 196.85,23.17 196.28,23.74 196.09,24.3 195.34,24.49 193.08,25.05 192.89,25.24 192.7,26 192.14,26.18 189.69,27.5 188.18,27.5 186.86,26.94 185.92,26.18 184.6,27.5 184.04,27.5 183.28,27.5 183.09,27.5 182.53,27.31 181.77,27.13 180.46,27.31 176.88,28.82 175.94,28.82 173.11,26.37 172.36,25.81 171.41,26.56 170.85,27.88 170.85,29.39 171.04,30.89 169.53,30.33 168.97,30.33 168.78,31.08 168.97,32.4 168.21,32.4 165.95,33.91 165.39,34.09 164.63,34.66 164.07,34.66 163.88,34.09 163.88,33.34 163.32,32.78 162,32.21 160.68,32.21 159.92,32.4 158.98,32.96 158.04,33.15 156.35,32.4 153.52,29.39 152.2,28.82 150.51,26.37 149.75,25.62 149.19,25.62 147.87,25.43 147.3,25.43 146.55,25.24 145.98,24.68 145.8,24.49 145.23,23.92 144.48,23.92 142.97,24.11 142.22,23.55 141.65,23.36 141.09,23.17 139.58,23.17 138.26,22.98 135.06,22.04 133.55,21.1 132.61,20.34 131.29,18.27 129.97,17.52 128.47,17.52 125.64,18.08 123.19,17.9 121.69,17.33 120.74,17.14 119.43,16.58 115.09,17.14 113.78,16.95 110.2,14.88 109.63,13.94 109.07,13 107.75,12.24 104.92,11.3 105.49,12.81 105.49,13.56 104.92,14.32 104.17,14.5 103.41,14.32 102.47,13.75 101.72,13.19 100.4,12.43 97.95,13.94 96.26,13.75 95.69,13 95.5,12.05 94.94,11.11 94,10.92 93.43,11.49 92.11,13.75 91.17,13.94 84.58,13.75 80.62,15.26 80.06,15.82 79.49,16.76 77.23,18.84 76.48,20.34 75.91,20.34 75.72,19.78 74.97,19.21 74.78,19.02 74.22,19.97 74.22,20.72 73.65,21.47 72.9,22.04 72.33,22.04 72.14,21.29 71.58,21.1 71.01,21.29 70.83,21.29 70.64,21.47 71.77,21.47 71.2,21.47 70.64,21.29 70.07,21.1 69.51,21.1 69.32,21.29 69.13,22.23 69.13,22.42 68.57,23.73 68,24.49 67.25,25.05 67.06,24.49 66.49,24.49 65.93,24.49 65.36,24.49 63.67,25.81 63.48,25.81 62.73,26 61.41,25.05 59.34,22.98 59.34,25.05 59.52,26.75 59.52,28.07 56.32,31.65 55.57,33.15 55.38,34.66 55.38,43.89 55.95,45.4 56.7,46.34 57.64,47.28 58.96,47.85 59.71,47.85 60.47,47.85 61.03,48.03 61.79,51.61 61.97,52.37 62.73,52.18 63.67,51.99 64.23,51.42 64.23,51.24 63.67,50.48 63.67,50.29 63.86,50.11 64.05,50.11 64.23,50.11 65.93,48.79 71.39,47.85 73.65,47.28 75.91,45.96 76.85,45.77 78.17,45.77 79.11,46.34 81.94,48.6 83.26,49.35 85.52,49.92 88.34,49.92 92.11,47.66 92.87,48.22 93.62,48.22 94.18,48.03 94.94,47.85 95.69,48.03 97.95,48.22 99.27,48.22 102.1,47.47 103.6,47.47 104.92,47.47 105.49,47.47 106.05,47.66 106.62,48.22 107.56,49.54 108.12,49.73 109.07,51.05 109.82,51.05 111.14,51.05 111.89,51.05 112.83,51.24 113.59,51.99 114.53,52.56 116.03,52.74 116.98,52.18 117.54,51.42 118.11,50.48 118.86,49.54 120.18,48.98 121.5,49.16 122.44,49.92 123.01,51.42 123.57,52.37 126.4,55.19 127.34,56.13 128.09,56.13 129.6,56.13 130.16,56.13 132.23,56.89 135.44,57.08 136.76,56.89 140.71,54.82 142.97,54.06 145.99,53.87 151.45,55.57 154.27,55.57 156.53,53.31 156.53,51.99 155.97,50.48 155.97,48.98 156.72,47.66 157.66,47.47 159.17,47.66 161.62,48.41 164.45,48.98 166.89,48.79 169.34,48.98 172.17,50.3 172.73,51.24 173.49,54.06 173.68,54.63 174.43,54.06 175.37,51.8 176.31,51.05 176.88,51.8 178.2,52.37 179.14,53.12 180.08,53.31 180.83,53.31 181.59,53.5 182.15,53.5 183.09,53.31 185.54,51.61 188.37,50.3 196.66,48.03 199.11,46.53 201.18,45.02 203.44,43.51 206.64,43.33 210.6,43.89 212.29,44.83 213.04,44.65 214.55,44.08 215.49,44.08 222.09,44.08 224.91,43.89 229.24,42.38 229.81,41.82 231.88,40.12 232.64,39.56 237.16,38.62 237.91,38.62 238.47,38.05 239.98,37.3 240.55,37.11 242.62,37.67 243.18,37.49 243.94,36.73 244.5,36.54 247.71,36.36 248.27,36.17 251.1,34.47 251.1,32.4 248.27,28.07 248.08,27.5 248.08,26.94 248.08,25.62 248.08,24.86 248.65,24.3 249.21,24.11 249.4,24.68 249.97,25.24 251.47,26 253.17,26.56 254.11,26.56 254.67,25.62 254.67,24.3 254.11,21.85 254.67,20.34 255.62,19.4 257.12,19.21 260.89,19.03 261.83,18.46 262.4,17.71 262.59,16.2 "/>
   <polygon id="path574" class="fil0" points="282.93,12.81 282.36,12.06 281.61,11.87 281.05,11.87 280.48,12.43 278.97,11.3 277.47,10.74 275.77,10.55 273.7,10.55 272.76,10.55 270.69,11.11 269.74,11.68 268.8,12.25 262.96,16.95 262.02,18.65 262.02,20.72 263.34,22.04 265.79,21.85 271.06,20.91 276.34,21.66 279.16,21.66 281.42,20.34 281.61,19.4 282.18,15.07 282.36,14.51 282.93,14.32 283.12,13.75 "/>
   <polygon id="path578" class="fil0" points="320.23,9.98 317.21,9.8 315.89,9.61 314.95,9.42 314.39,8.85 313.45,8.1 312.88,7.91 312.69,7.72 312.5,7.16 312.31,7.16 311.75,7.16 311.18,7.35 311,7.54 309.68,7.72 308.74,8.67 307.42,9.61 305.91,9.8 305.91,10.36 306.1,11.11 305.53,11.3 304.21,11.3 303.46,11.11 303.27,10.93 303.27,10.36 303.27,9.79 302.52,9.23 301.95,9.23 301.39,9.42 301.2,9.61 300.64,10.17 300.45,10.93 301.01,11.49 301.58,12.06 301.77,12.81 301.58,14.13 300.82,15.07 299.88,15.07 299.13,14.32 297.81,15.07 298,15.82 298.94,16.58 299.51,17.52 299.32,18.84 298.38,19.59 297.06,19.59 295.55,19.4 294.61,18.84 293.85,18.08 293.85,17.14 294.42,15.82 296.12,14.32 296.68,13.56 296.68,13 296.68,11.68 297.25,11.11 295.55,10.93 293.85,10.93 293.1,11.11 291.59,12.43 290.84,12.62 290.09,13.19 289.33,13.19 288.39,12.62 287.45,12.43 286.7,13 285.38,13.94 284.44,14.88 284.62,15.64 288.96,15.64 291.22,15.82 291.97,16.39 292.16,17.9 291.59,18.46 290.84,19.03 285.57,21.29 284.81,21.47 283.87,21.66 281.04,24.49 277.09,27.31 275.58,29.01 276.34,30.52 276.52,30.52 277.09,30.33 277.28,30.14 277.84,30.33 278.03,30.52 278.79,31.08 278.97,31.08 279.54,31.08 280.29,30.89 280.86,30.7 281.61,29.95 283.12,30.52 285.38,32.02 286.7,33.34 286.89,33.53 287.83,33.53 288.58,33.34 289.33,32.4 290.09,32.21 292.91,29.2 293.67,29.95 295.17,32.02 295.74,32.21 297.25,32.21 298.19,32.21 299.13,31.46 299.88,30.14 297.62,27.31 297.43,26.56 297.62,25.99 298.38,25.43 299.13,25.24 299.32,25.05 299.88,24.3 300.83,22.98 302.14,22.04 302.9,21.85 303.46,22.42 303.65,23.17 304.22,23.92 304.97,23.74 307.8,21.29 309.11,18.84 310.06,16.58 310.81,15.64 311.56,14.88 313.07,14.69 317.03,14.51 320.04,13.94 320.79,13.37 320.98,13.19 321.17,11.68 320.98,10.93 "/>
   <polygon id="path582" class="fil0" points="344.53,9.61 343.58,8.1 343.02,7.35 342.08,7.16 341.32,7.35 340.76,7.54 340.57,8.1 339.63,9.04 337.93,11.49 336.61,12.81 334.35,16.58 332.66,17.9 331.9,18.84 331.9,20.16 331.34,20.16 331.15,19.59 330.21,18.27 330.21,18.08 330.21,17.9 329.64,16.2 329.46,16.01 328.7,15.26 327.76,15.26 326.44,15.82 323.99,17.33 322.68,18.84 320.42,23.17 320.23,23.36 319.47,24.11 318.91,24.86 319.85,25.43 320.41,25.43 320.98,25.24 323.43,23.92 324.94,23.36 326.25,23.36 326.82,24.11 327.01,25.05 328.33,26.56 328.51,27.88 328.33,30.33 328.89,31.08 330.59,31.27 331.9,31.27 333.41,30.7 334.73,30.14 335.67,29.39 336.61,28.44 337.37,26.94 337.93,25.43 338.5,22.6 339.25,21.29 340.01,19.78 340.95,18.84 343.21,17.33 344.15,16.01 344.15,14.69 343.58,13.38 343.77,11.87 "/>
   <polygon id="path586" class="fil0" points="397.27,9.61 396.7,8.85 395.39,6.59 394.63,5.84 394.07,5.84 393.88,5.84 391.62,5.65 388.42,6.22 387.66,6.22 387.1,6.03 386.91,5.84 386.72,5.65 385.78,5.46 385.59,5.65 385.4,5.84 384.84,6.03 382.39,6.59 374.29,6.03 369.01,6.22 367.51,6.4 366,7.16 363.55,8.85 362.61,7.91 362.42,4.9 361.48,4.14 359.97,3.96 356.96,4.71 355.45,4.14 354.7,4.71 353.95,5.27 353.38,6.03 353.19,6.97 352.63,7.91 351.87,8.67 350.93,9.23 350.37,9.8 350.18,12.81 351.87,12.81 356.58,10.74 358.09,10.17 359.41,9.61 360.16,9.79 360.16,10.36 359.97,10.93 359.22,11.11 358.28,12.06 358.09,12.24 357.52,12.43 355.45,12.62 351.5,14.88 351.31,15.82 349.99,18.27 349.24,19.02 347.16,20.53 346.41,21.85 346.6,22.79 347.16,23.36 347.35,24.11 347.92,24.68 348.67,24.86 348.86,24.68 350.18,24.11 350.37,23.92 351.12,24.11 351.87,25.05 352.44,25.05 353.19,25.05 353.38,24.49 353.94,23.92 354.13,23.73 354.7,23.74 356.2,22.98 356.77,22.79 357.34,22.79 358.65,22.98 358.84,22.98 359.6,23.74 360.16,23.74 360.35,23.74 361.1,23.55 362.04,23.36 363.36,22.6 364.68,22.42 366.19,21.66 366.94,21.47 367.7,21.29 368.26,21.29 371.84,21.85 374.67,21.66 385.21,19.59 391.05,19.4 394.63,18.65 396.14,18.46 397.65,18.27 398.4,17.52 398.4,16.2 398.59,10.74 "/>
   <polygon id="path590" class="fil0" points="192.51,151.45 191.57,150.69 190.06,150.69 188.75,151.26 187.43,152.01 185.17,155.59 177.44,159.36 176.5,160.11 176.69,160.68 176.88,160.87 177.63,161.43 179.14,162.19 180.46,162.38 183.28,162.37 187.24,162.56 188.74,162.37 188.93,162.19 189.12,161.62 189.31,161.06 189.5,160.87 190.25,160.87 190.82,160.87 191.01,160.68 191.57,160.11 193.08,159.36 195.53,157.29 196.09,156.53 196.66,153.71 195.9,152.01 194.96,152.01 193.64,152.01 "/>
   <polygon id="path594" class="fil0" points="285.57,161.81 284.81,161.81 284.06,161.81 283.49,161.81 283.31,161.06 283.87,161.06 284.44,160.49 285,159.74 284.81,159.55 284.81,158.98 285.76,157.66 285.94,156.35 285,155.4 285.94,154.09 286.13,153.33 286.13,152.39 285.38,151.45 284.63,152.2 283.31,154.46 281.99,155.22 278.41,156.53 275.96,157.85 275.02,158.8 274.45,159.74 274.45,160.68 273.89,160.68 273.32,160.49 272.57,160.68 272.38,161.43 272.19,162.75 272,163.5 271.06,164.26 268.24,165.58 266.92,166.33 263.72,169.34 262.21,170.1 261.46,170.1 260.89,170.1 260.14,170.29 259.38,170.85 258.82,170.85 258.06,171.04 256.75,170.85 255.24,171.04 251.28,172.36 249.78,173.3 248.46,173.49 248.27,174.05 248.46,175.37 249.02,181.21 250.34,182.91 252.79,182.91 258.63,181.96 258.63,181.4 257.88,180.83 258.44,179.89 259.95,179.33 269.56,176.5 272,176.31 274.08,175.75 275.58,174.24 275.77,173.68 275.77,172.92 275.96,171.41 276.15,170.85 276.9,170.66 277.65,170.47 278.22,170.28 281.8,167.46 283.12,166.89 284.06,166.89 285.57,167.08 286.89,167.08 287.45,166.14 287.64,163.32 287.07,162.37 "/>
   <polygon id="path598" class="fil0" points="290.46,133.37 289.71,132.61 288.39,132.8 287.07,133.37 286.32,133.93 285.38,134.87 284.06,137.7 283.12,139.02 281.61,140.34 280.86,141.09 280.67,142.03 280.67,144.1 281.23,145.61 282.18,145.61 283.12,144.67 283.68,143.73 283.87,143.54 284.63,144.1 285.19,145.04 285.38,145.23 286.32,145.42 286.89,145.42 287.07,144.86 286.51,143.91 287.45,143.16 286.88,141.46 285.57,138.64 286.32,138.07 287.07,139.02 288.01,139.58 288.77,139.39 288.96,138.45 289.52,137.88 291.78,136.57 292.54,135.81 292.35,135.06 290.65,134.31 "/>
   <polygon id="path918" class="fil0" points="177.82,14.13 177.07,14.32 176.88,14.5 176.31,15.07 175.75,15.26 176.69,17.52 177.63,18.27 179.14,18.08 179.89,17.14 179.89,15.64 179.14,14.32 "/>
   <polygon id="path922" class="fil0" points="219.45,23.36 218.51,24.3 219.07,26.37 220.58,27.69 222.84,26.75 223.59,25.24 222.84,23.92 221.33,23.36 "/>
   <polygon id="path1058" class="fil0" points="171.79,162.56 170.85,162.37 168.59,162.56 167.08,163.32 166.33,164.26 166.52,164.82 167.84,164.82 169.34,164.82 170.66,164.63 171.98,164.07 172.92,163.32 173.11,162.56 172.36,162.37 "/>
   <polygon id="path1074" class="fil0" points="382.2,58.02 380.5,59.34 378.43,59.9 377.68,60.47 375.23,61.03 373.91,62.54 373.16,63.1 368.83,64.42 368.26,64.99 367.69,66.49 367.51,67.06 367.32,67.25 363.36,70.07 360.91,71.02 357.9,71.58 354.7,71.58 353.76,73.09 352.81,76.67 352.63,78.93 352.44,79.49 352.25,79.68 352.06,79.87 350.74,81.37 349.05,83.07 348.29,83.26 348.1,83.26 347.92,83.26 347.73,84.01 347.54,86.09 347.35,86.65 346.79,87.4 346.6,87.97 346.6,88.54 346.79,89.48 346.79,90.23 346.22,90.98 345.28,91.55 344.34,91.74 343.02,91.93 342.27,92.11 342.08,92.11 341.89,92.11 341.89,91.36 341.89,90.42 342.08,89.48 342.08,88.91 341.89,87.59 341.32,86.65 340.57,85.71 340,84.77 339.06,84.01 338.12,83.82 337.37,83.82 336.43,84.39 335.48,85.14 334.17,86.65 333.41,87.22 331.34,87.03 329.64,85.52 327.57,81.94 326.44,81.94 325.12,82.13 324.37,82.88 322.86,84.58 320.04,87.03 319.47,87.59 318.72,88.16 316.65,91.17 316.46,91.17 315.71,91.17 315.52,91.17 314.95,91.36 314.39,92.11 313.82,92.3 313.07,92.49 312.5,92.68 311.94,92.68 311.37,93.43 309.68,95.88 308.92,96.45 306.66,97.39 305.16,98.89 304.4,99.84 304.21,101.15 304.21,107.18 303.65,108.5 303.46,108.69 302.9,108.88 302.71,109.07 302.52,109.63 302.52,110.57 303.46,111.89 303.65,112.64 303.65,114.15 303.46,115.47 302.9,116.79 301.39,117.73 299.13,119.24 298.56,119.99 298,124.51 298,126.02 298.75,126.96 299.69,127.15 301.95,125.45 303.27,125.26 304.78,125.27 306.29,125.83 307.61,126.4 308.92,127.15 310.24,128.66 309.3,130.16 304.03,132.99 303.27,133.18 301.01,133.74 300.45,133.93 299.5,134.5 296.3,135.81 294.23,137.51 293.29,138.83 292.72,139.58 292.91,142.03 292.91,143.35 292.35,144.67 291.4,146.17 291.22,146.93 291.4,147.49 292.16,147.49 292.73,147.3 293.48,146.74 294.23,145.42 295.74,145.42 297.06,145.42 298,145.61 299.69,147.12 300.64,147.3 302.14,146.55 303.46,146.36 304.78,146.93 306.1,147.68 307.42,147.87 309.87,147.12 311.18,146.93 311.94,147.68 312.69,147.87 314.39,147.3 321.17,142.78 326.63,142.03 327.57,141.46 328.14,140.71 328.33,139.77 329.08,139.2 330.4,139.02 330.96,138.26 332.28,135.81 333.22,135.06 333.98,135.06 335.3,135.25 336.05,135.44 338.12,134.87 342.83,134.31 349.8,134.49 352.25,134.31 354.32,132.99 357.34,130.73 358.09,129.79 359.03,129.03 359.97,126.02 361.29,124.7 364.3,122.63 366.57,120.93 368.83,119.24 372.4,117.16 373.35,116.41 374.1,114.15 379.56,107.37 381.26,105.86 387.47,102.1 388.04,101.15 388.6,96.63 389.55,93.81 391.24,92.11 393.31,90.79 392.56,86.84 392.37,85.9 390.87,83.63 390.87,83.07 391.05,82.13 390.87,81.94 390.68,81.37 389.17,80.62 387.66,79.11 387.48,78.36 386.91,77.42 386.72,75.16 386.72,73.46 388.04,71.96 390.11,71.77 391.43,71.77 391.99,71.77 392.56,72.33 393.31,73.09 393.5,73.28 394.44,73.28 395.01,73.09 395.76,72.52 396.7,71.96 397.27,71.77 398.97,71.96 399.53,71.77 399.72,71.01 399.53,70.45 399.34,69.7 399.15,69.13 400.47,64.8 400.47,63.48 399.91,62.16 398.97,61.22 397.65,60.28 396.33,59.71 396.14,59.15 395.95,58.96 395.39,58.77 394.82,58.96 394.63,59.52 394.44,60.84 394.26,61.03 393.31,61.78 390.3,63.29 388.79,64.23 388.04,64.42 386.72,64.42 385.78,64.23 385.03,63.67 384.46,62.91 384.27,61.97 384.27,61.03 385.03,58.77 385.03,57.26 "/>
  </g>
 </g>
</svg>
