<?xml version="1.0" encoding="UTF-8"?>
<!DOCTYPE svg PUBLIC "-//W3C//DTD SVG 1.1//EN" "http://www.w3.org/Graphics/SVG/1.1/DTD/svg11.dtd">
<!-- Creator: CorelDRAW 2018 (64-Bit) -->
<svg xmlns="http://www.w3.org/2000/svg" xml:space="preserve" width="2.68432in" height="0.829035in" version="1.1" style="shape-rendering:geometricPrecision; text-rendering:geometricPrecision; image-rendering:optimizeQuality; fill-rule:evenodd; clip-rule:evenodd"
viewBox="0 0 125.74 38.84"
 xmlns:xlink="http://www.w3.org/1999/xlink">
 <defs>
  <style type="text/css">
   <![CDATA[
    .fil0 {fill:#5C67AE}
   ]]>
  </style>
 </defs>
 <g id="Layer_x0020_1">
  <metadata id="CorelCorpID_0Corel-Layer"/>
  <g id="NB">
   <polygon id="path86" class="fil0" points="68.1,1.98 64.47,1.87 63.92,1.98 61.83,2.97 61.5,3.3 61.39,3.74 61.28,4.29 61.39,5.72 61.39,5.83 61.72,5.94 62.05,6.27 62.49,6.82 62.49,7.37 61.94,8.58 61.61,9.13 61.5,9.46 61.83,9.79 63.15,10.67 63.48,10.67 64.25,10.56 64.69,10.01 66.78,5.94 67.55,4.73 68.54,3.85 69.31,3.41 69.42,3.3 69.53,2.97 69.42,2.53 69.09,2.42 68.76,2.09 "/>
   <polygon id="path546" class="fil0" points="29.59,6.6 27.94,6.49 27.39,6.38 26.62,5.83 26.07,5.5 24.42,5.39 21.78,4.62 20.57,3.85 19.8,3.96 16.39,5.17 15.84,5.61 12.65,9.02 12.1,9.46 11.11,10.01 10.56,10.45 10.23,10.78 10.12,11.33 9.79,11.66 9.46,11.66 8.69,11.77 8.58,11.88 7.81,13.09 7.92,14.52 8.91,17.6 9.02,18.48 8.91,20.79 8.47,22.55 8.58,23.32 9.13,23.65 9.02,23.98 8.47,25.19 8.14,24.86 7.81,24.53 7.7,24.09 7.59,23.98 7.26,23.98 6.93,24.09 6.6,24.2 6.49,24.31 6.16,24.31 5.72,24.2 5.39,24.2 5.28,24.53 5.17,24.86 5.06,25.19 4.73,25.3 4.62,25.41 3.74,25.41 2.97,25.08 1.65,24.64 1.54,24.31 1.43,23.76 1.32,23.43 0.88,23.76 0.11,24.31 -0,24.75 -0,25.19 -0,26.07 0.33,26.62 0.88,27.06 3.08,28.27 3.63,28.38 4.18,28.27 4.29,28.16 4.62,28.16 5.06,28.49 5.17,28.93 5.5,29.7 5.83,30.14 6.16,30.25 6.49,30.36 6.93,30.36 7.37,30.25 7.26,29.48 7.26,28.93 7.37,28.82 7.7,28.71 8.03,28.6 8.47,28.6 8.8,28.6 9.13,28.93 9.02,29.26 8.91,29.59 8.47,29.7 8.91,30.14 9.46,30.14 9.79,29.81 9.9,29.26 11.66,29.37 12.21,29.37 12.65,29.81 13.42,30.8 13.75,30.91 13.86,30.8 14.41,30.47 14.85,30.36 14.96,30.47 15.29,30.8 15.62,30.91 16.17,30.8 17.6,30.36 18.15,30.25 18.48,30.36 18.81,30.69 18.92,31.02 19.03,31.35 19.36,31.24 19.8,30.8 20.13,30.8 20.57,31.24 20.46,31.79 20.57,32.12 21.01,32.45 21.34,32.01 21.89,29.81 21.56,29.04 22.11,28.27 22.99,27.83 23.87,27.72 24.2,27.83 24.31,27.94 23.87,28.93 23.43,29.92 23.1,30.36 23.43,30.69 23.76,31.03 25.08,30.47 26.51,30.37 27.72,30.03 28.6,29.04 27.94,29.04 27.17,28.71 26.73,28.38 26.73,27.61 26.29,27.94 25.74,28.38 25.3,28.82 24.86,28.71 24.86,28.38 24.86,27.61 25.19,26.73 25.74,25.96 27.17,24.53 27.72,22.88 28.71,21.12 28.82,20.13 29.26,19.36 30.69,17.93 31.13,17.16 31.24,14.41 31.57,13.86 32.01,13.53 33.22,11.77 33.55,11 33.22,9.57 32.23,8.25 30.8,7.26 "/>
   <polygon id="path550" class="fil0" points="125.74,19.25 125.41,18.7 124.86,17.82 124.42,17.38 124.31,17.71 124.31,18.15 124.2,18.48 124.09,18.81 123.32,18.92 123.32,19.25 123.43,19.58 123.43,20.02 123.1,20.35 122.33,20.68 121.45,21.01 121.01,21.12 120.13,20.79 119.69,20.24 119.58,19.36 119.58,18.48 119.25,17.16 119.8,15.73 119.91,14.3 118.92,12.43 118.37,10.67 118.26,9.68 118.15,8.8 117.71,8.36 117.16,8.03 116.28,7.92 114.85,7.59 112.98,7.59 111.22,7.92 110.01,8.36 109.02,8.91 108.25,9.79 107.7,11 107.7,12.43 107.81,12.87 107.92,13.31 108.03,13.64 107.59,14.52 107.15,15.4 107.04,15.73 106.93,16.06 106.38,16.83 105.83,17.38 105.39,17.27 105.5,16.72 106.38,14.08 106.49,12.32 106.6,11.44 106.93,10.89 105.61,8.36 105.06,7.81 104.73,7.7 103.52,7.59 103.41,7.48 103.08,7.37 102.97,7.26 102.64,7.26 100.99,7.26 100.55,7.15 100,6.71 99.67,6.38 98.9,6.38 98.02,6.49 97.25,6.82 96.81,7.7 96.37,8.03 95.93,8.36 95.6,8.47 95.6,8.8 95.27,9.13 94.28,10.12 93.73,10.56 92.96,11 92.41,11.11 92.08,11 90.76,9.79 90.65,9.79 90.54,9.9 90.43,10.01 90.32,9.9 89.88,9.46 89.11,8.03 87.79,6.38 87.68,6.27 87.35,5.94 87.24,5.17 87.13,3.52 86.36,2.09 85.04,1.32 83.39,0.99 81.63,0.99 80.86,0.88 80.53,0.88 80.09,0.99 79.76,1.1 79.65,0.77 79.32,0.33 78.99,0 77.56,0.11 76.68,0.22 73.6,1.43 73.05,1.54 72.72,1.65 71.84,2.2 71.51,2.2 71.18,2.2 70.85,2.31 70.41,2.75 70.08,3.3 69.64,4.29 69.53,5.28 69.86,5.72 70.19,5.83 70.52,6.16 71.07,6.71 72.06,7.48 72.61,8.03 73.49,9.35 73.93,9.9 76.13,11.55 78.33,12.87 78.88,13.42 79.32,13.86 80.09,14.19 80.64,14.3 81.85,13.75 82.73,13.42 83.28,13.75 84.27,14.96 84.82,15.29 85.15,14.85 85.48,14.85 86.03,15.84 87.68,17.16 88.23,18.15 88.78,17.71 88.89,17.6 88.89,17.27 89.22,17.16 89.55,17.49 89.88,17.82 89.99,17.93 90.54,18.26 90.98,18.7 91.31,19.47 91.31,20.24 90.98,20.79 90.43,21.23 89.66,21.34 87.57,21.34 87.24,21.34 86.47,20.9 86.14,20.9 84.82,20.9 83.39,21.23 83.06,21.23 82.73,21.34 82.73,21.45 82.62,21.45 82.29,21.78 81.96,22.11 81.96,22.22 81.41,22.55 79.76,24.2 78.99,24.75 78.44,24.31 77.67,23.98 77.12,23.98 76.68,23.98 76.57,23.87 76.57,23.21 76.46,22.88 76.35,22.55 76.02,22.55 73.71,23.32 72.94,23.32 72.39,22.88 71.95,22.44 71.51,21.12 71.18,20.57 71.51,20.46 71.84,20.35 72.17,20.35 72.61,20.35 72.5,20.02 72.39,19.91 72.28,19.91 71.95,19.91 71.62,19.8 71.62,19.47 71.73,19.14 71.84,19.03 71.51,18.7 71.18,18.59 70.85,18.48 70.41,18.37 70.41,18.04 70.74,17.71 70.19,17.6 69.86,17.71 69.42,18.04 68.98,18.04 67.11,17.16 66.78,16.72 66.67,16.17 66.34,13.64 66.23,12.87 65.79,12.76 65.35,13.2 65.24,14.96 65.13,15.84 64.58,14.63 64.25,12.32 63.81,11.77 63.37,12.1 62.38,12.21 60.51,12.21 60.07,12.1 59.74,11.77 59.63,11.88 59.52,12.65 59.41,13.09 59.3,13.53 59.19,13.97 59.3,14.52 56.33,13.2 54.9,12.21 53.91,11.77 53.47,11.33 53.03,11.22 51.71,11.11 51.27,11 50.39,10.01 49.62,10.34 48.41,10.67 47.53,11.11 47.86,11.99 46.54,12.76 44.34,14.41 42.57,15.4 39.05,16.61 38.61,16.61 38.06,16.61 37.73,16.5 36.96,15.95 37.07,17.71 36.74,18.48 35.86,18.81 34.43,21.89 35.2,22.33 35.53,23.1 35.42,24.09 35.09,24.64 35.2,24.75 35.53,25.19 35.64,25.52 35.75,25.85 35.86,25.96 35.97,26.07 36.3,26.4 36.41,26.84 36.08,27.61 34.87,28.49 34.54,29.26 34.43,29.59 34.1,29.92 33.77,30.36 33.77,30.91 33.77,31.24 34.21,31.69 34.21,31.8 34.21,32.13 34.1,32.46 33.99,32.57 33.88,32.9 33.44,33.45 33.33,33.56 33.44,33.89 33.88,34.77 33.99,35.1 34.43,35.09 35.64,35.97 36.52,36.08 37.29,36.19 39.49,36.96 40.26,36.96 41.14,36.85 41.91,36.74 42.46,37.07 43.23,37.63 44.99,38.84 45.76,38.4 47.85,38.06 48.73,37.95 49.28,37.62 50.49,35.86 51.37,35.42 53.13,35.09 53.57,35.2 53.91,35.31 54.24,35.64 54.57,35.97 55.45,36.3 56.33,36.3 61.06,35.75 62.71,35.31 64.14,34.76 68.21,32.23 69.86,31.68 69.97,31.57 70.41,31.46 70.85,31.35 71.29,31.79 71.62,32.12 72.06,32.23 72.17,32.23 72.72,32.23 73.05,32.23 73.38,32.12 73.71,31.79 73.82,31.46 74.15,31.13 74.7,31.13 74.81,31.46 75.14,32.01 75.25,32.12 75.69,32.12 76.02,32.01 76.13,32.01 76.57,32.34 80.64,30.25 80.97,29.81 81.3,29.48 81.63,29.04 81.96,29.04 82.07,29.15 82.18,29.26 83.39,28.82 83.72,28.82 84.49,28.93 85.37,29.37 86.14,29.81 86.69,29.7 91.09,26.07 91.53,26.07 91.86,25.74 91.97,25.63 92.52,24.42 93.51,23.1 94.06,22.77 94.83,22.66 95.6,22.33 95.71,21.89 95.6,20.24 95.71,19.36 96.26,18.92 96.26,19.47 96.37,20.02 96.7,20.57 97.03,21.12 97.14,21.67 97.14,22.11 97.14,22.66 97.03,23.43 96.59,24.31 95.82,25.08 95.38,25.85 95.27,26.73 96.26,28.93 98.13,29.37 105.72,27.17 107.37,26.84 109.02,26.95 109.79,27.28 111.44,28.6 111.88,28.71 111.99,28.71 112.32,28.6 112.43,28.27 112.54,28.27 113.09,28.6 113.53,28.6 114.3,28.71 114.74,28.71 115.62,28.6 116.06,28.49 116.17,28.16 116.17,27.83 115.73,27.39 115.73,27.06 115.4,26.73 114.63,26.4 111.55,25.85 108.58,25.85 108.14,25.85 107.81,25.74 107.26,25.19 106.82,24.86 107.81,24.31 108.58,23.76 109.13,23.65 110.12,23.98 111,23.54 112.65,23.98 113.53,23.65 113.86,23.32 113.97,22.88 114.08,22.77 114.85,22.88 115.18,22.99 116.06,24.31 116.94,25.08 117.71,25.19 120.02,24.75 120.46,24.64 120.9,24.64 121.34,24.75 121.78,25.08 122.11,25.19 122.44,24.86 122.55,24.42 123.32,24.86 123.76,24.75 124.2,24.31 124.97,23.87 124.86,23.54 124.86,23.43 124.97,23.32 125.3,23.21 124.97,22.77 124.64,22.22 124.64,21.78 124.64,21.23 124.75,20.9 125.19,20.57 125.3,20.46 125.19,20.13 125.3,20.02 125.41,19.91 "/>
   <polygon id="path554" class="fil0" points="121.34,1.32 119.69,1.87 118.81,3.52 118.92,5.17 119.91,6.16 120.9,6.16 121.78,5.72 122.33,5.17 122.77,4.62 123.1,3.63 122.99,2.75 122.22,1.98 "/>
  </g>
 </g>
</svg>
