<?xml version="1.0" encoding="UTF-8"?>
<!DOCTYPE svg PUBLIC "-//W3C//DTD SVG 1.1//EN" "http://www.w3.org/Graphics/SVG/1.1/DTD/svg11.dtd">
<!-- Creator: CorelDRAW 2018 (64-Bit) -->
<svg xmlns="http://www.w3.org/2000/svg" xml:space="preserve" width="4.35881in" height="4.3001in" version="1.1" style="shape-rendering:geometricPrecision; text-rendering:geometricPrecision; image-rendering:optimizeQuality; fill-rule:evenodd; clip-rule:evenodd"
viewBox="0 0 239.08 235.86"
 xmlns:xlink="http://www.w3.org/1999/xlink">
 <defs>
  <style type="text/css">
   <![CDATA[
    .fil0 {fill:#5C67AE}
   ]]>
  </style>
 </defs>
 <g id="Layer_x0020_1">
  <metadata id="CorelCorpID_0Corel-Layer"/>
  <g id="PB">
   <polygon id="path238" class="fil0" points="131.39,198.5 130.36,197.34 129.84,196.7 129.2,196.57 128.81,196.7 128.17,197.09 127.78,197.47 128.43,198.5 128.81,198.63 129.46,198.63 129.84,198.63 129.97,199.79 130.36,200.44 130.88,201.08 131.39,201.47 131.78,200.82 131.91,200.18 131.78,199.28 "/>
   <polygon id="path838" class="fil0" points="69.82,57.58 69.82,57.06 70.2,56.68 70.72,56.03 70.2,54.62 69.82,54.1 68.79,53.72 68.66,53.59 68.27,53.46 67.88,53.33 67.24,53.33 67.11,53.33 66.98,53.2 66.08,53.33 65.69,52.94 65.31,52.43 65.18,52.3 64.66,52.17 64.28,51.78 63.76,51.27 63.38,50.88 62.22,50.49 61.7,50.37 60.54,50.37 59.38,50.24 58.74,50.11 59.38,49.46 59.38,49.08 58.87,48.95 57.97,48.95 57.58,48.95 56.42,49.34 56.29,49.46 55.9,49.85 55.52,49.85 55.39,49.72 55.39,49.34 55,49.21 48.95,47.53 47.92,47.53 47.02,47.66 46.12,48.05 45.6,48.69 46.12,48.56 46.5,48.69 46.89,48.82 47.28,49.21 46.37,49.34 45.21,49.34 44.57,49.46 44.44,48.56 43.28,48.69 42.12,49.08 41.22,49.08 40.32,49.46 39.03,49.34 38.64,49.72 38.13,49.34 38,49.21 37.48,50.11 37.36,50.5 37.36,50.37 37.23,50.24 37.1,49.85 36.97,50.37 36.97,50.5 36.33,49.85 35.81,49.46 35.42,49.34 34.91,50.24 34.01,50.75 32.07,51.4 31.95,51.27 31.82,50.88 31.3,50.88 31.43,51.27 31.56,52.17 30.66,51.65 30.01,51.14 29.5,50.62 28.47,51.01 28.85,51.53 28.98,52.17 28.98,52.81 28.47,52.94 28.08,52.81 27.95,52.17 27.82,51.53 27.69,51.01 27.57,51.4 27.44,51.78 27.05,52.17 26.92,52.3 26.28,51.91 25.76,51.91 25.25,52.04 25.12,52.56 25.25,53.2 25.89,54.1 26.02,54.75 26.15,55.13 26.79,55.52 27.44,55.91 27.95,55.91 28.08,55.52 28.08,55 27.69,54.36 27.57,53.72 27.95,54.1 28.34,54.1 28.73,53.97 28.85,53.59 29.24,53.59 29.24,54.49 29.76,54.62 30.27,54.1 30.79,53.2 30.92,53.84 30.92,54.49 30.53,55 29.88,55.13 30.27,55.52 31.17,55.65 31.82,55.65 31.43,56.16 30.91,56.68 30.4,56.81 29.76,56.81 29.11,56.42 28.6,56.29 27.69,56.29 26.15,56.68 25.12,56.68 24.99,56.68 24.6,56.55 23.96,56.16 23.57,56.16 22.41,56.29 23.06,56.81 24.6,57.32 25.76,57.45 26.15,57.58 26.28,58.1 26.28,58.48 26.41,58.61 26.79,58.74 27.69,58.87 28.85,58.87 29.24,59 29.37,59.38 29.5,59.38 30.01,58.87 30.4,59 30.79,59 31.69,59.13 31.82,59.13 31.95,59.64 32.07,59.64 32.2,59.64 32.59,59.25 32.72,59.13 34.14,58.48 35.04,58.09 35.94,58.48 35.94,59 35.81,59.38 35.68,59.77 35.68,60.16 35.81,60.67 36.45,60.93 36.84,61.44 36.84,62.35 36.71,63.38 36.71,63.89 37.36,64.02 36.84,65.57 36.84,66.08 36.97,66.21 37.1,66.08 37.48,65.95 38.39,64.02 38.39,63.12 38,63.51 37.61,63.51 38.26,61.83 39.42,60.93 43.02,59.9 43.15,60.41 43.28,61.06 43.15,61.57 42.64,61.96 43.67,65.05 44.18,65.95 44.83,66.47 45.86,66.6 46.89,66.6 50.62,65.95 52.3,65.31 52.81,64.92 52.94,64.54 53.07,64.15 53.46,63.63 53.84,63.25 54.23,63.12 53.84,62.6 53.33,61.7 52.94,61.31 52.56,61.19 52.17,61.06 51.78,60.67 51.65,60.28 51.27,59.9 50.62,59.77 48.69,59.77 48.31,59.9 48.18,60.29 48.05,60.93 47.15,60.41 45.47,59.51 44.96,59 44.83,58.1 43.93,56.42 42.38,54.36 41.74,53.72 40.06,53.07 40.06,52.56 40.45,52.04 41.35,52.04 40.96,51.53 40.58,51.4 39.42,51.01 39.93,50.62 41.09,50.5 42.25,50.37 42.89,50.5 42.89,50.88 42.77,51.01 43.28,51.14 43.41,51.14 43.93,51.01 44.05,52.04 44.44,52.69 46.89,54.75 47.27,55.26 47.4,56.16 47.4,57.06 47.4,57.58 47.92,57.71 48.31,57.71 49.21,57.84 50.37,57.97 51.01,57.97 51.65,58.48 52.17,59.38 52.04,59.77 52.17,60.16 53.2,60.8 54.23,62.22 54.36,62.35 55,62.73 55.39,62.86 55.52,62.73 55.9,62.73 56.03,62.6 56.94,62.48 57.32,62.6 57.32,63.12 59.38,61.7 60.03,61.32 60.54,61.19 60.67,61.19 60.8,61.32 61.19,61.44 62.6,61.44 62.73,61.57 63.12,61.57 64.15,62.09 65.82,63.51 66.73,64.02 67.37,63.89 67.76,63.25 67.76,62.22 68.14,62.35 68.66,62.35 68.79,62.47 68.79,61.83 69.3,61.32 69.69,61.19 70.08,60.54 70.2,60.16 71.23,60.03 71.36,59.64 71.23,59.13 69.69,58.09 "/>
   <polygon id="path842" class="fil0" points="42.64,66.34 42.25,65.95 41.22,65.57 40.58,65.18 40.19,65.05 39.8,65.18 39.67,65.31 39.67,65.69 39.55,65.82 38.52,65.95 37.87,66.47 37.48,66.98 36.97,67.37 36.32,67.5 35.81,67.5 35.42,67.37 35.29,66.47 35.17,66.34 34.65,66.86 34.14,67.37 33.75,67.89 33.62,67.76 33.49,67.63 33.36,67.5 32.98,67.5 33.36,68.14 33.75,68.66 34.27,68.79 34.91,68.66 34.78,69.17 34.27,69.56 33.75,69.69 33.36,70.2 35.81,69.82 36.2,69.69 36.58,69.56 37.23,69.43 37.36,69.05 37.49,68.92 37.61,68.27 37.74,68.14 39.16,67.63 39.16,68.66 38.64,70.07 38.13,70.46 38.52,70.85 39.16,70.85 41.22,70.33 41.61,69.95 42.77,68.01 42.89,67.5 42.89,66.85 "/>
   <polygon id="path846" class="fil0" points="53.07,81.28 52.56,81.28 51.91,80.9 51.4,80.77 51.27,80.77 50.62,80.9 50.24,80.9 49.72,80.9 48.82,80.9 48.43,80.77 48.05,80.38 47.92,80.9 48.56,81.8 48.43,82.31 48.82,82.44 48.82,82.57 48.82,83.09 47.92,82.18 47.02,82.31 45.99,82.96 44.96,83.34 44.31,83.21 43.28,82.83 42.77,82.7 42.25,82.83 41.86,82.96 41.48,83.09 40.96,82.96 40.96,82.83 41.09,82.7 40.45,82.31 39.8,82.7 38.64,83.6 38.52,83.21 38.39,82.83 38,82.44 37.61,82.31 36.97,83.73 35.55,83.86 34.52,83.34 34.91,82.31 34.39,82.18 33.88,82.18 33.49,82.57 33.36,83.09 33.23,83.09 33.23,82.96 33.23,82.44 32.59,83.09 32.59,84.76 32.07,85.4 32.2,86.31 31.69,86.69 30.79,87.08 30.4,87.98 31.95,87.34 32.59,87.21 33.1,87.72 33.23,87.72 33.62,87.08 34.14,86.95 34.78,87.08 35.81,87.21 35.68,87.21 35.17,87.34 35.17,87.72 36.71,87.34 39.93,87.21 46.12,85.66 47.79,85.66 48.69,85.53 49.85,84.63 50.88,84.24 51.4,84.12 51.78,83.73 51.91,83.6 51.78,83.21 51.65,83.21 51.27,83.09 51.14,82.7 51.14,82.31 51.53,82.18 51.91,82.18 52.43,82.06 52.56,81.93 53.07,81.8 53.46,81.67 "/>
   <polygon id="path850" class="fil0" points="59.25,91.07 59.38,90.56 60.03,89.91 59.9,89.53 59,88.11 58.48,87.59 58.09,87.21 57.97,87.21 57.84,87.21 55.78,87.34 54.87,87.46 54.23,87.98 54.1,87.98 53.97,87.59 53.59,86.95 52.94,86.31 52.04,86.18 51.01,86.31 49.34,86.82 47.66,87.85 42.9,89.01 41.48,89.65 41.48,90.56 43.15,92.1 43.67,93 44.18,94.16 44.05,95.19 43.15,95.71 43.54,96.35 43.67,96.48 44.18,96.87 44.57,97.25 44.96,97.64 45.09,98.03 45.09,98.54 45.21,99.19 45.34,99.19 45.47,99.32 45.6,99.7 45.6,100.09 45.6,100.6 45.6,100.86 45.99,101.51 46.5,101.89 47.66,102.54 48.69,103.44 49.08,103.82 50.24,105.5 50.62,105.89 51.27,106.01 51.91,105.5 52.56,105.11 53.07,105.11 53.59,105.24 54.23,106.27 54.75,106.4 55.78,106.27 56.42,105.63 56.81,104.6 56.94,103.7 57.06,102.79 58.09,100.86 59.64,94.29 59.51,92.23 59.51,91.84 59,91.2 "/>
   <polygon id="path854" class="fil0" points="10.82,98.03 10.18,97.9 9.27,97.9 8.24,97.77 7.6,97.25 6.7,97.25 2.58,98.67 1.93,99.19 1.55,99.83 2.45,100.35 5.54,100.35 6.05,100.35 6.18,100.22 6.83,99.83 7.34,99.7 7.47,100.09 7.08,100.48 5.41,101.51 6.57,101.38 7.6,100.86 9.15,99.44 9.27,99.83 9.27,99.96 9.4,100.09 9.4,100.48 10.56,99.44 10.95,98.93 "/>
   <polygon id="path858" class="fil0" points="29.88,129.97 30.27,129.85 30.66,129.85 31.04,129.72 31.17,128.69 31.3,128.56 31.69,128.56 32.2,128.43 32.2,127.78 31.82,126.88 31.3,125.85 30.79,125.34 28.34,123.66 28.47,121.6 28.34,121.09 27.82,120.96 27.44,120.96 26.92,120.96 25.51,121.6 24.47,122.12 23.57,122.63 22.93,123.28 22.41,123.4 19.84,122.89 18.81,122.89 16.87,123.4 14.94,123.53 14.04,123.66 13.14,123.79 10.69,125.21 9.79,125.59 8.37,125.98 7.86,125.98 7.21,126.5 7.08,126.62 7.08,126.75 6.96,126.88 1.42,128.81 -0,129.72 0.9,130.75 1.29,131.13 2.45,131.26 4.12,132.16 4.51,132.29 5.41,133.19 5.54,133.32 6.18,133.45 7.08,134.1 8.24,134.48 8.89,135 9.27,135 11.21,135 13.14,136.03 15.59,135.9 16.49,136.03 17.65,136.54 17.52,136.67 17,136.8 17.39,136.93 17.78,137.06 17.91,137.19 18.29,137.57 19.45,137.19 22.54,137.19 23.96,136.67 24.47,136.16 24.86,135.51 25.38,134.87 26.02,134.74 26.41,134.35 27.05,132.94 27.57,132.42 27.7,132.81 27.7,133.19 27.82,133.58 27.69,133.58 27.69,134.1 27.69,134.61 28.08,134.74 28.47,134.87 28.85,135 29.24,135.13 29.76,135 29.89,134.61 30.01,134.48 30.4,134.35 30.79,133.97 31.3,133.84 31.82,133.84 31.95,133.71 31.95,133.19 27.95,131.65 28.34,131 "/>
   <polygon id="path862" class="fil0" points="82.96,162.69 82.05,163.21 81.67,163.34 82.05,163.72 82.96,163.59 83.99,163.21 85.02,162.56 85.4,161.92 84.89,161.92 84.24,162.05 "/>
   <polygon id="path866" class="fil0" points="168.88,232.77 168.23,232.25 167.2,231.87 166.17,231.74 165.01,231.61 164.5,231.61 164.11,231.22 163.21,230.71 163.21,230.58 162.82,229.93 162.82,229.68 162.43,229.68 162.31,229.68 159.09,227.49 158.7,227.36 158.31,228.26 158.44,228.77 158.44,229.42 158.83,229.93 159.47,230.06 160.12,230.19 160.5,230.58 160.89,231.09 161.4,231.61 161.92,231.74 162.95,232.12 163.47,232.51 164.11,233.15 164.5,233.28 165.01,233.41 165.65,233.41 166.17,233.28 167.2,233.15 167.72,233.15 168.75,233.67 169.78,234.83 170.81,235.86 171.84,235.73 170.94,235.34 "/>
   <polygon id="path878" class="fil0" points="198.63,123.28 198.24,123.66 195.67,127.4 195.28,129.46 195.28,130.1 195.93,132.29 196.57,131.26 197.47,129.72 197.99,128.17 197.34,127.14 197.86,126.5 198.5,125.98 199.02,125.85 199.15,124.31 199.02,123.66 "/>
   <polygon id="path882" class="fil0" points="205.07,135 204.69,135.13 204.17,135.51 203.78,135.9 203.65,136.41 203.14,137.32 202.75,138.48 202.75,139.89 203.14,140.92 204.04,141.57 204.68,141.44 205.33,140.79 205.72,139.12 206.75,137.06 206.87,136.67 206.87,136.54 206.75,136.03 206.23,135.51 205.72,135.38 "/>
   <polygon id="path886" class="fil0" points="213.7,153.16 213.7,149.42 213.83,148.91 213.83,148.39 213.44,147.88 213.06,147.75 212.93,149.3 212.8,150.33 212.41,150.97 211.25,152 211.13,152.64 212.28,153.29 211.77,153.8 211.77,154.32 212.28,154.45 213.19,154.45 213.7,154.32 213.83,153.93 "/>
   <polygon id="path970" class="fil0" points="67.88,0.39 67.88,1.03 67.88,1.42 68.4,1.03 68.53,0.64 68.53,0.13 68.14,0 "/>
   <polygon id="path974" class="fil0" points="66.98,2.45 67.5,2.06 67.5,1.67 67.11,2.19 "/>
   <polygon id="path1018" class="fil0" points="8.63,65.05 8.12,65.05 7.47,65.44 6.83,65.82 6.7,65.82 6.31,66.21 6.18,66.73 6.18,67.63 6.57,68.53 7.08,69.17 7.73,69.3 8.12,68.92 8.63,68.27 8.76,67.37 8.89,66.85 9.27,66.73 9.27,66.08 9.15,65.44 "/>
   <polygon class="fil0" points="217.44,159.09 217.05,157.41 216.54,156.9 215.89,156.25 214.99,155.86 214.09,155.74 213.7,155.61 212.8,154.96 212.41,154.83 211.9,155.22 211.9,155.61 212.03,155.99 212.54,156.38 210.61,157.03 210.1,157.41 209.58,158.44 209.19,159.34 209.06,160.25 209.06,161.4 208.68,162.82 208.81,163.34 209.32,164.37 209.71,165.01 209.71,165.53 209.58,166.69 209.71,167.33 209.84,167.85 210.22,168.75 210.61,169.13 211,171.07 211.13,171.58 209.97,172.48 209.32,172.87 208.29,172.87 208.29,172.48 207.26,170.55 206.75,169.13 206.36,168.62 205.84,168.1 205.46,167.59 204.94,164.88 204.43,163.72 203.53,162.82 203.65,162.18 202.75,160.24 202.37,158.83 201.98,157.93 201.59,157.02 201.21,156.64 200.69,156.51 200.05,155.99 199.4,155.35 198.89,154.32 196.96,152.9 196.44,152.26 195.92,151.61 195.8,150.97 195.67,150.07 195.54,149.68 194.89,149.04 194.77,148.52 194.89,148.14 195.02,147.23 194.89,146.33 194.38,144.79 194.25,143.88 194.25,143.37 194.38,142.85 194.38,142.47 194.25,141.95 193.86,141.57 193.22,141.05 193.09,140.66 193.09,139.63 193.74,136.93 193.74,136.8 194.12,136.8 194.51,136.8 194.64,136.8 194.64,136.41 194.51,136.29 194.38,136.16 194.38,136.03 194.38,135.51 194.25,132.29 192.58,123.4 191.93,121.73 191.8,121.08 191.93,120.57 192.32,120.18 192.71,120.06 193.22,119.93 193.61,119.8 194.25,119.28 194.9,118.77 197.09,116.32 197.47,115.8 197.86,115.16 198.25,112.2 198.25,110.27 198.63,109.36 200.56,106.4 199.92,105.5 197.22,100.35 196.7,99.96 196.18,99.57 195.41,99.19 194.51,98.29 193.99,97.64 193.35,96.1 192.96,95.58 192.58,95.19 192.45,94.16 192.32,93.78 191.8,93.13 189.87,89.14 190.39,88.75 190.9,88.75 191.29,88.11 191.42,86.95 191.55,86.43 192.19,86.31 194.9,85.92 195.8,85.53 195.8,85.02 195.41,84.89 194.25,84.37 193.74,83.99 193.09,83.08 192.71,82.7 192.19,82.57 191.16,82.18 190.64,82.05 188.07,79.35 187.17,78.83 186.65,79.22 186.01,79.22 184.08,79.22 181.63,79.61 181.11,79.74 180.73,79.74 179.82,79.09 179.7,78.96 179.05,78.83 178.15,78.83 177.63,78.96 177.25,79.35 177.63,79.99 176.99,80.12 173,79.99 171.97,79.87 171.32,79.48 170.81,79.09 170.42,79.09 170.29,79.22 169.91,79.61 169.78,80.12 169.39,80.12 169.26,80.12 168.87,79.99 168.75,79.87 161.53,78.96 161.02,78.83 158.96,77.68 158.57,77.16 158.05,76.13 157.02,74.97 150.97,70.72 150.58,70.72 149.55,70.85 149.17,70.72 148.78,70.59 148.26,70.07 148.14,69.95 147.23,69.95 146.59,69.95 146.2,69.82 145.56,69.43 144.14,68.53 143.5,68.14 143.11,67.63 143.11,67.24 142.98,66.85 142.47,66.73 141.44,67.24 140.92,67.37 140.02,67.24 131.39,63.25 129.97,63.63 119.28,62.6 117.61,62.99 113.87,64.02 112.84,64.15 111.94,64.28 110.52,64.92 108.85,65.44 107.43,66.34 106.79,66.47 104.6,68.01 104.21,68.53 103.57,70.2 103.18,70.59 102.67,70.72 100.22,71.36 99.19,72.01 98.03,73.04 96.1,74.97 95.07,77.16 94.68,77.55 94.16,77.55 90.43,78.71 82.18,80.38 81.67,80.51 81.28,80.9 80.38,81.28 79.48,81.41 78.83,81.54 78.83,81.41 79.22,80.9 80.12,79.87 79.74,79.74 78.83,79.61 78.32,79.74 77.93,80.12 77.55,80.25 75.87,80.38 75.36,80.51 74.84,80.64 73.68,81.02 73.17,81.67 72.65,82.06 70.72,82.18 66.72,83.34 66.34,84.5 66.98,85.53 68.91,87.47 67.88,87.98 67.5,88.11 67.88,89.01 67.76,90.69 67.88,91.33 67.37,91.84 67.24,92.36 67.37,93.91 67.24,94.55 66.6,95.71 66.47,96.22 66.34,96.61 65.18,98.16 64.54,100.22 64.41,100.6 63.25,100.99 59.64,101.64 59,102.02 58.35,102.92 58.35,103.05 57.84,103.18 57.71,103.57 57.84,104.21 56.68,107.43 56.55,107.82 56.03,108.33 54.49,108.85 54.36,109.24 54.49,110.27 54.87,110.78 55.52,111.17 56.68,111.17 60.28,111.04 61.96,111.17 63.89,111.81 64.28,112.2 64.79,112.58 64.92,112.97 65.31,114.13 65.7,114.26 66.6,113.87 68.01,112.97 69.56,112.58 70.07,112.2 70.98,111.68 71.49,111.04 71.49,110.39 69.56,109.23 68.66,108.33 68.79,107.43 70.72,108.59 71.75,108.72 72.91,108.33 73.42,108.72 73.94,109.23 74.33,109.75 74.2,110.27 73.68,110.78 73.81,111.17 73.17,111.04 73.3,111.17 73.68,111.3 74.58,112.45 75.1,112.58 75.49,112.71 76,112.58 76.52,112.45 76.39,111.94 76.52,111.55 76.9,111.42 77.42,111.3 77.93,111.3 78.32,111.3 78.45,111.42 78.83,111.55 80.25,111.55 81.15,111.55 81.8,111.94 82.96,112.97 83.6,113.49 84.24,113.61 85.15,113.49 86.05,113.1 86.95,112.97 87.85,113.36 87.21,114 87.21,115.03 87.85,115.68 89.01,115.68 89.91,115.29 90.43,114.64 90.81,113.61 90.81,112.45 91.72,113.49 91.59,114.64 91.2,116.06 91.59,117.22 92.23,116.83 93.91,115.16 94.42,114.77 94.94,114.77 95.06,114.9 94.68,115.55 95.71,115.42 98.28,114 99.19,114 98.8,114.52 97.9,115.42 97.51,115.55 96.35,115.93 96.22,116.06 96.09,116.45 95.45,116.83 95.32,117.35 95.19,119.02 95.19,119.41 95.58,119.54 95.71,119.67 96.1,119.8 95.97,120.18 95.84,120.57 95.84,120.7 96.22,121.22 96.61,121.34 97.13,121.34 98.8,120.96 100.35,120.05 101.38,119.93 101.25,120.44 101.12,120.44 101.12,120.31 101.25,121.34 101.12,121.99 100.6,122.5 99.96,123.02 99.32,123.66 98.8,124.56 98.28,125.21 97.25,125.72 97.77,126.62 97.77,127.14 97.9,127.66 97.77,129.2 97.9,129.59 98.29,130.1 98.41,130.23 98.8,130.23 99.19,130.36 99.57,130.75 99.44,131.26 99.32,131.78 99.19,132.16 99.57,132.68 99.96,133.07 100.86,133.58 101.89,135.13 103.05,135 105.11,134.48 106.27,134.35 105.11,134.74 104.73,135.13 104.34,135.77 104.21,136.16 103.05,136.8 102.67,136.93 102.79,137.96 103.82,138.99 110.01,141.7 111.04,142.34 111.68,143.37 112.2,144.27 112.84,145.3 114,145.95 115.68,146.08 117.35,145.56 120.44,143.89 123.4,143.24 124.31,142.86 125.21,142.47 126.11,142.6 127.01,143.11 127.53,143.5 127.91,144.4 128.04,145.56 128.56,146.46 129.46,146.85 129.97,146.98 130.36,147.36 130.49,147.75 130.87,147.88 131.39,147.75 134.48,145.82 135.51,145.3 136.54,145.17 137.57,145.3 140.28,146.72 141.95,146.85 143.63,146.33 145.3,145.69 147.36,145.17 149.29,145.05 150.32,144.92 151.87,144.01 152.9,143.89 154.58,144.01 156.51,143.5 157.41,143.37 157.92,143.89 158.44,144.27 159.47,144.27 161.53,144.14 162.43,144.27 164.11,144.92 165.27,144.53 166.43,144.53 167.07,144.4 166.69,143.76 166.69,143.37 167.33,143.76 167.84,144.92 168.49,145.3 169.13,144.92 169.65,144.27 170.29,142.6 170.42,143.11 170.29,145.05 171.19,144.53 171.71,144.53 172.1,144.53 172.48,144.92 172.87,144.92 173,144.92 173.13,144.53 173.51,144.01 174.16,143.5 174.8,143.37 175.19,143.24 175.57,142.34 176.22,142.21 177.89,142.08 178.28,141.95 179.44,141.31 179.95,141.31 180.6,141.18 181.11,141.05 181.24,140.92 181.89,139.89 182.01,139.76 182.53,139.76 182.92,139.76 183.3,139.89 183.82,139.51 184.85,139.51 185.75,139.63 185.75,140.02 185.62,140.41 185.49,141.31 185.36,141.44 184.98,141.57 184.08,141.95 183.69,142.08 183.82,142.6 184.46,142.6 185.36,142.21 185.88,142.08 185.88,142.47 185.23,142.98 184.59,143.5 183.95,143.89 183.04,143.5 182.66,144.01 182.14,144.66 181.5,145.05 179.95,145.56 179.44,146.08 179.05,146.59 179.18,146.72 179.7,146.85 180.34,147.88 180.98,148.27 181.63,147.88 182.53,147.36 183.69,146.33 184.08,146.33 184.98,146.98 185.49,146.08 185.88,143.89 186.27,144.79 186.39,145.82 186.27,146.98 185.88,147.88 185.23,148.52 184.33,149.04 182.27,149.55 182.27,149.94 183.43,149.94 185.36,149.42 186.52,149.42 185.62,150.07 183.43,150.97 183.56,151.61 184.59,152 185.75,152.13 188.2,152 187.55,152.9 186.14,153.03 183.04,152.64 182.14,153.03 182.66,154.06 183.56,155.09 184.08,155.99 183.69,155.99 183.3,155.48 182.14,154.45 181.76,154.06 181.37,153.68 180.34,153.68 178.28,154.06 177.63,154.06 176.99,154.19 176.6,154.58 177.12,155.22 177.76,155.74 179.18,155.61 180.08,155.99 179.7,156.51 179.31,156.9 179.31,157.41 179.44,157.93 180.08,158.57 180.08,158.7 180.21,159.22 179.82,161.79 179.82,162.82 179.69,163.47 179.57,163.6 179.05,163.08 178.41,161.15 177.5,159.73 176.86,158.06 176.22,157.54 175.32,157.41 175.19,157.8 175.19,160.37 175.06,161.28 174.54,162.95 174.41,163.85 174.41,164.75 174.54,165.4 174.41,165.91 174.03,166.43 173.38,164.37 173.51,163.98 173.64,163.47 173.64,160.76 173.64,160.25 173.25,159.73 172.09,158.83 171.97,158.7 171.58,158.7 171.45,158.83 171.06,158.7 170.68,158.31 170.16,158.96 169.65,159.09 168.75,159.47 168.62,159.6 168.1,159.47 167.72,159.6 167.72,159.73 167.72,160.37 167.59,160.5 166.68,160.63 166.56,159.73 166.43,158.83 165.91,158.18 165.78,157.67 165.4,157.28 164.88,157.41 164.75,157.93 164.75,158.44 164.88,159.09 165.01,159.6 164.88,161.66 164.49,162.56 163.85,162.69 164.24,161.66 164.37,160.63 163.98,158.57 164.11,156.9 163.98,156.38 163.59,156.38 163.21,156.77 162.05,159.47 161.66,160.5 161.53,161.53 161.92,163.59 161.79,164.24 160.76,164.24 161.15,163.21 161.15,159.47 161.28,158.31 161.15,157.8 160.76,157.15 160.24,156.77 159.6,156.38 158.96,156.38 158.44,156.77 158.31,156.25 158.18,154.71 158.05,154.06 155.61,153.03 154.71,153.03 153.55,153.42 152.9,153.55 152.52,153.42 152.13,153.29 151.74,153.29 151.36,153.42 150.97,153.55 150.58,153.68 150.45,153.68 150.07,153.68 148.91,154.06 145.43,155.74 144.79,156.38 144.4,157.28 141.82,159.99 140.79,162.05 139.76,162.95 137.57,166.04 136.93,166.94 134.35,168.88 133.71,169.26 133.32,169.78 132.68,170.29 132.16,170.42 131.65,170.42 130.1,169.91 127.53,167.2 125.98,166.17 125.08,166.17 124.05,166.04 123.4,166.04 123.02,165.53 122.5,165.4 121.47,165.53 120.83,165.91 121.21,166.56 121.21,166.43 120.57,166.43 119.54,166.94 118.9,166.94 119.41,166.43 119.28,165.91 119.15,165.53 119.28,164.88 118.64,164.88 118.51,164.88 118.9,164.88 117.35,165.01 116.71,164.88 115.03,164.24 114.39,164.11 109.62,164.11 109.23,164.11 108.72,164.5 107.82,164.5 105.88,165.01 105.5,165.4 105.5,166.04 107.56,165.91 108.59,166.3 107.43,166.69 106.4,167.07 104.47,166.94 104.08,167.07 104.21,167.59 104.08,167.98 103.69,167.85 103.31,167.33 102.92,167.98 102.41,168.1 101.5,167.98 100.86,167.97 99.19,168.88 98.67,169.26 99.06,169.65 101.12,169.52 102.02,169.65 102.54,170.04 102.15,170.68 101.51,171.19 100.86,171.58 100.22,171.71 100.22,172.1 100.86,172.23 101.76,172.22 101.38,173.38 101.25,173.51 100.73,174.03 100.35,174.41 99.96,174.54 99.57,174.93 99.44,175.57 99.83,175.57 100.47,174.93 102.15,175.45 103.05,174.93 103.69,176.48 103.82,176.86 104.85,176.86 105.37,176.73 105.24,175.83 105.63,175.96 106.01,176.09 105.63,176.09 106.01,175.7 106.53,176.22 107.43,176.22 108.07,175.7 108.2,174.8 108.59,175.19 109.11,175.32 109.62,175.7 110.14,175.7 111.68,175.7 112.07,175.7 114.26,176.22 114.9,176.73 114.77,177.63 115.93,178.02 120.7,180.6 121.09,180.98 121.21,181.5 121.6,181.89 122.12,181.89 122.5,182.01 123.4,182.92 123.79,183.04 124.31,183.43 124.43,183.95 124.56,184.46 124.95,184.59 125.08,184.98 125.47,186.14 125.85,186.52 126.24,186.52 127.27,187.17 127.65,187.3 127.65,187.94 127.14,188.46 126.5,188.84 126.5,189.23 127.53,190.26 127.91,190.65 128.56,192.06 128.94,192.58 129.59,193.09 130.49,193.61 131.52,193.61 132.42,193.22 132.55,192.83 132.16,191.8 132.16,191.29 132.29,190.9 132.68,190.77 134.1,190.39 135,190.52 135.9,190.9 136.28,191.93 135.9,194.64 135.9,195.67 136.28,197.73 136.8,198.76 137.44,199.27 138.48,199.28 138.86,199.4 139.51,200.95 139.89,201.47 140.02,201.85 140.41,201.98 140.92,202.37 141.05,202.88 140.92,203.27 140.28,203.66 139.63,204.3 139.51,204.69 139.38,205.33 139.38,205.72 139.51,206.23 139.51,206.62 138.99,207.01 137.44,207.14 135.38,206.49 133.71,206.36 132.55,207.26 132.55,208.81 135,213.58 135,214.09 135,215.51 135.13,215.89 135.64,216.54 136.67,219.12 136.67,219.5 136.67,220.02 135.77,219.37 135.38,219.24 135.25,219.63 135.38,220.28 135.77,220.66 136.29,221.05 136.67,221.43 137.06,221.95 137.45,222.85 137.83,223.37 138.35,223.75 139.25,224.27 139.76,224.66 139.89,225.17 139.89,226.07 140.28,226.72 140.41,226.85 140.54,226.97 140.92,226.97 143.11,227.87 144.01,228 144.92,227.61 146.08,226.07 146.72,225.55 147.88,225.55 151.61,226.2 153.68,226.33 155.35,225.81 156.25,225.17 161.4,219.5 162.05,218.34 162.43,217.95 162.82,217.57 163.85,217.18 164.37,216.79 164.37,216.15 163.72,215.25 162.31,214.09 161.79,212.16 162.31,210.61 166.56,206.1 167.2,205.97 168.1,205.59 169,205.07 169.65,204.43 170.03,203.78 170.42,202.88 170.29,201.85 169.91,200.82 169.39,200.18 168.49,199.53 166.81,199.02 165.91,198.5 165.91,198.11 166.94,198.24 167.07,197.86 167.07,196.7 166.94,195.8 166.94,195.41 167.46,195.54 167.59,195.67 168.23,197.34 168.36,197.73 168.75,197.73 171.19,197.21 171.84,197.09 173.38,194.64 173,187.04 173.51,184.08 174.54,182.66 175.96,181.5 176.47,180.98 179.44,179.44 179.82,179.05 180.21,177.89 180.73,176.86 180.85,176.73 180.34,175.83 180.73,175.44 181.37,175.45 182.01,175.32 182.4,175.7 182.79,176.09 182.92,176.6 183.04,177.12 182.92,177.76 182.27,179.18 182.14,179.83 182.27,180.47 182.66,181.11 183.05,181.5 183.43,181.89 183.82,182.02 184.33,182.14 184.72,182.27 184.85,182.66 184.85,183.05 184.98,183.43 185.11,183.56 185.24,183.69 184.59,184.21 183.95,183.56 183.3,182.66 182.4,182.15 181.76,182.53 180.73,183.69 179.83,184.08 178.92,184.46 178.41,186.4 177.76,187.04 176.86,186.65 176.22,186.65 176.09,187.17 176.09,188.71 175.96,189.1 175.83,189.49 174.93,188.84 174.54,189.49 174.54,192.58 175.44,195.8 175.44,196.96 175.32,197.99 174.41,198.37 173.38,198.76 172.87,199.41 172.87,200.44 173,201.34 174.93,204.04 175.32,205.07 175.83,205.97 175.83,206.49 175.7,206.88 175.32,207.78 175.45,208.81 176.09,208.81 176.73,208.42 177.38,208.03 178.02,208.16 178.54,208.55 179.18,209.07 179.57,209.58 180.08,210.74 180.21,211.13 180.86,211 180.73,210.61 180.6,210.1 180.21,208.94 179.7,208.03 179.31,207 179.44,205.97 179.57,205.59 179.95,205.46 180.47,205.07 180.85,205.07 181.24,205.07 181.24,205.46 181.24,206.36 181.37,207.39 181.76,207.91 183.82,210.1 184.46,211.26 186.52,215.89 187.04,216.54 187.68,216.67 188.2,216.28 189.23,214.35 189.87,213.83 190.77,213.96 191.42,214.6 192.32,215.12 192.96,214.73 193.48,214.22 193.61,214.09 193.74,213.19 193.61,212.67 193.61,212.29 193.48,211.9 193.87,211.51 194.77,212.03 195.28,212.67 195.8,213.32 196.7,214.86 196.7,215.38 196.57,215.76 194.64,217.18 194.12,217.82 194.51,218.34 194.9,218.21 195.41,217.82 195.93,217.7 196.06,218.08 196.06,218.21 196.18,219.11 196.31,219.5 196.7,220.14 197.6,220.66 198.63,221.05 199.53,221.17 200.43,221.56 200.95,222.08 201.34,222.72 201.72,223.11 201.85,223.11 201.98,223.49 202.37,223.62 202.75,223.62 203.4,222.59 203.27,221.95 202.88,221.43 202.37,220.92 201.85,220.53 201.85,220.4 203.78,220.27 204.3,219.63 203.91,218.47 203.01,217.05 204.94,218.47 205.59,218.6 206.75,218.6 207.26,218.73 207.65,219.11 208.04,219.63 208.94,220.27 209.45,221.17 208.94,221.82 209.84,222.33 210.87,223.49 211.51,224.01 211.9,223.62 214.35,223.11 214.99,222.72 215.38,222.2 215.51,221.3 215.64,220.66 216.28,220.27 217.44,219.63 217.57,219.24 217.7,218.85 218.08,218.47 218.47,218.85 218.85,218.85 222.33,218.98 225.55,219.5 227.49,219.5 227.87,219.5 228,219.37 228.39,219.24 228.77,219.24 228.9,219.37 228.9,219.76 228.9,219.89 229.03,220.01 228.9,220.01 229.03,220.14 229.42,220.53 229.93,220.53 230.32,220.4 230.71,220.01 231.09,220.01 231.22,220.53 231.09,220.66 230.19,221.17 229.8,221.17 229.68,221.56 229.29,221.69 228.77,221.69 228.39,221.69 227.23,220.79 226.58,220.66 222.98,220.53 221.04,220.02 220.4,220.01 219.5,220.14 218.85,220.27 218.47,220.92 218.08,223.36 218.21,223.88 218.34,224.01 218.85,224.52 218.98,224.91 218.6,225.94 217.05,226.97 216.92,227.87 217.31,228.52 218.34,228.64 219.37,228.64 220.27,228.77 220.27,229.16 220.66,230.83 220.66,231.22 224.27,231.22 224.65,229.42 225.94,227.49 227.74,226.97 229.55,226.2 229.55,225.3 228.77,224.78 230.19,224.26 231.61,224.27 233.41,223.24 234.7,221.95 235.21,220.53 235.86,221.56 237.02,220.92 239.08,221.43 238.69,218.6 238.18,215.64 237.79,213.19 236.5,211.77 234.96,211 233.02,210.61 232.25,209.84 230.19,209.07 228,207.78 226.97,205.97 226.71,204.43 226.2,201.34 225.68,198.37 225.17,195.41 224.14,192.84 224.01,190.77 222.72,188.07 221.43,186.52 220.66,184.2 219.37,181.24 217.95,180.21 217.18,178.15 215.51,176.73 214.86,173 214.09,169.26 216.02,168.23 217.7,168.23 "/>
  </g>
 </g>
</svg>
