<?xml version="1.0" encoding="UTF-8"?>
<!DOCTYPE svg PUBLIC "-//W3C//DTD SVG 1.1//EN" "http://www.w3.org/Graphics/SVG/1.1/DTD/svg11.dtd">
<!-- Creator: CorelDRAW 2018 (64-Bit) -->
<svg xmlns="http://www.w3.org/2000/svg" xml:space="preserve" width="5.99715in" height="7.90119in" version="1.1" style="shape-rendering:geometricPrecision; text-rendering:geometricPrecision; image-rendering:optimizeQuality; fill-rule:evenodd; clip-rule:evenodd"
viewBox="0 0 420.66 554.21"
 xmlns:xlink="http://www.w3.org/1999/xlink">
 <defs>
  <style type="text/css">
   <![CDATA[
    .str0 {stroke:gray;stroke-width:0.83;stroke-linecap:round;stroke-miterlimit:2.61313}
    .fil0 {fill:#5C67AE}
   ]]>
  </style>
 </defs>
 <g id="Layer_x0020_1">
  <metadata id="CorelCorpID_0Corel-Layer"/>
  <g id="PA">
   <polygon id="path242" class="fil0 str0" points="295.86,423.44 295.36,422.95 294.54,422.45 292.56,422.45 291.74,422.29 290.91,421.79 289.6,420.64 289.76,420.81 289.6,420.64 289.43,420.48 289.6,420.64 288.77,419.98 288.28,420.64 288.28,421.47 288.44,422.62 289.6,423.94 290.09,424.43 290.75,424.59 291.41,425.09 292.07,427.23 292.73,427.72 293.39,427.89 293.88,428.05 294.54,428.22 295.69,428.05 297.01,427.23 297.67,426.74 297.83,426.08 297.67,425.25 296.35,424.1 "/>
   <polygon id="path870" class="fil0 str0" points="306.23,466.27 305.41,465.78 304.59,465.12 303.93,464.29 301.29,460.34 301.13,459.52 298.99,456.88 293.88,456.22 288.61,456.39 284.82,457.05 283.34,457.71 275.92,458.53 267.52,461.33 258.79,467.26 255.5,470.06 254.18,471.54 253.03,473.68 252.37,475 252.2,476.15 252.04,477.31 249.24,479.45 248.08,481.43 244.13,489.83 243.64,490.32 243.14,490.98 242.48,494.27 241.99,494.77 240.18,496.09 239.68,496.75 239.52,497.57 238.2,500.04 233.42,513.88 233.42,515.85 235.56,515.86 240.18,514.04 242.65,513.38 245.28,513.22 255.66,513.38 263.73,513.38 266.2,513.88 270.16,515.36 272.63,515.36 274.77,514.87 276.91,514.04 278.72,513.22 280.21,511.9 282.18,509.76 282.84,509.27 283.67,508.77 287.45,506.14 288.61,504.98 289.92,502.35 290.75,501.19 291.9,500.54 293.05,500.37 295.69,500.37 297.01,499.88 298.16,499.05 299.64,497.08 300.8,496.42 301.95,495.92 304.59,495.92 303.93,494.11 303.76,492.13 303.6,488.02 304.09,486.04 305.25,484.89 308.37,483.4 309.03,482.91 309.2,482.25 309.69,476.98 309.86,476.15 311.34,473.35 312.16,471.21 312.66,470.06 313.32,469.24 314.47,468.08 312.99,467.26 308.87,466.77 "/>
   <polygon id="path874" class="fil0 str0" points="304.09,510.91 301.62,508.77 300.8,507.62 300.63,506.14 300.63,504.32 300.47,502.51 299.64,501.03 297.83,501.03 294.54,501.85 292.4,502.02 291.74,502.51 291.24,503.34 291.08,504.49 290.58,505.64 289.76,506.47 285.31,509.27 284.65,510.09 284.49,511.41 285.15,512.56 286.47,512.72 289.1,512.73 290.42,512.89 293.05,514.04 304.09,514.7 304.92,514.04 304.92,512.89 304.42,511.57 "/>
   <polygon id="path890" class="fil0 str0" points="85.33,100.57 84.18,101.07 83.35,103.54 82.2,103.87 81.38,103.37 81.54,102.71 82.7,101.4 82.7,100.74 82.86,99.91 82.86,99.42 82.86,98.92 82.37,98.1 82.2,97.44 81.71,96.95 81.05,96.45 78.41,95.79 77.59,95.79 76.93,96.29 76.11,96.95 75.94,97.11 75.78,97.28 75.28,97.94 75.28,99.09 75.28,99.25 74.13,100.74 74.95,102.05 76.11,103.21 77.26,105.35 77.92,106.01 78.58,106.5 79.4,106.67 81.21,106.67 82.37,106.67 83.03,106.5 85,103.87 85,102.22 85.17,101.4 "/>
   <polygon id="path894" class="fil0 str0" points="101.31,126.27 98.84,126.93 98.18,126.76 96.86,126.27 93.73,126.43 92.42,126.27 91.26,126.11 90.77,126.93 90.6,128.08 91.1,128.58 95.71,129.07 100.82,128.91 102.79,128.25 104.11,126.93 102.96,126.93 102.3,126.93 101.8,126.76 "/>
   <polygon id="path898" class="fil0 str0" points="188.95,142.41 188.12,142.25 187.3,141.75 185.16,141.75 184.33,141.59 182.19,140.77 181.37,140.6 176.59,141.1 167.37,139.94 163.58,140.44 162.42,140.44 160.45,139.61 159.13,138.95 158.47,138.29 157.81,138.13 156.49,138.13 155.84,138.13 155.34,137.97 154.68,136.81 154.52,136.65 152.38,136.15 147.11,136.15 144.96,135.49 143.48,135.99 139.36,134.84 135.9,135.66 133.76,135.5 129.81,134.67 118.44,134.01 112.51,132.69 111.85,132.53 111.36,133.02 110.86,133.02 110.04,133.52 109.38,134.01 109.55,134.18 110.21,134.34 110.37,134.84 110.37,135.17 110.54,135.66 110.7,135.66 111.52,135.49 112.02,135.66 112.51,136.32 112.51,136.81 112.68,137.31 113.5,137.8 114.98,137.97 116.47,137.8 117.95,137.97 119.27,138.79 119.92,138.95 120.75,138.79 121.41,138.3 122.07,138.13 122.73,138.3 123.38,138.95 124.04,139.12 124.87,138.95 125.53,138.79 126.02,138.95 126.84,139.78 127.34,139.94 129.32,140.11 131.13,140.93 131.95,141.43 134.42,141.43 135.57,141.59 136.07,142.25 136.56,142.41 139.2,143.57 140.68,144.39 141.34,144.88 142.16,145.05 143.48,145.05 143.98,145.21 144.8,145.87 145.29,146.04 145.79,146.2 147.11,146.04 147.6,146.04 152.05,146.86 153.86,148.01 154.68,149.5 155.34,149 155.84,149 156.33,149.17 156.82,149.83 156.99,149.83 157.48,149.17 157.65,148.51 158.14,148.34 158.64,147.85 158.64,148.01 159.29,148.01 159.79,147.85 159.95,147.85 160.61,147.19 160.78,147.19 161.93,147.35 164.07,148.01 164.9,148.18 166.71,148.84 167.37,148.84 168.03,148.84 169.18,148.67 169.84,148.67 170.33,148.67 171.48,149.33 172.14,149.33 172.64,149.17 172.64,148.67 172.47,148.01 171.98,147.85 171.98,147.35 173.13,147.35 178.24,148.01 178.9,147.85 179.56,147.68 180.05,147.19 180.55,147.03 181.86,146.53 182.36,146.37 182.85,145.87 183.02,145.38 183.18,145.21 184.99,145.21 186.97,144.72 191.09,144.72 191.75,144.56 192.24,143.9 192.74,143.73 192.74,143.57 "/>
   <polygon id="path902" class="fil0 str0" points="162.59,104.85 159.29,104.36 158.64,103.7 158.14,102.55 156.82,102.05 155.34,102.05 154.02,102.22 153.86,102.38 153.2,102.88 152.54,103.04 152.05,102.22 151.22,101.07 150.73,99.58 149.9,98.92 148.75,98.1 147.93,97.44 147.76,96.78 147.76,96.12 147.6,95.3 146.78,94.81 146.28,94.31 146.12,93.65 145.46,92.17 144.14,91.02 139.69,87.89 135.74,83.77 134.26,82.62 133.1,82.12 131.95,82.62 130.8,83.27 129.97,84.1 129.48,84.76 128.98,85.25 127.83,84.59 126.02,83.28 125.36,83.44 124.7,83.93 124.21,84.1 124.04,83.44 123.88,82.95 123.38,81.79 123.22,81.63 122.72,81.46 118.94,82.12 118.44,80.97 117.78,80.48 116.63,80.97 115.97,80.97 113.17,80.8 111.36,80.31 111.19,80.15 110.54,79.98 110.04,79.82 109.88,79.82 109.22,79.98 109.05,79.98 108.39,79.49 107.57,78.66 107.08,78.5 105.92,78.99 105.92,79.82 107.24,83.77 108.72,85.91 110.86,87.72 112.68,88.38 112.02,87.06 112.02,86.4 112.18,85.75 120.91,92.83 122.06,92.99 123.38,91.84 124.21,90.52 125.36,89.37 126.68,89.21 127.99,90.36 128.82,92.17 129.97,97.61 130.63,99.58 130.63,100.24 130.79,100.41 131.62,101.56 131.62,102.22 131.46,105.51 131.62,106.83 132.28,107.98 133.43,109.14 134.59,109.96 135.9,110.13 137.22,109.96 139.36,109.3 140.68,109.14 143.15,109.63 146.61,111.77 149.08,112.27 150.23,112.1 151.39,111.94 152.54,111.44 153.36,110.95 154.19,110.45 157.65,109.96 160.28,107.98 160.78,107.49 161.93,107.33 162.59,106.5 162.75,105.68 "/>
   <polygon id="path978" class="fil0 str0" points="46.62,0.91 46.13,1.73 46.29,2.23 47.11,2.39 48.27,1.9 48.76,1.24 48.6,0.42 47.77,0.42 "/>
   <polygon id="path1026" class="fil0 str0" points="6.43,181.45 5.93,181.29 5.27,180.8 4.61,180.3 4.12,180.3 4.12,180.8 3.3,180.3 1.48,179.48 0.66,179.64 1.15,180.47 1.65,181.29 2.14,182.11 2.64,182.77 4.61,183.6 4.78,183.76 4.94,183.92 6.1,183.92 7.25,182.61 7.25,181.45 "/>
   <polygon class="fil0 str0" points="67.05,201.22 66.72,202.54 68.36,209.29 69.85,210.78 72.32,210.28 75.45,206.82 76.77,206 77.42,208.14 76.93,211.6 76.44,212.42 76.27,212.59 76.11,212.75 75.61,212.92 75.45,213.58 75.45,214.07 75.45,216.05 74.95,218.19 74.95,218.85 76.93,219.51 77.42,220.33 77.92,222.8 77.92,222.97 78.08,223.13 78.08,223.3 78.25,224.12 78.08,224.12 78.58,224.78 78.74,224.94 79.57,225.77 80.39,225.93 81.21,225.44 83.03,224.12 83.03,224.78 82.53,225.93 82.53,226.59 82.7,226.75 83.52,227.58 84.18,229.39 85,229.56 87.47,229.56 88.79,229.72 90.27,230.87 91.1,231.04 100.32,231.53 101.47,231.7 102.96,232.36 103.78,232.52 105.1,232.36 107.24,231.53 111.19,231.04 112.02,230.87 112.84,230.21 113.99,229.55 116.13,227.08 116.63,226.42 116.79,225.77 116.79,225.11 116.63,224.61 116.79,224.12 118.28,222.14 120.42,220.66 124.87,218.85 126.68,217.69 127.5,216.54 127.34,216.05 126.68,215.55 126.51,214.73 126.51,214.24 126.68,213.74 127.17,213.58 127.67,213.41 127.67,213.25 127.83,213.25 128,213.08 129.48,213.58 130.3,212.92 131.79,211.43 134.26,210.78 135.57,209.95 136.4,208.8 137.06,207.48 136.89,206.66 136.4,204.68 136.4,204.02 137.72,202.54 138.37,201.72 138.54,200.89 138.54,198.26 138.7,198.09 140.02,196.94 140.19,196.44 141.01,196.61 141.67,194.47 142.33,193.81 142.82,193.81 143.48,193.64 143.98,193.48 144.14,192.99 144.3,192.49 144.96,192.33 146.28,191.83 151.39,189.86 153.53,188.04 155.34,186.07 155.84,184.91 156.33,183.76 156.5,179.81 156.99,178.98 157.48,178.32 159.3,176.18 159.95,175.36 160.12,174.54 159.95,173.88 159.79,172.72 159.79,170.91 159.79,170.75 160.28,170.09 160.94,168.94 162.1,167.78 163.41,166.96 164.9,166.46 167.7,166.46 168.36,166.3 169.84,165.48 170.5,165.48 170.66,165.97 170.5,166.79 170.5,167.45 170.99,167.62 172.47,167.78 173.96,167.95 174.12,168.61 174.29,168.77 174.78,168.61 175.6,168.44 175.77,168.44 176.59,168.44 178.57,169.1 179.89,167.95 180.55,167.95 181.7,168.61 182.36,168.77 182.85,168.61 183.35,168.11 183.84,167.62 184.01,167.45 185.82,167.29 186.31,167.12 189.11,165.15 192.41,164.49 193.07,164.32 193.56,163.83 193.56,163.17 194.05,162.51 195.54,161.85 198.01,161.19 205.25,161.03 206.74,160.53 207.56,160.04 209.37,158.72 209.87,158.06 209.37,156.74 208.06,155.59 207.4,154.77 207.56,154.6 208.22,154.11 208.38,153.45 208.38,152.63 207.89,151.8 207.4,151.64 205.91,150.98 205.25,150.81 202.12,148.67 202.78,147.85 202.95,146.7 202.95,145.05 203.44,144.39 204.6,143.73 215.96,139.28 222.55,135.49 223.7,134.84 224.2,134.67 224.36,134.18 225.02,133.35 225.52,133.19 226.34,133.19 241,126.76 243.47,125.94 246.11,125.94 248.25,126.76 248.74,126.93 250.06,128.41 250.55,128.58 251.71,129.73 252.2,129.89 252.86,130.06 253.36,130.22 255.99,132.86 256.81,133.52 259.45,133.68 265.55,135.66 272.63,138.95 282.35,141.75 286.3,142.25 287.62,142.91 290.09,143.4 294.04,146.53 297.83,150.98 300.3,152.46 301.46,152.96 304.92,152.96 306.23,153.12 314.96,155.92 324.85,162.02 330.61,163.99 333.74,165.8 334.57,165.97 335.23,166.13 337.86,168.11 347.09,171.57 352.85,175.03 355.32,175.69 357.46,175.85 368.5,175.03 369.98,174.37 370.64,173.22 371.14,173.05 371.96,173.55 373.28,174.21 373.77,174.04 373.77,173.38 373.94,173.22 374.43,173.38 374.6,173.88 374.6,174.37 374.76,174.87 376.9,178 377.73,178.16 381.19,179.48 382.5,180.3 383.66,180.96 384.48,180.14 385.14,180.63 385.8,180.63 386.29,180.14 386.46,179.48 386.29,178.82 385.63,178.32 385.47,178.16 386.13,177.5 386.79,177.66 392.06,179.64 393.21,179.64 399.14,179.81 406.22,182.94 406.88,183.43 407.05,184.25 406.55,186.23 406.39,186.89 404.25,189.53 404.74,190.02 405.24,190.52 405.9,191.01 406.55,191.01 406.72,190.51 406.72,190.02 406.88,189.36 407.38,189.2 407.54,189.2 408.7,190.02 409.35,190.18 409.85,190.02 411.17,189.53 411.83,189.53 416.93,189.53 419.4,189.03 420.06,189.03 420.06,190.51 420.06,200.4 420.06,211.43 419.9,225.44 419.9,243.89 420.06,256.24 420.06,267.44 420.06,277.16 420.06,300.88 420.06,310.77 420.06,323.45 420.06,323.62 420.06,334.65 420.06,341.74 420.06,343.88 420.06,358.37 420.06,368.75 420.06,379.79 420.06,392.47 420.06,398.4 419.9,398.4 419.4,399.06 419.24,400.22 419.07,400.38 418.91,400.54 419.07,400.71 419.57,401.37 419.73,401.53 419.57,402.19 419.07,402.36 418.91,402.85 418.91,403.67 418.25,403.67 417.76,403.67 417.1,403.67 416.6,403.84 417.26,404 417.43,404.17 417.59,404.66 417.59,405.32 418.41,405.32 418.58,406.15 418.58,407.3 418.08,407.79 417.26,407.96 416.77,408.12 416.77,408.78 416.6,410.26 416.6,410.43 416.11,410.59 415.61,410.59 415.12,410.76 415.28,411.25 415.78,411.75 415.78,412.24 414.95,412.9 414.13,413.06 413.31,413.23 412.81,414.05 413.64,414.22 413.64,415.37 413.14,417.35 412.65,418.01 412.65,418.5 412.65,419.16 413.14,419.65 414.3,420.81 414.79,421.47 414.63,421.96 414.13,422.62 413.97,422.78 414.13,423.44 414.63,423.94 415.78,424.76 416.27,425.59 416.27,426.74 416.77,427.56 418.08,427.07 418.25,428.88 419.4,429.54 420.23,429.37 420.06,435.47 420.06,444.03 420.06,451.12 420.06,453.26 420.06,468.25 420.06,478.63 420.06,489.17 420.06,491.64 420.06,501.03 420.23,515.69 420.23,525.58 420.23,536.12 420.23,546.83 420.06,553.42 417.75,551.77 417.1,551.77 413.64,549.95 400.46,536.28 394.03,526.89 390.9,524.09 390.41,523.6 386.62,520.3 385.96,519.64 385.8,518.49 385.14,518.49 382.34,517.17 380.36,515.2 379.54,514.04 367.18,504.82 364.71,501.69 363.89,500.21 363.89,498.89 364.38,497.74 365.21,496.91 366.69,496.09 367.35,495.92 368.01,495.92 368.67,495.76 368.83,494.93 369,492.96 368.5,490.98 368.34,489.66 368.83,488.35 369.98,487.52 371.8,488.18 372.62,487.69 373.94,484.89 373.11,485.38 371.96,486.53 371.14,487.03 369.65,487.03 369,487.19 368.5,487.85 368.01,490.32 367.84,494.11 367.35,494.77 366.19,495.59 363.72,496.91 361.58,497.57 352.36,497.57 344.62,498.39 342.8,499.05 339.67,500.86 337.86,501.52 333.41,502.35 331.27,502.51 329.13,502.51 326.99,502.02 325.01,500.86 323.53,499.38 322.71,497.41 322.71,496.91 322.87,496.25 323.04,495.59 323.2,495.43 323.2,494.93 323.04,494.11 322.87,492.13 322.71,491.47 321.55,490.16 322.38,489.99 323.2,490.49 324.35,490.65 325.18,489.83 322.71,489 321.22,488.84 320.56,489.5 320.73,490.16 320.89,491.31 320.89,491.8 320.89,491.97 321.55,491.97 321.72,492.13 321.88,492.63 321.88,492.79 321.72,492.96 321.55,495.59 320.24,496.91 315.79,498.06 313.98,498.89 307.39,504.32 306.73,505.15 306.56,506.3 306.56,506.46 306.07,507.12 305.57,507.62 305.08,508.11 304.42,507.95 303.93,507.95 301.79,503.83 300.47,501.85 299.97,500.54 299.48,499.22 299.97,498.07 300.8,497.24 302.94,496.75 304.26,495.92 304.42,495.43 304.26,494.93 304.09,494.44 303.43,493.78 303.43,493.12 303.6,491.8 303.6,487.69 303.76,486.53 304.42,486.04 306.56,485.54 308.05,484.39 308.54,482.58 309.03,477.97 310.52,474.51 311.01,473.68 311.18,473.19 311.67,471.38 311.84,470.72 312.33,470.22 312.99,469.73 313.48,469.07 313.65,467.09 312.49,465.61 310.52,464.46 308.54,463.96 306.07,463.97 305.25,463.47 304.75,460.67 304.26,459.52 302.11,455.73 300.8,454.41 299.48,453.09 295.36,450.46 294.54,449.96 294.37,449.47 293.88,448.97 293.38,448.81 292.07,448.81 291.57,448.65 291.08,448.48 290.25,447.99 289.76,447.16 289.76,446.5 290.91,446.34 302.94,446.83 305.41,447 306.23,447.66 307.72,448.81 308.54,448.97 317.11,449.14 317.93,448.65 318.75,447.49 319.41,446.01 320.24,444.69 321.55,444.2 321.55,443.7 320.4,443.54 319.58,443.7 318.26,445.19 317.44,446.34 316.94,446.83 316.28,446.83 313.81,446.83 311.34,447.33 310.02,447.33 309.2,446.17 306.07,444.69 304.92,444.2 303.76,444.03 299.81,443.87 298.99,443.7 297.5,442.88 294.7,442.06 294.21,441.56 293.71,441.07 287.95,435.63 283.83,432.34 283.34,431.02 284.49,429.54 285.31,429.04 286.14,428.55 288.28,428.55 289.6,428.71 291.74,429.87 293.05,429.87 294.21,429.21 295.53,427.72 296.35,427.56 301.13,427.07 303.1,426.9 303.76,426.9 304.42,426.9 305.25,427.56 305.9,427.56 307.06,428.22 308.54,430.36 309.69,431.02 311.5,432.34 311.67,432.83 312.33,433 313.48,433.16 314.31,433.82 314.8,433.98 315.62,433.98 317.76,433.98 320.56,434.48 319.91,433.66 318.59,433.49 317.27,433.49 316.61,433.33 316.12,432.83 313.48,431.51 309.69,427.73 307.72,426.9 305.24,426.24 301.46,426.08 300.3,425.58 299.64,425.09 296.84,422.45 295.53,421.3 292.89,420.64 292.07,419.98 291.41,418.83 291.41,417.51 292.07,416.03 293.22,416.03 295.36,417.18 296.51,417.68 300.3,419.65 293.55,415.21 291.74,413.72 289.27,410.43 288.61,409.93 287.78,409.44 279.88,402.36 277.4,397.74 276.91,396.26 275.76,394.12 275.59,392.97 275.59,390.33 275.59,389.51 274.44,386.87 274.44,386.05 274.28,385.22 273.12,384.07 272.96,383.25 272.79,382.42 269.33,377.15 268.51,375.34 269.17,373.86 270.98,372.7 275.1,372.05 276.58,370.89 275.43,370.89 272.96,371.55 271.81,371.55 265.38,370.23 263.9,369.41 263.73,369.25 263.57,368.59 263.4,368.09 262.75,367.43 268.02,364.3 271.15,362.99 274.28,361.83 273.12,361.34 271.81,361.5 269.33,361.67 268.02,361.83 266.86,362 265.71,362.49 263.24,363.81 262.09,364.3 259.45,364.47 258.3,365.13 258.13,364.96 257.64,364.47 257.47,363.97 257.47,363.32 257.47,362.66 256.82,360.51 256.65,358.04 256.65,356.73 257.14,355.9 257.64,355.24 258.3,354.75 258.96,354.58 259.45,354.42 259.95,354.26 259.95,353.76 259.78,353.6 258.63,353.1 258.13,352.94 257.48,352.44 257.48,351.13 257.97,348.65 257.97,347.17 257.97,346.68 257.31,346.18 257.15,347.01 256.65,347.67 256.16,348.16 255.33,347.67 255.83,348.98 255.99,350.14 255.33,350.79 253.85,350.3 253.19,349.81 251.71,347.66 249.24,345.19 248.74,343.88 249.57,341.9 248.41,341.73 245.61,343.71 243.8,343.88 243.31,343.71 243.14,343.22 241.66,341.24 241.49,341.24 241.66,340.09 242.81,338.61 242.98,337.78 241,338.94 239.85,339.1 238.69,338.94 237.87,338.11 237.21,336.14 236.39,335.48 235.89,335.48 235.4,335.97 234.74,335.97 233.92,335.48 232.11,335.31 231.28,334.65 230.13,333.99 229.96,333.17 231.12,332.51 231.12,332.02 230.29,331.85 229.8,330.53 229.14,330.37 228.97,330.53 228.15,331.85 227.66,332.02 227,332.02 226.34,331.52 225.52,330.7 224.86,330.2 224.36,330.2 224.2,329.71 224.03,329.05 222.22,329.55 220.41,329.05 219.09,328.23 217.77,327.08 218.27,326.58 218.43,326.09 218.6,325.59 218.43,324.93 218.27,324.93 217.44,325.76 216.62,325.1 215.3,323.29 215.3,324.6 214.81,324.77 213.49,324.27 213,324.11 212.83,323.29 213.66,319.99 213.49,319.83 210.86,321.64 210.36,322.46 210.86,323.29 210.2,324.11 207.4,322.79 206.57,321.97 206.41,320.16 204.6,322.13 203.11,320.98 202.95,320.16 203.61,318.84 203.77,317.03 203.28,317.03 202.12,319 200.31,320.16 198.34,320.16 195.21,318.84 194.71,318.67 194.71,318.18 194.88,317.52 195.54,317.03 196.19,316.86 196.69,316.37 196.03,315.87 194.88,316.04 190.76,318.67 189.61,319.17 188.29,319.33 187.79,319.17 187.13,318.67 186.64,318.01 186.48,317.52 186.64,316.37 186.48,316.37 185.82,316.2 184.5,316.04 183.84,316.53 183.18,316.53 180.55,314.56 176.76,313.24 171.65,310.44 167.53,308.46 166.21,307.14 165.72,307.14 164.57,307.14 164.07,306.98 162.59,305.5 161.27,305.33 156.49,305.33 151.39,303.85 149.58,302.53 149.58,302.37 148.26,302.2 147.43,301.71 146.78,301.21 145.95,300.72 145.13,300.55 144.3,300.39 143.65,300.22 142.49,299.57 139.86,296.76 138.7,295.94 136.56,295.45 131.95,295.45 129.97,294.79 129.15,295.28 127.67,295.45 126.18,295.28 125.36,295.12 124.87,294.95 122.4,294.95 119.92,294.29 119.43,293.8 118.28,293.3 111.69,292.65 110.37,292.15 109.55,291.66 108.72,291.82 105.59,292.32 104.11,292.15 100.82,293.3 98.34,293.47 95.87,292.65 83.19,285.4 82.37,284.74 81.87,283.91 81.38,283.09 80.22,282.43 78.74,281.94 78.41,281.94 77.92,281.77 75.78,282.27 75.61,282.27 75.12,282.1 73.97,281.28 71.16,279.3 70.67,278.81 75.28,278.81 75.78,276.5 77.42,274.03 79.73,273.37 82.04,272.38 82.04,271.23 81.05,270.57 82.86,269.91 84.67,269.91 86.98,268.6 88.63,266.95 89.29,265.14 90.11,266.45 91.59,265.63 94.23,266.29 93.73,262.67 93.07,258.88 92.58,255.75 90.93,253.94 88.96,252.95 86.48,252.45 85.5,251.46 82.86,250.48 80.06,248.83 78.74,246.52 78.41,244.55 77.75,240.59 77.09,236.8 76.44,233.02 75.12,229.72 74.95,227.08 73.31,223.63 71.66,221.65 70.67,218.68 69.02,214.9 67.21,213.58 66.22,210.94 64.08,209.13 63.26,204.35 62.27,199.58 64.74,198.26 66.88,198.26 "/>
  </g>
 </g>
</svg>
