<?xml version="1.0" encoding="UTF-8"?>
<!DOCTYPE svg PUBLIC "-//W3C//DTD SVG 1.1//EN" "http://www.w3.org/Graphics/SVG/1.1/DTD/svg11.dtd">
<!-- Creator: CorelDRAW 2018 (64-Bit) -->
<svg xmlns="http://www.w3.org/2000/svg" xml:space="preserve" width="3.52041in" height="3.98305in" version="1.1" style="shape-rendering:geometricPrecision; text-rendering:geometricPrecision; image-rendering:optimizeQuality; fill-rule:evenodd; clip-rule:evenodd"
viewBox="0 0 196.31 222.1"
 xmlns:xlink="http://www.w3.org/1999/xlink">
 <defs>
  <style type="text/css">
   <![CDATA[
    .fil0 {fill:#5C67AE}
   ]]>
  </style>
 </defs>
 <g id="Layer_x0020_1">
  <metadata id="CorelCorpID_0Corel-Layer"/>
  <g id="ST">
   <polygon id="path138" class="fil0" points="39.55,12.18 39.42,12.7 39.29,13.62 39.29,14.27 39.68,14.67 40.07,14.67 40.47,14.27 40.86,14.14 40.99,13.75 40.99,13.1 40.86,12.44 40.47,11.92 "/>
   <polygon id="path142" class="fil0" points="51.6,12.44 51.2,12.05 50.68,12.05 50.16,12.18 49.76,12.31 50.81,12.44 52.38,13.49 53.04,13.49 52.38,12.83 51.99,12.44 "/>
   <polygon id="path146" class="fil0" points="189.36,145.36 188.84,144.97 188.32,145.49 187.92,146.41 188.05,147.46 189.5,146.8 189.63,146.67 189.63,146.28 189.23,145.75 "/>
   <polygon id="path150" class="fil0" points="185.7,145.76 185.7,145.76 185.7,145.1 185.3,145.1 185.3,146.54 185.44,147.2 185.57,147.85 185.96,147.85 185.96,147.2 185.57,145.49 185.57,145.62 "/>
   <polygon id="path154" class="fil0" points="195.52,150.21 195.13,149.68 194.73,149.81 194.08,150.86 193.95,151.52 194.47,151.65 195,151.65 195.39,151.65 195.78,152.3 196.18,152.43 196.31,151.91 196.18,151.39 195.78,150.47 "/>
   <polygon id="path666" class="fil0" points="105.42,78.18 103.98,78.31 102.93,78.97 102.02,79.1 100.84,78.05 100.31,79.23 99.92,79.62 98.48,80.15 97.96,80.67 97.56,81.06 96.12,83.03 95.73,83.94 95.73,84.6 96.25,84.99 96.91,84.86 97.82,84.47 98.35,84.08 99.4,81.85 99.92,81.72 100.44,81.85 102.41,82.24 102.93,82.37 103.46,82.9 104.11,83.03 104.77,82.9 104.77,82.5 104.24,81.46 104.77,81.85 105.94,82.9 106.08,83.03 106.73,82.9 107.25,82.5 107.65,81.98 107.78,81.32 107.39,80.8 106.99,79.75 106.86,79.36 "/>
   <polygon id="path670" class="fil0" points="113.28,75.04 112.62,75.04 112.1,75.04 111.05,74.51 110.53,74.38 108.83,74.25 108.7,74.38 108.7,75.17 108.7,75.3 108.3,75.3 107.91,75.3 107.65,75.17 107.52,75.04 106.6,75.04 106.34,75.04 106.21,75.56 106.08,76.22 105.95,76.61 105.95,77.13 106.34,77.79 107.39,78.44 108.96,78.57 110.4,78.57 111.31,78.05 112.36,78.44 113.28,78.31 113.93,77.79 114.46,76.87 114.46,75.96 114.33,75.43 113.93,75.04 "/>
   <polygon id="path674" class="fil0" points="92.98,68.36 94.03,69.28 95.07,69.15 95.99,68.23 96.38,66.79 95.73,65.74 94.16,65.74 92.72,66.79 "/>
   <polygon id="path678" class="fil0" points="128.47,72.03 127.95,71.37 127.29,70.98 126.64,70.45 124.93,69.93 124.41,69.8 124.28,69.41 124.15,69.41 122.97,68.88 122.45,68.75 122.31,69.15 122.45,69.67 123.1,70.32 123.76,70.98 123.89,71.11 124.28,71.11 124.93,70.72 125.06,70.72 126.24,71.63 127.81,74.65 128.73,75.69 129.12,75.3 128.73,74.78 128.34,73.73 128.21,72.81 "/>
   <polygon id="path682" class="fil0" points="121.66,71.37 121.53,70.85 121,70.72 120.48,70.59 119.96,70.59 120.48,69.54 119.96,69.15 119.04,69.8 118.39,70.72 118.52,71.24 119.17,71.37 120.74,72.29 121.27,72.16 121.66,72.16 121.79,72.55 122.18,72.68 122.58,72.55 122.58,72.16 122.45,72.03 121.92,71.5 "/>
   <polygon id="path686" class="fil0" points="162.52,138.95 162.39,138.82 161.86,138.42 161.21,138.29 160.82,138.68 160.68,139.21 160.68,139.73 160.03,141.43 159.9,142.48 159.77,144.71 159.9,145.1 160.42,145.1 160.95,144.71 161.34,144.31 161.47,143.66 161.86,143.14 162.52,142.61 163.04,142.22 163.57,141.56 163.44,140.52 163.04,139.47 "/>
   <polygon id="path690" class="fil0" points="178.89,116.55 178.23,116.42 177.19,115.37 176.79,115.24 176.14,115.64 176.01,116.16 175.61,116.55 174.96,116.03 174.96,115.64 174.83,115.11 174.7,114.72 174.44,114.72 174.04,114.85 173.65,114.85 172.73,114.85 172.21,114.98 171.82,115.64 171.29,116.81 170.77,117.86 170.38,117.99 169.85,118.12 169.72,118.25 168.54,120.35 167.89,121.4 166.84,122.31 166.71,121.66 166.71,120.22 166.58,119.7 166.45,119.3 165.92,118.91 165.53,118.39 165.4,117.86 165.4,116.81 165.53,116.16 165.92,116.03 166.45,115.9 166.84,115.77 167.23,115.24 167.63,114.85 165.66,111.84 165.27,111.71 165.14,111.31 164.74,111.18 164.22,111.58 163.96,111.84 163.83,112.36 163.7,112.89 163.17,113.02 162.65,112.89 162.26,112.49 161.86,112.1 161.47,111.97 159.9,111.97 157.8,112.36 157.28,112.49 156.36,113.41 155.84,113.54 155.18,113.54 153.61,112.89 152.7,112.75 152.04,113.15 149.29,117.21 148.64,118.91 148.11,120.87 147.98,122.84 148.38,124.8 150.99,131.09 152.04,131.22 153.09,130.7 156.36,127.68 157.28,126.64 158.2,125.2 158.72,123.76 159.11,123.1 159.64,122.71 160.03,122.31 161.08,120.22 161.6,119.83 162.26,119.69 162.91,119.3 163.3,118.12 163.44,118.25 163.83,118.38 163.96,118.78 164.09,119.17 163.96,120.61 165.01,126.5 164.61,127.94 162.52,129.39 161.99,129.52 161.6,129.65 161.47,130.04 161.6,130.56 161.73,131.09 162.13,131.22 163.7,131.61 164.09,132.14 164.22,132.53 164.61,132.66 166.32,131.48 166.84,131.35 166.97,131.87 167.1,132.92 167.49,133.05 167.89,132.66 167.89,131.61 167.76,127.55 168.28,125.59 169.2,123.89 169.59,123.75 169.98,123.62 170.51,123.49 171.03,123.49 171.42,123.62 171.42,124.15 171.42,124.67 171.55,125.06 172.47,125.2 172.86,126.11 172.99,127.68 173.91,127.16 175.09,128.08 176.01,127.68 176.4,127.29 177.05,127.16 177.58,127.03 179.28,125.46 180.46,124.28 180.59,123.88 180.59,123.36 180.59,121.92 180.72,121 181.25,119.43 181.38,118.39 181.25,117.73 180.72,117.21 180.07,116.81 "/>
   <polygon id="path694" class="fil0" points="194.86,147.33 194.47,146.8 194.08,146.28 191.59,143.79 190.94,144.84 190.94,145.89 191.59,148.51 191.72,149.03 192.38,149.42 193.42,149.55 193.82,149.55 194.21,149.16 194.6,149.03 195.26,149.42 194.86,149.03 "/>
   <g>
    <path id="path710" class="fil0" d="M164.48 219.62l-0.39 -0.65 -0.52 -0.52 -0.65 -0.39 -2.62 1.18 -0.52 0 -0.52 0.13 0 0.52 0.39 0.39 0.52 0.52 0.92 0.92 0.92 0.39 0.52 -0.52 0.39 -0.65 0.92 0.13 0.92 -0.13 0 -1.31 -0.26 0zm0 0l0 0 0 0z"/>
   </g>
   <polygon id="path930" class="fil0" points="118.12,77.4 117.47,77.79 117.08,77.66 116.68,77.26 116.03,77.26 115.9,77.66 115.9,78.18 115.77,78.57 115.11,78.05 114.72,76.09 114.72,75.04 114.85,73.47 115.37,72.29 116.03,72.16 116.42,74.38 116.55,74.78 117.73,75.43 118.12,75.83 118.26,76.48 118.26,77 "/>
   <polygon id="path934" class="fil0" points="172.86,134.89 173.39,135.02 173.52,135.54 173.52,136.06 173.39,136.59 172.99,136.98 172.08,137.38 171.69,137.77 170.64,139.47 169.98,139.99 168.94,139.99 168.54,139.08 168.94,138.16 171.16,135.67 172.34,134.76 172.47,134.76 "/>
   <polygon id="path1022" class="fil0" points="183.34,131.74 182.82,131.61 182.42,131.74 181.9,131.61 181.38,130.7 181.38,130.04 181.38,129.65 181.51,129.12 180.85,127.03 180.46,126.5 180.07,126.37 179.67,126.37 179.8,127.03 179.67,127.42 179.15,127.42 178.63,127.55 178.23,128.21 177.84,129.12 177.71,129.65 177.58,130.04 177.58,130.17 177.71,130.56 177.84,130.7 178.23,130.83 178.23,131.35 178.1,131.74 177.97,132.14 177.84,132.27 177.84,132.4 177.84,133.05 177.71,133.71 177.84,134.62 177.97,135.67 178.1,136.06 178.5,136.46 178.89,136.59 179.28,136.46 179.41,136.33 179.8,136.33 180.33,136.85 180.85,136.98 181.25,136.98 181.77,136.98 182.16,136.98 182.29,136.85 182.69,136.72 183.34,136.2 183.73,135.67 183.73,135.02 183.86,133.97 184,133.45 184,132.79 183.6,132.27 "/>
   <polygon id="path1198_2_" class="fil0" points="82.24,39.55 81.72,39.55 80.67,38.89 80.15,38.76 79.1,38.76 77.13,39.68 76.22,39.81 75.3,39.81 74.65,39.94 73.99,40.33 73.34,40.99 72.94,41.64 72.55,42.04 72.16,42.17 71.63,42.17 70.06,41.78 69.41,41.64 68.23,40.6 67.57,40.2 66.92,40.2 65.48,40.86 62.73,41.25 61.81,41.25 61.16,40.86 61.03,40.47 60.9,39.81 60.76,39.68 60.37,39.55 58.93,39.42 58.8,39.29 58.8,38.89 58.41,38.5 57.88,38.5 57.36,38.5 56.7,38.63 56.18,38.63 55.26,38.24 53.82,36.8 52.91,36.41 45.05,36.54 44.39,36.67 40.86,38.37 40.2,38.37 39.29,38.76 38.76,39.29 38.24,39.81 37.72,40.33 36.67,41.25 34.7,43.22 32.08,47.01 29.6,49.76 28.55,51.47 28.16,51.86 28.03,53.56 28.03,54.22 27.37,55.13 27.24,56.05 27.11,58.01 26.45,59.98 26.06,61.03 25.54,61.68 23.97,62.86 23.7,63.38 23.7,63.78 23.83,64.96 23.44,67.05 23.31,67.97 22.79,68.88 22.66,69.54 22.66,70.59 23.57,76.35 23.97,77.4 25.14,78.97 25.54,79.88 25.41,80.41 25.01,81.32 24.88,81.85 25.01,82.37 25.41,83.42 26.06,87.61 26.72,89.57 33.66,99.92 34.18,100.44 36.28,102.02 37.32,102.15 38.24,101.62 39.29,100.97 40.2,100.58 41.25,100.71 41.78,101.23 42.3,102.28 42.82,103.19 43.22,103.32 43.61,103.46 44.66,103.46 45.18,103.85 45.57,104.37 46.1,105.42 48.85,109.61 48.98,110.14 49.11,110.66 48.98,111.05 48.59,111.45 48.59,111.84 48.59,112.36 48.45,112.89 48.06,113.93 48.06,114.46 48.45,114.98 50.55,117.21 51.07,118.25 51.47,119.96 51.86,121 52.51,121.92 53.04,122.44 55.79,121.27 55.79,120.87 58.8,119.96 59.98,119.96 59.98,120.09 59.85,121.53 59.98,121.92 60.5,122.05 61.55,122.45 62.6,122.45 65.61,122.05 66.53,121.66 67.05,121.66 67.57,121.79 68.62,122.84 69.01,123.23 70.98,123.36 72.42,122.84 73.47,121.66 75.17,119.04 75.3,118.38 75.69,116.68 76.09,114.59 76.48,113.93 77,113.41 77.66,112.75 78.31,112.1 78.97,111.97 79.49,111.57 80.02,110.92 80.67,109.48 81.72,107.91 84.34,105.81 86.83,102.01 87.87,100.84 89.97,98.74 90.62,98.35 91.54,98.22 93.24,98.22 93.63,98.09 93.77,97.56 93.63,97.04 93.77,96.65 94.16,96.52 95.21,96.12 95.73,96.12 96.25,96.12 96.65,96.25 96.78,96.38 96.91,96.52 97.04,99.27 97.04,99.79 98.22,100.84 98.74,101.36 98.87,101.75 99.27,101.88 103.06,101.88 105.16,102.28 106.86,102.67 108.56,103.06 110.27,102.41 111.84,101.49 112.75,101.36 113.8,101.23 114.85,101.36 115.77,101.76 116.68,101.75 117.73,101.1 118.25,100.05 118.78,98.48 119.17,97.04 119.04,96.12 120.74,94.68 121.27,94.55 130.3,94.16 132.01,93.77 133.71,93.77 136.85,94.68 138.42,94.55 138.82,94.42 138.95,94.29 139.34,94.16 139.73,94.03 140.39,94.16 141.3,94.81 142.48,95.21 143.14,95.6 143.79,95.99 144.84,95.99 146.93,95.07 152.57,94.55 153.22,94.42 153.88,94.03 154.53,93.5 154.53,93.11 151.78,92.46 151.39,91.8 151.26,91.67 150.6,91.54 146.54,91.41 146.02,91.28 145.36,90.88 144.97,90.49 144.58,90.1 144.58,89.57 145.23,89.18 145.89,89.71 146.41,89.57 147.59,88.66 147.98,88.26 148.11,88.13 148.24,88 148.9,88.4 149.29,88.4 149.68,88.27 149.82,87.87 153.61,87.74 154.53,87.61 155.05,88 155.97,88 156.89,87.87 157.41,87.74 157.93,87.22 158.46,86.17 158.98,85.78 159.64,85.78 166.97,86.3 168.41,86.82 171.55,88.53 174.3,89.57 174.83,90.1 174.3,90.62 174.3,90.75 174.3,91.15 174.83,91.54 174.83,91.67 174.96,92.19 175.09,92.33 175.48,92.46 176.01,92.46 175.88,93.37 176.53,94.55 175.88,96.12 176.01,97.82 175.61,98.74 174.44,99.92 174.04,100.58 173.52,104.63 173.13,105.55 171.95,107.12 169.98,107.65 168.02,107.25 166.84,106.34 165.4,104.63 165,104.24 164.87,103.85 162.78,102.28 162.65,101.75 163.04,100.71 163.17,100.18 162.78,99.53 162.39,99.13 161.34,98.22 160.29,97.82 158.72,99.79 157.8,99.79 156.36,100.44 152.17,100.58 150.47,101.1 148.77,100.58 147.72,101.75 145.76,105.94 145.36,106.6 144.18,107.78 144.05,108.17 143.92,108.56 143.79,108.96 143.79,109.22 143.66,109.74 143.27,109.87 142.74,110 142.35,110.13 140.91,111.05 140.39,111.97 139.86,114.06 139.34,114.59 137.64,115.24 136.98,116.16 135.02,118.91 134.36,119.3 133.97,119.7 133.84,120.22 133.71,120.61 133.18,121.66 132.79,121.79 129.65,124.8 128.6,126.24 127.95,126.9 125.2,128.34 122.05,130.56 120.48,131.74 119.83,132.27 119.3,132.14 118.78,131.61 118.12,131.48 117.21,131.48 115.51,132.4 114.59,132.79 114.06,132.66 113.41,132.53 112.89,132.53 112.49,132.66 112.36,132.79 112.23,133.18 112.1,133.31 110.66,134.23 109.74,134.62 109.22,134.62 108.17,135.15 107.25,135.15 105.55,135.02 105.42,135.93 105.03,135.93 104.37,136.46 103.85,136.85 103.46,136.85 102.93,137.24 102.54,138.16 102.02,139.73 100.97,142.48 100.31,143.66 99.27,144.84 98.22,145.76 96.78,146.28 95.21,146.67 92.46,146.8 91.93,146.67 91.41,146.54 91.02,146.15 90.88,145.76 90.23,144.58 89.84,144.45 89.31,144.32 89.18,144.18 87.74,143.79 87.22,142.87 87.22,142.22 87.09,141.7 85.91,141.3 83.94,141.3 83.55,141.17 83.03,140.26 82.9,140.12 81.32,140.26 80.67,141.7 81.06,143.14 82.63,142.74 82.77,143.4 82.63,144.32 82.24,145.36 81.85,146.41 81.98,146.8 82.37,147.2 82.5,147.72 82.5,149.68 83.03,149.29 83.42,148.9 83.81,148.51 84.21,147.98 84.34,147.46 84.47,146.8 84.6,146.28 85.25,145.89 85.78,146.8 86.69,148.51 88.13,149.42 88.66,150.34 89.18,150.99 90.23,150.86 91.28,152.04 92.19,155.32 93.11,156.76 95.07,157.41 96.78,157.28 98.74,157.41 100.44,158.85 101.62,160.29 104.11,162.39 105.16,163.83 106.07,165.53 106.47,166.45 106.47,167.36 106.86,168.02 108.96,170.11 110.53,172.73 111.18,174.3 112.62,176.01 113.02,176.92 113.02,177.84 112.89,179.94 112.89,180.46 114.98,182.69 116.03,183.6 116.68,184 118.25,184.13 118.65,184.26 118.78,184.39 118.91,184.91 119.3,185.04 119.83,185.17 120.22,185.3 120.35,185.96 120.48,187.01 120.61,187.92 121.27,188.45 122.97,188.45 123.89,188.58 124.93,188.97 125.98,190.67 125.06,192.25 124.02,193.95 124.54,195.65 124.93,195.78 125.98,196.44 129.26,199.58 129.65,199.71 130.17,199.32 130.83,198.92 131.22,198.79 131.35,199.32 131.48,199.84 131.88,200.36 132.4,200.49 132.92,200.1 133.05,200.23 133.05,200.76 132.66,201.41 132.27,201.54 131.61,201.67 131.48,201.8 131.35,202.2 131.48,202.72 131.48,203.11 131.35,203.77 131.35,204.29 131.22,204.29 130.7,204.29 130.57,204.16 130.04,203.77 129.65,203.64 129.52,203.77 129.39,203.9 129.26,203.9 128.21,202.98 127.29,203.9 125.2,201.28 121.4,198.27 120.48,197.75 119.83,197.35 118.91,197.22 118.25,197.22 115.64,197.61 114.72,197.48 104.11,193.16 102.41,192.77 97.56,192.64 94.42,192.25 94.42,192.25 95.08,191.59 102.02,184.65 102.54,183.6 102.93,182.69 103.06,181.64 103.06,180.72 103.06,179.8 102.67,178.63 102.15,177.58 101.62,176.92 100.58,176.01 95.99,173.78 94.55,172.86 91.8,170.38 89.31,167.36 88.4,166.71 87.48,166.06 85.25,165.01 83.03,164.35 58.8,159.51 57.1,158.59 50.81,153.48 49.24,151.78 47.67,150.08 42.96,142.88 42.04,141.96 40.99,141.57 40.07,141.7 39.55,142.09 39.16,142.61 38.76,143.53 38.63,144.05 38.24,144.45 37.19,144.58 35.75,144.45 29.86,142.75 27.24,142.35 25.8,142.35 24.88,142.74 21.22,144.45 18.6,146.02 17.03,146.93 17.03,146.93 16.37,146.8 15.85,146.67 15.45,146.28 14.93,145.62 14.8,144.97 14.8,143.92 14.8,143.27 15.45,141.04 15.85,139.86 15.85,139.21 15.72,138.29 14.8,137.11 13.62,135.54 12.57,134.49 10.48,131.87 10.08,130.96 9.69,129.78 9.04,125.2 8.51,124.02 8.12,123.1 7.46,122.58 6.81,122.31 1.57,120.35 0.92,119.96 0.39,119.43 -0,118.52 -0,117.6 0.52,116.03 1.05,115.11 1.7,114.59 4.45,112.89 4.85,112.23 4.98,111.31 4.58,109.87 3.54,106.86 3.41,105.81 3.41,104.24 3.54,99.14 3.41,97.17 3.41,97.04 3.8,96.91 4.32,96.52 4.85,95.47 4.98,95.34 6.42,94.68 8.51,92.98 7.47,91.8 7.47,91.67 7.6,91.15 7.99,91.02 9.04,90.49 9.56,89.97 10.48,88.79 11,88.4 11,88.79 11.66,90.49 11.79,91.54 13.49,94.81 14.14,97.3 14.8,98.48 15.72,99.13 16.37,97.43 16.5,96.39 16.63,95.34 16.5,94.94 16.11,94.42 15.98,94.03 16.11,92.46 15.98,91.93 15.85,91.41 14.8,90.23 14.41,89.71 14.41,89.18 13.36,87.22 12.83,85.51 12.7,83.94 12.57,83.42 12.05,81.98 11.92,81.06 12.97,70.72 13.36,69.28 13.88,68.75 14.28,68.1 14.14,66.92 14.01,65.48 13.62,64.82 12.18,65.35 10.74,65.74 9.43,65.35 8.38,64.69 7.46,63.78 6.55,62.6 6.16,61.03 6.29,59.85 6.94,60.24 7.46,60.37 7.86,60.5 7.86,59.98 7.86,59.45 7.99,59.06 8.12,58.93 9.43,59.45 10.08,60.11 11.26,61.68 12.31,63.12 12.83,63.65 13.75,64.04 14.67,64.43 15.06,64.43 15.45,64.04 16.11,62.99 16.5,62.07 17.42,58.28 17.94,57.1 17.03,55.66 13.75,51.47 13.36,50.94 13.36,50.42 13.36,49.5 13.75,49.11 16.37,48.19 17.03,47.28 17.03,46.62 16.63,45.97 16.24,44.92 16.63,44 17.68,42.3 18.2,41.38 18.2,40.86 18.33,39.94 18.47,39.55 18.86,39.03 19.38,38.63 19.91,38.5 20.43,38.37 21.35,37.98 23.44,37.85 24.36,37.32 24.88,35.75 24.75,34.05 24.23,32.35 24.1,30.64 24.23,29.73 24.36,28.55 24.88,27.63 25.8,27.24 26.19,27.24 27.37,26.85 27.89,26.85 28.29,26.72 31.3,25.27 32.35,24.75 33.26,24.1 33.66,23.18 34.18,18.6 34.57,17.02 35.62,15.98 37.32,15.85 38.37,16.5 38.5,17.42 38.11,19.38 38.24,21.48 38.37,22.13 39.03,21.61 39.16,21.61 39.55,22.52 40.07,23.18 40.73,23.7 41.64,24.1 43.09,24.49 44,24.88 44.13,24.75 44.53,24.36 44.66,24.23 45.7,24.36 46.36,24.49 47.01,24.88 47.67,25.54 48.19,25.54 48.85,24.88 50.03,23.31 49.5,22.26 50.16,20.3 52.25,17.16 53.17,16.11 53.56,15.98 53.96,16.11 54.48,16.5 55,16.89 55.53,16.76 55.92,16.37 56.05,15.45 56.44,14.93 56.84,14.8 57.88,14.41 58.28,14.27 58.67,13.62 58.8,12.97 58.67,10.22 58.67,9.69 58.8,9.56 58.8,9.17 58.93,8.77 59.32,8.25 59.45,8.25 59.85,7.2 59.85,6.55 59.85,4.58 59.45,3.01 59.45,1.83 59.98,1.18 60.5,1.05 61.42,1.18 61.94,1.18 62.34,1.05 63.51,0 63.38,1.18 63.51,1.83 63.91,1.7 64.82,0.66 65.35,0.26 66.26,0.26 70.46,1.18 71.37,1.05 73.6,1.7 74.65,2.23 75.82,3.67 79.49,5.63 81.72,4.45 82.63,4.45 84.6,4.45 85.52,4.06 86.56,3.4 87.48,2.75 87.87,2.62 88.4,3.01 88.79,3.41 88.79,3.93 88.79,4.58 88.66,4.98 88.27,5.11 87.22,5.5 87.09,5.63 87.09,6.02 87.48,6.55 87.61,7.07 87.74,7.47 87.61,7.86 87.74,8.25 87.87,8.78 88.79,9.69 88.79,10.09 89.31,10.74 91.41,12.44 92.33,12.97 94.03,13.36 95.99,13.36 109.09,11.79 110,12.18 110.53,14.27 111.18,14.93 112.1,15.32 113.02,15.19 113.67,14.8 114.72,13.62 115.37,13.49 116.42,13.62 119.04,14.67 120.48,14.67 121,14.8 121.4,14.93 121.27,15.06 118.78,16.76 114.59,18.73 112.36,19.12 107.65,17.55 106.99,17.42 106.6,17.42 106.08,17.42 105.55,17.55 100.18,19.77 97.43,20.69 96.25,21.35 95.34,21.48 92.72,22.13 90.75,22.79 90.1,22.92 89.71,22.92 89.18,22.79 88.79,22.66 86.82,22.26 85.65,22.26 84.99,22.26 83.94,22.39 83.42,22.79 81.46,23.83 80.93,24.23 80.41,24.88 79.75,25.93 79.23,26.58 78.84,27.76 78.44,28.29 77.92,28.68 77.53,29.07 75.04,29.99 77.53,32.61 78.05,33.53 78.7,34.18 79.36,34.57 80.28,34.7 80.93,34.84 81.32,34.97 81.72,34.97 82.11,34.97 82.24,34.83 82.37,34.83 82.5,34.83 82.63,34.97 82.77,35.36 82.9,35.88 83.03,38.5 82.9,39.03 "/>
  </g>
 </g>
</svg>
