<?xml version="1.0" encoding="UTF-8"?>
<!DOCTYPE svg PUBLIC "-//W3C//DTD SVG 1.1//EN" "http://www.w3.org/Graphics/SVG/1.1/DTD/svg11.dtd">
<!-- Creator: CorelDRAW 2018 (64-Bit) -->
<svg xmlns="http://www.w3.org/2000/svg" xml:space="preserve" width="2.56455in" height="2.54578in" version="1.1" style="shape-rendering:geometricPrecision; text-rendering:geometricPrecision; image-rendering:optimizeQuality; fill-rule:evenodd; clip-rule:evenodd"
viewBox="0 0 100.67 99.93"
 xmlns:xlink="http://www.w3.org/1999/xlink">
 <defs>
  <style type="text/css">
   <![CDATA[
    .fil0 {fill:#5C67AE}
   ]]>
  </style>
 </defs>
 <g id="Layer_x0020_1">
  <metadata id="CorelCorpID_0Corel-Layer"/>
  <g id="SG">
   <polygon id="path170" class="fil0" points="91.45,83.8 90.99,83.53 90.62,83.06 90.16,82.7 89.33,82.6 89.42,82.6 88.78,82.6 89.15,83.25 89.61,83.62 90.07,84.08 90.71,84.54 91.45,85.65 91.91,86.29 92.65,86.38 92.37,85.65 92.37,84.82 92.1,84.17 "/>
   <polygon id="path174" class="fil0" points="83.89,75.41 83.25,75.5 83.34,76.33 84.45,78.64 84.91,79.1 85.37,79.38 86.38,79.38 86.75,79.1 87.03,78.36 86.94,76.61 86.57,75.87 85.74,75.6 84.63,75.5 "/>
   <polygon id="path178" class="fil0" points="100.49,97.91 100.21,97.54 99.84,96.8 99.47,96.43 97.91,95.33 97.81,94.96 97.44,95.69 97.35,96.43 97.44,97.08 97.81,97.72 98.18,98 99.01,98.09 99.38,98.37 99.47,98.74 99.47,99.47 99.57,99.84 100.21,99.93 100.58,99.47 100.67,98.74 "/>
   <polygon id="path714" class="fil0" points="73.48,36.05 72.74,35.96 72,36.05 71.26,36.32 70.8,36.6 70.34,36.69 69.6,36.32 68.96,35.86 68.59,35.59 67.94,35.49 67.58,35.77 66.93,36.6 66.56,36.88 65.82,37.43 65.45,37.8 65.73,38.26 66.1,39.74 66.38,40.38 67.39,41.76 68.5,42.87 69.88,43.7 71.36,43.79 72.46,43.15 73.29,42.13 74.67,40.01 75.04,39 75.04,37.8 74.4,36.69 "/>
   <polygon id="path718" class="fil0" points="37.71,74.4 37.71,73.66 37.43,73.2 37.06,72.83 36.69,72.37 35.95,72.46 35.49,72 35.12,70.16 34.85,69.88 34.76,69.79 34.39,69.88 33.93,70.62 33.65,70.71 33.19,70.71 32.91,70.34 32.82,69.88 33.1,69.42 32.45,69.7 31.99,70.07 31.53,70.43 31.16,70.9 31.81,71.54 32.08,71.91 32.08,72.28 31.81,72.37 30.79,72.46 30.7,72.74 30.61,73.11 30.52,73.48 30.24,73.94 29.96,74.21 29.68,74.68 29.78,75.51 29.5,75.78 30.15,77.16 31.53,79.01 31.81,79.75 31.9,80.02 32.27,80.3 32.54,80.3 32.82,80.3 33.28,80.39 33.74,81.04 34.57,82.51 35.03,82.51 35.4,82.23 36.05,82.33 36.51,82.33 36.97,81.87 37.24,81.4 37.24,76.15 36.97,75.32 37.06,74.95 37.34,74.86 37.61,74.77 "/>
   <polygon id="path722" class="fil0" points="60.11,65.09 60.11,64.72 60.02,64.26 60.02,63.89 59.92,63.8 59.46,63.15 59.37,62.78 59.37,60.57 58.91,56.51 58.63,56.05 58.17,55.68 57.53,55.59 56.42,55.96 54.67,56.97 52.36,58.73 51.53,59.19 50.7,59.46 48.58,59.56 47.85,59.83 47.39,60.48 46.65,62.05 46.19,62.69 46.19,62.97 46.56,63.43 47.02,64.26 47.39,65.27 47.48,66.47 47.94,67.21 48.03,68.77 48.12,69.42 48.4,69.79 47.94,70.53 47.85,70.8 47.75,70.9 46.93,71.17 46.65,71.26 46.28,71.72 46.19,72.37 45.91,74.67 45.82,75.41 45.54,76.15 44.71,77.53 44.62,78.18 44.62,78.82 44.99,79.28 44.71,79.56 44.99,79.84 45.36,80.11 45.73,80.21 47.29,80.21 47.75,79.93 47.85,79.56 47.85,78.55 47.94,78.27 48.22,77.9 48.68,77.62 49.04,77.63 49.41,77.72 49.87,77.72 49.87,77.81 48.77,78.45 48.49,78.82 48.86,79.56 49.32,80.02 49.78,80.3 50.43,80.21 50.89,79.84 51.35,78.73 51.35,78.45 51.26,77.72 51.35,77.44 51.72,76.7 52,76.98 52.27,77.35 52.55,77.72 52.83,78.45 52.73,79.93 52.83,81.31 53.47,81.22 53.84,80.85 54.21,80.76 54.21,80.85 54.3,81.13 54.58,81.04 54.85,80.94 54.95,80.48 54.95,79.84 55.22,79.1 55.5,78.73 55.87,79.1 56.24,78.73 56.51,78.09 56.51,77.26 56.51,76.52 56.42,76.15 56.33,76.06 55.68,75.69 54.95,75.32 54.67,75.23 55.41,74.95 55.68,74.86 55.78,74.49 55.87,74.12 55.59,74.03 55.22,74.03 54.85,74.03 54.76,73.66 54.85,73.02 56.05,70.43 56.51,69.7 58.45,67.76 58.82,67.3 58.91,66.84 59,66.56 59.37,66.56 59.74,66.65 60.02,66.65 60.11,66.38 60.2,66.1 "/>
   <polygon id="path726" class="fil0" points="71.72,74.77 70.71,74.31 70.34,73.94 70.25,73.29 69.14,73.02 69.05,72.74 69.05,72.46 68.96,72.19 68.59,71.91 67.76,72 67.11,72.74 66.75,73.48 66.01,73.84 65.55,73.57 65.45,72.92 65.73,72.19 66.47,70.8 66.56,70.34 66.65,69.6 66.65,69.24 66.38,68.41 66.28,68.13 66.19,67.85 66.1,67.58 66.01,67.21 66.1,66.84 66.47,66.38 66.84,65.73 67.58,65.27 67.67,64.63 67.58,63.43 67.58,63.24 67.85,62.14 67.94,61.86 68.41,61.49 68.68,61.21 68.59,59.83 68.87,59.46 69.33,59.83 69.42,59.74 69.7,59.65 69.7,59.56 70.53,60.39 70.99,58.54 71.82,58.82 71.91,59.1 71.91,59.46 72,59.83 72.28,59.92 72.37,60.02 72.74,60.48 72.83,60.57 72.92,61.77 73.2,62.51 73.66,62.6 73.94,61.77 73.84,58.45 73.75,57.44 73.48,57.16 73.2,57.07 73.11,56.97 73.01,56.7 73.11,56.33 73.38,55.68 73.48,55.31 73.38,54.58 73.01,53.93 72.19,52.55 71.72,52.09 69.79,50.34 69.33,49.88 69.05,49.23 69.79,48.22 69.33,48.12 68.5,48.12 67.67,48.49 64.63,50.8 64.16,51.17 64.07,51.63 63.98,52.27 62.97,54.12 62.6,55.32 62.32,56.7 62.6,61.95 62.32,62.32 62.04,62.41 61.68,62.41 61.4,62.69 61.4,62.97 61.49,63.34 61.58,63.7 61.67,63.98 61.77,64.72 61.67,65.46 61.58,66.19 61.21,66.65 59.46,68.13 59.09,68.77 59.55,68.68 59.92,68.59 60.29,68.5 60.66,68.59 60.75,69.05 60.48,69.7 59.83,70.53 59.83,70.99 59.83,71.72 59.74,72.19 59.09,72.83 59.09,73.29 59.46,73.66 59.19,74.12 59.28,74.12 60.75,73.66 60.85,73.66 60.85,74.31 60.48,74.95 59.74,75.32 58.91,75.41 58.26,75.69 57.9,76.06 57.43,77.26 57.07,77.72 56.79,77.81 56.51,77.81 56.42,77.81 56.14,78.82 55.31,79.93 55.04,80.3 55.77,80.58 55.77,81.04 55.5,81.4 53.01,83.62 55.22,88.41 55.68,88.87 56.42,88.87 56.88,88.5 57.9,87.3 58.26,87.3 58.36,87.67 58.26,88.41 58.36,88.78 58.63,89.06 58.72,88.96 58.82,88.6 59.19,88.13 59.19,87.86 59.28,87.86 59.65,88.23 59.74,88.5 59.74,89.33 59.83,89.43 60.57,89.33 61.03,88.96 61.68,87.77 63.15,85.65 63.89,84.26 63.61,83.43 63.98,83.43 63.15,83.8 62.78,83.8 62.69,83.71 62.78,83.34 63.15,82.14 63.61,81.77 66.28,80.21 66.75,80.11 67.21,80.21 67.85,80.94 68.5,81.04 68.96,80.94 70.16,80.21 71.54,79.93 71.91,79.56 72.55,78.55 73.29,77.72 73.66,77.26 73.75,76.8 73.47,76.15 72.83,75.5 "/>
   <polygon id="path162" class="fil0" points="49.51,18.16 49.23,17.89 49.14,17.24 48.86,16.96 48.77,16.96 48.68,16.96 48.68,17.06 48.4,17.33 48.31,17.7 48.31,18.07 48.31,18.35 48.68,19.36 49.04,19.82 49.32,20.1 49.78,20.01 50.06,19.64 50.34,19.18 50.34,18.81 50.24,18.72 "/>
   <polygon id="path166" class="fil0" points="45.73,20.93 45.27,21.3 44.8,21.94 44.71,22.59 44.99,23.23 45.36,22.86 46.1,22.59 46.74,22.49 47.02,22.5 46.92,22.03 46.65,21.67 46.28,21.2 "/>
   <polygon id="path1202_1_" class="fil0" points="45.73,13 44.99,14.75 45.27,15.77 45.63,15.86 47.02,16.32 47.39,16.69 47.66,17.15 47.76,17.98 47.66,18.72 47.2,18.62 47.29,18.25 47.2,17.89 46.74,17.61 46.09,17.61 46.19,17.24 46.28,17.15 45.91,16.69 45.54,16.6 45.08,16.32 44.62,16.04 44.53,16.41 44.44,16.78 44.16,16.87 43.79,16.78 43.79,17.24 44.07,17.7 44.44,18.07 44.8,18.44 45.08,19.08 44.99,19.73 44.71,20.37 44.25,21.39 44.16,21.67 44.07,21.76 43.7,21.85 43.33,21.94 42.59,22.22 42.22,22.5 42.22,22.86 42.5,23.6 43.14,24.71 43.42,25.17 43.88,25.54 44.53,25.91 45.17,25.91 45.63,26.18 46,26.55 46.28,27.01 46.65,27.47 47.29,27.75 47.94,27.84 49.32,27.75 50.06,27.84 50.43,28.3 51.07,29.5 52.82,31.99 53.47,32.45 54.12,32.54 56.33,32.54 56.7,32.54 56.97,32.82 57.25,33.1 57.34,33.47 57.34,33.74 56.6,34.02 56.33,34.11 56.24,34.39 55.96,34.85 55.59,34.94 54.76,34.94 54.12,35.22 53.65,35.31 53.65,35.59 55.22,35.68 55.87,35.77 56.51,36.05 56.97,36.51 57.25,36.97 57.25,37.61 57.25,38.81 57.25,39.46 57.62,40.1 57.99,40.56 58.45,40.66 58.54,40.56 58.63,40.47 58.63,40.1 58.63,39.83 59.46,40.29 60.66,40.56 61.86,40.56 62.6,40.29 61.03,38.54 60.57,37.71 61.58,37.43 62.78,38.08 63.61,39.18 64.26,40.56 64.72,42.41 64.72,43.05 64.72,43.7 64.26,44.71 64.35,45.36 64.63,46.74 64.63,47.94 64.53,48.58 64.16,48.86 63.52,48.95 63.24,49.32 62.97,49.69 62.6,50.15 62.23,49.51 60.02,47.94 58.91,46.83 58.17,46.37 57.16,46.28 57.53,46.93 58.91,48.12 59,48.4 59.37,49.05 59.65,49.41 59.74,49.41 60.11,49.32 60.2,49.41 60.29,49.51 60.29,49.6 60.2,49.69 60.2,49.97 60.29,50.34 60.38,50.61 60.38,51.07 60.29,51.44 59.92,51.72 59.55,51.72 59.19,51.63 58.45,50.61 58.08,50.61 57.99,50.89 58.08,51.17 58.17,51.26 57.8,51.63 57.43,51.63 57.07,50.89 57.07,50.06 56.24,49.32 54.85,48.95 53.75,49.32 52.73,49.97 51.63,50.24 50.61,50.15 49.51,49.69 48.31,50.43 47.11,50.8 45.63,51.17 43.7,51.26 43.42,51.26 43.14,51.35 42.68,51.81 42.31,51.9 41.58,52 41.12,52.46 40.84,52.55 39.73,52.64 39.46,52.73 38.81,53.47 38.07,54.67 37.61,56.05 37.24,57.16 37.34,58.63 37.8,59.65 38.53,60.48 39.36,61.21 39.46,61.31 39.92,61.4 39.92,61.68 39.46,61.95 38.81,62.6 38.35,62.87 37.61,62.87 36.23,63.24 35.4,63.24 32.17,62.97 31.53,62.87 30.7,62.23 30.05,61.86 29.59,61.95 29.13,62.04 28.39,62.14 27.93,61.86 27.66,61.86 27.56,62.14 27.47,62.23 27.1,62.32 26.73,62.41 26.46,62.41 25.81,62.04 24.98,60.94 24.34,60.66 23.97,60.57 22.13,59.83 21.66,59.56 20.1,57.34 20.01,56.97 19.73,56.97 19.64,56.97 19.54,56.7 19.27,55.68 19.36,54.3 19.82,51.81 20.56,49.88 20.83,48.49 20.93,47.29 20.83,44.81 20.93,43.79 20.93,43.51 21.02,43.24 21.39,42.96 21.76,42.96 21.85,43.24 21.76,43.61 21.48,43.88 22.49,43.42 23.6,41.21 23.88,38.72 22.86,37.25 21.66,36.6 17.7,35.96 15.21,34.94 15.21,34.57 14.75,34.11 14.66,33.84 14.66,33.47 14.38,33.19 14.01,32.73 13.55,32.36 13.18,32.45 12.81,32.73 12.17,32.82 11.89,32.54 11.98,31.9 12.35,31.16 12.45,30.7 12.08,30.06 11.62,29.78 10.51,29.78 9.77,29.69 9.31,29.41 7.56,27.29 0.92,21.3 0.28,20.1 -0,19.08 -0,18.72 0.09,18.35 0.37,17.7 0.46,17.33 0.74,16.6 1.38,15.86 2.03,15.21 2.67,14.57 3.32,13.18 3.69,12.72 4.15,12.45 4.43,12.35 4.79,12.26 5.07,11.99 5.07,11.71 5.35,11.34 5.62,11.25 5.99,11.16 6.27,11.06 6.55,10.42 6.82,8.67 6.82,7.93 6.55,7.19 6.45,6.82 6.18,6.55 5.9,6.27 5.99,5.81 6.45,4.98 6.45,4.61 6.82,3.96 6.91,3.6 6.82,2.21 6.91,1.94 7.01,1.48 8.39,0.65 9.5,0.28 10.69,0 11.43,0 11.89,0.09 12.54,0.19 13,0.46 15.21,1.94 17.79,4.06 19.18,4.89 19.64,4.89 20.01,4.89 20.47,4.79 21.11,4.52 23.05,3.41 23.05,3.41 25.26,3.69 28.67,3.78 29.87,4.06 37.34,7.1 37.98,7.19 39.83,6.92 40.29,6.92 40.93,7.01 41.39,7.28 42.04,7.65 44.71,9.77 46.19,11.62 "/>
  </g>
 </g>
</svg>
