<?xml version="1.0" encoding="UTF-8"?>
<!DOCTYPE svg PUBLIC "-//W3C//DTD SVG 1.1//EN" "http://www.w3.org/Graphics/SVG/1.1/DTD/svg11.dtd">
<!-- Creator: CorelDRAW 2018 (64-Bit) -->
<svg xmlns="http://www.w3.org/2000/svg" xml:space="preserve" width="2.00092in" height="4.45977in" version="1.1" style="shape-rendering:geometricPrecision; text-rendering:geometricPrecision; image-rendering:optimizeQuality; fill-rule:evenodd; clip-rule:evenodd"
viewBox="0 0 63.67 141.91"
 xmlns:xlink="http://www.w3.org/1999/xlink">
 <defs>
  <style type="text/css">
   <![CDATA[
    .fil0 {fill:#5C67AE}
   ]]>
  </style>
 </defs>
 <g id="Layer_x0020_1">
  <metadata id="CorelCorpID_0Corel-Layer"/>
  <g id="SN">
   <polygon id="path130" class="fil0" points="41.4,138.55 39.08,138.32 38.19,137.95 37.74,137.95 37.36,138.02 37.14,138.25 37.14,138.47 37.14,138.69 37.36,138.92 37.74,139.14 38.34,139.22 38.93,139.14 39.46,138.92 39.98,139.14 41.55,139.44 41.85,139.74 42.22,139.97 43.04,139.89 43.87,139.67 44.16,139.14 43.79,138.77 42.97,138.55 "/>
   <polygon id="path134" class="fil0" points="36.24,133.31 35.94,133.31 35.57,133.09 33.4,131.6 33.18,131.6 32.96,132.12 32.96,132.79 33.03,133.46 33.25,133.99 33.25,134.51 33.78,134.88 34.38,134.88 34.38,134.58 35.65,134.36 36.17,134.43 36.69,134.66 36.69,134.29 36.99,133.61 36.99,133.24 36.92,132.87 36.69,132.94 "/>
   <polygon id="path634" class="fil0" points="30.86,104.39 30.27,102.68 30.19,102.15 30.12,101.78 29.82,101.41 29.59,101.03 29.67,100.43 29.59,100.21 29.37,99.99 29.14,99.91 28.92,99.99 28.55,100.88 28.32,102 28.1,105.37 28.4,107.98 28.4,109.48 28.32,109.85 27.95,110.37 27.87,110.67 27.95,110.9 28.25,111.72 28.25,112.02 28.25,112.32 28.32,112.54 28.62,112.61 28.85,112.69 28.92,112.99 28.7,115.68 28.77,116.2 28.99,117.02 29.22,118.14 29.44,118.07 29.67,117.55 29.89,117.02 29.82,116.05 29.82,115.53 30.12,114.93 30.34,114.56 30.56,113.36 30.56,112.39 30.49,110.97 30.56,110.45 31.16,108.88 31.24,107.68 31.24,106.56 31.16,105.44 "/>
   <polygon id="path926" class="fil0" points="62.25,140.04 61.95,140.26 61.73,140.64 61.5,141.01 61.5,141.31 61.73,141.91 62.1,141.91 63,141.61 63.59,141.24 63.67,140.41 63.15,139.82 "/>
   <polygon id="path1202_2_" class="fil0" points="44.61,27.35 45.73,26.68 46.63,26.38 47.6,26.15 48.2,26.15 48.57,26.23 49.1,26.3 49.47,26.53 51.26,27.72 53.36,29.44 54.48,30.11 54.85,30.11 55.15,30.11 55.52,30.04 56.05,29.82 57.62,28.92 57.99,28.55 61.95,24.58 62.25,23.99 62.47,23.46 62.55,22.87 62.55,22.34 62.55,21.82 62.32,21.15 62.02,20.55 61.73,20.18 61.13,19.65 58.51,18.38 57.69,17.86 56.12,16.44 54.7,14.72 54.18,14.35 53.66,13.97 52.38,13.38 51.11,13 37.29,10.24 36.32,9.71 32.73,6.8 31.83,5.83 30.94,4.86 28.25,0.75 27.72,0.22 27.13,0 26.6,0.07 26.31,0.3 26.08,0.6 25.86,1.12 25.78,1.42 25.56,1.64 24.96,1.72 24.14,1.64 20.77,0.67 19.28,0.45 18.46,0.45 17.94,0.67 15.84,1.64 14.35,2.54 13.45,3.06 13.45,3.06 12.26,5.38 11.96,5.75 11.66,6.05 11.36,6.13 11.06,6.13 10.76,6.13 10.46,6.2 7.7,8.59 7.47,9.12 7.25,9.64 7.25,10.83 7.17,11.36 7.17,11.66 7.17,11.88 7.47,12.11 8.07,12.33 8.37,12.55 9.27,13.38 9.64,13.75 9.71,14.05 9.79,14.35 9.71,14.87 9.42,15.47 9.42,15.62 9.49,15.92 9.72,16.22 9.94,16.51 10.01,16.89 9.94,17.56 10.01,18.53 10.91,19.73 10.91,20.1 10.69,20.62 10.69,20.92 10.76,21.15 10.99,21.37 11.06,21.6 11.13,21.82 11.13,22.04 10.91,22.34 10.61,22.57 9.64,23.17 7.92,23.69 7.32,23.61 6.35,23.39 5.83,23.39 5.31,23.39 4.63,23.46 4.26,23.69 4.93,24.81 4.93,25.11 4.93,25.41 4.86,26 4.78,26.53 4.86,27.05 4.93,27.57 6.5,31.46 7.32,32.36 7.4,32.73 7.4,32.95 7.02,33.18 5.9,33.4 5.38,33.7 4.78,33.93 3.96,34.6 3.44,34.82 3.14,34.9 2.84,34.82 2.47,34.75 2.24,34.75 1.94,34.75 1.72,34.97 1.49,35.27 1.42,35.5 1.49,35.87 1.57,36.09 2.17,36.77 2.39,37.06 2.47,37.14 2.54,38.11 2.62,39.01 2.69,39.38 3.21,40.88 3.44,42.37 3.51,42.59 3.89,43.87 3.96,44.24 3.74,44.61 3.36,45.14 3.14,45.66 2.76,46.93 2.39,47.75 2.47,48.12 3.14,49.1 3.44,50.07 4.03,50.96 5.23,53.88 5.75,54.55 5.75,55.52 5.98,56.05 6.05,55.45 6.13,55.07 6.2,54.77 6.8,54.7 7.32,54.77 7.25,55.15 6.65,56.05 6.58,56.34 6.65,56.72 6.65,57.02 6.58,57.24 6.35,57.76 6.28,58.06 6.35,58.06 6.43,58.29 6.5,58.51 6.73,59.48 6.65,60.08 6.28,61.05 6.2,61.58 6.2,61.8 6.58,62.17 6.65,62.4 6.65,62.7 6.73,63.22 6.73,63.44 6.65,64.42 6.28,66.13 5.9,69.8 5.83,70.17 4.71,72.04 4.63,72.34 4.26,73.16 4.19,73.23 3.81,73.53 3.59,73.61 3.51,74.5 4.33,77.79 4.26,78.69 3.36,80.48 2.99,81.3 2.91,82.2 2.84,82.72 2.47,83.25 2.24,83.32 1.72,83.62 1.49,83.84 1.27,84.07 1.05,84.89 0.67,85.79 0.6,86.31 0.52,88.03 0.22,88.85 -0,90.05 0.22,91.02 0.75,91.99 1.64,93.18 1.94,93.71 2.17,93.93 2.24,94.23 2.17,94.53 1.94,94.83 1.87,95.05 1.94,95.65 2.17,95.95 2.54,96.17 3.06,96.17 2.77,95.65 3.14,95.28 3.96,95.2 4.26,95.28 4.33,95.58 4.56,95.8 4.86,96.03 5.08,96.25 5.08,96.55 5.08,97.15 5.16,97.45 5.68,97.82 5.9,97.45 6.2,96.92 6.73,96.62 7.32,96.85 7.55,97.37 7.62,97.97 7.7,98.34 8.37,98.86 9.57,99.09 10.76,99.01 11.66,98.79 12.18,98.49 12.7,97.97 12.78,97.74 12.85,97.15 12.93,96.85 14.05,95.88 14.42,95.58 14.8,95.5 15.62,95.5 16.22,95.5 16.52,95.73 16.81,95.95 18.38,96.17 18.76,96.25 18.98,96.25 19.06,96.32 19.58,96.1 20.55,95.8 20.92,95.58 21.52,95.2 21.75,95.13 22.94,94.9 23.46,94.68 24.14,94.38 24.74,94.08 25.33,94.16 25.56,94.45 25.93,95.28 26.01,95.5 26.23,95.8 27.13,96.92 27.5,96.85 28.17,97.15 28.25,96.92 28.17,96.55 27.65,95.87 28.02,94.83 27.95,93.93 26.83,89.97 26.83,89.45 26.6,89.07 25.48,87.8 25.18,87.43 24.88,86.46 24.66,85.94 23.54,84.37 23.84,83.99 24.06,83.47 24.66,80.41 24.74,77.34 25.11,76.67 25.48,76.6 26.08,76.52 26.6,76.45 26.9,75.92 26.9,75.33 27.43,72.86 27.5,72.63 28.02,72.26 28.25,72.04 28.32,71.74 28.1,71.21 27.28,70.32 26.98,69.94 26.9,69.42 26.83,68.82 26.83,67.93 26.9,67.55 26.98,67.03 26.75,66.51 26.08,65.83 26.01,64.94 26.6,63.44 26.68,62.55 26.38,61.72 26.3,61.43 26.3,61.13 26.53,60.6 26.53,60.3 26.53,59.33 26.53,58.96 25.93,58.06 25.93,57.54 25.93,53.28 26.01,52.38 26.3,51.49 26.83,50.67 27.8,49.1 28.32,48.2 28.25,47.23 27.72,46.7 27.65,46.63 27.65,44.46 27.58,43.94 27.2,42.82 27.13,42.3 27.35,41.03 27.43,40.65 27.43,40.43 27.35,40.13 27.13,39.61 27.13,39.31 27.2,38.41 27.43,38.04 27.43,37.74 27.35,37.44 27.28,37.14 27.5,36.84 27.8,36.47 27.87,36.17 27.5,36.24 27.28,36.02 27.05,35.64 26.98,35.35 26.98,35.05 26.75,34.97 26.08,34.45 24.88,34.08 24.29,33.78 23.76,33.25 24.06,32.95 24.14,32.88 24.36,32.8 24.06,32.28 23.69,30.86 23.39,30.64 23.17,30.56 22.94,30.26 22.94,29.97 22.87,29.67 22.79,29.29 22.42,28.92 22.34,28.62 23.02,28.4 23.54,28.02 24.51,27.2 30.86,23.24 31.39,22.87 31.61,22.34 31.69,21.97 31.98,21.6 32.51,21.52 33.1,21.45 33.48,21.37 34.75,20.7 35.27,20.62 35.79,20.55 36.17,20.47 36.47,20.25 36.84,20.03 37.44,20.03 37.74,20.1 38.04,20.18 38.26,20.4 38.56,20.62 38.86,20.85 39.08,20.85 39.31,20.85 39.68,20.77 42.67,21.3 42.97,21.37 43.27,21.67 43.49,21.89 43.49,21.97 43.79,22.27 44.69,23.76 44.61,23.76 44.54,23.69 44.46,23.69 44.39,23.61 44.02,24.29 43.79,24.36 43.27,24.29 43.19,24.88 42.82,25.11 42.22,25.11 42,25.48 42.07,25.71 42.15,25.93 42.37,26.15 42.67,26.15 42.74,25.93 42.97,25.41 43.19,25.18 43.42,25.48 43.64,26.15 43.87,26.38 43.94,26.38 44.24,26.08 44.54,26.68 44.61,27.5 "/>
  </g>
 </g>
</svg>
