<?xml version="1.0" encoding="UTF-8"?>
<!DOCTYPE svg PUBLIC "-//W3C//DTD SVG 1.1//EN" "http://www.w3.org/Graphics/SVG/1.1/DTD/svg11.dtd">
<!-- Creator: CorelDRAW 2018 (64-Bit) -->
<svg xmlns="http://www.w3.org/2000/svg" xml:space="preserve" width="3.2198in" height="2.60688in" version="1.1" style="shape-rendering:geometricPrecision; text-rendering:geometricPrecision; image-rendering:optimizeQuality; fill-rule:evenodd; clip-rule:evenodd"
viewBox="0 0 294.09 238.11"
 xmlns:xlink="http://www.w3.org/1999/xlink">
 <defs>
  <style type="text/css">
   <![CDATA[
    .fil0 {fill:#5C67AE}
   ]]>
  </style>
 </defs>
 <g id="Layer_x0020_1">
  <metadata id="CorelCorpID_0Corel-Layer"/>
  <polygon id="SS" class="fil0" points="181.26,4.3 181.48,5.8 181.48,6.65 181.26,7.51 180.19,9.44 179.55,10.3 177.83,12.88 177.62,14.59 177.62,15.66 177.83,16.52 178.47,18.45 179.97,16.95 180.83,13.31 181.69,12.45 183.62,12.66 185.12,14.16 186.62,15.66 188.13,16.52 188.98,17.38 188.34,19.31 187.27,21.67 186.41,22.74 185.77,23.39 185.55,24.03 185.55,24.68 186.62,24.67 187.7,24.03 189.41,22.1 190.27,21.24 190.48,22.74 190.48,24.46 190.7,25.53 191.77,26.17 191.99,26.39 192.2,26.6 192.42,26.6 192.63,26.39 192.63,26.18 192.84,25.96 193.49,25.75 193.7,25.75 195.2,24.25 198.42,23.39 201.64,24.03 204.21,26.39 205.93,29.61 206.57,32.83 205.93,35.61 204.86,38.19 202.5,41.62 197.35,47.84 196.28,48.49 195.2,48.7 191.99,48.7 191.13,49.34 190.06,50.2 187.7,51.92 186.2,52.99 191.34,50.63 193.92,50.63 195.42,53.42 195.42,56.64 195.2,58.35 194.35,60.93 194.35,64.36 194.13,65.43 193.27,66.07 191.77,66.72 190.27,67.36 189.2,67.58 188.34,67.79 185.98,69.29 183.62,71.65 182.12,73.58 181.05,76.16 181.26,78.94 181.05,78.94 181.05,79.16 180.83,79.8 181.91,78.94 182.98,77.44 183.84,75.73 184.05,74.01 184.69,72.94 185.77,72.08 188.13,70.37 193.27,68.01 195.21,66.5 196.71,64.14 198.21,59.64 198.21,57.92 198.21,54.71 198.42,53.63 199.28,52.13 201.64,49.77 202.71,48.27 203.79,45.05 204.86,44.19 206.36,43.98 207.86,44.62 208.5,46.13 208.5,47.84 208.5,49.56 210.01,50.63 210.01,48.91 210.86,47.84 211.94,47.2 213.65,47.2 215.15,47.41 216.23,48.27 217.08,49.34 218.16,49.99 219.02,49.99 220.52,49.77 221.37,49.56 222.23,50.2 223.09,51.06 223.73,51.06 225.24,50.84 229.74,48.91 231.46,48.7 233.17,48.7 234.89,48.91 237.46,50.41 239.18,50.63 242.82,50.84 249.05,51.7 252.26,51.92 253.98,52.13 255.48,52.77 255.48,53.42 255.27,53.42 254.62,53.42 254.41,53.42 255.27,54.28 256.34,53.63 257.41,52.77 258.06,52.13 259.56,52.13 260.63,52.77 261.49,53.63 261.49,55.56 261.27,57.28 259.77,60.07 259.56,61.78 259.56,63.5 259.77,65.22 260.42,66.72 261.06,68.22 261.92,69.29 262.99,70.79 264.49,71.65 266.42,72.51 267.92,73.15 268.78,73.37 270.5,73.37 271.36,73.37 272.21,73.58 273.29,76.16 273.07,86.24 274.57,89.03 276.5,91.39 279.29,92.89 282.51,93.53 283.37,93.32 284.87,93.1 285.73,93.1 286.59,93.1 287.66,93.96 288.3,93.96 289.37,94.6 290.23,95.46 291.73,97.82 292.38,100.4 292.38,106.19 292.59,109.41 292.81,110.05 293.88,111.77 294.09,112.62 293.88,113.48 293.66,114.98 293.66,115.84 292.81,116.7 287.87,119.06 285.51,120.99 282.94,123.78 281.01,126.57 279.51,130 275,146.09 275.65,148.88 277.36,151.23 283.37,155.53 284.87,157.89 284.87,160.46 283.8,163.68 278.86,170.54 278.22,172.9 277.58,175.47 275.86,180.62 275.22,181.7 272.64,180.41 270.93,180.62 269.85,181.27 267.07,181.27 266.42,180.62 265.78,178.91 265.13,178.26 264.49,177.62 262.77,177.83 262.56,177.19 262.35,176.33 262.35,175.69 262.35,175.04 261.7,174.4 261.06,173.76 260.42,173.76 259.34,173.97 259.13,173.76 259.13,173.11 259.34,171.61 259.56,170.97 259.56,170.11 259.34,169.47 259.13,169.25 258.48,168.18 258.27,167.32 257.63,166.46 256.77,165.61 256.12,164.75 255.05,163.25 254.41,163.03 253.55,163.03 253.34,162.82 253.12,162.17 253.12,161.53 252.91,160.89 252.69,159.81 251.84,159.17 249.91,158.31 247.55,158.1 246.69,157.24 245.61,155.31 244.76,154.66 243.9,154.45 243.04,154.45 242.18,155.1 241.32,155.1 240.68,154.88 240.04,154.02 239.18,152.31 238.53,151.66 237.89,151.45 237.68,151.66 237.46,152.52 237.25,153.17 237.03,153.81 237.03,154.67 237.03,155.31 236.82,155.53 236.6,155.53 236.39,155.74 236.39,155.95 236.18,156.17 236.18,157.67 236.18,158.31 235.32,160.89 235.1,161.53 233.6,161.96 232.74,162.6 231.89,162.82 231.03,162.82 229.95,162.6 229.31,162.6 228.67,162.82 227.17,163.89 226.52,164.53 225.45,165.18 224.81,165.39 224.59,166.25 224.59,166.89 224.38,168.4 224.38,169.04 224.38,169.25 223.3,170.97 223.09,171.61 223.09,171.83 223.09,172.04 223.73,172.9 223.73,173.12 223.52,173.76 221.59,174.83 220.73,175.69 220.09,176.33 219.44,177.41 219.23,178.48 218.59,179.12 217.51,180.19 216.66,180.84 216.01,181.7 213.44,182.77 209.79,183.63 207,184.48 203.79,185.34 191.77,191.13 186.41,192.21 182.76,192.21 181.05,192.85 176.54,194.78 174.83,195.85 172.47,197.78 171.61,198.64 164.96,201.22 164.32,203.15 163.67,205.08 163.89,207.44 164.74,212.59 164.96,213.66 164.74,214.73 164.1,215.8 163.46,216.45 163.24,217.09 162.17,217.73 161.95,217.95 161.95,219.45 161.74,219.66 161.74,220.31 161.74,220.95 162.38,221.6 163.24,222.24 163.24,222.45 163.46,224.17 163.67,224.81 163.67,225.67 165.17,226.74 165.39,227.39 166.25,228.03 166.46,228.25 166.67,228.89 166.89,229.11 166.89,230.18 166.67,230.82 165.6,232.75 164.53,234.25 164.31,234.47 163.46,234.46 162.6,234.68 160.24,234.04 157.67,234.25 153.59,237.04 148.23,238.11 146.3,237.9 143.94,237.9 141.36,237.68 137.07,237.04 134.28,237.04 133.21,236.82 132.57,236.18 132.35,235.54 132.14,234.68 131.92,234.03 132.14,233.18 132.14,232.53 132.14,231.67 131.92,231.03 131.28,230.39 130.64,230.17 129.56,229.53 125.49,227.17 125.49,227.17 124.84,225.67 123.99,225.02 122.49,224.17 122.27,223.52 122.06,222.66 122.06,221.59 120.13,214.94 119.91,214.08 119.27,213.44 118.41,210.86 116.05,208.29 115.41,207.22 114.76,205.29 114.12,199.07 113.9,197.57 113.26,196.92 112.4,196.28 111.54,196.06 108.33,195.85 107.26,195.85 105.32,195.21 102.11,192.85 97.82,192.64 95.46,191.78 92.03,189.85 88.81,189.2 86.88,188.13 85.38,187.92 84.73,187.7 83.66,187.92 82.8,186.2 82.16,180.19 81.94,178.69 80.01,174.19 79.37,171.83 79.15,171.18 78.51,170.54 77.87,170.54 77.01,169.68 76.37,169.68 75.72,169.68 74.86,169.9 72.93,169.9 71.43,169.9 70.57,169.9 68.86,169.9 67.36,170.75 64.14,168.18 63.5,167.97 61.99,167.75 59.42,168.4 58.35,168.61 57.49,168.4 54.06,166.89 52.56,166.25 51.7,165.39 49.98,162.6 49.12,161.75 46.55,160.03 45.48,159.17 44.83,158.1 43.97,157.03 42.04,155.95 41.83,154.88 43.55,154.67 45.9,154.02 46.98,153.38 55.77,145.01 57.27,143.94 58.99,143.3 60.49,142.22 61.35,141.58 61.35,140.51 61.14,139.65 60.28,138.58 60.28,137.72 60.28,137.51 61.14,137.51 62.85,138.36 63.92,138.36 64.78,138.36 65.64,138.15 66.5,138.15 68.21,138.36 69.29,136.86 70.15,130.86 69.93,129.14 69.72,127.21 69.72,126.57 69.07,125.92 68.86,125.28 68,124.63 67.14,124.42 65.21,124.21 63.71,123.56 59.42,122.92 58.56,122.27 54.27,119.7 53.63,118.84 52.77,116.48 52.55,115.84 51.7,115.62 50.62,115.84 48.91,116.91 45.69,119.27 43.33,121.63 42.69,122.27 41.83,122.49 40.33,121.84 37.97,120.77 37.33,120.77 36.68,120.13 35.82,119.49 34.75,118.41 33.68,117.34 33.03,116.7 32.18,115.62 31.53,114.77 30.46,114.12 29.82,113.91 29.17,113.26 28.96,113.05 28.96,112.41 29.17,112.19 29.39,111.55 29.6,111.33 29.82,110.69 30.03,108.12 30.67,106.61 30.89,105.97 30.67,105.33 30.46,104.47 29.6,103.82 28.53,102.97 26.81,101.25 22.31,99.75 21.45,99.53 20.81,99.54 20.16,100.18 19.52,100.83 18.88,101.04 18.23,101.04 17.16,100.82 15.66,99.97 14.8,99.97 13.94,99.97 13.3,99.75 12.44,99.54 10.51,96.75 10.3,95.89 10.94,95.89 12.01,95.68 12.66,95.68 12.66,95.46 12.44,93.75 12.23,92.67 11.58,92.03 10.08,91.17 6.87,87.95 6.01,87.1 4.93,84.52 4.29,83.66 3.43,82.81 1.5,81.3 -0,79.37 -0,79.37 2.79,76.59 3.65,75.94 6.86,75.3 8.37,74.44 12.01,72.08 13.94,68.65 16.73,70.58 20.38,71.65 23.81,73.58 25.53,74.44 27.46,75.08 29.17,75.3 30.25,75.3 31.32,75.08 32.39,74.44 36.9,74.23 37.97,73.58 38.61,72.94 39.26,71.87 39.9,71.01 40.97,69.93 44.41,68.22 45.48,67.36 46.98,65.86 47.62,65.86 47.84,66.07 48.05,66.29 48.91,66.07 50.41,65.43 51.48,64.36 52.34,63.29 57.49,55.56 57.7,54.7 57.49,53.85 57.27,53.2 56.42,52.56 56.2,51.7 55.99,50.84 56.2,49.34 56.85,48.27 57.7,47.62 58.56,47.41 60.06,47.62 61.99,48.27 64.35,48.48 66.93,49.34 68.86,49.55 71.22,48.48 74.87,50.2 76.8,50.84 78.3,50.63 81.52,49.55 82.37,48.91 82.59,48.05 82.8,47.19 82.59,46.12 81.94,45.26 81.3,44.41 80.66,43.55 80.01,42.69 80.01,41.62 80.66,40.12 81.73,38.4 83.23,35.61 84.73,34.97 85.8,35.18 86.45,36.04 87.52,37.11 88.59,39.69 89.24,41.4 89.88,42.47 98.25,50.41 99.75,51.06 100.61,51.06 101.25,51.06 101.46,50.84 101.46,50.2 101.46,49.56 101.46,48.91 101.46,50.41 101.46,50.2 101.46,49.56 101.46,48.91 101.46,46.98 100.61,43.55 100.61,42.9 100.61,42.05 100.82,41.19 101.46,40.54 102.11,40.33 104.9,40.12 105.97,39.9 107.04,39.26 107.68,38.61 107.9,37.97 107.9,37.76 107.68,37.11 106.83,36.25 106.61,36.04 105.75,34.32 105.54,31.96 106.4,23.17 105.75,21.67 106.83,20.81 132.57,8.15 134.93,7.51 137.72,7.72 149.94,10.51 153.37,10.73 157.88,10.08 164.1,8.37 165.17,7.51 166.03,6.65 167.96,1.72 168.18,0.86 168.82,0.64 169.46,0 170.54,0.01 171.61,0.22 173.54,1.29 175.9,3.01 176.54,3.22 177.4,3.44 178.04,3.44 179.12,2.79 "/>
 </g>
</svg>
