<?xml version="1.0" encoding="UTF-8"?>
<!DOCTYPE svg PUBLIC "-//W3C//DTD SVG 1.1//EN" "http://www.w3.org/Graphics/SVG/1.1/DTD/svg11.dtd">
<!-- Creator: CorelDRAW 2018 (64-Bit) -->
<svg xmlns="http://www.w3.org/2000/svg" xml:space="preserve" width="2.59274in" height="3.3795in" version="1.1" style="shape-rendering:geometricPrecision; text-rendering:geometricPrecision; image-rendering:optimizeQuality; fill-rule:evenodd; clip-rule:evenodd"
viewBox="0 0 226.13 294.75"
 xmlns:xlink="http://www.w3.org/1999/xlink">
 <defs>
  <style type="text/css">
   <![CDATA[
    .fil0 {fill:#5C67AE}
   ]]>
  </style>
 </defs>
 <g id="Layer_x0020_1">
  <metadata id="CorelCorpID_0Corel-Layer"/>
  <g id="SB_1_">
   <polygon id="Sumbar" class="fil0" points="38.71,44.45 46.91,35.64 51.82,29.09 52.64,28.27 53.46,28.06 55.71,27.45 57.56,27.24 58.99,27.04 60.63,26.22 65.75,23.56 67.39,22.94 68.82,22.94 69.85,23.15 71.69,24.17 72.31,24.38 73.12,24.38 73.74,24.38 74.35,24.58 74.56,25.2 75.38,26.63 75.99,27.24 76.61,27.45 77.43,27.65 81.73,27.65 82.34,27.65 82.55,27.86 83.16,28.68 85,29.29 85.82,29.29 87.26,29.09 90.33,28.06 91.15,27.45 91.76,26.83 92.38,25.4 92.38,24.38 92.58,23.56 92.38,22.94 92.17,22.12 90.54,18.84 89.51,17.41 89.31,16.39 88.69,15.57 85.62,12.49 85,11.47 84.39,9.01 84.19,8.19 83.98,7.37 83.37,7.17 82.75,7.17 81.73,6.56 81.11,6.35 80.5,5.74 79.88,4.71 79.68,4.51 79.06,4.3 78.45,3.69 77.63,2.87 77.01,1.23 77.01,0.61 77.22,0 77.84,0 78.45,0 80.7,1.43 81.52,2.05 82.34,2.05 83.37,2.25 84.39,2.05 85,1.85 85.82,1.64 87.67,1.85 90.95,3.28 93.61,3.89 94.63,4.51 95.66,5.12 97.91,5.94 100.98,6.76 101.8,6.97 102.62,7.58 104.05,9.02 105.49,9.83 106.51,10.45 107.33,10.45 108.15,10.45 109.17,10.24 109.99,9.63 111.63,11.06 112.25,11.88 112.25,12.5 112.25,13.11 112.04,13.73 111.43,14.34 109.99,15.77 109.38,16.39 109.17,17 109.17,17.82 111.02,23.35 111.63,24.38 113.07,25.81 113.68,26.63 116.34,31.75 123.51,34.41 125.77,34.21 126.38,33.59 127,32.78 127.61,32.57 128.22,31.96 129.25,31.75 131.5,31.55 132.53,31.75 133.55,31.96 135.19,32.98 138.26,36.46 143.18,38.72 146.25,40.56 147.89,41.99 150.55,45.06 151.17,45.27 151.37,45.06 151.57,45.06 152.19,44.86 152.8,44.86 153.42,45.06 153.62,45.27 153.83,45.88 154.03,46.09 155.88,47.93 156.49,48.75 157.31,49.78 157.51,50.8 157.51,51.62 157.51,52.64 156.69,58.58 156.69,60.22 156.9,64.52 156.9,65.14 156.28,65.75 155.67,65.96 154.85,66.16 151.37,66.16 150.75,66.37 150.55,66.57 149.93,66.78 149.93,67.39 149.93,68.21 150.14,69.64 151.98,73.13 152.19,74.15 152.8,76.61 153.01,77.63 153.62,78.45 155.06,80.7 157.51,84.8 163.25,88.9 165.91,89.92 167.55,90.13 170.21,95.25 183.94,111.02 190.49,116.96 197.66,121.06 201.76,125.36 204.21,127 207.7,128.02 214.46,129.45 217.73,130.48 218.55,131.09 219.17,131.3 219.99,131.91 220.19,132.53 220.4,132.73 221.01,134.37 221.01,134.37 221.83,136.01 222.03,137.65 222.03,139.28 221.83,140.92 222.85,141.54 224.29,142.15 224.9,142.15 225.52,142.15 225.72,141.95 225.93,142.15 226.13,142.36 225.93,143.18 225.31,144.61 224.29,146.25 222.65,148.5 221.22,149.53 219.37,150.35 216.91,150.96 216.3,150.96 215.69,150.96 215.07,151.17 214.46,151.98 213.84,153.42 213.64,155.26 215.07,159.36 215.07,160.18 214.25,162.02 214.25,162.84 214.87,163.46 215.07,164.07 215.07,164.69 214.25,166.94 213.43,167.96 211.79,169.81 206.06,173.9 203.4,176.36 201.96,178 200.32,180.66 199.3,181.48 198.48,181.69 196.23,181.48 195.2,180.66 182.91,182.51 181.48,182.3 180.05,181.69 179.02,181.07 177.59,181.28 175.13,180.66 175.33,187.83 175.95,191.93 176.97,195.82 178.82,199.71 180.25,201.55 181.28,202.58 183.53,204.22 184.14,205.24 185.17,206.88 187.83,213.64 190.29,221.83 188.03,222.45 184.96,224.7 183.32,225.52 180.05,226.34 178.61,226.95 172.26,231.66 168.37,234.94 167.76,234.12 161.2,224.49 155.47,213.02 154.85,212.41 154.85,210.98 155.67,209.54 158.13,206.88 158.74,203.81 158.13,200.73 157.51,197.66 156.9,195 156.28,193.57 155.26,191.93 151.16,188.04 150.55,187.42 150.34,186.6 149.73,184.96 146.66,179.84 143.17,175.75 142.15,174.31 141.54,172.67 140.92,169.6 140.72,166.53 140.1,165.71 137.44,163.05 136.41,162.02 136.62,161.82 136.82,161.2 137.03,160.18 136.41,159.56 136.21,159.56 136.42,159.36 136.62,159.15 136.83,158.54 136.83,158.74 136.62,156.08 136.01,154.24 135.19,153.62 133.75,153.01 131.09,151.37 129.66,150.76 129.04,150.55 128.43,149.73 127.81,149.53 127.81,149.73 127.61,149.94 127.4,149.94 125.77,150.14 124.95,150.14 124.33,149.32 124.54,149.12 125.56,148.09 125.77,147.48 125.97,146.86 125.97,145.43 125.36,144.41 122.69,141.95 121.67,142.15 121.46,141.33 121.46,140.31 121.67,139.49 121.87,139.28 122.08,139.08 122.28,138.88 122.49,138.26 122.28,138.06 121.46,136.42 122.28,135.8 122.9,135.8 123.72,135.8 124.54,136.42 124.74,135.6 124.74,134.98 124.74,134.37 124.54,133.75 122.9,133.96 122.08,133.14 120.23,129.25 119.62,124.54 118.6,121.06 116.75,117.98 106.92,107.54 105.08,105.28 102,99.75 98.11,94.84 95.86,92.58 90.94,89.31 90.12,88.49 89.31,86.85 87.87,85.82 84.59,83.98 83.16,82.96 82.55,81.52 82.34,79.89 82.34,78.25 82.14,76.81 81.32,75.99 80.7,75.17 79.88,74.56 79.06,73.54 78.86,72.72 78.65,71.69 78.65,71.69 78.65,70.05 79.27,68.62 79.47,67.19 78.86,65.55 78.04,63.91 73.94,60.43 70.05,56.33 68.41,54.9 62.88,52.23 59.81,51.21 57.15,50.59 55.51,50.59 54.08,50.59 53.05,49.98 52.03,48.96 50.59,46.29 49.57,45.47 47.93,45.27 46.5,45.47 43.83,46.5 42.81,46.7 42.2,46.7 41.38,46.5 40.56,46.29 39.94,45.68 39.12,44.86 38.92,44.86 38.3,44.86 37.48,45.06 36.87,44.86 "/>
   <polygon id="path286" class="fil0" points="47.11,175.95 47.32,174.93 47.11,173.9 46.29,172.88 45.47,172.26 44.45,172.26 43.42,172.26 42.6,171.65 42.6,170.62 42.6,168.78 42.4,167.96 41.79,167.76 41.17,167.55 40.56,167.35 38.1,164.89 37.07,163.25 36.87,161.82 37.07,161.82 38.92,163.45 39.53,163.66 39.53,161 38.1,159.15 36.26,157.72 34.82,155.26 34,152.8 33.39,151.78 31.95,151.58 31.34,151.37 31.95,150.55 32.57,149.73 32.77,149.73 32.57,149.12 32.36,148.5 31.34,146.86 30.72,146.86 30.52,146.25 30.52,145.43 30.32,144.82 30.11,144 29.09,142.97 28.27,142.15 27.45,139.69 26.83,138.67 26.01,137.85 24.99,137.24 23.96,136.62 23.76,135.19 23.56,134.16 22.94,133.14 22.33,132.32 21.71,131.5 22.33,131.3 23.15,131.5 23.76,131.7 23.96,132.32 24.58,130.89 23.96,129.25 22.53,127.81 20.69,127.2 21.3,125.77 20.28,125.77 17.21,126.38 16.39,126.59 14.75,128.22 13.72,128.84 12.29,128.84 10.04,128.02 9.01,127.82 7.58,128.02 6.15,128.22 5.12,128.43 4.51,129.25 3.89,130.27 3.89,131.91 3.89,134.98 3.69,136.62 3.48,138.26 2.05,140.92 0.2,144 -0,145.63 1.02,147.07 1.23,147.68 2.66,150.14 2.66,150.76 2.46,151.37 2.66,151.98 2.87,152.19 3.89,152.8 15.16,168.99 16.59,171.65 15.98,174.31 16.18,174.52 17,175.13 17.2,175.34 20.28,179.23 21.1,179.84 25.4,181.69 27.04,183.53 35.23,187.63 36.25,187.83 37.28,187.22 38.3,186.6 39.33,185.99 40.35,185.37 42.2,185.37 43.83,185.58 44.65,185.78 45.47,185.17 45.47,184.14 44.86,181.48 42.4,175.95 41.58,175.13 42.2,175.13 42.81,174.93 43.63,174.31 45.47,176.97 46.09,178 46.91,182.71 47.93,181.28 48.14,179.02 47.52,176.77 "/>
   <polygon id="path290" class="fil0" points="85.41,221.83 84.8,221.22 82.96,219.58 82.34,219.58 82.14,219.37 82.14,219.17 82.14,218.35 82.14,218.15 78.25,212.61 77.22,210.36 77.02,207.7 76.4,206.27 75.58,205.45 74.15,205.24 73.33,204.42 72.71,203.4 71.89,202.78 69.44,202.58 67.18,203.6 66.16,205.86 66.16,208.52 67.18,209.95 67.18,210.77 66.57,210.98 65.55,210.77 65.34,210.77 65.14,211.59 65.34,212.41 66.98,214.25 67.8,216.51 68.41,217.12 69.03,216.3 69.64,216.3 69.64,217.12 69.85,217.33 70.05,217.53 70.26,216.92 71.08,217.74 70.87,218.35 70.26,219.17 70.26,219.99 70.87,219.99 73.53,219.99 74.97,220.19 75.99,221.22 76.81,222.24 77.84,223.06 78.65,223.27 80.29,223.27 81.11,223.47 81.93,224.09 82.55,224.7 83.16,225.31 83.98,225.52 85.62,225.52 86.44,225.72 86.64,227.36 87.26,227.57 87.87,227.57 88.08,226.75 88.08,227.36 88.08,225.93 87.46,224.29 "/>
   <polygon id="path294" class="fil0" points="112.25,249.69 112.04,248.66 110.4,247.23 109.79,246.41 109.58,245.39 108.56,244.57 106.1,243.95 105.49,243.13 103.85,241.49 100.37,238.01 99.55,237.81 98.93,236.78 98.11,235.96 96.68,235.35 96.07,235.96 95.45,237.6 94.84,240.06 94.84,240.68 95.45,242.11 96.07,243.13 96.07,243.75 95.45,244.57 96.88,245.39 97.5,246.21 97.7,247.64 97.91,249.89 96.88,253.78 96.88,255.42 97.91,255.42 98.11,256.45 98.11,258.91 98.73,259.93 99.75,260.54 100.37,259.93 100.98,259.11 101.19,258.09 102.21,258.7 103.85,259.52 105.69,259.73 107.33,259.11 107.54,258.29 108.15,256.65 108.77,255.63 109.59,255.42 111.84,254.81 112.66,254.19 112.86,253.37 112.66,252.35 112.45,251.33 "/>
   <polygon id="path298" class="fil0" points="125.56,283.9 125.56,283.28 125.77,282.67 125.77,282.05 124.74,281.85 124.13,281.64 124.74,281.03 126.18,280 126.79,280.62 127.61,280.62 128.43,280.62 129.04,280 130.48,280.21 131.09,279.18 131.09,277.34 130.89,275.91 131.09,274.88 131.09,273.86 130.89,272.22 127,268.94 125.15,265.46 122.9,264.03 118.8,259.73 118.6,259.52 117.98,259.52 117.78,259.32 117.16,259.11 115.73,256.86 115.52,256.24 114.91,256.04 113.89,255.42 111.43,256.86 110.61,257.68 110.61,259.32 112.04,264.23 112.04,265.87 112.04,266.48 111.22,267.51 111.22,268.33 111.43,269.15 112.25,270.17 112.45,270.99 113.07,271.81 115.32,274.47 115.93,275.09 115.73,276.11 116.34,276.32 117.78,276.32 118.8,276.52 122.28,280 122.28,280.62 121.67,282.05 121.67,282.67 122.28,284.1 123.1,285.12 123.31,285.74 123.1,286.35 122.49,286.15 122.28,286.15 122.08,285.53 121.87,285.33 121.67,285.33 121.67,286.35 121.87,286.97 123.51,287.99 123.72,288.2 124.33,288.2 124.54,288.2 124.74,288.81 124.74,290.25 124.74,290.45 125.36,290.65 126.79,291.47 127.61,291.68 128.43,292.5 129.86,294.14 130.68,294.75 131.71,293.32 130.89,291.47 128.22,287.99 127.2,286.35 "/>
   <polygon id="path302" class="fil0" points="133.14,279.8 132.12,280.82 132.12,282.26 133.14,283.69 134.57,283.89 135.19,283.69 133.75,282.05 133.14,281.03 "/>
  </g>
 </g>
</svg>
