<?xml version="1.0" encoding="UTF-8"?>
<!DOCTYPE svg PUBLIC "-//W3C//DTD SVG 1.1//EN" "http://www.w3.org/Graphics/SVG/1.1/DTD/svg11.dtd">
<!-- Creator: CorelDRAW 2018 (64-Bit) -->
<svg xmlns="http://www.w3.org/2000/svg" xml:space="preserve" width="2.61623in" height="3.11176in" version="1.1" style="shape-rendering:geometricPrecision; text-rendering:geometricPrecision; image-rendering:optimizeQuality; fill-rule:evenodd; clip-rule:evenodd"
viewBox="0 0 285.29 339.32"
 xmlns:xlink="http://www.w3.org/1999/xlink">
 <defs>
  <style type="text/css">
   <![CDATA[
    .fil0 {fill:#5C67AE}
   ]]>
  </style>
 </defs>
 <g id="Layer_x0020_1">
  <metadata id="CorelCorpID_0Corel-Layer"/>
  <g id="AC_1_">
   <polygon id="Aceh" class="fil0" points="268.9,303.72 268.13,302.96 267.62,302.7 266.85,302.7 266.08,301.93 265.57,300.91 263.52,294.76 262.75,290.66 262.75,289.64 263.01,288.61 263.77,286.82 263.77,286.31 263.77,284.52 264.03,283.75 265.82,282.72 266.59,281.7 266.85,281.19 266.59,280.42 265.57,278.63 264.8,276.07 264.54,274.53 264.8,272.99 265.05,272.22 265.82,271.2 265.57,270.18 264.8,268.9 263.77,268.38 262.49,267.87 260.96,267.1 259.93,266.34 257.63,263.01 256.86,262.24 254.81,261.98 253.79,261.73 253.27,260.96 252.76,260.19 252.51,259.16 253.27,255.58 251.74,248.66 251.23,247.38 251.23,246.62 251.48,246.62 252.25,246.36 253.53,246.62 254.3,246.62 255.32,246.36 255.58,243.54 255.32,242.52 254.81,241.49 252.76,238.42 252.51,237.4 252.25,236.12 251.74,235.09 251.48,234.32 250.71,233.56 249.43,232.28 248.66,231.25 249.43,230.48 250.71,230.23 256.35,228.95 258.4,227.41 259.68,224.85 258.65,222.03 257.88,221.78 254.56,219.21 253.53,218.19 253.27,217.17 252.51,215.89 252.25,214.86 252.25,213.84 252.76,212.56 253.27,211.53 252.76,210.76 251.48,209.48 250.71,208.46 250.2,206.67 249.69,205.64 249.18,204.62 248.66,204.36 248.15,203.85 247.13,203.34 246.36,201.8 245.08,197.19 244.06,195.14 241.49,191.56 241.24,190.28 241.24,189.51 241.49,188.48 242.26,188.23 243.03,187.46 249.69,182.08 251.23,179.78 251.23,179.01 250.71,178.24 250.46,176.7 251.23,173.89 252.76,175.17 253.79,175.17 254.56,174.91 254.81,174.14 255.32,173.63 255.84,172.61 256.86,171.58 259.42,169.53 260.7,168 261.47,166.72 261.73,165.44 261.98,163.64 262.49,161.85 262.75,160.83 263.52,157.5 264.54,154.68 265.57,150.58 266.08,149.56 266.85,149.05 267.1,148.02 266.85,147 266.08,145.46 266.08,144.44 267.1,144.18 269.66,144.18 270.69,143.92 271.71,143.16 272.74,141.88 273.25,141.36 276.07,140.85 277.09,140.85 283.49,141.36 284.01,141.36 284.01,141.11 285.29,134.7 285.03,130.09 284.52,129.58 284.01,128.81 282.47,127.79 281.44,126.77 279.91,124.46 278.37,122.92 278.12,123.44 277.35,123.69 277.35,124.46 276.84,124.46 276.07,122.41 274.27,120.88 272.74,119.85 270.69,119.6 269.92,119.6 268.9,119.85 268.64,119.85 267.87,119.6 267.62,119.34 267.1,118.83 265.82,118.31 265.05,118.31 264.8,119.6 264.03,118.31 262.75,118.31 260.45,118.83 259.93,118.31 260.45,116.78 260.96,114.47 261.47,112.17 260.96,111.14 258.91,107.3 258.4,105 257.37,97.83 256.6,96.03 252.51,88.86 251.48,87.58 249.43,86.56 245.59,84.77 231.25,72.73 219.47,58.13 216.65,57.36 194.37,65.3 192.84,65.56 190.28,65.56 188.74,65.3 187.97,64.28 186.69,60.95 184.13,58.39 180.55,56.85 176.7,56.08 170.81,55.32 166.72,55.83 165.44,56.34 164.16,56.34 160.31,55.06 158.27,54.8 154.94,55.32 145.97,59.41 142.9,60.44 135.73,61.21 132.4,60.95 130.35,60.18 128.56,59.16 126.77,58.9 125.23,59.41 123.69,60.18 121.64,60.44 117.55,59.41 116.27,59.16 112.94,57.11 111.4,56.85 97.06,54.8 93.73,53.78 90.91,51.99 80.16,43.02 77.6,39.95 77.08,36.37 76.32,34.57 75.04,33.8 73.5,33.8 72.22,33.29 65.3,29.2 52.5,24.59 49.43,24.33 45.59,25.1 44.56,26.12 43.54,26.63 42.77,26.38 42.26,26.12 40.46,25.1 38.16,22.54 36.62,22.28 35.09,22.54 31.24,25.1 30.22,25.35 29.2,25.61 28.17,26.12 26.38,27.15 25.87,27.66 24.07,28.68 23.31,29.2 22.79,29.2 21.77,29.2 21,28.68 19.98,29.2 18.7,28.68 17.67,29.45 16.13,31.5 16.9,32.78 18.7,35.34 18.7,36.62 19.72,37.9 20.23,38.93 19.21,39.95 20.74,42 21,43.54 21,44.82 20.23,46.1 19.21,47.89 19.21,49.17 18.18,50.96 16.9,52.24 16.13,53.78 18.18,54.29 19.21,54.8 19.98,55.83 20.23,57.11 20.23,58.13 20.74,59.16 21.26,59.93 22.79,60.95 24.33,62.49 25.35,64.28 25.1,66.33 23.31,68.63 24.84,69.15 25.87,70.43 26.38,71.71 27.15,73.24 28.43,74.52 29.45,75.8 32.27,82.72 32.52,85.02 34.06,87.07 34.32,89.12 35.34,91.17 36.11,92.71 36.11,93.73 36.11,93.99 36.37,94.24 37.13,95.27 37.39,95.78 39.18,97.06 39.69,97.83 41.74,100.13 43.79,104.23 44.82,105.51 47.38,107.56 47.89,107.56 48.4,107.56 48.91,107.56 49.43,108.33 48.91,109.1 47.89,109.61 47.89,110.12 48.4,111.14 49.43,111.14 51.48,111.14 52.76,111.66 56.08,115.75 62.23,120.36 65.05,124.46 69.4,127.53 70.17,128.81 77.6,136.24 87.33,147 88.86,147.51 90.66,148.02 91.94,148.53 96.03,153.66 97.06,154.42 97.57,154.42 98.08,154.17 99.11,154.17 100.13,154.17 100.9,154.42 101.67,154.68 102.95,155.45 103.21,155.7 103.97,156.47 104.23,157.75 104.74,158.26 110.38,164.41 123.69,181.82 127.79,185.92 131.63,187.97 134.96,188.48 152.37,188.23 154.17,189 156.47,190.53 157.5,191.04 158.52,191.3 159.29,191.56 159.55,192.07 161.59,193.35 162.36,193.61 163.39,194.12 164.16,195.4 165.18,198.47 166.46,200.78 173.37,205.9 174.91,207.95 187.97,230.23 188.23,231.51 189.25,232.28 191.3,232.53 194.37,233.04 196.93,235.09 198.21,238.17 199.5,245.59 200.52,248.41 202.31,250.97 208.71,258.65 210.25,259.93 211.79,260.19 213.84,260.7 215.63,261.21 219.98,263.26 223.82,264.29 225.1,264.8 225.87,265.31 226.64,266.85 229.71,282.47 230.99,294.76 230.74,305.01 231.25,306.8 232.28,308.08 235.09,310.89 238.17,316.27 239.45,317.3 240.47,317.04 242.01,316.53 242.52,316.53 243.29,317.04 244.06,318.07 244.57,318.32 245.59,317.55 247.38,319.09 249.18,319.35 250.2,319.09 254.81,317.3 256.6,317.3 258.91,319.6 268.64,323.7 269.66,324.47 270.94,308.59 269.66,305.77 "/>
   <polygon id="path246" class="fil0" points="14.6,24.59 12.55,21.77 11.52,21 10.76,22.79 10.5,23.56 9.48,24.33 8.71,25.1 8.71,26.12 9.73,26.38 10.76,26.38 11.78,26.63 12.81,27.4 13.06,26.63 13.83,26.38 14.86,26.12 15.62,26.38 "/>
   <polygon id="path250" class="fil0" points="8.96,17.16 9.73,17.93 7.94,16.65 5.89,14.85 4.1,13.57 1.79,13.32 1.02,13.57 -0,14.6 0,15.11 1.03,15.37 1.79,15.37 2.56,15.11 3.33,15.11 4.35,15.37 4.35,16.13 3.33,16.9 3.59,17.16 3.84,17.42 3.84,18.18 3.59,18.95 3.33,19.21 3.33,19.46 4.35,19.46 4.1,20.49 4.1,20.74 4.35,21.77 7.43,19.46 9.73,20.74 10.5,19.72 10.76,18.7 9.99,17.93 "/>
   <polygon id="path254" class="fil0" points="28.94,1.03 27.66,1.03 26.63,1.79 25.87,3.07 25.1,4.35 23.82,4.35 22.79,3.33 21.77,1.02 20.74,0.26 19.72,0 17.67,0 17.67,0.77 18.44,2.05 19.46,3.33 21.26,4.61 22.03,5.89 22.79,7.17 23.05,8.45 24.33,9.48 25.61,10.25 26.89,11.01 28.68,11.01 29.71,10.76 29.96,9.73 29.96,6.92 31.24,7.68 31.5,7.94 31.76,8.71 32.27,8.71 32.27,5.63 29.45,1.79 "/>
   <polygon id="path258" class="fil0" points="127.79,304.75 126.77,302.7 124.72,298.35 122.93,296.56 122.16,296.81 121.9,296.56 120.62,295.27 120.62,298.09 120.62,299.37 120.36,300.14 119.08,299.88 118.31,298.6 118.06,296.81 117.8,295.79 115.75,292.97 114.47,291.69 113.19,291.43 111.91,291.18 109.1,289.9 108.07,289.13 100.13,281.96 99.11,282.21 99.11,282.98 100.39,283.75 100.64,284.52 100.39,285.29 100.13,285.03 99.36,284.78 98.34,284.52 97.57,283.75 96.55,283.75 95.27,284.77 95.27,282.73 97.57,279.4 97.32,278.12 95.52,276.84 94.24,275.81 88.86,275.04 86.82,274.27 84.77,272.99 83.49,269.92 80.41,268.13 79.39,266.85 76.32,268.13 76.32,264.8 77.09,264.54 78.88,265.82 78.88,263.01 76.57,261.73 70.68,261.47 70.43,261.21 69.4,260.45 68.63,259.68 68.38,260.7 68.12,261.47 67.1,263.26 67.1,264.03 66.33,265.82 66.33,266.59 66.58,266.85 67.35,267.1 67.61,267.87 67.61,268.64 66.58,268.9 61.72,268.9 60.44,269.92 60.18,271.2 60.18,273.25 60.44,274.27 61.46,274.27 63.25,274.27 64.28,274.27 63.51,275.3 63.51,276.07 64.79,276.84 65.82,277.86 65.56,279.14 68.38,280.93 68.63,281.7 68.38,283.75 68.12,284.78 68.89,285.54 75.04,285.54 76.06,286.31 76.32,287.08 76.32,287.85 76.57,288.87 77.34,289.13 79.13,289.38 80.93,290.66 81.95,290.66 82.72,290.41 83.49,290.41 83.49,290.15 83.74,289.9 84,289.13 84.77,289.38 85.54,290.15 85.79,290.41 88.1,290.41 88.86,290.41 90.91,291.18 92.96,292.2 108.07,303.47 112.17,304.75 113.96,307.57 116.01,308.33 115.24,308.59 114.47,309.62 114.22,309.87 115.24,310.9 116.52,311.66 117.8,311.66 119.08,310.64 122.92,312.69 123.69,312.69 124.72,312.43 127.79,311.41 127.02,311.41 129.07,311.15 129.07,309.87 128.3,308.08 "/>
   <polygon id="path262" class="fil0" points="142.13,329.59 140.85,329.59 140.08,329.84 139.83,330.61 139.57,331.64 139.57,333.69 140.59,334.71 142.39,334.46 144.44,333.17 144.69,332.15 144.69,331.13 143.67,330.36 "/>
   <polygon id="path266" class="fil0" points="186.69,335.74 186.43,334.46 185.92,332.66 184.9,331.64 183.87,330.87 182.08,331.13 181.31,331.38 181.06,332.15 180.03,333.17 179.26,333.17 182.08,339.32 183.36,339.32 184.13,338.55 183.88,337.53 184.13,337.27 185.92,336.25 "/>
   <polygon id="path270" class="fil0" points="202.06,327.8 201.8,326 201.54,324.98 200.26,324.72 198.22,322.68 198.98,321.39 198.22,320.63 196.93,320.63 195.14,320.63 194.12,321.39 193.09,322.16 191.81,322.93 190.53,322.93 189.76,321.14 189.51,320.88 188.74,320.63 188.48,320.63 184.64,321.39 183.36,322.16 183.11,322.93 192.07,326.01 193.86,327.8 194.63,328.57 198.47,332.66 199.5,333.94 200.26,335.22 201.03,336.25 201.29,336.25 201.29,337.02 201.29,338.81 202.06,338.55 202.83,337.78 203.08,337.02 203.34,336.25 203.34,334.2 203.08,332.15 202.83,330.36 "/>
  </g>
 </g>
</svg>
