<?xml version="1.0" encoding="UTF-8"?>
<!DOCTYPE svg PUBLIC "-//W3C//DTD SVG 1.1//EN" "http://www.w3.org/Graphics/SVG/1.1/DTD/svg11.dtd">
<!-- Creator: CorelDRAW 2018 (64-Bit) -->
<svg xmlns="http://www.w3.org/2000/svg" xml:space="preserve" width="2.72662in" height="1.65099in" version="1.1" style="shape-rendering:geometricPrecision; text-rendering:geometricPrecision; image-rendering:optimizeQuality; fill-rule:evenodd; clip-rule:evenodd"
viewBox="0 0 220.17 133.32"
 xmlns:xlink="http://www.w3.org/1999/xlink">
 <defs>
  <style type="text/css">
   <![CDATA[
    .fil0 {fill:#5C67AE}
   ]]>
  </style>
 </defs>
 <g id="Layer_x0020_1">
  <metadata id="CorelCorpID_0Corel-Layer"/>
  <polygon id="JA" class="fil0" points="149.43,0 150.19,0.19 150.95,0.76 151.52,1.52 151.33,2.28 150,3.6 149.82,4.36 152.66,3.79 154.18,3.79 155.5,4.55 156.07,5.5 157.02,7.21 157.78,8.15 158.35,8.15 159.11,8.15 159.3,8.15 159.3,8.34 159.49,8.91 160.05,9.48 160.62,10.05 161.19,10.62 162.52,11.19 163.09,11.95 163.28,12.52 163.47,12.71 165.93,13.28 166.88,14.04 168.21,15.55 169.16,16.12 170.67,16.12 171.62,16.69 172.57,17.26 173.33,18.21 174.28,20.67 174.85,21.43 175.42,18.59 176.74,17.26 178.26,16.5 179.59,15.93 182.43,15.17 183.19,14.98 187.55,17.07 188.88,17.83 189.83,18.4 193.05,18.39 194.38,18.58 198.36,20.86 199.88,21.43 202.34,20.1 203.1,19.91 206.7,18.59 210.5,18.58 210.69,19.15 212.39,25.03 211.64,29.02 211.83,31.48 212.39,33.57 212.96,34.14 214.67,36.41 214.86,37.17 215.43,41.15 215.43,50.82 216,53.67 216.95,56.51 219.41,61.25 220.17,64.1 219.22,64.67 218.65,64.67 217.89,64.48 217.32,64.29 215.24,62.77 213.53,61.82 212.58,61.63 211.64,61.63 211.07,62.2 210.5,62.39 210.31,63.15 208.6,67.51 207.84,68.27 206.89,69.03 201.39,70.55 197.41,71.11 194.38,70.93 183.57,68.46 181.1,68.27 179.02,68.84 156.26,80.03 155.31,80.79 155.88,82.11 155.12,89.89 155.31,91.98 156.07,93.49 156.26,93.68 157.02,94.44 157.21,95.01 157.21,95.2 157.02,95.77 156.45,96.34 155.5,96.91 154.55,97.1 152.09,97.29 151.52,97.48 150.95,98.05 150.76,98.8 150.76,99.56 150.76,100.13 151.52,103.17 151.52,104.87 151.52,105.44 151.52,106.01 151.52,106.2 151.52,106.39 151.52,106.96 151.52,107.53 151.52,108.1 151.33,108.29 150.76,108.28 150,108.28 148.68,107.71 141.28,100.7 140.71,99.75 140.14,98.23 139.19,95.96 138.25,95.01 137.68,94.25 136.73,94.06 135.4,94.63 134.07,97.09 133.13,98.61 132.56,99.94 132.56,100.89 133.13,101.65 133.69,102.4 134.26,103.16 134.83,103.92 135.02,104.87 134.83,105.63 134.64,106.39 133.89,106.96 131.04,107.9 129.71,108.09 128.01,107.53 124.78,106.01 122.7,106.96 120.99,106.77 118.71,106.01 116.63,105.82 114.92,105.25 113.59,105.06 112.84,105.25 112.08,105.82 111.51,106.77 111.32,108.09 111.51,108.85 111.7,109.61 112.46,110.18 112.64,110.75 112.83,111.51 112.64,112.27 108.09,119.09 107.33,120.04 106.39,120.99 105.06,121.56 104.3,121.75 104.11,121.56 103.92,121.37 103.35,121.37 102.03,122.7 101.08,123.45 98.04,124.97 97.09,125.92 96.53,126.68 95.96,127.63 95.39,128.2 94.44,128.76 90.46,128.95 89.51,129.52 88.56,129.71 87.61,129.71 86.1,129.52 84.39,128.95 82.87,128.19 79.84,126.49 76.61,125.54 74.15,123.83 72.44,126.87 69.22,128.95 67.89,129.71 65.05,130.28 64.29,130.85 61.82,133.32 61.82,133.32 61.25,132.75 59.55,132.56 58.79,131.99 57.27,131.04 55,130.28 54.24,130.28 53.67,130.28 52.34,130.85 51.58,130.85 50.82,130.66 49.5,129.14 48.74,128.39 47.22,127.82 46.27,127.63 42.67,125.92 40.39,124.21 38.12,121.94 36.79,119.66 34.52,117.58 33.95,116.06 33.38,115.3 32.43,114.35 30.34,113.59 29.58,113.02 29.01,112.08 27.31,105.82 26.36,104.11 26.17,103.16 26.17,102.97 25.6,102.4 24.84,101.84 23.89,101.27 22.38,99.75 21.81,99.18 21.24,98.61 20.67,98.42 19.34,98.42 14.03,102.22 14.03,102.22 11.76,94.63 9.29,88.37 8.34,86.86 7.78,85.91 5.69,84.39 4.74,83.44 3.41,81.74 1.71,78.13 0.76,74.53 0.19,70.74 -0,64.1 2.28,64.67 3.6,64.48 4.55,65.05 5.88,65.62 7.21,65.81 18.58,64.1 19.53,64.86 21.62,65.05 22.38,64.86 23.33,64.1 24.84,61.64 26.17,60.12 28.63,57.84 33.94,54.05 35.46,52.34 36.22,51.39 36.98,49.31 36.98,48.74 36.79,48.17 36.22,47.6 36.22,46.84 36.98,45.14 36.98,44.38 35.65,40.58 35.84,38.88 36.41,37.55 36.98,36.79 37.55,36.6 38.12,36.6 38.69,36.6 40.96,36.03 42.67,35.27 44,34.32 45.51,32.24 46.46,30.72 47.03,29.39 47.22,28.64 47.03,28.45 46.84,28.26 46.65,28.45 46.08,28.45 45.51,28.45 44.19,27.88 43.24,27.31 43.43,25.79 43.43,24.27 43.24,22.76 42.48,21.24 42.48,21.24 49.87,18.78 50.44,18.59 51.01,18.02 51.58,17.45 52.15,15.93 52.72,15.17 52.91,14.6 53.48,13.84 54.81,12.52 56.32,11.57 56.89,11.38 57.46,11.19 58.03,11.19 58.79,11 62.58,11.19 65.81,10.62 66.75,10.43 68.46,9.67 69.22,9.48 69.98,9.48 70.74,9.48 73.58,10.24 74.15,10.43 74.72,11 75.29,11.95 75.86,13.46 76.05,14.03 79.65,17.07 80.22,17.83 80.41,18.4 80.6,19.15 80.6,19.34 81.17,19.34 82.68,19.91 83.44,20.1 84.01,20.67 84.58,21.24 85.34,22.19 86.1,22.76 87.42,23.33 93.3,24.65 94.82,24.46 95.58,23.52 96.91,19.91 97.1,19.15 99.18,17.83 99.75,17.64 100.32,17.07 100.89,16.12 101.84,14.41 102.03,13.66 102.6,13.09 103.16,12.52 105.25,11 105.82,10.43 108.29,7.4 109.04,6.64 109.8,6.07 110.56,5.5 117.96,3.41 120.8,3.41 129.9,4.17 150.95,2.66 "/>
 </g>
</svg>
