<?xml version="1.0" encoding="UTF-8"?>
<!DOCTYPE svg PUBLIC "-//W3C//DTD SVG 1.1//EN" "http://www.w3.org/Graphics/SVG/1.1/DTD/svg11.dtd">
<!-- Creator: CorelDRAW 2018 (64-Bit) -->
<svg xmlns="http://www.w3.org/2000/svg" xml:space="preserve" width="2.49299in" height="1.93112in" version="1.1" style="shape-rendering:geometricPrecision; text-rendering:geometricPrecision; image-rendering:optimizeQuality; fill-rule:evenodd; clip-rule:evenodd"
viewBox="0 0 136.25 105.54"
 xmlns:xlink="http://www.w3.org/1999/xlink">
 <defs>
  <style type="text/css">
   <![CDATA[
    .str0 {stroke:gray;stroke-width:0.65;stroke-linecap:round;stroke-miterlimit:2.61313}
    .fil1 {fill:none}
    .fil0 {fill:#5C67AE}
   ]]>
  </style>
 </defs>
 <g id="Layer_x0020_1">
  <metadata id="CorelCorpID_0Corel-Layer"/>
  <g id="JT">
   <g>
    <path id="path1166_3_" class="fil0" d="M12.79 78.91l1.03 -0.51 0.39 -0.13 0.64 -0.13 0.39 0.9 0.39 2.05 0.51 0.51 0.64 0.39 1.03 0 0.9 0.13 0.51 0 0.51 0.13 1.41 1.16 0.38 0 0.51 -0.51 3.21 -1.16 3.72 -0.39 7.57 1.16 1.41 0.39 0 0.13 0 0.13 -0.13 0.51 -0.13 0.39 0.39 0.13 0.13 0.13 0.38 0 0.13 0.39 0.39 0.39 0.9 -0 1.67 -0.51 7.57 0.9 4.11 1.41 2.57 0.51 1.54 0.51 1.67 0.51 1.03 -0.39 1.03 0.77 4.49 1.41 0.39 0.13 0.13 -0.9 0.13 -0.51 0.64 -0.64 2.18 -3.47 0.39 -0.64 0.13 -0.9 0 -1.16 0.13 -0.51 0.13 -0.39 1.03 -0.51 2.7 0.39 0.39 0 0.13 0 0.39 -0.13 0.13 0 0.13 0.39 0.13 1.03 0.13 0.51 0.13 0 0.39 -0.39 0.9 -1.03 0.51 -0.51 4.75 -3.59 1.16 -1.16 0.13 0.39 1.54 6.67 0.64 1.54 0.64 1.16 1.41 1.16 1.67 0.39 2.44 -0 0.9 0.13 1.54 -0.13 0.9 0.39 2.05 0.13 0.9 0.51 0.39 0.51 0.13 0.39 0 0.51 0.13 2.05 0.13 1.16 0.13 7.57 0.13 0.51 0.39 0.39 0.39 -0.13 0.39 -0.13 0.39 -0 0.13 0 0.51 2.95 3.59 0.9 0.64 0 0.64 -2.05 0 -0.39 0 -0.39 -0.13 -1.03 0.13 -0.39 0.13 -0.39 0.64 -0.64 0.9 -0.64 1.54 -1.03 2.7 -2.44 2.18 -1.16 1.16 -0.51 0.64 -0.51 1.03 -0.64 0.51 -0.13 0.39 0.13 0.39 0.13 0.39 0.39 0.51 0 0.51 -0.39 0.13 -0.13 0.13 -1.54 0.9 -1.93 0.13 -1.03 0.13 -1.67 -0.13 -0.64 -0.13 -0.51 -0.51 -0.51 -1.16 -1.16 -0.39 -0.51 -0.51 -0.13 -1.54 0 -0.9 -0.51 0 -0.64 0 -0.64 -0.13 -0.51 -0.13 -0.13 0 -0.39 0.13 -0.39 1.16 -0.9 0.13 -0.51 -0.51 -0.51 -0.39 -0.64 -0.51 -2.44 0.64 -5.52 0 -0.9 -0.13 -1.16 0 -2.05 0.39 -1.93 0.64 -0.64 1.16 0.13 0.64 0.51 0.64 0.13 0.51 -0.13 0.38 0 0.39 -0.13 0.39 0.13 0.51 0.39 0.64 0.39 2.7 0.9 1.67 0.39 0 -0.51 0.13 -0.39 0.39 -0.51 0.13 -0.13 0.13 -0.13 0.39 -0.39 1.03 -0.51 1.16 -0.9 0.64 -0.64 0.51 -0.64 1.93 -1.54 0.64 -0.51 0.13 -0.39 -0.13 -0.51 -0.39 -1.67 -0.13 -0.51 0.13 -1.54 -0 -4.62 0.13 -1.16 0.64 -3.98 0 -0.9 0.39 -1.03 1.67 -2.7 -0.51 -1.03 -1.54 -1.67 -0.39 -0.51 -1.54 -0.51 -2.44 -0.51 -1.16 -0.64 -0.64 0.64 -1.54 2.05 -0.64 0.51 -0.9 0.13 -1.93 0.39 0 0 -8.09 -0.9 -0.38 0 -0.13 0 -0.39 -0.13 -0.9 -1.67 -1.54 -4.62 -0.9 -1.41 -0.13 -1.93 -0.39 -0.51 -0.51 -0.39 -0.51 -0.51 -0.39 -0.51 -0.39 -0.13 -0.13 0.39 -0.39 0.13 -0.38 0 -0.9 0 -0.51 -0.13 -1.16 -0.9 -0.39 -0.13 -1.03 0.13 -2.7 0.39 -0.39 0.13 -0.64 0.39 -0.39 0.13 -1.16 0.13 -2.18 0.9 -0.51 0.39 -0.64 1.03 -0.51 0.39 -0.9 0.13 0.51 1.03 -0.13 0.51 -0.51 0.51 -0.13 0.9 0 1.67 -0.39 1.67 -0.51 1.93 -3.21 6.55 -1.93 2.57 -1.67 1.93 -0.64 0.39 -0.64 0.13 -1.03 0.13 -0.9 0.13 -0.64 0.51 -0.64 0.39 -1.16 -0.13 -0.9 -0.51 -1.93 -1.41 -1.41 -0.39 -2.05 -1.03 -0.64 -0.39 -0.13 -0.51 -0.13 -0.39 0 -0.51 -0.51 -0.13 -0.39 0.13 -0.9 1.03 0 0.13 -0.51 0.51 -1.03 0.13 -5.78 0.9 -1.92 0 -1.93 -0.13 -7.57 -2.44 -8.34 -1.16 -1.67 -1.54 -2.44 2.57 -3.72 0.64 -7.7 -0.9 -1.03 -0 -0.39 0 -1.16 -0.64 -1.03 -0.39 -1.67 -1.41 -0.51 -0.13 -1.03 -0.39 -0.9 0 -0.39 0.64 0 1.03 -0.39 0.51 -0.64 0.39 -1.03 0 -1.03 -0.13 -0.39 -0.39 -0.9 -0.9 -3.08 3.47 -1.03 1.67 -0.13 0.64 -0.39 2.18 0.13 1.16 0 0.9 -0.13 0.51 -0.39 0.51 -0.51 0.51 -0.51 0.64 -0.51 0.51 -1.16 0.9 -0.51 0.13 -0.51 0.39 -1.03 -0 -1.67 -0.39 -0.64 0.13 -0.9 0.13 -0.51 0.39 -0.39 0.51 -0.13 0.64 0 1.03 -1.16 3.47 0.39 1.41 1.16 0.39 1.03 0.13 0.39 0.64 0.13 0.39 0.51 0.13 1.03 -0.39 0.51 0 0.13 0.13 0.13 0.51 0.13 1.03 0.39 0.13 0.51 0 0.51 0.39 0.13 0.13 0.13 0.51 0.13 0.51 0.13 1.93 0.9 3.21 0 0.64 0 0.51 -0.13 0.64 -0.13 0.51 0 0.51 0.13 0.39 0.13 0.13 2.57 2.18 0.39 -0.39 0.51 -0.9 0.64 0.38zm0 0l0 0 0 0z"/>
    <path id="1" class="fil1 str0" d="M12.79 78.91l1.03 -0.51 0.39 -0.13 0.64 -0.13 0.39 0.9 0.39 2.05 0.51 0.51 0.64 0.39 1.03 0 0.9 0.13 0.51 0 0.51 0.13 1.41 1.16 0.38 0 0.51 -0.51 3.21 -1.16 3.72 -0.39 7.57 1.16 1.41 0.39 0 0.13 0 0.13 -0.13 0.51 -0.13 0.39 0.39 0.13 0.13 0.13 0.38 0 0.13 0.39 0.39 0.39 0.9 -0 1.67 -0.51 7.57 0.9 4.11 1.41 2.57 0.51 1.54 0.51 1.67 0.51 1.03 -0.39 1.03 0.77 4.49 1.41 0.39 0.13 0.13 -0.9 0.13 -0.51 0.64 -0.64 2.18 -3.47 0.39 -0.64 0.13 -0.9 0 -1.16 0.13 -0.51 0.13 -0.39 1.03 -0.51 2.7 0.39 0.39 0 0.13 0 0.39 -0.13 0.13 0 0.13 0.39 0.13 1.03 0.13 0.51 0.13 0 0.39 -0.39 0.9 -1.03 0.51 -0.51 4.75 -3.59 1.16 -1.16 0.13 0.39 1.54 6.67 0.64 1.54 0.64 1.16 1.41 1.16 1.67 0.39 2.44 -0 0.9 0.13 1.54 -0.13 0.9 0.39 2.05 0.13 0.9 0.51 0.39 0.51 0.13 0.39 0 0.51 0.13 2.05 0.13 1.16 0.13 7.57 0.13 0.51 0.39 0.39 0.39 -0.13 0.39 -0.13 0.39 -0 0.13 0 0.51 2.95 3.59 0.9 0.64 0 0.64 -2.05 0 -0.39 0 -0.39 -0.13 -1.03 0.13 -0.39 0.13 -0.39 0.64 -0.64 0.9 -0.64 1.54 -1.03 2.7 -2.44 2.18 -1.16 1.16 -0.51 0.64 -0.51 1.03 -0.64 0.51 -0.13 0.39 0.13 0.39 0.13 0.39 0.39 0.51 0 0.51 -0.39 0.13 -0.13 0.13 -1.54 0.9 -1.93 0.13 -1.03 0.13 -1.67 -0.13 -0.64 -0.13 -0.51 -0.51 -0.51 -1.16 -1.16 -0.39 -0.51 -0.51 -0.13 -1.54 0 -0.9 -0.51 0 -0.64 0 -0.64 -0.13 -0.51 -0.13 -0.13 0 -0.39 0.13 -0.39 1.16 -0.9 0.13 -0.51 -0.51 -0.51 -0.39 -0.64 -0.51 -2.44 0.64 -5.52 0 -0.9 -0.13 -1.16 0 -2.05 0.39 -1.93 0.64 -0.64 1.16 0.13 0.64 0.51 0.64 0.13 0.51 -0.13 0.38 0 0.39 -0.13 0.39 0.13 0.51 0.39 0.64 0.39 2.7 0.9 1.67 0.39 0 -0.51 0.13 -0.39 0.39 -0.51 0.13 -0.13 0.13 -0.13 0.39 -0.39 1.03 -0.51 1.16 -0.9 0.64 -0.64 0.51 -0.64 1.93 -1.54 0.64 -0.51 0.13 -0.39 -0.13 -0.51 -0.39 -1.67 -0.13 -0.51 0.13 -1.54 -0 -4.62 0.13 -1.16 0.64 -3.98 0 -0.9 0.39 -1.03 1.67 -2.7 -0.51 -1.03 -1.54 -1.67 -0.39 -0.51 -1.54 -0.51 -2.44 -0.51 -1.16 -0.64 -0.64 0.64 -1.54 2.05 -0.64 0.51 -0.9 0.13 -1.93 0.39 0 0 -8.09 -0.9 -0.38 0 -0.13 0 -0.39 -0.13 -0.9 -1.67 -1.54 -4.62 -0.9 -1.41 -0.13 -1.93 -0.39 -0.51 -0.51 -0.39 -0.51 -0.51 -0.39 -0.51 -0.39 -0.13 -0.13 0.39 -0.39 0.13 -0.38 0 -0.9 0 -0.51 -0.13 -1.16 -0.9 -0.39 -0.13 -1.03 0.13 -2.7 0.39 -0.39 0.13 -0.64 0.39 -0.39 0.13 -1.16 0.13 -2.18 0.9 -0.51 0.39 -0.64 1.03 -0.51 0.39 -0.9 0.13 0.51 1.03 -0.13 0.51 -0.51 0.51 -0.13 0.9 0 1.67 -0.39 1.67 -0.51 1.93 -3.21 6.55 -1.93 2.57 -1.67 1.93 -0.64 0.39 -0.64 0.13 -1.03 0.13 -0.9 0.13 -0.64 0.51 -0.64 0.39 -1.16 -0.13 -0.9 -0.51 -1.93 -1.41 -1.41 -0.39 -2.05 -1.03 -0.64 -0.39 -0.13 -0.51 -0.13 -0.39 0 -0.51 -0.51 -0.13 -0.39 0.13 -0.9 1.03 0 0.13 -0.51 0.51 -1.03 0.13 -5.78 0.9 -1.92 0 -1.93 -0.13 -7.57 -2.44 -8.34 -1.16 -1.67 -1.54 -2.44 2.57 -3.72 0.64 -7.7 -0.9 -1.03 -0 -0.39 0 -1.16 -0.64 -1.03 -0.39 -1.67 -1.41 -0.51 -0.13 -1.03 -0.39 -0.9 0 -0.39 0.64 0 1.03 -0.39 0.51 -0.64 0.39 -1.03 0 -1.03 -0.13 -0.39 -0.39 -0.9 -0.9 -3.08 3.47 -1.03 1.67 -0.13 0.64 -0.39 2.18 0.13 1.16 0 0.9 -0.13 0.51 -0.39 0.51 -0.51 0.51 -0.51 0.64 -0.51 0.51 -1.16 0.9 -0.51 0.13 -0.51 0.39 -1.03 -0 -1.67 -0.39 -0.64 0.13 -0.9 0.13 -0.51 0.39 -0.39 0.51 -0.13 0.64 0 1.03 -1.16 3.47 0.39 1.41 1.16 0.39 1.03 0.13 0.39 0.64 0.13 0.39 0.51 0.13 1.03 -0.39 0.51 0 0.13 0.13 0.13 0.51 0.13 1.03 0.39 0.13 0.51 0 0.51 0.39 0.13 0.13 0.13 0.51 0.13 0.51 0.13 1.93 0.9 3.21 0 0.64 0 0.51 -0.13 0.64 -0.13 0.51 0 0.51 0.13 0.39 0.13 0.13 2.57 2.18 0.39 -0.39 0.51 -0.9m0.64 0.38l0 0 0 0z"/>
   </g>
   <polygon id="path526" class="fil0 str0" points="21.26,84.43 20.88,84.04 18.44,82.88 17.02,82.37 14.84,81.99 12.66,80.96 12.02,81.34 11.51,81.99 11.51,82.63 11.63,83.27 12.28,83.4 14.2,83.27 14.84,83.4 15.36,83.78 17.92,84.17 20.36,85.07 21.52,85.2 21.9,85.32 22.29,85.32 22.42,84.81 22.29,84.43 21.39,84.43 "/>
   <polygon id="path1054" class="fil0 str0" points="83,0.48 82.49,0.87 82.49,1.25 82.61,1.64 82.74,2.15 83.13,2.54 83.64,2.15 84.28,1.51 84.28,0.87 84.15,0.35 "/>
   <g>
    <path id="path1166_2_" class="fil0" d="M12.53 79.29l0.39 -0.39 -0.39 0.39zm0 0l0 0 0 0z"/>
    <path id="1" class="fil1 str0" d="M12.53 79.29l0.39 -0.39m-0.39 0.39l0 0 0 0z"/>
   </g>
  </g>
 </g>
</svg>
