<?xml version="1.0" encoding="UTF-8"?>
<!DOCTYPE svg PUBLIC "-//W3C//DTD SVG 1.1//EN" "http://www.w3.org/Graphics/SVG/1.1/DTD/svg11.dtd">
<!-- Creator: CorelDRAW 2018 (64-Bit) -->
<svg xmlns="http://www.w3.org/2000/svg" xml:space="preserve" width="4.18034in" height="3.96661in" version="1.1" style="shape-rendering:geometricPrecision; text-rendering:geometricPrecision; image-rendering:optimizeQuality; fill-rule:evenodd; clip-rule:evenodd"
viewBox="0 0 323.58 307.04"
 xmlns:xlink="http://www.w3.org/1999/xlink">
 <defs>
  <style type="text/css">
   <![CDATA[
    .fil0 {fill:#5C67AE}
   ]]>
  </style>
 </defs>
 <g id="Layer_x0020_1">
  <metadata id="CorelCorpID_0Corel-Layer"/>
  <g id="KI">
   <path id="path1218_2_" class="fil0" d="M172.88 307.04l-0.55 0 -6 -2.18 -4.91 -0.91 -14.36 -0.73 -2 -0.55 -5.27 -0.18 -1.27 -0.18 -1.64 -0.91 -0.73 0.18 -0.55 0.18 -1.27 0.91 -0.73 0.55 -1.45 0.55 -0.18 0.55 -0.18 0.73 -0.18 0.73 -0.73 0.18 -1.45 0.55 -0.55 -0.18 -0.18 -0.18 -0.55 -0.91 -0.18 -0.55 0 -0.54 -0.73 -3.64 -1.45 -4.36 -0.18 -1.27 0.55 -4.54 0.73 -2.73 -0.55 -0.73 -0.73 -0.18 -2 -0.18 -0.91 -0.55 -0.91 -1.27 -0.55 -1.64 -0.18 -1.27 0 -1.27 0.18 -0.73 0.18 -1.27 -0.18 -7.45 -2.73 -6.36 -0.18 -1.45 -0.18 -1.45 -0.55 -0.73 -0.91 -0.91 -0.55 -0.91 -0.18 -0.91 -0.18 -2 -0.55 -0.73 -0.73 -0.55 -0.91 -0.18 -2.73 -0.18 2.18 -3.09 1.45 -1.45 0.73 -0.55 0.73 -0.55 1.45 0 0.91 0 0.91 0.18 0.73 -0.18 0.73 -0.91 1.27 -1.45 3.09 -5.82 0.18 -1.45 0.18 -2.91 0.55 -0.91 -0.73 -7.45 -1.45 0.18 -0.73 0.55 -0.73 0.55 -0.54 -0 -0.18 0 -0.55 -0.18 -0.55 -0.18 -0.55 -0.73 -0.55 -0.91 -1.45 -1.27 -0.18 -0.55 -0.55 -1.27 -0.55 -0.73 -1.27 -1.27 -0.73 -0.55 -0.73 -0.55 -0.73 0 -0.55 -0.18 -0.18 0 -2 -0.91 -2.18 -0.55 -0.73 -0.18 -0.73 -0.55 -3.09 -2.36 -0.55 -0.73 0 -0.91 0 -0.73 0 -0.91 -0.18 -0.91 -2 -2.73 -0.55 -0.73 -1.45 -7.27 0 -2.36 -0.18 -1.27 -0.55 -0.91 -3.09 -4.36 -0.91 -2.36 -0.73 -2.18 -0.55 -1.27 -0.18 -3.09 -0.18 -0.91 -0.73 -2.36 0 -0.91 0.18 -4.54 0.55 -2.18 0.18 -1.27 1.64 -2.91 0.18 -0.55 0.18 -0.73 0.73 -4.36 0.18 -1.27 0.55 -0.73 0 -0.18 0 -0.18 -0.18 -0.18 -0.55 -0.18 -2.18 -0.18 -1.64 -0.55 -0.54 -0 -0.91 0.18 -1.45 0 -0.91 0 -1.45 1.27 -4.91 5.82 -0.73 0.91 -0.18 0.55 -0.55 0.55 -0.55 0.18 -2 0.91 -0.55 0.18 -2.18 2.18 -0.54 -0 -0.55 0 -0.73 -0.73 0 -0.73 0 -0.73 0.18 -0.91 -0.18 -0.55 0 -0.55 -0.55 -0.18 0 -0.73 0 -0.55 0 -1.27 0.91 -3.09 2.18 -4.54 0 -0.73 0 -0.73 -0.18 -0.91 -0.18 -0.73 -0.73 -1.45 -1.45 -2.18 -0.18 -0.55 0 -0.73 0 -1.64 0 -0.73 -0.18 -0.73 -0.55 -1.27 -0.18 -0.91 -0.18 -0.73 0 -1.64 0.18 -0.91 0.73 -2.18 3.45 -7.27 0.73 -0.55 1.45 -1.27 0.73 -0.73 0.18 -0.91 0.18 -0.73 0 -0.73 -0.18 -0.55 -0.55 -0.91 -0.18 -0.73 -0.18 -2.73 -0.18 -0.55 -0.73 -0.73 -0.18 -0.73 -0.18 -0.55 -0.55 -0.73 -0.55 -0.55 -0.73 -0.18 -0.18 -0.18 -0.55 -0.18 -0.18 -0.18 -0.55 -0.91 -0.55 -0.55 -0.73 -0.18 -0.91 0 -3.64 0 -0.55 0.18 -0.18 0 -0.18 0.55 -0.55 0.91 -0.73 0.18 -1.45 0.55 -2.91 0.55 -3.09 1.27 -1.64 1.27 -1.45 1.27 -0.73 -0.18 -17.63 2 -1.27 0 -0.91 -0.55 -4.54 -0.73 -0.91 -0.18 -0.91 -0.55 -1.45 -1.27 -0.91 -0.18 -0.73 -0.18 -2.91 -0.18 -2.73 0.18 -2.73 0 -0.91 0 -1.27 0.73 -0.55 0.55 -0.91 0.91 -0.55 0.18 -0.91 0.18 -2.73 0.55 -0.91 -0 -2.73 1.27 -0.73 0.18 -3.09 0.18 -1.64 0.73 0 0 0.73 -2.18 0.18 -0.73 0.73 -0.91 0.73 -0.55 1.45 -0.55 0.73 -0.55 1.45 -2.18 2 -2.36 0.73 -0.91 0.18 -1.64 0 -1.27 0.18 -1.27 0.55 -1.27 0.55 -1.27 0.18 -1.45 0 -0.91 -0.18 -0.73 -0.55 -0.55 -0.73 -0.55 -0.55 0 -0.73 0.18 -1.27 0.55 -0.55 -0 -0.55 -0.18 -0.18 -0.18 -0.18 -0.55 0 -0.55 0.18 -1.45 0 -0.73 0 -0.73 0 -0.73 0.55 -0.55 0.91 -1.27 0.73 -0.55 3.09 -1.27 1.64 -1.64 0.73 -0.18 1.27 -0.55 0.55 -0.55 5.82 -5.09 0.73 -0.18 1.45 -0.73 1.64 -1.45 0.73 -0.55 0.55 -0.18 0.55 -0.73 0.18 -0.91 0.18 -1.45 0 -0.91 -0.18 -0.91 -0.73 -1.27 0 -0.91 0 -0.91 0.73 -4.91 0.18 -0.91 9.27 -3.82 0.91 -0.18 1.45 0.18 1.45 0.73 5.09 3.45 1.27 0.55 1.45 -0.55 0.91 -0.91 0.55 -1.27 2 7.64 4 0.36 2.73 2.73 0 3.27 7.64 5.82 2.73 -2.36 5.45 0.55 2.36 4.54 9.45 0.91 1.45 3.27c0,0 5.82,1.82 8.54,0.55 2.73,-1.27 5.45,-2.36 5.82,-4.18 0.36,-1.82 0,-6 2.73,-7.27 2.73,-1.27 11.82,-3.09 11.82,-3.09l3.09 1.27 4.91 -5.45 4.91 -3.09c0,0 0,-3.64 2.73,-4.18 2.73,-0.54 8.73,-5.09 8.73,-5.09l0 -2.73 1.82 -3.09 4 -1.27 2.73 -10.36c0,0 0,-5.45 0.36,-6.73 0.36,-1.27 3.27,-3.64 3.09,-5.82 -0.18,-2.18 -0.36,-4.54 -0.36,-4.54 0,0 5.09,-0.55 6,-1.45 0.91,-0.91 1.82,-2.73 1.82,-2.73 0,0 -5.09,-2.73 -3.09,-4.54 2,-1.82 4.18,-3.09 5.82,-3.09l4.91 0 1.82 -4.54 0 -5.09 3.64 -0.36 2.73 2.36c0,0 3.09,-3.27 4.18,-4 1.27,-0.55 3.64,-2.73 3.64,-2.73l3.09 7.64c0,0 3.27,1.45 3.64,0 0.36,-1.45 2.18,-3.64 4,-4.91 1.82,-1.27 7.64,-3.27 7.64,-3.27l3.09 -4 5.09 -0.55 4 1.82 4 -0.91 6.91 -0.36c0,0 4,3.09 5.82,4 1.82,0.91 4.91,1.45 4.91,1.45l2.18 -0.36c0,0 4.54,3.09 5.45,5.09 0.91,2.18 1.45,4.91 1.45,4.91l5.82 1.45 1.82 -3.27 3.09 -1.27 1.82 0.36 4 -2.73 1.27 -0.55 0.55 0.55 0.91 2.73 0.73 1.27 0.55 -0.91 1.27 0.73 1.27 2 0.73 2 0.18 1.64 -0.55 0.91 -2 2.73 -0.91 0.73 -4.18 0.91 -1.27 0.55 -0.91 1.27 -0.18 1.27 -0.18 1.27 -1.27 1.27 0 0.73 -2 0 -3.45 -0.73 0.91 0.91 2.36 1.45 1.27 0.91 -2.73 0.73 -2.18 0.18 -2 -0.18 -2.36 -0.55 -0.73 0 0.55 0.91 0.91 0.55 2.36 -0 0.91 0.55 0.73 0.55 0.73 0.91 0.73 0.55 0.73 -0.55 0.54 -0 0 2.73 -0.18 1.45 -0.55 0.73 -0.55 0.18 0.18 0.73 0.18 0.73 0.55 0.18 0.73 0 0.18 0 0.55 0.55 0.55 0.91 0.55 1.45 0.91 0.91 1.27 0.55 1.27 0.18 0.91 0.55 0.91 0.55 0.91 0.55 1.45 -0 0.73 0 0.18 0.73 0 0.73 -0.18 0.55 0 0.55 0.55 0.73 4.36 4.91 3.64 1.45 5.27 4.36 2.36 1.27 2.73 0.55 0.91 0.73 1.64 1.45 1.27 0.55 0.73 0.18 -0.55 0.91 -0.91 0.55 -0.18 0.55 0.18 0.73 0.73 0.18 1.45 -0 0.73 0.18 0 0.55 0.18 1.45 0 0.73 0.54 0 0.91 -0.55 0.91 0.18 2 1.45 0.73 0.18 2.91 0 2 1.27 3.64 4.36 2.36 0.91 0.91 0.55 1.64 1.64 1.27 1.64 0.55 1.27 -0.18 0.18 -0.73 0 -0.55 0.18 -0.18 0.55 2.18 0.91 0.73 0.73 0.91 1.27 2 3.64 0.73 0.18 0.55 0 0.73 -0.18 0.18 -0.18 0.73 -0.73 0.73 -0.18 0.91 0.18 3.45 1.27 0.91 0.55 0.18 0.73 -0.18 0.73 -0.18 0.73 0 0.55 0 0.18 0.55 0.55 0.18 0.18 0 0.73 -0.55 0.91 -2 1.64 -0.91 1.45 -0.91 0.55 -4.54 2.18 -0.91 0.73 -0.55 1.64 -0.73 0.73 -0.91 0.55 -0.91 0.18 -0.73 -0 -0.91 0 -0.73 -0.18 -1.45 -0.73 -1.45 -0.55 -0.73 -0.55 -1.27 -0.55 -1.45 -0.18 -1.45 0.55 -3.45 1.64 -0.55 0.18 -0.73 0.18 -0.55 -0.18 -0.73 -0.18 -0.73 -0.18 -1.27 -0.18 -2.36 -0.91 -2.91 -0.18 -0.55 0.18 -0.55 0.91 -0.55 0.55 -0.73 0.18 -0.55 0.18 -0.91 -0.18 -0.73 -0.91 -0.55 -0.91 -0.91 -0.73 -0.91 -0.55 -8 -0.91 -3.64 -0.91 -2 -0.91 -1.64 -1.45 -1.64 -1.45 -0.91 -2 -1.45 -4.18 -0.91 -1.64 -0.73 -0.55 -2.36 -1.27 -0.55 -0.73 -0.18 -0.55 -0.73 0 -0.73 0.55 -0.55 0.18 -0.18 0.73 0.18 0.55 0.55 0.91 2 2.36 0.18 0.55 2.36 3.09 0.18 0.91 0.18 2.36 0.55 0.91 0.18 0.18 0.55 0.73 0 0.18 0.73 0.18 0.55 0.91 0.55 0.73 0.18 0.91 0 1.45 -0.18 1.27 -0.73 0.73 -0.91 0 -0.73 0 -0.55 0 -0.73 -0.55 -0.73 -1.27 -0.18 -0.55 -0.55 -0.55 -0.73 -0.18 -0.73 -0.18 -0.73 0 -0.73 0.18 -0.55 0.18 -0.18 0.18 -0.55 0.18 -2 0 -1.45 0.18 -0.91 0.55 -1.45 1.27 -2.91 3.45 -0.73 1.45 -0.18 3.82 -0.55 0.91 -1.45 1.27 -0.55 0.73 -0.18 0.55 -0.18 1.45 -0.18 0.55 -3.45 3.82 -0.55 1.45 0.18 0.73 0.73 1.45 0 0.73 -0.55 0.55 -0.73 0.55 -0.73 0.18 -0.73 0.55 -0.91 0.91 -0.91 2.36 -2.18 3.64 -0.18 0.73 0 0.18 0.18 0.18 0.18 0.55 0.18 1.45 -0.18 0.91 -0.55 0.73 -1.45 1.45 -0.18 1.27 -0.18 0.73 0.18 0.73 0.18 0.18 0.73 0 0.73 0.18 0.55 0.55 -0.73 0.55 -1.45 0.55 -0.55 0.18 -0.18 0.73 0 0.18 0.18 0.55 0 0.73 0 0.55 0 0.55 0 0.18 0 0.55 0.55 0.18 0.54 -0 0.55 0.18 -0.55 0.73 0.55 0.18 0.73 0.55 0.55 0.55 0.18 0.91 0.55 1.45 0 0.73 -0.18 0.18 0 0.18 -0.73 1.27 -0.55 0.55 -0.73 0.73 -0.18 0.18 -0.55 0.55 -0.73 2.18 -0.55 0.91 0 2.73 -0.55 1.27 -1.27 2.18 -0.18 1.45 0.73 1.27 0.91 1.45 0.91 1.45 0.73 0.18 0.54 0 0.18 0.91 -0.18 1.45 -0.18 0.73 -1.45 1.64 -0.55 0.91 0 0.73 0.55 0.91 -0.18 1.45 -0.73 1.45 -0.73 0.91 0 0.55 2.18 -0.91 7.45 -5.64 1.27 -0.18 0.91 0 0.55 1.27 -0.55 0.73 -0.73 0.55 -0.55 0.73 -0.55 0.55 -2.18 0.55 -0.73 0.55 -0.18 0.73 2.18 0.55 0.73 0.73 -0.18 2.18 -0.18 0.91 -0.73 1.27 -0.18 0.18 -0.18 0.18 -2.18 0 -0.18 0.18 -0.55 0.18 0 0.18 0.91 0.55 1.27 0.18 0.73 0.18 -0.18 1.27 -0.73 0.73 -0.91 0.18 -0.18 0.73 0.55 0.91 -0.73 0.18 -0.73 0 -1.64 -0.18 -0.73 0 -0.18 0.55 0.18 0.55 0.73 0.18 1.45 0.18 3.45 0.73 1.64 0.18 0.55 0.18 0.73 0.55 0.18 0.91 0 0.73 -0.18 0.73 -0.55 0.18 -2 0.55 -0.73 -0.18 -0.55 0.18 -0.55 0.18 -0.73 0.73 -0.55 0.18 -2.91 -0.73 0.18 1.64 -2.18 -0.55 -0.73 1.45 0.18 1.45 -0.18 0.73 -1.27 -0 -0.91 -0.18 -1.45 -1.64 -0.55 -0.55 -0.55 0.91 -0.36 2 -0.91 1.27 -0.73 0.18 -0.18 -0.73 -0.18 -0.73 0 -1.64 -0.18 -0.73 -1.45 -1.45 -1.27 -0.55 -0.91 1.27 -0.55 2 -0.18 1.45 -0.18 1.64 -0.91 0.91 -2.73 1.45 -1.64 2 -6.36 8.73 -1.45 0.91 -0.55 1.45 -0.18 1.45 -0.18 1.27 -0.91 0.73 -1.64 0.91 -1.45 0.55 -6.54 1.45 -1.45 0.18 -0.55 -0.18 -0.18 -0.91 0 -1.64 0.73 -0.91 0 -0.55 -0.73 -0.55 -0.18 0.18 -0.55 0.55 -0.55 0.91 -0.18 -0.73 0 -2 -0.55 -0.91 -2.36 -2.91 -0.18 -1.45 0.91 -3.82 -0.91 0 -0.91 1.27 -0.55 1.64 -0.18 3.45 0.18 0.73 2 2 0.55 0.73 0 0.55 -0.18 0.18 -0.18 0.73 -0.73 0.73 -0.18 0.18 2.73 0.91 0.18 0.18 0.18 -0 0.18 0.18 0 0.18 0 0.55 -0.73 1.27 -0.73 0.73 -0.18 0.73 0.18 2.91 -0.18 1.27 -1.45 0.55 -2 0.18 -6.73 2.73 -2.73 1.64 -1.64 2.18 -0.18 2.73 0.55 0.91 0.73 0.73 0.55 0.73 0 1.27 -0.18 1.45 -1.27 0.91 -1.27 0.73 -5.64 1.45 -2.36 1.64 -2.73 0.73 -1.45 0.55 -3.09 2.73 -0.55 0.73 -2 0.91 -0.73 0.91 1.27 0.91 1.27 -0 1.45 0 1.45 -0.55 0.55 -0.73 0.18 -0.18 0.73 -0.18 1.27 -0.55 0.54 0 0.55 0.55 0.18 0 0.18 -0.18 0.18 -0.55 0 -0.18 1.45 0 1.45 0.18 0.91 0.55 0.55 1.27 -0.91 1.64 -1.27 1.45 2.36 2.36 0.73 1.45 -0.91 2.91 0.91 3.82 -0.55 1.45 -1.27 1.45 -0.73 0.73 -4.18 0.91 -1.45 0.91 -1.45 1.27 -1.27 1.45 -0.55 0.91 0.18 0 2.91 -1.45 2.18 -0.55 0.91 0.91 0.55 2.36 0.91 0.73 1.64 -0.18 3.82 -1.64 1.27 -0.18 0.73 0 0 0.73 0.18 0.91 0.55 0.91 0.73 -0.18 0.73 -0.55 0.91 -0.73 0.91 -0.18 0.55 0.73 -0.18 1.64 -1.27 9.09z"/>
   <polygon id="path498" class="fil0" points="298.13,22 297.4,19.81 296.86,19.27 296.67,18.72 297.4,18.9 299.4,20.18 300.31,20.72 300.31,20.18 299.58,19.27 297.58,18 296.86,17.27 295.4,17.45 295.4,19.09 296.13,21.09 296.86,22 297.58,23.27 298.86,24.18 300.13,25.09 301.58,25.27 301.58,25.09 300.67,24.36 299.76,23.63 "/>
  </g>
 </g>
</svg>
