<?xml version="1.0" encoding="UTF-8"?>
<!DOCTYPE svg PUBLIC "-//W3C//DTD SVG 1.1//EN" "http://www.w3.org/Graphics/SVG/1.1/DTD/svg11.dtd">
<!-- Creator: CorelDRAW 2018 (64-Bit) -->
<svg xmlns="http://www.w3.org/2000/svg" xml:space="preserve" width="1.82243in" height="1.74964in" version="1.1" style="shape-rendering:geometricPrecision; text-rendering:geometricPrecision; image-rendering:optimizeQuality; fill-rule:evenodd; clip-rule:evenodd"
viewBox="0 0 88 84.49"
 xmlns:xlink="http://www.w3.org/1999/xlink">
 <defs>
  <style type="text/css">
   <![CDATA[
    .fil0 {fill:#5C67AE}
   ]]>
  </style>
 </defs>
 <g id="Layer_x0020_1">
  <metadata id="CorelCorpID_0Corel-Layer"/>
  <g id="LA">
   <g>
    <path id="Lampung" class="fil0" d="M-0 45.14l0.45 -0.34 0.57 -0.11 1.47 -1.02 1.02 -0.57 1.25 -0.91 1.25 -1.36 0 0 2.15 1.25 0.57 0.34 0.34 0.11 0.34 0.34 0.11 0.34 0 0.45 0 0.34 -0.11 0.45 0.11 0.34 0.11 0.45 0.11 0.34 0.34 0.34 0.57 0.11 1.47 -0 2.27 0.34 1.36 0.11 1.25 -0 1.02 0.11 2.84 -0.57 2.15 -1.47 1.36 -0.11 1.25 0.34 0.45 -0.11 0.45 0 0.11 -0.11 0.57 -0.79 0.57 -1.02 0.11 -0.34 0 -0.57 -0.11 -0.11 -0.11 -0.34 -0.11 -0.11 -0.45 -0.34 -0.11 -0.34 -0.79 -0.57 0 -0.45 -0.11 -0.34 -0.11 -0.91 0 -0.11 -0.45 -0.34 -0.34 -0.34 0 -0.34 0 -0.34 0.11 -0.11 0 -0.79 0.11 -0.11 0.57 -0.34 0.11 -0.34 0.34 -0.34 0.34 -0.57 0.11 -0.57 -0.11 -0.57 -0.45 -2.72 -0.11 -1.25 0.34 -1.02 0.34 -1.02 3.52 -1.36 0.45 -0.45 1.25 -1.02 0.91 -0.57 2.38 -1.02 0.91 -0.34 1.93 0 2.84 -0.57 6.35 -3.06 1.7 -0.45 1.47 -0.45 1.93 -0.45 1.36 -0.57 0.34 -0.45 0.45 -0.34 0.57 -0.57 0.34 -0.34 0.11 -0.57 0.34 -0.57 0.34 -0.34 0.45 -0.45 1.02 -0.57 0.11 -0.34 0 -0.11 -0.34 -0.45 0 -0.11 -0 -0.11 0.11 -0.34 0.57 -0.91 0 -0.11 0 -0.34 0.11 -0.79 0 -0.91 0.11 -0.45 0.34 -0.11 0.57 -0.34 0.34 -0.34 0.79 -0.57 0.34 -0.11 0.34 0 0.57 0.11 0.45 0 0.45 -0.11 0.45 -0.34 0.57 -0.45 0.11 -0.34 0.45 -1.36 0 -0.34 0 -0.79 0.11 -0.11 0 -0.11 0.11 -0.11 0.11 0 0.11 -0.11 0 -0.34 0 -0.45 0.11 -0.34 0.11 -0.34 0.11 -0.45 0.11 -0.11 0.34 0.11 0.34 0.34 0.45 0.91 0.34 0.45 0.34 0.11 0.45 0 0.45 -0.34 0.45 0 0.45 0.11 0.45 0.34 0.57 1.02 0.45 0.45 1.25 0.11 1.02 0.45 0.45 0.34 0.11 0.57 0.11 0.34 0 0.34 0.11 0.34 0.11 0.11 0.45 -0 0.34 0.11 0.57 0.79 0.34 0.45 0.45 0.45 0.34 0.45 0.11 0.45 0.34 0.57 0.11 0.11 0.11 0.34 0 0.45 -0.11 0.34 -0.11 0.79 0 0.34 0.11 0.11 0.57 -0.11 0.34 -0 0.34 0.34 0.34 0.34 0 0.34 0 0.34 0.11 0.45 0.11 0.34 0.91 -0.11 0.34 0.34 0.34 0.34 0.34 0.91 0.34 0.34 1.47 -0 0.57 -0.34 0.91 -0.11 1.47 0.79 -0.57 3.18 0.11 1.36 0.11 0.91 0.45 1.02 0.57 1.02 0.45 1.02 -0.11 0.91 0.57 0.34 0.34 0.45 0.57 1.36 0.11 -0.11 0.11 -0.11 0.11 0.79 -0.34 1.7 0.45 1.25 -0.34 0.79 -0.34 0.79 -0.11 0.79 0 0.57 0.57 1.93 -0.57 0.34 -0.34 0.79 -0.45 3.18 -0.11 1.7 0.34 1.02 1.36 2.27 0 1.36 -0.45 1.25 -0.79 1.25 -0.45 1.36 -0.11 3.18 0.11 3.29 0 1.7 -1.02 3.18 -0.11 1.81 0.11 3.29 -0.11 0.91 -0.45 1.47 0.34 2.27 0.11 1.7 -0.11 0.79 -0.79 1.7 -0.34 0.91 -0.45 2.84 -0.34 1.36 -0.79 1.02 -1.25 1.25 -0.11 0.34 -0.34 -0.34 0 -1.47 -0.34 -0.57 -1.25 -0.57 -3.06 -0.34 -0.57 -0.79 -0.34 -3.06 -0.45 -1.25 -0.91 -0.91 -0.11 0.11 -0.45 0.57 -0.11 0 -0.45 0 -0.34 -0.11 -0.11 -0.34 -0.34 0 -0.45 -0.34 -1.25 -1.36 -1.93 -1.47 -0.91 -0.91 -2.61 -3.63 -1.25 -0.79 -1.02 0.45 -0.11 0.79 0.34 1.47 -0.34 0.79 0 0.11 -0.34 1.02 -0.11 0.11 -0.11 0.11 -0.45 0 -0.79 -0.34 -0.79 0.45 0 0.79 0.34 0.79 0.34 0.91 0 1.02 0.11 0.45 0.34 0.34 0.11 0.11 0.11 0.11 -0.57 0.45 -0.91 0.34 -0.91 0.45 0.11 0.57 0.79 0.34 0.91 0.11 0.57 0.11 -0.57 0.57 -0.57 0.34 -0.79 0.11 -1.36 -0 -0.45 -0.11 -1.81 -1.36 -6.46 -2.84 -2.38 -1.93 -1.93 -0.45 -0.79 -0.79 -2.27 -2.61 -0.45 -0.34 -0.79 -0.34 -1.36 -0.45 -0.79 -0.34 -0.45 -0.45 0.68 0 0.11 0.34 0.11 0.57 -1.02 -0 -0.79 0 -0.57 0.34 -0.57 0.57 -0.34 0.57 0.34 0.79 5.9 9.53 0.45 1.47 0.11 1.7 0.45 0.91 0 0.34 -0.11 0.34 -0.45 0.11 -5.33 -0.11 -0.34 -0.34 0.11 -1.36 -0.11 -0.91 -0.45 -0.79 -2.15 -1.7 -0.34 -0.34 -0.57 -0.34 -0.34 -0.45 -0.34 -0.79 -2.38 -2.27 -0.79 -0.34 -2.61 -1.7 -0.34 -0.57 0.91 -0.79 -0.45 -0.79 -1.81 -1.81 -0.79 -0.45 -0.45 -0.11 -0.34 0 -0.45 -0.11 -0.45 -0.34 -0.11 -0.34 -0.11 -0.45 -0.34 -0.34 -1.25 -0.45 -0.79 -0.45 -0.57 -0.57 -2.84 -3.52 -1.7 -1.7 -0.11 -0.57 0.34 -0.79 0.11 -0.57 -0.45 -0.57 -0.57 -0.57 -0.45 -0.11 -0.91 -0.11 -0.79 0 -0.79 -0.11 -0.11 -0.57 -0 -0.57 0.57 -0.79 0.11 -0.45 -0.11 -0.79 0 -0.23 -0.11 -0.34 -0.57 -0.79 -2.27 -1.36 -1.02 -1.02 -0.57 -0.45 -0.57 -0.11 -1.02 0 -0.45 -0.11 -0.34 -0.34 0 -0.34 0.34 -1.02 -0.11 -0.34 -0.11 -0.11 -0.45 -0.34 -0.45 -0.11 -0.45 -0.11 -0.45 0.11 -0.34 0.11 -0.79 0.79 -0.91 -1.7 -0.45 -0.57 -0.23 -0.11zm0 0l0 0 0 0z"/>
   </g>
   <g id="g312">
    <polygon id="path314" class="fil0" points="47.18,77.65 47.18,77.65 46.27,77.54 45.36,77.09 45.02,76.97 44.68,77.43 44.8,77.88 44.91,78.22 45.36,78.79 46.61,79.81 47.4,80.15 47.74,79.7 47.74,78.67 47.74,78.22 "/>
   </g>
  </g>
 </g>
</svg>
