<?xml version="1.0" encoding="UTF-8"?>
<!DOCTYPE svg PUBLIC "-//W3C//DTD SVG 1.1//EN" "http://www.w3.org/Graphics/SVG/1.1/DTD/svg11.dtd">
<!-- Creator: CorelDRAW 2018 (64-Bit) -->
<svg xmlns="http://www.w3.org/2000/svg" xml:space="preserve" width="7.28033in" height="4.44806in" version="1.1" style="shape-rendering:geometricPrecision; text-rendering:geometricPrecision; image-rendering:optimizeQuality; fill-rule:evenodd; clip-rule:evenodd"
viewBox="0 0 724.2 442.46"
 xmlns:xlink="http://www.w3.org/1999/xlink">
 <defs>
  <style type="text/css">
   <![CDATA[
    .fil0 {fill:#5C67AE}
   ]]>
  </style>
 </defs>
 <g id="Layer_x0020_1">
  <metadata id="CorelCorpID_0Corel-Layer"/>
  <g id="MA">
   <polygon id="path1050" class="fil0" points="670.7,237.12 670,236.88 669.77,236.88 669.07,236.65 667.9,236.88 667.2,237.82 667.2,239.69 667.2,241.32 668.13,242.49 669.3,242.72 670.24,242.49 671.17,241.56 671.87,239.69 671.87,238.52 671.87,238.29 "/>
   <polygon id="path1030" class="fil0" points="711.82,296.22 711.12,295.05 709.95,293.89 708.32,292.72 706.45,292.72 705.28,293.42 704.11,294.35 703.41,295.29 703.64,295.99 704.34,296.92 705.28,297.86 705.51,299.73 706.21,300.9 707.38,301.13 708.55,300.9 708.78,300.66 709.48,300.43 710.65,300.66 711.59,299.96 712.29,298.33 712.05,297.39 "/>
   <polygon id="path1006" class="fil0" points="493.63,201.84 493.16,202.54 491.99,204.18 491.76,206.28 492.46,207.45 493.16,207.45 493.86,206.75 494.09,206.75 494.33,206.75 495.26,206.05 496.43,203.01 495.73,201.38 494.79,201.38 "/>
   <polygon id="path1002" class="fil0" points="266.09,335.24 267.02,335.47 267.72,335.47 268.42,335.24 268.66,334.07 267.72,332.9 267.02,332.9 266.09,333.13 265.38,333.83 265.38,334.77 "/>
   <polygon id="path94" class="fil0" points="114.24,417.47 113.07,416.77 111.9,416.77 110.73,417 109.8,417.93 109.8,418.87 109.8,421.44 109.57,422.37 109.57,423.07 113.3,424.24 115.17,424.01 116.11,422.14 116.11,420.97 115.87,419.8 115.64,418.64 "/>
   <polygon id="path98" class="fil0" points="156.05,427.98 154.42,427.28 152.78,427.28 151.15,427.51 144.84,431.48 146.01,431.72 148.11,433.59 149.98,434.29 151.62,434.05 154.42,432.89 156.05,432.65 157.92,431.95 158.16,430.78 157.22,429.15 "/>
   <polygon id="path102" class="fil0" points="195.07,435.22 194.83,434.29 194.6,431.72 193.9,431.02 191.8,431.02 189.93,431.95 187.83,432.18 185.96,431.48 185.02,431.72 184.32,432.65 184.09,433.35 183.39,434.52 183.15,435.22 183.85,435.92 184.56,436.62 185.26,436.86 186.89,437.56 188.99,437.79 191.56,437.79 193.43,437.56 194.37,437.32 195.3,437.09 196,436.39 "/>
   <polygon id="path106" class="fil0" points="258.61,431.72 255.57,430.08 255.34,430.08 247.63,429.38 245.06,430.08 243.19,431.02 244.83,432.89 247.63,434.75 249.73,435.45 250.9,435.22 251.6,434.52 252.54,433.82 253.47,434.75 254.64,435.45 255.81,436.16 256.74,436.16 257.68,436.16 258.61,435.22 258.84,434.05 259.08,432.89 "/>
   <polygon id="path110" class="fil0" points="423.54,385.7 422.61,386.4 422.37,386.4 421.67,386.4 421.44,386.4 421.44,386.16 420.74,386.86 419.57,387.57 418.4,387.8 416.3,388.03 415.36,388.27 414.43,388.5 414.2,389.2 413.26,391.77 414.43,392.71 418.87,392.7 418.17,390.6 419.34,390.37 422.84,391.3 424.01,390.37 424.94,388.73 425.88,385.7 425.18,385.46 424.94,385.46 "/>
   <polygon id="path114" class="fil0" points="412.79,378.22 413.96,377.05 413.26,376.82 410.69,377.52 409.76,377.29 408.82,376.59 407.65,376.35 406.72,377.05 404.62,375.18 403.92,374.95 402.75,377.05 402.75,378.22 402.98,379.16 403.92,379.39 406.95,380.09 409.99,380.32 410.22,380.09 411.16,379.39 411.86,379.16 412.56,379.39 412.79,380.09 413.49,380.32 414.2,380.09 414.2,379.39 413.96,379.16 413.26,378.92 "/>
   <g>
    <path id="path118" class="fil0" d="M429.15 367.94l-0.7 -0.23 -0.23 -0 -0.23 0.23 -0.7 0 -0.93 0 -1.17 0.7 -4.67 0.23 -1.17 -0 -1.17 -0.23 -0.7 0 -0.7 0.23 -1.17 0.7 -0.93 1.17 -0.7 1.17 0.23 1.64 1.17 0.93 1.64 0 1.87 -0.7 1.87 0 -0.23 1.17 -0.23 0.23 -0.23 0.23 0 0.23 0.93 0 0.93 -0.23 0.7 -0.23 0.7 -1.17 0.7 -0.7 0.93 -0.23 0.93 -0.23 3.04 -3.5 1.17 -0.7 -0.23 -0.23 -0.23 -0.23 0 -0.23 -0.47 0zm0 0l0 0 0 0z"/>
   </g>
   <polygon id="path122" class="fil0" points="438.03,361.87 437.79,361.17 436.86,359.53 436.62,359.3 435.92,359.53 434.75,361.63 433.82,362.8 433.12,363.04 432.42,363.74 433.35,363.97 437.32,364.67 436.62,363.74 438.49,362.57 438.73,362.33 438.96,361.4 438.73,360.7 438.49,360.7 "/>
   <polygon id="path126" class="fil0" points="462.79,310.24 460.22,311.41 457.65,314.91 456.95,318.42 458.82,320.05 459.75,319.82 461.39,318.65 462.09,317.48 460.22,316.31 460.22,314.68 461.39,313.51 463.26,314.21 464.89,313.04 465.12,311.87 464.19,310.94 "/>
   <polygon id="path182" class="fil0" points="115.87,82.93 113.07,82 111.43,82 110.27,82.23 109.1,83.4 108.86,85.04 109.1,86.67 110.27,87.84 110.97,88.07 111.9,88.07 113.54,88.31 114.47,88.31 114.7,89.01 114.94,89.01 115.87,88.31 116.57,86.67 116.81,85.04 116.57,83.87 "/>
   <polygon id="path186" class="fil0" points="146.01,42.05 143.44,39.01 141.8,38.08 139.23,38.08 139.23,37.85 139,37.85 138.77,37.85 138.77,38.08 138.53,38.31 137.83,39.25 137.6,39.48 135.73,40.65 135.5,40.65 136.2,41.82 137.13,42.75 138.77,43.69 142.27,44.39 145.31,46.02 146.94,46.26 148.58,45.56 148.58,44.39 147.41,43.22 "/>
   <polygon id="path190" class="fil0" points="158.62,30.6 158.62,30.6 158.16,29.9 157.92,29.67 157.69,29.67 157.46,29.67 156.52,29.9 153.72,29.9 152.08,31.77 149.98,33.64 148.81,35.51 149.98,37.14 151.62,37.85 156.52,37.14 158.62,37.14 159.56,37.14 159.79,36.21 160.73,34.57 160.49,33.64 160.26,32.01 160.03,31.07 "/>
   <polygon id="path194" class="fil0" points="172.87,10.98 170.77,10.98 171.47,12.62 171.47,13.55 170.77,14.25 169.84,14.95 169.6,14.95 168.9,14.95 168.44,14.95 167.73,15.19 166.8,16.12 166.57,16.35 166.33,16.59 165.16,16.82 164,17.75 163.06,18.92 163.06,19.86 164,20.09 170.3,19.86 171.47,19.62 172.64,18.92 172.87,18.22 173.57,16.12 173.81,15.89 174.04,15.18 175.21,13.32 175.91,13.08 176.14,12.85 175.21,12.15 174.28,11.21 "/>
   <polygon id="path198" class="fil0" points="329.86,139.23 329.16,139.94 325.66,140.64 324.49,141.34 325.42,141.34 326.36,141.57 327.29,141.8 327.53,142.5 328.69,142.27 330.33,142.27 331.26,141.57 331.5,138.07 330.8,137.83 329.86,138.07 "/>
   <polygon id="path202" class="fil0" points="520.26,217.49 519.32,218.2 519.32,219.36 520.26,220.53 521.19,221.7 521.43,221.93 521.66,222.17 522.83,221.47 523.53,221.23 524.23,220.53 524.93,219.6 525.16,218.89 523.53,219.13 522.36,218.89 "/>
   <polygon id="path206" class="fil0" points="558.1,225.2 559.27,221.7 559.27,220.76 558.57,220.53 557.87,220.76 557.17,220.76 556.93,221.47 557.17,220.53 557.17,219.83 557.17,219.13 556.93,218.43 555.3,219.6 554.13,222.17 553.43,224.27 553.43,226.37 554.6,229.41 554.83,230.11 555.77,230.34 556.47,230.34 556.7,229.64 556.7,228.47 556.93,229.17 557.17,229.88 557.4,230.58 558.1,230.81 558.34,230.58 558.57,229.88 557.87,228.71 557.63,227.54 557.4,226.37 "/>
   <polygon id="path210" class="fil0" points="684.02,276.37 682.15,276.37 681.92,276.13 682.62,275.43 681.45,275.43 680.52,274.73 677.95,270.99 676.78,270.06 675.38,270.29 674.44,268.66 673.27,267.49 672.57,266.55 672.81,264.92 673.51,263.75 675.14,262.11 675.38,260.95 673.74,261.88 673.51,262.11 672.81,261.88 672.57,261.18 671.87,258.38 671.17,258.14 670.24,258.14 666.5,259.78 666.27,260.01 666.27,256.51 663.7,258.61 662.76,262.11 663.46,265.85 665.1,268.66 667.67,266.79 668.84,266.79 668.84,267.95 668.13,269.12 666.97,270.29 666.97,271.46 668.6,272.16 670.24,271.23 671.4,272.16 672.57,274.96 676.08,277.77 676.78,278.47 677.01,278.23 678.18,278.94 679.81,280.57 680.52,281.51 680.75,282.21 680.75,282.44 681.68,282.44 683.32,281.27 684.25,280.1 685.89,278.93 687.76,278.7 687.76,278 686.59,278 685.66,277.3 684.95,276.6 "/>
   <polygon id="path214" class="fil0" points="702.01,289.68 701.78,288.51 700.84,286.88 699.67,285.94 698.74,285.71 697.1,285.01 695.93,284.07 694.07,281.5 693.13,281.27 690.56,279.64 689.86,278.93 689.16,278.7 688.46,278.7 687.76,278.93 687.06,279.17 686.36,279.4 685.65,279.63 684.49,280.8 684.25,281.04 683.08,281.74 682.38,282.44 681.68,283.14 680.98,283.84 680.98,284.54 681.21,285.48 681.92,286.18 686.59,288.28 686.82,288.98 687.05,289.92 687.99,290.15 688.92,289.92 690.09,289.91 691.73,292.48 692.43,293.19 692.43,293.89 692.66,294.82 692.9,295.99 693.83,297.16 695.94,298.33 697.57,297.16 698.27,295.29 697.1,293.65 699.91,292.49 701.07,291.32 "/>
   <polygon id="path218" class="fil0" points="710.18,303 709.25,303 708.55,303.23 707.85,303.93 707.61,304.63 706.68,308.14 704.11,311.87 703.88,312.81 703.88,313.98 703.88,314.68 703.18,315.61 705.75,317.48 706.91,317.72 707.61,316.55 707.85,315.38 709.72,312.58 710.42,311.64 711.35,310.71 711.59,309.07 712.29,306.5 712.29,305.33 712.05,304.4 711.12,303.46 "/>
   <polygon id="path222" class="fil0" points="720.7,279.17 720,279.87 720,281.04 720,283.61 718.36,283.84 717.19,285.71 716.96,288.28 717.89,290.15 717.89,290.85 716.96,291.55 717.19,292.48 718.13,293.42 719.3,294.12 720.23,293.19 722.1,287.58 723.73,284.78 723.97,283.14 724.2,281.51 723.97,280.34 723.03,279.4 721.86,279.17 "/>
   <polygon id="path602" class="fil0" points="84.1,393.41 84.1,392.47 83.4,390.84 82.7,389.67 82,388.97 81.06,388.27 76.16,388.97 74.99,388.73 74.05,388.03 73.35,387.1 72.42,386.4 68.91,384.53 67.98,383.83 67.75,383.12 67.51,382.19 67.75,380.32 67.51,380.09 66.58,380.09 65.65,380.79 57.47,382.66 55.83,382.89 53.26,384.76 48.83,386.63 44.85,390.37 43.22,390.6 41.35,390.6 39.48,389.9 37.85,389.9 36.68,390.13 34.11,391.77 33.17,392 20.79,390.37 19.86,390.13 19.86,389.43 18.92,388.73 16.82,387.8 15.89,387.56 14.95,387.56 14.02,388.27 13.08,389.2 10.98,392.71 10.75,393.87 10.05,394.57 9.81,394.81 8.64,395.04 8.41,395.04 8.18,396.68 7.94,398.54 7.24,400.18 6.07,400.88 4.91,401.11 3.97,402.05 3.04,402.98 2.8,403.92 2.8,409.53 2.57,410.46 1.87,411.16 0.93,412.8 -0,414.43 -0,415.6 1.17,416.3 3.04,415.6 9.58,410.23 10.28,409.99 10.98,409.99 11.68,409.76 11.68,409.53 11.91,408.36 12.85,408.12 13.78,407.89 15.65,407.89 16.59,407.89 17.76,406.95 22.19,406.25 23.6,405.79 24.76,406.49 26.63,405.79 28.27,406.49 29.9,407.42 31.07,408.59 32.71,409.29 39.48,408.36 41.35,408.36 45.32,409.52 47.19,409.76 50.93,409.76 51.86,409.99 53.73,411.63 54.67,412.56 55.37,411.63 56.3,409.76 57.24,408.82 57.47,408.12 57.47,407.19 57.47,406.49 57.47,406.25 61.91,400.65 62.84,400.41 64.48,399.71 65.18,399.48 67.05,397.61 67.98,397.38 74.52,395.27 75.46,395.97 77.33,395.74 80.83,395.51 81.77,395.74 82.47,395.97 83.4,396.21 84.1,395.97 84.8,395.27 84.8,394.57 "/>
   <polygon id="path606" class="fil0" points="134.56,377.75 133.39,377.52 132.23,377.29 130.59,376.12 127.79,375.88 126.85,376.12 126.15,377.29 126.15,378.45 127.09,381.02 127.32,382.19 127.09,383.13 126.39,383.36 125.68,383.59 124.98,383.83 124.75,384.53 124.75,385.23 124.75,386.4 125.45,387.57 126.62,387.56 127.79,387.33 128.72,386.63 129.42,385 129.66,384.76 130.36,384.53 131.29,384.29 134.1,383.36 135.26,382.43 135.5,381.72 135.73,378.92 135.5,377.99 "/>
   <polygon id="path610" class="fil0" points="183.85,425.88 181.28,426.58 178.25,426.81 171.94,425.88 166.1,423.77 163.3,423.07 160.49,423.77 159.56,423.54 158.86,423.77 157.92,424.01 157.69,424.71 158.86,425.41 159.56,426.11 159.79,426.81 160.02,428.68 160.96,429.62 162.83,431.25 164,432.19 165.63,432.42 170.54,432.65 171.71,432.89 172.64,433.12 176.14,435.22 177.08,435.92 178.71,436.16 179.88,435.46 180.82,433.35 181.75,432.65 185.72,429.61 186.66,427.98 186.42,427.28 "/>
   <polygon id="path614" class="fil0" points="229.88,346.68 231.74,346.45 232.45,345.51 232.45,344.58 231.28,343.41 231.04,343.41 229.41,343.18 228.71,343.18 227.77,342.48 226.84,341.31 225.9,341.08 223.8,341.78 221.7,343.41 219.83,345.05 218.9,346.68 219.13,348.32 220.3,349.25 223.1,350.42 226.14,352.99 227.31,353.92 230.34,350.42 230.58,350.19 229.64,349.02 228.71,348.08 "/>
   <polygon id="path618" class="fil0" points="323.09,405.55 323.09,405.32 323.32,403.22 323.32,402.28 323.09,402.05 322.15,401.35 321.45,401.11 320.52,400.88 317.71,400.88 317.01,400.65 316.31,400.41 314.44,399.71 313.74,399.48 306.27,399.48 303.7,400.41 302.76,402.52 302.53,407.89 303.23,409.76 310.71,417.93 311.41,418.87 316.31,420.04 317.95,420.04 318.18,419.34 320.75,414.43 323.55,411.39 324.49,410.46 324.72,409.29 324.49,407.66 324.26,406.72 "/>
   <polygon id="path622" class="fil0" points="470.96,353.92 471.9,353.69 473.07,352.99 474,352.29 474.24,351.35 474,351.35 471.9,347.62 471.67,346.68 471.43,345.98 470.5,346.92 469.33,348.55 468.63,348.78 467.46,349.49 467.46,348.78 468.16,345.98 467.46,344.81 466.29,344.58 464.66,344.58 462.55,345.28 460.69,346.22 458.12,348.08 457.41,349.25 457.65,350.89 458.58,353.46 457.88,353.69 457.18,353.69 455.55,353.92 454.38,353.92 454.14,354.63 453.91,355.33 453.68,356.26 452.04,358.13 451.34,359.06 451.11,360.7 451.11,361.4 451.34,362.34 451.34,362.57 446.9,363.27 446.2,363.97 446.2,364.67 446.2,365.61 446.44,365.61 445.73,366.54 445.5,366.77 445.27,367.01 444.57,367.71 443.63,370.28 443.4,370.98 442.7,371.21 442,370.51 441.76,369.81 441.06,369.58 440.13,369.81 435.22,373.55 434.29,374.72 433.58,376.35 433.35,378.22 433.12,379.39 431.25,382.19 430.55,383.36 430.31,386.16 430.31,386.86 429.38,387.1 429.38,387.8 430.55,390.37 431.72,391.3 433.35,392 434.99,392.24 432.88,392.94 431.25,392.94 427.75,391.3 426.11,390.6 424.48,390.83 423.77,392 424.48,394.11 425.18,394.11 425.18,393.4 425.41,393.41 425.41,394.34 425.64,395.04 426.34,395.04 427.05,394.81 427.05,395.74 427.28,396.68 427.28,397.61 426.11,397.61 426.11,397.84 426.81,398.08 427.51,398.78 427.75,399.48 427.75,400.41 427.05,401.35 426.34,401.12 425.41,400.88 424.48,400.88 422.84,401.82 421.91,403.68 421.67,405.32 422.37,406.95 423.31,406.95 424.24,407.66 424.94,408.82 425.18,409.99 424.01,413.03 423.31,414.9 424.24,415.6 430.08,416.3 433.12,416.07 435.22,414.9 435.46,413.96 435.69,412.09 435.92,411.39 437.09,410.69 437.32,410.69 437.56,410.93 438.26,411.16 438.96,411.86 438.73,413.5 437.79,416.53 438.49,417.7 439.66,417 441.3,415.36 442,414.43 442.23,413.49 442.23,412.8 442.23,412.56 442.93,411.86 443.17,411.16 442.93,410.46 442.23,410.46 441.53,410.46 442.23,408.82 443.17,408.12 443.87,407.42 444.8,406.25 444.8,405.09 445.03,403.92 445.74,402.98 449.24,400.41 449.94,399.71 450.64,399.01 451.81,398.78 452.51,397.84 452.28,395.97 453.21,396.21 453.91,396.21 454.61,395.51 455.31,394.81 454.61,392.94 455.78,392.24 457.88,392 459.52,391.3 460.69,390.37 460.92,390.13 462.56,386.63 462.79,386.4 463.96,385.69 465.12,384.53 465.83,382.89 466.76,379.15 467.46,377.52 468.16,375.65 467.46,373.78 468.16,373.78 468.86,373.08 469.1,372.85 469.33,370.98 470.26,369.11 470.26,368.88 470.96,368.88 471.2,368.88 471.2,368.64 470.96,367.94 470.73,368.17 470.5,367.94 469.8,367.24 468.86,367.01 468.16,366.3 467.46,365.6 468.39,364.67 468.63,363.5 467.93,362.57 466.29,359.76 466.06,359.76 466.06,359.06 466.06,357.43 465.83,355.33 466.06,354.39 466.76,353.46 467.69,352.76 468.4,352.76 469.33,352.76 "/>
   <polygon id="path626" class="fil0" points="424.01,425.88 423.77,425.88 422.84,427.05 422.61,427.28 421.67,427.05 421.67,426.34 421.91,425.64 422.14,424.94 419.34,422.14 418.4,421.44 416.53,422.37 413.03,426.34 411.39,426.11 410.22,425.41 409.29,425.41 408.59,426.11 408.36,427.75 408.59,428.91 408.82,429.85 408.82,430.78 408.12,431.95 407.42,432.19 405.32,433.12 404.62,433.35 403.45,433.59 402.51,434.76 401.81,435.92 400.18,437.09 397.14,440.83 396.21,442.46 399.95,442.46 400.88,442.23 401.82,441.3 405.32,439.19 406.49,438.26 406.72,437.32 406.49,434.52 407.19,434.52 411.16,433.35 413.26,433.35 414.2,433.35 419.8,431.25 422.84,429.15 425.41,428.21 427.51,427.04 429.38,424.94 427.51,424.24 425.88,424.47 424.71,425.18 "/>
   <polygon id="path630" class="fil0" points="493.39,350.65 493.16,349.49 491.29,347.85 490.59,346.92 490.36,345.75 489.65,344.58 488.49,343.88 486.85,344.58 484.98,344.35 475.4,344.58 473.54,347.15 474.47,348.32 476.57,349.02 482.18,348.79 484.98,349.02 487.09,350.19 488.02,352.99 488.25,353.69 491.06,355.56 491.99,356.26 493.16,355.56 493.39,353.69 "/>
   <polygon id="path730" class="fil0" points="116.11,55.13 116.81,53.26 117.98,49.76 118.68,48.13 117.74,46.96 116.11,46.26 112.37,45.56 109.57,44.39 108.86,44.15 107.93,44.39 107,46.26 106.06,46.96 104.43,46.26 103.26,45.32 102.56,44.39 101.86,44.15 101.15,43.22 100.45,41.58 99.75,40.41 99.99,39.25 100.92,38.31 102.09,38.31 103.02,39.01 103.96,39.25 104.89,39.25 105.13,39.25 105.36,38.55 105.13,35.74 104.89,34.81 105.36,34.34 104.66,33.64 103.72,32.94 101.62,31.77 99.99,31.54 97.18,29.67 95.55,28.97 93.68,28.73 91.81,28.03 90.64,26.86 88.77,27.8 87.14,26.16 85.97,24.3 84.34,23.36 74.76,22.43 51.16,23.36 41.12,26.16 38.31,27.33 35.51,29.44 34.34,30.6 33.41,30.84 32.47,30.6 31.31,30.37 30.37,30.14 29.67,29.44 28.73,27.57 27.57,25.93 26.87,25.23 25.93,25 22.89,26.87 20.33,28.73 19.16,30.84 18.92,34.57 19.86,44.85 21.03,50.23 21.03,50.93 21.26,51.16 22.43,52.1 22.43,52.33 23.13,53.03 26.87,55.6 28.74,57.47 30.84,62.84 32.47,64.71 33.64,65.41 37.15,66.11 38.08,66.81 39.72,67.98 43.45,69.85 46.96,73.35 48.13,73.59 49.76,73.82 51.4,74.52 54.43,76.39 69.38,82 70.09,82.7 71.02,83.4 71.95,84.1 72.65,84.1 76.16,83.4 79.9,80.83 83.4,79.9 89.94,79.66 92.98,78.73 93.91,77.79 95.78,75.69 96.72,74.99 97.42,74.75 107,69.85 108.63,69.62 110.5,69.85 112.13,70.55 113.77,70.55 115.64,69.38 116.81,66.35 "/>
   <polygon id="path734" class="fil0" points="405.32,63.31 404.38,62.14 401.82,59.57 400.88,57.94 400.18,56.07 400.18,54.43 401.81,53.73 400.65,51.86 398.78,50.7 396.21,49.76 393.17,49.76 390.13,49.76 388.97,49.76 388.27,48.83 388.03,47.89 386.86,45.79 386.16,44.62 386.16,37.85 385.46,34.81 383.83,32.24 383.59,31.54 382.89,28.73 382.66,28.03 381.96,27.33 375.65,25.23 374.71,24.53 366.54,17.05 363.03,15.88 359.53,15.89 352.29,16.82 339.21,17.05 332.67,15.42 330.8,14.48 329.63,13.32 328.46,12.15 327.29,11.45 326.59,12.38 325.42,11.68 325.42,10.98 325.19,10.28 324.96,10.05 324.02,10.28 322.85,10.51 321.92,11.21 320.75,10.98 319.82,10.28 318.18,7.71 317.25,7.01 316.31,6.77 305.1,2.1 300.43,1.4 300.19,1.4 299.96,1.17 299.73,0.93 299.73,0 299.03,0 298.09,0.7 291.78,0.7 288.28,0.93 286.18,2.1 285.47,3.74 285.24,4.91 285.01,6.07 282.44,7.01 278.47,9.11 275.9,10.05 274.73,10.75 274.03,11.68 273.79,12.85 273.56,12.62 272.63,11.92 271.92,11.68 271.92,11.45 271.23,11.45 270.52,11.68 270.52,11.91 270.52,12.15 270.76,12.15 270.76,12.85 270.99,13.55 270.99,13.78 270.29,14.02 270.06,13.78 269.82,13.78 269.82,13.55 269.12,13.55 268.19,13.55 267.02,13.78 266.09,14.02 264.45,13.08 262.58,9.58 261.41,8.88 262.12,5.37 261.88,2.8 260.71,1.63 257.91,2.34 252.3,4.91 249.27,5.84 245.76,6.07 243.89,6.07 240.86,5.84 224.97,5.61 222.87,5.61 220.06,4.44 218.2,4.21 216.56,4.44 213.76,5.14 210.25,5.37 207.22,6.31 193.9,6.31 192.03,5.61 191.1,5.84 190.39,6.54 189.69,7.24 189.69,8.18 189.46,8.88 188.76,9.11 188.53,9.11 188.29,9.11 188.06,9.34 188.06,10.05 188.06,10.28 188.29,10.28 186.66,12.85 185.96,13.55 183.85,13.78 183.15,14.02 182.45,14.95 183.62,15.19 185.26,15.19 186.19,16.12 185.96,16.82 184.32,17.99 184.09,18.92 184.32,19.86 185.26,22.66 183.62,22.89 181.99,22.66 180.35,22.43 178.72,22.66 177.08,22.89 175.91,23.83 174.04,25.46 172.88,25.7 171.94,25.93 170.07,28.03 169.14,28.97 168.44,28.97 166.57,29.2 166.1,29.2 164.23,30.14 164.23,30.84 166.33,32.47 166.57,33.64 167.5,38.08 170.07,41.58 170.77,42.28 171.01,42.99 171.24,44.85 171.24,48.36 168.67,55.13 168.44,58.87 170.54,61.44 170.77,60.51 171.94,58.87 171.94,58.17 171.24,57.47 171.24,56.53 171.47,55.37 172.41,52.56 173.34,50.93 174.28,49.29 174.51,47.66 175.21,46.96 175.91,46.72 177.55,46.49 178.25,46.49 178.95,45.56 179.88,42.99 180.82,41.82 181.05,40.65 181.75,32.94 182.69,30.14 183.62,27.57 185.26,25 187.36,23.13 189.93,22.43 191.1,23.13 192.03,24.3 192.27,25.93 191.33,28.03 190.63,30.14 190.63,32.01 190.63,32.24 190.86,32.24 192.97,33.17 194.6,33.41 198.1,33.64 198.81,34.34 208.15,49.29 209.32,50.46 212.12,52.1 213.29,53.03 214.92,53.73 216.79,53.03 219.83,51.4 222.87,51.16 226.84,51.4 229.87,51.16 231.04,49.29 230.81,49.06 230.58,48.83 229.87,48.13 229.64,47.43 229.87,46.49 230.11,46.26 230.34,45.56 230.34,46.02 231.04,45.32 237.82,39.72 238.05,38.78 238.75,38.08 243.42,36.21 245.06,34.34 245.29,34.11 245.53,33.41 246.46,33.64 248.1,34.34 249.97,34.34 251.6,35.04 253.24,35.98 254.17,37.61 251.37,41.35 250.67,42.99 250.67,43.92 252.54,45.79 254.4,45.09 260.01,44.85 262.11,44.85 264.68,45.56 270.99,48.59 274.5,49.53 284.07,50.23 287.58,51.4 294.12,54.43 297.86,54.43 300.43,52.56 299.49,49.76 295.75,44.15 296.46,41.58 299.26,41.35 326.59,44.15 330.1,45.09 332.2,47.89 332.2,48.59 332.2,51.16 332.43,51.86 333.13,52.8 333.13,53.5 334.07,54.43 335.24,55.37 338.04,57 342.01,58.64 343.18,58.64 343.41,58.87 345.05,60.51 359.77,65.18 363.5,67.75 365.14,67.98 367.01,68.21 368.64,68.45 369.81,69.15 370.74,70.08 372.38,72.19 373.31,73.35 374.48,73.59 376.35,73.82 377.52,74.06 379.15,74.99 380.09,75.69 383.59,79.43 384.29,80.13 385.46,80.36 393.64,83.17 395.27,83.4 396.44,83.63 399.01,86.2 400.65,86.44 402.51,86.2 402.51,85.27 401.58,84.1 400.88,83.17 401.58,72.89 401.81,71.95 402.98,70.32 402.98,69.38 403.22,69.15 404.38,67.28 404.62,66.58 404.85,64.95 404.62,64.01 "/>
   <polygon id="path738" class="fil0" points="203.01,58.17 199.27,57.47 195.77,59.1 189.23,64.01 188.29,64.24 181.52,64.01 180.35,64.01 179.42,64.24 175.44,67.05 173.58,68.68 170.07,73.12 169.84,73.82 170.77,75.69 171.01,77.33 171.24,78.49 172.87,79.43 175.68,79.43 177.31,78.26 178.48,76.63 180.12,74.99 181.05,74.76 183.15,74.06 185.02,72.89 188.06,71.72 191.1,69.62 192.73,68.92 194.37,69.62 192.73,71.25 188.76,74.06 187.12,77.09 186.89,77.79 185.02,78.96 184.32,79.66 186.89,79.43 188.53,78.26 189.46,77.09 191.33,76.39 193.43,76.39 195.53,75.69 196.7,74.76 198.34,72.19 198.57,71.95 198.57,71.25 196.47,68.45 196.24,67.51 196.94,67.28 197.64,67.28 198.34,67.28 199.27,67.51 201.14,68.45 201.37,68.68 203.48,67.98 203.48,66.81 202.78,65.18 202.54,63.31 203.24,62.14 204.18,61.21 204.41,60.27 "/>
   <polygon id="path742" class="fil0" points="218.66,60.04 217.49,59.34 214.69,58.64 213.52,57.94 210.72,58.87 210.02,59.57 209.32,60.51 209.08,61.67 209.08,62.61 208.85,63.78 208.15,65.41 207.45,67.28 208.15,68.45 210.95,67.28 212.59,67.05 215.62,66.35 218.66,65.41 220.3,65.18 221.46,64.48 221.23,62.61 220.06,60.74 "/>
   <polygon id="path746" class="fil0" points="233.85,59.57 232.68,57.7 231.74,57.7 230.81,58.87 230.11,60.51 229.18,60.04 226.61,59.1 225.9,58.4 224.74,56.77 224.03,56.53 222.87,56.54 221,56.77 221,57.94 221.7,59.1 223.34,61.21 224.04,62.38 224.74,63.31 225.91,64.25 225.2,64.24 225.9,65.41 226.61,66.11 227.54,66.81 228.24,66.58 229.18,65.88 229.18,64.95 228.94,64.24 228.94,63.31 230.11,62.37 231.75,63.31 233.38,64.94 235.02,66.11 235.02,60.51 "/>
   <polygon id="path750" class="fil0" points="240.16,68.92 238.52,68.21 236.89,68.92 235.95,70.08 235.95,71.95 237.12,73.12 238.29,73.35 239.92,72.65 240.86,71.02 240.62,70.32 239.92,69.62 239.92,69.38 "/>
   <polygon id="path754" class="fil0" points="433.82,96.25 431.95,95.31 431.95,96.95 432.19,98.82 433.12,100.45 434.05,101.15 434.76,100.92 434.99,99.99 434.99,98.12 434.99,97.42 434.75,96.72 434.52,96.48 "/>
   <polygon id="path758" class="fil0" points="444.57,106.76 440.59,103.96 439.66,103.02 438.96,102.32 438.73,102.09 438.49,102.09 438.26,102.32 438.03,102.56 438.03,102.79 438.03,103.02 438.26,103.96 438.49,104.66 439.19,105.59 439.9,105.83 443.63,107.46 446.44,109.33 446.67,109.1 446.44,108.16 "/>
   <polygon id="path762" class="fil0" points="450.64,99.99 449.71,98.12 449,96.02 448.07,93.91 446.43,93.21 445.27,93.91 444.57,94.15 444.33,94.85 444.57,96.02 446.2,99.75 446.9,100.92 448.77,102.09 450.41,102.09 451.34,101.39 "/>
   <polygon id="path766" class="fil0" points="463.49,131.52 464.42,132.46 467.23,139 467.93,139.7 469.56,139 468.63,136.2 466.99,133.16 465.83,131.53 465.12,131.29 464.42,131.06 464.19,131.06 "/>
   <polygon id="path770" class="fil0" points="473.53,152.32 473.3,153.48 473.07,155.35 473.3,157.22 474,158.16 474.94,157.45 475.64,155.59 475.4,153.48 "/>
   <polygon id="path774" class="fil0" points="558.57,239.22 557.4,238.52 556.7,236.88 556.7,235.25 556,233.61 555.3,233.61 555.3,233.85 555.07,234.55 555.07,233.85 554.13,230.81 553.9,229.64 553.9,228.94 553.2,228.24 552.5,228.24 551.33,228.47 550.63,228.47 549.69,227.77 549.69,227.07 550.39,226.14 550.63,225.2 550.39,223.57 549.46,223.57 548.52,224.74 547.36,225.44 546.89,225.44 544.09,223.8 544.09,224.97 544.79,225.67 545.02,226.37 545.72,227.07 545.72,227.77 545.72,229.41 545.96,230.11 546.66,230.11 546.89,230.11 547.12,230.11 547.36,230.81 547.12,231.51 547.12,231.74 546.89,231.98 546.89,232.68 547.12,232.91 548.06,232.91 548.29,232.91 548.99,235.72 549.23,236.65 548.29,236.65 548.06,238.52 548.29,242.96 548.06,242.96 547.82,242.96 547.59,242.96 547.36,243.66 547.59,244.36 547.59,244.59 547.82,244.59 547.82,244.83 547.82,246.93 547.82,247.86 548.52,248.8 548.52,248.1 549.46,249.73 549.69,249.97 550.39,250.2 551.1,249.97 551.8,249.27 551.8,248.33 551.8,247.4 552.5,248.56 553.2,250.43 554.13,251.6 555.77,250.9 556.7,249.26 557.87,247.63 558.57,245.99 559.27,244.13 559.97,240.62 559.97,238.99 "/>
   <polygon id="path778" class="fil0" points="588.94,201.14 588,200.21 586.84,199.51 585.2,199.51 584.03,199.74 583.1,201.37 582.4,204.41 581.7,205.58 580.06,208.15 577.26,217.26 576.09,220.06 575.86,221.7 575.62,224.73 574.69,227.77 573.99,228.47 572.82,227.77 571.65,227.54 568.85,231.98 568.85,233.61 568.85,238.52 568.15,239.22 566.28,241.32 561.61,255.1 561.84,256.04 562.77,255.34 570.25,245.99 570.95,245.06 570.95,243.89 570.25,241.32 570.25,239.92 570.95,237.35 572.59,234.55 574.22,232.45 575.86,230.58 576.79,229.41 577.02,228.71 578.19,228.47 579.13,227.54 579.83,227.54 580.76,226.84 582.87,224.97 583.57,224.03 585.44,218.19 587.54,206.98 588.24,206.28 589.17,205.58 589.41,203.94 589.41,202.54 "/>
   <polygon id="path782" class="fil0" points="692.43,301.83 691.73,298.32 691.96,298.09 692.2,297.86 692.43,297.62 692.66,297.62 692.43,296.92 692.43,296.69 692.2,296.69 691.96,295.99 690.79,293.19 690.56,292.95 690.56,292.72 690.56,292.48 690.33,291.78 689.63,291.55 689.39,291.78 689.16,291.78 688.93,291.78 687.29,290.85 686.36,289.68 685.19,288.98 681.68,288.28 680.05,287.34 678.88,286.18 677.01,283.61 677.01,282.9 677.71,282.2 677.95,281.27 677.71,280.57 677.48,279.87 677.25,279.63 676.31,279.4 673.74,277.53 671.17,274.73 670,274.03 667.2,273.09 666.27,272.16 665.57,271.22 664.86,270.29 663.93,269.59 662.99,269.82 662.06,270.05 661.83,271.22 661.83,273.79 663.7,279.16 664.4,281.97 663.7,289.44 664.86,291.55 668.83,291.31 669.07,292.95 670.24,295.05 670.47,296.22 668.6,294.58 664.16,293.88 663.23,292.71 662.99,291.78 662.29,292.48 662.06,293.65 660.42,306.73 658.79,313.04 657.86,315.61 657.86,316.78 657.86,317.48 658.79,319.35 659.49,321.92 660.66,322.85 663.7,323.55 664.63,324.25 664.86,324.49 666.03,325.65 667.9,329.16 669.77,328.46 672.81,326.35 677.71,324.49 681.68,321.45 681.92,320.51 680.75,319.81 684.72,313.27 685.65,313.04 686.59,312.1 687.29,311.17 687.99,310.47 687.76,309.77 686.59,308.83 685.42,308.84 685.42,308.14 687.52,307.9 689.16,308.6 691.03,308.6 693.13,306.73 693.36,306.03 693.6,304.4 694.3,303.7 694.53,302.53 693.6,302.3 "/>
   <polygon id="path786" class="fil0" points="714.16,268.89 712.52,269.82 708.78,271.46 709.02,270.76 709.25,269.82 709.48,268.89 709.72,268.89 709.95,269.12 710.18,269.36 711.82,268.42 713.45,266.79 714.39,264.92 714.62,263.05 713.92,262.11 711.12,258.38 709.95,257.68 706.45,254.87 705.75,253.94 705.51,252.3 704.34,251.6 701.31,251.84 701.54,251.13 702.24,250.9 703.18,250.2 704.11,250.2 705.28,250.2 705.98,250.9 706.68,251.13 707.38,251.84 709.02,252.77 710.89,253.47 712.05,253.47 711.12,251.37 711.35,251.37 712.05,251.37 711.35,250.67 709.48,249.97 708.78,249.03 709.02,248.1 709.72,247.4 710.65,247.63 710.89,248.8 711.82,248.1 713.46,247.39 714.16,246.69 713.92,245.99 713.69,245.76 713.46,245.53 713.69,244.36 712.76,243.19 711.12,242.49 709.48,242.49 710.19,241.32 711.82,239.69 712.05,238.52 712.29,237.58 712.29,237.58 712.05,236.88 711.82,236.65 711.59,236.65 710.65,236.42 710.88,235.48 711.59,233.38 712.52,231.28 714.16,230.34 712.29,227.54 710.18,225.44 709.02,224.27 708.08,223.57 707.38,223.33 705.28,223.33 704.34,223.33 705.05,222.63 705.98,222.4 707.85,221.7 707.85,222.4 708.08,222.4 707.85,221.23 707.85,220.53 707.15,220.3 708.78,219.36 709.48,219.36 708.78,218.43 706.21,216.79 705.51,215.86 704.34,212.82 704.11,212.12 700.14,210.25 699.2,210.49 697.1,211.65 696.17,211.65 695.93,211.42 695.7,211.19 695.47,210.95 694.77,210.95 694.07,210.95 693.83,211.65 693.6,211.89 693.6,212.59 693.6,216.33 693.6,216.56 694.3,217.26 694.53,217.96 694.53,218.9 694.53,220.53 693.6,220.3 693.6,220.07 692.66,221 691.96,221.7 691.03,221 690.79,219.83 687.06,226.14 687.06,227.07 686.36,228.24 685.42,229.18 684.49,229.88 683.55,230.81 682.85,231.98 682.85,233.15 682.15,234.08 680.28,234.32 678.65,233.62 676.08,231.51 674.44,230.81 672.81,231.51 670.94,232.45 670,233.62 670.24,234.78 672.34,236.65 673.27,237.35 674.91,238.05 677.71,238.05 678.88,238.29 679.58,239.22 680.28,240.86 680.98,241.09 681.92,240.15 682.62,238.99 684.26,240.15 684.02,241.09 682.15,242.96 682.15,243.66 682.85,244.59 680.05,246.23 679.82,247.86 679.12,248.8 677.71,249.27 676.78,249.5 676.78,250.2 678.65,252.77 679.35,253.7 679.11,254.87 678.18,256.51 677.95,257.68 678.88,258.61 680.52,258.38 683.32,258.38 683.32,259.08 681.68,260.25 680.52,260.25 678.88,260.25 677.25,260.95 676.08,263.05 676.08,265.85 677.01,268.66 679.12,271.46 679.35,272.16 679.58,273.1 680.28,274.03 681.22,274.26 681.45,274.26 681.68,274.03 682.39,274.03 682.62,274.03 682.85,274.73 682.85,274.96 683.09,275.2 683.79,275.43 688.46,277.3 689.39,277.3 690.09,278.47 693.6,280.1 694.53,281.04 694.77,281.27 696.4,282.44 696.4,282.67 696.64,282.91 697.57,284.07 698.27,284.07 699.21,283.84 700.14,283.84 702.01,285.48 703.88,283.84 709.48,281.74 710.65,279.87 710.88,278.23 712.52,275.2 713.22,274.26 713.45,273.33 712.75,271.69 712.99,270.99 713.22,270.29 713.45,269.59 713.69,268.89 "/>
   <polygon id="path938" class="fil0" points="316.55,138.53 317.48,140.17 318.18,139 317.01,138.3 "/>
   <polygon id="path942" class="fil0" points="158.86,204.41 159.56,204.65 159.33,203.94 "/>
   <polygon id="path946" class="fil0" points="160.03,209.32 160.96,209.08 160.73,208.38 "/>
   <polygon id="path950" class="fil0" points="141.34,215.63 140.4,216.33 141.34,216.56 "/>
   <polygon id="path954" class="fil0" points="141.1,217.49 141.8,217.73 141.57,217.03 "/>
   <polygon id="path982" class="fil0" points="310.01,381.26 310.71,381.49 311.64,381.49 312.81,380.79 313.04,379.85 312.34,379.62 311.64,379.85 310.94,380.09 310,379.39 308.84,378.22 308.6,377.99 307.9,378.92 308.14,380.09 "/>
   <polygon id="path986" class="fil0" points="336.4,393.41 336.17,392.47 335.94,391.77 335.24,391.54 334.3,391.77 334.07,392.47 334.3,393.17 334.53,394.11 335.24,394.34 335.24,395.04 335.47,395.27 336.4,395.27 337.1,395.04 "/>
   <polygon id="path990" class="fil0" points="341.08,396.44 340.14,396.21 339.44,396.44 338.51,396.21 338.27,396.44 338.04,396.68 337.8,396.91 338.51,397.14 339.44,397.14 340.14,397.14 341.31,398.08 342.24,398.08 342.48,396.91 342.24,396.21 "/>
   <polygon id="path994" class="fil0" points="336.64,282.21 337.34,281.97 337.57,281.74 337.34,281.04 336.17,280.8 335.47,281.04 335.7,281.27 335.94,281.97 "/>
   <polygon id="path998" class="fil0" points="294.59,316.08 294.82,316.08 294.82,316.78 295.05,317.01 295.99,317.25 296.69,317.25 297.39,316.55 298.32,314.68 298.32,313.98 298.32,313.28 297.39,313.28 296.92,313.28 295.75,313.28 295.05,313.98 294.35,314.91 294.35,316.08 294.35,316.31 "/>
  </g>
 </g>
</svg>
