<?xml version="1.0" encoding="UTF-8"?>
<!DOCTYPE svg PUBLIC "-//W3C//DTD SVG 1.1//EN" "http://www.w3.org/Graphics/SVG/1.1/DTD/svg11.dtd">
<!-- Creator: CorelDRAW 2018 (64-Bit) -->
<svg xmlns="http://www.w3.org/2000/svg" xml:space="preserve" width="2.99669in" height="2.91919in" version="1.1" style="shape-rendering:geometricPrecision; text-rendering:geometricPrecision; image-rendering:optimizeQuality; fill-rule:evenodd; clip-rule:evenodd"
viewBox="0 0 280.01 272.77"
 xmlns:xlink="http://www.w3.org/1999/xlink">
 <defs>
  <style type="text/css">
   <![CDATA[
    .fil0 {fill:#5C67AE}
   ]]>
  </style>
 </defs>
 <g id="Layer_x0020_1">
  <metadata id="CorelCorpID_0Corel-Layer"/>
  <g id="RI">
   <g id="g60">
    <polygon id="path62" class="fil0" points="225.37,144.11 224.71,143.24 224.05,142.36 223.17,141.48 222.29,141.48 222.07,141.7 222.07,141.92 222.29,142.14 222.29,142.8 222.51,143.68 223.39,146.09 224.05,146.97 224.27,147.63 224.93,147.85 225.37,147.63 225.58,146.53 225.58,145.87 225.58,145.21 "/>
   </g>
   <g id="g64">
    <polygon id="path66" class="fil0" points="227.78,131.61 227.12,131.61 226.9,131.83 226.24,132.05 225.58,132.92 225.36,133.14 225.15,133.8 225.15,134.46 225.15,135.12 225.36,136 225.58,136.87 226.24,136.87 227.12,136 228,134.24 228.22,132.49 "/>
   </g>
   <g id="g68">
    <polygon id="path70" class="fil0" points="207.37,169.13 208.03,170.23 210,169.57 212.64,168.47 214.17,167.59 213.08,166.94 211.1,167.16 208.69,168.03 "/>
   </g>
   <g id="g340">
    <polygon id="path342" class="fil0" points="272.55,210.83 269.25,210.61 267.72,209.95 267.28,208.85 266.4,208.19 262.23,207.53 261.13,207.53 258.5,209.07 255.65,212.36 253.89,215.87 253.89,218.29 255.87,218.07 260.26,219.6 261.79,219.38 262.67,219.16 263.77,219.38 264.43,219.6 265.31,219.82 266.18,219.82 267.94,218.72 268.6,218.51 269.47,218.29 271.45,217.41 272.55,217.19 275.4,217.41 275.62,217.19 276.49,215.43 275.62,213.68 274.3,211.7 "/>
   </g>
   <g id="g412">
    <polygon id="path414" class="fil0" points="241.16,144.11 240.51,142.58 239.63,141.04 238.75,139.95 237.65,138.85 236.56,138.19 235.02,137.97 232.83,138.85 231.29,141.26 229.53,148.07 229.53,149.6 229.75,150.7 230.63,151.8 232.17,152.45 233.05,152.45 233.92,152.23 240.29,150.7 241.6,149.82 241.82,148.07 241.6,145.65 "/>
   </g>
   <g id="g416">
    <polygon id="path418" class="fil0" points="228.66,121.73 225.15,115.81 222.29,112.96 217.03,109.44 210.88,106.15 204.74,104.18 201.23,103.52 198.38,104.62 197.28,105.71 196.18,109 195.08,110.54 192.67,113.17 191.57,114.71 191.79,115.59 193.33,115.81 195.08,115.15 196.84,114.27 198.37,113.61 202.76,113.39 204.3,113.61 204.96,114.49 205.84,115.37 206.71,116.25 208.25,116.9 209.35,116.91 211.98,118 212.86,118.22 216.37,121.51 216.37,121.73 226.24,127.88 229.54,128.54 232.39,126.56 233.05,124.81 232.17,123.71 "/>
   </g>
   <g id="g420">
    <polygon id="path422" class="fil0" points="223.17,131.39 222.51,129.63 222.29,128.97 221.2,127.88 212.64,121.73 206.71,119.1 203.2,116.25 201.66,115.37 200.13,115.15 198.15,115.15 197.28,115.37 195.3,116.25 194.2,116.47 192.89,116.47 191.13,116.25 190.04,115.37 190.04,114.27 190.91,113.17 190.69,112.3 190.04,111.42 186.3,107.03 184.33,106.15 181.48,106.37 179.72,108.35 179.72,111.2 182.14,118.22 182.14,119.76 181.26,120.85 177.97,121.51 176.21,122.61 175.11,124.15 175.11,125.9 178.84,128.75 179.5,128.97 183.23,131.82 186.09,132.48 188.94,132.26 195.3,130.73 196.84,130.73 200.13,131.61 201.88,131.83 208.03,131.17 211.32,131.83 213.95,133.36 218.12,136.87 219.22,138.63 219.44,138.63 219.66,138.85 220.54,138.85 221.2,138.63 221.85,138.41 222.51,137.31 223.17,134.46 223.83,132.92 223.61,132.92 223.39,132.27 "/>
   </g>
   <g id="g424">
    <polygon id="path426" class="fil0" points="181.92,88.82 181.92,82.67 181.92,82.89 181.26,79.38 179.28,77.63 173.14,75.87 172.26,75.65 170.72,74.77 169.85,74.55 169.19,74.33 166.77,74.55 162.39,73.68 157.78,73.02 156.02,72.8 154.92,72.14 153.83,71.26 150.1,69.51 149,69.29 145.49,70.16 145.27,72.58 147.02,75.21 149,78.06 151.85,80.7 154.7,82.23 166.12,83.99 167.65,84.65 168.31,84.87 169.41,85.52 172.7,89.25 177.31,93.86 180.6,95.84 183.01,95.18 183.01,94.08 "/>
   </g>
   <g id="g428">
    <polygon id="path430" class="fil0" points="180.16,98.03 179.5,97.37 178.4,96.28 172.92,92.11 168.75,87.72 166.34,85.96 163.48,85.3 161.95,85.3 160.85,85.52 160.63,86.4 160.41,87.94 161.07,91.23 160.85,91.89 160.19,93.42 159.97,94.08 160.19,95.62 160.85,97.15 161.73,98.69 163.26,100.23 163.26,101.32 163.26,104.18 162.61,107.47 162.39,109.22 163.05,110.32 163.92,111.42 165.02,113.83 170.07,119.32 172.7,121.29 175.11,121.95 175.77,121.29 178.19,119.54 178.85,119.32 179.72,119.32 180.38,119.32 180.38,118.44 180.38,116.9 178.84,112.52 178.84,110.76 178.84,109 180.82,101.98 181.04,100.01 "/>
   </g>
   <g id="g432">
    <polygon id="path434" class="fil0" points="123.98,37.03 122.89,35.49 121.13,33.08 118.5,31.55 116.08,32.42 112.35,36.15 111.26,36.81 109.72,37.03 107.09,35.93 105.99,35.71 103.14,36.37 101.38,38.13 100.5,40.1 99.63,46.47 99.85,48 101.6,50.64 102.26,52.39 103.14,55.9 104.67,58.75 107.09,60.73 109.94,62.27 113.45,62.92 114.99,62.93 116.96,62.71 118.72,62.05 119.59,61.17 120.25,60.29 123.76,57.88 124.86,56.12 125.08,54.59 124.86,51.29 125.08,49.54 127.71,46.69 128.37,44.93 127.71,42.3 126.84,40.32 "/>
   </g>
   <polygon id="Riau" class="fil0" points="18.65,0 17.12,4.39 16.02,14.92 16.24,17.77 16.46,20.19 17.34,23.48 18.43,28.53 19.09,36.21 19.09,38.18 18,41.69 18,41.91 17.34,44.55 17.12,47.4 17.34,49.15 18,50.25 18.87,51.13 21.73,53.1 22.6,53.98 23.26,55.08 25.02,60.13 27.65,66.27 28.31,68.68 28.53,70.22 28.31,71.32 27.65,72.41 26.99,73.29 26.11,74.17 21.51,76.8 19.09,77.9 17.99,78.56 3.07,84.92 1.54,85.8 0.88,86.46 0.66,87.12 -0,87.78 -0,88.44 -0,89.09 0.22,89.75 3.73,92.39 4.39,93.26 5.05,94.14 5.05,95.02 5.05,97.65 5.27,98.53 5.49,99.19 6.14,99.85 9.44,101.6 10.31,102.26 10.97,102.92 11.63,103.8 11.85,104.68 12.07,105.77 11.85,107.53 10.97,110.82 10.97,111.7 10.97,112.8 11.19,114.33 11.41,115.43 11.41,116.97 11.19,122.01 11.19,125.3 11.19,126.18 10.97,126.84 10.31,127.5 9.66,128.16 9.44,128.38 8.78,129.26 8.12,130.79 7.9,131.67 7.9,133.2 8.12,135.18 9.87,136.72 10.53,137.59 10.53,138.25 10.53,138.91 10.31,139.57 9.66,140.23 8.12,141.76 7.46,142.42 7.24,143.08 7.24,143.96 9.22,149.88 9.88,150.98 11.41,152.52 12.07,153.4 14.92,158.88 22.6,161.73 25.02,161.52 25.68,160.86 26.33,159.98 26.99,159.76 27.65,159.1 28.75,158.88 31.16,158.66 32.26,158.88 33.36,159.1 35.11,160.2 38.4,163.93 43.67,166.34 46.96,168.32 48.72,169.85 51.57,173.14 52.23,173.36 52.45,173.14 52.67,173.14 53.32,172.92 53.98,172.92 54.64,173.14 54.86,173.36 55.08,174.02 55.3,174.24 57.27,176.21 57.93,177.09 58.81,178.19 59.03,179.28 59.03,180.16 59.03,181.26 58.15,187.62 58.15,189.38 58.37,193.99 58.37,194.64 57.71,195.3 57.05,195.52 56.18,195.74 52.45,195.74 51.79,195.96 51.57,196.18 50.91,196.4 50.91,197.06 50.91,197.94 51.13,199.47 53.1,203.2 53.32,204.3 53.98,206.93 54.2,208.03 54.86,208.91 56.4,211.32 59.03,215.71 65.17,220.1 68.03,221.2 69.78,221.42 72.63,226.9 87.34,243.8 94.36,250.16 102.04,254.55 106.43,259.16 109.06,260.91 112.79,262.01 120.03,263.55 123.54,264.65 124.42,265.3 125.08,265.52 125.96,266.18 126.18,266.84 126.4,267.06 127.05,268.81 127.05,268.81 135.61,265.96 136.27,265.74 136.93,265.08 137.59,264.43 138.25,262.67 138.91,261.79 139.13,261.13 139.78,260.26 141.32,258.72 143.08,257.62 143.73,257.4 144.39,257.18 145.05,257.18 145.93,256.96 150.32,257.18 154.05,256.53 155.14,256.31 157.12,255.43 158,255.21 158.87,255.21 159.75,255.21 163.04,256.09 163.7,256.31 164.36,256.96 165.02,258.06 165.68,259.82 165.9,260.48 170.07,263.99 170.73,264.86 170.95,265.52 171.16,266.4 171.16,266.62 171.82,266.62 173.58,267.28 174.46,267.5 175.11,268.16 175.77,268.81 176.65,269.91 177.53,270.57 179.06,271.23 185.87,272.77 187.62,272.55 188.5,271.45 190.04,267.28 190.26,266.4 192.67,264.87 193.33,264.65 193.99,263.99 194.64,262.89 195.74,260.92 195.96,260.04 196.62,259.38 197.28,258.72 199.69,256.97 200.35,256.31 203.2,252.8 204.08,251.92 204.96,251.26 205.84,250.6 214.4,248.19 217.68,248.19 228.22,249.07 252.58,247.31 250.6,246.43 248.84,245.55 247.31,244.46 246.43,243.36 248.41,243.36 249.5,242.26 249.5,240.73 248.41,239.85 248.41,239.19 250.16,238.09 251.26,236.12 251.48,233.7 251.48,231.95 250.82,231.29 249.07,229.75 248.85,229.1 248.19,224.05 249.72,227.34 250.6,228.88 251.7,229.53 258.94,228 261.35,227.34 263.33,226.24 264.43,224.71 265.08,223.17 264.43,222.29 261.57,220.54 260.04,220.32 259.16,219.66 258.5,219.44 257.84,218.78 256.96,218.56 256.09,218.56 251.48,218.56 250.6,218.78 249.07,219.44 247.53,219.22 244.9,218.12 244.9,217.9 249.94,217.03 251.92,216.15 252.8,214.39 253.45,212.42 256.31,209.79 256.97,208.03 255.87,206.93 253.45,207.15 251.04,208.69 249.07,209.35 247.53,209.57 245.55,210.44 244.02,210.66 242.92,210.66 240.94,210 239.41,210 241.82,208.47 250.38,206.93 252.36,205.84 254.11,204.3 255.65,202.54 255.87,200.57 256.09,199.69 257.18,199.47 259.82,199.47 260.91,199.25 262.01,198.59 262.89,197.93 262.23,196.18 262.23,195.52 262.45,194.64 262.67,193.98 262.45,193.33 261.79,193.33 261.13,193.33 260.91,192.45 261.13,191.79 262.01,191.57 262.67,191.35 262.89,191.35 263.77,192.01 264.43,193.55 265.3,194.2 265.96,194.42 266.62,194.42 267.28,194.2 268.16,194.2 268.81,193.98 268.81,192.45 269.47,192.23 275.62,191.57 277.37,191.79 278.25,191.79 279.13,191.13 279.79,190.03 280.01,189.38 279.79,189.16 279.13,188.28 275.84,172.7 274.74,170.07 273.86,168.97 272.33,167.43 270.57,166.33 268.81,165.68 268.16,165.46 267.28,164.8 266.4,164.8 265.74,165.46 265.08,166.12 264.21,167.65 262.67,162.61 259.16,158.44 254.77,154.71 250.38,152.29 247.97,151.2 245.99,150.98 244.02,151.2 242.04,152.73 240.07,153.61 235.68,154.49 234.14,156.02 232.6,159.31 231.51,160.41 229.75,161.07 228.22,161.29 226.24,161.95 224.71,162.61 223.17,163.27 219.44,167 218.34,167.22 216.81,167.87 211.54,171.17 210.44,171.82 205.4,172.48 201.23,174.24 199.47,174.46 195.96,173.8 194.86,174.46 193.98,175.12 192.23,175.78 191.57,176.43 190.91,177.09 190.25,177.97 189.6,178.63 186.96,179.73 184.55,178.85 182.57,177.09 181.04,175.34 180.16,174.46 179.94,174.24 179.06,174.02 177.53,174.02 176.65,173.8 175.99,173.58 176.65,173.36 178.19,173.36 180.16,174.02 181.26,174.24 183.89,177.09 185.43,177.97 187.18,178.19 188.06,177.97 189.6,175.33 190.25,174.67 190.91,174.46 192.45,173.8 197.72,172.7 198.81,172.04 199.69,171.16 208.47,166.77 211.1,166.11 212.86,165.02 215.71,163.04 221.63,160.41 224.27,158.87 225.8,156.9 225.14,153.39 223.17,150.1 215.27,141.32 212.64,138.9 209.78,137.37 202.54,137.15 193.98,135.61 192.45,135.83 190.03,136.49 188.5,136.71 185.21,136.49 183.67,136.27 181.92,135.61 178.4,133.86 175.55,131.44 167.87,122.89 161.73,118.28 159.31,114.99 158.22,111.69 158.22,109.06 158.88,103.14 158.66,101.6 158,100.5 156.9,99.41 155.8,99.19 154.93,98.31 154.93,95.9 155.58,93.04 154.71,89.53 152.95,87.56 145.71,83.39 127.5,68.25 125.52,66.71 122.67,66.05 120.03,66.05 113.89,67.15 111.91,67.15 109.28,66.05 106.65,65.39 101.6,62.98 99.19,61 97.65,58.37 95.68,52.01 93.92,47.62 93.7,46.08 93.92,42.79 93.92,41.04 93.26,39.5 91.73,37.74 82.95,30.5 74.39,25.02 73.51,23.26 73.73,20.41 72.85,19.75 62.32,18.87 60.57,19.09 57.27,20.19 55.3,22.6 54.42,25.89 54.42,29.41 56.18,32.7 60.57,38.84 62.1,42.13 62.98,45.64 63.64,47.4 64.52,48.5 65.39,50.25 65.39,51.79 65.17,53.32 65.39,54.86 63.64,53.98 62.54,52.23 61.66,50.25 61.44,47.84 61.22,46.08 60.13,43.67 59.03,41.69 57.93,40.82 57.27,40.6 55.74,38.84 53.98,38.18 44.55,31.82 41.04,32.04 36.65,30.06 32.92,26.77 27.43,21.28 25.46,18.43 23.7,15.14 "/>
  </g>
 </g>
</svg>
