<?xml version="1.0" encoding="UTF-8"?>
<!DOCTYPE svg PUBLIC "-//W3C//DTD SVG 1.1//EN" "http://www.w3.org/Graphics/SVG/1.1/DTD/svg11.dtd">
<!-- Creator: CorelDRAW 2018 (64-Bit) -->
<svg xmlns="http://www.w3.org/2000/svg" xml:space="preserve" width="0.904173in" height="2.20992in" version="1.1" style="shape-rendering:geometricPrecision; text-rendering:geometricPrecision; image-rendering:optimizeQuality; fill-rule:evenodd; clip-rule:evenodd"
viewBox="0 0 13.19 32.25"
 xmlns:xlink="http://www.w3.org/1999/xlink">
 <defs>
  <style type="text/css">
   <![CDATA[
    .fil0 {fill:#5C67AE}
   ]]>
  </style>
 </defs>
 <g id="Layer_x0020_1">
  <metadata id="CorelCorpID_0Corel-Layer"/>
  <polygon id="SR" class="fil0" points="9.12,0.17 8.94,0.27 8.91,0.45 8.77,0.96 8.67,1.13 8.53,1.27 8.43,1.51 8.33,2.16 8.19,2.6 8.09,3.05 7.98,3.22 7.81,3.36 7.57,3.39 7.44,3.43 7.33,3.56 7.23,3.7 7.13,3.84 6.85,4.08 6.58,4.39 6.41,4.76 6.41,5.21 6.65,5.72 6.65,5.96 6.61,6.1 6.34,6.34 6.31,6.44 6.2,6.58 6.24,6.61 6.24,6.72 6.34,7.68 6.37,7.81 6.65,8.6 6.61,8.84 6.37,9.29 6.34,9.53 6.37,10.04 6.61,11.03 6.72,11.27 6.89,11.45 6.99,11.55 7.09,11.58 7.09,11.69 7.09,11.82 6.96,12.89 6.85,13.16 6.72,13.3 6.55,13.26 6.37,13.16 6.2,13.16 5.93,13.19 5.55,13.43 5.31,13.74 5,15.01 4.83,15.32 4.42,15.97 4.52,16.14 4.49,16.28 4.39,16.45 4.35,16.55 4.39,17.75 4.42,18.03 4.45,18.75 4.42,18.88 3.84,19.4 3.6,19.5 3.36,19.6 3.19,19.84 3.08,20.25 2.98,20.39 2.84,20.49 2.6,20.63 2.33,20.87 1.78,21.25 1.54,21.35 1.27,21.32 1.1,21.18 0.96,21.01 0.72,20.97 0.55,21.08 0.38,21.32 0.27,21.59 0.24,21.76 0.24,22.31 0.21,22.45 0.03,22.69 -0,22.79 0.03,23.06 0.17,23.51 0.17,23.78 0.69,23.61 0.93,23.58 1.23,23.68 1.37,23.71 1.47,23.82 1.51,23.92 1.54,24.09 1.51,24.4 1.47,24.54 1.3,24.78 1.2,25.15 1.17,26.08 1.13,26.25 0.96,26.29 0.75,26.28 0.48,26.15 0.38,26.15 0.27,26.18 0.1,26.42 0.07,26.52 0.1,26.66 0.21,26.9 0.24,27 0.27,27.14 0.38,27.24 0.51,27.35 0.62,27.38 0.72,27.48 0.75,27.76 0.89,28.55 1.13,28.96 1.1,29.13 0.99,29.37 0.96,29.54 0.99,29.81 1.1,30.05 1.2,30.33 1.47,30.71 1.88,31.9 2.02,32.14 2.16,32.25 2.26,32.21 2.43,31.94 2.54,31.84 2.64,31.87 2.78,32.04 2.91,32.04 2.88,31.67 3.19,31.49 4.04,31.39 4.22,31.36 4.49,31.19 4.73,31.15 4.9,31.15 5.07,31.25 5.31,31.29 5.55,31.19 5.72,31.08 6.17,30.71 6.27,30.57 6.31,30.53 6.48,30.5 6.89,30.53 7.2,30.71 7.51,30.88 7.88,31.05 8.16,31.01 8.26,31.05 8.5,31.15 8.6,31.19 8.5,30.5 8.26,29.81 8.22,29.64 8.19,29.23 8.16,28.79 8.12,28.75 8.02,28.62 7.75,28.31 7.71,28.2 7.68,28.03 7.71,27.93 7.81,27.79 7.92,27.69 8.05,27.69 8.16,27.69 8.33,27.72 8.46,27.76 8.6,27.72 8.84,27.62 9.22,27.31 9.49,27.21 9.73,27.07 10.25,26.97 10.42,26.87 10.42,26.76 10.38,26.59 10.01,26.18 9.29,24.4 9.25,24.16 9.22,23.92 9.25,23.68 9.29,23.41 9.29,23.27 9.29,23.13 8.98,22.62 9.15,22.51 9.46,22.48 9.7,22.48 9.94,22.48 10.38,22.58 10.66,22.62 11.45,22.38 11.89,22.1 12.03,22 12.13,21.86 12.13,21.76 12.1,21.66 12.06,21.56 11.96,21.45 11.93,21.35 11.93,21.21 12.03,20.97 12.03,20.84 11.62,20.29 11.58,19.84 11.62,19.53 11.58,19.36 11.48,19.22 11.38,19.09 11.34,18.95 11.34,18.81 11.48,18.54 11.51,18.3 11.48,18.16 11.45,18.03 11.27,17.85 10.86,17.48 10.73,17.37 10.45,17.27 10.32,17.17 10.32,17.07 10.32,16.93 10.35,16.69 10.35,16.14 10.45,15.9 10.56,15.66 11.82,14.56 11.96,14.53 12.1,14.53 12.23,14.53 12.37,14.5 12.51,14.36 12.65,14.19 13.19,13.13 13.02,13.09 12.89,13.06 12.78,12.95 12.65,12.78 12.61,12.61 12.61,12.34 12.61,12.17 12.78,11.58 12.89,11.27 12.89,11.1 12.85,10.86 12.61,10.55 12.3,10.14 12.03,9.87 11.48,9.18 11.38,8.94 11.27,8.64 11.1,7.44 10.97,7.13 10.86,6.89 10.69,6.75 10.52,6.61 9.15,6.1 8.98,6 8.84,5.86 8.74,5.62 8.74,5.38 8.88,4.97 9.01,4.73 9.18,4.59 9.9,4.15 10.01,3.98 10.04,3.74 9.94,3.36 9.66,2.57 9.63,2.3 9.63,1.88 9.66,0.55 9.63,0.03 9.63,0 "/>
 </g>
</svg>
