<?xml version="1.0" encoding="UTF-8"?>
<!DOCTYPE svg PUBLIC "-//W3C//DTD SVG 1.1//EN" "http://www.w3.org/Graphics/SVG/1.1/DTD/svg11.dtd">
<!-- Creator: CorelDRAW 2018 (64-Bit) -->
<svg xmlns="http://www.w3.org/2000/svg" xml:space="preserve" width="1.5708in" height="1.5708in" version="1.1" style="shape-rendering:geometricPrecision; text-rendering:geometricPrecision; image-rendering:optimizeQuality; fill-rule:evenodd; clip-rule:evenodd"
viewBox="0 0 198 198"
 xmlns:xlink="http://www.w3.org/1999/xlink">
 <defs>
  <style type="text/css">
   <![CDATA[
    .str0 {stroke:#F071AB;stroke-width:2.7;stroke-linecap:round;stroke-linejoin:round;stroke-miterlimit:10}
    .str1 {stroke:#B3B8DD;stroke-width:2.7;stroke-linecap:round;stroke-linejoin:round;stroke-miterlimit:10}
    .str2 {stroke:#F59183;stroke-width:1.35;stroke-linecap:round;stroke-linejoin:round;stroke-miterlimit:10}
    .fil6 {fill:none;fill-rule:nonzero}
    .fil1 {fill:#FEFEFE;fill-rule:nonzero}
    .fil3 {fill:#F7A397;fill-rule:nonzero}
    .fil5 {fill:#F283B4;fill-rule:nonzero}
    .fil4 {fill:#EF5A9E;fill-rule:nonzero}
    .fil2 {fill:#F5B6A4;fill-rule:nonzero}
    .fil9 {fill:#B3B8DD;fill-rule:nonzero}
    .fil7 {fill:#6274B6;fill-rule:nonzero}
    .fil8 {fill:#5E6EB2;fill-rule:nonzero}
    .fil0 {fill:#C3E2F5;fill-rule:nonzero}
   ]]>
  </style>
 </defs>
 <g id="Layer_x0020_1">
  <metadata id="CorelCorpID_0Corel-Layer"/>
  <g id="_1607341360256">
   <path class="fil0" d="M198 99c0,54.68 -44.32,99 -99,99 -54.68,0 -99,-44.32 -99,-99 0,-54.68 44.32,-99 99,-99 54.67,0 99,44.32 99,99z"/>
   <path class="fil1" d="M138.99 130.82c-1.74,-2.25 -5.25,-2.87 -7.65,-1.35 0.75,-3.34 -1.61,-7.07 -4.95,-7.82 -3.34,-0.75 -7.07,1.61 -7.81,4.96 0.29,-2.65 -1.07,-5.41 -3.35,-6.8 -2.28,-1.39 -5.36,-1.34 -7.58,0.13 -0.67,-4.54 -4.72,-8.35 -9.29,-8.73 -4.57,-0.38 -9.2,2.71 -10.61,7.08 -4.92,-4.21 -12.78,-4.49 -17.99,-0.65 -5.21,3.84 -7.27,11.43 -4.71,17.38 -3.29,3.37 -3.03,9.13 -0.45,13.08 2.58,3.95 6.92,6.38 11.32,8.08 10.74,4.16 22.81,4.82 33.93,1.85 5.86,-1.56 11.44,-4.13 16.47,-7.51 4.36,-2.94 9.55,-6.86 12.35,-11.41 1.49,-2.41 2.19,-5.87 0.34,-8.27z"/>
   <path class="fil2" d="M27.04 175.55c6.73,-3.13 13.05,-6.31 18.97,-9.47 0.56,-0.3 1.18,-0.39 1.8,-0.26 5.11,1.08 12.12,2.42 20.5,3.67 8.05,1.2 13.95,0.86 19.08,1.03 6.61,0.22 14.98,0.69 26.98,-3.2 0.38,-0.13 0.74,-0.33 1.03,-0.61 3.86,-3.63 7.83,-7.61 11.84,-11.95 6.53,-7.08 12.15,-14.03 16.96,-20.57 0.68,-1.09 0.85,-2.41 0.27,-3.34 -1.91,-3.07 -4.76,-2.43 -6.69,-1.17 -9.54,7.34 -17.43,15.15 -26.97,22.49 -0.52,0.4 -1.18,0.46 -1.83,0.55 -10.55,1.49 -29.54,-2.08 -29.54,-2.08 -1.15,-0.08 -2.13,-0.87 -2.41,-1.99 -0.19,-0.76 -0.28,-1.69 -0.1,-2.73 0.29,-1.62 1.13,-2.77 1.79,-3.46 0.45,-0.47 1.05,-0.76 1.7,-0.81 8.72,-0.79 17.44,-1.59 26.16,-2.38 0.54,-0.05 1.06,-0.25 1.47,-0.61 0.41,-0.36 3.47,-3.16 0.26,-6.38 -3.43,-3.44 -10.45,-1.72 -15.97,-3.14 -10.91,-2.79 -20.91,-5.48 -29.12,-4.25 -7.17,1.08 -37.1,12.18 -60.7,20.78 6.16,11.5 14.53,21.65 24.54,29.87z"/>
   <path class="fil3" d="M48.29 160.39c-10.63,-1.18 -21.79,0.74 -33.23,3.5 3.66,4.21 7.67,8.11 11.98,11.65 6.73,-3.13 13.05,-6.31 18.97,-9.47 0.56,-0.3 1.18,-0.39 1.8,-0.26 5.11,1.08 12.12,2.42 20.5,3.67 8.05,1.2 13.95,0.86 19.08,1.03 5.88,0.2 13.15,0.58 23.13,-2.07 -21,0.95 -43.26,-5.47 -62.23,-8.06z"/>
   <path class="fil4" d="M91.7 87.82l-5.15 4.88c-5.49,5.2 -14.17,4.97 -19.37,-0.53l-13.26 -14c-5.2,-5.49 -4.97,-14.17 0.53,-19.37l5.15 -4.88c5.49,-5.2 14.17,-4.97 19.37,0.53l13.27 14c5.2,5.49 4.97,14.16 -0.53,19.37z"/>
   <path class="fil5" d="M88.09 88.51l-4.13 3.91c-5.49,5.2 -14.17,4.97 -19.37,-0.53l-13.27 -14.01c-5.2,-5.49 -4.97,-14.16 0.53,-19.37l4.13 -3.91c5.49,-5.2 14.16,-4.97 19.37,0.53l13.26 14c5.2,5.49 4.97,14.17 -0.53,19.37z"/>
   <path class="fil6 str0" d="M58.42 76.54l-4.28 -4.52c-1.42,-1.5 -1.36,-3.87 0.14,-5.29l5.84 -5.53"/>
   <path class="fil6 str0" d="M83.46 72.49l4.29 4.52c1.42,1.5 1.36,3.87 -0.14,5.29l-5.84 5.53"/>
   <path class="fil7" d="M147.57 79.76c-2.74,9.27 -12.48,14.56 -21.75,11.81 -9.27,-2.74 -14.56,-12.48 -11.81,-21.75 2.74,-9.27 23.61,-24.93 25.47,-24.38 3.5,1.04 10.84,25.05 8.09,34.31z"/>
   <path class="fil8" d="M127.36 63.57c1.86,-5.58 4.58,-11.15 8.28,-16.2 -6.65,4.39 -19.51,15.32 -21.62,22.46 -2.74,9.27 2.55,19 11.81,21.75 2.12,0.63 4.27,0.82 6.35,0.65 -7.84,-6.61 -8.07,-18.93 -4.82,-28.66z"/>
   <path class="fil9" d="M135.98 83.4c-0.71,0.38 -1.47,0.7 -2.02,1.28 -0.55,0.58 -0.84,1.51 -0.41,2.19 0.48,0.76 1.56,0.83 2.43,0.66 1.97,-0.38 3.73,-1.55 5.08,-3.04 1.35,-1.49 2.32,-3.28 3.11,-5.13 0.28,-0.66 0.55,-1.36 0.5,-2.07 -0.09,-1.14 -1.18,-2.02 -2.22,-1.28 -0.68,0.48 -0.78,1.44 -1.15,2.14 -1.18,2.21 -3.11,4.07 -5.31,5.25z"/>
   <line class="fil6 str1" x1="35.65" y1="96" x2="35.65" y2= "119.95" />
   <line class="fil6 str1" x1="23.68" y1="107.98" x2="47.63" y2= "107.98" />
   <line class="fil6 str1" x1="27.19" y1="99.51" x2="44.12" y2= "116.44" />
   <line class="fil6 str1" x1="27.19" y1="116.44" x2="44.12" y2= "99.51" />
   <line class="fil6 str1" x1="101.3" y1="37.68" x2="101.3" y2= "55.47" />
   <line class="fil6 str1" x1="92.4" y1="46.58" x2="110.19" y2= "46.58" />
   <line class="fil6 str1" x1="95.01" y1="40.29" x2="107.59" y2= "52.87" />
   <line class="fil6 str1" x1="95.01" y1="52.87" x2="107.59" y2= "40.29" />
   <line class="fil6 str1" x1="171.47" y1="114.49" x2="171.47" y2= "132.28" />
   <line class="fil6 str1" x1="162.58" y1="123.39" x2="180.37" y2= "123.39" />
   <line class="fil6 str1" x1="165.18" y1="117.1" x2="177.76" y2= "129.68" />
   <line class="fil6 str1" x1="165.18" y1="129.68" x2="177.76" y2= "117.1" />
   <line class="fil6 str1" x1="153.97" y1="90.54" x2="153.97" y2= "103.04" />
   <line class="fil6 str1" x1="147.72" y1="96.79" x2="160.22" y2= "96.79" />
   <line class="fil6 str1" x1="149.55" y1="92.37" x2="158.39" y2= "101.21" />
   <line class="fil6 str1" x1="149.55" y1="101.21" x2="158.39" y2= "92.37" />
   <path class="fil6 str2" d="M100.8 137.79c-0.39,-1.04 -0.45,-2.2 -0.16,-3.28 1.91,-0.59 3.82,-0.93 5.76,-0.41 0.64,0.17 1.28,0.42 1.72,0.91 0.44,0.49 0.6,1.28 0.21,1.81"/>
   <path class="fil6 str2" d="M92.86 137.75c0.3,0.74 0.16,1.64 -0.36,2.24"/>
   <path class="fil6 str2" d="M95.26 137.93c0,0.29 0,0.57 0,0.86"/>
   <path class="fil6 str2" d="M90.26 138.45c0.06,0.06 0.12,0.11 0.17,0.17"/>
   <path class="fil6 str2" d="M114.62 161.6c0.75,0.59 1.05,1.7 0.69,2.58"/>
   <path class="fil6 str2" d="M112.72 162.81c0.12,0.75 0.23,1.49 0.34,2.24"/>
   <path class="fil6 str2" d="M109.97 164.19c0.23,0.34 0.46,0.69 0.69,1.03"/>
   <path class="fil6 str2" d="M140.8 137.34c-1.01,-0.45 -1.7,-1.52 -1.68,-2.62 0.72,-0.45 1.19,-1.52 1.62,-2.25 0.43,-0.73 0.9,-1.49 1.64,-1.92 0.74,-0.42 1.82,-0.37 2.29,0.35"/>
   <path class="fil1" d="M110.3 97.89c0,-2.64 -2.14,-4.77 -4.78,-4.77 -2.64,0 -4.77,2.14 -4.77,4.77 0,2.64 2.14,4.78 4.77,4.78 2.64,0 4.78,-2.14 4.78,-4.78z"/>
   <path class="fil1" d="M171.24 71.8c0,-4.31 -3.49,-7.8 -7.8,-7.8 -4.31,0 -7.8,3.49 -7.8,7.8 0,4.31 3.49,7.8 7.8,7.8 4.31,0 7.8,-3.49 7.8,-7.8z"/>
   <path class="fil1" d="M35.28 78c0,-3.09 -2.5,-5.59 -5.59,-5.59 -3.09,0 -5.59,2.5 -5.59,5.59 0,3.09 2.5,5.59 5.59,5.59 3.09,0 5.59,-2.5 5.59,-5.59z"/>
   <path class="fil1" d="M160.34 157.29c0,-2.09 -1.7,-3.79 -3.79,-3.79 -2.09,0 -3.79,1.7 -3.79,3.79 0,2.1 1.7,3.79 3.79,3.79 2.09,0 3.79,-1.7 3.79,-3.79z"/>
   <path class="fil1" d="M87.94 184.18c0,-1.71 -1.39,-3.1 -3.1,-3.1 -1.71,0 -3.1,1.39 -3.1,3.1 0,1.71 1.39,3.1 3.1,3.1 1.71,0 3.1,-1.39 3.1,-3.1z"/>
   <path class="fil1" d="M81.97 25.64c0,4.73 -3.84,8.57 -8.58,8.57 -4.74,0 -8.58,-3.84 -8.58,-8.57 0,-4.74 3.84,-8.58 8.58,-8.58 4.74,0 8.58,3.84 8.58,8.58z"/>
  </g>
 </g>
</svg>
