<?xml version="1.0" encoding="UTF-8"?>
<!DOCTYPE svg PUBLIC "-//W3C//DTD SVG 1.1//EN" "http://www.w3.org/Graphics/SVG/1.1/DTD/svg11.dtd">
<!-- Creator: CorelDRAW 2018 (64-Bit) -->
<svg xmlns="http://www.w3.org/2000/svg" xml:space="preserve" width="1.7825in" height="1.91631in" version="1.1" style="shape-rendering:geometricPrecision; text-rendering:geometricPrecision; image-rendering:optimizeQuality; fill-rule:evenodd; clip-rule:evenodd"
viewBox="0 0 510.66 548.99"
 xmlns:xlink="http://www.w3.org/1999/xlink">
 <defs>
  <style type="text/css">
   <![CDATA[
    .fil8 {fill:#F5B6A4;fill-rule:nonzero}
    .fil16 {fill:#E13782;fill-rule:nonzero}
    .fil13 {fill:#6B809B;fill-rule:nonzero}
    .fil11 {fill:#9D388D;fill-rule:nonzero}
    .fil14 {fill:#92A1B7;fill-rule:nonzero}
    .fil10 {fill:#4E5D72;fill-rule:nonzero}
    .fil15 {fill:#3F495E;fill-rule:nonzero}
    .fil9 {fill:#32394A;fill-rule:nonzero}
    .fil7 {fill:#001533;fill-rule:nonzero}
    .fil6 {fill:#00265F;fill-rule:nonzero}
    .fil4 {fill:#37120B;fill-rule:nonzero}
    .fil12 {fill:#4EB6F2;fill-rule:nonzero}
    .fil1 {fill:#748729;fill-rule:nonzero}
    .fil2 {fill:#93A100;fill-rule:nonzero}
    .fil0 {fill:#C3E2F5;fill-rule:nonzero}
    .fil5 {fill:#F09F5B;fill-rule:nonzero}
    .fil3 {fill:#FDB171;fill-rule:nonzero}
   ]]>
  </style>
 </defs>
 <g id="Layer_x0020_1">
  <metadata id="CorelCorpID_0Corel-Layer"/>
  <g id="_1607364353712">
   <path class="fil0" d="M510.66 323.99c0,124.27 -100.74,225 -225,225 -124.27,0 -225,-100.74 -225,-225 0,-124.27 100.74,-225 225,-225 124.27,0 225,100.74 225,225z"/>
   <g>
    <path class="fil1" d="M154.84 261.81c0,0 -10.88,47.39 -16.41,55.7l40.06 18.3c0,0 14,-19.24 17.08,-32.8l-40.73 -41.19z"/>
    <path class="fil2" d="M158.71 223.04c-5.37,4.91 -11.83,13.29 -14.9,23.32 -5.05,16.56 9.59,30.46 23.4,39.67 13.8,9.2 33.79,48.01 33.79,48.01l44.91 -22.61c0,0 -13.04,-28.41 -16.79,-37.89 -3.75,-9.5 -19.17,-41.11 -19.17,-41.11l-51.24 -9.38z"/>
    <path class="fil3" d="M232.17 21.06c1.9,1.45 4.18,5.4 4.89,9.1 0.71,3.72 3.32,5.71 1.88,8.4 -1.42,2.69 0.09,6.26 3.05,9.18 3.29,3.25 4.71,5.34 1.65,6.77 -3.09,1.43 -2.61,1.15 -2.37,1.98 0.23,0.83 1.76,1.96 -0.02,3.68 0,0 1.58,1.48 0.36,2.91 -1.21,1.44 -1.71,2.03 -0.79,3.33 0.94,1.29 2.88,5.63 -0.91,7.59 -3.82,1.96 -12.07,0.84 -12.98,2.12 -0.94,1.29 0.68,1.31 -3.04,6.37 -3.72,5.05 -1.69,13.36 -1.69,13.36 0,0 -21.05,-2.64 -31.23,-14.49 0,0 4.17,-9.7 3.01,-12.3 0,0 4.67,0.89 4.1,-1.36 0,0 2.09,-2.97 1.41,-4.58 0,0 0.98,-4.15 -0.77,-5.94 0,0 0.54,-1.85 -0.6,-3.11 -1.15,-1.25 -2.05,-2.44 -2.43,-4.75 -0.39,-2.32 9.87,-11.16 10.21,-12.16 0.37,-0.98 2.27,-3.05 1.46,-4.26 -0.8,-1.2 -0.55,-2.07 0.18,-2.71 0.74,-0.64 24.63,-9.14 24.63,-9.14z"/>
    <path class="fil4" d="M193.77 71.14c1.51,-8.55 -4.85,-17.56 -8.54,-24.86 -3.68,-7.3 -4.33,-26.5 11.13,-31.1 15.46,-4.62 32.98,-1.66 33.82,-9.28 0,0 7.12,10.48 2.71,16.61 0,0 -18.81,8.26 -17.88,27.86l-3.71 1.02c0,0 -0.29,-9.38 -5.41,-8.53 -4.85,0.79 -1.51,6.04 -1.72,8.59 -0.21,2.52 -3.21,7.03 2.13,6.56 0,0 1.58,3.91 -6.34,9.59 -3.66,2.64 -6.17,3.54 -6.17,3.54z"/>
    <path class="fil5" d="M234.44 75.19c-0.14,0 -8.56,-0.07 -14.87,-3.39 -7.08,-3.71 -9.63,-10.05 -9.63,-10.05 0,0 5.14,13.94 16.58,16.96 0.05,-1.19 0.02,-2.08 0.4,-2.59 0.57,-0.81 4.04,-0.65 7.52,-0.93z"/>
    <path class="fil6" d="M267.78 429.29c-2.4,2.97 -10.65,7.5 -15.01,6.94 -4.33,-0.59 -10.65,-4.85 -11.5,-1.6 -0.87,3.24 -2.03,12.15 0.02,16.61 0,0 -0.99,1.21 -0.01,3.54 1,2.33 6.84,2.34 14.29,1.47 7.46,-0.88 30.19,-1.51 36.22,-4.03 6.02,-2.55 11.39,-5.62 11.91,-8.63 0.53,-3.05 1.63,-9.43 -3.84,-7.98 -5.47,1.45 -12.06,2.07 -15.1,0.73 -3.04,-1.37 -9.5,-3.38 -12.23,-5.52 -2.73,-2.14 -3.76,-2.7 -4.74,-1.52z"/>
    <path class="fil7" d="M64.33 362.87c-1.66,-3.12 -2.59,-11.88 -0.51,-15.39 2.07,-3.51 8.01,-7.39 5.55,-9.31 -2.47,-1.92 -9.7,-6.15 -14.28,-6 0,0 -0.66,-1.29 -3.02,-1.29 -2.37,0.01 -4.49,5 -6.45,11.72 -1.96,6.72 -9.67,26.47 -9.67,32.56 -0.02,6.09 0.66,11.81 3.07,13.35 2.42,1.55 7.5,4.82 8.25,-0.4 0.72,-5.22 2.6,-11.11 4.84,-13.23 2.26,-2.12 6.35,-6.91 9.18,-8.49 2.8,-1.56 3.68,-2.24 3.01,-3.51z"/>
    <path class="fil8" d="M187.79 106.74c8.2,-7.02 22.84,-2.12 28.17,7.85 5.34,9.95 -1,13.41 4.22,15.97 5.22,2.56 13.2,14.89 9.58,28.1 0,0 8.67,-7.4 23.08,-10.75 14.54,-3.38 18.02,-6.71 22.88,-9.83 4.87,-3.11 8.94,-10.94 12.94,-11.91 3.97,-0.96 11.8,-5.74 15.28,-1.05 5.74,7.72 3.18,13.44 -3.08,17.79 -6.25,4.35 -10.26,2.86 -14.52,5.97 -4.25,3.11 -22.43,24.32 -32.57,27.94 -10.15,3.63 -26.7,17.08 -31.6,7.88 -4.9,-9.18 -18.19,-21.47 -21.19,-25.86 -2.98,-4.4 -3.95,-13.71 -4.93,-16.42 -0.99,-2.72 -24.14,-22.1 -8.28,-35.68z"/>
    <path class="fil8" d="M189.36 295.31c2.66,5.47 2.27,16.88 16.59,34.32 3.99,4.87 10.86,9.74 8.9,22.99 -1.99,13.26 3.29,23.49 15.17,42.95 11.58,18.96 10.48,23.37 11.52,30.32 1,6.98 3.57,22.01 3.57,22.01 0,0 17.07,-2.5 20.38,-4.17 3.29,-1.68 6.49,-10.26 6.49,-10.26 0,0 -10.51,-18.33 -11.44,-26.67 -0.96,-8.34 -11.56,-52.16 -10.4,-57.87 2.74,-13.44 -3.17,-26.69 -10,-41.09 -8.5,-17.97 -3.55,-10.05 -3.55,-10.05l-47.23 -2.47z"/>
    <path class="fil8" d="M150.76 303.89c-4.89,1.23 -2.97,1.55 -6.4,9.12 -2.17,4.74 2,19.61 -9.71,17.87 -10.99,-1.64 -20.7,-7.12 -43.45,3.15 -15.08,6.82 -19.33,5.36 -25.14,5 -5.84,-0.36 -15.15,0.26 -15.15,0.26 0,0 -4.21,17.44 -3.42,20.41 0.8,2.97 7.22,7.04 7.22,7.04 0,0 17.11,-8.4 24.04,-7.75 6.92,0.64 58.18,2.02 62.89,2.98 12.62,2.62 16.92,-3.67 24.11,-11.05 11.52,-11.77 14.73,-28.53 14.73,-28.53l-29.73 -18.51z"/>
    <path class="fil9" d="M154.84 261.81c0,0 -10.88,47.39 -16.41,55.7l40.06 18.3c0,0 14,-19.24 17.08,-32.8l-40.73 -41.19z"/>
    <path class="fil10" d="M158.71 223.04c-5.37,4.91 -11.83,13.29 -14.9,23.32 -5.05,16.56 9.59,30.46 23.4,39.67 13.8,9.2 33.79,48.01 33.79,48.01l44.91 -22.61c0,0 -13.04,-28.41 -16.79,-37.89 -3.75,-9.5 -19.17,-41.11 -19.17,-41.11l-51.24 -9.38z"/>
    <path class="fil11" d="M192 78.71c0,0 5.7,6.71 29.8,14.81 0,0 18.35,19.21 12.26,52.13 -4.79,25.87 6.09,45.99 1.24,66.39 -5.25,22.08 -18.94,33.66 -18.94,33.66 0,0 -34.52,-13.56 -57.65,-22.67 0,0 7.98,-16.94 6.57,-30.97 -1.4,-14.03 -4.91,-49.07 -1.05,-69.06 3.86,-19.97 20.15,-39.55 27.78,-44.3z"/>
    <path class="fil8" d="M234.59 16.09c2.02,1.55 4.45,5.75 5.2,9.68 0.75,3.96 3.53,6.07 2.01,8.93 -1.5,2.85 0.09,6.65 3.23,9.76 3.5,3.45 5,5.67 1.74,7.19 -3.28,1.51 -2.77,1.22 -2.51,2.1 0.25,0.89 1.87,2.08 -0.02,3.92 0,0 1.69,1.56 0.39,3.08 -1.29,1.54 -1.82,2.16 -0.84,3.55 1,1.36 3.05,5.98 -0.97,8.05 -4.06,2.09 -12.82,0.9 -13.79,2.25 -1,1.37 0.72,1.4 -3.23,6.76 -3.95,5.36 -1.8,14.19 -1.8,14.19 0,0 -22.36,-2.79 -33.18,-15.39 0,0 4.43,-10.31 3.2,-13.08 0,0 4.96,0.94 4.36,-1.44 0,0 2.22,-3.15 1.49,-4.86 0,0 1.04,-4.41 -0.82,-6.31 0,0 0.57,-1.96 -0.64,-3.3 -1.21,-1.33 -2.17,-2.59 -2.57,-5.05 -0.42,-2.47 10.49,-11.87 10.84,-12.92 0.39,-1.04 2.41,-3.23 1.55,-4.53 -0.85,-1.27 -0.59,-2.2 0.19,-2.87 0.8,-0.68 26.17,-9.72 26.17,-9.72z"/>
    <path class="fil4" d="M193.8 69.3c1.61,-9.09 -5.15,-18.65 -9.08,-26.41 -3.92,-7.76 -4.6,-28.16 11.82,-33.04 16.42,-4.91 35.03,-1.77 35.92,-9.86 0,0 7.56,11.13 2.88,17.64 0,0 -19.99,8.77 -19,29.6l-3.94 1.09c0,0 -0.3,-9.97 -5.75,-9.07 -5.16,0.84 -1.61,6.42 -1.84,9.13 -0.22,2.68 -3.4,7.48 2.27,6.98 0,0 1.68,4.16 -6.74,10.19 -3.9,2.81 -6.56,3.76 -6.56,3.76z"/>
    <path class="fil5" d="M237 73.61c-0.14,0 -9.09,-0.07 -15.78,-3.6 -7.53,-3.94 -10.24,-10.68 -10.24,-10.68 0,0 5.47,14.81 17.61,18.02 0.05,-1.26 0.02,-2.21 0.43,-2.75 0.6,-0.86 4.29,-0.7 7.98,-0.99z"/>
    <path class="fil8" d="M199.36 90.49c12.63,6.25 13.95,25.78 4.48,36.82 -9.47,11.04 -10.01,12.76 -14.48,16.46 -5.69,4.7 -14.45,18.77 -32.33,20.87 0,0 13.59,6.08 28.4,22.61 12.58,14.04 11.91,19.8 18.15,24 6.21,4.21 17.78,5.27 20.94,9.47 3.16,4.21 7.71,6.4 4.28,13.07 -3.06,5.94 -8.14,10.07 -16.56,4.8 -8.4,-5.25 -9.21,-8.76 -15.11,-12.26 -5.92,-3.51 -37.12,-17.19 -46.58,-27.35 -9.46,-10.18 -36.8,-28.75 -28.04,-38.9 8.76,-10.17 33.41,-44.6 36.2,-47.05 2.81,-2.47 16.21,-34.63 40.65,-22.54z"/>
    <path class="fil6" d="M267.78 429.29c-2.4,2.97 -10.65,7.5 -15.01,6.94 -4.33,-0.59 -10.65,-4.85 -11.5,-1.6 -0.87,3.24 -2.03,12.15 0.02,16.61 0,0 -0.99,1.21 -0.01,3.54 1,2.33 6.84,2.34 14.29,1.47 7.46,-0.88 30.19,-1.51 36.22,-4.03 6.02,-2.55 11.39,-5.62 11.91,-8.63 0.53,-3.05 1.63,-9.43 -3.84,-7.98 -5.47,1.45 -12.06,2.07 -15.1,0.73 -3.04,-1.37 -9.5,-3.38 -12.23,-5.52 -2.73,-2.14 -3.76,-2.7 -4.74,-1.52z"/>
    <path class="fil7" d="M64.33 362.87c-1.66,-3.12 -2.59,-11.88 -0.51,-15.39 2.07,-3.51 8.01,-7.39 5.55,-9.31 -2.47,-1.92 -9.7,-6.15 -14.28,-6 0,0 -0.66,-1.29 -3.02,-1.29 -2.37,0.01 -4.49,5 -6.45,11.72 -1.96,6.72 -9.67,26.47 -9.67,32.56 -0.02,6.09 0.66,11.81 3.07,13.35 2.42,1.55 7.5,4.82 8.25,-0.4 0.72,-5.22 2.6,-11.11 4.84,-13.23 2.26,-2.12 6.35,-6.91 9.18,-8.49 2.8,-1.56 3.68,-2.24 3.01,-3.51z"/>
    <path class="fil12" d="M158.61 479.94c0,-3.63 2.98,-6.62 6.61,-6.62l146.56 0c3.64,0 6.63,2.99 6.63,6.62l0 3.85c0,3.65 -2.99,6.62 -6.63,6.62l-146.56 0c-3.64,0 -6.61,-2.98 -6.61,-6.62l0 -3.85z"/>
    <path class="fil12" d="M71.52 483.79c0,3.65 -2.96,6.62 -6.6,6.62l-33.05 0c-3.65,0 -6.63,-2.98 -6.63,-6.62l0 -10.47c0,-3.63 2.98,-6.6 6.63,-6.6l33.05 0c3.64,0 6.6,2.97 6.6,6.6l0 10.47z"/>
    <path class="fil13" d="M158.61 479.94c0,-3.63 2.98,-6.62 6.61,-6.62l146.56 0c3.64,0 6.63,2.99 6.63,6.62l0 3.85c0,3.65 -2.99,6.62 -6.63,6.62l-146.56 0c-3.64,0 -6.61,-2.98 -6.61,-6.62l0 -3.85z"/>
    <path class="fil13" d="M71.52 483.79c0,3.65 -2.96,6.62 -6.6,6.62l-33.05 0c-3.65,0 -6.63,-2.98 -6.63,-6.62l0 -10.47c0,-3.63 2.98,-6.6 6.63,-6.6l33.05 0c3.64,0 6.6,2.97 6.6,6.6l0 10.47z"/>
    <path class="fil13" d="M329.21 455.95c-7.35,0 -14.07,-4.9 -16.06,-12.34l-59.72 -223.2c-2.37,-8.88 2.9,-17.99 11.77,-20.36 8.87,-2.37 12.84,-1.1 15.21,7.77l59.73 223.21c2.37,8.87 2.26,21.98 -6.61,24.35 -1.44,0.38 -2.89,0.57 -4.31,0.57z"/>
    <path class="fil14" d="M352.56 466.72c0,3.63 -2.97,6.6 -6.61,6.6l-342.74 0c-3.63,0 -4.28,-1.85 -1.42,-4.1l16.07 -12.73c2.85,-2.25 8.16,-4.11 11.79,-4.11l316.3 0c3.64,0 6.61,2.98 6.61,6.62l0 7.72z"/>
    <path class="fil15" d="M253.44 218.91c-4.82,0 -9.31,-3.08 -10.87,-7.91 -1.95,-6 1.35,-12.44 7.35,-14.38 26.92,-8.73 53.59,-21.43 57.07,-27.19 6.94,-17.94 13.15,-38.54 13.21,-38.74 1.82,-6.05 8.19,-9.48 14.24,-7.66 6.04,1.81 9.48,8.18 7.67,14.23 -0.27,0.87 -6.52,21.66 -13.95,40.76 -6.7,17.21 -47.48,32.66 -71.19,40.34 -1.17,0.38 -2.36,0.56 -3.52,0.56z"/>
    <path class="fil15" d="M345.95 452.38l-316.3 0c-3.63,0 -8.94,1.86 -11.79,4.11l-16.07 12.73c-2.87,2.25 -2.22,4.1 1.42,4.1l1.74 0 12.92 -10.22c2.85,-2.26 8.16,-4.1 11.79,-4.1l316.3 0c3.64,0 6.61,2.98 6.61,6.6l0 -6.6c0,-3.64 -2.97,-6.62 -6.61,-6.62z"/>
    <path class="fil14" d="M408.76 483.79c0,3.65 -2.98,6.62 -6.62,6.62l-108 0c-3.63,0 -6,-2.93 -5.26,-6.48l11.78 -57.02c0.73,-3.56 4.32,-6.48 7.96,-6.48l93.52 0c3.63,0 6.62,2.97 6.62,6.6l0 56.76z"/>
    <path class="fil16" d="M313.89 440.12c0.75,-3.56 4.31,-6.48 7.96,-6.48l86.92 0 0 -6.61c0,-3.63 -2.98,-6.6 -6.62,-6.6l-93.52 0c-3.64,0 -7.22,2.92 -7.96,6.48l-11.78 57.02c-0.74,3.55 1.62,6.48 5.26,6.48l9.34 0 10.4 -50.29z"/>
   </g>
  </g>
 </g>
</svg>
